<?xml version="1.0" encoding="utf-8" standalone="no"?>
<!DOCTYPE svg PUBLIC "-//W3C//DTD SVG 1.1//EN"
  "http://www.w3.org/Graphics/SVG/1.1/DTD/svg11.dtd">
<svg xmlns:xlink="http://www.w3.org/1999/xlink" width="144pt" height="144pt" viewBox="0 0 144 144" xmlns="http://www.w3.org/2000/svg" version="1.1">
 <metadata>
  <rdf:RDF xmlns:dc="http://purl.org/dc/elements/1.1/" xmlns:cc="http://creativecommons.org/ns#" xmlns:rdf="http://www.w3.org/1999/02/22-rdf-syntax-ns#">
   <cc:Work>
    <dc:type rdf:resource="http://purl.org/dc/dcmitype/StillImage"/>
    <dc:date>2023-12-20T04:10:51.132372</dc:date>
    <dc:format>image/svg+xml</dc:format>
    <dc:creator>
     <cc:Agent>
      <dc:title>Matplotlib v3.8.2, https://matplotlib.org/</dc:title>
     </cc:Agent>
    </dc:creator>
   </cc:Work>
  </rdf:RDF>
 </metadata>
 <defs>
  <style type="text/css">*{stroke-linejoin: round; stroke-linecap: butt}</style>
 </defs>
 <g id="figure_1">
  <g id="patch_1">
   <path d="M 0 144 
L 144 144 
L 144 0 
L 0 0 
L 0 144 
z
" style="fill: none"/>
  </g>
  <g id="axes_1">
   <g id="legend_1">
    <g id="patch_2">
     <path d="M 44.825625 82.426875 
L 102.774375 82.426875 
Q 103.974375 82.426875 103.974375 81.226875 
L 103.974375 64.213125 
Q 103.974375 63.013125 102.774375 63.013125 
L 44.825625 63.013125 
Q 43.625625 63.013125 43.625625 64.213125 
L 43.625625 81.226875 
Q 43.625625 82.426875 44.825625 82.426875 
z
" style="fill: #ffffff; opacity: 0.8; stroke: #cccccc; stroke-linejoin: miter"/>
    </g>
    <g id="patch_3">
     <path d="M 46.025625 69.972188 
L 58.025625 69.972188 
L 58.025625 65.772188 
L 46.025625 65.772188 
z
" style="fill: #96cac1; stroke: #6a6a6a; stroke-linejoin: miter"/>
    </g>
    <g id="text_1">
     <text style="font: 6px 'DejaVu Sans', 'Arial', 'Helvetica', 'Lucida Grande', 'Verdana', 'Geneva', 'Lucid', 'Avant Garde', sans-serif; text-anchor: start" x="62.825625" y="69.972188" transform="rotate(-0 62.825625 69.972188)">Ground truth</text>
    </g>
    <g id="patch_4">
     <path d="M 46.025625 78.779063 
L 58.025625 78.779063 
L 58.025625 74.579063 
L 46.025625 74.579063 
z
" style="fill: #f6f6bc; stroke: #6a6a6a; stroke-linejoin: miter"/>
    </g>
    <g id="text_2">
     <text style="font: 6px 'DejaVu Sans', 'Arial', 'Helvetica', 'Lucida Grande', 'Verdana', 'Geneva', 'Lucid', 'Avant Garde', sans-serif; text-anchor: start" x="62.825625" y="78.779063" transform="rotate(-0 62.825625 78.779063)">Human</text>
    </g>
   </g>
  </g>
 </g>
</svg>
