<?xml version="1.0" encoding="utf-8" standalone="no"?>
<!DOCTYPE svg PUBLIC "-//W3C//DTD SVG 1.1//EN"
  "http://www.w3.org/Graphics/SVG/1.1/DTD/svg11.dtd">
<svg xmlns:xlink="http://www.w3.org/1999/xlink" width="144pt" height="144pt" viewBox="0 0 144 144" xmlns="http://www.w3.org/2000/svg" version="1.1">
 <metadata>
  <rdf:RDF xmlns:dc="http://purl.org/dc/elements/1.1/" xmlns:cc="http://creativecommons.org/ns#" xmlns:rdf="http://www.w3.org/1999/02/22-rdf-syntax-ns#">
   <cc:Work>
    <dc:type rdf:resource="http://purl.org/dc/dcmitype/StillImage"/>
    <dc:date>2023-12-20T04:10:47.588565</dc:date>
    <dc:format>image/svg+xml</dc:format>
    <dc:creator>
     <cc:Agent>
      <dc:title>Matplotlib v3.8.2, https://matplotlib.org/</dc:title>
     </cc:Agent>
    </dc:creator>
   </cc:Work>
  </rdf:RDF>
 </metadata>
 <defs>
  <style type="text/css">*{stroke-linejoin: round; stroke-linecap: butt}</style>
 </defs>
 <g id="figure_1">
  <g id="patch_1">
   <path d="M 0 144 
L 144 144 
L 144 0 
L 0 0 
L 0 144 
z
" style="fill: none"/>
  </g>
  <g id="axes_1">
   <g id="patch_2">
    <path d="M 28.8 118.08 
L 129.6 118.08 
L 129.6 33.12 
L 28.8 33.12 
L 28.8 118.08 
z
" style="fill: none"/>
   </g>
   <g id="PathCollection_1">
    <path d="M 33.381818 38.481818 
C 33.779623 38.481818 34.161188 38.323769 34.442478 38.042478 
C 34.723769 37.761188 34.881818 37.379623 34.881818 36.981818 
C 34.881818 36.584014 34.723769 36.202448 34.442478 35.921158 
C 34.161188 35.639868 33.779623 35.481818 33.381818 35.481818 
C 32.984014 35.481818 32.602448 35.639868 32.321158 35.921158 
C 32.039868 36.202448 31.881818 36.584014 31.881818 36.981818 
C 31.881818 37.379623 32.039868 37.761188 32.321158 38.042478 
C 32.602448 38.323769 32.984014 38.481818 33.381818 38.481818 
z
" clip-path="url(#p772a5d6f07)" style="fill: #fc8d62; stroke: #ffffff; stroke-width: 0.24"/>
    <path d="M 33.381818 75.620216 
C 33.779623 75.620216 34.161188 75.462167 34.442478 75.180877 
C 34.723769 74.899586 34.881818 74.518021 34.881818 74.120216 
C 34.881818 73.722412 34.723769 73.340847 34.442478 73.059556 
C 34.161188 72.778266 33.779623 72.620216 33.381818 72.620216 
C 32.984014 72.620216 32.602448 72.778266 32.321158 73.059556 
C 32.039868 73.340847 31.881818 73.722412 31.881818 74.120216 
C 31.881818 74.518021 32.039868 74.899586 32.321158 75.180877 
C 32.602448 75.462167 32.984014 75.620216 33.381818 75.620216 
z
" clip-path="url(#p772a5d6f07)" style="fill: #66c2a5; stroke: #ffffff; stroke-width: 0.24"/>
    <path d="M 39.490909 45.559808 
C 39.888714 45.559808 40.270279 45.401759 40.551569 45.120468 
C 40.83286 44.839178 40.990909 44.457613 40.990909 44.059808 
C 40.990909 43.662003 40.83286 43.280438 40.551569 42.999148 
C 40.270279 42.717858 39.888714 42.559808 39.490909 42.559808 
C 39.093104 42.559808 38.711539 42.717858 38.430249 42.999148 
C 38.148959 43.280438 37.990909 43.662003 37.990909 44.059808 
C 37.990909 44.457613 38.148959 44.839178 38.430249 45.120468 
C 38.711539 45.401759 39.093104 45.559808 39.490909 45.559808 
z
" clip-path="url(#p772a5d6f07)" style="fill: #fc8d62; stroke: #ffffff; stroke-width: 0.24"/>
    <path d="M 39.490909 79.439173 
C 39.888714 79.439173 40.270279 79.281124 40.551569 78.999833 
C 40.83286 78.718543 40.990909 78.336978 40.990909 77.939173 
C 40.990909 77.541369 40.83286 77.159803 40.551569 76.878513 
C 40.270279 76.597223 39.888714 76.439173 39.490909 76.439173 
C 39.093104 76.439173 38.711539 76.597223 38.430249 76.878513 
C 38.148959 77.159803 37.990909 77.541369 37.990909 77.939173 
C 37.990909 78.336978 38.148959 78.718543 38.430249 78.999833 
C 38.711539 79.281124 39.093104 79.439173 39.490909 79.439173 
z
" clip-path="url(#p772a5d6f07)" style="fill: #66c2a5; stroke: #ffffff; stroke-width: 0.24"/>
    <path d="M 45.6 53.280375 
C 45.997805 53.280375 46.37937 53.122326 46.66066 52.841035 
C 46.941951 52.559745 47.1 52.17818 47.1 51.780375 
C 47.1 51.38257 46.941951 51.001005 46.66066 50.719715 
C 46.37937 50.438424 45.997805 50.280375 45.6 50.280375 
C 45.202195 50.280375 44.82063 50.438424 44.53934 50.719715 
C 44.258049 51.001005 44.1 51.38257 44.1 51.780375 
C 44.1 52.17818 44.258049 52.559745 44.53934 52.841035 
C 44.82063 53.122326 45.202195 53.280375 45.6 53.280375 
z
" clip-path="url(#p772a5d6f07)" style="fill: #fc8d62; stroke: #ffffff; stroke-width: 0.24"/>
    <path d="M 45.6 85.715901 
C 45.997805 85.715901 46.37937 85.557852 46.66066 85.276561 
C 46.941951 84.995271 47.1 84.613706 47.1 84.215901 
C 47.1 83.818097 46.941951 83.436531 46.66066 83.155241 
C 46.37937 82.873951 45.997805 82.715901 45.6 82.715901 
C 45.202195 82.715901 44.82063 82.873951 44.53934 83.155241 
C 44.258049 83.436531 44.1 83.818097 44.1 84.215901 
C 44.1 84.613706 44.258049 84.995271 44.53934 85.276561 
C 44.82063 85.557852 45.202195 85.715901 45.6 85.715901 
z
" clip-path="url(#p772a5d6f07)" style="fill: #66c2a5; stroke: #ffffff; stroke-width: 0.24"/>
    <path d="M 51.709091 56.891557 
C 52.106896 56.891557 52.488461 56.733508 52.769751 56.452217 
C 53.051041 56.170927 53.209091 55.789362 53.209091 55.391557 
C 53.209091 54.993753 53.051041 54.612188 52.769751 54.330897 
C 52.488461 54.049607 52.106896 53.891557 51.709091 53.891557 
C 51.311286 53.891557 50.929721 54.049607 50.648431 54.330897 
C 50.36714 54.612188 50.209091 54.993753 50.209091 55.391557 
C 50.209091 55.789362 50.36714 56.170927 50.648431 56.452217 
C 50.929721 56.733508 51.311286 56.891557 51.709091 56.891557 
z
" clip-path="url(#p772a5d6f07)" style="fill: #fc8d62; stroke: #ffffff; stroke-width: 0.24"/>
    <path d="M 51.709091 87.770784 
C 52.106896 87.770784 52.488461 87.612735 52.769751 87.331444 
C 53.051041 87.050154 53.209091 86.668589 53.209091 86.270784 
C 53.209091 85.87298 53.051041 85.491414 52.769751 85.210124 
C 52.488461 84.928834 52.106896 84.770784 51.709091 84.770784 
C 51.311286 84.770784 50.929721 84.928834 50.648431 85.210124 
C 50.36714 85.491414 50.209091 85.87298 50.209091 86.270784 
C 50.209091 86.668589 50.36714 87.050154 50.648431 87.331444 
C 50.929721 87.612735 51.311286 87.770784 51.709091 87.770784 
z
" clip-path="url(#p772a5d6f07)" style="fill: #66c2a5; stroke: #ffffff; stroke-width: 0.24"/>
    <path d="M 57.818182 62.901456 
C 58.215986 62.901456 58.597552 62.743406 58.878842 62.462116 
C 59.160132 62.180826 59.318182 61.799261 59.318182 61.401456 
C 59.318182 61.003651 59.160132 60.622086 58.878842 60.340796 
C 58.597552 60.059505 58.215986 59.901456 57.818182 59.901456 
C 57.420377 59.901456 57.038812 60.059505 56.757522 60.340796 
C 56.476231 60.622086 56.318182 61.003651 56.318182 61.401456 
C 56.318182 61.799261 56.476231 62.180826 56.757522 62.462116 
C 57.038812 62.743406 57.420377 62.901456 57.818182 62.901456 
z
" clip-path="url(#p772a5d6f07)" style="fill: #fc8d62; stroke: #ffffff; stroke-width: 0.24"/>
    <path d="M 57.818182 91.353408 
C 58.215986 91.353408 58.597552 91.195359 58.878842 90.914069 
C 59.160132 90.632778 59.318182 90.251213 59.318182 89.853408 
C 59.318182 89.455604 59.160132 89.074039 58.878842 88.792748 
C 58.597552 88.511458 58.215986 88.353408 57.818182 88.353408 
C 57.420377 88.353408 57.038812 88.511458 56.757522 88.792748 
C 56.476231 89.074039 56.318182 89.455604 56.318182 89.853408 
C 56.318182 90.251213 56.476231 90.632778 56.757522 90.914069 
C 57.038812 91.195359 57.420377 91.353408 57.818182 91.353408 
z
" clip-path="url(#p772a5d6f07)" style="fill: #66c2a5; stroke: #ffffff; stroke-width: 0.24"/>
    <path d="M 63.927273 65.864255 
C 64.325077 65.864255 64.706643 65.706206 64.987933 65.424915 
C 65.269223 65.143625 65.427273 64.76206 65.427273 64.364255 
C 65.427273 63.966451 65.269223 63.584885 64.987933 63.303595 
C 64.706643 63.022305 64.325077 62.864255 63.927273 62.864255 
C 63.529468 62.864255 63.147903 63.022305 62.866613 63.303595 
C 62.585322 63.584885 62.427273 63.966451 62.427273 64.364255 
C 62.427273 64.76206 62.585322 65.143625 62.866613 65.424915 
C 63.147903 65.706206 63.529468 65.864255 63.927273 65.864255 
z
" clip-path="url(#p772a5d6f07)" style="fill: #fc8d62; stroke: #ffffff; stroke-width: 0.24"/>
    <path d="M 63.927273 92.114506 
C 64.325077 92.114506 64.706643 91.956457 64.987933 91.675166 
C 65.269223 91.393876 65.427273 91.012311 65.427273 90.614506 
C 65.427273 90.216701 65.269223 89.835136 64.987933 89.553846 
C 64.706643 89.272556 64.325077 89.114506 63.927273 89.114506 
C 63.529468 89.114506 63.147903 89.272556 62.866613 89.553846 
C 62.585322 89.835136 62.427273 90.216701 62.427273 90.614506 
C 62.427273 91.012311 62.585322 91.393876 62.866613 91.675166 
C 63.147903 91.956457 63.529468 92.114506 63.927273 92.114506 
z
" clip-path="url(#p772a5d6f07)" style="fill: #66c2a5; stroke: #ffffff; stroke-width: 0.24"/>
    <path d="M 70.036364 70.31452 
C 70.434168 70.31452 70.815733 70.156471 71.097024 69.875181 
C 71.378314 69.59389 71.536364 69.212325 71.536364 68.81452 
C 71.536364 68.416716 71.378314 68.035151 71.097024 67.75386 
C 70.815733 67.47257 70.434168 67.31452 70.036364 67.31452 
C 69.638559 67.31452 69.256994 67.47257 68.975703 67.75386 
C 68.694413 68.035151 68.536364 68.416716 68.536364 68.81452 
C 68.536364 69.212325 68.694413 69.59389 68.975703 69.875181 
C 69.256994 70.156471 69.638559 70.31452 70.036364 70.31452 
z
" clip-path="url(#p772a5d6f07)" style="fill: #fc8d62; stroke: #ffffff; stroke-width: 0.24"/>
    <path d="M 70.036364 94.502287 
C 70.434168 94.502287 70.815733 94.344238 71.097024 94.062947 
C 71.378314 93.781657 71.536364 93.400092 71.536364 93.002287 
C 71.536364 92.604482 71.378314 92.222917 71.097024 91.941627 
C 70.815733 91.660336 70.434168 91.502287 70.036364 91.502287 
C 69.638559 91.502287 69.256994 91.660336 68.975703 91.941627 
C 68.694413 92.222917 68.536364 92.604482 68.536364 93.002287 
C 68.536364 93.400092 68.694413 93.781657 68.975703 94.062947 
C 69.256994 94.344238 69.638559 94.502287 70.036364 94.502287 
z
" clip-path="url(#p772a5d6f07)" style="fill: #66c2a5; stroke: #ffffff; stroke-width: 0.24"/>
    <path d="M 76.145455 72.242021 
C 76.543259 72.242021 76.924824 72.083972 77.206115 71.802682 
C 77.487405 71.521391 77.645455 71.139826 77.645455 70.742021 
C 77.645455 70.344217 77.487405 69.962652 77.206115 69.681361 
C 76.924824 69.400071 76.543259 69.242021 76.145455 69.242021 
C 75.74765 69.242021 75.366085 69.400071 75.084794 69.681361 
C 74.803504 69.962652 74.645455 70.344217 74.645455 70.742021 
C 74.645455 71.139826 74.803504 71.521391 75.084794 71.802682 
C 75.366085 72.083972 75.74765 72.242021 76.145455 72.242021 
z
" clip-path="url(#p772a5d6f07)" style="fill: #fc8d62; stroke: #ffffff; stroke-width: 0.24"/>
    <path d="M 76.145455 94.847219 
C 76.543259 94.847219 76.924824 94.689169 77.206115 94.407879 
C 77.487405 94.126588 77.645455 93.745023 77.645455 93.347219 
C 77.645455 92.949414 77.487405 92.567849 77.206115 92.286558 
C 76.924824 92.005268 76.543259 91.847219 76.145455 91.847219 
C 75.74765 91.847219 75.366085 92.005268 75.084794 92.286558 
C 74.803504 92.567849 74.645455 92.949414 74.645455 93.347219 
C 74.645455 93.745023 74.803504 94.126588 75.084794 94.407879 
C 75.366085 94.689169 75.74765 94.847219 76.145455 94.847219 
z
" clip-path="url(#p772a5d6f07)" style="fill: #66c2a5; stroke: #ffffff; stroke-width: 0.24"/>
    <path d="M 82.254545 75.574053 
C 82.65235 75.574053 83.033915 75.416004 83.315206 75.134713 
C 83.596496 74.853423 83.754545 74.471858 83.754545 74.074053 
C 83.754545 73.676249 83.596496 73.294683 83.315206 73.013393 
C 83.033915 72.732103 82.65235 72.574053 82.254545 72.574053 
C 81.856741 72.574053 81.475176 72.732103 81.193885 73.013393 
C 80.912595 73.294683 80.754545 73.676249 80.754545 74.074053 
C 80.754545 74.471858 80.912595 74.853423 81.193885 75.134713 
C 81.475176 75.416004 81.856741 75.574053 82.254545 75.574053 
z
" clip-path="url(#p772a5d6f07)" style="fill: #fc8d62; stroke: #ffffff; stroke-width: 0.24"/>
    <path d="M 82.254545 96.748559 
C 82.65235 96.748559 83.033915 96.590509 83.315206 96.309219 
C 83.596496 96.027928 83.754545 95.646363 83.754545 95.248559 
C 83.754545 94.850754 83.596496 94.469189 83.315206 94.187898 
C 83.033915 93.906608 82.65235 93.748559 82.254545 93.748559 
C 81.856741 93.748559 81.475176 93.906608 81.193885 94.187898 
C 80.912595 94.469189 80.754545 94.850754 80.754545 95.248559 
C 80.754545 95.646363 80.912595 96.027928 81.193885 96.309219 
C 81.475176 96.590509 81.856741 96.748559 82.254545 96.748559 
z
" clip-path="url(#p772a5d6f07)" style="fill: #66c2a5; stroke: #ffffff; stroke-width: 0.24"/>
    <path d="M 88.363636 76.821942 
C 88.761441 76.821942 89.143006 76.663893 89.424297 76.382602 
C 89.705587 76.101312 89.863636 75.719747 89.863636 75.321942 
C 89.863636 74.924137 89.705587 74.542572 89.424297 74.261282 
C 89.143006 73.979991 88.761441 73.821942 88.363636 73.821942 
C 87.965832 73.821942 87.584267 73.979991 87.302976 74.261282 
C 87.021686 74.542572 86.863636 74.924137 86.863636 75.321942 
C 86.863636 75.719747 87.021686 76.101312 87.302976 76.382602 
C 87.584267 76.663893 87.965832 76.821942 88.363636 76.821942 
z
" clip-path="url(#p772a5d6f07)" style="fill: #fc8d62; stroke: #ffffff; stroke-width: 0.24"/>
    <path d="M 88.363636 96.850712 
C 88.761441 96.850712 89.143006 96.692663 89.424297 96.411372 
C 89.705587 96.130082 89.863636 95.748517 89.863636 95.350712 
C 89.863636 94.952908 89.705587 94.571342 89.424297 94.290052 
C 89.143006 94.008762 88.761441 93.850712 88.363636 93.850712 
C 87.965832 93.850712 87.584267 94.008762 87.302976 94.290052 
C 87.021686 94.571342 86.863636 94.952908 86.863636 95.350712 
C 86.863636 95.748517 87.021686 96.130082 87.302976 96.411372 
C 87.584267 96.692663 87.965832 96.850712 88.363636 96.850712 
z
" clip-path="url(#p772a5d6f07)" style="fill: #66c2a5; stroke: #ffffff; stroke-width: 0.24"/>
    <path d="M 94.472727 79.258763 
C 94.870532 79.258763 95.252097 79.100714 95.533387 78.819423 
C 95.814678 78.538133 95.972727 78.156568 95.972727 77.758763 
C 95.972727 77.360959 95.814678 76.979393 95.533387 76.698103 
C 95.252097 76.416813 94.870532 76.258763 94.472727 76.258763 
C 94.074923 76.258763 93.693357 76.416813 93.412067 76.698103 
C 93.130777 76.979393 92.972727 77.360959 92.972727 77.758763 
C 92.972727 78.156568 93.130777 78.538133 93.412067 78.819423 
C 93.693357 79.100714 94.074923 79.258763 94.472727 79.258763 
z
" clip-path="url(#p772a5d6f07)" style="fill: #fc8d62; stroke: #ffffff; stroke-width: 0.24"/>
    <path d="M 94.472727 98.258647 
C 94.870532 98.258647 95.252097 98.100598 95.533387 97.819308 
C 95.814678 97.538017 95.972727 97.156452 95.972727 96.758647 
C 95.972727 96.360843 95.814678 95.979278 95.533387 95.697987 
C 95.252097 95.416697 94.870532 95.258647 94.472727 95.258647 
C 94.074923 95.258647 93.693357 95.416697 93.412067 95.697987 
C 93.130777 95.979278 92.972727 96.360843 92.972727 96.758647 
C 92.972727 97.156452 93.130777 97.538017 93.412067 97.819308 
C 93.693357 98.100598 94.074923 98.258647 94.472727 98.258647 
z
" clip-path="url(#p772a5d6f07)" style="fill: #66c2a5; stroke: #ffffff; stroke-width: 0.24"/>
    <path d="M 100.581818 80.101 
C 100.979623 80.101 101.361188 79.942951 101.642478 79.66166 
C 101.923769 79.38037 102.081818 78.998805 102.081818 78.601 
C 102.081818 78.203196 101.923769 77.82163 101.642478 77.54034 
C 101.361188 77.25905 100.979623 77.101 100.581818 77.101 
C 100.184014 77.101 99.802448 77.25905 99.521158 77.54034 
C 99.239868 77.82163 99.081818 78.203196 99.081818 78.601 
C 99.081818 78.998805 99.239868 79.38037 99.521158 79.66166 
C 99.802448 79.942951 100.184014 80.101 100.581818 80.101 
z
" clip-path="url(#p772a5d6f07)" style="fill: #fc8d62; stroke: #ffffff; stroke-width: 0.24"/>
    <path d="M 100.581818 98.195759 
C 100.979623 98.195759 101.361188 98.037709 101.642478 97.756419 
C 101.923769 97.475129 102.081818 97.093563 102.081818 96.695759 
C 102.081818 96.297954 101.923769 95.916389 101.642478 95.635099 
C 101.361188 95.353808 100.979623 95.195759 100.581818 95.195759 
C 100.184014 95.195759 99.802448 95.353808 99.521158 95.635099 
C 99.239868 95.916389 99.081818 96.297954 99.081818 96.695759 
C 99.081818 97.093563 99.239868 97.475129 99.521158 97.756419 
C 99.802448 98.037709 100.184014 98.195759 100.581818 98.195759 
z
" clip-path="url(#p772a5d6f07)" style="fill: #66c2a5; stroke: #ffffff; stroke-width: 0.24"/>
    <path d="M 106.690909 82.859724 
C 107.088714 82.859724 107.470279 82.701674 107.751569 82.420384 
C 108.03286 82.139094 108.190909 81.757529 108.190909 81.359724 
C 108.190909 80.961919 108.03286 80.580354 107.751569 80.299064 
C 107.470279 80.017773 107.088714 79.859724 106.690909 79.859724 
C 106.293104 79.859724 105.911539 80.017773 105.630249 80.299064 
C 105.348959 80.580354 105.190909 80.961919 105.190909 81.359724 
C 105.190909 81.757529 105.348959 82.139094 105.630249 82.420384 
C 105.911539 82.701674 106.293104 82.859724 106.690909 82.859724 
z
" clip-path="url(#p772a5d6f07)" style="fill: #fc8d62; stroke: #ffffff; stroke-width: 0.24"/>
    <path d="M 106.690909 99.374286 
C 107.088714 99.374286 107.470279 99.216236 107.751569 98.934946 
C 108.03286 98.653655 108.190909 98.27209 108.190909 97.874286 
C 108.190909 97.476481 108.03286 97.094916 107.751569 96.813625 
C 107.470279 96.532335 107.088714 96.374286 106.690909 96.374286 
C 106.293104 96.374286 105.911539 96.532335 105.630249 96.813625 
C 105.348959 97.094916 105.190909 97.476481 105.190909 97.874286 
C 105.190909 98.27209 105.348959 98.653655 105.630249 98.934946 
C 105.911539 99.216236 106.293104 99.374286 106.690909 99.374286 
z
" clip-path="url(#p772a5d6f07)" style="fill: #66c2a5; stroke: #ffffff; stroke-width: 0.24"/>
    <path d="M 112.8 85.219501 
C 113.197805 85.219501 113.57937 85.061452 113.86066 84.780161 
C 114.141951 84.498871 114.3 84.117306 114.3 83.719501 
C 114.3 83.321697 114.141951 82.940131 113.86066 82.658841 
C 113.57937 82.377551 113.197805 82.219501 112.8 82.219501 
C 112.402195 82.219501 112.02063 82.377551 111.73934 82.658841 
C 111.458049 82.940131 111.3 83.321697 111.3 83.719501 
C 111.3 84.117306 111.458049 84.498871 111.73934 84.780161 
C 112.02063 85.061452 112.402195 85.219501 112.8 85.219501 
z
" clip-path="url(#p772a5d6f07)" style="fill: #fc8d62; stroke: #ffffff; stroke-width: 0.24"/>
    <path d="M 112.8 99.696728 
C 113.197805 99.696728 113.57937 99.538679 113.86066 99.257389 
C 114.141951 98.976098 114.3 98.594533 114.3 98.196728 
C 114.3 97.798924 114.141951 97.417359 113.86066 97.136068 
C 113.57937 96.854778 113.197805 96.696728 112.8 96.696728 
C 112.402195 96.696728 112.02063 96.854778 111.73934 97.136068 
C 111.458049 97.417359 111.3 97.798924 111.3 98.196728 
C 111.3 98.594533 111.458049 98.976098 111.73934 99.257389 
C 112.02063 99.538679 112.402195 99.696728 112.8 99.696728 
z
" clip-path="url(#p772a5d6f07)" style="fill: #66c2a5; stroke: #ffffff; stroke-width: 0.24"/>
    <path d="M 118.909091 87.332956 
C 119.306896 87.332956 119.688461 87.174907 119.969751 86.893616 
C 120.251041 86.612326 120.409091 86.230761 120.409091 85.832956 
C 120.409091 85.435151 120.251041 85.053586 119.969751 84.772296 
C 119.688461 84.491006 119.306896 84.332956 118.909091 84.332956 
C 118.511286 84.332956 118.129721 84.491006 117.848431 84.772296 
C 117.56714 85.053586 117.409091 85.435151 117.409091 85.832956 
C 117.409091 86.230761 117.56714 86.612326 117.848431 86.893616 
C 118.129721 87.174907 118.511286 87.332956 118.909091 87.332956 
z
" clip-path="url(#p772a5d6f07)" style="fill: #fc8d62; stroke: #ffffff; stroke-width: 0.24"/>
    <path d="M 118.909091 100.116447 
C 119.306896 100.116447 119.688461 99.958398 119.969751 99.677108 
C 120.251041 99.395817 120.409091 99.014252 120.409091 98.616447 
C 120.409091 98.218643 120.251041 97.837078 119.969751 97.555787 
C 119.688461 97.274497 119.306896 97.116447 118.909091 97.116447 
C 118.511286 97.116447 118.129721 97.274497 117.848431 97.555787 
C 117.56714 97.837078 117.409091 98.218643 117.409091 98.616447 
C 117.409091 99.014252 117.56714 99.395817 117.848431 99.677108 
C 118.129721 99.958398 118.511286 100.116447 118.909091 100.116447 
z
" clip-path="url(#p772a5d6f07)" style="fill: #66c2a5; stroke: #ffffff; stroke-width: 0.24"/>
    <path d="M 125.018182 90.150799 
C 125.415986 90.150799 125.797552 89.99275 126.078842 89.71146 
C 126.360132 89.430169 126.518182 89.048604 126.518182 88.650799 
C 126.518182 88.252995 126.360132 87.87143 126.078842 87.590139 
C 125.797552 87.308849 125.415986 87.150799 125.018182 87.150799 
C 124.620377 87.150799 124.238812 87.308849 123.957522 87.590139 
C 123.676231 87.87143 123.518182 88.252995 123.518182 88.650799 
C 123.518182 89.048604 123.676231 89.430169 123.957522 89.71146 
C 124.238812 89.99275 124.620377 90.150799 125.018182 90.150799 
z
" clip-path="url(#p772a5d6f07)" style="fill: #fc8d62; stroke: #ffffff; stroke-width: 0.24"/>
    <path d="M 125.018182 101.49289 
C 125.415986 101.49289 125.797552 101.334841 126.078842 101.05355 
C 126.360132 100.77226 126.518182 100.390695 126.518182 99.99289 
C 126.518182 99.595085 126.360132 99.21352 126.078842 98.93223 
C 125.797552 98.650939 125.415986 98.49289 125.018182 98.49289 
C 124.620377 98.49289 124.238812 98.650939 123.957522 98.93223 
C 123.676231 99.21352 123.518182 99.595085 123.518182 99.99289 
C 123.518182 100.390695 123.676231 100.77226 123.957522 101.05355 
C 124.238812 101.334841 124.620377 101.49289 125.018182 101.49289 
z
" clip-path="url(#p772a5d6f07)" style="fill: #66c2a5; stroke: #ffffff; stroke-width: 0.24"/>
    <path d="M 32.631818 73.85098 
L 33.381818 73.10098 
L 34.131818 73.85098 
L 34.881818 73.10098 
L 34.131818 72.35098 
L 34.881818 71.60098 
L 34.131818 70.85098 
L 33.381818 71.60098 
L 32.631818 70.85098 
L 31.881818 71.60098 
L 32.631818 72.35098 
L 31.881818 73.10098 
z
" clip-path="url(#p772a5d6f07)" style="fill: #fc8d62; stroke: #ffffff; stroke-width: 0.24"/>
    <path d="M 32.631818 102.716146 
L 33.381818 101.966146 
L 34.131818 102.716146 
L 34.881818 101.966146 
L 34.131818 101.216146 
L 34.881818 100.466146 
L 34.131818 99.716146 
L 33.381818 100.466146 
L 32.631818 99.716146 
L 31.881818 100.466146 
L 32.631818 101.216146 
L 31.881818 101.966146 
z
" clip-path="url(#p772a5d6f07)" style="fill: #66c2a5; stroke: #ffffff; stroke-width: 0.24"/>
    <path d="M 38.740909 83.619305 
L 39.490909 82.869305 
L 40.240909 83.619305 
L 40.990909 82.869305 
L 40.240909 82.119305 
L 40.990909 81.369305 
L 40.240909 80.619305 
L 39.490909 81.369305 
L 38.740909 80.619305 
L 37.990909 81.369305 
L 38.740909 82.119305 
L 37.990909 82.869305 
z
" clip-path="url(#p772a5d6f07)" style="fill: #fc8d62; stroke: #ffffff; stroke-width: 0.24"/>
    <path d="M 38.740909 105.932071 
L 39.490909 105.182071 
L 40.240909 105.932071 
L 40.990909 105.182071 
L 40.240909 104.432071 
L 40.990909 103.682071 
L 40.240909 102.932071 
L 39.490909 103.682071 
L 38.740909 102.932071 
L 37.990909 103.682071 
L 38.740909 104.432071 
L 37.990909 105.182071 
z
" clip-path="url(#p772a5d6f07)" style="fill: #66c2a5; stroke: #ffffff; stroke-width: 0.24"/>
    <path d="M 44.85 91.684132 
L 45.6 90.934132 
L 46.35 91.684132 
L 47.1 90.934132 
L 46.35 90.184132 
L 47.1 89.434132 
L 46.35 88.684132 
L 45.6 89.434132 
L 44.85 88.684132 
L 44.1 89.434132 
L 44.85 90.184132 
L 44.1 90.934132 
z
" clip-path="url(#p772a5d6f07)" style="fill: #fc8d62; stroke: #ffffff; stroke-width: 0.24"/>
    <path d="M 44.85 110.473122 
L 45.6 109.723122 
L 46.35 110.473122 
L 47.1 109.723122 
L 46.35 108.973122 
L 47.1 108.223122 
L 46.35 107.473122 
L 45.6 108.223122 
L 44.85 107.473122 
L 44.1 108.223122 
L 44.85 108.973122 
L 44.1 109.723122 
z
" clip-path="url(#p772a5d6f07)" style="fill: #66c2a5; stroke: #ffffff; stroke-width: 0.24"/>
    <path d="M 50.959091 95.061749 
L 51.709091 94.311749 
L 52.459091 95.061749 
L 53.209091 94.311749 
L 52.459091 93.561749 
L 53.209091 92.811749 
L 52.459091 92.061749 
L 51.709091 92.811749 
L 50.959091 92.061749 
L 50.209091 92.811749 
L 50.959091 93.561749 
L 50.209091 94.311749 
z
" clip-path="url(#p772a5d6f07)" style="fill: #fc8d62; stroke: #ffffff; stroke-width: 0.24"/>
    <path d="M 50.959091 111.16569 
L 51.709091 110.41569 
L 52.459091 111.16569 
L 53.209091 110.41569 
L 52.459091 109.66569 
L 53.209091 108.91569 
L 52.459091 108.16569 
L 51.709091 108.91569 
L 50.959091 108.16569 
L 50.209091 108.91569 
L 50.959091 109.66569 
L 50.209091 110.41569 
z
" clip-path="url(#p772a5d6f07)" style="fill: #66c2a5; stroke: #ffffff; stroke-width: 0.24"/>
    <path d="M 57.068182 100.03441 
L 57.818182 99.28441 
L 58.568182 100.03441 
L 59.318182 99.28441 
L 58.568182 98.53441 
L 59.318182 97.78441 
L 58.568182 97.03441 
L 57.818182 97.78441 
L 57.068182 97.03441 
L 56.318182 97.78441 
L 57.068182 98.53441 
L 56.318182 99.28441 
z
" clip-path="url(#p772a5d6f07)" style="fill: #fc8d62; stroke: #ffffff; stroke-width: 0.24"/>
    <path d="M 57.068182 113.46901 
L 57.818182 112.71901 
L 58.568182 113.46901 
L 59.318182 112.71901 
L 58.568182 111.96901 
L 59.318182 111.21901 
L 58.568182 110.46901 
L 57.818182 111.21901 
L 57.068182 110.46901 
L 56.318182 111.21901 
L 57.068182 111.96901 
L 56.318182 112.71901 
z
" clip-path="url(#p772a5d6f07)" style="fill: #66c2a5; stroke: #ffffff; stroke-width: 0.24"/>
    <path d="M 63.177273 102.140565 
L 63.927273 101.390565 
L 64.677273 102.140565 
L 65.427273 101.390565 
L 64.677273 100.640565 
L 65.427273 99.890565 
L 64.677273 99.140565 
L 63.927273 99.890565 
L 63.177273 99.140565 
L 62.427273 99.890565 
L 63.177273 100.640565 
L 62.427273 101.390565 
z
" clip-path="url(#p772a5d6f07)" style="fill: #fc8d62; stroke: #ffffff; stroke-width: 0.24"/>
    <path d="M 63.177273 113.002818 
L 63.927273 112.252818 
L 64.677273 113.002818 
L 65.427273 112.252818 
L 64.677273 111.502818 
L 65.427273 110.752818 
L 64.677273 110.002818 
L 63.927273 110.752818 
L 63.177273 110.002818 
L 62.427273 110.752818 
L 63.177273 111.502818 
L 62.427273 112.252818 
z
" clip-path="url(#p772a5d6f07)" style="fill: #66c2a5; stroke: #ffffff; stroke-width: 0.24"/>
    <path d="M 69.286364 105.631937 
L 70.036364 104.881937 
L 70.786364 105.631937 
L 71.536364 104.881937 
L 70.786364 104.131937 
L 71.536364 103.381937 
L 70.786364 102.631937 
L 70.036364 103.381937 
L 69.286364 102.631937 
L 68.536364 103.381937 
L 69.286364 104.131937 
L 68.536364 104.881937 
z
" clip-path="url(#p772a5d6f07)" style="fill: #fc8d62; stroke: #ffffff; stroke-width: 0.24"/>
    <path d="M 69.286364 114.41291 
L 70.036364 113.66291 
L 70.786364 114.41291 
L 71.536364 113.66291 
L 70.786364 112.91291 
L 71.536364 112.16291 
L 70.786364 111.41291 
L 70.036364 112.16291 
L 69.286364 111.41291 
L 68.536364 112.16291 
L 69.286364 112.91291 
L 68.536364 113.66291 
z
" clip-path="url(#p772a5d6f07)" style="fill: #66c2a5; stroke: #ffffff; stroke-width: 0.24"/>
    <path d="M 75.395455 106.854072 
L 76.145455 106.104072 
L 76.895455 106.854072 
L 77.645455 106.104072 
L 76.895455 105.354072 
L 77.645455 104.604072 
L 76.895455 103.854072 
L 76.145455 104.604072 
L 75.395455 103.854072 
L 74.645455 104.604072 
L 75.395455 105.354072 
L 74.645455 106.104072 
z
" clip-path="url(#p772a5d6f07)" style="fill: #fc8d62; stroke: #ffffff; stroke-width: 0.24"/>
    <path d="M 75.395455 113.895221 
L 76.145455 113.145221 
L 76.895455 113.895221 
L 77.645455 113.145221 
L 76.895455 112.395221 
L 77.645455 111.645221 
L 76.895455 110.895221 
L 76.145455 111.645221 
L 75.395455 110.895221 
L 74.645455 111.645221 
L 75.395455 112.395221 
L 74.645455 113.145221 
z
" clip-path="url(#p772a5d6f07)" style="fill: #66c2a5; stroke: #ffffff; stroke-width: 0.24"/>
    <path d="M 81.504545 109.233535 
L 82.254545 108.483535 
L 83.004545 109.233535 
L 83.754545 108.483535 
L 83.004545 107.733535 
L 83.754545 106.983535 
L 83.004545 106.233535 
L 82.254545 106.983535 
L 81.504545 106.233535 
L 80.754545 106.983535 
L 81.504545 107.733535 
L 80.754545 108.483535 
z
" clip-path="url(#p772a5d6f07)" style="fill: #fc8d62; stroke: #ffffff; stroke-width: 0.24"/>
    <path d="M 81.504545 114.932512 
L 82.254545 114.182512 
L 83.004545 114.932512 
L 83.754545 114.182512 
L 83.004545 113.432512 
L 83.754545 112.682512 
L 83.004545 111.932512 
L 82.254545 112.682512 
L 81.504545 111.932512 
L 80.754545 112.682512 
L 81.504545 113.432512 
L 80.754545 114.182512 
z
" clip-path="url(#p772a5d6f07)" style="fill: #66c2a5; stroke: #ffffff; stroke-width: 0.24"/>
    <path d="M 87.613636 109.840431 
L 88.363636 109.090431 
L 89.113636 109.840431 
L 89.863636 109.090431 
L 89.113636 108.340431 
L 89.863636 107.590431 
L 89.113636 106.840431 
L 88.363636 107.590431 
L 87.613636 106.840431 
L 86.863636 107.590431 
L 87.613636 108.340431 
L 86.863636 109.090431 
z
" clip-path="url(#p772a5d6f07)" style="fill: #fc8d62; stroke: #ffffff; stroke-width: 0.24"/>
    <path d="M 87.613636 114.366418 
L 88.363636 113.616418 
L 89.113636 114.366418 
L 89.863636 113.616418 
L 89.113636 112.866418 
L 89.863636 112.116418 
L 89.113636 111.366418 
L 88.363636 112.116418 
L 87.613636 111.366418 
L 86.863636 112.116418 
L 87.613636 112.866418 
L 86.863636 113.616418 
z
" clip-path="url(#p772a5d6f07)" style="fill: #66c2a5; stroke: #ffffff; stroke-width: 0.24"/>
    <path d="M 93.722727 111.44654 
L 94.472727 110.69654 
L 95.222727 111.44654 
L 95.972727 110.69654 
L 95.222727 109.94654 
L 95.972727 109.19654 
L 95.222727 108.44654 
L 94.472727 109.19654 
L 93.722727 108.44654 
L 92.972727 109.19654 
L 93.722727 109.94654 
L 92.972727 110.69654 
z
" clip-path="url(#p772a5d6f07)" style="fill: #fc8d62; stroke: #ffffff; stroke-width: 0.24"/>
    <path d="M 93.722727 115.230072 
L 94.472727 114.480072 
L 95.222727 115.230072 
L 95.972727 114.480072 
L 95.222727 113.730072 
L 95.972727 112.980072 
L 95.222727 112.230072 
L 94.472727 112.980072 
L 93.722727 112.230072 
L 92.972727 112.980072 
L 93.722727 113.730072 
L 92.972727 114.480072 
z
" clip-path="url(#p772a5d6f07)" style="fill: #66c2a5; stroke: #ffffff; stroke-width: 0.24"/>
    <path d="M 99.831818 111.548043 
L 100.581818 110.798043 
L 101.331818 111.548043 
L 102.081818 110.798043 
L 101.331818 110.048043 
L 102.081818 109.298043 
L 101.331818 108.548043 
L 100.581818 109.298043 
L 99.831818 108.548043 
L 99.081818 109.298043 
L 99.831818 110.048043 
L 99.081818 110.798043 
z
" clip-path="url(#p772a5d6f07)" style="fill: #fc8d62; stroke: #ffffff; stroke-width: 0.24"/>
    <path d="M 99.831818 114.838785 
L 100.581818 114.088785 
L 101.331818 114.838785 
L 102.081818 114.088785 
L 101.331818 113.338785 
L 102.081818 112.588785 
L 101.331818 111.838785 
L 100.581818 112.588785 
L 99.831818 111.838785 
L 99.081818 112.588785 
L 99.831818 113.338785 
L 99.081818 114.088785 
z
" clip-path="url(#p772a5d6f07)" style="fill: #66c2a5; stroke: #ffffff; stroke-width: 0.24"/>
    <path d="M 105.940909 112.601844 
L 106.690909 111.851844 
L 107.440909 112.601844 
L 108.190909 111.851844 
L 107.440909 111.101844 
L 108.190909 110.351844 
L 107.440909 109.601844 
L 106.690909 110.351844 
L 105.940909 109.601844 
L 105.190909 110.351844 
L 105.940909 111.101844 
L 105.190909 111.851844 
z
" clip-path="url(#p772a5d6f07)" style="fill: #fc8d62; stroke: #ffffff; stroke-width: 0.24"/>
    <path d="M 105.940909 115.591097 
L 106.690909 114.841097 
L 107.440909 115.591097 
L 108.190909 114.841097 
L 107.440909 114.091097 
L 108.190909 113.341097 
L 107.440909 112.591097 
L 106.690909 113.341097 
L 105.940909 112.591097 
L 105.190909 113.341097 
L 105.940909 114.091097 
L 105.190909 114.841097 
z
" clip-path="url(#p772a5d6f07)" style="fill: #66c2a5; stroke: #ffffff; stroke-width: 0.24"/>
    <path d="M 112.05 112.40933 
L 112.8 111.65933 
L 113.55 112.40933 
L 114.3 111.65933 
L 113.55 110.90933 
L 114.3 110.15933 
L 113.55 109.40933 
L 112.8 110.15933 
L 112.05 109.40933 
L 111.3 110.15933 
L 112.05 110.90933 
L 111.3 111.65933 
z
" clip-path="url(#p772a5d6f07)" style="fill: #fc8d62; stroke: #ffffff; stroke-width: 0.24"/>
    <path d="M 112.05 115.134792 
L 112.8 114.384792 
L 113.55 115.134792 
L 114.3 114.384792 
L 113.55 113.634792 
L 114.3 112.884792 
L 113.55 112.134792 
L 112.8 112.884792 
L 112.05 112.134792 
L 111.3 112.884792 
L 112.05 113.634792 
L 111.3 114.384792 
z
" clip-path="url(#p772a5d6f07)" style="fill: #66c2a5; stroke: #ffffff; stroke-width: 0.24"/>
    <path d="M 118.159091 112.580144 
L 118.909091 111.830144 
L 119.659091 112.580144 
L 120.409091 111.830144 
L 119.659091 111.080144 
L 120.409091 110.330144 
L 119.659091 109.580144 
L 118.909091 110.330144 
L 118.159091 109.580144 
L 117.409091 110.330144 
L 118.159091 111.080144 
L 117.409091 111.830144 
z
" clip-path="url(#p772a5d6f07)" style="fill: #fc8d62; stroke: #ffffff; stroke-width: 0.24"/>
    <path d="M 118.159091 114.845999 
L 118.909091 114.095999 
L 119.659091 114.845999 
L 120.409091 114.095999 
L 119.659091 113.345999 
L 120.409091 112.595999 
L 119.659091 111.845999 
L 118.909091 112.595999 
L 118.159091 111.845999 
L 117.409091 112.595999 
L 118.159091 113.345999 
L 117.409091 114.095999 
z
" clip-path="url(#p772a5d6f07)" style="fill: #66c2a5; stroke: #ffffff; stroke-width: 0.24"/>
    <path d="M 124.268182 113.874647 
L 125.018182 113.124647 
L 125.768182 113.874647 
L 126.518182 113.124647 
L 125.768182 112.374647 
L 126.518182 111.624647 
L 125.768182 110.874647 
L 125.018182 111.624647 
L 124.268182 110.874647 
L 123.518182 111.624647 
L 124.268182 112.374647 
L 123.518182 113.124647 
z
" clip-path="url(#p772a5d6f07)" style="fill: #fc8d62; stroke: #ffffff; stroke-width: 0.24"/>
    <path d="M 124.268182 115.718182 
L 125.018182 114.968182 
L 125.768182 115.718182 
L 126.518182 114.968182 
L 125.768182 114.218182 
L 126.518182 113.468182 
L 125.768182 112.718182 
L 125.018182 113.468182 
L 124.268182 112.718182 
L 123.518182 113.468182 
L 124.268182 114.218182 
L 123.518182 114.968182 
z
" clip-path="url(#p772a5d6f07)" style="fill: #66c2a5; stroke: #ffffff; stroke-width: 0.24"/>
   </g>
   <g id="PolyCollection_1"/>
   <g id="PolyCollection_2"/>
   <g id="PolyCollection_3"/>
   <g id="PolyCollection_4"/>
   <g id="matplotlib.axis_1">
    <g id="xtick_1">
     <g id="line2d_1">
      <defs>
       <path id="mbee8d395d9" d="M 0 0 
L 0 3.5 
" style="stroke: #000000; stroke-width: 0.8"/>
      </defs>
      <g>
       <use xlink:href="#mbee8d395d9" x="32.16" y="118.08" style="stroke: #000000; stroke-width: 0.8"/>
      </g>
     </g>
     <g id="text_1">
      <text style="font: 6px 'DejaVu Sans', 'Arial', 'Helvetica', 'Lucida Grande', 'Verdana', 'Geneva', 'Lucid', 'Avant Garde', sans-serif; text-anchor: middle" x="32.16" y="129.639063" transform="rotate(-0 32.16 129.639063)">0.5</text>
     </g>
    </g>
    <g id="xtick_2">
     <g id="line2d_2">
      <g>
       <use xlink:href="#mbee8d395d9" x="62.705455" y="118.08" style="stroke: #000000; stroke-width: 0.8"/>
      </g>
     </g>
     <g id="text_2">
      <text style="font: 6px 'DejaVu Sans', 'Arial', 'Helvetica', 'Lucida Grande', 'Verdana', 'Geneva', 'Lucid', 'Avant Garde', sans-serif; text-anchor: middle" x="62.705455" y="129.639063" transform="rotate(-0 62.705455 129.639063)">1.0</text>
     </g>
    </g>
    <g id="xtick_3">
     <g id="line2d_3">
      <g>
       <use xlink:href="#mbee8d395d9" x="93.250909" y="118.08" style="stroke: #000000; stroke-width: 0.8"/>
      </g>
     </g>
     <g id="text_3">
      <text style="font: 6px 'DejaVu Sans', 'Arial', 'Helvetica', 'Lucida Grande', 'Verdana', 'Geneva', 'Lucid', 'Avant Garde', sans-serif; text-anchor: middle" x="93.250909" y="129.639063" transform="rotate(-0 93.250909 129.639063)">1.5</text>
     </g>
    </g>
    <g id="xtick_4">
     <g id="line2d_4">
      <g>
       <use xlink:href="#mbee8d395d9" x="123.796364" y="118.08" style="stroke: #000000; stroke-width: 0.8"/>
      </g>
     </g>
     <g id="text_4">
      <text style="font: 6px 'DejaVu Sans', 'Arial', 'Helvetica', 'Lucida Grande', 'Verdana', 'Geneva', 'Lucid', 'Avant Garde', sans-serif; text-anchor: middle" x="123.796364" y="129.639063" transform="rotate(-0 123.796364 129.639063)">2.0</text>
     </g>
    </g>
    <g id="text_5">
     <text style="font: 6px 'DejaVu Sans', 'Arial', 'Helvetica', 'Lucida Grande', 'Verdana', 'Geneva', 'Lucid', 'Avant Garde', sans-serif; text-anchor: middle" x="79.2" y="139.445938" transform="rotate(-0 79.2 139.445938)">True Width</text>
    </g>
   </g>
   <g id="matplotlib.axis_2">
    <g id="ytick_1">
     <g id="line2d_5">
      <defs>
       <path id="m9c57d4d4df" d="M 0 0 
L -3.5 0 
" style="stroke: #000000; stroke-width: 0.8"/>
      </defs>
      <g>
       <use xlink:href="#m9c57d4d4df" x="28.8" y="104.246863" style="stroke: #000000; stroke-width: 0.8"/>
      </g>
     </g>
     <g id="text_6">
      <text style="font: 6px 'DejaVu Sans', 'Arial', 'Helvetica', 'Lucida Grande', 'Verdana', 'Geneva', 'Lucid', 'Avant Garde', sans-serif; text-anchor: end" x="21.8" y="106.526394" transform="rotate(-0 21.8 106.526394)">1.0</text>
     </g>
    </g>
    <g id="ytick_2">
     <g id="line2d_6">
      <g>
       <use xlink:href="#m9c57d4d4df" x="28.8" y="79.979329" style="stroke: #000000; stroke-width: 0.8"/>
      </g>
     </g>
     <g id="text_7">
      <text style="font: 6px 'DejaVu Sans', 'Arial', 'Helvetica', 'Lucida Grande', 'Verdana', 'Geneva', 'Lucid', 'Avant Garde', sans-serif; text-anchor: end" x="21.8" y="82.258861" transform="rotate(-0 21.8 82.258861)">1.1</text>
     </g>
    </g>
    <g id="ytick_3">
     <g id="line2d_7">
      <g>
       <use xlink:href="#m9c57d4d4df" x="28.8" y="55.711796" style="stroke: #000000; stroke-width: 0.8"/>
      </g>
     </g>
     <g id="text_8">
      <text style="font: 6px 'DejaVu Sans', 'Arial', 'Helvetica', 'Lucida Grande', 'Verdana', 'Geneva', 'Lucid', 'Avant Garde', sans-serif; text-anchor: end" x="21.8" y="57.991328" transform="rotate(-0 21.8 57.991328)">1.2</text>
     </g>
    </g>
    <g id="text_9">
     <text style="font: 6px 'DejaVu Sans', 'Arial', 'Helvetica', 'Lucida Grande', 'Verdana', 'Geneva', 'Lucid', 'Avant Garde', sans-serif; text-anchor: middle" x="7.010313" y="75.6" transform="rotate(-90 7.010313 75.6)">FWHM / True Width</text>
    </g>
   </g>
   <g id="line2d_8"/>
   <g id="line2d_9"/>
   <g id="line2d_10"/>
   <g id="line2d_11"/>
   <g id="line2d_12"/>
   <g id="line2d_13"/>
   <g id="line2d_14">
    <path d="M 33.381818 74.120216 
L 39.490909 77.939173 
L 45.6 84.215901 
L 51.709091 86.270784 
L 57.818182 89.853408 
L 63.927273 90.614506 
L 70.036364 93.002287 
L 76.145455 93.347219 
L 82.254545 95.248559 
L 88.363636 95.350712 
L 94.472727 96.758647 
L 100.581818 96.695759 
L 106.690909 97.874286 
L 112.8 98.196728 
L 118.909091 98.616447 
L 125.018182 99.99289 
" clip-path="url(#p772a5d6f07)" style="fill: none; stroke: #66c2a5; stroke-linecap: square"/>
   </g>
   <g id="line2d_15">
    <path d="M 33.381818 101.216146 
L 39.490909 104.432071 
L 45.6 108.973122 
L 51.709091 109.66569 
L 57.818182 111.96901 
L 63.927273 111.502818 
L 70.036364 112.91291 
L 76.145455 112.395221 
L 82.254545 113.432512 
L 88.363636 112.866418 
L 94.472727 113.730072 
L 100.581818 113.338785 
L 106.690909 114.091097 
L 112.8 113.634792 
L 118.909091 113.345999 
L 125.018182 114.218182 
" clip-path="url(#p772a5d6f07)" style="fill: none; stroke-dasharray: 4,1.5; stroke-dashoffset: 0; stroke: #66c2a5"/>
   </g>
   <g id="line2d_16">
    <path d="M 33.381818 36.981818 
L 39.490909 44.059808 
L 45.6 51.780375 
L 51.709091 55.391557 
L 57.818182 61.401456 
L 63.927273 64.364255 
L 70.036364 68.81452 
L 76.145455 70.742021 
L 82.254545 74.074053 
L 88.363636 75.321942 
L 94.472727 77.758763 
L 100.581818 78.601 
L 106.690909 81.359724 
L 112.8 83.719501 
L 118.909091 85.832956 
L 125.018182 88.650799 
" clip-path="url(#p772a5d6f07)" style="fill: none; stroke: #fc8d62; stroke-linecap: square"/>
   </g>
   <g id="line2d_17">
    <path d="M 33.381818 72.35098 
L 39.490909 82.119305 
L 45.6 90.184132 
L 51.709091 93.561749 
L 57.818182 98.53441 
L 63.927273 100.640565 
L 70.036364 104.131937 
L 76.145455 105.354072 
L 82.254545 107.733535 
L 88.363636 108.340431 
L 94.472727 109.94654 
L 100.581818 110.048043 
L 106.690909 111.101844 
L 112.8 110.90933 
L 118.909091 111.080144 
L 125.018182 112.374647 
" clip-path="url(#p772a5d6f07)" style="fill: none; stroke-dasharray: 4,1.5; stroke-dashoffset: 0; stroke: #fc8d62"/>
   </g>
   <g id="line2d_18"/>
   <g id="line2d_19"/>
   <g id="line2d_20"/>
   <g id="line2d_21"/>
   <g id="line2d_22"/>
   <g id="line2d_23"/>
   <g id="patch_3">
    <path d="M 28.8 118.08 
L 28.8 33.12 
" style="fill: none; stroke: #000000; stroke-width: 0.5; stroke-linejoin: miter; stroke-linecap: square"/>
   </g>
   <g id="patch_4">
    <path d="M 28.8 118.08 
L 129.6 118.08 
" style="fill: none; stroke: #000000; stroke-width: 0.5; stroke-linejoin: miter; stroke-linecap: square"/>
   </g>
   <g id="legend_1">
    <g id="patch_5">
     <path d="M 70.605 143.6025 
L 125.4 143.6025 
Q 126.6 143.6025 126.6 142.4025 
L 126.6 37.32 
Q 126.6 36.12 125.4 36.12 
L 70.605 36.12 
Q 69.405 36.12 69.405 37.32 
L 69.405 142.4025 
Q 69.405 143.6025 70.605 143.6025 
z
" style="fill: #ffffff; opacity: 0.8; stroke: #cccccc; stroke-linejoin: miter"/>
    </g>
    <g id="line2d_24"/>
    <g id="text_10">
     <text style="font: 6px 'DejaVu Sans', 'Arial', 'Helvetica', 'Lucida Grande', 'Verdana', 'Geneva', 'Lucid', 'Avant Garde', sans-serif; text-anchor: start" x="88.605" y="43.079063" transform="rotate(-0 88.605 43.079063)">Wavelength</text>
    </g>
    <g id="line2d_25">
     <defs>
      <path id="m0d0da7cc0c" d="M 0 1.5 
C 0.397805 1.5 0.77937 1.341951 1.06066 1.06066 
C 1.341951 0.77937 1.5 0.397805 1.5 0 
C 1.5 -0.397805 1.341951 -0.77937 1.06066 -1.06066 
C 0.77937 -1.341951 0.397805 -1.5 0 -1.5 
C -0.397805 -1.5 -0.77937 -1.341951 -1.06066 -1.06066 
C -1.341951 -0.77937 -1.5 -0.397805 -1.5 0 
C -1.5 0.397805 -1.341951 0.77937 -1.06066 1.06066 
C -0.77937 1.341951 -0.397805 1.5 0 1.5 
z
" style="stroke: #ffffff; stroke-width: 0.24"/>
     </defs>
     <g>
      <use xlink:href="#m0d0da7cc0c" x="77.805" y="49.785938" style="fill: #66c2a5; stroke: #ffffff; stroke-width: 0.24"/>
     </g>
    </g>
    <g id="text_11">
     <text style="font: 6px 'DejaVu Sans', 'Arial', 'Helvetica', 'Lucida Grande', 'Verdana', 'Geneva', 'Lucid', 'Avant Garde', sans-serif; text-anchor: start" x="88.605" y="51.885938" transform="rotate(-0 88.605 51.885938)">0.5</text>
    </g>
    <g id="line2d_26">
     <defs>
      <path id="me9ea362233" d="M 0 1.5 
C 0.397805 1.5 0.77937 1.341951 1.06066 1.06066 
C 1.341951 0.77937 1.5 0.397805 1.5 0 
C 1.5 -0.397805 1.341951 -0.77937 1.06066 -1.06066 
C 0.77937 -1.341951 0.397805 -1.5 0 -1.5 
C -0.397805 -1.5 -0.77937 -1.341951 -1.06066 -1.06066 
C -1.341951 -0.77937 -1.5 -0.397805 -1.5 0 
C -1.5 0.397805 -1.341951 0.77937 -1.06066 1.06066 
C -0.77937 1.341951 -0.397805 1.5 0 1.5 
z
" style="stroke: #ffffff; stroke-width: 0.24"/>
     </defs>
     <g>
      <use xlink:href="#me9ea362233" x="77.805" y="58.592813" style="fill: #fc8d62; stroke: #ffffff; stroke-width: 0.24"/>
     </g>
    </g>
    <g id="text_12">
     <text style="font: 6px 'DejaVu Sans', 'Arial', 'Helvetica', 'Lucida Grande', 'Verdana', 'Geneva', 'Lucid', 'Avant Garde', sans-serif; text-anchor: start" x="88.605" y="60.692813" transform="rotate(-0 88.605 60.692813)">0.7</text>
    </g>
    <g id="line2d_27"/>
    <g id="text_13">
     <text style="font: 6px 'DejaVu Sans', 'Arial', 'Helvetica', 'Lucida Grande', 'Verdana', 'Geneva', 'Lucid', 'Avant Garde', sans-serif; text-anchor: start" x="88.605" y="69.499688" transform="rotate(-0 88.605 69.499688)">Profile type</text>
    </g>
    <g id="line2d_28">
     <defs>
      <path id="m8378ff0bb2" d="M 0 1.5 
C 0.397805 1.5 0.77937 1.341951 1.06066 1.06066 
C 1.341951 0.77937 1.5 0.397805 1.5 0 
C 1.5 -0.397805 1.341951 -0.77937 1.06066 -1.06066 
C 0.77937 -1.341951 0.397805 -1.5 0 -1.5 
C -0.397805 -1.5 -0.77937 -1.341951 -1.06066 -1.06066 
C -1.341951 -0.77937 -1.5 -0.397805 -1.5 0 
C -1.5 0.397805 -1.341951 0.77937 -1.06066 1.06066 
C -0.77937 1.341951 -0.397805 1.5 0 1.5 
z
" style="stroke: #ffffff; stroke-width: 0.24"/>
     </defs>
     <g>
      <use xlink:href="#m8378ff0bb2" x="77.805" y="76.206563" style="fill: #333333; stroke: #ffffff; stroke-width: 0.24"/>
     </g>
    </g>
    <g id="text_14">
     <text style="font: 6px 'DejaVu Sans', 'Arial', 'Helvetica', 'Lucida Grande', 'Verdana', 'Geneva', 'Lucid', 'Avant Garde', sans-serif; text-anchor: start" x="88.605" y="78.306563" transform="rotate(-0 88.605 78.306563)">0 DoF</text>
    </g>
    <g id="line2d_29">
     <defs>
      <path id="mc28eecc78b" d="M -0.75 1.5 
L 0 0.75 
L 0.75 1.5 
L 1.5 0.75 
L 0.75 0 
L 1.5 -0.75 
L 0.75 -1.5 
L 0 -0.75 
L -0.75 -1.5 
L -1.5 -0.75 
L -0.75 0 
L -1.5 0.75 
z
" style="stroke: #ffffff; stroke-width: 0.24; stroke-linejoin: miter"/>
     </defs>
     <g>
      <use xlink:href="#mc28eecc78b" x="77.805" y="85.013438" style="fill: #333333; stroke: #ffffff; stroke-width: 0.24; stroke-linejoin: miter"/>
     </g>
    </g>
    <g id="text_15">
     <text style="font: 6px 'DejaVu Sans', 'Arial', 'Helvetica', 'Lucida Grande', 'Verdana', 'Geneva', 'Lucid', 'Avant Garde', sans-serif; text-anchor: start" x="88.605" y="87.113438" transform="rotate(-0 88.605 87.113438)">Width DoF</text>
    </g>
    <g id="line2d_30">
     <path d="M 71.805 93.820313 
L 77.805 93.820313 
L 83.805 93.820313 
" style="fill: none"/>
    </g>
    <g id="text_16">
     <text style="font: 6px 'DejaVu Sans', 'Arial', 'Helvetica', 'Lucida Grande', 'Verdana', 'Geneva', 'Lucid', 'Avant Garde', sans-serif; text-anchor: start" x="88.605" y="95.920313" transform="rotate(-0 88.605 95.920313)">Wavelength</text>
    </g>
    <g id="line2d_31">
     <path d="M 71.805 102.627188 
L 77.805 102.627188 
L 83.805 102.627188 
" style="fill: none; stroke: #66c2a5; stroke-linecap: square"/>
    </g>
    <g id="text_17">
     <text style="font: 6px 'DejaVu Sans', 'Arial', 'Helvetica', 'Lucida Grande', 'Verdana', 'Geneva', 'Lucid', 'Avant Garde', sans-serif; text-anchor: start" x="88.605" y="104.727187" transform="rotate(-0 88.605 104.727187)">0.5</text>
    </g>
    <g id="line2d_32">
     <path d="M 71.805 111.434063 
L 77.805 111.434063 
L 83.805 111.434063 
" style="fill: none; stroke: #fc8d62; stroke-linecap: square"/>
    </g>
    <g id="text_18">
     <text style="font: 6px 'DejaVu Sans', 'Arial', 'Helvetica', 'Lucida Grande', 'Verdana', 'Geneva', 'Lucid', 'Avant Garde', sans-serif; text-anchor: start" x="88.605" y="113.534063" transform="rotate(-0 88.605 113.534063)">0.7</text>
    </g>
    <g id="line2d_33">
     <path d="M 71.805 120.240938 
L 77.805 120.240938 
L 83.805 120.240938 
" style="fill: none"/>
    </g>
    <g id="text_19">
     <text style="font: 6px 'DejaVu Sans', 'Arial', 'Helvetica', 'Lucida Grande', 'Verdana', 'Geneva', 'Lucid', 'Avant Garde', sans-serif; text-anchor: start" x="88.605" y="122.340938" transform="rotate(-0 88.605 122.340938)">Profile type</text>
    </g>
    <g id="line2d_34">
     <path d="M 71.805 129.047813 
L 77.805 129.047813 
L 83.805 129.047813 
" style="fill: none; stroke: #333333; stroke-linecap: square"/>
    </g>
    <g id="text_20">
     <text style="font: 6px 'DejaVu Sans', 'Arial', 'Helvetica', 'Lucida Grande', 'Verdana', 'Geneva', 'Lucid', 'Avant Garde', sans-serif; text-anchor: start" x="88.605" y="131.147813" transform="rotate(-0 88.605 131.147813)">0 DoF</text>
    </g>
    <g id="line2d_35">
     <path d="M 71.805 137.854688 
L 77.805 137.854688 
L 83.805 137.854688 
" style="fill: none; stroke-dasharray: 4,1.5; stroke-dashoffset: 0; stroke: #333333"/>
    </g>
    <g id="text_21">
     <text style="font: 6px 'DejaVu Sans', 'Arial', 'Helvetica', 'Lucida Grande', 'Verdana', 'Geneva', 'Lucid', 'Avant Garde', sans-serif; text-anchor: start" x="88.605" y="139.954688" transform="rotate(-0 88.605 139.954688)">Width DoF</text>
    </g>
   </g>
  </g>
  <g id="text_22">
   <text style="font: 700 6px 'DejaVu Sans', 'Arial', 'Helvetica', 'Lucida Grande', 'Verdana', 'Geneva', 'Lucid', 'Avant Garde', sans-serif; text-anchor: middle" x="72" y="7.439063" transform="rotate(-0 72 7.439063)">Effect of DoF and cell width</text>
  </g>
 </g>
 <defs>
  <clipPath id="p772a5d6f07">
   <rect x="28.8" y="33.12" width="100.8" height="84.96"/>
  </clipPath>
 </defs>
</svg>
