<?xml version="1.0" encoding="utf-8" standalone="no"?>
<!DOCTYPE svg PUBLIC "-//W3C//DTD SVG 1.1//EN"
  "http://www.w3.org/Graphics/SVG/1.1/DTD/svg11.dtd">
<svg xmlns:xlink="http://www.w3.org/1999/xlink" width="144pt" height="144pt" viewBox="0 0 144 144" xmlns="http://www.w3.org/2000/svg" version="1.1">
 <metadata>
  <rdf:RDF xmlns:dc="http://purl.org/dc/elements/1.1/" xmlns:cc="http://creativecommons.org/ns#" xmlns:rdf="http://www.w3.org/1999/02/22-rdf-syntax-ns#">
   <cc:Work>
    <dc:type rdf:resource="http://purl.org/dc/dcmitype/StillImage"/>
    <dc:date>2023-10-23T14:30:58.918863</dc:date>
    <dc:format>image/svg+xml</dc:format>
    <dc:creator>
     <cc:Agent>
      <dc:title>Matplotlib v3.7.2, https://matplotlib.org/</dc:title>
     </cc:Agent>
    </dc:creator>
   </cc:Work>
  </rdf:RDF>
 </metadata>
 <defs>
  <style type="text/css">*{stroke-linejoin: round; stroke-linecap: butt}</style>
 </defs>
 <g id="figure_1">
  <g id="patch_1">
   <path d="M 0 144 
L 144 144 
L 144 0 
L 0 0 
L 0 144 
z
" style="fill: none"/>
  </g>
  <g id="axes_1">
   <g id="patch_2">
    <path d="M 30.89 114.232 
L 137.52 114.232 
L 137.52 23.712 
L 30.89 23.712 
L 30.89 114.232 
z
" style="fill: none"/>
   </g>
   <g id="PolyCollection_1">
    <defs>
     <path id="m14bb0ed0cb" d="M 35.736818 -36.563003 
L 35.736818 -33.882545 
L 47.941563 -37.520994 
L 55.080881 -41.441901 
L 60.146308 -45.097754 
L 64.075358 -46.688418 
L 67.285626 -49.462175 
L 69.999869 -50.863513 
L 72.351053 -53.876703 
L 74.424944 -53.350184 
L 76.280103 -55.980829 
L 77.958299 -57.136525 
L 79.490371 -56.30826 
L 80.899741 -57.798416 
L 82.204614 -58.978216 
L 83.419421 -60.953818 
L 84.555798 -62.927385 
L 85.62326 -62.117338 
L 86.629689 -60.331689 
L 87.58169 -62.866209 
L 88.484848 -64.417809 
L 89.343932 -62.225718 
L 90.163044 -62.810636 
L 90.945738 -67.576251 
L 91.695116 -66.322853 
L 92.413898 -65.856759 
L 93.104486 -65.524767 
L 93.769007 -68.021312 
L 94.409359 -68.718621 
L 95.027237 -67.729398 
L 95.624166 -67.088651 
L 96.20152 -70.153194 
L 96.760543 -70.333341 
L 97.302362 -69.860808 
L 97.828004 -69.386088 
L 98.338409 -69.109987 
L 98.834434 -71.483484 
L 99.316868 -71.499389 
L 99.786435 -70.289005 
L 100.243804 -73.675276 
L 100.689593 -73.807281 
L 101.124374 -76.093386 
L 101.548677 -73.954374 
L 101.962995 -76.109733 
L 102.367789 -76.128419 
L 102.763484 -73.470536 
L 103.150483 -75.686827 
L 103.529158 -74.392856 
L 103.899861 -76.333467 
L 104.618643 -77.996139 
L 104.967323 -82.205382 
L 105.309231 -77.425279 
L 105.644626 -79.833299 
L 105.973752 -77.670079 
L 106.296839 -79.59126 
L 106.614104 -75.205576 
L 106.925753 -87.798472 
L 107.231982 -79.603642 
L 107.828911 -81.663468 
L 108.119955 -79.892602 
L 108.406265 -81.066102 
L 108.687995 -81.00218 
L 109.507107 -80.361879 
L 109.771889 -82.585991 
L 110.032749 -78.237305 
L 110.289801 -82.238862 
L 110.543154 -80.024416 
L 110.792913 -83.852448 
L 111.521613 -88.695867 
L 111.99118 -79.14855 
L 112.221349 -79.404718 
L 114.16774 -79.982198 
L 114.771493 -80.472312 
L 114.968229 -82.246821 
L 115.545584 -91.633816 
L 116.287071 -86.022867 
L 116.823388 -87.802749 
L 116.998591 -83.959701 
L 117.513976 -81.687017 
L 117.849371 -88.751407 
L 118.178497 -91.561635 
L 118.340782 -89.950675 
L 119.436727 -95.091713 
L 120.033656 -80.615936 
L 120.468437 -92.26901 
L 120.752439 -98.601046 
L 121.443026 -101.430754 
L 121.976634 -90.969376 
L 122.494546 -96.600068 
L 122.997658 -90.737092 
L 123.726358 -84.928026 
L 124.540061 -103.328948 
L 125.099083 -101.491204 
L 126.269816 -91.559766 
L 127.750328 -86.239116 
L 128.124975 -99.289548 
L 129.462914 -106.248605 
L 129.718721 -107.651436 
L 131.412301 -104.133843 
L 132.529444 -111.932086 
L 132.673182 -104.773875 
L 132.673182 -108.529973 
L 132.673182 -108.529973 
L 132.529444 -116.173455 
L 131.412301 -108.257057 
L 129.718721 -112.267697 
L 129.462914 -110.624893 
L 128.124975 -103.41544 
L 127.750328 -90.430982 
L 126.269816 -96.506022 
L 125.099083 -105.283832 
L 124.540061 -108.222846 
L 123.726358 -89.230018 
L 122.997658 -95.014429 
L 122.494546 -100.502774 
L 121.976634 -94.464283 
L 121.443026 -105.382881 
L 120.752439 -103.592841 
L 120.468437 -97.340297 
L 120.033656 -85.586397 
L 119.436727 -100.599276 
L 118.340782 -93.168442 
L 118.178497 -97.859749 
L 117.849371 -92.644285 
L 117.513976 -87.36542 
L 116.998591 -88.561116 
L 116.823388 -92.232726 
L 116.287071 -90.269633 
L 115.545584 -97.044221 
L 114.968229 -85.61942 
L 114.771493 -85.317558 
L 114.16774 -85.254608 
L 112.221349 -85.425232 
L 111.99118 -83.859323 
L 111.521613 -94.034508 
L 110.792913 -89.344378 
L 110.543154 -84.583007 
L 110.289801 -86.136128 
L 110.032749 -84.694614 
L 109.771889 -88.666317 
L 109.507107 -86.006243 
L 108.687995 -88.164282 
L 108.406265 -84.493454 
L 108.119955 -85.856253 
L 107.828911 -84.868589 
L 107.231982 -82.843692 
L 106.925753 -92.838785 
L 106.614104 -80.925297 
L 106.296839 -84.017175 
L 105.973752 -81.120821 
L 105.644626 -82.651418 
L 105.309231 -81.547131 
L 104.967323 -86.152037 
L 104.618643 -83.748652 
L 103.899861 -82.42738 
L 103.529158 -78.494121 
L 103.150483 -79.060199 
L 102.763484 -79.994386 
L 102.367789 -80.423925 
L 101.962995 -83.326278 
L 101.548677 -77.639131 
L 101.124374 -78.70609 
L 100.689593 -76.838628 
L 100.243804 -76.651039 
L 99.786435 -73.133568 
L 99.316868 -73.754081 
L 98.834434 -74.762473 
L 98.338409 -73.884143 
L 97.828004 -73.897416 
L 97.302362 -72.575663 
L 96.760543 -73.842572 
L 96.20152 -72.780606 
L 95.624166 -70.427927 
L 95.027237 -70.842208 
L 94.409359 -70.53987 
L 93.769007 -70.387628 
L 93.104486 -67.512244 
L 92.413898 -68.292438 
L 91.695116 -69.19123 
L 90.945738 -70.009902 
L 90.163044 -64.587074 
L 89.343932 -64.021701 
L 88.484848 -66.141419 
L 87.58169 -65.257811 
L 86.629689 -62.133599 
L 85.62326 -64.342441 
L 84.555798 -64.937143 
L 83.419421 -63.102922 
L 82.204614 -60.607249 
L 80.899741 -59.420764 
L 79.490371 -57.757726 
L 77.958299 -58.690674 
L 76.280103 -57.465535 
L 74.424944 -54.698592 
L 72.351053 -55.236623 
L 69.999869 -52.119343 
L 67.285626 -50.31569 
L 64.075358 -48.090898 
L 60.146308 -45.745838 
L 55.080881 -42.65429 
L 47.941563 -38.046722 
L 35.736818 -36.563003 
z
" style="stroke: #1f77b4; stroke-opacity: 0.2"/>
    </defs>
    <g clip-path="url(#pb74c9d48c4)">
     <use xlink:href="#m14bb0ed0cb" x="0" y="144" style="fill: #1f77b4; fill-opacity: 0.2; stroke: #1f77b4; stroke-opacity: 0.2"/>
    </g>
   </g>
   <g id="matplotlib.axis_1">
    <g id="xtick_1">
     <g id="line2d_1">
      <defs>
       <path id="me1bd25cc11" d="M 0 0 
L 0 3.5 
" style="stroke: #000000; stroke-width: 0.8"/>
      </defs>
      <g>
       <use xlink:href="#me1bd25cc11" x="35.736818" y="114.232" style="stroke: #000000; stroke-width: 0.8"/>
      </g>
     </g>
     <g id="text_1">
      <!-- $\mathdefault{10^{0}}$ -->
      <g transform="translate(30.456818 125.791062)">
       <text>
        <tspan style="font: 6px 'DejaVu Sans'" x="0 3.817383" y="-0.5859375">10</tspan>
        <tspan style="font: 4.2px 'DejaVu Sans'" x="7.692188" y="-2.8828125">0</tspan>
       </text>
      </g>
     </g>
    </g>
    <g id="xtick_2">
     <g id="line2d_2">
      <g>
       <use xlink:href="#me1bd25cc11" x="76.280103" y="114.232" style="stroke: #000000; stroke-width: 0.8"/>
      </g>
     </g>
     <g id="text_2">
      <!-- $\mathdefault{10^{1}}$ -->
      <g transform="translate(71.000103 125.791062)">
       <text>
        <tspan style="font: 6px 'DejaVu Sans'" x="0 3.817383" y="-0.640625">10</tspan>
        <tspan style="font: 4.2px 'DejaVu Sans'" x="7.692188" y="-2.9375">1</tspan>
       </text>
      </g>
     </g>
    </g>
    <g id="xtick_3">
     <g id="line2d_3">
      <g>
       <use xlink:href="#me1bd25cc11" x="116.823388" y="114.232" style="stroke: #000000; stroke-width: 0.8"/>
      </g>
     </g>
     <g id="text_3">
      <!-- $\mathdefault{10^{2}}$ -->
      <g transform="translate(111.543388 125.791062)">
       <text>
        <tspan style="font: 6px 'DejaVu Sans'" x="0 3.817383" y="-0.5859375">10</tspan>
        <tspan style="font: 4.2px 'DejaVu Sans'" x="7.692188" y="-2.8828125">2</tspan>
       </text>
      </g>
     </g>
    </g>
    <g id="xtick_4"/>
    <g id="xtick_5"/>
    <g id="xtick_6"/>
    <g id="xtick_7"/>
    <g id="xtick_8"/>
    <g id="xtick_9"/>
    <g id="xtick_10"/>
    <g id="xtick_11"/>
    <g id="xtick_12"/>
    <g id="xtick_13"/>
    <g id="xtick_14"/>
    <g id="xtick_15"/>
    <g id="xtick_16"/>
    <g id="xtick_17"/>
    <g id="xtick_18"/>
    <g id="xtick_19"/>
    <g id="xtick_20"/>
    <g id="xtick_21"/>
    <g id="xtick_22"/>
    <g id="xtick_23"/>
    <g id="text_4">
     <text style="font: 6px 'DejaVu Sans', 'Arial', 'Helvetica', 'Lucida Grande', 'Verdana', 'Geneva', 'Lucid', 'Avant Garde', sans-serif; text-anchor: middle" x="84.205" y="135.597938" transform="rotate(-0 84.205 135.597938)">Colony size (cells)</text>
    </g>
   </g>
   <g id="matplotlib.axis_2">
    <g id="ytick_1">
     <g id="line2d_4">
      <defs>
       <path id="md33cd218fa" d="M 0 0 
L -3.5 0 
" style="stroke: #000000; stroke-width: 0.8"/>
      </defs>
      <g>
       <use xlink:href="#md33cd218fa" x="30.89" y="110.485791" style="stroke: #000000; stroke-width: 0.8"/>
      </g>
     </g>
     <g id="text_5">
      <text style="font: 6px 'DejaVu Sans', 'Arial', 'Helvetica', 'Lucida Grande', 'Verdana', 'Geneva', 'Lucid', 'Avant Garde', sans-serif; text-anchor: end" x="23.89" y="112.765322" transform="rotate(-0 23.89 112.765322)">4</text>
     </g>
    </g>
    <g id="ytick_2">
     <g id="line2d_5">
      <g>
       <use xlink:href="#md33cd218fa" x="30.89" y="92.14346" style="stroke: #000000; stroke-width: 0.8"/>
      </g>
     </g>
     <g id="text_6">
      <text style="font: 6px 'DejaVu Sans', 'Arial', 'Helvetica', 'Lucida Grande', 'Verdana', 'Geneva', 'Lucid', 'Avant Garde', sans-serif; text-anchor: end" x="23.89" y="94.422992" transform="rotate(-0 23.89 94.422992)">6</text>
     </g>
    </g>
    <g id="ytick_3">
     <g id="line2d_6">
      <g>
       <use xlink:href="#md33cd218fa" x="30.89" y="73.80113" style="stroke: #000000; stroke-width: 0.8"/>
      </g>
     </g>
     <g id="text_7">
      <text style="font: 6px 'DejaVu Sans', 'Arial', 'Helvetica', 'Lucida Grande', 'Verdana', 'Geneva', 'Lucid', 'Avant Garde', sans-serif; text-anchor: end" x="23.89" y="76.080661" transform="rotate(-0 23.89 76.080661)">8</text>
     </g>
    </g>
    <g id="ytick_4">
     <g id="line2d_7">
      <g>
       <use xlink:href="#md33cd218fa" x="30.89" y="55.4588" style="stroke: #000000; stroke-width: 0.8"/>
      </g>
     </g>
     <g id="text_8">
      <text style="font: 6px 'DejaVu Sans', 'Arial', 'Helvetica', 'Lucida Grande', 'Verdana', 'Geneva', 'Lucid', 'Avant Garde', sans-serif; text-anchor: end" x="23.89" y="57.738331" transform="rotate(-0 23.89 57.738331)">10</text>
     </g>
    </g>
    <g id="ytick_5">
     <g id="line2d_8">
      <g>
       <use xlink:href="#md33cd218fa" x="30.89" y="37.116469" style="stroke: #000000; stroke-width: 0.8"/>
      </g>
     </g>
     <g id="text_9">
      <text style="font: 6px 'DejaVu Sans', 'Arial', 'Helvetica', 'Lucida Grande', 'Verdana', 'Geneva', 'Lucid', 'Avant Garde', sans-serif; text-anchor: end" x="23.89" y="39.396" transform="rotate(-0 23.89 39.396)">12</text>
     </g>
    </g>
    <g id="text_10">
     <text style="font: 6px 'DejaVu Sans', 'Arial', 'Helvetica', 'Lucida Grande', 'Verdana', 'Geneva', 'Lucid', 'Avant Garde', sans-serif; text-anchor: middle" x="11.007188" y="68.972" transform="rotate(-90 11.007188 68.972)">Mean observed intensity</text>
    </g>
   </g>
   <g id="line2d_9">
    <path d="M 35.736818 108.863161 
L 47.941563 106.232075 
L 55.080881 101.980276 
L 60.146308 98.589574 
L 64.075358 96.642907 
L 67.285626 94.133378 
L 69.999869 92.502894 
L 72.351053 89.452894 
L 74.424944 89.979185 
L 76.280103 87.300741 
L 77.958299 86.060856 
L 79.490371 86.939678 
L 80.899741 85.369536 
L 82.204614 84.198418 
L 83.419421 81.969692 
L 84.555798 80.131184 
L 85.62326 80.78782 
L 86.629689 82.757666 
L 87.58169 79.917429 
L 88.484848 78.754528 
L 89.343932 80.893082 
L 90.163044 80.284804 
L 90.945738 75.16295 
L 91.695116 76.175816 
L 92.413898 76.887581 
L 93.104486 77.447233 
L 93.769007 74.750902 
L 94.409359 74.356275 
L 95.027237 74.732938 
L 95.624166 75.305594 
L 96.20152 72.52078 
L 96.760543 71.899128 
L 97.302362 72.815217 
L 97.828004 72.380576 
L 98.338409 72.533512 
L 98.834434 70.892676 
L 99.316868 71.407714 
L 99.786435 72.348613 
L 100.243804 68.824637 
L 100.689593 68.689885 
L 101.124374 66.613554 
L 101.548677 68.236665 
L 101.962995 64.245764 
L 102.367789 65.744609 
L 102.763484 67.224436 
L 103.150483 66.691072 
L 103.529158 67.508716 
L 103.899861 64.439428 
L 104.618643 63.223446 
L 104.967323 59.967022 
L 105.309231 64.545425 
L 105.644626 62.741168 
L 105.973752 64.69562 
L 106.296839 62.152819 
L 106.614104 65.904372 
L 106.925753 53.706947 
L 107.231982 62.796517 
L 107.828911 60.769795 
L 108.119955 61.103768 
L 108.406265 61.245654 
L 108.687995 59.491097 
L 109.507107 60.905462 
L 109.771889 58.220208 
L 110.032749 62.456741 
L 110.289801 59.81828 
L 110.543154 61.672231 
L 110.792913 57.342872 
L 111.521613 52.715803 
L 111.99118 62.356512 
L 112.221349 61.625451 
L 114.16774 61.397388 
L 114.771493 61.108944 
L 114.968229 60.064263 
L 115.545584 49.602138 
L 116.287071 55.715115 
L 116.823388 53.967365 
L 116.998591 57.630849 
L 117.513976 59.433254 
L 117.849371 53.253237 
L 118.178497 49.314206 
L 118.340782 52.429764 
L 119.436727 46.188134 
L 120.033656 60.853974 
L 120.468437 49.131706 
L 120.752439 42.911847 
L 121.443026 40.582438 
L 121.976634 51.2595 
L 122.494546 45.443739 
L 122.997658 51.072501 
L 123.726358 56.814646 
L 124.540061 38.183423 
L 125.099083 40.67572 
L 126.269816 49.990359 
L 127.750328 55.638469 
L 128.124975 42.697406 
L 129.462914 35.526198 
L 129.718721 33.849427 
L 131.412301 37.862955 
L 132.529444 29.869124 
L 132.673182 37.33246 
" clip-path="url(#pb74c9d48c4)" style="fill: none; stroke: #1f77b4; stroke-linecap: square"/>
   </g>
   <g id="patch_3">
    <path d="M 30.89 114.232 
L 30.89 23.712 
" style="fill: none; stroke: #000000; stroke-width: 0.5; stroke-linejoin: miter; stroke-linecap: square"/>
   </g>
   <g id="patch_4">
    <path d="M 30.89 114.232 
L 137.52 114.232 
" style="fill: none; stroke: #000000; stroke-width: 0.5; stroke-linejoin: miter; stroke-linecap: square"/>
   </g>
   <g id="text_11">
    <text style="font: 6px 'DejaVu Sans', 'Arial', 'Helvetica', 'Lucida Grande', 'Verdana', 'Geneva', 'Lucid', 'Avant Garde', sans-serif" transform="translate(51.810156 10.993313)">Average cell intensity</text>
    <text style="font: 6px 'DejaVu Sans', 'Arial', 'Helvetica', 'Lucida Grande', 'Verdana', 'Geneva', 'Lucid', 'Avant Garde', sans-serif" transform="translate(42.454844 17.712)">vs experimental colony size</text>
   </g>
  </g>
 </g>
 <defs>
  <clipPath id="pb74c9d48c4">
   <rect x="30.89" y="23.712" width="106.63" height="90.52"/>
  </clipPath>
 </defs>
</svg>
