<?xml version="1.0" encoding="utf-8" standalone="no"?>
<!DOCTYPE svg PUBLIC "-//W3C//DTD SVG 1.1//EN"
  "http://www.w3.org/Graphics/SVG/1.1/DTD/svg11.dtd">
<svg xmlns:xlink="http://www.w3.org/1999/xlink" width="144pt" height="144pt" viewBox="0 0 144 144" xmlns="http://www.w3.org/2000/svg" version="1.1">
 <metadata>
  <rdf:RDF xmlns:dc="http://purl.org/dc/elements/1.1/" xmlns:cc="http://creativecommons.org/ns#" xmlns:rdf="http://www.w3.org/1999/02/22-rdf-syntax-ns#">
   <cc:Work>
    <dc:type rdf:resource="http://purl.org/dc/dcmitype/StillImage"/>
    <dc:date>2023-10-30T15:32:40.428128</dc:date>
    <dc:format>image/svg+xml</dc:format>
    <dc:creator>
     <cc:Agent>
      <dc:title>Matplotlib v3.7.2, https://matplotlib.org/</dc:title>
     </cc:Agent>
    </dc:creator>
   </cc:Work>
  </rdf:RDF>
 </metadata>
 <defs>
  <style type="text/css">*{stroke-linejoin: round; stroke-linecap: butt}</style>
 </defs>
 <g id="figure_1">
  <g id="patch_1">
   <path d="M 0 144 
L 144 144 
L 144 0 
L 0 0 
L 0 144 
z
" style="fill: none"/>
  </g>
  <g id="axes_1">
   <g id="patch_2">
    <path d="M 36 120.96 
L 142.56 120.96 
L 142.56 43.2 
L 36 43.2 
L 36 120.96 
z
" style="fill: none"/>
   </g>
   <g id="PolyCollection_1"/>
   <g id="PolyCollection_2"/>
   <g id="PolyCollection_3"/>
   <g id="patch_3">
    <path d="M 104.42006 56.86282 
L 114.355724 56.86282 
L 114.355724 48.091627 
L 104.42006 48.091627 
L 104.42006 56.86282 
z
" clip-path="url(#p530a5e6f99)" style="fill: none; stroke: #808080; stroke-linejoin: miter"/>
   </g>
   <g id="matplotlib.axis_1">
    <g id="xtick_1">
     <g id="line2d_1">
      <defs>
       <path id="m42710620c0" d="M 0 0 
L 0 3.5 
" style="stroke: #000000; stroke-width: 0.8"/>
      </defs>
      <g>
       <use xlink:href="#m42710620c0" x="41.967313" y="120.96" style="stroke: #000000; stroke-width: 0.8"/>
      </g>
     </g>
     <g id="text_1">
      <text style="font: 6px 'DejaVu Sans', 'Arial', 'Helvetica', 'Lucida Grande', 'Verdana', 'Geneva', 'Lucid', 'Avant Garde', sans-serif; text-anchor: middle" x="41.967313" y="132.519062" transform="rotate(-0 41.967313 132.519062)">−1.0</text>
     </g>
    </g>
    <g id="xtick_2">
     <g id="line2d_2">
      <g>
       <use xlink:href="#m42710620c0" x="65.623656" y="120.96" style="stroke: #000000; stroke-width: 0.8"/>
      </g>
     </g>
     <g id="text_2">
      <text style="font: 6px 'DejaVu Sans', 'Arial', 'Helvetica', 'Lucida Grande', 'Verdana', 'Geneva', 'Lucid', 'Avant Garde', sans-serif; text-anchor: middle" x="65.623656" y="132.519062" transform="rotate(-0 65.623656 132.519062)">−0.5</text>
     </g>
    </g>
    <g id="xtick_3">
     <g id="line2d_3">
      <g>
       <use xlink:href="#m42710620c0" x="89.28" y="120.96" style="stroke: #000000; stroke-width: 0.8"/>
      </g>
     </g>
     <g id="text_3">
      <text style="font: 6px 'DejaVu Sans', 'Arial', 'Helvetica', 'Lucida Grande', 'Verdana', 'Geneva', 'Lucid', 'Avant Garde', sans-serif; text-anchor: middle" x="89.28" y="132.519062" transform="rotate(-0 89.28 132.519062)">0.0</text>
     </g>
    </g>
    <g id="xtick_4">
     <g id="line2d_4">
      <g>
       <use xlink:href="#m42710620c0" x="112.936344" y="120.96" style="stroke: #000000; stroke-width: 0.8"/>
      </g>
     </g>
     <g id="text_4">
      <text style="font: 6px 'DejaVu Sans', 'Arial', 'Helvetica', 'Lucida Grande', 'Verdana', 'Geneva', 'Lucid', 'Avant Garde', sans-serif; text-anchor: middle" x="112.936344" y="132.519062" transform="rotate(-0 112.936344 132.519062)">0.5</text>
     </g>
    </g>
    <g id="xtick_5">
     <g id="line2d_5">
      <g>
       <use xlink:href="#m42710620c0" x="136.592687" y="120.96" style="stroke: #000000; stroke-width: 0.8"/>
      </g>
     </g>
     <g id="text_5">
      <text style="font: 6px 'DejaVu Sans', 'Arial', 'Helvetica', 'Lucida Grande', 'Verdana', 'Geneva', 'Lucid', 'Avant Garde', sans-serif; text-anchor: middle" x="136.592687" y="132.519062" transform="rotate(-0 136.592687 132.519062)">1.0</text>
     </g>
    </g>
    <g id="text_6">
     <!-- Profile ($\mu$m) -->
     <g transform="translate(71.7 142.326875)">
      <text>
       <tspan style="font: 6px 'DejaVu Sans'" x="0 3.618164 6.084961 9.755859 11.868164 13.535156 15.202148 18.893555 20.800781 26.958984 32.803711" y="-0.4375">Profile (m)</tspan>
       <tspan style="font: oblique 6px 'DejaVu Sans'" x="23.141602" y="-0.4375">μ</tspan>
      </text>
     </g>
    </g>
   </g>
   <g id="matplotlib.axis_2">
    <g id="ytick_1">
     <g id="line2d_6">
      <defs>
       <path id="m761785fe65" d="M 0 0 
L -3.5 0 
" style="stroke: #000000; stroke-width: 0.8"/>
      </defs>
      <g>
       <use xlink:href="#m761785fe65" x="36" y="117.586464" style="stroke: #000000; stroke-width: 0.8"/>
      </g>
     </g>
     <g id="text_7">
      <text style="font: 6px 'DejaVu Sans', 'Arial', 'Helvetica', 'Lucida Grande', 'Verdana', 'Geneva', 'Lucid', 'Avant Garde', sans-serif; text-anchor: end" x="29" y="119.865995" transform="rotate(-0 29 119.865995)">0.0</text>
     </g>
    </g>
    <g id="ytick_2">
     <g id="line2d_7">
      <g>
       <use xlink:href="#m761785fe65" x="36" y="104.092321" style="stroke: #000000; stroke-width: 0.8"/>
      </g>
     </g>
     <g id="text_8">
      <text style="font: 6px 'DejaVu Sans', 'Arial', 'Helvetica', 'Lucida Grande', 'Verdana', 'Geneva', 'Lucid', 'Avant Garde', sans-serif; text-anchor: end" x="29" y="106.371852" transform="rotate(-0 29 106.371852)">0.2</text>
     </g>
    </g>
    <g id="ytick_3">
     <g id="line2d_8">
      <g>
       <use xlink:href="#m761785fe65" x="36" y="90.598178" style="stroke: #000000; stroke-width: 0.8"/>
      </g>
     </g>
     <g id="text_9">
      <text style="font: 6px 'DejaVu Sans', 'Arial', 'Helvetica', 'Lucida Grande', 'Verdana', 'Geneva', 'Lucid', 'Avant Garde', sans-serif; text-anchor: end" x="29" y="92.877709" transform="rotate(-0 29 92.877709)">0.4</text>
     </g>
    </g>
    <g id="ytick_4">
     <g id="line2d_9">
      <g>
       <use xlink:href="#m761785fe65" x="36" y="77.104035" style="stroke: #000000; stroke-width: 0.8"/>
      </g>
     </g>
     <g id="text_10">
      <text style="font: 6px 'DejaVu Sans', 'Arial', 'Helvetica', 'Lucida Grande', 'Verdana', 'Geneva', 'Lucid', 'Avant Garde', sans-serif; text-anchor: end" x="29" y="79.383566" transform="rotate(-0 29 79.383566)">0.6</text>
     </g>
    </g>
    <g id="ytick_5">
     <g id="line2d_10">
      <g>
       <use xlink:href="#m761785fe65" x="36" y="63.609892" style="stroke: #000000; stroke-width: 0.8"/>
      </g>
     </g>
     <g id="text_11">
      <text style="font: 6px 'DejaVu Sans', 'Arial', 'Helvetica', 'Lucida Grande', 'Verdana', 'Geneva', 'Lucid', 'Avant Garde', sans-serif; text-anchor: end" x="29" y="65.889423" transform="rotate(-0 29 65.889423)">0.8</text>
     </g>
    </g>
    <g id="ytick_6">
     <g id="line2d_11">
      <g>
       <use xlink:href="#m761785fe65" x="36" y="50.115748" style="stroke: #000000; stroke-width: 0.8"/>
      </g>
     </g>
     <g id="text_12">
      <text style="font: 6px 'DejaVu Sans', 'Arial', 'Helvetica', 'Lucida Grande', 'Verdana', 'Geneva', 'Lucid', 'Avant Garde', sans-serif; text-anchor: end" x="29" y="52.39528" transform="rotate(-0 29 52.39528)">1.0</text>
     </g>
    </g>
    <g id="text_13">
     <text style="font: 6px 'DejaVu Sans', 'Arial', 'Helvetica', 'Lucida Grande', 'Verdana', 'Geneva', 'Lucid', 'Avant Garde', sans-serif; text-anchor: middle" x="14.210313" y="82.08" transform="rotate(-90 14.210313 82.08)">Intensity (AU)</text>
    </g>
   </g>
   <g id="line2d_12">
    <path d="M 35.823621 117.586464 
L 64.767853 117.586464 
L 65.129656 90.361439 
L 65.672361 74.973379 
L 66.757769 54.850534 
L 67.119572 50.115748 
L 67.300474 65.503807 
L 67.662277 73.78968 
L 67.843178 77.340775 
L 68.204981 79.708168 
L 68.566784 83.259259 
L 69.109488 86.81035 
L 69.29039 86.81035 
L 69.471291 87.994046 
L 69.652193 87.994046 
L 70.013995 90.361439 
L 70.375798 90.361439 
L 70.737601 92.728832 
L 70.918503 92.728832 
L 71.099404 93.912529 
L 71.280306 93.912529 
L 71.461207 92.728832 
L 71.642108 93.912529 
L 72.184813 93.912529 
L 72.365714 95.096227 
L 72.546616 95.096227 
L 72.727517 96.279921 
L 73.812926 96.279921 
L 73.993827 97.46362 
L 74.536532 97.46362 
L 74.717433 98.647316 
L 75.079236 98.647316 
L 75.260138 97.46362 
L 75.441039 98.647316 
L 75.802842 98.647316 
L 75.983743 99.831012 
L 76.164645 98.647316 
L 76.345546 98.647316 
L 76.526448 99.831012 
L 76.707349 98.647316 
L 76.888251 99.831012 
L 77.069152 99.831012 
L 77.250053 98.647316 
L 77.430955 99.831012 
L 78.335462 99.831012 
L 78.516364 101.014711 
L 78.697265 99.831012 
L 78.878167 101.014711 
L 79.059068 99.831012 
L 79.239969 101.014711 
L 79.420871 99.831012 
L 79.601772 101.014711 
L 81.048984 101.014711 
L 81.229885 102.198407 
L 81.410787 101.014711 
L 81.591688 101.014711 
L 81.77259 102.198407 
L 81.953491 101.014711 
L 82.134393 101.014711 
L 82.315294 102.198407 
L 82.496196 101.014711 
L 82.677097 101.014711 
L 82.857998 102.198407 
L 83.0389 101.014711 
L 83.219801 101.014711 
L 83.400703 102.198407 
L 83.581604 102.198407 
L 83.762506 101.014711 
L 83.943407 101.014711 
L 84.124309 102.198407 
L 84.486112 102.198407 
L 84.667013 101.014711 
L 84.847914 102.198407 
L 85.57152 102.198407 
L 85.752422 101.014711 
L 85.933323 102.198407 
L 87.018732 102.198407 
L 87.199633 101.014711 
L 87.380535 102.198407 
L 91.179465 102.198407 
L 91.360367 101.014711 
L 91.541268 102.198407 
L 92.626677 102.198407 
L 92.807578 101.014711 
L 92.98848 102.198407 
L 93.712086 102.198407 
L 93.892987 101.014711 
L 94.073888 102.198407 
L 94.435691 102.198407 
L 94.616593 101.014711 
L 94.797494 101.014711 
L 94.978396 102.198407 
L 95.159297 102.198407 
L 95.340199 101.014711 
L 95.5211 101.014711 
L 95.702002 102.198407 
L 95.882903 101.014711 
L 96.063804 101.014711 
L 96.244706 102.198407 
L 96.425607 101.014711 
L 96.606509 101.014711 
L 96.78741 102.198407 
L 96.968312 101.014711 
L 97.149213 101.014711 
L 97.330115 102.198407 
L 97.511016 101.014711 
L 98.958228 101.014711 
L 99.139129 99.831012 
L 99.320031 101.014711 
L 99.500932 99.831012 
L 99.681833 101.014711 
L 99.862735 99.831012 
L 100.043636 101.014711 
L 100.224538 99.831012 
L 101.129045 99.831012 
L 101.309947 98.647316 
L 101.490848 99.831012 
L 101.671749 99.831012 
L 101.852651 98.647316 
L 102.033552 99.831012 
L 102.214454 98.647316 
L 102.395355 98.647316 
L 102.576257 99.831012 
L 102.757158 98.647316 
L 103.118961 98.647316 
L 103.299862 97.46362 
L 103.480764 98.647316 
L 103.842567 98.647316 
L 104.023468 97.46362 
L 104.566173 97.46362 
L 104.747074 96.279921 
L 105.832483 96.279921 
L 106.013384 95.096227 
L 106.194286 95.096227 
L 106.375187 93.912529 
L 106.917892 93.912529 
L 107.098793 92.728832 
L 107.279694 93.912529 
L 107.460596 93.912529 
L 107.641497 92.728832 
L 107.822399 92.728832 
L 108.184202 90.361439 
L 108.546005 90.361439 
L 108.907807 87.994046 
L 109.088709 87.994046 
L 109.26961 86.81035 
L 109.450512 86.81035 
L 110.174118 82.075561 
L 110.535921 78.52447 
L 110.716822 77.340775 
L 111.259526 65.503807 
L 111.440428 50.115748 
L 112.164034 60.769018 
L 113.068541 79.708168 
L 113.430344 90.361439 
L 113.611245 98.647316 
L 113.792147 117.586464 
L 142.736379 117.586464 
L 142.736379 117.586464 
" clip-path="url(#p530a5e6f99)" style="fill: none; stroke: #000000; stroke-linecap: square"/>
   </g>
   <g id="line2d_13">
    <path d="M 35.823621 116.363556 
L 42.336073 114.792819 
L 44.145088 114.051053 
L 46.496807 112.798274 
L 49.39123 111.066813 
L 50.838442 109.916089 
L 52.104752 108.586029 
L 53.551963 106.686854 
L 55.541879 103.656718 
L 57.169992 100.879398 
L 58.255401 98.622435 
L 59.159908 96.236025 
L 60.064416 93.181772 
L 60.968923 89.314802 
L 62.054332 83.56555 
L 63.501543 74.457517 
L 65.672361 60.715509 
L 66.576868 56.195379 
L 67.300474 53.435174 
L 68.024079 51.519478 
L 68.566784 50.633522 
L 69.109488 50.189719 
L 69.471291 50.115748 
L 70.013995 50.290427 
L 70.5567 50.742587 
L 71.280306 51.649225 
L 74.536532 56.234787 
L 75.441039 57.024625 
L 82.134393 61.72767 
L 83.581604 62.402773 
L 85.209717 62.913833 
L 87.199633 63.305048 
L 89.008648 63.446703 
L 90.817662 63.344268 
L 92.807578 62.987375 
L 94.616593 62.448297 
L 96.063804 61.793492 
L 97.511016 60.897298 
L 100.043636 58.99656 
L 102.033552 57.6019 
L 103.480764 56.531583 
L 104.385271 55.551939 
L 105.47068 54.051737 
L 107.641497 50.87329 
L 108.365103 50.25609 
L 108.907807 50.116747 
L 109.26961 50.218779 
L 109.631413 50.498082 
L 110.174118 51.282537 
L 110.716822 52.53336 
L 111.440428 54.945845 
L 112.164034 58.169698 
L 113.249442 64.255806 
L 115.601161 79.540452 
L 116.867471 86.903313 
L 117.95288 91.987331 
L 118.857387 95.300912 
L 119.761895 97.889008 
L 120.847303 100.301074 
L 122.294515 102.874362 
L 124.646234 106.513891 
L 126.274347 108.656826 
L 127.540657 109.971177 
L 128.806967 110.982437 
L 130.615982 112.112635 
L 134.234011 114.079813 
L 136.043025 114.81287 
L 138.032941 115.354181 
L 142.736379 116.416341 
L 142.736379 116.416341 
" clip-path="url(#p530a5e6f99)" style="fill: none; stroke: #0000ff; stroke-linecap: square"/>
   </g>
   <g id="line2d_14">
    <path d="M 35.823621 116.240657 
L 44.325989 113.976382 
L 45.773201 113.246057 
L 47.401314 112.155082 
L 49.572131 110.383456 
L 53.009259 107.2955 
L 54.456471 105.698953 
L 55.541879 104.143323 
L 56.446387 102.478627 
L 57.350894 100.37504 
L 58.255401 97.754608 
L 59.34081 93.864261 
L 60.60712 88.316073 
L 62.235233 79.918288 
L 65.672361 61.677082 
L 66.757769 57.13777 
L 67.662277 54.163571 
L 68.385882 52.371622 
L 69.109488 51.113192 
L 69.652193 50.512884 
L 70.194897 50.188756 
L 70.737601 50.120069 
L 71.280306 50.278492 
L 72.003911 50.786705 
L 72.908419 51.780409 
L 74.35563 53.804603 
L 75.983743 56.013994 
L 77.430955 57.641888 
L 78.516364 58.643199 
L 79.782674 59.477947 
L 81.410787 60.22012 
L 87.742338 62.599036 
L 89.008648 62.752831 
L 90.274958 62.657142 
L 91.541268 62.33511 
L 93.531184 61.564526 
L 99.139129 59.118785 
L 100.224538 58.288576 
L 101.490848 57.00558 
L 102.93806 55.241834 
L 104.747074 52.671769 
L 106.013384 51.080562 
L 106.73699 50.452916 
L 107.460596 50.136288 
L 108.0033 50.152004 
L 108.546005 50.417737 
L 109.088709 50.955377 
L 109.631413 51.782463 
L 110.355019 53.351798 
L 111.078625 55.4524 
L 111.983132 58.786384 
L 113.068541 63.682536 
L 114.696654 72.251629 
L 117.591077 87.735972 
L 118.857387 93.381455 
L 119.942796 97.362997 
L 121.028205 100.530468 
L 122.113613 102.961654 
L 123.199022 104.797239 
L 124.284431 106.207454 
L 125.731642 107.702534 
L 128.806967 110.4355 
L 131.158686 112.332592 
L 132.786799 113.383884 
L 134.414912 114.147962 
L 136.223927 114.719354 
L 142.736379 116.301481 
L 142.736379 116.301481 
" clip-path="url(#p530a5e6f99)" style="fill: none; stroke: #ff0000; stroke-linecap: square"/>
   </g>
   <g id="line2d_15">
    <path d="M 64.677403 117.586464 
L 64.677403 50.115748 
" clip-path="url(#p530a5e6f99)" style="fill: none; stroke-dasharray: 1,1.65; stroke-dashoffset: 0; stroke: #000000"/>
   </g>
   <g id="line2d_16">
    <path d="M 113.882597 117.586464 
L 113.882597 50.115748 
" clip-path="url(#p530a5e6f99)" style="fill: none; stroke-dasharray: 1,1.65; stroke-dashoffset: 0; stroke: #000000"/>
   </g>
   <g id="patch_4">
    <path d="M 36 120.96 
L 36 43.2 
" style="fill: none; stroke: #000000; stroke-width: 0.5; stroke-linejoin: miter; stroke-linecap: square"/>
   </g>
   <g id="patch_5">
    <path d="M 36 120.96 
L 142.56 120.96 
" style="fill: none; stroke: #000000; stroke-width: 0.5; stroke-linejoin: miter; stroke-linecap: square"/>
   </g>
  </g>
  <g id="axes_2">
   <g id="patch_6">
    <path d="M 36 39.312 
L 131.904 39.312 
L 131.904 19.872 
L 36 19.872 
L 36 39.312 
z
" style="fill: none"/>
   </g>
   <g id="patch_7">
    <path d="M 36 39.312 
L 104.42006 56.86282 
" style="fill: none; stroke: #808080; stroke-linejoin: miter"/>
   </g>
   <g id="patch_8">
    <path d="M 131.904 39.312 
L 114.355724 56.86282 
" style="fill: none; stroke: #808080; stroke-linejoin: miter"/>
   </g>
   <g id="PolyCollection_4"/>
   <g id="PolyCollection_5"/>
   <g id="PolyCollection_6"/>
   <g id="matplotlib.axis_3">
    <g id="xtick_6">
     <g id="line2d_17">
      <g>
       <use xlink:href="#m42710620c0" x="49.700571" y="39.312" style="stroke: #000000; stroke-width: 0.8"/>
      </g>
     </g>
     <g id="text_14">
      <text style="font: 6px 'DejaVu Sans', 'Arial', 'Helvetica', 'Lucida Grande', 'Verdana', 'Geneva', 'Lucid', 'Avant Garde', sans-serif; text-anchor: middle" x="49.700571" y="50.871062" transform="rotate(-0 49.700571 50.871062)">0.35</text>
     </g>
    </g>
    <g id="xtick_7">
     <g id="line2d_18">
      <g>
       <use xlink:href="#m42710620c0" x="72.534857" y="39.312" style="stroke: #000000; stroke-width: 0.8"/>
      </g>
     </g>
     <g id="text_15">
      <text style="font: 6px 'DejaVu Sans', 'Arial', 'Helvetica', 'Lucida Grande', 'Verdana', 'Geneva', 'Lucid', 'Avant Garde', sans-serif; text-anchor: middle" x="72.534857" y="50.871062" transform="rotate(-0 72.534857 50.871062)">0.40</text>
     </g>
    </g>
    <g id="xtick_8">
     <g id="line2d_19">
      <g>
       <use xlink:href="#m42710620c0" x="95.369143" y="39.312" style="stroke: #000000; stroke-width: 0.8"/>
      </g>
     </g>
     <g id="text_16">
      <text style="font: 6px 'DejaVu Sans', 'Arial', 'Helvetica', 'Lucida Grande', 'Verdana', 'Geneva', 'Lucid', 'Avant Garde', sans-serif; text-anchor: middle" x="95.369143" y="50.871062" transform="rotate(-0 95.369143 50.871062)">0.45</text>
     </g>
    </g>
    <g id="xtick_9">
     <g id="line2d_20">
      <g>
       <use xlink:href="#m42710620c0" x="118.203429" y="39.312" style="stroke: #000000; stroke-width: 0.8"/>
      </g>
     </g>
     <g id="text_17">
      <text style="font: 6px 'DejaVu Sans', 'Arial', 'Helvetica', 'Lucida Grande', 'Verdana', 'Geneva', 'Lucid', 'Avant Garde', sans-serif; text-anchor: middle" x="118.203429" y="50.871062" transform="rotate(-0 118.203429 50.871062)">0.50</text>
     </g>
    </g>
   </g>
   <g id="matplotlib.axis_4">
    <g id="ytick_7">
     <g id="line2d_21">
      <g>
       <use xlink:href="#m761785fe65" x="36" y="39.312" style="stroke: #000000; stroke-width: 0.8"/>
      </g>
     </g>
    </g>
    <g id="ytick_8">
     <g id="line2d_22">
      <g>
       <use xlink:href="#m761785fe65" x="36" y="24.358154" style="stroke: #000000; stroke-width: 0.8"/>
      </g>
     </g>
    </g>
   </g>
   <g id="line2d_23">
    <path d="M 35.664202 129.297426 
L 37.410353 129.297426 
L 39.156504 126.673941 
L 40.902655 126.673941 
L 42.648807 126.673941 
L 44.394958 126.673941 
L 46.141109 126.673941 
L 47.887261 126.673941 
L 49.633412 126.673941 
L 51.379563 124.050464 
L 53.125714 124.050464 
L 54.871866 121.426979 
L 56.618017 121.426979 
L 58.364168 121.426979 
L 60.110319 121.426979 
L 61.856471 118.803498 
L 63.602622 121.426979 
L 65.348773 121.426979 
L 67.094924 118.803498 
L 68.841076 118.803498 
L 70.587227 116.180017 
L 72.333378 113.556536 
L 74.079529 113.556536 
L 75.825681 113.556536 
L 77.571832 110.933051 
L 79.317983 108.309574 
L 81.064134 108.309574 
L 82.810286 105.686093 
L 84.556437 105.686093 
L 86.302588 103.062608 
L 88.048739 100.439131 
L 89.794891 97.815646 
L 91.541042 95.192161 
L 93.287193 89.945199 
L 95.033345 87.321714 
L 96.779496 84.698237 
L 98.525647 76.827782 
L 100.271798 71.58082 
L 102.01795 58.463419 
L 103.764101 24.358154 
L 105.510252 29.605124 
L 107.256403 34.852078 
L 109.002555 40.099048 
L 110.748706 47.969487 
L 112.494857 55.839934 
L 114.241008 63.710381 
L 115.98716 71.58082 
L 117.733311 79.451267 
L 119.479462 89.945199 
L 121.225613 100.439131 
L 122.971765 113.556536 
L 124.717916 131.920907 
L 125.261994 145 
" clip-path="url(#pea3518fd51)" style="fill: none; stroke: #000000; stroke-linecap: square"/>
   </g>
   <g id="line2d_24">
    <path d="M 35.664202 36.406633 
L 37.410353 35.902429 
L 39.156504 35.376657 
L 40.902655 34.829835 
L 42.648807 34.26339 
L 44.394958 33.679568 
L 46.141109 33.081666 
L 47.887261 32.471065 
L 49.633412 31.851296 
L 51.379563 31.224227 
L 53.125714 30.595464 
L 54.871866 29.966622 
L 56.618017 29.34646 
L 58.364168 28.736487 
L 60.110319 28.140813 
L 61.856471 27.567713 
L 63.602622 27.020671 
L 65.348773 26.508995 
L 67.094924 26.037128 
L 68.841076 25.611521 
L 70.587227 25.236712 
L 72.333378 24.920878 
L 74.079529 24.6692 
L 75.825681 24.487705 
L 77.571832 24.383537 
L 79.317983 24.360367 
L 81.064134 24.426532 
L 82.810286 24.586505 
L 84.556437 24.845075 
L 86.302588 25.205537 
L 88.048739 25.67428 
L 89.794891 26.253078 
L 91.541042 26.944161 
L 93.287193 27.751327 
L 95.033345 28.675549 
L 96.779496 29.716419 
L 98.525647 30.877014 
L 100.271798 32.154775 
L 102.01795 33.551053 
L 103.764101 35.063319 
L 105.510252 36.688718 
L 107.256403 38.424281 
L 109.002555 40.265159 
L 110.748706 42.208494 
L 112.494857 44.249743 
L 114.241008 46.381982 
L 115.98716 48.599734 
L 117.733311 50.89664 
L 119.479462 53.264805 
L 121.225613 55.697416 
L 122.971765 58.184702 
L 124.717916 60.72448 
L 126.464067 63.30566 
L 128.210218 65.919381 
L 129.95637 68.558407 
L 131.702521 71.213279 
L 133.448672 73.875489 
" clip-path="url(#pea3518fd51)" style="fill: none; stroke: #0000ff; stroke-linecap: square"/>
   </g>
   <g id="line2d_25">
    <path d="M 35.664202 31.171264 
L 37.410353 30.59369 
L 39.156504 30.02318 
L 40.902655 29.464505 
L 42.648807 28.919472 
L 44.394958 28.389744 
L 46.141109 27.878932 
L 47.887261 27.391744 
L 49.633412 26.931352 
L 51.379563 26.496515 
L 53.125714 26.09378 
L 54.871866 25.726678 
L 56.618017 25.396685 
L 58.364168 25.105434 
L 60.110319 24.857994 
L 61.856471 24.657097 
L 63.602622 24.504156 
L 65.348773 24.403677 
L 67.094924 24.35817 
L 68.841076 24.368781 
L 70.587227 24.438509 
L 72.333378 24.571169 
L 74.079529 24.766634 
L 75.825681 25.027464 
L 77.571832 25.354993 
L 79.317983 25.751826 
L 81.064134 26.219062 
L 82.810286 26.756858 
L 84.556437 27.368386 
L 86.302588 28.052169 
L 88.048739 28.812698 
L 89.794891 29.643849 
L 91.541042 30.550208 
L 93.287193 31.53036 
L 95.033345 32.585892 
L 96.779496 33.713224 
L 98.525647 34.913816 
L 100.271798 36.186021 
L 102.01795 37.529052 
L 103.764101 38.941906 
L 105.510252 40.421898 
L 107.256403 41.966643 
L 109.002555 43.575284 
L 110.748706 45.245318 
L 112.494857 46.97596 
L 114.241008 48.762494 
L 115.98716 50.600507 
L 117.733311 52.490486 
L 119.479462 54.426852 
L 121.225613 56.407736 
L 122.971765 58.430046 
L 124.717916 60.488491 
L 126.464067 62.581479 
L 128.210218 64.703758 
L 129.95637 66.853234 
L 131.702521 69.024583 
L 133.448672 71.213954 
" clip-path="url(#pea3518fd51)" style="fill: none; stroke: #ff0000; stroke-linecap: square"/>
   </g>
   <g id="line2d_26">
    <path d="M 127.337143 145 
L 127.337143 24.358154 
" clip-path="url(#pea3518fd51)" style="fill: none; stroke-dasharray: 1,1.65; stroke-dashoffset: 0; stroke: #000000"/>
   </g>
   <g id="patch_9">
    <path d="M 36 39.312 
L 36 19.872 
" style="fill: none; stroke: #000000; stroke-width: 0.5; stroke-linejoin: miter; stroke-linecap: square"/>
   </g>
   <g id="patch_10">
    <path d="M 36 39.312 
L 131.904 39.312 
" style="fill: none; stroke: #000000; stroke-width: 0.5; stroke-linejoin: miter; stroke-linecap: square"/>
   </g>
  </g>
  <g id="text_18">
   <text style="font: 6px 'DejaVu Sans', 'Arial', 'Helvetica', 'Lucida Grande', 'Verdana', 'Geneva', 'Lucid', 'Avant Garde', sans-serif" transform="translate(27.36 7.439063)">Membrane stained cell profile</text>
   <text style="font: 6px 'DejaVu Sans', 'Arial', 'Helvetica', 'Lucida Grande', 'Verdana', 'Geneva', 'Lucid', 'Avant Garde', sans-serif" transform="translate(43.590469 14.15775)">effect of projection</text>
  </g>
 </g>
 <defs>
  <clipPath id="p530a5e6f99">
   <rect x="36" y="43.2" width="106.56" height="77.76"/>
  </clipPath>
  <clipPath id="pea3518fd51">
   <rect x="36" y="19.872" width="95.904" height="19.44"/>
  </clipPath>
 </defs>
</svg>
