<?xml version="1.0" encoding="utf-8" standalone="no"?>
<!DOCTYPE svg PUBLIC "-//W3C//DTD SVG 1.1//EN"
  "http://www.w3.org/Graphics/SVG/1.1/DTD/svg11.dtd">
<svg xmlns:xlink="http://www.w3.org/1999/xlink" width="144pt" height="180pt" viewBox="0 0 144 180" xmlns="http://www.w3.org/2000/svg" version="1.1">
 <metadata>
  <rdf:RDF xmlns:dc="http://purl.org/dc/elements/1.1/" xmlns:cc="http://creativecommons.org/ns#" xmlns:rdf="http://www.w3.org/1999/02/22-rdf-syntax-ns#">
   <cc:Work>
    <dc:type rdf:resource="http://purl.org/dc/dcmitype/StillImage"/>
    <dc:date>2023-10-30T16:22:32.260925</dc:date>
    <dc:format>image/svg+xml</dc:format>
    <dc:creator>
     <cc:Agent>
      <dc:title>Matplotlib v3.7.2, https://matplotlib.org/</dc:title>
     </cc:Agent>
    </dc:creator>
   </cc:Work>
  </rdf:RDF>
 </metadata>
 <defs>
  <style type="text/css">*{stroke-linejoin: round; stroke-linecap: butt}</style>
 </defs>
 <g id="figure_1">
  <g id="patch_1">
   <path d="M 0 180 
L 144 180 
L 144 0 
L 0 0 
L 0 180 
z
" style="fill: none"/>
  </g>
  <g id="axes_1">
   <g id="patch_2">
    <path d="M 36 151.2 
L 142.56 151.2 
L 142.56 79.2 
L 36 79.2 
L 36 151.2 
z
" style="fill: none"/>
   </g>
   <g id="PolyCollection_1"/>
   <g id="PolyCollection_2"/>
   <g id="PolyCollection_3"/>
   <g id="PolyCollection_4"/>
   <g id="PolyCollection_5"/>
   <g id="patch_3">
    <path d="M 105.264 147.927273 
L 108.816 147.927273 
L 108.816 108.654545 
L 105.264 108.654545 
L 105.264 147.927273 
z
" clip-path="url(#p7985e3a79b)" style="fill: none; stroke: #808080; stroke-linejoin: miter"/>
   </g>
   <g id="matplotlib.axis_1">
    <g id="xtick_1">
     <g id="line2d_1">
      <defs>
       <path id="m0ef20f6086" d="M 0 0 
L 0 3.5 
" style="stroke: #000000; stroke-width: 0.8"/>
      </defs>
      <g>
       <use xlink:href="#m0ef20f6086" x="53.76" y="151.2" style="stroke: #000000; stroke-width: 0.8"/>
      </g>
     </g>
     <g id="text_1">
      <text style="font: 6px 'DejaVu Sans', 'Arial', 'Helvetica', 'Lucida Grande', 'Verdana', 'Geneva', 'Lucid', 'Avant Garde', sans-serif; text-anchor: middle" x="53.76" y="162.759062" transform="rotate(-0 53.76 162.759062)">−1</text>
     </g>
    </g>
    <g id="xtick_2">
     <g id="line2d_2">
      <g>
       <use xlink:href="#m0ef20f6086" x="89.28" y="151.2" style="stroke: #000000; stroke-width: 0.8"/>
      </g>
     </g>
     <g id="text_2">
      <text style="font: 6px 'DejaVu Sans', 'Arial', 'Helvetica', 'Lucida Grande', 'Verdana', 'Geneva', 'Lucid', 'Avant Garde', sans-serif; text-anchor: middle" x="89.28" y="162.759062" transform="rotate(-0 89.28 162.759062)">0</text>
     </g>
    </g>
    <g id="xtick_3">
     <g id="line2d_3">
      <g>
       <use xlink:href="#m0ef20f6086" x="124.8" y="151.2" style="stroke: #000000; stroke-width: 0.8"/>
      </g>
     </g>
     <g id="text_3">
      <text style="font: 6px 'DejaVu Sans', 'Arial', 'Helvetica', 'Lucida Grande', 'Verdana', 'Geneva', 'Lucid', 'Avant Garde', sans-serif; text-anchor: middle" x="124.8" y="162.759062" transform="rotate(-0 124.8 162.759062)">1</text>
     </g>
    </g>
    <g id="text_4">
     <!-- Profile ($\mu m$) -->
     <g transform="translate(71.7 172.566875)">
      <text>
       <tspan style="font: 6px 'DejaVu Sans'" x="0 3.618164 6.084961 9.755859 11.868164 13.535156 15.202148 18.893555 20.800781 32.803711" y="-0.4375">Profile ()</tspan>
       <tspan style="font: oblique 6px 'DejaVu Sans'" x="23.141602 26.958984" y="-0.4375">μm</tspan>
      </text>
     </g>
    </g>
   </g>
   <g id="matplotlib.axis_2">
    <g id="ytick_1">
     <g id="line2d_4">
      <defs>
       <path id="mbdcdf3e71e" d="M 0 0 
L -3.5 0 
" style="stroke: #000000; stroke-width: 0.8"/>
      </defs>
      <g>
       <use xlink:href="#mbdcdf3e71e" x="36" y="147.927273" style="stroke: #000000; stroke-width: 0.8"/>
      </g>
     </g>
     <g id="text_5">
      <text style="font: 6px 'DejaVu Sans', 'Arial', 'Helvetica', 'Lucida Grande', 'Verdana', 'Geneva', 'Lucid', 'Avant Garde', sans-serif; text-anchor: end" x="29" y="150.206804" transform="rotate(-0 29 150.206804)">0.00</text>
     </g>
    </g>
    <g id="ytick_2">
     <g id="line2d_5">
      <g>
       <use xlink:href="#mbdcdf3e71e" x="36" y="131.563636" style="stroke: #000000; stroke-width: 0.8"/>
      </g>
     </g>
     <g id="text_6">
      <text style="font: 6px 'DejaVu Sans', 'Arial', 'Helvetica', 'Lucida Grande', 'Verdana', 'Geneva', 'Lucid', 'Avant Garde', sans-serif; text-anchor: end" x="29" y="133.843168" transform="rotate(-0 29 133.843168)">0.25</text>
     </g>
    </g>
    <g id="ytick_3">
     <g id="line2d_6">
      <g>
       <use xlink:href="#mbdcdf3e71e" x="36" y="115.2" style="stroke: #000000; stroke-width: 0.8"/>
      </g>
     </g>
     <g id="text_7">
      <text style="font: 6px 'DejaVu Sans', 'Arial', 'Helvetica', 'Lucida Grande', 'Verdana', 'Geneva', 'Lucid', 'Avant Garde', sans-serif; text-anchor: end" x="29" y="117.479531" transform="rotate(-0 29 117.479531)">0.50</text>
     </g>
    </g>
    <g id="ytick_4">
     <g id="line2d_7">
      <g>
       <use xlink:href="#mbdcdf3e71e" x="36" y="98.836364" style="stroke: #000000; stroke-width: 0.8"/>
      </g>
     </g>
     <g id="text_8">
      <text style="font: 6px 'DejaVu Sans', 'Arial', 'Helvetica', 'Lucida Grande', 'Verdana', 'Geneva', 'Lucid', 'Avant Garde', sans-serif; text-anchor: end" x="29" y="101.115895" transform="rotate(-0 29 101.115895)">0.75</text>
     </g>
    </g>
    <g id="ytick_5">
     <g id="line2d_8">
      <g>
       <use xlink:href="#mbdcdf3e71e" x="36" y="82.472727" style="stroke: #000000; stroke-width: 0.8"/>
      </g>
     </g>
     <g id="text_9">
      <text style="font: 6px 'DejaVu Sans', 'Arial', 'Helvetica', 'Lucida Grande', 'Verdana', 'Geneva', 'Lucid', 'Avant Garde', sans-serif; text-anchor: end" x="29" y="84.752259" transform="rotate(-0 29 84.752259)">1.00</text>
     </g>
    </g>
    <g id="text_10">
     <text style="font: 6px 'DejaVu Sans', 'Arial', 'Helvetica', 'Lucida Grande', 'Verdana', 'Geneva', 'Lucid', 'Avant Garde', sans-serif; text-anchor: middle" x="10.392812" y="115.2" transform="rotate(-90 10.392812 115.2)">Intensity (AU)</text>
    </g>
   </g>
   <g id="line2d_9">
    <path d="M 35.973882 147.927273 
L 70.877506 147.927273 
L 71.149129 136.775758 
L 71.692376 129.01818 
L 72.507247 121.260606 
L 73.865365 112.048485 
L 74.136988 111.07879 
L 74.544424 108.654543 
L 74.816047 107.684847 
L 75.087671 106.230302 
L 75.766729 103.806062 
L 76.038353 102.351517 
L 76.717412 99.927273 
L 76.853224 99.927273 
L 77.668094 97.01818 
L 77.803906 97.01818 
L 78.211341 95.563635 
L 78.347153 95.563635 
L 78.754588 94.10909 
L 78.8904 94.10909 
L 79.162024 93.139395 
L 79.297835 93.139395 
L 79.569459 92.169696 
L 79.705271 92.169696 
L 79.841082 91.68485 
L 79.976894 91.68485 
L 80.248518 90.715151 
L 80.384329 90.715151 
L 80.520141 90.230305 
L 80.655953 90.230305 
L 80.791765 89.745455 
L 80.927576 89.745455 
L 81.063388 89.260606 
L 81.1992 89.260606 
L 81.335012 88.775756 
L 81.470824 88.775756 
L 81.606635 88.290907 
L 81.742447 88.290907 
L 81.878259 87.806058 
L 82.149882 87.806058 
L 82.285694 87.321215 
L 82.421506 87.321215 
L 82.557318 86.836365 
L 82.828941 86.836365 
L 82.964753 86.351516 
L 83.236376 86.351516 
L 83.372188 85.866667 
L 83.643812 85.866667 
L 83.779624 85.381817 
L 84.051247 85.381817 
L 84.187059 84.896968 
L 84.458682 84.896968 
L 84.594494 84.412125 
L 85.001929 84.412125 
L 85.137741 83.927276 
L 85.680988 83.927276 
L 85.8168 83.442426 
L 86.495859 83.442426 
L 86.631671 82.957577 
L 87.582353 82.957577 
L 87.718165 82.472727 
L 90.841835 82.472727 
L 90.977647 82.957577 
L 91.928329 82.957577 
L 92.064141 83.442426 
L 92.7432 83.442426 
L 92.879012 83.927276 
L 93.422259 83.927276 
L 93.558071 84.412125 
L 93.965506 84.412125 
L 94.101318 84.896968 
L 94.372941 84.896968 
L 94.508753 85.381817 
L 94.780376 85.381817 
L 94.916188 85.866667 
L 95.187812 85.866667 
L 95.323624 86.351516 
L 95.595247 86.351516 
L 95.731059 86.836365 
L 96.002682 86.836365 
L 96.138494 87.321215 
L 96.274306 87.321215 
L 96.410118 87.806058 
L 96.681741 87.806058 
L 96.817553 88.290907 
L 96.953365 88.290907 
L 97.089176 88.775756 
L 97.224988 88.775756 
L 97.3608 89.260606 
L 97.496612 89.260606 
L 97.632424 89.745455 
L 97.768235 89.745455 
L 97.904047 90.230305 
L 98.039859 90.230305 
L 98.175671 90.715151 
L 98.311482 90.715151 
L 98.583106 91.68485 
L 98.718918 91.68485 
L 98.854729 92.169696 
L 98.990541 92.169696 
L 99.262165 93.139395 
L 99.397976 93.139395 
L 99.6696 94.10909 
L 99.805412 94.10909 
L 100.212847 95.563635 
L 100.348659 95.563635 
L 100.756094 97.01818 
L 100.891906 97.01818 
L 101.706776 99.927273 
L 101.842588 99.927273 
L 102.657459 102.836363 
L 102.929082 104.290908 
L 103.608141 106.715152 
L 103.879765 108.169697 
L 104.015576 108.654543 
L 104.423012 111.07879 
L 104.694635 112.048485 
L 106.596 126.10909 
L 107.275059 134.351516 
L 107.546682 140.169697 
L 107.682494 147.927273 
L 142.586118 147.927273 
L 142.586118 147.927273 
" clip-path="url(#p7985e3a79b)" style="fill: none; stroke: #000000; stroke-linecap: square"/>
   </g>
   <g id="line2d_10">
    <path d="M 35.973882 147.927273 
L 46.431388 147.819506 
L 49.962494 147.492437 
L 53.221976 146.962637 
L 55.666588 146.33957 
L 57.839576 145.576372 
L 59.605129 144.726289 
L 61.370682 143.620108 
L 62.864612 142.428331 
L 64.222729 141.047406 
L 65.580847 139.331963 
L 66.803153 137.453145 
L 67.889647 135.368048 
L 68.840329 133.034867 
L 69.791012 130.080886 
L 70.877506 125.92623 
L 72.643059 118.085842 
L 74.680235 109.326543 
L 76.309976 103.356278 
L 77.939718 98.2099 
L 79.433647 94.157754 
L 80.791765 91.059073 
L 82.149882 88.477605 
L 83.508 86.361348 
L 84.730306 84.857789 
L 85.8168 83.840035 
L 86.903294 83.107185 
L 87.989788 82.648906 
L 88.940471 82.47953 
L 89.891153 82.533123 
L 90.841835 82.805742 
L 91.792518 83.291664 
L 92.879012 84.107054 
L 93.965506 85.210771 
L 95.187812 86.813128 
L 96.410118 88.794061 
L 97.768235 91.439288 
L 99.126353 94.61368 
L 100.620282 98.744825 
L 102.250024 103.975624 
L 103.743953 109.505972 
L 105.373694 116.448316 
L 108.089929 128.272141 
L 109.176424 131.987564 
L 110.127106 134.545113 
L 111.2136 136.812492 
L 112.435906 138.813472 
L 113.794024 140.623549 
L 115.152141 142.091078 
L 116.646071 143.356862 
L 118.275812 144.441336 
L 120.041365 145.361096 
L 121.942729 146.096402 
L 124.387341 146.790632 
L 126.967765 147.288327 
L 130.363059 147.703243 
L 134.029976 147.914318 
L 138.511765 147.927273 
L 142.586118 147.927273 
L 142.586118 147.927273 
" clip-path="url(#p7985e3a79b)" style="fill: none; stroke: #0000ff; stroke-linecap: square"/>
   </g>
   <g id="line2d_11">
    <path d="M 35.973882 147.927273 
L 46.431388 147.8199 
L 49.826682 147.508016 
L 53.221976 146.956761 
L 55.666588 146.347468 
L 57.839576 145.564421 
L 59.876753 144.594998 
L 61.370682 143.655663 
L 62.864612 142.435974 
L 64.358541 140.903733 
L 65.716659 139.189947 
L 66.803153 137.480434 
L 67.753835 135.601161 
L 68.704518 133.240342 
L 69.791012 129.858375 
L 71.013318 125.222798 
L 73.050494 116.379061 
L 75.087671 107.844968 
L 76.5816 102.463005 
L 78.211341 97.448752 
L 79.705271 93.519713 
L 81.063388 90.499138 
L 82.421506 87.999166 
L 83.643812 86.17485 
L 84.866118 84.730635 
L 86.088424 83.643127 
L 87.174918 82.970343 
L 88.1256 82.612359 
L 89.076282 82.473937 
L 90.026965 82.558607 
L 90.977647 82.865684 
L 91.928329 83.388091 
L 93.014824 84.245216 
L 94.101318 85.380031 
L 95.323624 87.003618 
L 96.545929 89.019586 
L 97.768235 91.446132 
L 99.126353 94.64587 
L 100.620282 98.761254 
L 102.114212 103.537926 
L 103.608141 109.090725 
L 105.373694 116.578975 
L 107.954118 127.552805 
L 109.176424 131.782975 
L 110.262918 134.764165 
L 111.349412 137.070583 
L 112.435906 138.864104 
L 113.794024 140.642226 
L 115.287953 142.224233 
L 116.781882 143.490226 
L 118.275812 144.467992 
L 120.041365 145.351442 
L 122.214353 146.18886 
L 124.387341 146.792061 
L 127.239388 147.322225 
L 130.498871 147.715585 
L 134.165788 147.917883 
L 139.055012 147.927273 
L 142.586118 147.927273 
L 142.586118 147.927273 
" clip-path="url(#p7985e3a79b)" style="fill: none; stroke: #008000; stroke-linecap: square"/>
   </g>
   <g id="line2d_12">
    <path d="M 35.973882 147.927273 
L 46.159765 147.820958 
L 50.234118 147.43369 
L 52.950353 146.974416 
L 55.666588 146.286051 
L 57.975388 145.490006 
L 59.605129 144.711383 
L 61.234871 143.676219 
L 62.864612 142.365957 
L 64.358541 140.886334 
L 65.580847 139.369636 
L 66.667341 137.648676 
L 67.618024 135.738972 
L 68.568706 133.366175 
L 69.6552 130.0378 
L 70.877506 125.559978 
L 72.778871 117.59328 
L 75.359294 106.865176 
L 76.853224 101.534123 
L 78.347153 96.997234 
L 79.841082 93.162182 
L 81.335012 89.96029 
L 82.693129 87.545318 
L 83.915435 85.775049 
L 85.137741 84.39369 
L 86.224235 83.488283 
L 87.310729 82.876719 
L 88.261412 82.570982 
L 89.212094 82.472727 
L 90.162776 82.581165 
L 91.113459 82.896734 
L 92.064141 83.426905 
L 93.150635 84.307247 
L 94.237129 85.49 
L 95.459435 87.187795 
L 96.681741 89.270954 
L 98.039859 92.026189 
L 99.397976 95.290755 
L 100.756094 99.101992 
L 102.114212 103.538397 
L 103.608141 109.176976 
L 105.916941 118.962656 
L 107.954118 127.298913 
L 109.312235 131.922464 
L 110.398729 134.892904 
L 111.485224 137.232009 
L 112.571718 139.045191 
L 113.794024 140.630981 
L 115.152141 142.035185 
L 116.781882 143.40901 
L 118.411624 144.504835 
L 120.041365 145.336416 
L 121.942729 146.048854 
L 124.523153 146.7693 
L 127.239388 147.305611 
L 130.363059 147.673258 
L 134.3016 147.92078 
L 139.598259 147.927273 
L 142.586118 147.927273 
L 142.586118 147.927273 
" clip-path="url(#p7985e3a79b)" style="fill: none; stroke: #ffa500; stroke-linecap: square"/>
   </g>
   <g id="line2d_13">
    <path d="M 35.973882 147.927273 
L 46.5672 147.818619 
L 49.690871 147.508347 
L 52.950353 146.953304 
L 55.8024 146.260807 
L 57.703765 145.576877 
L 59.469318 144.707801 
L 61.370682 143.509758 
L 63.000424 142.238667 
L 64.358541 140.903647 
L 65.445035 139.536553 
L 66.531529 137.782262 
L 67.618024 135.53074 
L 68.704518 132.705549 
L 69.926824 128.824373 
L 71.420753 123.214919 
L 77.124847 100.693499 
L 78.618776 96.213326 
L 79.976894 92.797149 
L 81.335012 89.944851 
L 82.693129 87.570823 
L 83.915435 85.819923 
L 85.137741 84.436098 
L 86.224235 83.516516 
L 87.310729 82.889664 
L 88.261412 82.57382 
L 89.212094 82.472727 
L 90.162776 82.584408 
L 91.113459 82.909597 
L 92.064141 83.453227 
L 93.150635 84.348026 
L 94.237129 85.535843 
L 95.459435 87.218542 
L 96.817553 89.518226 
L 98.175671 92.284327 
L 99.533788 95.602504 
L 100.891906 99.534776 
L 102.385835 104.616451 
L 104.151388 111.527265 
L 108.361553 128.508837 
L 109.719671 132.835106 
L 110.806165 135.635557 
L 111.892659 137.864531 
L 112.979153 139.600449 
L 114.201459 141.102005 
L 115.559576 142.394362 
L 117.189318 143.6357 
L 119.090682 144.807841 
L 120.856235 145.652696 
L 122.7576 146.314381 
L 125.202212 146.907152 
L 128.597506 147.495872 
L 131.721176 147.812725 
L 135.116471 147.927273 
L 142.586118 147.927273 
L 142.586118 147.927273 
" clip-path="url(#p7985e3a79b)" style="fill: none; stroke: #ff0000; stroke-linecap: square"/>
   </g>
   <g id="line2d_14"/>
   <g id="line2d_15"/>
   <g id="line2d_16"/>
   <g id="line2d_17"/>
   <g id="line2d_18"/>
   <g id="line2d_19">
    <path d="M 107.7504 147.927273 
L 107.7504 82.472727 
" clip-path="url(#p7985e3a79b)" style="fill: none; stroke-dasharray: 1,1.65; stroke-dashoffset: 0; stroke: #000000"/>
   </g>
   <g id="patch_4">
    <path d="M 36 151.2 
L 36 79.2 
" style="fill: none; stroke: #000000; stroke-width: 0.5; stroke-linejoin: miter; stroke-linecap: square"/>
   </g>
   <g id="patch_5">
    <path d="M 36 151.2 
L 142.56 151.2 
" style="fill: none; stroke: #000000; stroke-width: 0.5; stroke-linejoin: miter; stroke-linecap: square"/>
   </g>
   <g id="legend_1">
    <g id="patch_6">
     <path d="M 28.344 49.92 
L 136.169625 49.92 
L 136.169625 21.68625 
L 28.344 21.68625 
z
" style="fill: #ffffff; opacity: 0.8; stroke: #cccccc; stroke-linejoin: miter"/>
    </g>
    <g id="text_11">
     <!-- Wavelength ($\mu m$) -->
     <g transform="translate(56.126812 28.64625)">
      <text>
       <tspan style="font: 6px 'DejaVu Sans'" x="0 5.932617 9.609375 13.160156 16.851562 18.518555 22.209961 26.012695 29.821289 32.173828 35.976562 37.883789 49.886719" y="-0.4375">Wavelength ()</tspan>
       <tspan style="font: oblique 6px 'DejaVu Sans'" x="40.224609 44.041992" y="-0.4375">μm</tspan>
      </text>
     </g>
    </g>
    <g id="line2d_20">
     <path d="M 30.744 35.365313 
L 36.744 35.365313 
L 42.744 35.365313 
" style="fill: none; stroke: #000000; stroke-linecap: square"/>
    </g>
    <g id="text_12">
     <text style="font: 6px 'DejaVu Sans', 'Arial', 'Helvetica', 'Lucida Grande', 'Verdana', 'Geneva', 'Lucid', 'Avant Garde', sans-serif; text-anchor: start" x="47.544" y="37.465313" transform="rotate(-0 47.544 37.465313)">0.0</text>
    </g>
    <g id="line2d_21">
     <path d="M 30.744 44.172187 
L 36.744 44.172187 
L 42.744 44.172187 
" style="fill: none; stroke: #0000ff; stroke-linecap: square"/>
    </g>
    <g id="text_13">
     <text style="font: 6px 'DejaVu Sans', 'Arial', 'Helvetica', 'Lucida Grande', 'Verdana', 'Geneva', 'Lucid', 'Avant Garde', sans-serif; text-anchor: start" x="47.544" y="46.272188" transform="rotate(-0 47.544 46.272188)">0.4</text>
    </g>
    <g id="line2d_22">
     <path d="M 69.085875 35.365313 
L 75.085875 35.365313 
L 81.085875 35.365313 
" style="fill: none; stroke: #008000; stroke-linecap: square"/>
    </g>
    <g id="text_14">
     <text style="font: 6px 'DejaVu Sans', 'Arial', 'Helvetica', 'Lucida Grande', 'Verdana', 'Geneva', 'Lucid', 'Avant Garde', sans-serif; text-anchor: start" x="85.885875" y="37.465313" transform="rotate(-0 85.885875 37.465313)">0.5</text>
    </g>
    <g id="line2d_23">
     <path d="M 69.085875 44.172187 
L 75.085875 44.172187 
L 81.085875 44.172187 
" style="fill: none; stroke: #ffa500; stroke-linecap: square"/>
    </g>
    <g id="text_15">
     <text style="font: 6px 'DejaVu Sans', 'Arial', 'Helvetica', 'Lucida Grande', 'Verdana', 'Geneva', 'Lucid', 'Avant Garde', sans-serif; text-anchor: start" x="85.885875" y="46.272188" transform="rotate(-0 85.885875 46.272188)">0.6</text>
    </g>
    <g id="line2d_24">
     <path d="M 107.42775 35.365313 
L 113.42775 35.365313 
L 119.42775 35.365313 
" style="fill: none; stroke: #ff0000; stroke-linecap: square"/>
    </g>
    <g id="text_16">
     <text style="font: 6px 'DejaVu Sans', 'Arial', 'Helvetica', 'Lucida Grande', 'Verdana', 'Geneva', 'Lucid', 'Avant Garde', sans-serif; text-anchor: start" x="124.22775" y="37.465313" transform="rotate(-0 124.22775 37.465313)">0.7</text>
    </g>
   </g>
  </g>
  <g id="axes_2">
   <g id="patch_7">
    <path d="M 36 72 
L 131.904 72 
L 131.904 54 
L 36 54 
L 36 72 
z
" style="fill: none"/>
   </g>
   <g id="patch_8">
    <path d="M 36 72 
L 105.264 147.927273 
" style="fill: none; stroke: #808080; stroke-linejoin: miter"/>
   </g>
   <g id="patch_9">
    <path d="M 131.904 72 
L 108.816 147.927273 
" style="fill: none; stroke: #808080; stroke-linejoin: miter"/>
   </g>
   <g id="PolyCollection_6"/>
   <g id="PolyCollection_7"/>
   <g id="PolyCollection_8"/>
   <g id="PolyCollection_9"/>
   <g id="PolyCollection_10"/>
   <g id="matplotlib.axis_3">
    <g id="xtick_4">
     <g id="line2d_25">
      <g>
       <use xlink:href="#m0ef20f6086" x="36" y="72" style="stroke: #000000; stroke-width: 0.8"/>
      </g>
     </g>
    </g>
    <g id="xtick_5">
     <g id="line2d_26">
      <g>
       <use xlink:href="#m0ef20f6086" x="59.976" y="72" style="stroke: #000000; stroke-width: 0.8"/>
      </g>
     </g>
    </g>
    <g id="xtick_6">
     <g id="line2d_27">
      <g>
       <use xlink:href="#m0ef20f6086" x="83.952" y="72" style="stroke: #000000; stroke-width: 0.8"/>
      </g>
     </g>
    </g>
    <g id="xtick_7">
     <g id="line2d_28">
      <g>
       <use xlink:href="#m0ef20f6086" x="107.928" y="72" style="stroke: #000000; stroke-width: 0.8"/>
      </g>
     </g>
    </g>
    <g id="xtick_8">
     <g id="line2d_29">
      <g>
       <use xlink:href="#m0ef20f6086" x="131.904" y="72" style="stroke: #000000; stroke-width: 0.8"/>
      </g>
     </g>
    </g>
   </g>
   <g id="matplotlib.axis_4">
    <g id="ytick_6">
     <g id="line2d_30">
      <g>
       <use xlink:href="#mbdcdf3e71e" x="36" y="72" style="stroke: #000000; stroke-width: 0.8"/>
      </g>
     </g>
    </g>
    <g id="ytick_7">
     <g id="line2d_31">
      <g>
       <use xlink:href="#mbdcdf3e71e" x="36" y="57" style="stroke: #000000; stroke-width: 0.8"/>
      </g>
     </g>
    </g>
   </g>
   <g id="line2d_32">
    <path d="M 35.294824 57.111111 
L 38.961741 57.555555 
L 42.628659 58 
L 46.295576 58.444444 
L 49.962494 58.888889 
L 53.629412 59.333333 
L 57.296329 59.777778 
L 60.963247 60.222222 
L 64.630165 60.666666 
L 68.297082 61.333333 
L 71.964 62 
L 75.630918 62.666666 
L 79.297835 63.333333 
L 82.964753 64 
L 86.631671 64.888889 
L 90.298588 65.777778 
L 93.965506 66.888889 
L 97.632424 68.444444 
L 101.299341 72 
L 104.966259 72 
L 108.633176 72 
L 112.300094 72 
L 115.967012 72 
L 119.633929 72 
L 123.300847 72 
L 126.967765 72 
L 130.634682 72 
L 134.3016 72 
" clip-path="url(#p98d0d5cfaf)" style="fill: none; stroke: #000000; stroke-linecap: square"/>
   </g>
   <g id="line2d_33">
    <path d="M 35.294824 57.293261 
L 38.961741 57.572145 
L 42.628659 57.852686 
L 46.295576 58.134345 
L 49.962494 58.416999 
L 53.629412 58.700381 
L 57.296329 58.983905 
L 60.963247 59.26714 
L 64.630165 59.549961 
L 68.297082 59.831796 
L 71.964 60.112277 
L 75.630918 60.3909 
L 79.297835 60.667256 
L 82.964753 60.941186 
L 86.631671 61.211951 
L 90.298588 61.479272 
L 93.965506 61.74281 
L 97.632424 62.002089 
L 101.299341 62.25688 
L 104.966259 62.506965 
L 108.633176 62.751847 
L 112.300094 62.991398 
L 115.967012 63.225338 
L 119.633929 63.453453 
L 123.300847 63.675666 
L 126.967765 63.891724 
L 130.634682 64.101743 
L 134.3016 64.305474 
" clip-path="url(#p98d0d5cfaf)" style="fill: none; stroke: #0000ff; stroke-linecap: square"/>
   </g>
   <g id="line2d_34">
    <path d="M 35.294824 57.357487 
L 38.961741 57.63203 
L 42.628659 57.907205 
L 46.295576 58.183053 
L 49.962494 58.459027 
L 53.629412 58.734883 
L 57.296329 59.010423 
L 60.963247 59.285225 
L 64.630165 59.55906 
L 68.297082 59.831581 
L 71.964 60.102504 
L 75.630918 60.371594 
L 79.297835 60.638473 
L 82.964753 60.902877 
L 86.631671 61.164518 
L 90.298588 61.423156 
L 93.965506 61.678451 
L 97.632424 61.930152 
L 101.299341 62.178155 
L 104.966259 62.422053 
L 108.633176 62.661702 
L 112.300094 62.896881 
L 115.967012 63.127391 
L 119.633929 63.353194 
L 123.300847 63.574006 
L 126.967765 63.789796 
L 130.634682 64.000432 
L 134.3016 64.205809 
" clip-path="url(#p98d0d5cfaf)" style="fill: none; stroke: #008000; stroke-linecap: square"/>
   </g>
   <g id="line2d_35">
    <path d="M 35.294824 57.378868 
L 38.961741 57.648045 
L 42.628659 57.9174 
L 46.295576 58.18676 
L 49.962494 58.455862 
L 53.629412 58.724551 
L 57.296329 58.992551 
L 60.963247 59.25966 
L 64.630165 59.525624 
L 68.297082 59.790136 
L 71.964 60.053103 
L 75.630918 60.314283 
L 79.297835 60.573315 
L 82.964753 60.830056 
L 86.631671 61.084161 
L 90.298588 61.335696 
L 93.965506 61.584258 
L 97.632424 61.829747 
L 101.299341 62.071793 
L 104.966259 62.310424 
L 108.633176 62.545335 
L 112.300094 62.776537 
L 115.967012 63.003692 
L 119.633929 63.226756 
L 123.300847 63.445582 
L 126.967765 63.660166 
L 130.634682 63.870213 
L 134.3016 64.075773 
" clip-path="url(#p98d0d5cfaf)" style="fill: none; stroke: #ffa500; stroke-linecap: square"/>
   </g>
   <g id="line2d_36">
    <path d="M 35.294824 57.400684 
L 38.961741 57.663516 
L 42.628659 57.9261 
L 46.295576 58.18836 
L 49.962494 58.450299 
L 53.629412 58.71156 
L 57.296329 58.972051 
L 60.963247 59.231434 
L 64.630165 59.489683 
L 68.297082 59.746503 
L 71.964 60.001814 
L 75.630918 60.255396 
L 79.297835 60.506997 
L 82.964753 60.756437 
L 86.631671 61.00363 
L 90.298588 61.248341 
L 93.965506 61.49048 
L 97.632424 61.729807 
L 101.299341 61.966226 
L 104.966259 62.199632 
L 108.633176 62.429804 
L 112.300094 62.656619 
L 115.967012 62.880059 
L 119.633929 63.099884 
L 123.300847 63.316084 
L 126.967765 63.528486 
L 130.634682 63.737045 
L 134.3016 63.941622 
" clip-path="url(#p98d0d5cfaf)" style="fill: none; stroke: #ff0000; stroke-linecap: square"/>
   </g>
   <g id="line2d_37">
    <path d="M 103.1328 72 
L 103.1328 42 
" clip-path="url(#p98d0d5cfaf)" style="fill: none; stroke-dasharray: 1,1.65; stroke-dashoffset: 0; stroke: #000000"/>
   </g>
   <g id="patch_10">
    <path d="M 36 72 
L 36 54 
" style="fill: none; stroke: #000000; stroke-width: 0.5; stroke-linejoin: miter; stroke-linecap: square"/>
   </g>
   <g id="patch_11">
    <path d="M 36 72 
L 131.904 72 
" style="fill: none; stroke: #000000; stroke-width: 0.5; stroke-linejoin: miter; stroke-linecap: square"/>
   </g>
  </g>
  <g id="text_17">
   <text style="font: 6px 'DejaVu Sans', 'Arial', 'Helvetica', 'Lucida Grande', 'Verdana', 'Geneva', 'Lucid', 'Avant Garde', sans-serif; text-anchor: middle" x="72" y="8.159063" transform="rotate(-0 72 8.159063)">Cytoplasm stained cell profile</text>
  </g>
 </g>
 <defs>
  <clipPath id="p7985e3a79b">
   <rect x="36" y="79.2" width="106.56" height="72"/>
  </clipPath>
  <clipPath id="p98d0d5cfaf">
   <rect x="36" y="54" width="95.904" height="18"/>
  </clipPath>
 </defs>
</svg>
