<?xml version="1.0" encoding="utf-8" standalone="no"?>
<!DOCTYPE svg PUBLIC "-//W3C//DTD SVG 1.1//EN"
  "http://www.w3.org/Graphics/SVG/1.1/DTD/svg11.dtd">
<svg xmlns:xlink="http://www.w3.org/1999/xlink" width="194.4pt" height="144pt" viewBox="0 0 194.4 144" xmlns="http://www.w3.org/2000/svg" version="1.1">
 <metadata>
  <rdf:RDF xmlns:dc="http://purl.org/dc/elements/1.1/" xmlns:cc="http://creativecommons.org/ns#" xmlns:rdf="http://www.w3.org/1999/02/22-rdf-syntax-ns#">
   <cc:Work>
    <dc:type rdf:resource="http://purl.org/dc/dcmitype/StillImage"/>
    <dc:date>2023-12-02T23:27:21.576093</dc:date>
    <dc:format>image/svg+xml</dc:format>
    <dc:creator>
     <cc:Agent>
      <dc:title>Matplotlib v3.8.2, https://matplotlib.org/</dc:title>
     </cc:Agent>
    </dc:creator>
   </cc:Work>
  </rdf:RDF>
 </metadata>
 <defs>
  <style type="text/css">*{stroke-linejoin: round; stroke-linecap: butt}</style>
 </defs>
 <g id="figure_1">
  <g id="patch_1">
   <path d="M 0 144 
L 194.4 144 
L 194.4 0 
L 0 0 
L 0 144 
z
" style="fill: none"/>
  </g>
  <g id="axes_1">
   <g id="patch_2">
    <path d="M 29.16 112.32 
L 77.188235 112.32 
L 77.188235 28.8 
L 29.16 28.8 
L 29.16 112.32 
z
" style="fill: none"/>
   </g>
   <g id="patch_3">
    <path d="M 31.343102 112.32 
L 40.075508 112.32 
L 40.075508 95.7204 
L 31.343102 95.7204 
z
" clip-path="url(#p86a5a10ac2)" style="fill: #2ca02c; fill-opacity: 0.75; stroke: #000000; stroke-width: 0.805668; stroke-linejoin: miter"/>
   </g>
   <g id="patch_4">
    <path d="M 48.807914 112.32 
L 57.540321 112.32 
L 57.540321 103.5504 
L 48.807914 103.5504 
z
" clip-path="url(#p86a5a10ac2)" style="fill: #2ca02c; fill-opacity: 0.75; stroke: #000000; stroke-width: 0.805668; stroke-linejoin: miter"/>
   </g>
   <g id="patch_5">
    <path d="M 66.272727 112.32 
L 75.005134 112.32 
L 75.005134 88.3602 
L 66.272727 88.3602 
z
" clip-path="url(#p86a5a10ac2)" style="fill: #2ca02c; fill-opacity: 0.75; stroke: #000000; stroke-width: 0.805668; stroke-linejoin: miter"/>
   </g>
   <g id="patch_6">
    <path d="M 31.343102 95.7204 
L 40.075508 95.7204 
L 40.075508 86.6898 
L 31.343102 86.6898 
z
" clip-path="url(#p86a5a10ac2)" style="fill: #ff7f0e; fill-opacity: 0.75; stroke: #000000; stroke-width: 0.805668; stroke-linejoin: miter"/>
   </g>
   <g id="patch_7">
    <path d="M 48.807914 103.5504 
L 57.540321 103.5504 
L 57.540321 86.3244 
L 48.807914 86.3244 
z
" clip-path="url(#p86a5a10ac2)" style="fill: #ff7f0e; fill-opacity: 0.75; stroke: #000000; stroke-width: 0.805668; stroke-linejoin: miter"/>
   </g>
   <g id="patch_8">
    <path d="M 66.272727 88.3602 
L 75.005134 88.3602 
L 75.005134 86.6898 
L 66.272727 86.6898 
z
" clip-path="url(#p86a5a10ac2)" style="fill: #ff7f0e; fill-opacity: 0.75; stroke: #000000; stroke-width: 0.805668; stroke-linejoin: miter"/>
   </g>
   <g id="patch_9">
    <path d="M 31.343102 86.6898 
L 40.075508 86.6898 
L 40.075508 86.22 
L 31.343102 86.22 
z
" clip-path="url(#p86a5a10ac2)" style="fill: #1f77b4; fill-opacity: 0.75; stroke: #000000; stroke-width: 0.805668; stroke-linejoin: miter"/>
   </g>
   <g id="patch_10">
    <path d="M 48.807914 86.3244 
L 57.540321 86.3244 
L 57.540321 86.22 
L 48.807914 86.22 
z
" clip-path="url(#p86a5a10ac2)" style="fill: #1f77b4; fill-opacity: 0.75; stroke: #000000; stroke-width: 0.805668; stroke-linejoin: miter"/>
   </g>
   <g id="patch_11">
    <path d="M 66.272727 86.6898 
L 75.005134 86.6898 
L 75.005134 86.22 
L 66.272727 86.22 
z
" clip-path="url(#p86a5a10ac2)" style="fill: #1f77b4; fill-opacity: 0.75; stroke: #000000; stroke-width: 0.805668; stroke-linejoin: miter"/>
   </g>
   <g id="matplotlib.axis_1">
    <g id="xtick_1">
     <g id="line2d_1">
      <defs>
       <path id="m09d4152c6d" d="M 0 0 
L 0 3.5 
" style="stroke: #000000; stroke-width: 0.8"/>
      </defs>
      <g>
       <use xlink:href="#m09d4152c6d" x="35.709305" y="112.32" style="stroke: #000000; stroke-width: 0.8"/>
      </g>
     </g>
     <g id="text_1">
      <!-- 1 $\mu$m -->
      <g transform="translate(28.485463 123.578992) scale(0.06 -0.06)">
       <defs>
        <path id="NimbusSanL-Regu-31" d="M 1658 3238 
L 1658 0 
L 2221 0 
L 2221 4545 
L 1850 4545 
C 1651 3847 1523 3751 653 3642 
L 653 3238 
L 1658 3238 
z
" transform="scale(0.015625)"/>
        <path id="CMMI12-16" d="M 922 140 
C 1082 -6 1318 -64 1536 -64 
C 1946 -64 2227 208 2374 405 
C 2438 69 2707 -64 2931 -64 
C 3123 -64 3277 50 3392 277 
C 3494 493 3584 879 3584 903 
C 3584 935 3558 960 3520 960 
C 3462 960 3456 928 3430 834 
C 3334 461 3213 64 2950 64 
C 2765 64 2752 229 2752 358 
C 2752 504 2810 735 2854 926 
L 3034 1615 
C 3059 1737 3130 2023 3162 2139 
C 3200 2292 3270 2567 3270 2592 
C 3270 2688 3194 2752 3098 2752 
C 3040 2752 2906 2726 2854 2535 
L 2406 760 
C 2374 632 2374 619 2291 517 
C 2214 409 1965 64 1562 64 
C 1203 64 1088 326 1088 625 
C 1088 811 1146 1034 1171 1143 
L 1459 2293 
C 1491 2414 1542 2618 1542 2657 
C 1542 2759 1459 2816 1376 2816 
C 1318 2816 1178 2797 1126 2592 
L 198 -1107 
C 192 -1139 179 -1177 179 -1216 
C 179 -1312 256 -1376 352 -1376 
C 538 -1376 576 -1228 621 -1050 
L 922 140 
z
" transform="scale(0.015625)"/>
        <path id="NimbusSanL-Regu-6d" d="M 448 3359 
L 448 0 
L 986 0 
L 986 2109 
C 986 2597 1338 2988 1773 2988 
C 2170 2988 2394 2744 2394 2314 
L 2394 0 
L 2931 0 
L 2931 2109 
C 2931 2597 3283 2988 3718 2988 
C 4109 2988 4339 2738 4339 2314 
L 4339 0 
L 4877 0 
L 4877 2520 
C 4877 3122 4531 3456 3904 3456 
C 3456 3456 3187 3321 2874 2943 
C 2675 3302 2406 3456 1971 3456 
C 1523 3456 1229 3289 941 2885 
L 941 3359 
L 448 3359 
z
" transform="scale(0.015625)"/>
       </defs>
       <use xlink:href="#NimbusSanL-Regu-31" transform="scale(0.996264)"/>
       <use xlink:href="#CMMI12-16" transform="translate(83.086847 0) scale(0.996264)"/>
       <use xlink:href="#NimbusSanL-Regu-6d" transform="translate(141.778268 0) scale(0.996264)"/>
      </g>
      <!-- diam -->
      <g transform="translate(29.232669 129.962962) scale(0.06 -0.06)">
       <defs>
        <path id="NimbusSanL-Regu-64" d="M 3168 4672 
L 2637 4672 
L 2637 2937 
C 2413 3276 2054 3456 1606 3456 
C 736 3456 166 2761 166 1695 
C 166 566 723 -128 1626 -128 
C 2086 -128 2406 45 2694 461 
L 2694 -2 
L 3168 -2 
L 3168 4672 
z
M 1696 2956 
C 2272 2956 2637 2447 2637 1651 
C 2637 881 2266 372 1702 372 
C 1114 372 723 887 723 1664 
C 723 2440 1114 2956 1696 2956 
z
" transform="scale(0.015625)"/>
        <path id="NimbusSanL-Regu-69" d="M 960 3359 
L 429 3359 
L 429 0 
L 960 0 
L 960 3359 
z
M 960 4672 
L 422 4672 
L 422 3999 
L 960 3999 
L 960 4672 
z
" transform="scale(0.015625)"/>
        <path id="NimbusSanL-Regu-61" d="M 3424 333 
C 3366 320 3341 320 3309 320 
C 3123 320 3021 415 3021 581 
L 3021 2545 
C 3021 3137 2586 3456 1760 3456 
C 1274 3456 870 3316 646 3066 
C 493 2893 429 2702 416 2370 
L 954 2370 
C 998 2777 1242 2962 1741 2962 
C 2221 2962 2490 2783 2490 2465 
L 2490 2325 
C 2490 2101 2355 2006 1933 1955 
C 1178 1860 1062 1834 858 1751 
C 467 1592 269 1292 269 859 
C 269 254 691 -128 1370 -128 
C 1792 -128 2131 19 2509 365 
C 2547 25 2714 -128 3059 -128 
C 3168 -128 3251 -116 3424 -70 
L 3424 333 
z
M 2490 1072 
C 2490 893 2438 785 2278 639 
C 2061 441 1798 340 1485 340 
C 1069 340 826 537 826 874 
C 826 1225 1062 1403 1632 1486 
C 2195 1562 2310 1588 2490 1670 
L 2490 1072 
z
" transform="scale(0.015625)"/>
       </defs>
       <use xlink:href="#NimbusSanL-Regu-64" transform="scale(0.996264)"/>
       <use xlink:href="#NimbusSanL-Regu-69" transform="translate(55.391677 0) scale(0.996264)"/>
       <use xlink:href="#NimbusSanL-Regu-61" transform="translate(77.508461 0) scale(0.996264)"/>
       <use xlink:href="#NimbusSanL-Regu-6d" transform="translate(132.900138 0) scale(0.996264)"/>
      </g>
     </g>
    </g>
    <g id="xtick_2">
     <g id="line2d_2">
      <g>
       <use xlink:href="#m09d4152c6d" x="53.174118" y="112.32" style="stroke: #000000; stroke-width: 0.8"/>
      </g>
     </g>
     <g id="text_2">
      <!-- 2 $\mu$m -->
      <g transform="translate(45.950276 123.578992) scale(0.06 -0.06)">
       <defs>
        <path id="NimbusSanL-Regu-32" d="M 3238 558 
L 851 558 
C 909 930 1114 1167 1670 1494 
L 2310 1840 
C 2944 2186 3270 2653 3270 3211 
C 3270 3589 3117 3942 2848 4185 
C 2579 4429 2246 4544 1818 4544 
C 1242 4544 813 4339 563 3955 
C 403 3711 333 3429 320 2967 
L 883 2967 
C 902 3275 941 3461 1018 3608 
C 1165 3884 1459 4051 1798 4051 
C 2310 4051 2694 3685 2694 3198 
C 2694 2839 2483 2531 2080 2301 
L 1491 1968 
C 544 1430 269 1000 218 0 
L 3238 0 
L 3238 558 
z
" transform="scale(0.015625)"/>
       </defs>
       <use xlink:href="#NimbusSanL-Regu-32" transform="scale(0.996264)"/>
       <use xlink:href="#CMMI12-16" transform="translate(83.086847 0) scale(0.996264)"/>
       <use xlink:href="#NimbusSanL-Regu-6d" transform="translate(141.778268 0) scale(0.996264)"/>
      </g>
      <!-- diam -->
      <g transform="translate(46.697482 129.962962) scale(0.06 -0.06)">
       <use xlink:href="#NimbusSanL-Regu-64" transform="scale(0.996264)"/>
       <use xlink:href="#NimbusSanL-Regu-69" transform="translate(55.391677 0) scale(0.996264)"/>
       <use xlink:href="#NimbusSanL-Regu-61" transform="translate(77.508461 0) scale(0.996264)"/>
       <use xlink:href="#NimbusSanL-Regu-6d" transform="translate(132.900138 0) scale(0.996264)"/>
      </g>
     </g>
    </g>
    <g id="xtick_3">
     <g id="line2d_3">
      <g>
       <use xlink:href="#m09d4152c6d" x="70.63893" y="112.32" style="stroke: #000000; stroke-width: 0.8"/>
      </g>
     </g>
     <g id="text_3">
      <!-- MACS -->
      <g transform="translate(62.094031 123.578992) scale(0.06 -0.06)">
       <defs>
        <path id="NimbusSanL-Regu-4d" d="M 2995 -2 
L 4307 3915 
L 4307 -2 
L 4870 -2 
L 4870 4672 
L 4045 4672 
L 2688 601 
L 1306 4672 
L 480 4672 
L 480 -2 
L 1043 -2 
L 1043 3915 
L 2368 -2 
L 2995 -2 
z
" transform="scale(0.015625)"/>
        <path id="NimbusSanL-Regu-41" d="M 3034 1408 
L 3514 0 
L 4179 0 
L 2541 4672 
L 1773 4672 
L 109 0 
L 742 0 
L 1235 1408 
L 3034 1408 
z
M 2867 1908 
L 1382 1908 
L 2150 4032 
L 2867 1908 
z
" transform="scale(0.015625)"/>
        <path id="NimbusSanL-Regu-43" d="M 4237 3229 
C 4051 4252 3462 4750 2438 4750 
C 1811 4750 1306 4552 960 4168 
C 538 3709 307 3045 307 2291 
C 307 1525 544 868 986 414 
C 1344 44 1805 -128 2413 -128 
C 3552 -128 4192 485 4333 1717 
L 3718 1717 
C 3667 1399 3603 1182 3507 997 
C 3315 614 2918 397 2419 397 
C 1491 397 902 1137 902 2298 
C 902 3491 1466 4224 2368 4224 
C 2746 4224 3098 4110 3290 3930 
C 3462 3771 3558 3573 3629 3229 
L 4237 3229 
z
" transform="scale(0.015625)"/>
        <path id="NimbusSanL-Regu-53" d="M 3814 3335 
C 3808 4255 3181 4788 2106 4788 
C 1082 4788 448 4260 448 3410 
C 448 2837 749 2477 1363 2316 
L 2522 2007 
C 3110 1852 3379 1614 3379 1247 
C 3379 995 3245 738 3046 597 
C 2861 468 2566 397 2189 397 
C 1683 397 1338 520 1114 790 
C 941 996 864 1222 870 1511 
L 307 1511 
C 314 1081 397 798 582 540 
C 902 103 1440 -128 2150 -128 
C 2707 -128 3162 1 3462 232 
C 3776 483 3974 901 3974 1307 
C 3974 1886 3616 2311 2982 2485 
L 1811 2801 
C 1248 2955 1043 3135 1043 3496 
C 1043 3972 1459 4288 2086 4288 
C 2829 4288 3245 3947 3251 3335 
L 3814 3335 
z
" transform="scale(0.015625)"/>
       </defs>
       <use xlink:href="#NimbusSanL-Regu-4d" transform="scale(0.996264)"/>
       <use xlink:href="#NimbusSanL-Regu-41" transform="translate(82.98843 0) scale(0.996264)"/>
       <use xlink:href="#NimbusSanL-Regu-43" transform="translate(146.450353 0) scale(0.996264)"/>
       <use xlink:href="#NimbusSanL-Regu-53" transform="translate(218.380338 0) scale(0.996264)"/>
      </g>
     </g>
    </g>
   </g>
   <g id="matplotlib.axis_2">
    <g id="ytick_1">
     <g id="line2d_4">
      <defs>
       <path id="m3c27105c92" d="M 0 0 
L -3.5 0 
" style="stroke: #000000; stroke-width: 0.8"/>
      </defs>
      <g>
       <use xlink:href="#m3c27105c92" x="29.16" y="112.32" style="stroke: #000000; stroke-width: 0.8"/>
      </g>
     </g>
     <g id="text_4">
      <!-- $\mathdefault{0}$ -->
      <g transform="translate(18.83651 114.449496) scale(0.06 -0.06)">
       <defs>
        <path id="NimbusSanL-Regu-30" d="M 1760 4544 
C 1338 4544 954 4360 717 4046 
C 422 3651 275 3044 275 2208 
C 275 683 787 -128 1760 -128 
C 2720 -128 3245 683 3245 2170 
C 3245 3050 3104 3638 2803 4046 
C 2566 4366 2189 4544 1760 4544 
z
M 1760 4044 
C 2368 4044 2669 3432 2669 2221 
C 2669 939 2374 340 1747 340 
C 1152 340 851 965 851 2202 
C 851 3438 1152 4044 1760 4044 
z
" transform="scale(0.015625)"/>
       </defs>
       <use xlink:href="#NimbusSanL-Regu-30" transform="scale(0.996264)"/>
      </g>
     </g>
    </g>
    <g id="ytick_2">
     <g id="line2d_5">
      <g>
       <use xlink:href="#m3c27105c92" x="29.16" y="86.22" style="stroke: #000000; stroke-width: 0.8"/>
      </g>
     </g>
     <g id="text_5">
      <!-- $\mathdefault{5}$ -->
      <g transform="translate(18.83651 88.349496) scale(0.06 -0.06)">
       <defs>
        <path id="NimbusSanL-Regu-35" d="M 3046 4544 
L 704 4544 
L 365 2086 
L 883 2086 
C 1146 2399 1363 2508 1715 2508 
C 2323 2508 2707 2092 2707 1421 
C 2707 768 2330 372 1715 372 
C 1222 372 922 621 787 1133 
L 224 1133 
C 301 762 365 582 499 415 
C 755 70 1216 -128 1728 -128 
C 2643 -128 3283 537 3283 1497 
C 3283 2394 2688 3008 1818 3008 
C 1498 3008 1242 2925 979 2732 
L 1158 3987 
L 3046 3987 
L 3046 4544 
z
" transform="scale(0.015625)"/>
       </defs>
       <use xlink:href="#NimbusSanL-Regu-35" transform="scale(0.996264)"/>
      </g>
     </g>
    </g>
    <g id="ytick_3">
     <g id="line2d_6">
      <g>
       <use xlink:href="#m3c27105c92" x="29.16" y="60.12" style="stroke: #000000; stroke-width: 0.8"/>
      </g>
     </g>
     <g id="text_6">
      <!-- $\mathdefault{10}$ -->
      <g transform="translate(15.513021 62.249496) scale(0.06 -0.06)">
       <use xlink:href="#NimbusSanL-Regu-31" transform="scale(0.996264)"/>
       <use xlink:href="#NimbusSanL-Regu-30" transform="translate(55.391677 0) scale(0.996264)"/>
      </g>
     </g>
    </g>
    <g id="ytick_4">
     <g id="line2d_7">
      <g>
       <use xlink:href="#m3c27105c92" x="29.16" y="34.02" style="stroke: #000000; stroke-width: 0.8"/>
      </g>
     </g>
     <g id="text_7">
      <!-- $\mathdefault{15}$ -->
      <g transform="translate(15.513021 36.149496) scale(0.06 -0.06)">
       <use xlink:href="#NimbusSanL-Regu-31" transform="scale(0.996264)"/>
       <use xlink:href="#NimbusSanL-Regu-35" transform="translate(55.391677 0) scale(0.996264)"/>
      </g>
     </g>
    </g>
    <g id="text_8">
     <!-- Count -->
     <g transform="translate(10.239841 78.533981) rotate(-90) scale(0.06 -0.06)">
      <defs>
       <path id="NimbusSanL-Regu-6f" d="M 1741 3456 
C 800 3456 230 2786 230 1663 
C 230 541 794 -128 1747 -128 
C 2688 -128 3264 541 3264 1638 
C 3264 2792 2707 3456 1741 3456 
z
M 1747 2962 
C 2349 2962 2707 2472 2707 1645 
C 2707 861 2336 365 1747 365 
C 1152 365 787 855 787 1663 
C 787 2466 1152 2962 1747 2962 
z
" transform="scale(0.015625)"/>
       <path id="NimbusSanL-Regu-75" d="M 3085 33 
L 3085 3392 
L 2554 3392 
L 2554 1479 
C 2554 790 2195 340 1638 340 
C 1216 340 947 597 947 1003 
L 947 3392 
L 416 3392 
L 416 792 
C 416 232 832 -128 1485 -128 
C 1978 -128 2291 45 2605 488 
L 2605 33 
L 3085 33 
z
" transform="scale(0.015625)"/>
       <path id="NimbusSanL-Regu-6e" d="M 448 3359 
L 448 0 
L 986 0 
L 986 1853 
C 986 2539 1344 2988 1894 2988 
C 2317 2988 2586 2731 2586 2327 
L 2586 0 
L 3117 0 
L 3117 2539 
C 3117 3097 2701 3456 2054 3456 
C 1555 3456 1235 3263 941 2796 
L 941 3359 
L 448 3359 
z
" transform="scale(0.015625)"/>
       <path id="NimbusSanL-Regu-74" d="M 1626 3380 
L 1075 3380 
L 1075 4288 
L 544 4288 
L 544 3380 
L 90 3380 
L 90 2944 
L 544 2944 
L 544 404 
C 544 64 774 -128 1190 -128 
C 1318 -128 1446 -116 1626 -83 
L 1626 366 
C 1555 346 1472 340 1370 340 
C 1139 340 1075 404 1075 641 
L 1075 2944 
L 1626 2944 
L 1626 3380 
z
" transform="scale(0.015625)"/>
      </defs>
      <use xlink:href="#NimbusSanL-Regu-43" transform="scale(0.996264)"/>
      <use xlink:href="#NimbusSanL-Regu-6f" transform="translate(71.929985 0) scale(0.996264)"/>
      <use xlink:href="#NimbusSanL-Regu-75" transform="translate(127.321662 0) scale(0.996264)"/>
      <use xlink:href="#NimbusSanL-Regu-6e" transform="translate(182.713339 0) scale(0.996264)"/>
      <use xlink:href="#NimbusSanL-Regu-74" transform="translate(238.105016 0) scale(0.996264)"/>
     </g>
    </g>
   </g>
   <g id="patch_12">
    <path d="M 29.16 112.32 
L 29.16 28.8 
" style="fill: none; stroke: #000000; stroke-width: 0.5; stroke-linejoin: miter; stroke-linecap: square"/>
   </g>
   <g id="patch_13">
    <path d="M 29.16 112.32 
L 77.188235 112.32 
" style="fill: none; stroke: #000000; stroke-width: 0.5; stroke-linejoin: miter; stroke-linecap: square"/>
   </g>
   <g id="text_9">
    <!-- N molecules = 5 -->
    <g transform="translate(31.664067 22.8) scale(0.06 -0.06)">
     <defs>
      <path id="NimbusSanL-Regu-4e" d="M 4134 4672 
L 3571 4672 
L 3571 851 
L 1133 4672 
L 486 4672 
L 486 -2 
L 1050 -2 
L 1050 3787 
L 3462 -2 
L 4134 -2 
L 4134 4672 
z
" transform="scale(0.015625)"/>
      <path id="NimbusSanL-Regu-6c" d="M 973 4672 
L 435 4672 
L 435 -2 
L 973 -2 
L 973 4672 
z
" transform="scale(0.015625)"/>
      <path id="NimbusSanL-Regu-65" d="M 3283 1529 
C 3283 2034 3245 2338 3149 2584 
C 2931 3127 2419 3456 1792 3456 
C 858 3456 256 2742 256 1645 
C 256 547 838 -128 1779 -128 
C 2547 -128 3078 310 3213 1044 
L 2675 1044 
C 2528 598 2227 365 1798 365 
C 1459 365 1171 520 992 805 
C 864 998 819 1193 813 1529 
L 3283 1529 
z
M 826 1984 
C 870 2577 1248 2962 1786 2962 
C 2310 2962 2714 2530 2714 1984 
C 2714 1984 2714 1984 2707 1984 
L 826 1984 
z
" transform="scale(0.015625)"/>
      <path id="NimbusSanL-Regu-63" d="M 3014 2236 
C 2989 2562 2918 2773 2790 2958 
C 2560 3271 2157 3456 1690 3456 
C 787 3456 198 2742 198 1632 
C 198 554 774 -128 1683 -128 
C 2483 -128 2989 350 3053 1167 
L 2515 1167 
C 2426 632 2150 365 1696 365 
C 1107 365 755 843 755 1632 
C 755 2466 1101 2962 1683 2962 
C 2131 2962 2413 2701 2477 2236 
L 3014 2236 
z
" transform="scale(0.015625)"/>
      <path id="NimbusSanL-Regu-73" d="M 2803 2427 
C 2797 3085 2362 3456 1587 3456 
C 806 3456 301 3054 301 2436 
C 301 1913 570 1665 1363 1474 
L 1862 1353 
C 2234 1263 2381 1130 2381 888 
C 2381 576 2067 365 1600 365 
C 1312 365 1069 448 934 588 
C 851 684 813 779 781 1014 
L 218 1014 
C 243 241 678 -128 1555 -128 
C 2400 -128 2938 285 2938 929 
C 2938 1426 2656 1701 1990 1860 
L 1478 1981 
C 1043 2082 858 2223 858 2458 
C 858 2764 1133 2962 1568 2962 
C 1997 2962 2227 2777 2240 2427 
L 2803 2427 
z
" transform="scale(0.015625)"/>
      <path id="NimbusSanL-Regu-3d" d="M 3418 2241 
L 320 2241 
L 320 1792 
L 3418 1792 
L 3418 2241 
z
M 3418 1152 
L 320 1152 
L 320 704 
L 3418 704 
L 3418 1152 
z
" transform="scale(0.015625)"/>
     </defs>
     <use xlink:href="#NimbusSanL-Regu-4e" transform="scale(0.996264)"/>
     <use xlink:href="#NimbusSanL-Regu-6d" transform="translate(99.625154 0) scale(0.996264)"/>
     <use xlink:href="#NimbusSanL-Regu-6f" transform="translate(182.613585 0) scale(0.996264)"/>
     <use xlink:href="#NimbusSanL-Regu-6c" transform="translate(238.005262 0) scale(0.996264)"/>
     <use xlink:href="#NimbusSanL-Regu-65" transform="translate(260.122046 0) scale(0.996264)"/>
     <use xlink:href="#NimbusSanL-Regu-63" transform="translate(315.513723 0) scale(0.996264)"/>
     <use xlink:href="#NimbusSanL-Regu-75" transform="translate(365.326923 0) scale(0.996264)"/>
     <use xlink:href="#NimbusSanL-Regu-6c" transform="translate(420.7186 0) scale(0.996264)"/>
     <use xlink:href="#NimbusSanL-Regu-65" transform="translate(442.835385 0) scale(0.996264)"/>
     <use xlink:href="#NimbusSanL-Regu-73" transform="translate(498.227062 0) scale(0.996264)"/>
     <use xlink:href="#NimbusSanL-Regu-3d" transform="translate(575.735432 0) scale(0.996264)"/>
     <use xlink:href="#NimbusSanL-Regu-35" transform="translate(661.612094 0) scale(0.996264)"/>
    </g>
   </g>
  </g>
  <g id="axes_2">
   <g id="patch_14">
    <path d="M 86.793882 112.32 
L 134.822118 112.32 
L 134.822118 28.8 
L 86.793882 28.8 
L 86.793882 112.32 
z
" style="fill: none"/>
   </g>
   <g id="patch_15">
    <path d="M 88.976984 112.32 
L 97.70939 112.32 
L 97.70939 82.0962 
L 88.976984 82.0962 
z
" clip-path="url(#p137d8f439e)" style="fill: #2ca02c; fill-opacity: 0.75; stroke: #000000; stroke-width: 0.805668; stroke-linejoin: miter"/>
   </g>
   <g id="patch_16">
    <path d="M 106.441797 112.32 
L 115.174203 112.32 
L 115.174203 96.66 
L 106.441797 96.66 
z
" clip-path="url(#p137d8f439e)" style="fill: #2ca02c; fill-opacity: 0.75; stroke: #000000; stroke-width: 0.805668; stroke-linejoin: miter"/>
   </g>
   <g id="patch_17">
    <path d="M 123.90661 112.32 
L 132.639016 112.32 
L 132.639016 67.3758 
L 123.90661 67.3758 
z
" clip-path="url(#p137d8f439e)" style="fill: #2ca02c; fill-opacity: 0.75; stroke: #000000; stroke-width: 0.805668; stroke-linejoin: miter"/>
   </g>
   <g id="patch_18">
    <path d="M 88.976984 82.0962 
L 97.70939 82.0962 
L 97.70939 63.252001 
L 88.976984 63.252001 
z
" clip-path="url(#p137d8f439e)" style="fill: #ff7f0e; fill-opacity: 0.75; stroke: #000000; stroke-width: 0.805668; stroke-linejoin: miter"/>
   </g>
   <g id="patch_19">
    <path d="M 106.441797 96.66 
L 115.174203 96.66 
L 115.174203 60.694201 
L 106.441797 60.694201 
z
" clip-path="url(#p137d8f439e)" style="fill: #ff7f0e; fill-opacity: 0.75; stroke: #000000; stroke-width: 0.805668; stroke-linejoin: miter"/>
   </g>
   <g id="patch_20">
    <path d="M 123.90661 67.3758 
L 132.639016 67.3758 
L 132.639016 63.1476 
L 123.90661 63.1476 
z
" clip-path="url(#p137d8f439e)" style="fill: #ff7f0e; fill-opacity: 0.75; stroke: #000000; stroke-width: 0.805668; stroke-linejoin: miter"/>
   </g>
   <g id="patch_21">
    <path d="M 88.976984 63.252001 
L 97.70939 63.252001 
L 97.70939 60.120001 
L 88.976984 60.120001 
z
" clip-path="url(#p137d8f439e)" style="fill: #1f77b4; fill-opacity: 0.75; stroke: #000000; stroke-width: 0.805668; stroke-linejoin: miter"/>
   </g>
   <g id="patch_22">
    <path d="M 106.441797 60.694201 
L 115.174203 60.694201 
L 115.174203 60.120001 
L 106.441797 60.120001 
z
" clip-path="url(#p137d8f439e)" style="fill: #1f77b4; fill-opacity: 0.75; stroke: #000000; stroke-width: 0.805668; stroke-linejoin: miter"/>
   </g>
   <g id="patch_23">
    <path d="M 123.90661 63.1476 
L 132.639016 63.1476 
L 132.639016 60.12 
L 123.90661 60.12 
z
" clip-path="url(#p137d8f439e)" style="fill: #1f77b4; fill-opacity: 0.75; stroke: #000000; stroke-width: 0.805668; stroke-linejoin: miter"/>
   </g>
   <g id="matplotlib.axis_3">
    <g id="xtick_4">
     <g id="line2d_8">
      <g>
       <use xlink:href="#m09d4152c6d" x="93.343187" y="112.32" style="stroke: #000000; stroke-width: 0.8"/>
      </g>
     </g>
     <g id="text_10">
      <!-- 1 $\mu$m -->
      <g transform="translate(86.119346 123.578992) scale(0.06 -0.06)">
       <use xlink:href="#NimbusSanL-Regu-31" transform="scale(0.996264)"/>
       <use xlink:href="#CMMI12-16" transform="translate(83.086847 0) scale(0.996264)"/>
       <use xlink:href="#NimbusSanL-Regu-6d" transform="translate(141.778268 0) scale(0.996264)"/>
      </g>
      <!-- diam -->
      <g transform="translate(86.866551 129.962962) scale(0.06 -0.06)">
       <use xlink:href="#NimbusSanL-Regu-64" transform="scale(0.996264)"/>
       <use xlink:href="#NimbusSanL-Regu-69" transform="translate(55.391677 0) scale(0.996264)"/>
       <use xlink:href="#NimbusSanL-Regu-61" transform="translate(77.508461 0) scale(0.996264)"/>
       <use xlink:href="#NimbusSanL-Regu-6d" transform="translate(132.900138 0) scale(0.996264)"/>
      </g>
     </g>
    </g>
    <g id="xtick_5">
     <g id="line2d_9">
      <g>
       <use xlink:href="#m09d4152c6d" x="110.808" y="112.32" style="stroke: #000000; stroke-width: 0.8"/>
      </g>
     </g>
     <g id="text_11">
      <!-- 2 $\mu$m -->
      <g transform="translate(103.584159 123.578992) scale(0.06 -0.06)">
       <use xlink:href="#NimbusSanL-Regu-32" transform="scale(0.996264)"/>
       <use xlink:href="#CMMI12-16" transform="translate(83.086847 0) scale(0.996264)"/>
       <use xlink:href="#NimbusSanL-Regu-6d" transform="translate(141.778268 0) scale(0.996264)"/>
      </g>
      <!-- diam -->
      <g transform="translate(104.331364 129.962962) scale(0.06 -0.06)">
       <use xlink:href="#NimbusSanL-Regu-64" transform="scale(0.996264)"/>
       <use xlink:href="#NimbusSanL-Regu-69" transform="translate(55.391677 0) scale(0.996264)"/>
       <use xlink:href="#NimbusSanL-Regu-61" transform="translate(77.508461 0) scale(0.996264)"/>
       <use xlink:href="#NimbusSanL-Regu-6d" transform="translate(132.900138 0) scale(0.996264)"/>
      </g>
     </g>
    </g>
    <g id="xtick_6">
     <g id="line2d_10">
      <g>
       <use xlink:href="#m09d4152c6d" x="128.272813" y="112.32" style="stroke: #000000; stroke-width: 0.8"/>
      </g>
     </g>
     <g id="text_12">
      <!-- MACS -->
      <g transform="translate(119.727914 123.578992) scale(0.06 -0.06)">
       <use xlink:href="#NimbusSanL-Regu-4d" transform="scale(0.996264)"/>
       <use xlink:href="#NimbusSanL-Regu-41" transform="translate(82.98843 0) scale(0.996264)"/>
       <use xlink:href="#NimbusSanL-Regu-43" transform="translate(146.450353 0) scale(0.996264)"/>
       <use xlink:href="#NimbusSanL-Regu-53" transform="translate(218.380338 0) scale(0.996264)"/>
      </g>
     </g>
    </g>
   </g>
   <g id="matplotlib.axis_4"/>
   <g id="patch_24">
    <path d="M 86.793882 112.32 
L 86.793882 28.8 
" style="fill: none; stroke: #000000; stroke-width: 0.5; stroke-linejoin: miter; stroke-linecap: square"/>
   </g>
   <g id="patch_25">
    <path d="M 86.793882 112.32 
L 134.822118 112.32 
" style="fill: none; stroke: #000000; stroke-width: 0.5; stroke-linejoin: miter; stroke-linecap: square"/>
   </g>
   <g id="text_13">
    <!-- N molecules = 10 -->
    <g transform="translate(87.636204 22.8) scale(0.06 -0.06)">
     <use xlink:href="#NimbusSanL-Regu-4e" transform="scale(0.996264)"/>
     <use xlink:href="#NimbusSanL-Regu-6d" transform="translate(99.625154 0) scale(0.996264)"/>
     <use xlink:href="#NimbusSanL-Regu-6f" transform="translate(182.613585 0) scale(0.996264)"/>
     <use xlink:href="#NimbusSanL-Regu-6c" transform="translate(238.005262 0) scale(0.996264)"/>
     <use xlink:href="#NimbusSanL-Regu-65" transform="translate(260.122046 0) scale(0.996264)"/>
     <use xlink:href="#NimbusSanL-Regu-63" transform="translate(315.513723 0) scale(0.996264)"/>
     <use xlink:href="#NimbusSanL-Regu-75" transform="translate(365.326923 0) scale(0.996264)"/>
     <use xlink:href="#NimbusSanL-Regu-6c" transform="translate(420.7186 0) scale(0.996264)"/>
     <use xlink:href="#NimbusSanL-Regu-65" transform="translate(442.835385 0) scale(0.996264)"/>
     <use xlink:href="#NimbusSanL-Regu-73" transform="translate(498.227062 0) scale(0.996264)"/>
     <use xlink:href="#NimbusSanL-Regu-3d" transform="translate(575.735432 0) scale(0.996264)"/>
     <use xlink:href="#NimbusSanL-Regu-31" transform="translate(661.612094 0) scale(0.996264)"/>
     <use xlink:href="#NimbusSanL-Regu-30" transform="translate(717.003771 0) scale(0.996264)"/>
    </g>
   </g>
  </g>
  <g id="axes_3">
   <g id="patch_26">
    <path d="M 144.427765 112.32 
L 192.456 112.32 
L 192.456 28.8 
L 144.427765 28.8 
L 144.427765 112.32 
z
" style="fill: none"/>
   </g>
   <g id="patch_27">
    <path d="M 146.610866 112.32 
L 155.343273 112.32 
L 155.343273 68.0022 
L 146.610866 68.0022 
z
" clip-path="url(#pafa875efe7)" style="fill: #2ca02c; fill-opacity: 0.75; stroke: #000000; stroke-width: 0.805668; stroke-linejoin: miter"/>
   </g>
   <g id="patch_28">
    <path d="M 164.075679 112.32 
L 172.808086 112.32 
L 172.808086 88.1514 
L 164.075679 88.1514 
z
" clip-path="url(#pafa875efe7)" style="fill: #2ca02c; fill-opacity: 0.75; stroke: #000000; stroke-width: 0.805668; stroke-linejoin: miter"/>
   </g>
   <g id="patch_29">
    <path d="M 181.540492 112.32 
L 190.272898 112.32 
L 190.272898 46.4436 
L 181.540492 46.4436 
z
" clip-path="url(#pafa875efe7)" style="fill: #2ca02c; fill-opacity: 0.75; stroke: #000000; stroke-width: 0.805668; stroke-linejoin: miter"/>
   </g>
   <g id="patch_30">
    <path d="M 146.610866 68.0022 
L 155.343273 68.0022 
L 155.343273 40.440599 
L 146.610866 40.440599 
z
" clip-path="url(#pafa875efe7)" style="fill: #ff7f0e; fill-opacity: 0.75; stroke: #000000; stroke-width: 0.805668; stroke-linejoin: miter"/>
   </g>
   <g id="patch_31">
    <path d="M 164.075679 88.1514 
L 172.808086 88.1514 
L 172.808086 34.907401 
L 164.075679 34.907401 
z
" clip-path="url(#pafa875efe7)" style="fill: #ff7f0e; fill-opacity: 0.75; stroke: #000000; stroke-width: 0.805668; stroke-linejoin: miter"/>
   </g>
   <g id="patch_32">
    <path d="M 181.540492 46.4436 
L 190.272898 46.4436 
L 190.272898 41.328 
L 181.540492 41.328 
z
" clip-path="url(#pafa875efe7)" style="fill: #ff7f0e; fill-opacity: 0.75; stroke: #000000; stroke-width: 0.805668; stroke-linejoin: miter"/>
   </g>
   <g id="patch_33">
    <path d="M 146.610866 40.440599 
L 155.343273 40.440599 
L 155.343273 34.019999 
L 146.610866 34.019999 
z
" clip-path="url(#pafa875efe7)" style="fill: #1f77b4; fill-opacity: 0.75; stroke: #000000; stroke-width: 0.805668; stroke-linejoin: miter"/>
   </g>
   <g id="patch_34">
    <path d="M 164.075679 34.907401 
L 172.808086 34.907401 
L 172.808086 34.020001 
L 164.075679 34.020001 
z
" clip-path="url(#pafa875efe7)" style="fill: #1f77b4; fill-opacity: 0.75; stroke: #000000; stroke-width: 0.805668; stroke-linejoin: miter"/>
   </g>
   <g id="patch_35">
    <path d="M 181.540492 41.328 
L 190.272898 41.328 
L 190.272898 34.02 
L 181.540492 34.02 
z
" clip-path="url(#pafa875efe7)" style="fill: #1f77b4; fill-opacity: 0.75; stroke: #000000; stroke-width: 0.805668; stroke-linejoin: miter"/>
   </g>
   <g id="matplotlib.axis_5">
    <g id="xtick_7">
     <g id="line2d_11">
      <g>
       <use xlink:href="#m09d4152c6d" x="150.97707" y="112.32" style="stroke: #000000; stroke-width: 0.8"/>
      </g>
     </g>
     <g id="text_14">
      <!-- 1 $\mu$m -->
      <g transform="translate(143.753228 123.578992) scale(0.06 -0.06)">
       <use xlink:href="#NimbusSanL-Regu-31" transform="scale(0.996264)"/>
       <use xlink:href="#CMMI12-16" transform="translate(83.086847 0) scale(0.996264)"/>
       <use xlink:href="#NimbusSanL-Regu-6d" transform="translate(141.778268 0) scale(0.996264)"/>
      </g>
      <!-- diam -->
      <g transform="translate(144.500434 129.962962) scale(0.06 -0.06)">
       <use xlink:href="#NimbusSanL-Regu-64" transform="scale(0.996264)"/>
       <use xlink:href="#NimbusSanL-Regu-69" transform="translate(55.391677 0) scale(0.996264)"/>
       <use xlink:href="#NimbusSanL-Regu-61" transform="translate(77.508461 0) scale(0.996264)"/>
       <use xlink:href="#NimbusSanL-Regu-6d" transform="translate(132.900138 0) scale(0.996264)"/>
      </g>
     </g>
    </g>
    <g id="xtick_8">
     <g id="line2d_12">
      <g>
       <use xlink:href="#m09d4152c6d" x="168.441882" y="112.32" style="stroke: #000000; stroke-width: 0.8"/>
      </g>
     </g>
     <g id="text_15">
      <!-- 2 $\mu$m -->
      <g transform="translate(161.218041 123.578992) scale(0.06 -0.06)">
       <use xlink:href="#NimbusSanL-Regu-32" transform="scale(0.996264)"/>
       <use xlink:href="#CMMI12-16" transform="translate(83.086847 0) scale(0.996264)"/>
       <use xlink:href="#NimbusSanL-Regu-6d" transform="translate(141.778268 0) scale(0.996264)"/>
      </g>
      <!-- diam -->
      <g transform="translate(161.965247 129.962962) scale(0.06 -0.06)">
       <use xlink:href="#NimbusSanL-Regu-64" transform="scale(0.996264)"/>
       <use xlink:href="#NimbusSanL-Regu-69" transform="translate(55.391677 0) scale(0.996264)"/>
       <use xlink:href="#NimbusSanL-Regu-61" transform="translate(77.508461 0) scale(0.996264)"/>
       <use xlink:href="#NimbusSanL-Regu-6d" transform="translate(132.900138 0) scale(0.996264)"/>
      </g>
     </g>
    </g>
    <g id="xtick_9">
     <g id="line2d_13">
      <g>
       <use xlink:href="#m09d4152c6d" x="185.906695" y="112.32" style="stroke: #000000; stroke-width: 0.8"/>
      </g>
     </g>
     <g id="text_16">
      <!-- MACS -->
      <g transform="translate(177.361796 123.578992) scale(0.06 -0.06)">
       <use xlink:href="#NimbusSanL-Regu-4d" transform="scale(0.996264)"/>
       <use xlink:href="#NimbusSanL-Regu-41" transform="translate(82.98843 0) scale(0.996264)"/>
       <use xlink:href="#NimbusSanL-Regu-43" transform="translate(146.450353 0) scale(0.996264)"/>
       <use xlink:href="#NimbusSanL-Regu-53" transform="translate(218.380338 0) scale(0.996264)"/>
      </g>
     </g>
    </g>
   </g>
   <g id="matplotlib.axis_6"/>
   <g id="patch_36">
    <path d="M 144.427765 112.32 
L 144.427765 28.8 
" style="fill: none; stroke: #000000; stroke-width: 0.5; stroke-linejoin: miter; stroke-linecap: square"/>
   </g>
   <g id="patch_37">
    <path d="M 144.427765 112.32 
L 192.456 112.32 
" style="fill: none; stroke: #000000; stroke-width: 0.5; stroke-linejoin: miter; stroke-linecap: square"/>
   </g>
   <g id="text_17">
    <!-- N molecules = 15 -->
    <g transform="translate(145.270087 22.8) scale(0.06 -0.06)">
     <use xlink:href="#NimbusSanL-Regu-4e" transform="scale(0.996264)"/>
     <use xlink:href="#NimbusSanL-Regu-6d" transform="translate(99.625154 0) scale(0.996264)"/>
     <use xlink:href="#NimbusSanL-Regu-6f" transform="translate(182.613585 0) scale(0.996264)"/>
     <use xlink:href="#NimbusSanL-Regu-6c" transform="translate(238.005262 0) scale(0.996264)"/>
     <use xlink:href="#NimbusSanL-Regu-65" transform="translate(260.122046 0) scale(0.996264)"/>
     <use xlink:href="#NimbusSanL-Regu-63" transform="translate(315.513723 0) scale(0.996264)"/>
     <use xlink:href="#NimbusSanL-Regu-75" transform="translate(365.326923 0) scale(0.996264)"/>
     <use xlink:href="#NimbusSanL-Regu-6c" transform="translate(420.7186 0) scale(0.996264)"/>
     <use xlink:href="#NimbusSanL-Regu-65" transform="translate(442.835385 0) scale(0.996264)"/>
     <use xlink:href="#NimbusSanL-Regu-73" transform="translate(498.227062 0) scale(0.996264)"/>
     <use xlink:href="#NimbusSanL-Regu-3d" transform="translate(575.735432 0) scale(0.996264)"/>
     <use xlink:href="#NimbusSanL-Regu-31" transform="translate(661.612094 0) scale(0.996264)"/>
     <use xlink:href="#NimbusSanL-Regu-35" transform="translate(717.003771 0) scale(0.996264)"/>
    </g>
   </g>
   <g id="legend_1">
    <g id="patch_38">
     <path d="M 148.627765 109.32 
L 239.856561 109.32 
Q 241.056561 109.32 241.056561 108.12 
L 241.056561 83.123484 
Q 241.056561 81.923484 239.856561 81.923484 
L 148.627765 81.923484 
Q 147.427765 81.923484 147.427765 83.123484 
L 147.427765 108.12 
Q 147.427765 109.32 148.627765 109.32 
z
" style="fill: #ffffff; opacity: 0.8; stroke: #cccccc; stroke-linejoin: miter"/>
    </g>
    <g id="patch_39">
     <path d="M 149.827765 88.582477 
L 161.827765 88.582477 
L 161.827765 84.382477 
L 149.827765 84.382477 
z
" style="fill: #1f77b4; fill-opacity: 0.75; stroke: #000000; stroke-linejoin: miter"/>
    </g>
    <g id="text_18">
     <!-- Molecules lost to diffraction -->
     <g transform="translate(166.627765 88.582477) scale(0.06 -0.06)">
      <defs>
       <path id="NimbusSanL-Regu-66" d="M 1651 3328 
L 1094 3328 
L 1094 3856 
C 1094 4082 1222 4198 1466 4198 
C 1510 4198 1530 4198 1651 4198 
L 1651 4640 
C 1530 4666 1459 4672 1350 4672 
C 858 4672 563 4388 563 3903 
L 563 3328 
L 115 3328 
L 115 2892 
L 563 2892 
L 563 -26 
L 1094 -26 
L 1094 2892 
L 1651 2892 
L 1651 3328 
z
" transform="scale(0.015625)"/>
       <path id="NimbusSanL-Regu-72" d="M 442 3359 
L 442 0 
L 979 0 
L 979 1741 
C 979 2221 1101 2535 1357 2720 
C 1523 2842 1683 2880 2054 2880 
L 2054 3432 
C 1965 3444 1920 3444 1850 3444 
C 1504 3444 1242 3240 934 2746 
L 934 3359 
L 442 3359 
z
" transform="scale(0.015625)"/>
      </defs>
      <use xlink:href="#NimbusSanL-Regu-4d" transform="scale(0.996264)"/>
      <use xlink:href="#NimbusSanL-Regu-6f" transform="translate(82.98843 0) scale(0.996264)"/>
      <use xlink:href="#NimbusSanL-Regu-6c" transform="translate(138.380107 0) scale(0.996264)"/>
      <use xlink:href="#NimbusSanL-Regu-65" transform="translate(160.496892 0) scale(0.996264)"/>
      <use xlink:href="#NimbusSanL-Regu-63" transform="translate(215.888569 0) scale(0.996264)"/>
      <use xlink:href="#NimbusSanL-Regu-75" transform="translate(265.701769 0) scale(0.996264)"/>
      <use xlink:href="#NimbusSanL-Regu-6c" transform="translate(321.093446 0) scale(0.996264)"/>
      <use xlink:href="#NimbusSanL-Regu-65" transform="translate(343.21023 0) scale(0.996264)"/>
      <use xlink:href="#NimbusSanL-Regu-73" transform="translate(398.601907 0) scale(0.996264)"/>
      <use xlink:href="#NimbusSanL-Regu-6c" transform="translate(476.110277 0) scale(0.996264)"/>
      <use xlink:href="#NimbusSanL-Regu-6f" transform="translate(498.227062 0) scale(0.996264)"/>
      <use xlink:href="#NimbusSanL-Regu-73" transform="translate(553.618739 0) scale(0.996264)"/>
      <use xlink:href="#NimbusSanL-Regu-74" transform="translate(603.431939 0) scale(0.996264)"/>
      <use xlink:href="#NimbusSanL-Regu-74" transform="translate(658.822278 0) scale(0.996264)"/>
      <use xlink:href="#NimbusSanL-Regu-6f" transform="translate(686.517448 0) scale(0.996264)"/>
      <use xlink:href="#NimbusSanL-Regu-64" transform="translate(769.604295 0) scale(0.996264)"/>
      <use xlink:href="#NimbusSanL-Regu-69" transform="translate(824.995972 0) scale(0.996264)"/>
      <use xlink:href="#NimbusSanL-Regu-66" transform="translate(847.112756 0) scale(0.996264)"/>
      <use xlink:href="#NimbusSanL-Regu-66" transform="translate(874.807925 0) scale(0.996264)"/>
      <use xlink:href="#NimbusSanL-Regu-72" transform="translate(902.504433 0) scale(0.996264)"/>
      <use xlink:href="#NimbusSanL-Regu-61" transform="translate(934.683566 0) scale(0.996264)"/>
      <use xlink:href="#NimbusSanL-Regu-63" transform="translate(990.075243 0) scale(0.996264)"/>
      <use xlink:href="#NimbusSanL-Regu-74" transform="translate(1039.888443 0) scale(0.996264)"/>
      <use xlink:href="#NimbusSanL-Regu-69" transform="translate(1067.583613 0) scale(0.996264)"/>
      <use xlink:href="#NimbusSanL-Regu-6f" transform="translate(1089.700397 0) scale(0.996264)"/>
      <use xlink:href="#NimbusSanL-Regu-6e" transform="translate(1145.092074 0) scale(0.996264)"/>
     </g>
    </g>
    <g id="patch_40">
     <path d="M 149.827765 97.114648 
L 161.827765 97.114648 
L 161.827765 92.914648 
L 149.827765 92.914648 
z
" style="fill: #ff7f0e; fill-opacity: 0.75; stroke: #000000; stroke-linejoin: miter"/>
    </g>
    <g id="text_19">
     <!-- Molecules lost to focus -->
     <g transform="translate(166.627765 97.114648) scale(0.06 -0.06)">
      <use xlink:href="#NimbusSanL-Regu-4d" transform="scale(0.996264)"/>
      <use xlink:href="#NimbusSanL-Regu-6f" transform="translate(82.98843 0) scale(0.996264)"/>
      <use xlink:href="#NimbusSanL-Regu-6c" transform="translate(138.380107 0) scale(0.996264)"/>
      <use xlink:href="#NimbusSanL-Regu-65" transform="translate(160.496892 0) scale(0.996264)"/>
      <use xlink:href="#NimbusSanL-Regu-63" transform="translate(215.888569 0) scale(0.996264)"/>
      <use xlink:href="#NimbusSanL-Regu-75" transform="translate(265.701769 0) scale(0.996264)"/>
      <use xlink:href="#NimbusSanL-Regu-6c" transform="translate(321.093446 0) scale(0.996264)"/>
      <use xlink:href="#NimbusSanL-Regu-65" transform="translate(343.21023 0) scale(0.996264)"/>
      <use xlink:href="#NimbusSanL-Regu-73" transform="translate(398.601907 0) scale(0.996264)"/>
      <use xlink:href="#NimbusSanL-Regu-6c" transform="translate(476.110277 0) scale(0.996264)"/>
      <use xlink:href="#NimbusSanL-Regu-6f" transform="translate(498.227062 0) scale(0.996264)"/>
      <use xlink:href="#NimbusSanL-Regu-73" transform="translate(553.618739 0) scale(0.996264)"/>
      <use xlink:href="#NimbusSanL-Regu-74" transform="translate(603.431939 0) scale(0.996264)"/>
      <use xlink:href="#NimbusSanL-Regu-74" transform="translate(658.822278 0) scale(0.996264)"/>
      <use xlink:href="#NimbusSanL-Regu-6f" transform="translate(686.517448 0) scale(0.996264)"/>
      <use xlink:href="#NimbusSanL-Regu-66" transform="translate(769.604295 0) scale(0.996264)"/>
      <use xlink:href="#NimbusSanL-Regu-6f" transform="translate(794.311356 0) scale(0.996264)"/>
      <use xlink:href="#NimbusSanL-Regu-63" transform="translate(849.703033 0) scale(0.996264)"/>
      <use xlink:href="#NimbusSanL-Regu-75" transform="translate(899.516234 0) scale(0.996264)"/>
      <use xlink:href="#NimbusSanL-Regu-73" transform="translate(954.907911 0) scale(0.996264)"/>
     </g>
    </g>
    <g id="patch_41">
     <path d="M 149.827765 105.64682 
L 161.827765 105.64682 
L 161.827765 101.44682 
L 149.827765 101.44682 
z
" style="fill: #2ca02c; fill-opacity: 0.75; stroke: #000000; stroke-linejoin: miter"/>
    </g>
    <g id="text_20">
     <!-- Observed molecules -->
     <g transform="translate(166.627765 105.64682) scale(0.06 -0.06)">
      <defs>
       <path id="NimbusSanL-Regu-4f" d="M 2490 4750 
C 1152 4750 243 3766 243 2311 
C 243 855 1152 -128 2496 -128 
C 3059 -128 3565 44 3942 363 
C 4448 791 4749 1512 4749 2272 
C 4749 3773 3859 4750 2490 4750 
z
M 2490 4224 
C 3501 4224 4154 3459 4154 2285 
C 4154 1163 3482 397 2496 397 
C 1504 397 838 1163 838 2311 
C 838 3459 1504 4224 2490 4224 
z
" transform="scale(0.015625)"/>
       <path id="NimbusSanL-Regu-62" d="M 346 4672 
L 346 -2 
L 826 -2 
L 826 448 
C 1082 57 1421 -128 1888 -128 
C 2771 -128 3347 592 3347 1702 
C 3347 2786 2797 3456 1914 3456 
C 1453 3456 1126 3282 877 2905 
L 877 4672 
L 346 4672 
z
M 1811 2956 
C 2406 2956 2790 2440 2790 1645 
C 2790 887 2394 372 1811 372 
C 1248 372 877 881 877 1664 
C 877 2447 1248 2956 1811 2956 
z
" transform="scale(0.015625)"/>
       <path id="NimbusSanL-Regu-76" d="M 1824 0 
L 3110 3360 
L 2509 3360 
L 1562 635 
L 666 3360 
L 64 3360 
L 1242 0 
L 1824 0 
z
" transform="scale(0.015625)"/>
      </defs>
      <use xlink:href="#NimbusSanL-Regu-4f" transform="scale(0.996264)"/>
      <use xlink:href="#NimbusSanL-Regu-62" transform="translate(77.50837 0) scale(0.996264)"/>
      <use xlink:href="#NimbusSanL-Regu-73" transform="translate(132.900047 0) scale(0.996264)"/>
      <use xlink:href="#NimbusSanL-Regu-65" transform="translate(182.713248 0) scale(0.996264)"/>
      <use xlink:href="#NimbusSanL-Regu-72" transform="translate(238.104925 0) scale(0.996264)"/>
      <use xlink:href="#NimbusSanL-Regu-76" transform="translate(274.268247 0) scale(0.996264)"/>
      <use xlink:href="#NimbusSanL-Regu-65" transform="translate(321.590818 0) scale(0.996264)"/>
      <use xlink:href="#NimbusSanL-Regu-64" transform="translate(376.982495 0) scale(0.996264)"/>
      <use xlink:href="#NimbusSanL-Regu-6d" transform="translate(460.069341 0) scale(0.996264)"/>
      <use xlink:href="#NimbusSanL-Regu-6f" transform="translate(543.057772 0) scale(0.996264)"/>
      <use xlink:href="#NimbusSanL-Regu-6c" transform="translate(598.449449 0) scale(0.996264)"/>
      <use xlink:href="#NimbusSanL-Regu-65" transform="translate(620.566233 0) scale(0.996264)"/>
      <use xlink:href="#NimbusSanL-Regu-63" transform="translate(675.95791 0) scale(0.996264)"/>
      <use xlink:href="#NimbusSanL-Regu-75" transform="translate(725.77111 0) scale(0.996264)"/>
      <use xlink:href="#NimbusSanL-Regu-6c" transform="translate(781.162787 0) scale(0.996264)"/>
      <use xlink:href="#NimbusSanL-Regu-65" transform="translate(803.279572 0) scale(0.996264)"/>
      <use xlink:href="#NimbusSanL-Regu-73" transform="translate(858.671249 0) scale(0.996264)"/>
     </g>
    </g>
   </g>
  </g>
  <g id="text_21">
   <!-- Placeholder -->
   <g transform="translate(78.263261 7.990778) scale(0.072 -0.072)">
    <defs>
     <path id="NimbusSanL-Regu-50" d="M 1178 1984 
L 2643 1984 
C 3008 1984 3296 2093 3546 2316 
C 3827 2573 3949 2873 3949 3303 
C 3949 4179 3430 4672 2509 4672 
L 582 4672 
L 582 -14 
L 1178 -14 
L 1178 1984 
z
M 1178 2510 
L 1178 4146 
L 2419 4146 
C 2989 4146 3328 3839 3328 3327 
C 3328 2816 2989 2510 2419 2510 
L 1178 2510 
z
" transform="scale(0.015625)"/>
     <path id="NimbusSanL-Regu-68" d="M 448 4672 
L 448 -2 
L 979 -2 
L 979 1852 
C 979 2539 1338 2988 1888 2988 
C 2061 2988 2234 2930 2362 2834 
C 2515 2725 2579 2564 2579 2327 
L 2579 -2 
L 3110 -2 
L 3110 2538 
C 3110 3103 2707 3456 2054 3456 
C 1581 3456 1293 3308 979 2898 
L 979 4672 
L 448 4672 
z
" transform="scale(0.015625)"/>
    </defs>
    <use xlink:href="#NimbusSanL-Regu-50" transform="scale(0.996264)"/>
    <use xlink:href="#NimbusSanL-Regu-6c" transform="translate(66.450031 0) scale(0.996264)"/>
    <use xlink:href="#NimbusSanL-Regu-61" transform="translate(88.566815 0) scale(0.996264)"/>
    <use xlink:href="#NimbusSanL-Regu-63" transform="translate(143.958492 0) scale(0.996264)"/>
    <use xlink:href="#NimbusSanL-Regu-65" transform="translate(193.771693 0) scale(0.996264)"/>
    <use xlink:href="#NimbusSanL-Regu-68" transform="translate(249.16337 0) scale(0.996264)"/>
    <use xlink:href="#NimbusSanL-Regu-6f" transform="translate(304.555047 0) scale(0.996264)"/>
    <use xlink:href="#NimbusSanL-Regu-6c" transform="translate(359.946724 0) scale(0.996264)"/>
    <use xlink:href="#NimbusSanL-Regu-64" transform="translate(382.063508 0) scale(0.996264)"/>
    <use xlink:href="#NimbusSanL-Regu-65" transform="translate(437.455185 0) scale(0.996264)"/>
    <use xlink:href="#NimbusSanL-Regu-72" transform="translate(492.846862 0) scale(0.996264)"/>
   </g>
  </g>
  <g id="text_22">
   <!-- Cell type -->
   <g transform="translate(85.573776 138.24) scale(0.06 -0.06)">
    <defs>
     <path id="NimbusSanL-Regu-79" d="M 2483 3360 
L 1555 738 
L 698 3360 
L 128 3360 
L 1261 -21 
L 1056 -554 
C 973 -792 851 -882 627 -882 
C 550 -882 461 -869 346 -843 
L 346 -1325 
C 454 -1382 563 -1408 704 -1408 
C 877 -1408 1062 -1350 1203 -1247 
C 1370 -1125 1466 -983 1568 -713 
L 3059 3360 
L 2483 3360 
z
" transform="scale(0.015625)"/>
     <path id="NimbusSanL-Regu-70" d="M 346 -1408 
L 883 -1408 
L 883 320 
C 1165 -27 1478 -180 1914 -180 
C 2778 -180 3347 522 3347 1599 
C 3347 2734 2797 3444 1907 3444 
C 1453 3444 1088 3238 838 2841 
L 838 3349 
L 346 3349 
L 346 -1408 
z
M 1818 2944 
C 2406 2944 2790 2420 2790 1612 
C 2790 843 2400 320 1818 320 
C 1254 320 883 837 883 1632 
C 883 2427 1254 2944 1818 2944 
z
" transform="scale(0.015625)"/>
    </defs>
    <use xlink:href="#NimbusSanL-Regu-43" transform="scale(0.996264)"/>
    <use xlink:href="#NimbusSanL-Regu-65" transform="translate(71.929985 0) scale(0.996264)"/>
    <use xlink:href="#NimbusSanL-Regu-6c" transform="translate(127.321662 0) scale(0.996264)"/>
    <use xlink:href="#NimbusSanL-Regu-6c" transform="translate(149.438446 0) scale(0.996264)"/>
    <use xlink:href="#NimbusSanL-Regu-74" transform="translate(199.2504 0) scale(0.996264)"/>
    <use xlink:href="#NimbusSanL-Regu-79" transform="translate(226.94557 0) scale(0.996264)"/>
    <use xlink:href="#NimbusSanL-Regu-70" transform="translate(276.75877 0) scale(0.996264)"/>
    <use xlink:href="#NimbusSanL-Regu-65" transform="translate(332.150447 0) scale(0.996264)"/>
   </g>
  </g>
 </g>
 <defs>
  <clipPath id="p86a5a10ac2">
   <rect x="29.16" y="28.8" width="48.028235" height="83.52"/>
  </clipPath>
  <clipPath id="p137d8f439e">
   <rect x="86.793882" y="28.8" width="48.028235" height="83.52"/>
  </clipPath>
  <clipPath id="pafa875efe7">
   <rect x="144.427765" y="28.8" width="48.028235" height="83.52"/>
  </clipPath>
 </defs>
</svg>
