<?xml version="1.0" encoding="utf-8" standalone="no"?>
<!DOCTYPE svg PUBLIC "-//W3C//DTD SVG 1.1//EN"
  "http://www.w3.org/Graphics/SVG/1.1/DTD/svg11.dtd">
<svg xmlns:xlink="http://www.w3.org/1999/xlink" width="158.4pt" height="158.4pt" viewBox="0 0 158.4 158.4" xmlns="http://www.w3.org/2000/svg" version="1.1">
 <metadata>
  <rdf:RDF xmlns:dc="http://purl.org/dc/elements/1.1/" xmlns:cc="http://creativecommons.org/ns#" xmlns:rdf="http://www.w3.org/1999/02/22-rdf-syntax-ns#">
   <cc:Work>
    <dc:type rdf:resource="http://purl.org/dc/dcmitype/StillImage"/>
    <dc:date>2024-01-30T18:28:05.271563</dc:date>
    <dc:format>image/svg+xml</dc:format>
    <dc:creator>
     <cc:Agent>
      <dc:title>Matplotlib v3.8.2, https://matplotlib.org/</dc:title>
     </cc:Agent>
    </dc:creator>
   </cc:Work>
  </rdf:RDF>
 </metadata>
 <defs>
  <style type="text/css">*{stroke-linejoin: round; stroke-linecap: butt}</style>
 </defs>
 <g id="figure_1">
  <g id="patch_1">
   <path d="M 0 158.4 
L 158.4 158.4 
L 158.4 0 
L 0 0 
L 0 158.4 
z
" style="fill: none"/>
  </g>
  <g id="axes_1">
   <g id="patch_2">
    <path d="M 31.68 134.64 
L 142.56 134.64 
L 142.56 34.848 
L 31.68 34.848 
L 31.68 134.64 
z
" style="fill: none"/>
   </g>
   <g id="matplotlib.axis_1">
    <g id="xtick_1">
     <g id="line2d_1">
      <defs>
       <path id="m1d3957ad76" d="M 0 0 
L 0 3.5 
" style="stroke: #000000; stroke-width: 0.8"/>
      </defs>
      <g>
       <use xlink:href="#m1d3957ad76" x="47.52" y="134.64" style="stroke: #000000; stroke-width: 0.8"/>
      </g>
     </g>
     <g id="text_1">
      <text style="font: 6px 'DejaVu Sans', 'Arial', 'Helvetica', 'Lucida Grande', 'Verdana', 'Geneva', 'Lucid', 'Avant Garde', sans-serif; text-anchor: middle" x="47.52" y="146.199062" transform="rotate(-0 47.52 146.199062)">−0.50</text>
     </g>
    </g>
    <g id="xtick_2">
     <g id="line2d_2">
      <g>
       <use xlink:href="#m1d3957ad76" x="67.32" y="134.64" style="stroke: #000000; stroke-width: 0.8"/>
      </g>
     </g>
     <g id="text_2">
      <text style="font: 6px 'DejaVu Sans', 'Arial', 'Helvetica', 'Lucida Grande', 'Verdana', 'Geneva', 'Lucid', 'Avant Garde', sans-serif; text-anchor: middle" x="67.32" y="146.199062" transform="rotate(-0 67.32 146.199062)">−0.25</text>
     </g>
    </g>
    <g id="xtick_3">
     <g id="line2d_3">
      <g>
       <use xlink:href="#m1d3957ad76" x="87.12" y="134.64" style="stroke: #000000; stroke-width: 0.8"/>
      </g>
     </g>
     <g id="text_3">
      <text style="font: 6px 'DejaVu Sans', 'Arial', 'Helvetica', 'Lucida Grande', 'Verdana', 'Geneva', 'Lucid', 'Avant Garde', sans-serif; text-anchor: middle" x="87.12" y="146.199062" transform="rotate(-0 87.12 146.199062)">0.00</text>
     </g>
    </g>
    <g id="xtick_4">
     <g id="line2d_4">
      <g>
       <use xlink:href="#m1d3957ad76" x="106.92" y="134.64" style="stroke: #000000; stroke-width: 0.8"/>
      </g>
     </g>
     <g id="text_4">
      <text style="font: 6px 'DejaVu Sans', 'Arial', 'Helvetica', 'Lucida Grande', 'Verdana', 'Geneva', 'Lucid', 'Avant Garde', sans-serif; text-anchor: middle" x="106.92" y="146.199062" transform="rotate(-0 106.92 146.199062)">0.25</text>
     </g>
    </g>
    <g id="xtick_5">
     <g id="line2d_5">
      <g>
       <use xlink:href="#m1d3957ad76" x="126.72" y="134.64" style="stroke: #000000; stroke-width: 0.8"/>
      </g>
     </g>
     <g id="text_5">
      <text style="font: 6px 'DejaVu Sans', 'Arial', 'Helvetica', 'Lucida Grande', 'Verdana', 'Geneva', 'Lucid', 'Avant Garde', sans-serif; text-anchor: middle" x="126.72" y="146.199062" transform="rotate(-0 126.72 146.199062)">0.50</text>
     </g>
    </g>
    <g id="text_6">
     <!-- Distance ($\mu m$) -->
     <g transform="translate(65.85 156.006875)">
      <text>
       <tspan style="font: 6px 'DejaVu Sans'" x="0 4.620117 6.287109 9.413086 11.765625 15.442383 19.245117 22.543945 26.235352 28.142578 40.145508" y="-0.4375">Distance ()</tspan>
       <tspan style="font: oblique 6px 'DejaVu Sans'" x="30.483398 34.300781" y="-0.4375">μm</tspan>
      </text>
     </g>
    </g>
   </g>
   <g id="matplotlib.axis_2">
    <g id="ytick_1">
     <g id="line2d_6">
      <defs>
       <path id="m1f5b0e7d04" d="M 0 0 
L -3.5 0 
" style="stroke: #000000; stroke-width: 0.8"/>
      </defs>
      <g>
       <use xlink:href="#m1f5b0e7d04" x="31.68" y="130.104" style="stroke: #000000; stroke-width: 0.8"/>
      </g>
     </g>
     <g id="text_7">
      <text style="font: 6px 'DejaVu Sans', 'Arial', 'Helvetica', 'Lucida Grande', 'Verdana', 'Geneva', 'Lucid', 'Avant Garde', sans-serif; text-anchor: end" x="24.68" y="132.383531" transform="rotate(-0 24.68 132.383531)">0.0</text>
     </g>
    </g>
    <g id="ytick_2">
     <g id="line2d_7">
      <g>
       <use xlink:href="#m1f5b0e7d04" x="31.68" y="111.96" style="stroke: #000000; stroke-width: 0.8"/>
      </g>
     </g>
     <g id="text_8">
      <text style="font: 6px 'DejaVu Sans', 'Arial', 'Helvetica', 'Lucida Grande', 'Verdana', 'Geneva', 'Lucid', 'Avant Garde', sans-serif; text-anchor: end" x="24.68" y="114.239531" transform="rotate(-0 24.68 114.239531)">0.2</text>
     </g>
    </g>
    <g id="ytick_3">
     <g id="line2d_8">
      <g>
       <use xlink:href="#m1f5b0e7d04" x="31.68" y="93.816" style="stroke: #000000; stroke-width: 0.8"/>
      </g>
     </g>
     <g id="text_9">
      <text style="font: 6px 'DejaVu Sans', 'Arial', 'Helvetica', 'Lucida Grande', 'Verdana', 'Geneva', 'Lucid', 'Avant Garde', sans-serif; text-anchor: end" x="24.68" y="96.095531" transform="rotate(-0 24.68 96.095531)">0.4</text>
     </g>
    </g>
    <g id="ytick_4">
     <g id="line2d_9">
      <g>
       <use xlink:href="#m1f5b0e7d04" x="31.68" y="75.672" style="stroke: #000000; stroke-width: 0.8"/>
      </g>
     </g>
     <g id="text_10">
      <text style="font: 6px 'DejaVu Sans', 'Arial', 'Helvetica', 'Lucida Grande', 'Verdana', 'Geneva', 'Lucid', 'Avant Garde', sans-serif; text-anchor: end" x="24.68" y="77.951531" transform="rotate(-0 24.68 77.951531)">0.6</text>
     </g>
    </g>
    <g id="ytick_5">
     <g id="line2d_10">
      <g>
       <use xlink:href="#m1f5b0e7d04" x="31.68" y="57.528" style="stroke: #000000; stroke-width: 0.8"/>
      </g>
     </g>
     <g id="text_11">
      <text style="font: 6px 'DejaVu Sans', 'Arial', 'Helvetica', 'Lucida Grande', 'Verdana', 'Geneva', 'Lucid', 'Avant Garde', sans-serif; text-anchor: end" x="24.68" y="59.807531" transform="rotate(-0 24.68 59.807531)">0.8</text>
     </g>
    </g>
    <g id="ytick_6">
     <g id="line2d_11">
      <g>
       <use xlink:href="#m1f5b0e7d04" x="31.68" y="39.384" style="stroke: #000000; stroke-width: 0.8"/>
      </g>
     </g>
     <g id="text_12">
      <text style="font: 6px 'DejaVu Sans', 'Arial', 'Helvetica', 'Lucida Grande', 'Verdana', 'Geneva', 'Lucid', 'Avant Garde', sans-serif; text-anchor: end" x="24.68" y="41.663531" transform="rotate(-0 24.68 41.663531)">1.0</text>
     </g>
    </g>
    <g id="text_13">
     <text style="font: 6px 'DejaVu Sans', 'Arial', 'Helvetica', 'Lucida Grande', 'Verdana', 'Geneva', 'Lucid', 'Avant Garde', sans-serif; text-anchor: middle" x="9.890313" y="84.744" transform="rotate(-90 9.890313 84.744)">Intensity (AU)</text>
    </g>
   </g>
   <g id="line2d_12">
    <path d="M 29.4624 130.104 
L 46.6224 130.104 
L 46.9656 93.325622 
L 47.652 66.354811 
L 48.6816 39.384 
L 49.0248 68.806703 
L 49.368 78.61427 
L 49.7112 81.066162 
L 50.3976 90.87373 
L 50.7408 93.325622 
L 51.084 93.325622 
L 51.4272 95.777514 
L 51.7704 95.777514 
L 52.4568 100.681297 
L 53.1432 100.681297 
L 53.4864 103.133189 
L 53.8296 100.681297 
L 54.516 105.585081 
L 54.8592 103.133189 
L 55.2024 105.585081 
L 55.5456 105.585081 
L 55.8888 108.036973 
L 56.232 105.585081 
L 56.5752 105.585081 
L 56.9184 108.036973 
L 58.2912 108.036973 
L 58.6344 110.488865 
L 62.7528 110.488865 
L 63.096 112.940757 
L 63.4392 110.488865 
L 63.7824 110.488865 
L 64.1256 112.940757 
L 64.4688 112.940757 
L 64.812 110.488865 
L 65.1552 112.940757 
L 70.6464 112.940757 
L 70.9896 115.392649 
L 71.3328 112.940757 
L 71.676 115.392649 
L 72.0192 112.940757 
L 72.3624 115.392649 
L 72.7056 115.392649 
L 73.0488 112.940757 
L 73.392 115.392649 
L 73.7352 112.940757 
L 74.0784 115.392649 
L 74.4216 115.392649 
L 74.7648 112.940757 
L 75.108 115.392649 
L 75.7944 115.392649 
L 76.1376 112.940757 
L 76.4808 115.392649 
L 78.54 115.392649 
L 78.8832 112.940757 
L 79.2264 115.392649 
L 80.256 115.392649 
L 80.5992 112.940757 
L 80.9424 115.392649 
L 92.9544 115.392649 
L 93.2976 112.940757 
L 93.6408 115.392649 
L 94.6704 115.392649 
L 95.0136 112.940757 
L 95.3568 115.392649 
L 97.416 115.392649 
L 97.7592 112.940757 
L 98.1024 115.392649 
L 98.7888 115.392649 
L 99.132 112.940757 
L 99.4752 115.392649 
L 99.8184 115.392649 
L 100.1616 112.940757 
L 100.5048 115.392649 
L 100.848 112.940757 
L 101.1912 115.392649 
L 101.5344 115.392649 
L 101.8776 112.940757 
L 102.2208 115.392649 
L 102.564 112.940757 
L 102.9072 115.392649 
L 103.2504 112.940757 
L 108.7416 112.940757 
L 109.0848 110.488865 
L 109.428 112.940757 
L 109.7712 112.940757 
L 110.1144 110.488865 
L 110.4576 110.488865 
L 110.8008 112.940757 
L 111.144 110.488865 
L 115.2624 110.488865 
L 115.6056 108.036973 
L 116.9784 108.036973 
L 117.3216 105.585081 
L 117.6648 105.585081 
L 118.008 108.036973 
L 118.3512 105.585081 
L 118.6944 105.585081 
L 119.0376 103.133189 
L 119.3808 105.585081 
L 120.0672 100.681297 
L 120.4104 103.133189 
L 120.7536 100.681297 
L 121.44 100.681297 
L 122.1264 95.777514 
L 122.4696 95.777514 
L 122.8128 93.325622 
L 123.156 93.325622 
L 123.4992 90.87373 
L 124.1856 81.066162 
L 124.5288 78.61427 
L 124.872 68.806703 
L 125.2152 39.384 
L 126.588 78.61427 
L 126.9312 93.325622 
L 127.2744 130.104 
L 144.4344 130.104 
L 144.4344 130.104 
" clip-path="url(#p00ceb9c979)" style="fill: none; stroke: #808080; stroke-linecap: square"/>
   </g>
   <g id="line2d_13">
    <path d="M -1 128.211459 
L 9.9 126.340571 
L 12.3024 125.581431 
L 14.7048 124.563718 
L 17.7936 122.951997 
L 26.0304 118.296423 
L 27.7464 116.959352 
L 29.1192 115.540148 
L 30.1488 114.188995 
L 31.1784 112.524607 
L 32.208 110.495259 
L 33.2376 108.063086 
L 34.6104 104.132879 
L 35.9832 99.386088 
L 37.356 93.85691 
L 39.072 85.99809 
L 41.8176 72.087642 
L 44.5632 58.390403 
L 46.2792 51.009322 
L 47.652 46.195109 
L 48.6816 43.362594 
L 49.7112 41.268369 
L 50.3976 40.298555 
L 51.084 39.676818 
L 51.7704 39.397271 
L 52.4568 39.453806 
L 53.1432 39.83338 
L 53.8296 40.515026 
L 54.516 41.477659 
L 55.5456 43.383385 
L 56.9184 46.597587 
L 58.2912 50.404808 
L 63.096 64.621218 
L 64.4688 67.935189 
L 65.8416 70.672691 
L 66.8712 72.327104 
L 67.9008 73.648344 
L 68.9304 74.661521 
L 69.96 75.404203 
L 70.9896 75.922522 
L 72.3624 76.352234 
L 74.0784 76.636272 
L 78.54 77.244418 
L 81.6288 77.990962 
L 84.3744 78.618939 
L 86.0904 78.827125 
L 87.8064 78.827125 
L 89.5224 78.618939 
L 91.9248 78.079791 
L 96.0432 77.115014 
L 98.7888 76.750563 
L 101.5344 76.352234 
L 102.9072 75.922522 
L 103.9368 75.404203 
L 104.9664 74.661521 
L 105.996 73.648344 
L 107.0256 72.327104 
L 108.0552 70.672691 
L 109.428 67.935189 
L 110.8008 64.621218 
L 112.5168 59.818323 
L 117.3216 45.733637 
L 118.6944 42.692372 
L 119.724 40.962496 
L 120.4104 40.137243 
L 121.0968 39.604848 
L 121.7832 39.384 
L 122.4696 39.493412 
L 123.156 39.945048 
L 123.8424 40.740894 
L 124.5288 41.882056 
L 125.2152 43.362594 
L 126.2448 46.195109 
L 127.2744 49.704617 
L 128.6472 55.282979 
L 130.3632 63.349247 
L 136.5408 93.85691 
L 138.2568 100.648281 
L 139.6296 105.192562 
L 141.0024 108.923294 
L 142.3752 111.889648 
L 143.4048 113.669163 
L 144.4344 115.120847 
L 145.8072 116.640474 
L 147.18 117.804419 
L 148.896 118.951436 
L 152.328 120.859879 
L 159.4 124.661224 
L 159.4 124.661224 
" clip-path="url(#p00ceb9c979)" style="fill: none; stroke-dasharray: 3.7,1.6; stroke-dashoffset: 0; stroke: #ff0000"/>
   </g>
   <g id="line2d_14">
    <path d="M 46.728 130.104 
L 46.728 39.384 
" clip-path="url(#p00ceb9c979)" style="fill: none; stroke-dasharray: 1.5,2.475; stroke-dashoffset: 0; stroke: #000000; stroke-width: 1.5"/>
   </g>
   <g id="line2d_15">
    <path d="M 127.512 130.104 
L 127.512 39.384 
" clip-path="url(#p00ceb9c979)" style="fill: none; stroke-dasharray: 1.5,2.475; stroke-dashoffset: 0; stroke: #000000; stroke-width: 1.5"/>
   </g>
   <g id="line2d_16">
    <path d="M 29.4624 94.634649 
L 31.1784 91.963456 
L 32.8944 88.824216 
L 34.9536 84.546679 
L 37.0128 79.728356 
L 39.4152 73.53595 
L 45.2496 58.049824 
L 47.652 52.551779 
L 49.0248 49.90518 
L 50.7408 47.143134 
L 51.7704 45.819156 
L 52.8 44.791869 
L 54.1728 43.75675 
L 55.2024 43.237508 
L 56.232 42.962553 
L 57.2616 42.899322 
L 58.2912 43.026177 
L 59.664 43.44504 
L 61.0368 44.117381 
L 62.7528 45.238508 
L 64.812 46.884237 
L 67.9008 49.290616 
L 69.96 50.655929 
L 72.3624 51.993365 
L 74.0784 52.685129 
L 75.7944 53.160428 
L 78.1968 53.550881 
L 80.5992 53.717211 
L 84.7176 53.702351 
L 91.5816 53.376782 
L 93.984 52.995552 
L 96.3864 52.389128 
L 98.7888 51.546776 
L 100.848 50.549696 
L 102.2208 49.667186 
L 104.28 48.056705 
L 106.3392 46.196939 
L 110.4576 42.432956 
L 112.1736 41.10923 
L 113.5464 40.260613 
L 114.9192 39.673984 
L 115.9488 39.433145 
L 116.9784 39.396108 
L 118.008 39.59196 
L 119.0376 40.06397 
L 120.0672 40.80873 
L 121.44 42.140627 
L 122.4696 43.458002 
L 123.8424 45.664295 
L 125.5584 48.918311 
L 127.2744 52.836242 
L 129.3336 58.060887 
L 136.5408 77.300922 
L 138.6 81.975029 
L 140.6592 86.065996 
L 142.3752 89.040967 
L 143.748 91.050334 
L 144.4344 91.94313 
L 144.4344 91.94313 
" clip-path="url(#p00ceb9c979)" style="fill: none; stroke: #ff0000; stroke-linecap: square"/>
   </g>
   <g id="patch_3">
    <path d="M 31.68 134.64 
L 31.68 34.848 
" style="fill: none; stroke: #000000; stroke-width: 0.5; stroke-linejoin: miter; stroke-linecap: square"/>
   </g>
   <g id="patch_4">
    <path d="M 31.68 134.64 
L 142.56 134.64 
" style="fill: none; stroke: #000000; stroke-width: 0.5; stroke-linejoin: miter; stroke-linecap: square"/>
   </g>
   <g id="legend_1">
    <g id="patch_5">
     <path d="M 53.078437 98.866969 
L 121.161562 98.866969 
Q 122.361562 98.866969 122.361562 97.666969 
L 122.361562 71.821031 
Q 122.361562 70.621031 121.161562 70.621031 
L 53.078437 70.621031 
Q 51.878437 70.621031 51.878437 71.821031 
L 51.878437 97.666969 
Q 51.878437 98.866969 53.078437 98.866969 
z
" style="fill: #ffffff; opacity: 0.8; stroke: #cccccc; stroke-linejoin: miter"/>
    </g>
    <g id="line2d_17">
     <path d="M 54.278437 75.480094 
L 60.278437 75.480094 
L 66.278437 75.480094 
" style="fill: none; stroke: #808080; stroke-linecap: square"/>
    </g>
    <g id="text_14">
     <text style="font: 6px 'DejaVu Sans', 'Arial', 'Helvetica', 'Lucida Grande', 'Verdana', 'Geneva', 'Lucid', 'Avant Garde', sans-serif; text-anchor: start" x="71.078437" y="77.580094" transform="rotate(-0 71.078437 77.580094)">Projected profile</text>
    </g>
    <g id="line2d_18">
     <path d="M 54.278437 84.286969 
L 60.278437 84.286969 
L 66.278437 84.286969 
" style="fill: none; stroke-dasharray: 3.7,1.6; stroke-dashoffset: 0; stroke: #ff0000"/>
    </g>
    <g id="text_15">
     <!-- 0.7 $\mu m$ tPSF -->
     <g transform="translate(71.078437 86.386969)">
      <text>
       <tspan style="font: 6px 'DejaVu Sans'" x="0 3.817383 5.224609 9.041992 20.611328 22.518555 24.871094 28.489258 32.297852" y="-0.546875">0.7  tPSF</tspan>
       <tspan style="font: oblique 6px 'DejaVu Sans'" x="10.949219 14.766602" y="-0.546875">μm</tspan>
      </text>
     </g>
    </g>
    <g id="line2d_19">
     <path d="M 54.278437 93.106969 
L 60.278437 93.106969 
L 66.278437 93.106969 
" style="fill: none; stroke: #ff0000; stroke-linecap: square"/>
    </g>
    <g id="text_16">
     <!-- 0.7 $\mu m$ iPSF -->
     <g transform="translate(71.078437 95.206969)">
      <text>
       <tspan style="font: 6px 'DejaVu Sans'" x="0 3.817383 5.224609 9.041992 20.611328 22.518555 24.185547 27.803711 31.612305" y="-0.4375">0.7  iPSF</tspan>
       <tspan style="font: oblique 6px 'DejaVu Sans'" x="10.949219 14.766602" y="-0.4375">μm</tspan>
      </text>
     </g>
    </g>
   </g>
  </g>
  <g id="text_17">
   <text style="font: 700 6px 'DejaVu Sans', 'Arial', 'Helvetica', 'Lucida Grande', 'Verdana', 'Geneva', 'Lucid', 'Avant Garde', sans-serif" transform="translate(40.493438 7.727063)">Distortion of interpeak</text>
   <text style="font: 700 6px 'DejaVu Sans', 'Arial', 'Helvetica', 'Lucida Grande', 'Verdana', 'Geneva', 'Lucid', 'Avant Garde', sans-serif" transform="translate(29.874375 14.44575)">distance width measurement</text>
  </g>
 </g>
 <defs>
  <clipPath id="p00ceb9c979">
   <rect x="31.68" y="34.848" width="110.88" height="99.792"/>
  </clipPath>
 </defs>
</svg>
