<?xml version="1.0" encoding="utf-8" standalone="no"?>
<!DOCTYPE svg PUBLIC "-//W3C//DTD SVG 1.1//EN"
  "http://www.w3.org/Graphics/SVG/1.1/DTD/svg11.dtd">
<svg xmlns:xlink="http://www.w3.org/1999/xlink" width="158.4pt" height="158.4pt" viewBox="0 0 158.4 158.4" xmlns="http://www.w3.org/2000/svg" version="1.1">
 <metadata>
  <rdf:RDF xmlns:dc="http://purl.org/dc/elements/1.1/" xmlns:cc="http://creativecommons.org/ns#" xmlns:rdf="http://www.w3.org/1999/02/22-rdf-syntax-ns#">
   <cc:Work>
    <dc:type rdf:resource="http://purl.org/dc/dcmitype/StillImage"/>
    <dc:date>2024-01-31T14:07:34.252708</dc:date>
    <dc:format>image/svg+xml</dc:format>
    <dc:creator>
     <cc:Agent>
      <dc:title>Matplotlib v3.8.2, https://matplotlib.org/</dc:title>
     </cc:Agent>
    </dc:creator>
   </cc:Work>
  </rdf:RDF>
 </metadata>
 <defs>
  <style type="text/css">*{stroke-linejoin: round; stroke-linecap: butt}</style>
 </defs>
 <g id="figure_1">
  <g id="patch_1">
   <path d="M 0 158.4 
L 158.4 158.4 
L 158.4 0 
L 0 0 
L 0 158.4 
z
" style="fill: none"/>
  </g>
  <g id="axes_1">
   <g id="patch_2">
    <path d="M 31.68 134.64 
L 142.56 134.64 
L 142.56 34.848 
L 31.68 34.848 
L 31.68 134.64 
z
" style="fill: none"/>
   </g>
   <g id="PathCollection_1">
    <defs>
     <path id="me1654c73e0" d="M 0 1.5 
C 0.397805 1.5 0.77937 1.341951 1.06066 1.06066 
C 1.341951 0.77937 1.5 0.397805 1.5 0 
C 1.5 -0.397805 1.341951 -0.77937 1.06066 -1.06066 
C 0.77937 -1.341951 0.397805 -1.5 0 -1.5 
C -0.397805 -1.5 -0.77937 -1.341951 -1.06066 -1.06066 
C -1.341951 -0.77937 -1.5 -0.397805 -1.5 0 
C -1.5 0.397805 -1.341951 0.77937 -1.06066 1.06066 
C -0.77937 1.341951 -0.397805 1.5 0 1.5 
z
" style="stroke: #ff0000"/>
    </defs>
    <g clip-path="url(#pa351c8a680)">
     <use xlink:href="#me1654c73e0" x="58.5376" y="39.384" style="fill: #ff0000; stroke: #ff0000"/>
    </g>
   </g>
   <g id="PathCollection_2">
    <defs>
     <path id="me650a8b4c2" d="M 0 1.5 
C 0.397805 1.5 0.77937 1.341951 1.06066 1.06066 
C 1.341951 0.77937 1.5 0.397805 1.5 0 
C 1.5 -0.397805 1.341951 -0.77937 1.06066 -1.06066 
C 0.77937 -1.341951 0.397805 -1.5 0 -1.5 
C -0.397805 -1.5 -0.77937 -1.341951 -1.06066 -1.06066 
C -1.341951 -0.77937 -1.5 -0.397805 -1.5 0 
C -1.5 0.397805 -1.341951 0.77937 -1.06066 1.06066 
C -0.77937 1.341951 -0.397805 1.5 0 1.5 
z
" style="stroke: #008000"/>
    </defs>
    <g clip-path="url(#pa351c8a680)">
     <use xlink:href="#me650a8b4c2" x="80.96" y="39.384" style="fill: #008000; stroke: #008000"/>
    </g>
   </g>
   <g id="matplotlib.axis_1">
    <g id="xtick_1">
     <g id="line2d_1">
      <defs>
       <path id="m1f9b1c8e44" d="M 0 0 
L 0 3.5 
" style="stroke: #000000; stroke-width: 0.8"/>
      </defs>
      <g>
       <use xlink:href="#m1f9b1c8e44" x="31.68" y="134.64" style="stroke: #000000; stroke-width: 0.8"/>
      </g>
     </g>
     <g id="text_1">
      <text style="font: 6px 'DejaVu Sans', 'Arial', 'Helvetica', 'Lucida Grande', 'Verdana', 'Geneva', 'Lucid', 'Avant Garde', sans-serif; text-anchor: middle" x="31.68" y="146.199062" transform="rotate(-0 31.68 146.199062)">0.30</text>
     </g>
    </g>
    <g id="xtick_2">
     <g id="line2d_2">
      <g>
       <use xlink:href="#m1f9b1c8e44" x="50.16" y="134.64" style="stroke: #000000; stroke-width: 0.8"/>
      </g>
     </g>
     <g id="text_2">
      <text style="font: 6px 'DejaVu Sans', 'Arial', 'Helvetica', 'Lucida Grande', 'Verdana', 'Geneva', 'Lucid', 'Avant Garde', sans-serif; text-anchor: middle" x="50.16" y="146.199062" transform="rotate(-0 50.16 146.199062)">0.35</text>
     </g>
    </g>
    <g id="xtick_3">
     <g id="line2d_3">
      <g>
       <use xlink:href="#m1f9b1c8e44" x="68.64" y="134.64" style="stroke: #000000; stroke-width: 0.8"/>
      </g>
     </g>
     <g id="text_3">
      <text style="font: 6px 'DejaVu Sans', 'Arial', 'Helvetica', 'Lucida Grande', 'Verdana', 'Geneva', 'Lucid', 'Avant Garde', sans-serif; text-anchor: middle" x="68.64" y="146.199062" transform="rotate(-0 68.64 146.199062)">0.40</text>
     </g>
    </g>
    <g id="xtick_4">
     <g id="line2d_4">
      <g>
       <use xlink:href="#m1f9b1c8e44" x="87.12" y="134.64" style="stroke: #000000; stroke-width: 0.8"/>
      </g>
     </g>
     <g id="text_4">
      <text style="font: 6px 'DejaVu Sans', 'Arial', 'Helvetica', 'Lucida Grande', 'Verdana', 'Geneva', 'Lucid', 'Avant Garde', sans-serif; text-anchor: middle" x="87.12" y="146.199062" transform="rotate(-0 87.12 146.199062)">0.45</text>
     </g>
    </g>
    <g id="xtick_5">
     <g id="line2d_5">
      <g>
       <use xlink:href="#m1f9b1c8e44" x="105.6" y="134.64" style="stroke: #000000; stroke-width: 0.8"/>
      </g>
     </g>
     <g id="text_5">
      <text style="font: 6px 'DejaVu Sans', 'Arial', 'Helvetica', 'Lucida Grande', 'Verdana', 'Geneva', 'Lucid', 'Avant Garde', sans-serif; text-anchor: middle" x="105.6" y="146.199062" transform="rotate(-0 105.6 146.199062)">0.50</text>
     </g>
    </g>
    <g id="xtick_6">
     <g id="line2d_6">
      <g>
       <use xlink:href="#m1f9b1c8e44" x="124.08" y="134.64" style="stroke: #000000; stroke-width: 0.8"/>
      </g>
     </g>
     <g id="text_6">
      <text style="font: 6px 'DejaVu Sans', 'Arial', 'Helvetica', 'Lucida Grande', 'Verdana', 'Geneva', 'Lucid', 'Avant Garde', sans-serif; text-anchor: middle" x="124.08" y="146.199062" transform="rotate(-0 124.08 146.199062)">0.55</text>
     </g>
    </g>
    <g id="xtick_7">
     <g id="line2d_7">
      <g>
       <use xlink:href="#m1f9b1c8e44" x="142.56" y="134.64" style="stroke: #000000; stroke-width: 0.8"/>
      </g>
     </g>
     <g id="text_7">
      <text style="font: 6px 'DejaVu Sans', 'Arial', 'Helvetica', 'Lucida Grande', 'Verdana', 'Geneva', 'Lucid', 'Avant Garde', sans-serif; text-anchor: middle" x="142.56" y="146.199062" transform="rotate(-0 142.56 146.199062)">0.60</text>
     </g>
    </g>
    <g id="text_8">
     <!-- Distance ($\mu m$) -->
     <g transform="translate(65.85 156.006875)">
      <text>
       <tspan style="font: 6px 'DejaVu Sans'" x="0 4.620117 6.287109 9.413086 11.765625 15.442383 19.245117 22.543945 26.235352 28.142578 40.145508" y="-0.4375">Distance ()</tspan>
       <tspan style="font: oblique 6px 'DejaVu Sans'" x="30.483398 34.300781" y="-0.4375">μm</tspan>
      </text>
     </g>
    </g>
   </g>
   <g id="matplotlib.axis_2">
    <g id="ytick_1">
     <g id="line2d_8">
      <defs>
       <path id="mbe8f6b1a59" d="M 0 0 
L -3.5 0 
" style="stroke: #000000; stroke-width: 0.8"/>
      </defs>
      <g>
       <use xlink:href="#mbe8f6b1a59" x="31.68" y="130.104" style="stroke: #000000; stroke-width: 0.8"/>
      </g>
     </g>
     <g id="text_9">
      <text style="font: 6px 'DejaVu Sans', 'Arial', 'Helvetica', 'Lucida Grande', 'Verdana', 'Geneva', 'Lucid', 'Avant Garde', sans-serif; text-anchor: end" x="24.68" y="132.383531" transform="rotate(-0 24.68 132.383531)">0.0</text>
     </g>
    </g>
    <g id="ytick_2">
     <g id="line2d_9">
      <g>
       <use xlink:href="#mbe8f6b1a59" x="31.68" y="111.96" style="stroke: #000000; stroke-width: 0.8"/>
      </g>
     </g>
     <g id="text_10">
      <text style="font: 6px 'DejaVu Sans', 'Arial', 'Helvetica', 'Lucida Grande', 'Verdana', 'Geneva', 'Lucid', 'Avant Garde', sans-serif; text-anchor: end" x="24.68" y="114.239531" transform="rotate(-0 24.68 114.239531)">0.2</text>
     </g>
    </g>
    <g id="ytick_3">
     <g id="line2d_10">
      <g>
       <use xlink:href="#mbe8f6b1a59" x="31.68" y="93.816" style="stroke: #000000; stroke-width: 0.8"/>
      </g>
     </g>
     <g id="text_11">
      <text style="font: 6px 'DejaVu Sans', 'Arial', 'Helvetica', 'Lucida Grande', 'Verdana', 'Geneva', 'Lucid', 'Avant Garde', sans-serif; text-anchor: end" x="24.68" y="96.095531" transform="rotate(-0 24.68 96.095531)">0.4</text>
     </g>
    </g>
    <g id="ytick_4">
     <g id="line2d_11">
      <g>
       <use xlink:href="#mbe8f6b1a59" x="31.68" y="75.672" style="stroke: #000000; stroke-width: 0.8"/>
      </g>
     </g>
     <g id="text_12">
      <text style="font: 6px 'DejaVu Sans', 'Arial', 'Helvetica', 'Lucida Grande', 'Verdana', 'Geneva', 'Lucid', 'Avant Garde', sans-serif; text-anchor: end" x="24.68" y="77.951531" transform="rotate(-0 24.68 77.951531)">0.6</text>
     </g>
    </g>
    <g id="ytick_5">
     <g id="line2d_12">
      <g>
       <use xlink:href="#mbe8f6b1a59" x="31.68" y="57.528" style="stroke: #000000; stroke-width: 0.8"/>
      </g>
     </g>
     <g id="text_13">
      <text style="font: 6px 'DejaVu Sans', 'Arial', 'Helvetica', 'Lucida Grande', 'Verdana', 'Geneva', 'Lucid', 'Avant Garde', sans-serif; text-anchor: end" x="24.68" y="59.807531" transform="rotate(-0 24.68 59.807531)">0.8</text>
     </g>
    </g>
    <g id="ytick_6">
     <g id="line2d_13">
      <g>
       <use xlink:href="#mbe8f6b1a59" x="31.68" y="39.384" style="stroke: #000000; stroke-width: 0.8"/>
      </g>
     </g>
     <g id="text_14">
      <text style="font: 6px 'DejaVu Sans', 'Arial', 'Helvetica', 'Lucida Grande', 'Verdana', 'Geneva', 'Lucid', 'Avant Garde', sans-serif; text-anchor: end" x="24.68" y="41.663531" transform="rotate(-0 24.68 41.663531)">1.0</text>
     </g>
    </g>
    <g id="text_15">
     <text style="font: 6px 'DejaVu Sans', 'Arial', 'Helvetica', 'Lucida Grande', 'Verdana', 'Geneva', 'Lucid', 'Avant Garde', sans-serif; text-anchor: middle" x="9.890313" y="84.744" transform="rotate(-90 9.890313 84.744)">Intensity (AU)</text>
    </g>
   </g>
   <g id="line2d_14">
    <path d="M -1 112.940757 
L 21.7008 112.940757 
L 23.3024 110.488865 
L 24.904 112.940757 
L 26.5056 112.940757 
L 28.1072 110.488865 
L 29.7088 110.488865 
L 31.3104 112.940757 
L 32.912 110.488865 
L 52.1312 110.488865 
L 53.7328 108.036973 
L 60.1392 108.036973 
L 61.7408 105.585081 
L 63.3424 105.585081 
L 64.944 108.036973 
L 66.5456 105.585081 
L 68.1472 105.585081 
L 69.7488 103.133189 
L 71.3504 105.585081 
L 74.5536 100.681297 
L 76.1552 103.133189 
L 77.7568 100.681297 
L 80.96 100.681297 
L 84.1632 95.777514 
L 85.7648 95.777514 
L 87.3664 93.325622 
L 88.968 93.325622 
L 90.5696 90.87373 
L 93.7728 81.066162 
L 95.3744 78.61427 
L 96.976 68.806703 
L 98.5776 39.384 
L 100.1792 49.191568 
L 101.7808 56.547243 
L 103.3824 66.354811 
L 104.984 78.61427 
L 106.5856 93.325622 
L 108.1872 130.104 
L 159.4 130.104 
L 159.4 130.104 
" clip-path="url(#pa351c8a680)" style="fill: none; stroke: #808080; stroke-linecap: square"/>
   </g>
   <g id="line2d_15">
    <path d="M -1 48.386835 
L 5.6848 47.157418 
L 32.912 41.874644 
L 40.92 40.656668 
L 47.3264 39.93264 
L 52.1312 39.57284 
L 56.936 39.39666 
L 61.7408 39.434001 
L 66.5456 39.716267 
L 71.3504 40.284555 
L 76.1552 41.107036 
L 80.96 42.140627 
L 85.7648 43.458002 
L 90.5696 45.074977 
L 96.976 47.540884 
L 101.7808 49.65286 
L 106.5856 52.012064 
L 114.5936 56.2496 
L 121 59.931005 
L 140.2192 71.180772 
L 148.2272 75.619055 
L 154.6336 78.921819 
L 159.4 81.217047 
L 159.4 81.217047 
" clip-path="url(#pa351c8a680)" style="fill: none; stroke: #ff0000; stroke-linecap: square"/>
   </g>
   <g id="line2d_16">
    <path d="M 58.5376 130.104 
L 58.5376 39.384 
" clip-path="url(#pa351c8a680)" style="fill: none; stroke: #ff0000; stroke-opacity: 0.3; stroke-linecap: square"/>
   </g>
   <g id="line2d_17">
    <path d="M -1 59.440255 
L 5.6848 58.766828 
L 12.0912 57.900419 
L 18.4976 56.802346 
L 23.3024 55.736616 
L 29.7088 54.044803 
L 34.5136 52.63619 
L 39.3184 51.0108 
L 55.3344 45.078832 
L 61.7408 42.819824 
L 66.5456 41.422346 
L 69.7488 40.672295 
L 72.952 40.083851 
L 76.1552 39.66416 
L 79.3584 39.426384 
L 82.5616 39.40523 
L 85.7648 39.659697 
L 88.968 40.176697 
L 92.1712 40.918503 
L 95.3744 41.840387 
L 98.5776 42.99013 
L 101.7808 44.457149 
L 104.984 46.212684 
L 109.7888 49.206551 
L 114.5936 52.469302 
L 119.3984 56.134218 
L 130.6096 65.345763 
L 141.8208 74.490445 
L 146.6256 78.132507 
L 151.4304 81.481593 
L 156.2352 84.554397 
L 159.4 86.450681 
L 159.4 86.450681 
" clip-path="url(#pa351c8a680)" style="fill: none; stroke: #008000; stroke-linecap: square"/>
   </g>
   <g id="line2d_18">
    <path d="M 80.96 130.104 
L 80.96 39.384 
" clip-path="url(#pa351c8a680)" style="fill: none; stroke: #008000; stroke-opacity: 0.3; stroke-linecap: square"/>
   </g>
   <g id="line2d_19">
    <path clip-path="url(#pa351c8a680)" style="fill: none; stroke-dasharray: 1.5,2.475; stroke-dashoffset: 0; stroke: #000000; stroke-width: 1.5"/>
   </g>
   <g id="line2d_20">
    <path d="M 109.296 130.104 
L 109.296 39.384 
" clip-path="url(#pa351c8a680)" style="fill: none; stroke-dasharray: 1.5,2.475; stroke-dashoffset: 0; stroke: #000000; stroke-width: 1.5"/>
   </g>
   <g id="patch_3">
    <path d="M 31.68 134.64 
L 31.68 34.848 
" style="fill: none; stroke: #000000; stroke-width: 0.5; stroke-linejoin: miter; stroke-linecap: square"/>
   </g>
   <g id="patch_4">
    <path d="M 31.68 134.64 
L 142.56 134.64 
" style="fill: none; stroke: #000000; stroke-width: 0.5; stroke-linejoin: miter; stroke-linecap: square"/>
   </g>
   <g id="legend_1">
    <g id="patch_5">
     <path d="M 35.88 98.867437 
L 103.963125 98.867437 
Q 105.163125 98.867437 105.163125 97.667437 
L 105.163125 71.820562 
Q 105.163125 70.620562 103.963125 70.620562 
L 35.88 70.620562 
Q 34.68 70.620562 34.68 71.820562 
L 34.68 97.667437 
Q 34.68 98.867437 35.88 98.867437 
z
" style="fill: #ffffff; opacity: 0.8; stroke: #cccccc; stroke-linejoin: miter"/>
    </g>
    <g id="line2d_21">
     <path d="M 37.08 75.479625 
L 43.08 75.479625 
L 49.08 75.479625 
" style="fill: none; stroke: #808080; stroke-linecap: square"/>
    </g>
    <g id="text_16">
     <text style="font: 6px 'DejaVu Sans', 'Arial', 'Helvetica', 'Lucida Grande', 'Verdana', 'Geneva', 'Lucid', 'Avant Garde', sans-serif; text-anchor: start" x="53.88" y="77.579625" transform="rotate(-0 53.88 77.579625)">Projected profile</text>
    </g>
    <g id="line2d_22">
     <path d="M 37.08 84.287437 
L 43.08 84.287437 
L 49.08 84.287437 
" style="fill: none; stroke: #ff0000; stroke-linecap: square"/>
    </g>
    <g id="text_17">
     <!-- 0.7 $\mu m$ iPSF -->
     <g transform="translate(53.88 86.387437)">
      <text>
       <tspan style="font: 6px 'DejaVu Sans'" x="0 3.817383 5.224609 9.041992 20.611328 22.518555 24.185547 27.803711 31.612305" y="-0.4375">0.7  iPSF</tspan>
       <tspan style="font: oblique 6px 'DejaVu Sans'" x="10.949219 14.766602" y="-0.4375">μm</tspan>
      </text>
     </g>
    </g>
    <g id="line2d_23">
     <path d="M 37.08 93.107438 
L 43.08 93.107438 
L 49.08 93.107438 
" style="fill: none; stroke: #008000; stroke-linecap: square"/>
    </g>
    <g id="text_18">
     <!-- 0.5 $\mu m$ iPSF -->
     <g transform="translate(53.88 95.207437)">
      <text>
       <tspan style="font: 6px 'DejaVu Sans'" x="0 3.817383 5.724609 9.541992 21.111328 23.018555 24.685547 28.303711 32.112305" y="-0.4375">0.5  iPSF</tspan>
       <tspan style="font: oblique 6px 'DejaVu Sans'" x="11.449219 15.266602" y="-0.4375">μm</tspan>
      </text>
     </g>
    </g>
   </g>
  </g>
  <g id="text_19">
   <text style="font: 700 6px 'DejaVu Sans', 'Arial', 'Helvetica', 'Lucida Grande', 'Verdana', 'Geneva', 'Lucid', 'Avant Garde', sans-serif; text-anchor: middle" x="79.2" y="7.727063" transform="rotate(-0 79.2 7.727063)">c) Effect of PSF size on observed profile</text>
  </g>
 </g>
 <defs>
  <clipPath id="pa351c8a680">
   <rect x="31.68" y="34.848" width="110.88" height="99.792"/>
  </clipPath>
 </defs>
</svg>
