<?xml version="1.0" encoding="utf-8" standalone="no"?>
<!DOCTYPE svg PUBLIC "-//W3C//DTD SVG 1.1//EN"
  "http://www.w3.org/Graphics/SVG/1.1/DTD/svg11.dtd">
<svg xmlns:xlink="http://www.w3.org/1999/xlink" width="144pt" height="144pt" viewBox="0 0 144 144" xmlns="http://www.w3.org/2000/svg" version="1.1">
 <metadata>
  <rdf:RDF xmlns:dc="http://purl.org/dc/elements/1.1/" xmlns:cc="http://creativecommons.org/ns#" xmlns:rdf="http://www.w3.org/1999/02/22-rdf-syntax-ns#">
   <cc:Work>
    <dc:type rdf:resource="http://purl.org/dc/dcmitype/StillImage"/>
    <dc:date>2023-10-23T00:46:39.118264</dc:date>
    <dc:format>image/svg+xml</dc:format>
    <dc:creator>
     <cc:Agent>
      <dc:title>Matplotlib v3.7.2, https://matplotlib.org/</dc:title>
     </cc:Agent>
    </dc:creator>
   </cc:Work>
  </rdf:RDF>
 </metadata>
 <defs>
  <style type="text/css">*{stroke-linejoin: round; stroke-linecap: butt}</style>
 </defs>
 <g id="figure_1">
  <g id="patch_1">
   <path d="M 0 144 
L 144 144 
L 144 0 
L 0 0 
L 0 144 
z
" style="fill: none"/>
  </g>
  <g id="axes_1"/>
  <g id="legend_1">
   <g id="patch_2">
    <path d="M 44.67 99.327187 
L 99.33 99.327187 
Q 100.53 99.327187 100.53 98.127187 
L 100.53 45.872812 
Q 100.53 44.672812 99.33 44.672812 
L 44.67 44.672812 
Q 43.47 44.672812 43.47 45.872812 
L 43.47 98.127187 
Q 43.47 99.327187 44.67 99.327187 
z
" style="fill: #ffffff; opacity: 0.8; stroke: #cccccc; stroke-linejoin: miter"/>
   </g>
   <g id="text_1">
    <!-- Wavelength ($\mu m$) -->
    <g transform="translate(45.87 51.632812)">
     <text>
      <tspan style="font: 6px 'DejaVu Sans'" x="0 5.932617 9.609375 13.160156 16.851562 18.518555 22.209961 26.012695 29.821289 32.173828 35.976562 37.883789 49.886719" y="-0.4375">Wavelength ()</tspan>
      <tspan style="font: oblique 6px 'DejaVu Sans'" x="40.224609 44.041992" y="-0.4375">μm</tspan>
     </text>
    </g>
   </g>
   <g id="line2d_1">
    <path d="M 58.829062 58.351875 
L 64.829062 58.351875 
L 70.829062 58.351875 
" style="fill: none; stroke: #000000; stroke-linecap: square"/>
   </g>
   <g id="text_2">
    <text style="font: 6px 'DejaVu Sans', 'Arial', 'Helvetica', 'Lucida Grande', 'Verdana', 'Geneva', 'Lucid', 'Avant Garde', sans-serif; text-anchor: start" x="75.629062" y="60.451875" transform="rotate(-0 75.629062 60.451875)">0.0</text>
   </g>
   <g id="line2d_2">
    <path d="M 58.829062 67.15875 
L 64.829062 67.15875 
L 70.829062 67.15875 
" style="fill: none; stroke: #0000ff; stroke-linecap: square"/>
   </g>
   <g id="text_3">
    <text style="font: 6px 'DejaVu Sans', 'Arial', 'Helvetica', 'Lucida Grande', 'Verdana', 'Geneva', 'Lucid', 'Avant Garde', sans-serif; text-anchor: start" x="75.629062" y="69.25875" transform="rotate(-0 75.629062 69.25875)">0.4</text>
   </g>
   <g id="line2d_3">
    <path d="M 58.829062 75.965625 
L 64.829062 75.965625 
L 70.829062 75.965625 
" style="fill: none; stroke: #008000; stroke-linecap: square"/>
   </g>
   <g id="text_4">
    <text style="font: 6px 'DejaVu Sans', 'Arial', 'Helvetica', 'Lucida Grande', 'Verdana', 'Geneva', 'Lucid', 'Avant Garde', sans-serif; text-anchor: start" x="75.629062" y="78.065625" transform="rotate(-0 75.629062 78.065625)">0.5</text>
   </g>
   <g id="line2d_4">
    <path d="M 58.829062 84.7725 
L 64.829062 84.7725 
L 70.829062 84.7725 
" style="fill: none; stroke: #ffa500; stroke-linecap: square"/>
   </g>
   <g id="text_5">
    <text style="font: 6px 'DejaVu Sans', 'Arial', 'Helvetica', 'Lucida Grande', 'Verdana', 'Geneva', 'Lucid', 'Avant Garde', sans-serif; text-anchor: start" x="75.629062" y="86.8725" transform="rotate(-0 75.629062 86.8725)">0.6</text>
   </g>
   <g id="line2d_5">
    <path d="M 58.829062 93.579375 
L 64.829062 93.579375 
L 70.829062 93.579375 
" style="fill: none; stroke: #ff0000; stroke-linecap: square"/>
   </g>
   <g id="text_6">
    <text style="font: 6px 'DejaVu Sans', 'Arial', 'Helvetica', 'Lucida Grande', 'Verdana', 'Geneva', 'Lucid', 'Avant Garde', sans-serif; text-anchor: start" x="75.629062" y="95.679375" transform="rotate(-0 75.629062 95.679375)">0.7</text>
   </g>
  </g>
 </g>
</svg>
