<?xml version="1.0" encoding="utf-8" standalone="no"?>
<!DOCTYPE svg PUBLIC "-//W3C//DTD SVG 1.1//EN"
  "http://www.w3.org/Graphics/SVG/1.1/DTD/svg11.dtd">
<svg xmlns:xlink="http://www.w3.org/1999/xlink" width="158.4pt" height="158.4pt" viewBox="0 0 158.4 158.4" xmlns="http://www.w3.org/2000/svg" version="1.1">
 <metadata>
  <rdf:RDF xmlns:dc="http://purl.org/dc/elements/1.1/" xmlns:cc="http://creativecommons.org/ns#" xmlns:rdf="http://www.w3.org/1999/02/22-rdf-syntax-ns#">
   <cc:Work>
    <dc:type rdf:resource="http://purl.org/dc/dcmitype/StillImage"/>
    <dc:date>2023-11-29T12:42:09.619215</dc:date>
    <dc:format>image/svg+xml</dc:format>
    <dc:creator>
     <cc:Agent>
      <dc:title>Matplotlib v3.8.2, https://matplotlib.org/</dc:title>
     </cc:Agent>
    </dc:creator>
   </cc:Work>
  </rdf:RDF>
 </metadata>
 <defs>
  <style type="text/css">*{stroke-linejoin: round; stroke-linecap: butt}</style>
 </defs>
 <g id="figure_1">
  <g id="patch_1">
   <path d="M 0 158.4 
L 158.4 158.4 
L 158.4 0 
L 0 0 
L 0 158.4 
z
" style="fill: none"/>
  </g>
  <g id="axes_1">
   <g id="patch_2">
    <path d="M 31.68 134.64 
L 142.56 134.64 
L 142.56 34.848 
L 31.68 34.848 
L 31.68 134.64 
z
" style="fill: none"/>
   </g>
   <g id="PathCollection_1">
    <defs>
     <path id="m9b05996072" d="M 0 1.5 
C 0.397805 1.5 0.77937 1.341951 1.06066 1.06066 
C 1.341951 0.77937 1.5 0.397805 1.5 0 
C 1.5 -0.397805 1.341951 -0.77937 1.06066 -1.06066 
C 0.77937 -1.341951 0.397805 -1.5 0 -1.5 
C -0.397805 -1.5 -0.77937 -1.341951 -1.06066 -1.06066 
C -1.341951 -0.77937 -1.5 -0.397805 -1.5 0 
C -1.5 0.397805 -1.341951 0.77937 -1.06066 1.06066 
C -0.77937 1.341951 -0.397805 1.5 0 1.5 
z
" style="stroke: #ff0000"/>
    </defs>
    <g clip-path="url(#pf29e52d961)">
     <use xlink:href="#m9b05996072" x="-1" y="39.384" style="fill: #ff0000; stroke: #ff0000"/>
     <use xlink:href="#m9b05996072" x="81.576" y="39.384" style="fill: #ff0000; stroke: #ff0000"/>
    </g>
   </g>
   <g id="PathCollection_2">
    <g clip-path="url(#pf29e52d961)">
     <use xlink:href="#m9b05996072" x="-1" y="39.991823" style="fill: #ff0000; stroke: #ff0000"/>
     <use xlink:href="#m9b05996072" x="71.9664" y="39.384" style="fill: #ff0000; stroke: #ff0000"/>
    </g>
   </g>
   <g id="matplotlib.axis_1">
    <g id="xtick_1">
     <g id="line2d_1">
      <defs>
       <path id="m67b2fc5f54" d="M 0 0 
L 0 3.5 
" style="stroke: #000000; stroke-width: 0.8"/>
      </defs>
      <g>
       <use xlink:href="#m67b2fc5f54" x="31.68" y="134.64" style="stroke: #000000; stroke-width: 0.8"/>
      </g>
     </g>
     <g id="text_1">
      <text style="font: 6px 'DejaVu Sans', 'Arial', 'Helvetica', 'Lucida Grande', 'Verdana', 'Geneva', 'Lucid', 'Avant Garde', sans-serif; text-anchor: middle" x="31.68" y="146.199062" transform="rotate(-0 31.68 146.199062)">0.30</text>
     </g>
    </g>
    <g id="xtick_2">
     <g id="line2d_2">
      <g>
       <use xlink:href="#m67b2fc5f54" x="59.4" y="134.64" style="stroke: #000000; stroke-width: 0.8"/>
      </g>
     </g>
     <g id="text_2">
      <text style="font: 6px 'DejaVu Sans', 'Arial', 'Helvetica', 'Lucida Grande', 'Verdana', 'Geneva', 'Lucid', 'Avant Garde', sans-serif; text-anchor: middle" x="59.4" y="146.199062" transform="rotate(-0 59.4 146.199062)">0.35</text>
     </g>
    </g>
    <g id="xtick_3">
     <g id="line2d_3">
      <g>
       <use xlink:href="#m67b2fc5f54" x="87.12" y="134.64" style="stroke: #000000; stroke-width: 0.8"/>
      </g>
     </g>
     <g id="text_3">
      <text style="font: 6px 'DejaVu Sans', 'Arial', 'Helvetica', 'Lucida Grande', 'Verdana', 'Geneva', 'Lucid', 'Avant Garde', sans-serif; text-anchor: middle" x="87.12" y="146.199062" transform="rotate(-0 87.12 146.199062)">0.40</text>
     </g>
    </g>
    <g id="xtick_4">
     <g id="line2d_4">
      <g>
       <use xlink:href="#m67b2fc5f54" x="114.84" y="134.64" style="stroke: #000000; stroke-width: 0.8"/>
      </g>
     </g>
     <g id="text_4">
      <text style="font: 6px 'DejaVu Sans', 'Arial', 'Helvetica', 'Lucida Grande', 'Verdana', 'Geneva', 'Lucid', 'Avant Garde', sans-serif; text-anchor: middle" x="114.84" y="146.199062" transform="rotate(-0 114.84 146.199062)">0.45</text>
     </g>
    </g>
    <g id="xtick_5">
     <g id="line2d_5">
      <g>
       <use xlink:href="#m67b2fc5f54" x="142.56" y="134.64" style="stroke: #000000; stroke-width: 0.8"/>
      </g>
     </g>
     <g id="text_5">
      <text style="font: 6px 'DejaVu Sans', 'Arial', 'Helvetica', 'Lucida Grande', 'Verdana', 'Geneva', 'Lucid', 'Avant Garde', sans-serif; text-anchor: middle" x="142.56" y="146.199062" transform="rotate(-0 142.56 146.199062)">0.50</text>
     </g>
    </g>
    <g id="text_6">
     <!-- True width ($\mu m$) -->
     <g transform="translate(62.94 156.006875)">
      <text>
       <tspan style="font: 6px 'DejaVu Sans'" x="0 3.665039 6.131836 9.93457 13.625977 15.533203 20.44043 22.107422 25.916016 28.268555 32.071289 33.978516 45.981445" y="-0.4375">True width ()</tspan>
       <tspan style="font: oblique 6px 'DejaVu Sans'" x="36.319336 40.136719" y="-0.4375">μm</tspan>
      </text>
     </g>
    </g>
   </g>
   <g id="matplotlib.axis_2">
    <g id="ytick_1">
     <g id="line2d_6">
      <defs>
       <path id="m568902cf0c" d="M 0 0 
L -3.5 0 
" style="stroke: #000000; stroke-width: 0.8"/>
      </defs>
      <g>
       <use xlink:href="#m568902cf0c" x="31.68" y="130.104" style="stroke: #000000; stroke-width: 0.8"/>
      </g>
     </g>
     <g id="text_7">
      <text style="font: 6px 'DejaVu Sans', 'Arial', 'Helvetica', 'Lucida Grande', 'Verdana', 'Geneva', 'Lucid', 'Avant Garde', sans-serif; text-anchor: end" x="24.68" y="132.383531" transform="rotate(-0 24.68 132.383531)">0.0</text>
     </g>
    </g>
    <g id="ytick_2">
     <g id="line2d_7">
      <g>
       <use xlink:href="#m568902cf0c" x="31.68" y="111.96" style="stroke: #000000; stroke-width: 0.8"/>
      </g>
     </g>
     <g id="text_8">
      <text style="font: 6px 'DejaVu Sans', 'Arial', 'Helvetica', 'Lucida Grande', 'Verdana', 'Geneva', 'Lucid', 'Avant Garde', sans-serif; text-anchor: end" x="24.68" y="114.239531" transform="rotate(-0 24.68 114.239531)">0.2</text>
     </g>
    </g>
    <g id="ytick_3">
     <g id="line2d_8">
      <g>
       <use xlink:href="#m568902cf0c" x="31.68" y="93.816" style="stroke: #000000; stroke-width: 0.8"/>
      </g>
     </g>
     <g id="text_9">
      <text style="font: 6px 'DejaVu Sans', 'Arial', 'Helvetica', 'Lucida Grande', 'Verdana', 'Geneva', 'Lucid', 'Avant Garde', sans-serif; text-anchor: end" x="24.68" y="96.095531" transform="rotate(-0 24.68 96.095531)">0.4</text>
     </g>
    </g>
    <g id="ytick_4">
     <g id="line2d_9">
      <g>
       <use xlink:href="#m568902cf0c" x="31.68" y="75.672" style="stroke: #000000; stroke-width: 0.8"/>
      </g>
     </g>
     <g id="text_10">
      <text style="font: 6px 'DejaVu Sans', 'Arial', 'Helvetica', 'Lucida Grande', 'Verdana', 'Geneva', 'Lucid', 'Avant Garde', sans-serif; text-anchor: end" x="24.68" y="77.951531" transform="rotate(-0 24.68 77.951531)">0.6</text>
     </g>
    </g>
    <g id="ytick_5">
     <g id="line2d_10">
      <g>
       <use xlink:href="#m568902cf0c" x="31.68" y="57.528" style="stroke: #000000; stroke-width: 0.8"/>
      </g>
     </g>
     <g id="text_11">
      <text style="font: 6px 'DejaVu Sans', 'Arial', 'Helvetica', 'Lucida Grande', 'Verdana', 'Geneva', 'Lucid', 'Avant Garde', sans-serif; text-anchor: end" x="24.68" y="59.807531" transform="rotate(-0 24.68 59.807531)">0.8</text>
     </g>
    </g>
    <g id="ytick_6">
     <g id="line2d_11">
      <g>
       <use xlink:href="#m568902cf0c" x="31.68" y="39.384" style="stroke: #000000; stroke-width: 0.8"/>
      </g>
     </g>
     <g id="text_12">
      <text style="font: 6px 'DejaVu Sans', 'Arial', 'Helvetica', 'Lucida Grande', 'Verdana', 'Geneva', 'Lucid', 'Avant Garde', sans-serif; text-anchor: end" x="24.68" y="41.663531" transform="rotate(-0 24.68 41.663531)">1.0</text>
     </g>
    </g>
    <g id="text_13">
     <text style="font: 6px 'DejaVu Sans', 'Arial', 'Helvetica', 'Lucida Grande', 'Verdana', 'Geneva', 'Lucid', 'Avant Garde', sans-serif; text-anchor: middle" x="9.890313" y="84.744" transform="rotate(-90 9.890313 84.744)">Intensity (AU)</text>
    </g>
   </g>
   <g id="line2d_12">
    <path d="M -1 114.817048 
L 4.6992 114.304134 
L 9.504 113.640689 
L 14.3088 112.714427 
L 19.1136 111.458784 
L 23.9184 109.777753 
L 26.3208 108.755575 
L 28.7232 107.600772 
L 31.1256 106.292967 
L 33.528 104.806096 
L 35.9304 103.122617 
L 38.3328 101.20779 
L 40.7352 99.038497 
L 43.1376 96.608286 
L 45.54 93.894904 
L 47.9424 90.875573 
L 50.3448 87.527486 
L 52.7472 83.857839 
L 57.552 75.793981 
L 62.3568 67.066754 
L 69.564 53.906677 
L 71.9664 49.813764 
L 74.3688 46.041173 
L 76.7712 42.819171 
L 79.1736 40.516059 
L 81.576 39.384 
L 83.9784 39.526289 
L 86.3808 40.966437 
L 88.7832 43.62466 
L 91.1856 47.404144 
L 93.588 52.205857 
L 95.9904 57.882844 
L 98.3928 64.247874 
L 100.7952 71.354352 
L 105.6 87.486794 
L 108.0024 95.586863 
L 110.4048 103.090898 
L 112.8072 109.694027 
L 115.2096 115.231549 
L 117.612 119.659425 
L 120.0144 123.039823 
L 122.4168 125.50583 
L 124.8192 127.245968 
L 127.2216 128.424428 
L 129.624 129.173238 
L 132.0264 129.618014 
L 134.4288 129.865189 
L 139.2336 130.056141 
L 151.2456 130.103731 
L 159.4 130.103997 
L 159.4 130.103997 
" clip-path="url(#pf29e52d961)" style="fill: none; stroke-dasharray: 1,1.65; stroke-dashoffset: 0; stroke: #ff0000"/>
   </g>
   <g id="line2d_13">
    <path d="M -1 46.357889 
L 26.3208 42.780497 
L 38.3328 41.405898 
L 47.9424 40.494754 
L 57.552 39.82326 
L 64.7592 39.507081 
L 71.9664 39.384 
L 79.1736 39.485189 
L 86.3808 39.853689 
L 93.588 40.516577 
L 100.7952 41.422843 
L 108.0024 42.553769 
L 115.2096 43.99149 
L 122.4168 45.706288 
L 129.624 47.610292 
L 136.8312 49.762515 
L 144.0384 52.16934 
L 156.0504 56.479063 
L 159.4 57.753453 
L 159.4 57.753453 
" clip-path="url(#pf29e52d961)" style="fill: none; stroke: #ff0000; stroke-linecap: square"/>
   </g>
   <g id="line2d_14">
    <path d="M -1 105.200471 
L 9.504 105.200471 
L 11.9064 103.421647 
L 14.3088 103.421647 
L 16.7112 105.200471 
L 19.1136 103.421647 
L 31.1256 103.421647 
L 33.528 101.642824 
L 43.1376 101.642824 
L 45.54 99.864 
L 57.552 99.864 
L 59.9544 98.085176 
L 67.1616 98.085176 
L 69.564 96.306353 
L 71.9664 96.306353 
L 74.3688 94.527529 
L 76.7712 94.527529 
L 79.1736 92.748706 
L 81.576 94.527529 
L 88.7832 89.191059 
L 91.1856 89.191059 
L 95.9904 85.633412 
L 98.3928 85.633412 
L 100.7952 82.075765 
L 103.1976 82.075765 
L 105.6 80.296941 
L 108.0024 74.960471 
L 112.8072 67.845176 
L 115.2096 60.729882 
L 117.612 39.384 
L 124.8192 50.056941 
L 129.624 60.729882 
L 132.0264 64.287529 
L 134.4288 71.402824 
L 136.8312 76.739294 
L 139.2336 83.854588 
L 141.636 92.748706 
L 144.0384 103.421647 
L 146.4408 130.104 
L 159.4 130.104 
L 159.4 130.104 
" clip-path="url(#pf29e52d961)" style="fill: none; stroke: #808080; stroke-linecap: square"/>
   </g>
   <g id="patch_3">
    <path d="M 31.68 134.64 
L 31.68 34.848 
" style="fill: none; stroke: #000000; stroke-width: 0.5; stroke-linejoin: miter; stroke-linecap: square"/>
   </g>
   <g id="patch_4">
    <path d="M 31.68 134.64 
L 142.56 134.64 
" style="fill: none; stroke: #000000; stroke-width: 0.5; stroke-linejoin: miter; stroke-linecap: square"/>
   </g>
   <g id="legend_1">
    <g id="patch_5">
     <path d="M 35.88 131.64 
L 98.349375 131.64 
Q 99.549375 131.64 99.549375 130.44 
L 99.549375 104.619375 
Q 99.549375 103.419375 98.349375 103.419375 
L 35.88 103.419375 
Q 34.68 103.419375 34.68 104.619375 
L 34.68 130.44 
Q 34.68 131.64 35.88 131.64 
z
" style="fill: #ffffff; opacity: 0.8; stroke: #cccccc; stroke-linejoin: miter"/>
    </g>
    <g id="line2d_15">
     <path d="M 37.08 108.278437 
L 43.08 108.278437 
L 49.08 108.278437 
" style="fill: none; stroke-dasharray: 1,1.65; stroke-dashoffset: 0; stroke: #ff0000"/>
    </g>
    <g id="text_14">
     <text style="font: 6px 'DejaVu Sans', 'Arial', 'Helvetica', 'Lucida Grande', 'Verdana', 'Geneva', 'Lucid', 'Avant Garde', sans-serif; text-anchor: start" x="53.88" y="110.378437" transform="rotate(-0 53.88 110.378437)">Deconvolution</text>
    </g>
    <g id="line2d_16">
     <path d="M 37.08 117.085313 
L 43.08 117.085313 
L 49.08 117.085313 
" style="fill: none; stroke: #ff0000; stroke-linecap: square"/>
    </g>
    <g id="text_15">
     <text style="font: 6px 'DejaVu Sans', 'Arial', 'Helvetica', 'Lucida Grande', 'Verdana', 'Geneva', 'Lucid', 'Avant Garde', sans-serif; text-anchor: start" x="53.88" y="119.185312" transform="rotate(-0 53.88 119.185312)">Convolution</text>
    </g>
    <g id="line2d_17">
     <path d="M 37.08 125.892188 
L 43.08 125.892188 
L 49.08 125.892188 
" style="fill: none; stroke: #808080; stroke-linecap: square"/>
    </g>
    <g id="text_16">
     <text style="font: 6px 'DejaVu Sans', 'Arial', 'Helvetica', 'Lucida Grande', 'Verdana', 'Geneva', 'Lucid', 'Avant Garde', sans-serif; text-anchor: start" x="53.88" y="127.992188" transform="rotate(-0 53.88 127.992188)">Ground truth</text>
    </g>
   </g>
  </g>
  <g id="text_17">
   <text style="font: 6px 'DejaVu Sans', 'Arial', 'Helvetica', 'Lucida Grande', 'Verdana', 'Geneva', 'Lucid', 'Avant Garde', sans-serif; text-anchor: middle" x="79.2" y="7.727063" transform="rotate(-0 79.2 7.727063)">Deconvolution acts as a sharpening filter</text>
  </g>
 </g>
 <defs>
  <clipPath id="pf29e52d961">
   <rect x="31.68" y="34.848" width="110.88" height="99.792"/>
  </clipPath>
 </defs>
</svg>
