<?xml version="1.0" encoding="utf-8" standalone="no"?>
<!DOCTYPE svg PUBLIC "-//W3C//DTD SVG 1.1//EN"
  "http://www.w3.org/Graphics/SVG/1.1/DTD/svg11.dtd">
<svg xmlns:xlink="http://www.w3.org/1999/xlink" width="158.4pt" height="158.4pt" viewBox="0 0 158.4 158.4" xmlns="http://www.w3.org/2000/svg" version="1.1">
 <metadata>
  <rdf:RDF xmlns:dc="http://purl.org/dc/elements/1.1/" xmlns:cc="http://creativecommons.org/ns#" xmlns:rdf="http://www.w3.org/1999/02/22-rdf-syntax-ns#">
   <cc:Work>
    <dc:type rdf:resource="http://purl.org/dc/dcmitype/StillImage"/>
    <dc:date>2023-12-02T15:30:44.018167</dc:date>
    <dc:format>image/svg+xml</dc:format>
    <dc:creator>
     <cc:Agent>
      <dc:title>Matplotlib v3.8.2, https://matplotlib.org/</dc:title>
     </cc:Agent>
    </dc:creator>
   </cc:Work>
  </rdf:RDF>
 </metadata>
 <defs>
  <style type="text/css">*{stroke-linejoin: round; stroke-linecap: butt}</style>
 </defs>
 <g id="figure_1">
  <g id="patch_1">
   <path d="M 0 158.4 
L 158.4 158.4 
L 158.4 0 
L 0 0 
L 0 158.4 
z
" style="fill: none"/>
  </g>
  <g id="axes_1">
   <g id="patch_2">
    <path d="M 31.68 134.64 
L 142.56 134.64 
L 142.56 37.224 
L 31.68 37.224 
L 31.68 134.64 
z
" style="fill: none"/>
   </g>
   <g id="PathCollection_1">
    <path d="M 36.72 46.842 
C 37.117805 46.842 37.49937 46.683951 37.78066 46.40266 
C 38.061951 46.12137 38.22 45.739805 38.22 45.342 
C 38.22 44.944195 38.061951 44.56263 37.78066 44.28134 
C 37.49937 44.000049 37.117805 43.842 36.72 43.842 
C 36.322195 43.842 35.94063 44.000049 35.65934 44.28134 
C 35.378049 44.56263 35.22 44.944195 35.22 45.342 
C 35.22 45.739805 35.378049 46.12137 35.65934 46.40266 
C 35.94063 46.683951 36.322195 46.842 36.72 46.842 
z
" clip-path="url(#p8dc822bf9e)" style="fill: #fc8d62; stroke: #ffffff; stroke-width: 0.24"/>
    <path d="M 36.72 45.2184 
C 37.117805 45.2184 37.49937 45.060351 37.78066 44.77906 
C 38.061951 44.49777 38.22 44.116205 38.22 43.7184 
C 38.22 43.320595 38.061951 42.93903 37.78066 42.65774 
C 37.49937 42.376449 37.117805 42.2184 36.72 42.2184 
C 36.322195 42.2184 35.94063 42.376449 35.65934 42.65774 
C 35.378049 42.93903 35.22 43.320595 35.22 43.7184 
C 35.22 44.116205 35.378049 44.49777 35.65934 44.77906 
C 35.94063 45.060351 36.322195 45.2184 36.72 45.2184 
z
" clip-path="url(#p8dc822bf9e)" style="fill: #66c2a5; stroke: #ffffff; stroke-width: 0.24"/>
    <path d="M 43.44 44.22329 
C 43.837805 44.22329 44.21937 44.065241 44.50066 43.78395 
C 44.781951 43.50266 44.94 43.121095 44.94 42.72329 
C 44.94 42.325486 44.781951 41.943921 44.50066 41.66263 
C 44.21937 41.38134 43.837805 41.22329 43.44 41.22329 
C 43.042195 41.22329 42.66063 41.38134 42.37934 41.66263 
C 42.098049 41.943921 41.94 42.325486 41.94 42.72329 
C 41.94 43.121095 42.098049 43.50266 42.37934 43.78395 
C 42.66063 44.065241 43.042195 44.22329 43.44 44.22329 
z
" clip-path="url(#p8dc822bf9e)" style="fill: #fc8d62; stroke: #ffffff; stroke-width: 0.24"/>
    <path d="M 43.44 43.542426 
C 43.837805 43.542426 44.21937 43.384376 44.50066 43.103086 
C 44.781951 42.821796 44.94 42.44023 44.94 42.042426 
C 44.94 41.644621 44.781951 41.263056 44.50066 40.981766 
C 44.21937 40.700475 43.837805 40.542426 43.44 40.542426 
C 43.042195 40.542426 42.66063 40.700475 42.37934 40.981766 
C 42.098049 41.263056 41.94 41.644621 41.94 42.042426 
C 41.94 42.44023 42.098049 42.821796 42.37934 43.103086 
C 42.66063 43.384376 43.042195 43.542426 43.44 43.542426 
z
" clip-path="url(#p8dc822bf9e)" style="fill: #66c2a5; stroke: #ffffff; stroke-width: 0.24"/>
    <path d="M 50.16 43.5046 
C 50.557805 43.5046 50.93937 43.346551 51.22066 43.06526 
C 51.501951 42.78397 51.66 42.402405 51.66 42.0046 
C 51.66 41.606795 51.501951 41.22523 51.22066 40.94394 
C 50.93937 40.662649 50.557805 40.5046 50.16 40.5046 
C 49.762195 40.5046 49.38063 40.662649 49.09934 40.94394 
C 48.818049 41.22523 48.66 41.606795 48.66 42.0046 
C 48.66 42.402405 48.818049 42.78397 49.09934 43.06526 
C 49.38063 43.346551 49.762195 43.5046 50.16 43.5046 
z
" clip-path="url(#p8dc822bf9e)" style="fill: #fc8d62; stroke: #ffffff; stroke-width: 0.24"/>
    <path d="M 50.16 43.5046 
C 50.557805 43.5046 50.93937 43.346551 51.22066 43.06526 
C 51.501951 42.78397 51.66 42.402405 51.66 42.0046 
C 51.66 41.606795 51.501951 41.22523 51.22066 40.94394 
C 50.93937 40.662649 50.557805 40.5046 50.16 40.5046 
C 49.762195 40.5046 49.38063 40.662649 49.09934 40.94394 
C 48.818049 41.22523 48.66 41.606795 48.66 42.0046 
C 48.66 42.402405 48.818049 42.78397 49.09934 43.06526 
C 49.38063 43.346551 49.762195 43.5046 50.16 43.5046 
z
" clip-path="url(#p8dc822bf9e)" style="fill: #66c2a5; stroke: #ffffff; stroke-width: 0.24"/>
    <path d="M 56.88 42.4464 
C 57.277805 42.4464 57.65937 42.288351 57.94066 42.00706 
C 58.221951 41.72577 58.38 41.344205 58.38 40.9464 
C 58.38 40.548595 58.221951 40.16703 57.94066 39.88574 
C 57.65937 39.604449 57.277805 39.4464 56.88 39.4464 
C 56.482195 39.4464 56.10063 39.604449 55.81934 39.88574 
C 55.538049 40.16703 55.38 40.548595 55.38 40.9464 
C 55.38 41.344205 55.538049 41.72577 55.81934 42.00706 
C 56.10063 42.288351 56.482195 42.4464 56.88 42.4464 
z
" clip-path="url(#p8dc822bf9e)" style="fill: #fc8d62; stroke: #ffffff; stroke-width: 0.24"/>
    <path d="M 56.88 42.4464 
C 57.277805 42.4464 57.65937 42.288351 57.94066 42.00706 
C 58.221951 41.72577 58.38 41.344205 58.38 40.9464 
C 58.38 40.548595 58.221951 40.16703 57.94066 39.88574 
C 57.65937 39.604449 57.277805 39.4464 56.88 39.4464 
C 56.482195 39.4464 56.10063 39.604449 55.81934 39.88574 
C 55.538049 40.16703 55.38 40.548595 55.38 40.9464 
C 55.38 41.344205 55.538049 41.72577 55.81934 42.00706 
C 56.10063 42.288351 56.482195 42.4464 56.88 42.4464 
z
" clip-path="url(#p8dc822bf9e)" style="fill: #66c2a5; stroke: #ffffff; stroke-width: 0.24"/>
    <path d="M 63.6 43.453617 
C 63.997805 43.453617 64.37937 43.295568 64.66066 43.014278 
C 64.941951 42.732987 65.1 42.351422 65.1 41.953617 
C 65.1 41.555813 64.941951 41.174248 64.66066 40.892957 
C 64.37937 40.611667 63.997805 40.453617 63.6 40.453617 
C 63.202195 40.453617 62.82063 40.611667 62.53934 40.892957 
C 62.258049 41.174248 62.1 41.555813 62.1 41.953617 
C 62.1 42.351422 62.258049 42.732987 62.53934 43.014278 
C 62.82063 43.295568 63.202195 43.453617 63.6 43.453617 
z
" clip-path="url(#p8dc822bf9e)" style="fill: #fc8d62; stroke: #ffffff; stroke-width: 0.24"/>
    <path d="M 63.6 42.53593 
C 63.997805 42.53593 64.37937 42.377881 64.66066 42.096591 
C 64.941951 41.8153 65.1 41.433735 65.1 41.03593 
C 65.1 40.638126 64.941951 40.256561 64.66066 39.97527 
C 64.37937 39.69398 63.997805 39.53593 63.6 39.53593 
C 63.202195 39.53593 62.82063 39.69398 62.53934 39.97527 
C 62.258049 40.256561 62.1 40.638126 62.1 41.03593 
C 62.1 41.433735 62.258049 41.8153 62.53934 42.096591 
C 62.82063 42.377881 63.202195 42.53593 63.6 42.53593 
z
" clip-path="url(#p8dc822bf9e)" style="fill: #66c2a5; stroke: #ffffff; stroke-width: 0.24"/>
    <path d="M 70.32 41.780188 
C 70.717805 41.780188 71.09937 41.622139 71.38066 41.340848 
C 71.661951 41.059558 71.82 40.677993 71.82 40.280188 
C 71.82 39.882384 71.661951 39.500818 71.38066 39.219528 
C 71.09937 38.938238 70.717805 38.780188 70.32 38.780188 
C 69.922195 38.780188 69.54063 38.938238 69.25934 39.219528 
C 68.978049 39.500818 68.82 39.882384 68.82 40.280188 
C 68.82 40.677993 68.978049 41.059558 69.25934 41.340848 
C 69.54063 41.622139 69.922195 41.780188 70.32 41.780188 
z
" clip-path="url(#p8dc822bf9e)" style="fill: #fc8d62; stroke: #ffffff; stroke-width: 0.24"/>
    <path d="M 70.32 41.780188 
C 70.717805 41.780188 71.09937 41.622139 71.38066 41.340848 
C 71.661951 41.059558 71.82 40.677993 71.82 40.280188 
C 71.82 39.882384 71.661951 39.500818 71.38066 39.219528 
C 71.09937 38.938238 70.717805 38.780188 70.32 38.780188 
C 69.922195 38.780188 69.54063 38.938238 69.25934 39.219528 
C 68.978049 39.500818 68.82 39.882384 68.82 40.280188 
C 68.82 40.677993 68.978049 41.059558 69.25934 41.340848 
C 69.54063 41.622139 69.922195 41.780188 70.32 41.780188 
z
" clip-path="url(#p8dc822bf9e)" style="fill: #66c2a5; stroke: #ffffff; stroke-width: 0.24"/>
    <path d="M 77.04 41.913214 
C 77.437805 41.913214 77.81937 41.755165 78.10066 41.473874 
C 78.381951 41.192584 78.54 40.811019 78.54 40.413214 
C 78.54 40.01541 78.381951 39.633844 78.10066 39.352554 
C 77.81937 39.071264 77.437805 38.913214 77.04 38.913214 
C 76.642195 38.913214 76.26063 39.071264 75.97934 39.352554 
C 75.698049 39.633844 75.54 40.01541 75.54 40.413214 
C 75.54 40.811019 75.698049 41.192584 75.97934 41.473874 
C 76.26063 41.755165 76.642195 41.913214 77.04 41.913214 
z
" clip-path="url(#p8dc822bf9e)" style="fill: #fc8d62; stroke: #ffffff; stroke-width: 0.24"/>
    <path d="M 77.04 41.913214 
C 77.437805 41.913214 77.81937 41.755165 78.10066 41.473874 
C 78.381951 41.192584 78.54 40.811019 78.54 40.413214 
C 78.54 40.01541 78.381951 39.633844 78.10066 39.352554 
C 77.81937 39.071264 77.437805 38.913214 77.04 38.913214 
C 76.642195 38.913214 76.26063 39.071264 75.97934 39.352554 
C 75.698049 39.633844 75.54 40.01541 75.54 40.413214 
C 75.54 40.811019 75.698049 41.192584 75.97934 41.473874 
C 76.26063 41.755165 76.642195 41.913214 77.04 41.913214 
z
" clip-path="url(#p8dc822bf9e)" style="fill: #66c2a5; stroke: #ffffff; stroke-width: 0.24"/>
    <path d="M 83.76 41.332407 
C 84.157805 41.332407 84.53937 41.174357 84.82066 40.893067 
C 85.101951 40.611776 85.26 40.230211 85.26 39.832407 
C 85.26 39.434602 85.101951 39.053037 84.82066 38.771746 
C 84.53937 38.490456 84.157805 38.332407 83.76 38.332407 
C 83.362195 38.332407 82.98063 38.490456 82.69934 38.771746 
C 82.418049 39.053037 82.26 39.434602 82.26 39.832407 
C 82.26 40.230211 82.418049 40.611776 82.69934 40.893067 
C 82.98063 41.174357 83.362195 41.332407 83.76 41.332407 
z
" clip-path="url(#p8dc822bf9e)" style="fill: #fc8d62; stroke: #ffffff; stroke-width: 0.24"/>
    <path d="M 83.76 41.332407 
C 84.157805 41.332407 84.53937 41.174357 84.82066 40.893067 
C 85.101951 40.611776 85.26 40.230211 85.26 39.832407 
C 85.26 39.434602 85.101951 39.053037 84.82066 38.771746 
C 84.53937 38.490456 84.157805 38.332407 83.76 38.332407 
C 83.362195 38.332407 82.98063 38.490456 82.69934 38.771746 
C 82.418049 39.053037 82.26 39.434602 82.26 39.832407 
C 82.26 40.230211 82.418049 40.611776 82.69934 40.893067 
C 82.98063 41.174357 83.362195 41.332407 83.76 41.332407 
z
" clip-path="url(#p8dc822bf9e)" style="fill: #66c2a5; stroke: #ffffff; stroke-width: 0.24"/>
    <path d="M 90.48 41.1594 
C 90.877805 41.1594 91.25937 41.001351 91.54066 40.72006 
C 91.821951 40.43877 91.98 40.057205 91.98 39.6594 
C 91.98 39.261595 91.821951 38.88003 91.54066 38.59874 
C 91.25937 38.317449 90.877805 38.1594 90.48 38.1594 
C 90.082195 38.1594 89.70063 38.317449 89.41934 38.59874 
C 89.138049 38.88003 88.98 39.261595 88.98 39.6594 
C 88.98 40.057205 89.138049 40.43877 89.41934 40.72006 
C 89.70063 41.001351 90.082195 41.1594 90.48 41.1594 
z
" clip-path="url(#p8dc822bf9e)" style="fill: #fc8d62; stroke: #ffffff; stroke-width: 0.24"/>
    <path d="M 90.48 41.1594 
C 90.877805 41.1594 91.25937 41.001351 91.54066 40.72006 
C 91.821951 40.43877 91.98 40.057205 91.98 39.6594 
C 91.98 39.261595 91.821951 38.88003 91.54066 38.59874 
C 91.25937 38.317449 90.877805 38.1594 90.48 38.1594 
C 90.082195 38.1594 89.70063 38.317449 89.41934 38.59874 
C 89.138049 38.88003 88.98 39.261595 88.98 39.6594 
C 88.98 40.057205 89.138049 40.43877 89.41934 40.72006 
C 89.70063 41.001351 90.082195 41.1594 90.48 41.1594 
z
" clip-path="url(#p8dc822bf9e)" style="fill: #66c2a5; stroke: #ffffff; stroke-width: 0.24"/>
    <path d="M 97.2 41.308039 
C 97.597805 41.308039 97.97937 41.14999 98.26066 40.8687 
C 98.541951 40.587409 98.7 40.205844 98.7 39.808039 
C 98.7 39.410235 98.541951 39.02867 98.26066 38.747379 
C 97.97937 38.466089 97.597805 38.308039 97.2 38.308039 
C 96.802195 38.308039 96.42063 38.466089 96.13934 38.747379 
C 95.858049 39.02867 95.7 39.410235 95.7 39.808039 
C 95.7 40.205844 95.858049 40.587409 96.13934 40.8687 
C 96.42063 41.14999 96.802195 41.308039 97.2 41.308039 
z
" clip-path="url(#p8dc822bf9e)" style="fill: #fc8d62; stroke: #ffffff; stroke-width: 0.24"/>
    <path d="M 97.2 41.010761 
C 97.597805 41.010761 97.97937 40.852711 98.26066 40.571421 
C 98.541951 40.29013 98.7 39.908565 98.7 39.510761 
C 98.7 39.112956 98.541951 38.731391 98.26066 38.4501 
C 97.97937 38.16881 97.597805 38.010761 97.2 38.010761 
C 96.802195 38.010761 96.42063 38.16881 96.13934 38.4501 
C 95.858049 38.731391 95.7 39.112956 95.7 39.510761 
C 95.7 39.908565 95.858049 40.29013 96.13934 40.571421 
C 96.42063 40.852711 96.802195 41.010761 97.2 41.010761 
z
" clip-path="url(#p8dc822bf9e)" style="fill: #66c2a5; stroke: #ffffff; stroke-width: 0.24"/>
    <path d="M 103.92 41.1594 
C 104.317805 41.1594 104.69937 41.001351 104.98066 40.72006 
C 105.261951 40.43877 105.42 40.057205 105.42 39.6594 
C 105.42 39.261595 105.261951 38.88003 104.98066 38.59874 
C 104.69937 38.317449 104.317805 38.1594 103.92 38.1594 
C 103.522195 38.1594 103.14063 38.317449 102.85934 38.59874 
C 102.578049 38.88003 102.42 39.261595 102.42 39.6594 
C 102.42 40.057205 102.578049 40.43877 102.85934 40.72006 
C 103.14063 41.001351 103.522195 41.1594 103.92 41.1594 
z
" clip-path="url(#p8dc822bf9e)" style="fill: #fc8d62; stroke: #ffffff; stroke-width: 0.24"/>
    <path d="M 103.92 40.881679 
C 104.317805 40.881679 104.69937 40.723629 104.98066 40.442339 
C 105.261951 40.161049 105.42 39.779484 105.42 39.381679 
C 105.42 38.983874 105.261951 38.602309 104.98066 38.321019 
C 104.69937 38.039728 104.317805 37.881679 103.92 37.881679 
C 103.522195 37.881679 103.14063 38.039728 102.85934 38.321019 
C 102.578049 38.602309 102.42 38.983874 102.42 39.381679 
C 102.42 39.779484 102.578049 40.161049 102.85934 40.442339 
C 103.14063 40.723629 103.522195 40.881679 103.92 40.881679 
z
" clip-path="url(#p8dc822bf9e)" style="fill: #66c2a5; stroke: #ffffff; stroke-width: 0.24"/>
    <path d="M 110.64 40.768533 
C 111.037805 40.768533 111.41937 40.610484 111.70066 40.329194 
C 111.981951 40.047903 112.14 39.666338 112.14 39.268533 
C 112.14 38.870729 111.981951 38.489164 111.70066 38.207873 
C 111.41937 37.926583 111.037805 37.768533 110.64 37.768533 
C 110.242195 37.768533 109.86063 37.926583 109.57934 38.207873 
C 109.298049 38.489164 109.14 38.870729 109.14 39.268533 
C 109.14 39.666338 109.298049 40.047903 109.57934 40.329194 
C 109.86063 40.610484 110.242195 40.768533 110.64 40.768533 
z
" clip-path="url(#p8dc822bf9e)" style="fill: #fc8d62; stroke: #ffffff; stroke-width: 0.24"/>
    <path d="M 110.64 40.768533 
C 111.037805 40.768533 111.41937 40.610484 111.70066 40.329194 
C 111.981951 40.047903 112.14 39.666338 112.14 39.268533 
C 112.14 38.870729 111.981951 38.489164 111.70066 38.207873 
C 111.41937 37.926583 111.037805 37.768533 110.64 37.768533 
C 110.242195 37.768533 109.86063 37.926583 109.57934 38.207873 
C 109.298049 38.489164 109.14 38.870729 109.14 39.268533 
C 109.14 39.666338 109.298049 40.047903 109.57934 40.329194 
C 109.86063 40.610484 110.242195 40.768533 110.64 40.768533 
z
" clip-path="url(#p8dc822bf9e)" style="fill: #66c2a5; stroke: #ffffff; stroke-width: 0.24"/>
    <path d="M 117.36 40.668544 
C 117.757805 40.668544 118.13937 40.510495 118.42066 40.229204 
C 118.701951 39.947914 118.86 39.566349 118.86 39.168544 
C 118.86 38.77074 118.701951 38.389174 118.42066 38.107884 
C 118.13937 37.826594 117.757805 37.668544 117.36 37.668544 
C 116.962195 37.668544 116.58063 37.826594 116.29934 38.107884 
C 116.018049 38.389174 115.86 38.77074 115.86 39.168544 
C 115.86 39.566349 116.018049 39.947914 116.29934 40.229204 
C 116.58063 40.510495 116.962195 40.668544 117.36 40.668544 
z
" clip-path="url(#p8dc822bf9e)" style="fill: #fc8d62; stroke: #ffffff; stroke-width: 0.24"/>
    <path d="M 117.36 40.668544 
C 117.757805 40.668544 118.13937 40.510495 118.42066 40.229204 
C 118.701951 39.947914 118.86 39.566349 118.86 39.168544 
C 118.86 38.77074 118.701951 38.389174 118.42066 38.107884 
C 118.13937 37.826594 117.757805 37.668544 117.36 37.668544 
C 116.962195 37.668544 116.58063 37.826594 116.29934 38.107884 
C 116.018049 38.389174 115.86 38.77074 115.86 39.168544 
C 115.86 39.566349 116.018049 39.947914 116.29934 40.229204 
C 116.58063 40.510495 116.962195 40.668544 117.36 40.668544 
z
" clip-path="url(#p8dc822bf9e)" style="fill: #66c2a5; stroke: #ffffff; stroke-width: 0.24"/>
    <path d="M 124.08 42.667029 
C 124.477805 42.667029 124.85937 42.508979 125.14066 42.227689 
C 125.421951 41.946398 125.58 41.564833 125.58 41.167029 
C 125.58 40.769224 125.421951 40.387659 125.14066 40.106368 
C 124.85937 39.825078 124.477805 39.667029 124.08 39.667029 
C 123.682195 39.667029 123.30063 39.825078 123.01934 40.106368 
C 122.738049 40.387659 122.58 40.769224 122.58 41.167029 
C 122.58 41.564833 122.738049 41.946398 123.01934 42.227689 
C 123.30063 42.508979 123.682195 42.667029 124.08 42.667029 
z
" clip-path="url(#p8dc822bf9e)" style="fill: #fc8d62; stroke: #ffffff; stroke-width: 0.24"/>
    <path d="M 124.08 40.579543 
C 124.477805 40.579543 124.85937 40.421493 125.14066 40.140203 
C 125.421951 39.858913 125.58 39.477348 125.58 39.079543 
C 125.58 38.681738 125.421951 38.300173 125.14066 38.018883 
C 124.85937 37.737592 124.477805 37.579543 124.08 37.579543 
C 123.682195 37.579543 123.30063 37.737592 123.01934 38.018883 
C 122.738049 38.300173 122.58 38.681738 122.58 39.079543 
C 122.58 39.477348 122.738049 39.858913 123.01934 40.140203 
C 123.30063 40.421493 123.682195 40.579543 124.08 40.579543 
z
" clip-path="url(#p8dc822bf9e)" style="fill: #66c2a5; stroke: #ffffff; stroke-width: 0.24"/>
    <path d="M 130.8 40.27995 
C 131.197805 40.27995 131.57937 40.121901 131.86066 39.84061 
C 132.141951 39.55932 132.3 39.177755 132.3 38.77995 
C 132.3 38.382145 132.141951 38.00058 131.86066 37.71929 
C 131.57937 37.437999 131.197805 37.27995 130.8 37.27995 
C 130.402195 37.27995 130.02063 37.437999 129.73934 37.71929 
C 129.458049 38.00058 129.3 38.382145 129.3 38.77995 
C 129.3 39.177755 129.458049 39.55932 129.73934 39.84061 
C 130.02063 40.121901 130.402195 40.27995 130.8 40.27995 
z
" clip-path="url(#p8dc822bf9e)" style="fill: #fc8d62; stroke: #ffffff; stroke-width: 0.24"/>
    <path d="M 130.8 40.27995 
C 131.197805 40.27995 131.57937 40.121901 131.86066 39.84061 
C 132.141951 39.55932 132.3 39.177755 132.3 38.77995 
C 132.3 38.382145 132.141951 38.00058 131.86066 37.71929 
C 131.57937 37.437999 131.197805 37.27995 130.8 37.27995 
C 130.402195 37.27995 130.02063 37.437999 129.73934 37.71929 
C 129.458049 38.00058 129.3 38.382145 129.3 38.77995 
C 129.3 39.177755 129.458049 39.55932 129.73934 39.84061 
C 130.02063 40.121901 130.402195 40.27995 130.8 40.27995 
z
" clip-path="url(#p8dc822bf9e)" style="fill: #66c2a5; stroke: #ffffff; stroke-width: 0.24"/>
    <path d="M 137.52 40.427976 
C 137.917805 40.427976 138.29937 40.269927 138.58066 39.988636 
C 138.861951 39.707346 139.02 39.325781 139.02 38.927976 
C 139.02 38.530172 138.861951 38.148606 138.58066 37.867316 
C 138.29937 37.586026 137.917805 37.427976 137.52 37.427976 
C 137.122195 37.427976 136.74063 37.586026 136.45934 37.867316 
C 136.178049 38.148606 136.02 38.530172 136.02 38.927976 
C 136.02 39.325781 136.178049 39.707346 136.45934 39.988636 
C 136.74063 40.269927 137.122195 40.427976 137.52 40.427976 
z
" clip-path="url(#p8dc822bf9e)" style="fill: #fc8d62; stroke: #ffffff; stroke-width: 0.24"/>
    <path d="M 137.52 40.427976 
C 137.917805 40.427976 138.29937 40.269927 138.58066 39.988636 
C 138.861951 39.707346 139.02 39.325781 139.02 38.927976 
C 139.02 38.530172 138.861951 38.148606 138.58066 37.867316 
C 138.29937 37.586026 137.917805 37.427976 137.52 37.427976 
C 137.122195 37.427976 136.74063 37.586026 136.45934 37.867316 
C 136.178049 38.148606 136.02 38.530172 136.02 38.927976 
C 136.02 39.325781 136.178049 39.707346 136.45934 39.988636 
C 136.74063 40.269927 137.122195 40.427976 137.52 40.427976 
z
" clip-path="url(#p8dc822bf9e)" style="fill: #66c2a5; stroke: #ffffff; stroke-width: 0.24"/>
    <path d="M 35.97 136.14 
L 36.72 135.39 
L 37.47 136.14 
L 38.22 135.39 
L 37.47 134.64 
L 38.22 133.89 
L 37.47 133.14 
L 36.72 133.89 
L 35.97 133.14 
L 35.22 133.89 
L 35.97 134.64 
L 35.22 135.39 
z
" clip-path="url(#p8dc822bf9e)" style="fill: #fc8d62; stroke: #ffffff; stroke-width: 0.24"/>
    <path d="M 35.97 78.5022 
L 36.72 77.7522 
L 37.47 78.5022 
L 38.22 77.7522 
L 37.47 77.0022 
L 38.22 76.2522 
L 37.47 75.5022 
L 36.72 76.2522 
L 35.97 75.5022 
L 35.22 76.2522 
L 35.97 77.0022 
L 35.22 77.7522 
z
" clip-path="url(#p8dc822bf9e)" style="fill: #66c2a5; stroke: #ffffff; stroke-width: 0.24"/>
    <path d="M 42.69 136.14 
L 43.44 135.39 
L 44.19 136.14 
L 44.94 135.39 
L 44.19 134.64 
L 44.94 133.89 
L 44.19 133.14 
L 43.44 133.89 
L 42.69 133.14 
L 41.94 133.89 
L 42.69 134.64 
L 41.94 135.39 
z
" clip-path="url(#p8dc822bf9e)" style="fill: #fc8d62; stroke: #ffffff; stroke-width: 0.24"/>
    <path d="M 42.69 68.734413 
L 43.44 67.984413 
L 44.19 68.734413 
L 44.94 67.984413 
L 44.19 67.234413 
L 44.94 66.484413 
L 44.19 65.734413 
L 43.44 66.484413 
L 42.69 65.734413 
L 41.94 66.484413 
L 42.69 67.234413 
L 41.94 67.984413 
z
" clip-path="url(#p8dc822bf9e)" style="fill: #66c2a5; stroke: #ffffff; stroke-width: 0.24"/>
    <path d="M 49.41 78.6826 
L 50.16 77.9326 
L 50.91 78.6826 
L 51.66 77.9326 
L 50.91 77.1826 
L 51.66 76.4326 
L 50.91 75.6826 
L 50.16 76.4326 
L 49.41 75.6826 
L 48.66 76.4326 
L 49.41 77.1826 
L 48.66 77.9326 
z
" clip-path="url(#p8dc822bf9e)" style="fill: #fc8d62; stroke: #ffffff; stroke-width: 0.24"/>
    <path d="M 49.41 64.0251 
L 50.16 63.2751 
L 50.91 64.0251 
L 51.66 63.2751 
L 50.91 62.5251 
L 51.66 61.7751 
L 50.91 61.0251 
L 50.16 61.7751 
L 49.41 61.0251 
L 48.66 61.7751 
L 49.41 62.5251 
L 48.66 63.2751 
z
" clip-path="url(#p8dc822bf9e)" style="fill: #66c2a5; stroke: #ffffff; stroke-width: 0.24"/>
    <path d="M 56.13 71.2752 
L 56.88 70.5252 
L 57.63 71.2752 
L 58.38 70.5252 
L 57.63 69.7752 
L 58.38 69.0252 
L 57.63 68.2752 
L 56.88 69.0252 
L 56.13 68.2752 
L 55.38 69.0252 
L 56.13 69.7752 
L 55.38 70.5252 
z
" clip-path="url(#p8dc822bf9e)" style="fill: #fc8d62; stroke: #ffffff; stroke-width: 0.24"/>
    <path d="M 56.13 59.4348 
L 56.88 58.6848 
L 57.63 59.4348 
L 58.38 58.6848 
L 57.63 57.9348 
L 58.38 57.1848 
L 57.63 56.4348 
L 56.88 57.1848 
L 56.13 56.4348 
L 55.38 57.1848 
L 56.13 57.9348 
L 55.38 58.6848 
z
" clip-path="url(#p8dc822bf9e)" style="fill: #66c2a5; stroke: #ffffff; stroke-width: 0.24"/>
    <path d="M 62.85 68.231165 
L 63.6 67.481165 
L 64.35 68.231165 
L 65.1 67.481165 
L 64.35 66.731165 
L 65.1 65.981165 
L 64.35 65.231165 
L 63.6 65.981165 
L 62.85 65.231165 
L 62.1 65.981165 
L 62.85 66.731165 
L 62.1 67.481165 
z
" clip-path="url(#p8dc822bf9e)" style="fill: #fc8d62; stroke: #ffffff; stroke-width: 0.24"/>
    <path d="M 62.85 56.760078 
L 63.6 56.010078 
L 64.35 56.760078 
L 65.1 56.010078 
L 64.35 55.260078 
L 65.1 54.510078 
L 64.35 53.760078 
L 63.6 54.510078 
L 62.85 53.760078 
L 62.1 54.510078 
L 62.85 55.260078 
L 62.1 56.010078 
z
" clip-path="url(#p8dc822bf9e)" style="fill: #66c2a5; stroke: #ffffff; stroke-width: 0.24"/>
    <path d="M 69.57 64.128565 
L 70.32 63.378565 
L 71.07 64.128565 
L 71.82 63.378565 
L 71.07 62.628565 
L 71.82 61.878565 
L 71.07 61.128565 
L 70.32 61.878565 
L 69.57 61.128565 
L 68.82 61.878565 
L 69.57 62.628565 
L 68.82 63.378565 
z
" clip-path="url(#p8dc822bf9e)" style="fill: #fc8d62; stroke: #ffffff; stroke-width: 0.24"/>
    <path d="M 69.57 54.609812 
L 70.32 53.859812 
L 71.07 54.609812 
L 71.82 53.859812 
L 71.07 53.109812 
L 71.82 52.359812 
L 71.07 51.609812 
L 70.32 52.359812 
L 69.57 51.609812 
L 68.82 52.359812 
L 69.57 53.109812 
L 68.82 53.859812 
z
" clip-path="url(#p8dc822bf9e)" style="fill: #66c2a5; stroke: #ffffff; stroke-width: 0.24"/>
    <path d="M 76.29 61.512386 
L 77.04 60.762386 
L 77.79 61.512386 
L 78.54 60.762386 
L 77.79 60.012386 
L 78.54 59.262386 
L 77.79 58.512386 
L 77.04 59.262386 
L 76.29 58.512386 
L 75.54 59.262386 
L 76.29 60.012386 
L 75.54 60.762386 
z
" clip-path="url(#p8dc822bf9e)" style="fill: #fc8d62; stroke: #ffffff; stroke-width: 0.24"/>
    <path d="M 76.29 52.843521 
L 77.04 52.093521 
L 77.79 52.843521 
L 78.54 52.093521 
L 77.79 51.343521 
L 78.54 50.593521 
L 77.79 49.843521 
L 77.04 50.593521 
L 76.29 49.843521 
L 75.54 50.593521 
L 76.29 51.343521 
L 75.54 52.093521 
z
" clip-path="url(#p8dc822bf9e)" style="fill: #66c2a5; stroke: #ffffff; stroke-width: 0.24"/>
    <path d="M 83.01 58.633062 
L 83.76 57.883062 
L 84.51 58.633062 
L 85.26 57.883062 
L 84.51 57.133062 
L 85.26 56.383062 
L 84.51 55.633062 
L 83.76 56.383062 
L 83.01 55.633062 
L 82.26 56.383062 
L 83.01 57.133062 
L 82.26 57.883062 
z
" clip-path="url(#p8dc822bf9e)" style="fill: #fc8d62; stroke: #ffffff; stroke-width: 0.24"/>
    <path d="M 83.01 51.020774 
L 83.76 50.270774 
L 84.51 51.020774 
L 85.26 50.270774 
L 84.51 49.520774 
L 85.26 48.770774 
L 84.51 48.020774 
L 83.76 48.770774 
L 83.01 48.020774 
L 82.26 48.770774 
L 83.01 49.520774 
L 82.26 50.270774 
z
" clip-path="url(#p8dc822bf9e)" style="fill: #66c2a5; stroke: #ffffff; stroke-width: 0.24"/>
    <path d="M 89.73 56.8296 
L 90.48 56.0796 
L 91.23 56.8296 
L 91.98 56.0796 
L 91.23 55.3296 
L 91.98 54.5796 
L 91.23 53.8296 
L 90.48 54.5796 
L 89.73 53.8296 
L 88.98 54.5796 
L 89.73 55.3296 
L 88.98 56.0796 
z
" clip-path="url(#p8dc822bf9e)" style="fill: #fc8d62; stroke: #ffffff; stroke-width: 0.24"/>
    <path d="M 89.73 49.4742 
L 90.48 48.7242 
L 91.23 49.4742 
L 91.98 48.7242 
L 91.23 47.9742 
L 91.98 47.2242 
L 91.23 46.4742 
L 90.48 47.2242 
L 89.73 46.4742 
L 88.98 47.2242 
L 89.73 47.9742 
L 88.98 48.7242 
z
" clip-path="url(#p8dc822bf9e)" style="fill: #66c2a5; stroke: #ffffff; stroke-width: 0.24"/>
    <path d="M 96.45 55.280146 
L 97.2 54.530146 
L 97.95 55.280146 
L 98.7 54.530146 
L 97.95 53.780146 
L 98.7 53.030146 
L 97.95 52.280146 
L 97.2 53.030146 
L 96.45 52.280146 
L 95.7 53.030146 
L 96.45 53.780146 
L 95.7 54.530146 
z
" clip-path="url(#p8dc822bf9e)" style="fill: #fc8d62; stroke: #ffffff; stroke-width: 0.24"/>
    <path d="M 96.45 48.442732 
L 97.2 47.692732 
L 97.95 48.442732 
L 98.7 47.692732 
L 97.95 46.942732 
L 98.7 46.192732 
L 97.95 45.442732 
L 97.2 46.192732 
L 96.45 45.442732 
L 95.7 46.192732 
L 96.45 46.942732 
L 95.7 47.692732 
z
" clip-path="url(#p8dc822bf9e)" style="fill: #66c2a5; stroke: #ffffff; stroke-width: 0.24"/>
    <path d="M 103.17 53.934568 
L 103.92 53.184568 
L 104.67 53.934568 
L 105.42 53.184568 
L 104.67 52.434568 
L 105.42 51.684568 
L 104.67 50.934568 
L 103.92 51.684568 
L 103.17 50.934568 
L 102.42 51.684568 
L 103.17 52.434568 
L 102.42 53.184568 
z
" clip-path="url(#p8dc822bf9e)" style="fill: #fc8d62; stroke: #ffffff; stroke-width: 0.24"/>
    <path d="M 103.17 47.546984 
L 103.92 46.796984 
L 104.67 47.546984 
L 105.42 46.796984 
L 104.67 46.046984 
L 105.42 45.296984 
L 104.67 44.546984 
L 103.92 45.296984 
L 103.17 44.546984 
L 102.42 45.296984 
L 103.17 46.046984 
L 102.42 46.796984 
z
" clip-path="url(#p8dc822bf9e)" style="fill: #66c2a5; stroke: #ffffff; stroke-width: 0.24"/>
    <path d="M 109.89 52.755111 
L 110.64 52.005111 
L 111.39 52.755111 
L 112.14 52.005111 
L 111.39 51.255111 
L 112.14 50.505111 
L 111.39 49.755111 
L 110.64 50.505111 
L 109.89 49.755111 
L 109.14 50.505111 
L 109.89 51.255111 
L 109.14 52.005111 
z
" clip-path="url(#p8dc822bf9e)" style="fill: #fc8d62; stroke: #ffffff; stroke-width: 0.24"/>
    <path d="M 109.89 46.761822 
L 110.64 46.011822 
L 111.39 46.761822 
L 112.14 46.011822 
L 111.39 45.261822 
L 112.14 44.511822 
L 111.39 43.761822 
L 110.64 44.511822 
L 109.89 43.761822 
L 109.14 44.511822 
L 109.89 45.261822 
L 109.14 46.011822 
z
" clip-path="url(#p8dc822bf9e)" style="fill: #66c2a5; stroke: #ffffff; stroke-width: 0.24"/>
    <path d="M 116.61 51.7128 
L 117.36 50.9628 
L 118.11 51.7128 
L 118.86 50.9628 
L 118.11 50.2128 
L 118.86 49.4628 
L 118.11 48.7128 
L 117.36 49.4628 
L 116.61 48.7128 
L 115.86 49.4628 
L 116.61 50.2128 
L 115.86 50.9628 
z
" clip-path="url(#p8dc822bf9e)" style="fill: #fc8d62; stroke: #ffffff; stroke-width: 0.24"/>
    <path d="M 116.61 46.067958 
L 117.36 45.317958 
L 118.11 46.067958 
L 118.86 45.317958 
L 118.11 44.567958 
L 118.86 43.817958 
L 118.11 43.067958 
L 117.36 43.817958 
L 116.61 43.067958 
L 115.86 43.817958 
L 116.61 44.567958 
L 115.86 45.317958 
z
" clip-path="url(#p8dc822bf9e)" style="fill: #66c2a5; stroke: #ffffff; stroke-width: 0.24"/>
    <path d="M 123.33 50.553086 
L 124.08 49.803086 
L 124.83 50.553086 
L 125.58 49.803086 
L 124.83 49.053086 
L 125.58 48.303086 
L 124.83 47.553086 
L 124.08 48.303086 
L 123.33 47.553086 
L 122.58 48.303086 
L 123.33 49.053086 
L 122.58 49.803086 
z
" clip-path="url(#p8dc822bf9e)" style="fill: #fc8d62; stroke: #ffffff; stroke-width: 0.24"/>
    <path d="M 123.33 45.450343 
L 124.08 44.700343 
L 124.83 45.450343 
L 125.58 44.700343 
L 124.83 43.950343 
L 125.58 43.200343 
L 124.83 42.450343 
L 124.08 43.200343 
L 123.33 42.450343 
L 122.58 43.200343 
L 123.33 43.950343 
L 122.58 44.700343 
z
" clip-path="url(#p8dc822bf9e)" style="fill: #66c2a5; stroke: #ffffff; stroke-width: 0.24"/>
    <path d="M 130.05 50.393625 
L 130.8 49.643625 
L 131.55 50.393625 
L 132.3 49.643625 
L 131.55 48.893625 
L 132.3 48.143625 
L 131.55 47.393625 
L 130.8 48.143625 
L 130.05 47.393625 
L 129.3 48.143625 
L 130.05 48.893625 
L 129.3 49.643625 
z
" clip-path="url(#p8dc822bf9e)" style="fill: #fc8d62; stroke: #ffffff; stroke-width: 0.24"/>
    <path d="M 130.05 44.897062 
L 130.8 44.147062 
L 131.55 44.897062 
L 132.3 44.147062 
L 131.55 43.397062 
L 132.3 42.647062 
L 131.55 41.897062 
L 130.8 42.647062 
L 130.05 41.897062 
L 129.3 42.647062 
L 130.05 43.397062 
L 129.3 44.147062 
z
" clip-path="url(#p8dc822bf9e)" style="fill: #66c2a5; stroke: #ffffff; stroke-width: 0.24"/>
    <path d="M 136.77 49.623018 
L 137.52 48.873018 
L 138.27 49.623018 
L 139.02 48.873018 
L 138.27 48.123018 
L 139.02 47.373018 
L 138.27 46.623018 
L 137.52 47.373018 
L 136.77 46.623018 
L 136.02 47.373018 
L 136.77 48.123018 
L 136.02 48.873018 
z
" clip-path="url(#p8dc822bf9e)" style="fill: #fc8d62; stroke: #ffffff; stroke-width: 0.24"/>
    <path d="M 136.77 44.607541 
L 137.52 43.857541 
L 138.27 44.607541 
L 139.02 43.857541 
L 138.27 43.107541 
L 139.02 42.357541 
L 138.27 41.607541 
L 137.52 42.357541 
L 136.77 41.607541 
L 136.02 42.357541 
L 136.77 43.107541 
L 136.02 43.857541 
z
" clip-path="url(#p8dc822bf9e)" style="fill: #66c2a5; stroke: #ffffff; stroke-width: 0.24"/>
   </g>
   <g id="PolyCollection_1"/>
   <g id="PolyCollection_2"/>
   <g id="PolyCollection_3"/>
   <g id="PolyCollection_4"/>
   <g id="matplotlib.axis_1">
    <g id="xtick_1">
     <g id="line2d_1">
      <defs>
       <path id="m915edaa122" d="M 0 0 
L 0 3.5 
" style="stroke: #000000; stroke-width: 0.8"/>
      </defs>
      <g>
       <use xlink:href="#m915edaa122" x="35.376" y="134.64" style="stroke: #000000; stroke-width: 0.8"/>
      </g>
     </g>
     <g id="text_1">
      <text style="font: 6px 'DejaVu Sans', 'Arial', 'Helvetica', 'Lucida Grande', 'Verdana', 'Geneva', 'Lucid', 'Avant Garde', sans-serif; text-anchor: middle" x="35.376" y="146.199062" transform="rotate(-0 35.376 146.199062)">0.5</text>
     </g>
    </g>
    <g id="xtick_2">
     <g id="line2d_2">
      <g>
       <use xlink:href="#m915edaa122" x="68.976" y="134.64" style="stroke: #000000; stroke-width: 0.8"/>
      </g>
     </g>
     <g id="text_2">
      <text style="font: 6px 'DejaVu Sans', 'Arial', 'Helvetica', 'Lucida Grande', 'Verdana', 'Geneva', 'Lucid', 'Avant Garde', sans-serif; text-anchor: middle" x="68.976" y="146.199062" transform="rotate(-0 68.976 146.199062)">1.0</text>
     </g>
    </g>
    <g id="xtick_3">
     <g id="line2d_3">
      <g>
       <use xlink:href="#m915edaa122" x="102.576" y="134.64" style="stroke: #000000; stroke-width: 0.8"/>
      </g>
     </g>
     <g id="text_3">
      <text style="font: 6px 'DejaVu Sans', 'Arial', 'Helvetica', 'Lucida Grande', 'Verdana', 'Geneva', 'Lucid', 'Avant Garde', sans-serif; text-anchor: middle" x="102.576" y="146.199062" transform="rotate(-0 102.576 146.199062)">1.5</text>
     </g>
    </g>
    <g id="xtick_4">
     <g id="line2d_4">
      <g>
       <use xlink:href="#m915edaa122" x="136.176" y="134.64" style="stroke: #000000; stroke-width: 0.8"/>
      </g>
     </g>
     <g id="text_4">
      <text style="font: 6px 'DejaVu Sans', 'Arial', 'Helvetica', 'Lucida Grande', 'Verdana', 'Geneva', 'Lucid', 'Avant Garde', sans-serif; text-anchor: middle" x="136.176" y="146.199062" transform="rotate(-0 136.176 146.199062)">2.0</text>
     </g>
    </g>
    <g id="text_5">
     <!-- True width ($\mu m$) -->
     <g transform="translate(62.94 156.006875)">
      <text>
       <tspan style="font: 6px 'DejaVu Sans'" x="0 3.665039 6.131836 9.93457 13.625977 15.533203 20.44043 22.107422 25.916016 28.268555 32.071289 33.978516 45.981445" y="-0.4375">True width ()</tspan>
       <tspan style="font: oblique 6px 'DejaVu Sans'" x="36.319336 40.136719" y="-0.4375">μm</tspan>
      </text>
     </g>
    </g>
   </g>
   <g id="matplotlib.axis_2">
    <g id="ytick_1">
     <g id="line2d_5">
      <defs>
       <path id="mab90f4e69e" d="M 0 0 
L -3.5 0 
" style="stroke: #000000; stroke-width: 0.8"/>
      </defs>
      <g>
       <use xlink:href="#mab90f4e69e" x="31.68" y="134.64" style="stroke: #000000; stroke-width: 0.8"/>
      </g>
     </g>
     <g id="text_6">
      <text style="font: 6px 'DejaVu Sans', 'Arial', 'Helvetica', 'Lucida Grande', 'Verdana', 'Geneva', 'Lucid', 'Avant Garde', sans-serif; text-anchor: end" x="24.68" y="136.919531" transform="rotate(-0 24.68 136.919531)">0.0</text>
     </g>
    </g>
    <g id="ytick_2">
     <g id="line2d_6">
      <g>
       <use xlink:href="#mab90f4e69e" x="31.68" y="115.1568" style="stroke: #000000; stroke-width: 0.8"/>
      </g>
     </g>
     <g id="text_7">
      <text style="font: 6px 'DejaVu Sans', 'Arial', 'Helvetica', 'Lucida Grande', 'Verdana', 'Geneva', 'Lucid', 'Avant Garde', sans-serif; text-anchor: end" x="24.68" y="117.436331" transform="rotate(-0 24.68 117.436331)">0.2</text>
     </g>
    </g>
    <g id="ytick_3">
     <g id="line2d_7">
      <g>
       <use xlink:href="#mab90f4e69e" x="31.68" y="95.6736" style="stroke: #000000; stroke-width: 0.8"/>
      </g>
     </g>
     <g id="text_8">
      <text style="font: 6px 'DejaVu Sans', 'Arial', 'Helvetica', 'Lucida Grande', 'Verdana', 'Geneva', 'Lucid', 'Avant Garde', sans-serif; text-anchor: end" x="24.68" y="97.953131" transform="rotate(-0 24.68 97.953131)">0.4</text>
     </g>
    </g>
    <g id="ytick_4">
     <g id="line2d_8">
      <g>
       <use xlink:href="#mab90f4e69e" x="31.68" y="76.1904" style="stroke: #000000; stroke-width: 0.8"/>
      </g>
     </g>
     <g id="text_9">
      <text style="font: 6px 'DejaVu Sans', 'Arial', 'Helvetica', 'Lucida Grande', 'Verdana', 'Geneva', 'Lucid', 'Avant Garde', sans-serif; text-anchor: end" x="24.68" y="78.469931" transform="rotate(-0 24.68 78.469931)">0.6</text>
     </g>
    </g>
    <g id="ytick_5">
     <g id="line2d_9">
      <g>
       <use xlink:href="#mab90f4e69e" x="31.68" y="56.7072" style="stroke: #000000; stroke-width: 0.8"/>
      </g>
     </g>
     <g id="text_10">
      <text style="font: 6px 'DejaVu Sans', 'Arial', 'Helvetica', 'Lucida Grande', 'Verdana', 'Geneva', 'Lucid', 'Avant Garde', sans-serif; text-anchor: end" x="24.68" y="58.986731" transform="rotate(-0 24.68 58.986731)">0.8</text>
     </g>
    </g>
    <g id="ytick_6">
     <g id="line2d_10">
      <g>
       <use xlink:href="#mab90f4e69e" x="31.68" y="37.224" style="stroke: #000000; stroke-width: 0.8"/>
      </g>
     </g>
     <g id="text_11">
      <text style="font: 6px 'DejaVu Sans', 'Arial', 'Helvetica', 'Lucida Grande', 'Verdana', 'Geneva', 'Lucid', 'Avant Garde', sans-serif; text-anchor: end" x="24.68" y="39.503531" transform="rotate(-0 24.68 39.503531)">1.0</text>
     </g>
    </g>
    <g id="text_12">
     <text style="font: 6px 'DejaVu Sans', 'Arial', 'Helvetica', 'Lucida Grande', 'Verdana', 'Geneva', 'Lucid', 'Avant Garde', sans-serif; text-anchor: middle" x="9.890313" y="85.932" transform="rotate(-90 9.890313 85.932)">Observed / True Width</text>
    </g>
   </g>
   <g id="line2d_11"/>
   <g id="line2d_12"/>
   <g id="line2d_13"/>
   <g id="line2d_14"/>
   <g id="line2d_15"/>
   <g id="line2d_16"/>
   <g id="line2d_17">
    <path d="M 36.72 43.7184 
L 43.44 42.042426 
L 50.16 42.0046 
L 56.88 40.9464 
L 63.6 41.03593 
L 70.32 40.280188 
L 77.04 40.413214 
L 83.76 39.832407 
L 90.48 39.6594 
L 97.2 39.510761 
L 103.92 39.381679 
L 110.64 39.268533 
L 117.36 39.168544 
L 124.08 39.079543 
L 130.8 38.77995 
L 137.52 38.927976 
" clip-path="url(#p8dc822bf9e)" style="fill: none; stroke: #66c2a5; stroke-linecap: square"/>
   </g>
   <g id="line2d_18">
    <path d="M 36.72 77.0022 
L 43.44 67.234413 
L 50.16 62.5251 
L 56.88 57.9348 
L 63.6 55.260078 
L 70.32 53.109812 
L 77.04 51.343521 
L 83.76 49.520774 
L 90.48 47.9742 
L 97.2 46.942732 
L 103.92 46.046984 
L 110.64 45.261822 
L 117.36 44.567958 
L 124.08 43.950343 
L 130.8 43.397062 
L 137.52 43.107541 
" clip-path="url(#p8dc822bf9e)" style="fill: none; stroke-dasharray: 4,1.5; stroke-dashoffset: 0; stroke: #66c2a5"/>
   </g>
   <g id="line2d_19">
    <path d="M 36.72 45.342 
L 43.44 42.72329 
L 50.16 42.0046 
L 56.88 40.9464 
L 63.6 41.953617 
L 70.32 40.280188 
L 77.04 40.413214 
L 83.76 39.832407 
L 90.48 39.6594 
L 97.2 39.808039 
L 103.92 39.6594 
L 110.64 39.268533 
L 117.36 39.168544 
L 124.08 41.167029 
L 130.8 38.77995 
L 137.52 38.927976 
" clip-path="url(#p8dc822bf9e)" style="fill: none; stroke: #fc8d62; stroke-linecap: square"/>
   </g>
   <g id="line2d_20">
    <path d="M 36.72 134.64 
L 43.44 134.64 
L 50.16 77.1826 
L 56.88 69.7752 
L 63.6 66.731165 
L 70.32 62.628565 
L 77.04 60.012386 
L 83.76 57.133062 
L 90.48 55.3296 
L 97.2 53.780146 
L 103.92 52.434568 
L 110.64 51.255111 
L 117.36 50.2128 
L 124.08 49.053086 
L 130.8 48.893625 
L 137.52 48.123018 
" clip-path="url(#p8dc822bf9e)" style="fill: none; stroke-dasharray: 4,1.5; stroke-dashoffset: 0; stroke: #fc8d62"/>
   </g>
   <g id="line2d_21"/>
   <g id="line2d_22"/>
   <g id="line2d_23"/>
   <g id="line2d_24"/>
   <g id="line2d_25"/>
   <g id="line2d_26"/>
   <g id="patch_3">
    <path d="M 31.68 134.64 
L 31.68 37.224 
" style="fill: none; stroke: #000000; stroke-width: 0.5; stroke-linejoin: miter; stroke-linecap: square"/>
   </g>
   <g id="patch_4">
    <path d="M 31.68 134.64 
L 142.56 134.64 
" style="fill: none; stroke: #000000; stroke-width: 0.5; stroke-linejoin: miter; stroke-linecap: square"/>
   </g>
   <g id="legend_1">
    <g id="patch_5">
     <path d="M 83.565 147.7065 
L 138.36 147.7065 
Q 139.56 147.7065 139.56 146.5065 
L 139.56 41.424 
Q 139.56 40.224 138.36 40.224 
L 83.565 40.224 
Q 82.365 40.224 82.365 41.424 
L 82.365 146.5065 
Q 82.365 147.7065 83.565 147.7065 
z
" style="fill: #ffffff; opacity: 0.8; stroke: #cccccc; stroke-linejoin: miter"/>
    </g>
    <g id="line2d_27"/>
    <g id="text_13">
     <text style="font: 6px 'DejaVu Sans', 'Arial', 'Helvetica', 'Lucida Grande', 'Verdana', 'Geneva', 'Lucid', 'Avant Garde', sans-serif; text-anchor: start" x="101.565" y="47.183063" transform="rotate(-0 101.565 47.183063)">Wavelength</text>
    </g>
    <g id="line2d_28">
     <defs>
      <path id="m0e619629ec" d="M 0 1.5 
C 0.397805 1.5 0.77937 1.341951 1.06066 1.06066 
C 1.341951 0.77937 1.5 0.397805 1.5 0 
C 1.5 -0.397805 1.341951 -0.77937 1.06066 -1.06066 
C 0.77937 -1.341951 0.397805 -1.5 0 -1.5 
C -0.397805 -1.5 -0.77937 -1.341951 -1.06066 -1.06066 
C -1.341951 -0.77937 -1.5 -0.397805 -1.5 0 
C -1.5 0.397805 -1.341951 0.77937 -1.06066 1.06066 
C -0.77937 1.341951 -0.397805 1.5 0 1.5 
z
" style="stroke: #ffffff; stroke-width: 0.24"/>
     </defs>
     <g>
      <use xlink:href="#m0e619629ec" x="90.765" y="53.889938" style="fill: #66c2a5; stroke: #ffffff; stroke-width: 0.24"/>
     </g>
    </g>
    <g id="text_14">
     <text style="font: 6px 'DejaVu Sans', 'Arial', 'Helvetica', 'Lucida Grande', 'Verdana', 'Geneva', 'Lucid', 'Avant Garde', sans-serif; text-anchor: start" x="101.565" y="55.989938" transform="rotate(-0 101.565 55.989938)">0.5</text>
    </g>
    <g id="line2d_29">
     <defs>
      <path id="mdfe607e9c5" d="M 0 1.5 
C 0.397805 1.5 0.77937 1.341951 1.06066 1.06066 
C 1.341951 0.77937 1.5 0.397805 1.5 0 
C 1.5 -0.397805 1.341951 -0.77937 1.06066 -1.06066 
C 0.77937 -1.341951 0.397805 -1.5 0 -1.5 
C -0.397805 -1.5 -0.77937 -1.341951 -1.06066 -1.06066 
C -1.341951 -0.77937 -1.5 -0.397805 -1.5 0 
C -1.5 0.397805 -1.341951 0.77937 -1.06066 1.06066 
C -0.77937 1.341951 -0.397805 1.5 0 1.5 
z
" style="stroke: #ffffff; stroke-width: 0.24"/>
     </defs>
     <g>
      <use xlink:href="#mdfe607e9c5" x="90.765" y="62.696813" style="fill: #fc8d62; stroke: #ffffff; stroke-width: 0.24"/>
     </g>
    </g>
    <g id="text_15">
     <text style="font: 6px 'DejaVu Sans', 'Arial', 'Helvetica', 'Lucida Grande', 'Verdana', 'Geneva', 'Lucid', 'Avant Garde', sans-serif; text-anchor: start" x="101.565" y="64.796813" transform="rotate(-0 101.565 64.796813)">0.7</text>
    </g>
    <g id="line2d_30"/>
    <g id="text_16">
     <text style="font: 6px 'DejaVu Sans', 'Arial', 'Helvetica', 'Lucida Grande', 'Verdana', 'Geneva', 'Lucid', 'Avant Garde', sans-serif; text-anchor: start" x="101.565" y="73.603688" transform="rotate(-0 101.565 73.603688)">Profile type</text>
    </g>
    <g id="line2d_31">
     <defs>
      <path id="m8b5e9cf823" d="M 0 1.5 
C 0.397805 1.5 0.77937 1.341951 1.06066 1.06066 
C 1.341951 0.77937 1.5 0.397805 1.5 0 
C 1.5 -0.397805 1.341951 -0.77937 1.06066 -1.06066 
C 0.77937 -1.341951 0.397805 -1.5 0 -1.5 
C -0.397805 -1.5 -0.77937 -1.341951 -1.06066 -1.06066 
C -1.341951 -0.77937 -1.5 -0.397805 -1.5 0 
C -1.5 0.397805 -1.341951 0.77937 -1.06066 1.06066 
C -0.77937 1.341951 -0.397805 1.5 0 1.5 
z
" style="stroke: #ffffff; stroke-width: 0.24"/>
     </defs>
     <g>
      <use xlink:href="#m8b5e9cf823" x="90.765" y="80.310563" style="fill: #333333; stroke: #ffffff; stroke-width: 0.24"/>
     </g>
    </g>
    <g id="text_17">
     <text style="font: 6px 'DejaVu Sans', 'Arial', 'Helvetica', 'Lucida Grande', 'Verdana', 'Geneva', 'Lucid', 'Avant Garde', sans-serif; text-anchor: start" x="101.565" y="82.410563" transform="rotate(-0 101.565 82.410563)">0 DoF</text>
    </g>
    <g id="line2d_32">
     <defs>
      <path id="m2d317afbaf" d="M -0.75 1.5 
L 0 0.75 
L 0.75 1.5 
L 1.5 0.75 
L 0.75 0 
L 1.5 -0.75 
L 0.75 -1.5 
L 0 -0.75 
L -0.75 -1.5 
L -1.5 -0.75 
L -0.75 0 
L -1.5 0.75 
z
" style="stroke: #ffffff; stroke-width: 0.24; stroke-linejoin: miter"/>
     </defs>
     <g>
      <use xlink:href="#m2d317afbaf" x="90.765" y="89.117438" style="fill: #333333; stroke: #ffffff; stroke-width: 0.24; stroke-linejoin: miter"/>
     </g>
    </g>
    <g id="text_18">
     <text style="font: 6px 'DejaVu Sans', 'Arial', 'Helvetica', 'Lucida Grande', 'Verdana', 'Geneva', 'Lucid', 'Avant Garde', sans-serif; text-anchor: start" x="101.565" y="91.217438" transform="rotate(-0 101.565 91.217438)">Width DoF</text>
    </g>
    <g id="line2d_33">
     <path d="M 84.765 97.924313 
L 90.765 97.924313 
L 96.765 97.924313 
" style="fill: none"/>
    </g>
    <g id="text_19">
     <text style="font: 6px 'DejaVu Sans', 'Arial', 'Helvetica', 'Lucida Grande', 'Verdana', 'Geneva', 'Lucid', 'Avant Garde', sans-serif; text-anchor: start" x="101.565" y="100.024313" transform="rotate(-0 101.565 100.024313)">Wavelength</text>
    </g>
    <g id="line2d_34">
     <path d="M 84.765 106.731188 
L 90.765 106.731188 
L 96.765 106.731188 
" style="fill: none; stroke: #66c2a5; stroke-linecap: square"/>
    </g>
    <g id="text_20">
     <text style="font: 6px 'DejaVu Sans', 'Arial', 'Helvetica', 'Lucida Grande', 'Verdana', 'Geneva', 'Lucid', 'Avant Garde', sans-serif; text-anchor: start" x="101.565" y="108.831187" transform="rotate(-0 101.565 108.831187)">0.5</text>
    </g>
    <g id="line2d_35">
     <path d="M 84.765 115.538063 
L 90.765 115.538063 
L 96.765 115.538063 
" style="fill: none; stroke: #fc8d62; stroke-linecap: square"/>
    </g>
    <g id="text_21">
     <text style="font: 6px 'DejaVu Sans', 'Arial', 'Helvetica', 'Lucida Grande', 'Verdana', 'Geneva', 'Lucid', 'Avant Garde', sans-serif; text-anchor: start" x="101.565" y="117.638063" transform="rotate(-0 101.565 117.638063)">0.7</text>
    </g>
    <g id="line2d_36">
     <path d="M 84.765 124.344938 
L 90.765 124.344938 
L 96.765 124.344938 
" style="fill: none"/>
    </g>
    <g id="text_22">
     <text style="font: 6px 'DejaVu Sans', 'Arial', 'Helvetica', 'Lucida Grande', 'Verdana', 'Geneva', 'Lucid', 'Avant Garde', sans-serif; text-anchor: start" x="101.565" y="126.444938" transform="rotate(-0 101.565 126.444938)">Profile type</text>
    </g>
    <g id="line2d_37">
     <path d="M 84.765 133.151813 
L 90.765 133.151813 
L 96.765 133.151813 
" style="fill: none; stroke: #333333; stroke-linecap: square"/>
    </g>
    <g id="text_23">
     <text style="font: 6px 'DejaVu Sans', 'Arial', 'Helvetica', 'Lucida Grande', 'Verdana', 'Geneva', 'Lucid', 'Avant Garde', sans-serif; text-anchor: start" x="101.565" y="135.251813" transform="rotate(-0 101.565 135.251813)">0 DoF</text>
    </g>
    <g id="line2d_38">
     <path d="M 84.765 141.958688 
L 90.765 141.958688 
L 96.765 141.958688 
" style="fill: none; stroke-dasharray: 4,1.5; stroke-dashoffset: 0; stroke: #333333"/>
    </g>
    <g id="text_24">
     <text style="font: 6px 'DejaVu Sans', 'Arial', 'Helvetica', 'Lucida Grande', 'Verdana', 'Geneva', 'Lucid', 'Avant Garde', sans-serif; text-anchor: start" x="101.565" y="144.058688" transform="rotate(-0 101.565 144.058688)">Width DoF</text>
    </g>
   </g>
  </g>
  <g id="text_25">
   <text style="font: 700 6px 'DejaVu Sans', 'Arial', 'Helvetica', 'Lucida Grande', 'Verdana', 'Geneva', 'Lucid', 'Avant Garde', sans-serif; text-anchor: middle" x="79.2" y="7.727063" transform="rotate(-0 79.2 7.727063)">Effect of DoF and cell width</text>
  </g>
 </g>
 <defs>
  <clipPath id="p8dc822bf9e">
   <rect x="31.68" y="37.224" width="110.88" height="97.416"/>
  </clipPath>
 </defs>
</svg>
