<?xml version="1.0" encoding="utf-8" standalone="no"?>
<!DOCTYPE svg PUBLIC "-//W3C//DTD SVG 1.1//EN"
  "http://www.w3.org/Graphics/SVG/1.1/DTD/svg11.dtd">
<svg xmlns:xlink="http://www.w3.org/1999/xlink" width="158.4pt" height="158.4pt" viewBox="0 0 158.4 158.4" xmlns="http://www.w3.org/2000/svg" version="1.1">
 <metadata>
  <rdf:RDF xmlns:dc="http://purl.org/dc/elements/1.1/" xmlns:cc="http://creativecommons.org/ns#" xmlns:rdf="http://www.w3.org/1999/02/22-rdf-syntax-ns#">
   <cc:Work>
    <dc:type rdf:resource="http://purl.org/dc/dcmitype/StillImage"/>
    <dc:date>2024-01-31T18:51:54.581498</dc:date>
    <dc:format>image/svg+xml</dc:format>
    <dc:creator>
     <cc:Agent>
      <dc:title>Matplotlib v3.8.2, https://matplotlib.org/</dc:title>
     </cc:Agent>
    </dc:creator>
   </cc:Work>
  </rdf:RDF>
 </metadata>
 <defs>
  <style type="text/css">*{stroke-linejoin: round; stroke-linecap: butt}</style>
 </defs>
 <g id="figure_1">
  <g id="patch_1">
   <path d="M 0 158.4 
L 158.4 158.4 
L 158.4 0 
L 0 0 
L 0 158.4 
z
" style="fill: none"/>
  </g>
  <g id="axes_1">
   <g id="patch_2">
    <path d="M 31.68 134.64 
L 142.56 134.64 
L 142.56 37.224 
L 31.68 37.224 
L 31.68 134.64 
z
" style="fill: none"/>
   </g>
   <g id="PathCollection_1">
    <path d="M 36.72 47.578068 
C 37.313012 47.578068 37.881816 47.342462 38.301139 46.923139 
C 38.720462 46.503816 38.956068 45.935012 38.956068 45.342 
C 38.956068 44.748988 38.720462 44.180184 38.301139 43.760861 
C 37.881816 43.341538 37.313012 43.105932 36.72 43.105932 
C 36.126988 43.105932 35.558184 43.341538 35.138861 43.760861 
C 34.719538 44.180184 34.483932 44.748988 34.483932 45.342 
C 34.483932 45.935012 34.719538 46.503816 35.138861 46.923139 
C 35.558184 47.342462 36.126988 47.578068 36.72 47.578068 
z
" clip-path="url(#p05425c020b)" style="fill: #fc8d62; stroke: #ffffff; stroke-width: 0.357771"/>
    <path d="M 36.72 45.954468 
C 37.313012 45.954468 37.881816 45.718862 38.301139 45.299539 
C 38.720462 44.880216 38.956068 44.311412 38.956068 43.7184 
C 38.956068 43.125388 38.720462 42.556584 38.301139 42.137261 
C 37.881816 41.717938 37.313012 41.482332 36.72 41.482332 
C 36.126988 41.482332 35.558184 41.717938 35.138861 42.137261 
C 34.719538 42.556584 34.483932 43.125388 34.483932 43.7184 
C 34.483932 44.311412 34.719538 44.880216 35.138861 45.299539 
C 35.558184 45.718862 36.126988 45.954468 36.72 45.954468 
z
" clip-path="url(#p05425c020b)" style="fill: #66c2a5; stroke: #ffffff; stroke-width: 0.357771"/>
    <path d="M 43.44 44.959358 
C 44.033012 44.959358 44.601816 44.723752 45.021139 44.304429 
C 45.440462 43.885106 45.676068 43.316302 45.676068 42.72329 
C 45.676068 42.130278 45.440462 41.561474 45.021139 41.142151 
C 44.601816 40.722829 44.033012 40.487222 43.44 40.487222 
C 42.846988 40.487222 42.278184 40.722829 41.858861 41.142151 
C 41.439538 41.561474 41.203932 42.130278 41.203932 42.72329 
C 41.203932 43.316302 41.439538 43.885106 41.858861 44.304429 
C 42.278184 44.723752 42.846988 44.959358 43.44 44.959358 
z
" clip-path="url(#p05425c020b)" style="fill: #fc8d62; stroke: #ffffff; stroke-width: 0.357771"/>
    <path d="M 43.44 44.278494 
C 44.033012 44.278494 44.601816 44.042888 45.021139 43.623565 
C 45.440462 43.204242 45.676068 42.635438 45.676068 42.042426 
C 45.676068 41.449414 45.440462 40.88061 45.021139 40.461287 
C 44.601816 40.041964 44.033012 39.806358 43.44 39.806358 
C 42.846988 39.806358 42.278184 40.041964 41.858861 40.461287 
C 41.439538 40.88061 41.203932 41.449414 41.203932 42.042426 
C 41.203932 42.635438 41.439538 43.204242 41.858861 43.623565 
C 42.278184 44.042888 42.846988 44.278494 43.44 44.278494 
z
" clip-path="url(#p05425c020b)" style="fill: #66c2a5; stroke: #ffffff; stroke-width: 0.357771"/>
    <path d="M 50.16 44.240668 
C 50.753012 44.240668 51.321816 44.005062 51.741139 43.585739 
C 52.160462 43.166416 52.396068 42.597612 52.396068 42.0046 
C 52.396068 41.411588 52.160462 40.842784 51.741139 40.423461 
C 51.321816 40.004138 50.753012 39.768532 50.16 39.768532 
C 49.566988 39.768532 48.998184 40.004138 48.578861 40.423461 
C 48.159538 40.842784 47.923932 41.411588 47.923932 42.0046 
C 47.923932 42.597612 48.159538 43.166416 48.578861 43.585739 
C 48.998184 44.005062 49.566988 44.240668 50.16 44.240668 
z
" clip-path="url(#p05425c020b)" style="fill: #fc8d62; stroke: #ffffff; stroke-width: 0.357771"/>
    <path d="M 50.16 44.240668 
C 50.753012 44.240668 51.321816 44.005062 51.741139 43.585739 
C 52.160462 43.166416 52.396068 42.597612 52.396068 42.0046 
C 52.396068 41.411588 52.160462 40.842784 51.741139 40.423461 
C 51.321816 40.004138 50.753012 39.768532 50.16 39.768532 
C 49.566988 39.768532 48.998184 40.004138 48.578861 40.423461 
C 48.159538 40.842784 47.923932 41.411588 47.923932 42.0046 
C 47.923932 42.597612 48.159538 43.166416 48.578861 43.585739 
C 48.998184 44.005062 49.566988 44.240668 50.16 44.240668 
z
" clip-path="url(#p05425c020b)" style="fill: #66c2a5; stroke: #ffffff; stroke-width: 0.357771"/>
    <path d="M 56.88 43.182468 
C 57.473012 43.182468 58.041816 42.946862 58.461139 42.527539 
C 58.880462 42.108216 59.116068 41.539412 59.116068 40.9464 
C 59.116068 40.353388 58.880462 39.784584 58.461139 39.365261 
C 58.041816 38.945938 57.473012 38.710332 56.88 38.710332 
C 56.286988 38.710332 55.718184 38.945938 55.298861 39.365261 
C 54.879538 39.784584 54.643932 40.353388 54.643932 40.9464 
C 54.643932 41.539412 54.879538 42.108216 55.298861 42.527539 
C 55.718184 42.946862 56.286988 43.182468 56.88 43.182468 
z
" clip-path="url(#p05425c020b)" style="fill: #fc8d62; stroke: #ffffff; stroke-width: 0.357771"/>
    <path d="M 56.88 43.182468 
C 57.473012 43.182468 58.041816 42.946862 58.461139 42.527539 
C 58.880462 42.108216 59.116068 41.539412 59.116068 40.9464 
C 59.116068 40.353388 58.880462 39.784584 58.461139 39.365261 
C 58.041816 38.945938 57.473012 38.710332 56.88 38.710332 
C 56.286988 38.710332 55.718184 38.945938 55.298861 39.365261 
C 54.879538 39.784584 54.643932 40.353388 54.643932 40.9464 
C 54.643932 41.539412 54.879538 42.108216 55.298861 42.527539 
C 55.718184 42.946862 56.286988 43.182468 56.88 43.182468 
z
" clip-path="url(#p05425c020b)" style="fill: #66c2a5; stroke: #ffffff; stroke-width: 0.357771"/>
    <path d="M 63.6 44.189685 
C 64.193012 44.189685 64.761816 43.954079 65.181139 43.534756 
C 65.600462 43.115433 65.836068 42.54663 65.836068 41.953617 
C 65.836068 41.360605 65.600462 40.791801 65.181139 40.372479 
C 64.761816 39.953156 64.193012 39.717549 63.6 39.717549 
C 63.006988 39.717549 62.438184 39.953156 62.018861 40.372479 
C 61.599538 40.791801 61.363932 41.360605 61.363932 41.953617 
C 61.363932 42.54663 61.599538 43.115433 62.018861 43.534756 
C 62.438184 43.954079 63.006988 44.189685 63.6 44.189685 
z
" clip-path="url(#p05425c020b)" style="fill: #fc8d62; stroke: #ffffff; stroke-width: 0.357771"/>
    <path d="M 63.6 43.271998 
C 64.193012 43.271998 64.761816 43.036392 65.181139 42.617069 
C 65.600462 42.197746 65.836068 41.628943 65.836068 41.03593 
C 65.836068 40.442918 65.600462 39.874115 65.181139 39.454792 
C 64.761816 39.035469 64.193012 38.799862 63.6 38.799862 
C 63.006988 38.799862 62.438184 39.035469 62.018861 39.454792 
C 61.599538 39.874115 61.363932 40.442918 61.363932 41.03593 
C 61.363932 41.628943 61.599538 42.197746 62.018861 42.617069 
C 62.438184 43.036392 63.006988 43.271998 63.6 43.271998 
z
" clip-path="url(#p05425c020b)" style="fill: #66c2a5; stroke: #ffffff; stroke-width: 0.357771"/>
    <path d="M 70.32 42.516256 
C 70.913012 42.516256 71.481816 42.28065 71.901139 41.861327 
C 72.320462 41.442004 72.556068 40.8732 72.556068 40.280188 
C 72.556068 39.687176 72.320462 39.118372 71.901139 38.699049 
C 71.481816 38.279726 70.913012 38.04412 70.32 38.04412 
C 69.726988 38.04412 69.158184 38.279726 68.738861 38.699049 
C 68.319538 39.118372 68.083932 39.687176 68.083932 40.280188 
C 68.083932 40.8732 68.319538 41.442004 68.738861 41.861327 
C 69.158184 42.28065 69.726988 42.516256 70.32 42.516256 
z
" clip-path="url(#p05425c020b)" style="fill: #fc8d62; stroke: #ffffff; stroke-width: 0.357771"/>
    <path d="M 70.32 42.516256 
C 70.913012 42.516256 71.481816 42.28065 71.901139 41.861327 
C 72.320462 41.442004 72.556068 40.8732 72.556068 40.280188 
C 72.556068 39.687176 72.320462 39.118372 71.901139 38.699049 
C 71.481816 38.279726 70.913012 38.04412 70.32 38.04412 
C 69.726988 38.04412 69.158184 38.279726 68.738861 38.699049 
C 68.319538 39.118372 68.083932 39.687176 68.083932 40.280188 
C 68.083932 40.8732 68.319538 41.442004 68.738861 41.861327 
C 69.158184 42.28065 69.726988 42.516256 70.32 42.516256 
z
" clip-path="url(#p05425c020b)" style="fill: #66c2a5; stroke: #ffffff; stroke-width: 0.357771"/>
    <path d="M 77.04 42.649282 
C 77.633012 42.649282 78.201816 42.413676 78.621139 41.994353 
C 79.040462 41.57503 79.276068 41.006226 79.276068 40.413214 
C 79.276068 39.820202 79.040462 39.251398 78.621139 38.832075 
C 78.201816 38.412753 77.633012 38.177146 77.04 38.177146 
C 76.446988 38.177146 75.878184 38.412753 75.458861 38.832075 
C 75.039538 39.251398 74.803932 39.820202 74.803932 40.413214 
C 74.803932 41.006226 75.039538 41.57503 75.458861 41.994353 
C 75.878184 42.413676 76.446988 42.649282 77.04 42.649282 
z
" clip-path="url(#p05425c020b)" style="fill: #fc8d62; stroke: #ffffff; stroke-width: 0.357771"/>
    <path d="M 77.04 42.649282 
C 77.633012 42.649282 78.201816 42.413676 78.621139 41.994353 
C 79.040462 41.57503 79.276068 41.006226 79.276068 40.413214 
C 79.276068 39.820202 79.040462 39.251398 78.621139 38.832075 
C 78.201816 38.412753 77.633012 38.177146 77.04 38.177146 
C 76.446988 38.177146 75.878184 38.412753 75.458861 38.832075 
C 75.039538 39.251398 74.803932 39.820202 74.803932 40.413214 
C 74.803932 41.006226 75.039538 41.57503 75.458861 41.994353 
C 75.878184 42.413676 76.446988 42.649282 77.04 42.649282 
z
" clip-path="url(#p05425c020b)" style="fill: #66c2a5; stroke: #ffffff; stroke-width: 0.357771"/>
    <path d="M 83.76 42.068475 
C 84.353012 42.068475 84.921816 41.832868 85.341139 41.413545 
C 85.760462 40.994222 85.996068 40.425419 85.996068 39.832407 
C 85.996068 39.239394 85.760462 38.670591 85.341139 38.251268 
C 84.921816 37.831945 84.353012 37.596339 83.76 37.596339 
C 83.166988 37.596339 82.598184 37.831945 82.178861 38.251268 
C 81.759538 38.670591 81.523932 39.239394 81.523932 39.832407 
C 81.523932 40.425419 81.759538 40.994222 82.178861 41.413545 
C 82.598184 41.832868 83.166988 42.068475 83.76 42.068475 
z
" clip-path="url(#p05425c020b)" style="fill: #fc8d62; stroke: #ffffff; stroke-width: 0.357771"/>
    <path d="M 83.76 42.068475 
C 84.353012 42.068475 84.921816 41.832868 85.341139 41.413545 
C 85.760462 40.994222 85.996068 40.425419 85.996068 39.832407 
C 85.996068 39.239394 85.760462 38.670591 85.341139 38.251268 
C 84.921816 37.831945 84.353012 37.596339 83.76 37.596339 
C 83.166988 37.596339 82.598184 37.831945 82.178861 38.251268 
C 81.759538 38.670591 81.523932 39.239394 81.523932 39.832407 
C 81.523932 40.425419 81.759538 40.994222 82.178861 41.413545 
C 82.598184 41.832868 83.166988 42.068475 83.76 42.068475 
z
" clip-path="url(#p05425c020b)" style="fill: #66c2a5; stroke: #ffffff; stroke-width: 0.357771"/>
    <path d="M 90.48 41.895468 
C 91.073012 41.895468 91.641816 41.659862 92.061139 41.240539 
C 92.480462 40.821216 92.716068 40.252412 92.716068 39.6594 
C 92.716068 39.066388 92.480462 38.497584 92.061139 38.078261 
C 91.641816 37.658938 91.073012 37.423332 90.48 37.423332 
C 89.886988 37.423332 89.318184 37.658938 88.898861 38.078261 
C 88.479538 38.497584 88.243932 39.066388 88.243932 39.6594 
C 88.243932 40.252412 88.479538 40.821216 88.898861 41.240539 
C 89.318184 41.659862 89.886988 41.895468 90.48 41.895468 
z
" clip-path="url(#p05425c020b)" style="fill: #fc8d62; stroke: #ffffff; stroke-width: 0.357771"/>
    <path d="M 90.48 41.895468 
C 91.073012 41.895468 91.641816 41.659862 92.061139 41.240539 
C 92.480462 40.821216 92.716068 40.252412 92.716068 39.6594 
C 92.716068 39.066388 92.480462 38.497584 92.061139 38.078261 
C 91.641816 37.658938 91.073012 37.423332 90.48 37.423332 
C 89.886988 37.423332 89.318184 37.658938 88.898861 38.078261 
C 88.479538 38.497584 88.243932 39.066388 88.243932 39.6594 
C 88.243932 40.252412 88.479538 40.821216 88.898861 41.240539 
C 89.318184 41.659862 89.886988 41.895468 90.48 41.895468 
z
" clip-path="url(#p05425c020b)" style="fill: #66c2a5; stroke: #ffffff; stroke-width: 0.357771"/>
    <path d="M 97.2 42.044107 
C 97.793012 42.044107 98.361816 41.808501 98.781139 41.389178 
C 99.200462 40.969855 99.436068 40.401052 99.436068 39.808039 
C 99.436068 39.215027 99.200462 38.646224 98.781139 38.226901 
C 98.361816 37.807578 97.793012 37.571971 97.2 37.571971 
C 96.606988 37.571971 96.038184 37.807578 95.618861 38.226901 
C 95.199538 38.646224 94.963932 39.215027 94.963932 39.808039 
C 94.963932 40.401052 95.199538 40.969855 95.618861 41.389178 
C 96.038184 41.808501 96.606988 42.044107 97.2 42.044107 
z
" clip-path="url(#p05425c020b)" style="fill: #fc8d62; stroke: #ffffff; stroke-width: 0.357771"/>
    <path d="M 97.2 41.746829 
C 97.793012 41.746829 98.361816 41.511222 98.781139 41.091899 
C 99.200462 40.672576 99.436068 40.103773 99.436068 39.510761 
C 99.436068 38.917748 99.200462 38.348945 98.781139 37.929622 
C 98.361816 37.510299 97.793012 37.274693 97.2 37.274693 
C 96.606988 37.274693 96.038184 37.510299 95.618861 37.929622 
C 95.199538 38.348945 94.963932 38.917748 94.963932 39.510761 
C 94.963932 40.103773 95.199538 40.672576 95.618861 41.091899 
C 96.038184 41.511222 96.606988 41.746829 97.2 41.746829 
z
" clip-path="url(#p05425c020b)" style="fill: #66c2a5; stroke: #ffffff; stroke-width: 0.357771"/>
    <path d="M 103.92 41.895468 
C 104.513012 41.895468 105.081816 41.659862 105.501139 41.240539 
C 105.920462 40.821216 106.156068 40.252412 106.156068 39.6594 
C 106.156068 39.066388 105.920462 38.497584 105.501139 38.078261 
C 105.081816 37.658938 104.513012 37.423332 103.92 37.423332 
C 103.326988 37.423332 102.758184 37.658938 102.338861 38.078261 
C 101.919538 38.497584 101.683932 39.066388 101.683932 39.6594 
C 101.683932 40.252412 101.919538 40.821216 102.338861 41.240539 
C 102.758184 41.659862 103.326988 41.895468 103.92 41.895468 
z
" clip-path="url(#p05425c020b)" style="fill: #fc8d62; stroke: #ffffff; stroke-width: 0.357771"/>
    <path d="M 103.92 41.617747 
C 104.513012 41.617747 105.081816 41.382141 105.501139 40.962818 
C 105.920462 40.543495 106.156068 39.974691 106.156068 39.381679 
C 106.156068 38.788667 105.920462 38.219863 105.501139 37.80054 
C 105.081816 37.381217 104.513012 37.145611 103.92 37.145611 
C 103.326988 37.145611 102.758184 37.381217 102.338861 37.80054 
C 101.919538 38.219863 101.683932 38.788667 101.683932 39.381679 
C 101.683932 39.974691 101.919538 40.543495 102.338861 40.962818 
C 102.758184 41.382141 103.326988 41.617747 103.92 41.617747 
z
" clip-path="url(#p05425c020b)" style="fill: #66c2a5; stroke: #ffffff; stroke-width: 0.357771"/>
    <path d="M 110.64 41.504601 
C 111.233012 41.504601 111.801816 41.268995 112.221139 40.849672 
C 112.640462 40.430349 112.876068 39.861545 112.876068 39.268533 
C 112.876068 38.675521 112.640462 38.106717 112.221139 37.687395 
C 111.801816 37.268072 111.233012 37.032465 110.64 37.032465 
C 110.046988 37.032465 109.478184 37.268072 109.058861 37.687395 
C 108.639538 38.106717 108.403932 38.675521 108.403932 39.268533 
C 108.403932 39.861545 108.639538 40.430349 109.058861 40.849672 
C 109.478184 41.268995 110.046988 41.504601 110.64 41.504601 
z
" clip-path="url(#p05425c020b)" style="fill: #fc8d62; stroke: #ffffff; stroke-width: 0.357771"/>
    <path d="M 110.64 41.504601 
C 111.233012 41.504601 111.801816 41.268995 112.221139 40.849672 
C 112.640462 40.430349 112.876068 39.861545 112.876068 39.268533 
C 112.876068 38.675521 112.640462 38.106717 112.221139 37.687395 
C 111.801816 37.268072 111.233012 37.032465 110.64 37.032465 
C 110.046988 37.032465 109.478184 37.268072 109.058861 37.687395 
C 108.639538 38.106717 108.403932 38.675521 108.403932 39.268533 
C 108.403932 39.861545 108.639538 40.430349 109.058861 40.849672 
C 109.478184 41.268995 110.046988 41.504601 110.64 41.504601 
z
" clip-path="url(#p05425c020b)" style="fill: #66c2a5; stroke: #ffffff; stroke-width: 0.357771"/>
    <path d="M 117.36 41.404612 
C 117.953012 41.404612 118.521816 41.169006 118.941139 40.749683 
C 119.360462 40.33036 119.596068 39.761556 119.596068 39.168544 
C 119.596068 38.575532 119.360462 38.006728 118.941139 37.587405 
C 118.521816 37.168082 117.953012 36.932476 117.36 36.932476 
C 116.766988 36.932476 116.198184 37.168082 115.778861 37.587405 
C 115.359538 38.006728 115.123932 38.575532 115.123932 39.168544 
C 115.123932 39.761556 115.359538 40.33036 115.778861 40.749683 
C 116.198184 41.169006 116.766988 41.404612 117.36 41.404612 
z
" clip-path="url(#p05425c020b)" style="fill: #fc8d62; stroke: #ffffff; stroke-width: 0.357771"/>
    <path d="M 117.36 41.404612 
C 117.953012 41.404612 118.521816 41.169006 118.941139 40.749683 
C 119.360462 40.33036 119.596068 39.761556 119.596068 39.168544 
C 119.596068 38.575532 119.360462 38.006728 118.941139 37.587405 
C 118.521816 37.168082 117.953012 36.932476 117.36 36.932476 
C 116.766988 36.932476 116.198184 37.168082 115.778861 37.587405 
C 115.359538 38.006728 115.123932 38.575532 115.123932 39.168544 
C 115.123932 39.761556 115.359538 40.33036 115.778861 40.749683 
C 116.198184 41.169006 116.766988 41.404612 117.36 41.404612 
z
" clip-path="url(#p05425c020b)" style="fill: #66c2a5; stroke: #ffffff; stroke-width: 0.357771"/>
    <path d="M 124.08 43.403097 
C 124.673012 43.403097 125.241816 43.16749 125.661139 42.748167 
C 126.080462 42.328844 126.316068 41.760041 126.316068 41.167029 
C 126.316068 40.574016 126.080462 40.005213 125.661139 39.58589 
C 125.241816 39.166567 124.673012 38.930961 124.08 38.930961 
C 123.486988 38.930961 122.918184 39.166567 122.498861 39.58589 
C 122.079538 40.005213 121.843932 40.574016 121.843932 41.167029 
C 121.843932 41.760041 122.079538 42.328844 122.498861 42.748167 
C 122.918184 43.16749 123.486988 43.403097 124.08 43.403097 
z
" clip-path="url(#p05425c020b)" style="fill: #fc8d62; stroke: #ffffff; stroke-width: 0.357771"/>
    <path d="M 124.08 41.315611 
C 124.673012 41.315611 125.241816 41.080005 125.661139 40.660682 
C 126.080462 40.241359 126.316068 39.672555 126.316068 39.079543 
C 126.316068 38.486531 126.080462 37.917727 125.661139 37.498404 
C 125.241816 37.079081 124.673012 36.843475 124.08 36.843475 
C 123.486988 36.843475 122.918184 37.079081 122.498861 37.498404 
C 122.079538 37.917727 121.843932 38.486531 121.843932 39.079543 
C 121.843932 39.672555 122.079538 40.241359 122.498861 40.660682 
C 122.918184 41.080005 123.486988 41.315611 124.08 41.315611 
z
" clip-path="url(#p05425c020b)" style="fill: #66c2a5; stroke: #ffffff; stroke-width: 0.357771"/>
    <path d="M 130.8 41.016018 
C 131.393012 41.016018 131.961816 40.780412 132.381139 40.361089 
C 132.800462 39.941766 133.036068 39.372962 133.036068 38.77995 
C 133.036068 38.186938 132.800462 37.618134 132.381139 37.198811 
C 131.961816 36.779488 131.393012 36.543882 130.8 36.543882 
C 130.206988 36.543882 129.638184 36.779488 129.218861 37.198811 
C 128.799538 37.618134 128.563932 38.186938 128.563932 38.77995 
C 128.563932 39.372962 128.799538 39.941766 129.218861 40.361089 
C 129.638184 40.780412 130.206988 41.016018 130.8 41.016018 
z
" clip-path="url(#p05425c020b)" style="fill: #fc8d62; stroke: #ffffff; stroke-width: 0.357771"/>
    <path d="M 130.8 41.016018 
C 131.393012 41.016018 131.961816 40.780412 132.381139 40.361089 
C 132.800462 39.941766 133.036068 39.372962 133.036068 38.77995 
C 133.036068 38.186938 132.800462 37.618134 132.381139 37.198811 
C 131.961816 36.779488 131.393012 36.543882 130.8 36.543882 
C 130.206988 36.543882 129.638184 36.779488 129.218861 37.198811 
C 128.799538 37.618134 128.563932 38.186938 128.563932 38.77995 
C 128.563932 39.372962 128.799538 39.941766 129.218861 40.361089 
C 129.638184 40.780412 130.206988 41.016018 130.8 41.016018 
z
" clip-path="url(#p05425c020b)" style="fill: #66c2a5; stroke: #ffffff; stroke-width: 0.357771"/>
    <path d="M 137.52 41.164044 
C 138.113012 41.164044 138.681816 40.928438 139.101139 40.509115 
C 139.520462 40.089792 139.756068 39.520988 139.756068 38.927976 
C 139.756068 38.334964 139.520462 37.76616 139.101139 37.346837 
C 138.681816 36.927514 138.113012 36.691908 137.52 36.691908 
C 136.926988 36.691908 136.358184 36.927514 135.938861 37.346837 
C 135.519538 37.76616 135.283932 38.334964 135.283932 38.927976 
C 135.283932 39.520988 135.519538 40.089792 135.938861 40.509115 
C 136.358184 40.928438 136.926988 41.164044 137.52 41.164044 
z
" clip-path="url(#p05425c020b)" style="fill: #fc8d62; stroke: #ffffff; stroke-width: 0.357771"/>
    <path d="M 137.52 41.164044 
C 138.113012 41.164044 138.681816 40.928438 139.101139 40.509115 
C 139.520462 40.089792 139.756068 39.520988 139.756068 38.927976 
C 139.756068 38.334964 139.520462 37.76616 139.101139 37.346837 
C 138.681816 36.927514 138.113012 36.691908 137.52 36.691908 
C 136.926988 36.691908 136.358184 36.927514 135.938861 37.346837 
C 135.519538 37.76616 135.283932 38.334964 135.283932 38.927976 
C 135.283932 39.520988 135.519538 40.089792 135.938861 40.509115 
C 136.358184 40.928438 136.926988 41.164044 137.52 41.164044 
z
" clip-path="url(#p05425c020b)" style="fill: #66c2a5; stroke: #ffffff; stroke-width: 0.357771"/>
    <path d="M 35.601966 136.876068 
L 36.72 135.758034 
L 37.838034 136.876068 
L 38.956068 135.758034 
L 37.838034 134.64 
L 38.956068 133.521966 
L 37.838034 132.403932 
L 36.72 133.521966 
L 35.601966 132.403932 
L 34.483932 133.521966 
L 35.601966 134.64 
L 34.483932 135.758034 
z
" clip-path="url(#p05425c020b)" style="fill: #fc8d62; stroke: #ffffff; stroke-width: 0.357771"/>
    <path d="M 35.601966 79.238268 
L 36.72 78.120234 
L 37.838034 79.238268 
L 38.956068 78.120234 
L 37.838034 77.0022 
L 38.956068 75.884166 
L 37.838034 74.766132 
L 36.72 75.884166 
L 35.601966 74.766132 
L 34.483932 75.884166 
L 35.601966 77.0022 
L 34.483932 78.120234 
z
" clip-path="url(#p05425c020b)" style="fill: #66c2a5; stroke: #ffffff; stroke-width: 0.357771"/>
    <path d="M 42.321966 136.876068 
L 43.44 135.758034 
L 44.558034 136.876068 
L 45.676068 135.758034 
L 44.558034 134.64 
L 45.676068 133.521966 
L 44.558034 132.403932 
L 43.44 133.521966 
L 42.321966 132.403932 
L 41.203932 133.521966 
L 42.321966 134.64 
L 41.203932 135.758034 
z
" clip-path="url(#p05425c020b)" style="fill: #fc8d62; stroke: #ffffff; stroke-width: 0.357771"/>
    <path d="M 42.321966 69.470481 
L 43.44 68.352447 
L 44.558034 69.470481 
L 45.676068 68.352447 
L 44.558034 67.234413 
L 45.676068 66.116379 
L 44.558034 64.998345 
L 43.44 66.116379 
L 42.321966 64.998345 
L 41.203932 66.116379 
L 42.321966 67.234413 
L 41.203932 68.352447 
z
" clip-path="url(#p05425c020b)" style="fill: #66c2a5; stroke: #ffffff; stroke-width: 0.357771"/>
    <path d="M 49.041966 79.418668 
L 50.16 78.300634 
L 51.278034 79.418668 
L 52.396068 78.300634 
L 51.278034 77.1826 
L 52.396068 76.064566 
L 51.278034 74.946532 
L 50.16 76.064566 
L 49.041966 74.946532 
L 47.923932 76.064566 
L 49.041966 77.1826 
L 47.923932 78.300634 
z
" clip-path="url(#p05425c020b)" style="fill: #fc8d62; stroke: #ffffff; stroke-width: 0.357771"/>
    <path d="M 49.041966 64.761168 
L 50.16 63.643134 
L 51.278034 64.761168 
L 52.396068 63.643134 
L 51.278034 62.5251 
L 52.396068 61.407066 
L 51.278034 60.289032 
L 50.16 61.407066 
L 49.041966 60.289032 
L 47.923932 61.407066 
L 49.041966 62.5251 
L 47.923932 63.643134 
z
" clip-path="url(#p05425c020b)" style="fill: #66c2a5; stroke: #ffffff; stroke-width: 0.357771"/>
    <path d="M 55.761966 72.011268 
L 56.88 70.893234 
L 57.998034 72.011268 
L 59.116068 70.893234 
L 57.998034 69.7752 
L 59.116068 68.657166 
L 57.998034 67.539132 
L 56.88 68.657166 
L 55.761966 67.539132 
L 54.643932 68.657166 
L 55.761966 69.7752 
L 54.643932 70.893234 
z
" clip-path="url(#p05425c020b)" style="fill: #fc8d62; stroke: #ffffff; stroke-width: 0.357771"/>
    <path d="M 55.761966 60.170868 
L 56.88 59.052834 
L 57.998034 60.170868 
L 59.116068 59.052834 
L 57.998034 57.9348 
L 59.116068 56.816766 
L 57.998034 55.698732 
L 56.88 56.816766 
L 55.761966 55.698732 
L 54.643932 56.816766 
L 55.761966 57.9348 
L 54.643932 59.052834 
z
" clip-path="url(#p05425c020b)" style="fill: #66c2a5; stroke: #ffffff; stroke-width: 0.357771"/>
    <path d="M 62.481966 68.967233 
L 63.6 67.849199 
L 64.718034 68.967233 
L 65.836068 67.849199 
L 64.718034 66.731165 
L 65.836068 65.613131 
L 64.718034 64.495097 
L 63.6 65.613131 
L 62.481966 64.495097 
L 61.363932 65.613131 
L 62.481966 66.731165 
L 61.363932 67.849199 
z
" clip-path="url(#p05425c020b)" style="fill: #fc8d62; stroke: #ffffff; stroke-width: 0.357771"/>
    <path d="M 62.481966 57.496146 
L 63.6 56.378112 
L 64.718034 57.496146 
L 65.836068 56.378112 
L 64.718034 55.260078 
L 65.836068 54.142044 
L 64.718034 53.02401 
L 63.6 54.142044 
L 62.481966 53.02401 
L 61.363932 54.142044 
L 62.481966 55.260078 
L 61.363932 56.378112 
z
" clip-path="url(#p05425c020b)" style="fill: #66c2a5; stroke: #ffffff; stroke-width: 0.357771"/>
    <path d="M 69.201966 64.864633 
L 70.32 63.746599 
L 71.438034 64.864633 
L 72.556068 63.746599 
L 71.438034 62.628565 
L 72.556068 61.510531 
L 71.438034 60.392497 
L 70.32 61.510531 
L 69.201966 60.392497 
L 68.083932 61.510531 
L 69.201966 62.628565 
L 68.083932 63.746599 
z
" clip-path="url(#p05425c020b)" style="fill: #fc8d62; stroke: #ffffff; stroke-width: 0.357771"/>
    <path d="M 69.201966 55.34588 
L 70.32 54.227846 
L 71.438034 55.34588 
L 72.556068 54.227846 
L 71.438034 53.109812 
L 72.556068 51.991778 
L 71.438034 50.873744 
L 70.32 51.991778 
L 69.201966 50.873744 
L 68.083932 51.991778 
L 69.201966 53.109812 
L 68.083932 54.227846 
z
" clip-path="url(#p05425c020b)" style="fill: #66c2a5; stroke: #ffffff; stroke-width: 0.357771"/>
    <path d="M 75.921966 62.248454 
L 77.04 61.13042 
L 78.158034 62.248454 
L 79.276068 61.13042 
L 78.158034 60.012386 
L 79.276068 58.894352 
L 78.158034 57.776318 
L 77.04 58.894352 
L 75.921966 57.776318 
L 74.803932 58.894352 
L 75.921966 60.012386 
L 74.803932 61.13042 
z
" clip-path="url(#p05425c020b)" style="fill: #fc8d62; stroke: #ffffff; stroke-width: 0.357771"/>
    <path d="M 75.921966 53.579589 
L 77.04 52.461555 
L 78.158034 53.579589 
L 79.276068 52.461555 
L 78.158034 51.343521 
L 79.276068 50.225487 
L 78.158034 49.107453 
L 77.04 50.225487 
L 75.921966 49.107453 
L 74.803932 50.225487 
L 75.921966 51.343521 
L 74.803932 52.461555 
z
" clip-path="url(#p05425c020b)" style="fill: #66c2a5; stroke: #ffffff; stroke-width: 0.357771"/>
    <path d="M 82.641966 59.36913 
L 83.76 58.251096 
L 84.878034 59.36913 
L 85.996068 58.251096 
L 84.878034 57.133062 
L 85.996068 56.015028 
L 84.878034 54.896994 
L 83.76 56.015028 
L 82.641966 54.896994 
L 81.523932 56.015028 
L 82.641966 57.133062 
L 81.523932 58.251096 
z
" clip-path="url(#p05425c020b)" style="fill: #fc8d62; stroke: #ffffff; stroke-width: 0.357771"/>
    <path d="M 82.641966 51.756842 
L 83.76 50.638808 
L 84.878034 51.756842 
L 85.996068 50.638808 
L 84.878034 49.520774 
L 85.996068 48.40274 
L 84.878034 47.284706 
L 83.76 48.40274 
L 82.641966 47.284706 
L 81.523932 48.40274 
L 82.641966 49.520774 
L 81.523932 50.638808 
z
" clip-path="url(#p05425c020b)" style="fill: #66c2a5; stroke: #ffffff; stroke-width: 0.357771"/>
    <path d="M 89.361966 57.565668 
L 90.48 56.447634 
L 91.598034 57.565668 
L 92.716068 56.447634 
L 91.598034 55.3296 
L 92.716068 54.211566 
L 91.598034 53.093532 
L 90.48 54.211566 
L 89.361966 53.093532 
L 88.243932 54.211566 
L 89.361966 55.3296 
L 88.243932 56.447634 
z
" clip-path="url(#p05425c020b)" style="fill: #fc8d62; stroke: #ffffff; stroke-width: 0.357771"/>
    <path d="M 89.361966 50.210268 
L 90.48 49.092234 
L 91.598034 50.210268 
L 92.716068 49.092234 
L 91.598034 47.9742 
L 92.716068 46.856166 
L 91.598034 45.738132 
L 90.48 46.856166 
L 89.361966 45.738132 
L 88.243932 46.856166 
L 89.361966 47.9742 
L 88.243932 49.092234 
z
" clip-path="url(#p05425c020b)" style="fill: #66c2a5; stroke: #ffffff; stroke-width: 0.357771"/>
    <path d="M 96.081966 56.016214 
L 97.2 54.89818 
L 98.318034 56.016214 
L 99.436068 54.89818 
L 98.318034 53.780146 
L 99.436068 52.662112 
L 98.318034 51.544079 
L 97.2 52.662112 
L 96.081966 51.544079 
L 94.963932 52.662112 
L 96.081966 53.780146 
L 94.963932 54.89818 
z
" clip-path="url(#p05425c020b)" style="fill: #fc8d62; stroke: #ffffff; stroke-width: 0.357771"/>
    <path d="M 96.081966 49.1788 
L 97.2 48.060766 
L 98.318034 49.1788 
L 99.436068 48.060766 
L 98.318034 46.942732 
L 99.436068 45.824698 
L 98.318034 44.706664 
L 97.2 45.824698 
L 96.081966 44.706664 
L 94.963932 45.824698 
L 96.081966 46.942732 
L 94.963932 48.060766 
z
" clip-path="url(#p05425c020b)" style="fill: #66c2a5; stroke: #ffffff; stroke-width: 0.357771"/>
    <path d="M 102.801966 54.670636 
L 103.92 53.552602 
L 105.038034 54.670636 
L 106.156068 53.552602 
L 105.038034 52.434568 
L 106.156068 51.316534 
L 105.038034 50.1985 
L 103.92 51.316534 
L 102.801966 50.1985 
L 101.683932 51.316534 
L 102.801966 52.434568 
L 101.683932 53.552602 
z
" clip-path="url(#p05425c020b)" style="fill: #fc8d62; stroke: #ffffff; stroke-width: 0.357771"/>
    <path d="M 102.801966 48.283052 
L 103.92 47.165018 
L 105.038034 48.283052 
L 106.156068 47.165018 
L 105.038034 46.046984 
L 106.156068 44.92895 
L 105.038034 43.810916 
L 103.92 44.92895 
L 102.801966 43.810916 
L 101.683932 44.92895 
L 102.801966 46.046984 
L 101.683932 47.165018 
z
" clip-path="url(#p05425c020b)" style="fill: #66c2a5; stroke: #ffffff; stroke-width: 0.357771"/>
    <path d="M 109.521966 53.491179 
L 110.64 52.373145 
L 111.758034 53.491179 
L 112.876068 52.373145 
L 111.758034 51.255111 
L 112.876068 50.137077 
L 111.758034 49.019043 
L 110.64 50.137077 
L 109.521966 49.019043 
L 108.403932 50.137077 
L 109.521966 51.255111 
L 108.403932 52.373145 
z
" clip-path="url(#p05425c020b)" style="fill: #fc8d62; stroke: #ffffff; stroke-width: 0.357771"/>
    <path d="M 109.521966 47.49789 
L 110.64 46.379856 
L 111.758034 47.49789 
L 112.876068 46.379856 
L 111.758034 45.261822 
L 112.876068 44.143788 
L 111.758034 43.025754 
L 110.64 44.143788 
L 109.521966 43.025754 
L 108.403932 44.143788 
L 109.521966 45.261822 
L 108.403932 46.379856 
z
" clip-path="url(#p05425c020b)" style="fill: #66c2a5; stroke: #ffffff; stroke-width: 0.357771"/>
    <path d="M 116.241966 52.448868 
L 117.36 51.330834 
L 118.478034 52.448868 
L 119.596068 51.330834 
L 118.478034 50.2128 
L 119.596068 49.094766 
L 118.478034 47.976732 
L 117.36 49.094766 
L 116.241966 47.976732 
L 115.123932 49.094766 
L 116.241966 50.2128 
L 115.123932 51.330834 
z
" clip-path="url(#p05425c020b)" style="fill: #fc8d62; stroke: #ffffff; stroke-width: 0.357771"/>
    <path d="M 116.241966 46.804026 
L 117.36 45.685992 
L 118.478034 46.804026 
L 119.596068 45.685992 
L 118.478034 44.567958 
L 119.596068 43.449924 
L 118.478034 42.33189 
L 117.36 43.449924 
L 116.241966 42.33189 
L 115.123932 43.449924 
L 116.241966 44.567958 
L 115.123932 45.685992 
z
" clip-path="url(#p05425c020b)" style="fill: #66c2a5; stroke: #ffffff; stroke-width: 0.357771"/>
    <path d="M 122.961966 51.289154 
L 124.08 50.17112 
L 125.198034 51.289154 
L 126.316068 50.17112 
L 125.198034 49.053086 
L 126.316068 47.935052 
L 125.198034 46.817018 
L 124.08 47.935052 
L 122.961966 46.817018 
L 121.843932 47.935052 
L 122.961966 49.053086 
L 121.843932 50.17112 
z
" clip-path="url(#p05425c020b)" style="fill: #fc8d62; stroke: #ffffff; stroke-width: 0.357771"/>
    <path d="M 122.961966 46.186411 
L 124.08 45.068377 
L 125.198034 46.186411 
L 126.316068 45.068377 
L 125.198034 43.950343 
L 126.316068 42.832309 
L 125.198034 41.714275 
L 124.08 42.832309 
L 122.961966 41.714275 
L 121.843932 42.832309 
L 122.961966 43.950343 
L 121.843932 45.068377 
z
" clip-path="url(#p05425c020b)" style="fill: #66c2a5; stroke: #ffffff; stroke-width: 0.357771"/>
    <path d="M 129.681966 51.129693 
L 130.8 50.011659 
L 131.918034 51.129693 
L 133.036068 50.011659 
L 131.918034 48.893625 
L 133.036068 47.775591 
L 131.918034 46.657557 
L 130.8 47.775591 
L 129.681966 46.657557 
L 128.563932 47.775591 
L 129.681966 48.893625 
L 128.563932 50.011659 
z
" clip-path="url(#p05425c020b)" style="fill: #fc8d62; stroke: #ffffff; stroke-width: 0.357771"/>
    <path d="M 129.681966 45.63313 
L 130.8 44.515096 
L 131.918034 45.63313 
L 133.036068 44.515096 
L 131.918034 43.397062 
L 133.036068 42.279029 
L 131.918034 41.160995 
L 130.8 42.279029 
L 129.681966 41.160995 
L 128.563932 42.279029 
L 129.681966 43.397062 
L 128.563932 44.515096 
z
" clip-path="url(#p05425c020b)" style="fill: #66c2a5; stroke: #ffffff; stroke-width: 0.357771"/>
    <path d="M 136.401966 50.359086 
L 137.52 49.241052 
L 138.638034 50.359086 
L 139.756068 49.241052 
L 138.638034 48.123018 
L 139.756068 47.004984 
L 138.638034 45.88695 
L 137.52 47.004984 
L 136.401966 45.88695 
L 135.283932 47.004984 
L 136.401966 48.123018 
L 135.283932 49.241052 
z
" clip-path="url(#p05425c020b)" style="fill: #fc8d62; stroke: #ffffff; stroke-width: 0.357771"/>
    <path d="M 136.401966 45.343609 
L 137.52 44.225575 
L 138.638034 45.343609 
L 139.756068 44.225575 
L 138.638034 43.107541 
L 139.756068 41.989507 
L 138.638034 40.871473 
L 137.52 41.989507 
L 136.401966 40.871473 
L 135.283932 41.989507 
L 136.401966 43.107541 
L 135.283932 44.225575 
z
" clip-path="url(#p05425c020b)" style="fill: #66c2a5; stroke: #ffffff; stroke-width: 0.357771"/>
   </g>
   <g id="PolyCollection_1"/>
   <g id="PolyCollection_2"/>
   <g id="PolyCollection_3"/>
   <g id="PolyCollection_4"/>
   <g id="matplotlib.axis_1">
    <g id="xtick_1">
     <g id="line2d_1">
      <defs>
       <path id="m0ed4019652" d="M 0 0 
L 0 3.5 
" style="stroke: #000000; stroke-width: 0.8"/>
      </defs>
      <g>
       <use xlink:href="#m0ed4019652" x="35.376" y="134.64" style="stroke: #000000; stroke-width: 0.8"/>
      </g>
     </g>
     <g id="text_1">
      <text style="font: 6px 'DejaVu Sans', 'Arial', 'Helvetica', 'Lucida Grande', 'Verdana', 'Geneva', 'Lucid', 'Avant Garde', sans-serif; text-anchor: middle" x="35.376" y="146.199062" transform="rotate(-0 35.376 146.199062)">0.5</text>
     </g>
    </g>
    <g id="xtick_2">
     <g id="line2d_2">
      <g>
       <use xlink:href="#m0ed4019652" x="68.976" y="134.64" style="stroke: #000000; stroke-width: 0.8"/>
      </g>
     </g>
     <g id="text_2">
      <text style="font: 6px 'DejaVu Sans', 'Arial', 'Helvetica', 'Lucida Grande', 'Verdana', 'Geneva', 'Lucid', 'Avant Garde', sans-serif; text-anchor: middle" x="68.976" y="146.199062" transform="rotate(-0 68.976 146.199062)">1.0</text>
     </g>
    </g>
    <g id="xtick_3">
     <g id="line2d_3">
      <g>
       <use xlink:href="#m0ed4019652" x="102.576" y="134.64" style="stroke: #000000; stroke-width: 0.8"/>
      </g>
     </g>
     <g id="text_3">
      <text style="font: 6px 'DejaVu Sans', 'Arial', 'Helvetica', 'Lucida Grande', 'Verdana', 'Geneva', 'Lucid', 'Avant Garde', sans-serif; text-anchor: middle" x="102.576" y="146.199062" transform="rotate(-0 102.576 146.199062)">1.5</text>
     </g>
    </g>
    <g id="xtick_4">
     <g id="line2d_4">
      <g>
       <use xlink:href="#m0ed4019652" x="136.176" y="134.64" style="stroke: #000000; stroke-width: 0.8"/>
      </g>
     </g>
     <g id="text_4">
      <text style="font: 6px 'DejaVu Sans', 'Arial', 'Helvetica', 'Lucida Grande', 'Verdana', 'Geneva', 'Lucid', 'Avant Garde', sans-serif; text-anchor: middle" x="136.176" y="146.199062" transform="rotate(-0 136.176 146.199062)">2.0</text>
     </g>
    </g>
    <g id="text_5">
     <!-- True width ($\mu m$) -->
     <g transform="translate(62.94 156.006875)">
      <text>
       <tspan style="font: 6px 'DejaVu Sans'" x="0 3.665039 6.131836 9.93457 13.625977 15.533203 20.44043 22.107422 25.916016 28.268555 32.071289 33.978516 45.981445" y="-0.4375">True width ()</tspan>
       <tspan style="font: oblique 6px 'DejaVu Sans'" x="36.319336 40.136719" y="-0.4375">μm</tspan>
      </text>
     </g>
    </g>
   </g>
   <g id="matplotlib.axis_2">
    <g id="ytick_1">
     <g id="line2d_5">
      <defs>
       <path id="m69dda207ee" d="M 0 0 
L -3.5 0 
" style="stroke: #000000; stroke-width: 0.8"/>
      </defs>
      <g>
       <use xlink:href="#m69dda207ee" x="31.68" y="134.64" style="stroke: #000000; stroke-width: 0.8"/>
      </g>
     </g>
     <g id="text_6">
      <text style="font: 6px 'DejaVu Sans', 'Arial', 'Helvetica', 'Lucida Grande', 'Verdana', 'Geneva', 'Lucid', 'Avant Garde', sans-serif; text-anchor: end" x="24.68" y="136.919531" transform="rotate(-0 24.68 136.919531)">0.0</text>
     </g>
    </g>
    <g id="ytick_2">
     <g id="line2d_6">
      <g>
       <use xlink:href="#m69dda207ee" x="31.68" y="115.1568" style="stroke: #000000; stroke-width: 0.8"/>
      </g>
     </g>
     <g id="text_7">
      <text style="font: 6px 'DejaVu Sans', 'Arial', 'Helvetica', 'Lucida Grande', 'Verdana', 'Geneva', 'Lucid', 'Avant Garde', sans-serif; text-anchor: end" x="24.68" y="117.436331" transform="rotate(-0 24.68 117.436331)">0.2</text>
     </g>
    </g>
    <g id="ytick_3">
     <g id="line2d_7">
      <g>
       <use xlink:href="#m69dda207ee" x="31.68" y="95.6736" style="stroke: #000000; stroke-width: 0.8"/>
      </g>
     </g>
     <g id="text_8">
      <text style="font: 6px 'DejaVu Sans', 'Arial', 'Helvetica', 'Lucida Grande', 'Verdana', 'Geneva', 'Lucid', 'Avant Garde', sans-serif; text-anchor: end" x="24.68" y="97.953131" transform="rotate(-0 24.68 97.953131)">0.4</text>
     </g>
    </g>
    <g id="ytick_4">
     <g id="line2d_8">
      <g>
       <use xlink:href="#m69dda207ee" x="31.68" y="76.1904" style="stroke: #000000; stroke-width: 0.8"/>
      </g>
     </g>
     <g id="text_9">
      <text style="font: 6px 'DejaVu Sans', 'Arial', 'Helvetica', 'Lucida Grande', 'Verdana', 'Geneva', 'Lucid', 'Avant Garde', sans-serif; text-anchor: end" x="24.68" y="78.469931" transform="rotate(-0 24.68 78.469931)">0.6</text>
     </g>
    </g>
    <g id="ytick_5">
     <g id="line2d_9">
      <g>
       <use xlink:href="#m69dda207ee" x="31.68" y="56.7072" style="stroke: #000000; stroke-width: 0.8"/>
      </g>
     </g>
     <g id="text_10">
      <text style="font: 6px 'DejaVu Sans', 'Arial', 'Helvetica', 'Lucida Grande', 'Verdana', 'Geneva', 'Lucid', 'Avant Garde', sans-serif; text-anchor: end" x="24.68" y="58.986731" transform="rotate(-0 24.68 58.986731)">0.8</text>
     </g>
    </g>
    <g id="ytick_6">
     <g id="line2d_10">
      <g>
       <use xlink:href="#m69dda207ee" x="31.68" y="37.224" style="stroke: #000000; stroke-width: 0.8"/>
      </g>
     </g>
     <g id="text_11">
      <text style="font: 6px 'DejaVu Sans', 'Arial', 'Helvetica', 'Lucida Grande', 'Verdana', 'Geneva', 'Lucid', 'Avant Garde', sans-serif; text-anchor: end" x="24.68" y="39.503531" transform="rotate(-0 24.68 39.503531)">1.0</text>
     </g>
    </g>
    <g id="text_12">
     <text style="font: 6px 'DejaVu Sans', 'Arial', 'Helvetica', 'Lucida Grande', 'Verdana', 'Geneva', 'Lucid', 'Avant Garde', sans-serif; text-anchor: middle" x="9.890313" y="85.932" transform="rotate(-90 9.890313 85.932)">Estimated / True Width</text>
    </g>
   </g>
   <g id="line2d_11"/>
   <g id="line2d_12"/>
   <g id="line2d_13"/>
   <g id="line2d_14"/>
   <g id="line2d_15"/>
   <g id="line2d_16"/>
   <g id="line2d_17">
    <path d="M 36.72 43.7184 
L 43.44 42.042426 
L 50.16 42.0046 
L 56.88 40.9464 
L 63.6 41.03593 
L 70.32 40.280188 
L 77.04 40.413214 
L 83.76 39.832407 
L 90.48 39.6594 
L 97.2 39.510761 
L 103.92 39.381679 
L 110.64 39.268533 
L 117.36 39.168544 
L 124.08 39.079543 
L 130.8 38.77995 
L 137.52 38.927976 
" clip-path="url(#p05425c020b)" style="fill: none; stroke: #66c2a5; stroke-linecap: square"/>
   </g>
   <g id="line2d_18">
    <path d="M 36.72 77.0022 
L 43.44 67.234413 
L 50.16 62.5251 
L 56.88 57.9348 
L 63.6 55.260078 
L 70.32 53.109812 
L 77.04 51.343521 
L 83.76 49.520774 
L 90.48 47.9742 
L 97.2 46.942732 
L 103.92 46.046984 
L 110.64 45.261822 
L 117.36 44.567958 
L 124.08 43.950343 
L 130.8 43.397062 
L 137.52 43.107541 
" clip-path="url(#p05425c020b)" style="fill: none; stroke-dasharray: 4,1.5; stroke-dashoffset: 0; stroke: #66c2a5"/>
   </g>
   <g id="line2d_19">
    <path d="M 36.72 45.342 
L 43.44 42.72329 
L 50.16 42.0046 
L 56.88 40.9464 
L 63.6 41.953617 
L 70.32 40.280188 
L 77.04 40.413214 
L 83.76 39.832407 
L 90.48 39.6594 
L 97.2 39.808039 
L 103.92 39.6594 
L 110.64 39.268533 
L 117.36 39.168544 
L 124.08 41.167029 
L 130.8 38.77995 
L 137.52 38.927976 
" clip-path="url(#p05425c020b)" style="fill: none; stroke: #fc8d62; stroke-linecap: square"/>
   </g>
   <g id="line2d_20">
    <path d="M 36.72 134.64 
L 43.44 134.64 
L 50.16 77.1826 
L 56.88 69.7752 
L 63.6 66.731165 
L 70.32 62.628565 
L 77.04 60.012386 
L 83.76 57.133062 
L 90.48 55.3296 
L 97.2 53.780146 
L 103.92 52.434568 
L 110.64 51.255111 
L 117.36 50.2128 
L 124.08 49.053086 
L 130.8 48.893625 
L 137.52 48.123018 
" clip-path="url(#p05425c020b)" style="fill: none; stroke-dasharray: 4,1.5; stroke-dashoffset: 0; stroke: #fc8d62"/>
   </g>
   <g id="line2d_21"/>
   <g id="line2d_22"/>
   <g id="line2d_23"/>
   <g id="line2d_24"/>
   <g id="line2d_25"/>
   <g id="line2d_26"/>
   <g id="patch_3">
    <path d="M 31.68 134.64 
L 31.68 37.224 
" style="fill: none; stroke: #000000; stroke-width: 0.5; stroke-linejoin: miter; stroke-linecap: square"/>
   </g>
   <g id="patch_4">
    <path d="M 31.68 134.64 
L 142.56 134.64 
" style="fill: none; stroke: #000000; stroke-width: 0.5; stroke-linejoin: miter; stroke-linecap: square"/>
   </g>
   <g id="legend_1">
    <g id="patch_5">
     <path d="M 83.565 147.7065 
L 138.36 147.7065 
Q 139.56 147.7065 139.56 146.5065 
L 139.56 41.424 
Q 139.56 40.224 138.36 40.224 
L 83.565 40.224 
Q 82.365 40.224 82.365 41.424 
L 82.365 146.5065 
Q 82.365 147.7065 83.565 147.7065 
z
" style="fill: #ffffff; opacity: 0.8; stroke: #cccccc; stroke-linejoin: miter"/>
    </g>
    <g id="line2d_27"/>
    <g id="text_13">
     <text style="font: 6px 'DejaVu Sans', 'Arial', 'Helvetica', 'Lucida Grande', 'Verdana', 'Geneva', 'Lucid', 'Avant Garde', sans-serif; text-anchor: start" x="101.565" y="47.183063" transform="rotate(-0 101.565 47.183063)">Wavelength</text>
    </g>
    <g id="line2d_28">
     <defs>
      <path id="mcb7ee25cf3" d="M 0 2.236068 
C 0.593012 2.236068 1.161816 2.000462 1.581139 1.581139 
C 2.000462 1.161816 2.236068 0.593012 2.236068 0 
C 2.236068 -0.593012 2.000462 -1.161816 1.581139 -1.581139 
C 1.161816 -2.000462 0.593012 -2.236068 0 -2.236068 
C -0.593012 -2.236068 -1.161816 -2.000462 -1.581139 -1.581139 
C -2.000462 -1.161816 -2.236068 -0.593012 -2.236068 0 
C -2.236068 0.593012 -2.000462 1.161816 -1.581139 1.581139 
C -1.161816 2.000462 -0.593012 2.236068 0 2.236068 
z
" style="stroke: #ffffff; stroke-width: 0.357771"/>
     </defs>
     <g>
      <use xlink:href="#mcb7ee25cf3" x="90.765" y="53.889938" style="fill: #66c2a5; stroke: #ffffff; stroke-width: 0.357771"/>
     </g>
    </g>
    <g id="text_14">
     <text style="font: 6px 'DejaVu Sans', 'Arial', 'Helvetica', 'Lucida Grande', 'Verdana', 'Geneva', 'Lucid', 'Avant Garde', sans-serif; text-anchor: start" x="101.565" y="55.989938" transform="rotate(-0 101.565 55.989938)">0.5</text>
    </g>
    <g id="line2d_29">
     <defs>
      <path id="mf09aa37125" d="M 0 2.236068 
C 0.593012 2.236068 1.161816 2.000462 1.581139 1.581139 
C 2.000462 1.161816 2.236068 0.593012 2.236068 0 
C 2.236068 -0.593012 2.000462 -1.161816 1.581139 -1.581139 
C 1.161816 -2.000462 0.593012 -2.236068 0 -2.236068 
C -0.593012 -2.236068 -1.161816 -2.000462 -1.581139 -1.581139 
C -2.000462 -1.161816 -2.236068 -0.593012 -2.236068 0 
C -2.236068 0.593012 -2.000462 1.161816 -1.581139 1.581139 
C -1.161816 2.000462 -0.593012 2.236068 0 2.236068 
z
" style="stroke: #ffffff; stroke-width: 0.357771"/>
     </defs>
     <g>
      <use xlink:href="#mf09aa37125" x="90.765" y="62.696813" style="fill: #fc8d62; stroke: #ffffff; stroke-width: 0.357771"/>
     </g>
    </g>
    <g id="text_15">
     <text style="font: 6px 'DejaVu Sans', 'Arial', 'Helvetica', 'Lucida Grande', 'Verdana', 'Geneva', 'Lucid', 'Avant Garde', sans-serif; text-anchor: start" x="101.565" y="64.796813" transform="rotate(-0 101.565 64.796813)">0.7</text>
    </g>
    <g id="line2d_30"/>
    <g id="text_16">
     <text style="font: 6px 'DejaVu Sans', 'Arial', 'Helvetica', 'Lucida Grande', 'Verdana', 'Geneva', 'Lucid', 'Avant Garde', sans-serif; text-anchor: start" x="101.565" y="73.603688" transform="rotate(-0 101.565 73.603688)">Profile type</text>
    </g>
    <g id="line2d_31">
     <defs>
      <path id="m930aa46c21" d="M 0 2.236068 
C 0.593012 2.236068 1.161816 2.000462 1.581139 1.581139 
C 2.000462 1.161816 2.236068 0.593012 2.236068 0 
C 2.236068 -0.593012 2.000462 -1.161816 1.581139 -1.581139 
C 1.161816 -2.000462 0.593012 -2.236068 0 -2.236068 
C -0.593012 -2.236068 -1.161816 -2.000462 -1.581139 -1.581139 
C -2.000462 -1.161816 -2.236068 -0.593012 -2.236068 0 
C -2.236068 0.593012 -2.000462 1.161816 -1.581139 1.581139 
C -1.161816 2.000462 -0.593012 2.236068 0 2.236068 
z
" style="stroke: #ffffff; stroke-width: 0.357771"/>
     </defs>
     <g>
      <use xlink:href="#m930aa46c21" x="90.765" y="80.310563" style="fill: #333333; stroke: #ffffff; stroke-width: 0.357771"/>
     </g>
    </g>
    <g id="text_17">
     <text style="font: 6px 'DejaVu Sans', 'Arial', 'Helvetica', 'Lucida Grande', 'Verdana', 'Geneva', 'Lucid', 'Avant Garde', sans-serif; text-anchor: start" x="101.565" y="82.410563" transform="rotate(-0 101.565 82.410563)">0 DoF</text>
    </g>
    <g id="line2d_32">
     <defs>
      <path id="m447ee10b43" d="M -1.118034 2.236068 
L 0 1.118034 
L 1.118034 2.236068 
L 2.236068 1.118034 
L 1.118034 0 
L 2.236068 -1.118034 
L 1.118034 -2.236068 
L 0 -1.118034 
L -1.118034 -2.236068 
L -2.236068 -1.118034 
L -1.118034 0 
L -2.236068 1.118034 
z
" style="stroke: #ffffff; stroke-width: 0.357771; stroke-linejoin: miter"/>
     </defs>
     <g>
      <use xlink:href="#m447ee10b43" x="90.765" y="89.117438" style="fill: #333333; stroke: #ffffff; stroke-width: 0.357771; stroke-linejoin: miter"/>
     </g>
    </g>
    <g id="text_18">
     <text style="font: 6px 'DejaVu Sans', 'Arial', 'Helvetica', 'Lucida Grande', 'Verdana', 'Geneva', 'Lucid', 'Avant Garde', sans-serif; text-anchor: start" x="101.565" y="91.217438" transform="rotate(-0 101.565 91.217438)">Width DoF</text>
    </g>
    <g id="line2d_33">
     <path d="M 84.765 97.924313 
L 90.765 97.924313 
L 96.765 97.924313 
" style="fill: none"/>
    </g>
    <g id="text_19">
     <text style="font: 6px 'DejaVu Sans', 'Arial', 'Helvetica', 'Lucida Grande', 'Verdana', 'Geneva', 'Lucid', 'Avant Garde', sans-serif; text-anchor: start" x="101.565" y="100.024313" transform="rotate(-0 101.565 100.024313)">Wavelength</text>
    </g>
    <g id="line2d_34">
     <path d="M 84.765 106.731188 
L 90.765 106.731188 
L 96.765 106.731188 
" style="fill: none; stroke: #66c2a5; stroke-linecap: square"/>
    </g>
    <g id="text_20">
     <text style="font: 6px 'DejaVu Sans', 'Arial', 'Helvetica', 'Lucida Grande', 'Verdana', 'Geneva', 'Lucid', 'Avant Garde', sans-serif; text-anchor: start" x="101.565" y="108.831187" transform="rotate(-0 101.565 108.831187)">0.5</text>
    </g>
    <g id="line2d_35">
     <path d="M 84.765 115.538063 
L 90.765 115.538063 
L 96.765 115.538063 
" style="fill: none; stroke: #fc8d62; stroke-linecap: square"/>
    </g>
    <g id="text_21">
     <text style="font: 6px 'DejaVu Sans', 'Arial', 'Helvetica', 'Lucida Grande', 'Verdana', 'Geneva', 'Lucid', 'Avant Garde', sans-serif; text-anchor: start" x="101.565" y="117.638063" transform="rotate(-0 101.565 117.638063)">0.7</text>
    </g>
    <g id="line2d_36">
     <path d="M 84.765 124.344938 
L 90.765 124.344938 
L 96.765 124.344938 
" style="fill: none"/>
    </g>
    <g id="text_22">
     <text style="font: 6px 'DejaVu Sans', 'Arial', 'Helvetica', 'Lucida Grande', 'Verdana', 'Geneva', 'Lucid', 'Avant Garde', sans-serif; text-anchor: start" x="101.565" y="126.444938" transform="rotate(-0 101.565 126.444938)">Profile type</text>
    </g>
    <g id="line2d_37">
     <path d="M 84.765 133.151813 
L 90.765 133.151813 
L 96.765 133.151813 
" style="fill: none; stroke: #333333; stroke-linecap: square"/>
    </g>
    <g id="text_23">
     <text style="font: 6px 'DejaVu Sans', 'Arial', 'Helvetica', 'Lucida Grande', 'Verdana', 'Geneva', 'Lucid', 'Avant Garde', sans-serif; text-anchor: start" x="101.565" y="135.251813" transform="rotate(-0 101.565 135.251813)">0 DoF</text>
    </g>
    <g id="line2d_38">
     <path d="M 84.765 141.958688 
L 90.765 141.958688 
L 96.765 141.958688 
" style="fill: none; stroke-dasharray: 4,1.5; stroke-dashoffset: 0; stroke: #333333"/>
    </g>
    <g id="text_24">
     <text style="font: 6px 'DejaVu Sans', 'Arial', 'Helvetica', 'Lucida Grande', 'Verdana', 'Geneva', 'Lucid', 'Avant Garde', sans-serif; text-anchor: start" x="101.565" y="144.058688" transform="rotate(-0 101.565 144.058688)">Width DoF</text>
    </g>
   </g>
  </g>
  <g id="text_25">
   <text style="font: 700 6px 'DejaVu Sans', 'Arial', 'Helvetica', 'Lucida Grande', 'Verdana', 'Geneva', 'Lucid', 'Avant Garde', sans-serif; text-anchor: middle" x="79.2" y="7.727063" transform="rotate(-0 79.2 7.727063)">Effect of DoF and cell width</text>
  </g>
 </g>
 <defs>
  <clipPath id="p05425c020b">
   <rect x="31.68" y="37.224" width="110.88" height="97.416"/>
  </clipPath>
 </defs>
</svg>
