<?xml version="1.0" encoding="utf-8" standalone="no"?>
<!DOCTYPE svg PUBLIC "-//W3C//DTD SVG 1.1//EN"
  "http://www.w3.org/Graphics/SVG/1.1/DTD/svg11.dtd">
<svg xmlns:xlink="http://www.w3.org/1999/xlink" width="237.6pt" height="180pt" viewBox="0 0 237.6 180" xmlns="http://www.w3.org/2000/svg" version="1.1">
 <metadata>
  <rdf:RDF xmlns:dc="http://purl.org/dc/elements/1.1/" xmlns:cc="http://creativecommons.org/ns#" xmlns:rdf="http://www.w3.org/1999/02/22-rdf-syntax-ns#">
   <cc:Work>
    <dc:type rdf:resource="http://purl.org/dc/dcmitype/StillImage"/>
    <dc:date>2023-10-30T16:25:52.729034</dc:date>
    <dc:format>image/svg+xml</dc:format>
    <dc:creator>
     <cc:Agent>
      <dc:title>Matplotlib v3.7.2, https://matplotlib.org/</dc:title>
     </cc:Agent>
    </dc:creator>
   </cc:Work>
  </rdf:RDF>
 </metadata>
 <defs>
  <style type="text/css">*{stroke-linejoin: round; stroke-linecap: butt}</style>
 </defs>
 <g id="figure_1">
  <g id="patch_1">
   <path d="M 0 180 
L 237.6 180 
L 237.6 0 
L 0 0 
L 0 180 
z
" style="fill: none"/>
  </g>
  <g id="axes_1"/>
  <g id="legend_1">
   <g id="patch_2">
    <path d="M 83.271563 121.730625 
L 154.328438 121.730625 
Q 155.528437 121.730625 155.528437 120.530625 
L 155.528437 59.469375 
Q 155.528437 58.269375 154.328438 58.269375 
L 83.271563 58.269375 
Q 82.071562 58.269375 82.071562 59.469375 
L 82.071562 120.530625 
Q 82.071562 121.730625 83.271563 121.730625 
z
" style="fill: #ffffff; opacity: 0.8; stroke: #cccccc; stroke-linejoin: miter"/>
   </g>
   <g id="text_1">
    <text style="font: 6px 'DejaVu Sans', 'Arial', 'Helvetica', 'Lucida Grande', 'Verdana', 'Geneva', 'Lucid', 'Avant Garde', sans-serif; text-anchor: start" x="101.271563" y="65.228437" transform="rotate(-0 101.271563 65.228437)">Imaging Modality</text>
   </g>
   <g id="line2d_1">
    <path d="M 84.471563 71.935313 
L 90.471563 71.935313 
L 96.471563 71.935313 
" style="fill: none; stroke: #66c2a5; stroke-linecap: square"/>
   </g>
   <g id="text_2">
    <text style="font: 6px 'DejaVu Sans', 'Arial', 'Helvetica', 'Lucida Grande', 'Verdana', 'Geneva', 'Lucid', 'Avant Garde', sans-serif; text-anchor: start" x="101.271563" y="74.035313" transform="rotate(-0 101.271563 74.035313)">FL</text>
   </g>
   <g id="line2d_2">
    <path d="M 84.471563 80.742188 
L 90.471563 80.742188 
L 96.471563 80.742188 
" style="fill: none; stroke: #fc8d62; stroke-linecap: square"/>
   </g>
   <g id="text_3">
    <text style="font: 6px 'DejaVu Sans', 'Arial', 'Helvetica', 'Lucida Grande', 'Verdana', 'Geneva', 'Lucid', 'Avant Garde', sans-serif; text-anchor: start" x="101.271563" y="82.842187" transform="rotate(-0 101.271563 82.842187)">membrane</text>
   </g>
   <g id="text_4">
    <!-- DoF ($\mu m$) -->
    <g transform="translate(101.271563 91.65)">
     <text>
      <tspan style="font: 6px 'DejaVu Sans'" x="0 4.620117 8.291016 11.742188 13.649414 25.652344" y="-0.453125">DoF ()</tspan>
      <tspan style="font: oblique 6px 'DejaVu Sans'" x="15.990234 19.807617" y="-0.453125">μm</tspan>
     </text>
    </g>
   </g>
   <g id="line2d_3">
    <path d="M 84.471563 98.369063 
L 90.471563 98.369063 
L 96.471563 98.369063 
" style="fill: none; stroke: #333333; stroke-linecap: square"/>
    <defs>
     <path id="md42e8cd2a3" d="M 0 1.5 
C 0.397805 1.5 0.77937 1.341951 1.06066 1.06066 
C 1.341951 0.77937 1.5 0.397805 1.5 0 
C 1.5 -0.397805 1.341951 -0.77937 1.06066 -1.06066 
C 0.77937 -1.341951 0.397805 -1.5 0 -1.5 
C -0.397805 -1.5 -0.77937 -1.341951 -1.06066 -1.06066 
C -1.341951 -0.77937 -1.5 -0.397805 -1.5 0 
C -1.5 0.397805 -1.341951 0.77937 -1.06066 1.06066 
C -0.77937 1.341951 -0.397805 1.5 0 1.5 
z
" style="stroke: #333333"/>
    </defs>
    <g>
     <use xlink:href="#md42e8cd2a3" x="90.471563" y="98.369063" style="fill: #333333; stroke: #333333"/>
    </g>
   </g>
   <g id="text_5">
    <text style="font: 6px 'DejaVu Sans', 'Arial', 'Helvetica', 'Lucida Grande', 'Verdana', 'Geneva', 'Lucid', 'Avant Garde', sans-serif; text-anchor: start" x="101.271563" y="100.469063" transform="rotate(-0 101.271563 100.469063)">0.0</text>
   </g>
   <g id="line2d_4">
    <path d="M 84.471563 107.175938 
L 90.471563 107.175938 
L 96.471563 107.175938 
" style="fill: none; stroke-dasharray: 4,1.5; stroke-dashoffset: 0; stroke: #333333"/>
    <defs>
     <path id="mf1e4a1b099" d="M -0 2.12132 
L 2.12132 0 
L 0 -2.12132 
L -2.12132 -0 
z
" style="stroke: #333333; stroke-linejoin: miter"/>
    </defs>
    <g>
     <use xlink:href="#mf1e4a1b099" x="90.471563" y="107.175938" style="fill: #333333; stroke: #333333; stroke-linejoin: miter"/>
    </g>
   </g>
   <g id="text_6">
    <text style="font: 6px 'DejaVu Sans', 'Arial', 'Helvetica', 'Lucida Grande', 'Verdana', 'Geneva', 'Lucid', 'Avant Garde', sans-serif; text-anchor: start" x="101.271563" y="109.275937" transform="rotate(-0 101.271563 109.275937)">0.6</text>
   </g>
   <g id="line2d_5">
    <path d="M 84.471563 115.982813 
L 90.471563 115.982813 
L 96.471563 115.982813 
" style="fill: none; stroke-dasharray: 1,1; stroke-dashoffset: 0; stroke: #333333"/>
    <defs>
     <path id="m0c53011a07" d="M -1.5 1.5 
L 1.5 1.5 
L 1.5 -1.5 
L -1.5 -1.5 
z
" style="stroke: #333333; stroke-linejoin: miter"/>
    </defs>
    <g>
     <use xlink:href="#m0c53011a07" x="90.471563" y="115.982813" style="fill: #333333; stroke: #333333; stroke-linejoin: miter"/>
    </g>
   </g>
   <g id="text_7">
    <text style="font: 6px 'DejaVu Sans', 'Arial', 'Helvetica', 'Lucida Grande', 'Verdana', 'Geneva', 'Lucid', 'Avant Garde', sans-serif; text-anchor: start" x="101.271563" y="118.082813" transform="rotate(-0 101.271563 118.082813)">1.0</text>
   </g>
  </g>
 </g>
</svg>
