<?xml version="1.0" encoding="utf-8" standalone="no"?>
<!DOCTYPE svg PUBLIC "-//W3C//DTD SVG 1.1//EN"
  "http://www.w3.org/Graphics/SVG/1.1/DTD/svg11.dtd">
<svg xmlns:xlink="http://www.w3.org/1999/xlink" width="158.4pt" height="158.4pt" viewBox="0 0 158.4 158.4" xmlns="http://www.w3.org/2000/svg" version="1.1">
 <metadata>
  <rdf:RDF xmlns:dc="http://purl.org/dc/elements/1.1/" xmlns:cc="http://creativecommons.org/ns#" xmlns:rdf="http://www.w3.org/1999/02/22-rdf-syntax-ns#">
   <cc:Work>
    <dc:type rdf:resource="http://purl.org/dc/dcmitype/StillImage"/>
    <dc:date>2024-01-31T18:51:27.676623</dc:date>
    <dc:format>image/svg+xml</dc:format>
    <dc:creator>
     <cc:Agent>
      <dc:title>Matplotlib v3.8.2, https://matplotlib.org/</dc:title>
     </cc:Agent>
    </dc:creator>
   </cc:Work>
  </rdf:RDF>
 </metadata>
 <defs>
  <style type="text/css">*{stroke-linejoin: round; stroke-linecap: butt}</style>
 </defs>
 <g id="figure_1">
  <g id="patch_1">
   <path d="M 0 158.4 
L 158.4 158.4 
L 158.4 0 
L 0 0 
L 0 158.4 
z
" style="fill: none"/>
  </g>
  <g id="axes_1">
   <g id="patch_2">
    <path d="M 31.68 129.888 
L 142.56 129.888 
L 142.56 36.432 
L 31.68 36.432 
L 31.68 129.888 
z
" style="fill: none"/>
   </g>
   <g id="matplotlib.axis_1">
    <g id="xtick_1">
     <g id="line2d_1">
      <defs>
       <path id="m7c6cb2c708" d="M 0 0 
L 0 3.5 
" style="stroke: #000000; stroke-width: 0.8"/>
      </defs>
      <g>
       <use xlink:href="#m7c6cb2c708" x="47.52" y="129.888" style="stroke: #000000; stroke-width: 0.8"/>
      </g>
     </g>
     <g id="text_1">
      <text style="font: 6px 'DejaVu Sans', 'Arial', 'Helvetica', 'Lucida Grande', 'Verdana', 'Geneva', 'Lucid', 'Avant Garde', sans-serif; text-anchor: middle" x="47.52" y="141.447063" transform="rotate(-0 47.52 141.447063)">−0.50</text>
     </g>
    </g>
    <g id="xtick_2">
     <g id="line2d_2">
      <g>
       <use xlink:href="#m7c6cb2c708" x="67.32" y="129.888" style="stroke: #000000; stroke-width: 0.8"/>
      </g>
     </g>
     <g id="text_2">
      <text style="font: 6px 'DejaVu Sans', 'Arial', 'Helvetica', 'Lucida Grande', 'Verdana', 'Geneva', 'Lucid', 'Avant Garde', sans-serif; text-anchor: middle" x="67.32" y="141.447063" transform="rotate(-0 67.32 141.447063)">−0.25</text>
     </g>
    </g>
    <g id="xtick_3">
     <g id="line2d_3">
      <g>
       <use xlink:href="#m7c6cb2c708" x="87.12" y="129.888" style="stroke: #000000; stroke-width: 0.8"/>
      </g>
     </g>
     <g id="text_3">
      <text style="font: 6px 'DejaVu Sans', 'Arial', 'Helvetica', 'Lucida Grande', 'Verdana', 'Geneva', 'Lucid', 'Avant Garde', sans-serif; text-anchor: middle" x="87.12" y="141.447063" transform="rotate(-0 87.12 141.447063)">0.00</text>
     </g>
    </g>
    <g id="xtick_4">
     <g id="line2d_4">
      <g>
       <use xlink:href="#m7c6cb2c708" x="106.92" y="129.888" style="stroke: #000000; stroke-width: 0.8"/>
      </g>
     </g>
     <g id="text_4">
      <text style="font: 6px 'DejaVu Sans', 'Arial', 'Helvetica', 'Lucida Grande', 'Verdana', 'Geneva', 'Lucid', 'Avant Garde', sans-serif; text-anchor: middle" x="106.92" y="141.447063" transform="rotate(-0 106.92 141.447063)">0.25</text>
     </g>
    </g>
    <g id="xtick_5">
     <g id="line2d_5">
      <g>
       <use xlink:href="#m7c6cb2c708" x="126.72" y="129.888" style="stroke: #000000; stroke-width: 0.8"/>
      </g>
     </g>
     <g id="text_5">
      <text style="font: 6px 'DejaVu Sans', 'Arial', 'Helvetica', 'Lucida Grande', 'Verdana', 'Geneva', 'Lucid', 'Avant Garde', sans-serif; text-anchor: middle" x="126.72" y="141.447063" transform="rotate(-0 126.72 141.447063)">0.50</text>
     </g>
    </g>
    <g id="text_6">
     <!-- Distance ($\mu m$) -->
     <g transform="translate(65.85 151.254875)">
      <text>
       <tspan style="font: 6px 'DejaVu Sans'" x="0 4.620117 6.287109 9.413086 11.765625 15.442383 19.245117 22.543945 26.235352 28.142578 40.145508" y="-0.4375">Distance ()</tspan>
       <tspan style="font: oblique 6px 'DejaVu Sans'" x="30.483398 34.300781" y="-0.4375">μm</tspan>
      </text>
     </g>
    </g>
   </g>
   <g id="matplotlib.axis_2">
    <g id="ytick_1">
     <g id="line2d_6">
      <defs>
       <path id="m2e0a5ac244" d="M 0 0 
L -3.5 0 
" style="stroke: #000000; stroke-width: 0.8"/>
      </defs>
      <g>
       <use xlink:href="#m2e0a5ac244" x="31.68" y="125.64" style="stroke: #000000; stroke-width: 0.8"/>
      </g>
     </g>
     <g id="text_7">
      <text style="font: 6px 'DejaVu Sans', 'Arial', 'Helvetica', 'Lucida Grande', 'Verdana', 'Geneva', 'Lucid', 'Avant Garde', sans-serif; text-anchor: end" x="24.68" y="127.919531" transform="rotate(-0 24.68 127.919531)">0.0</text>
     </g>
    </g>
    <g id="ytick_2">
     <g id="line2d_7">
      <g>
       <use xlink:href="#m2e0a5ac244" x="31.68" y="108.648" style="stroke: #000000; stroke-width: 0.8"/>
      </g>
     </g>
     <g id="text_8">
      <text style="font: 6px 'DejaVu Sans', 'Arial', 'Helvetica', 'Lucida Grande', 'Verdana', 'Geneva', 'Lucid', 'Avant Garde', sans-serif; text-anchor: end" x="24.68" y="110.927531" transform="rotate(-0 24.68 110.927531)">0.2</text>
     </g>
    </g>
    <g id="ytick_3">
     <g id="line2d_8">
      <g>
       <use xlink:href="#m2e0a5ac244" x="31.68" y="91.656" style="stroke: #000000; stroke-width: 0.8"/>
      </g>
     </g>
     <g id="text_9">
      <text style="font: 6px 'DejaVu Sans', 'Arial', 'Helvetica', 'Lucida Grande', 'Verdana', 'Geneva', 'Lucid', 'Avant Garde', sans-serif; text-anchor: end" x="24.68" y="93.935531" transform="rotate(-0 24.68 93.935531)">0.4</text>
     </g>
    </g>
    <g id="ytick_4">
     <g id="line2d_9">
      <g>
       <use xlink:href="#m2e0a5ac244" x="31.68" y="74.664" style="stroke: #000000; stroke-width: 0.8"/>
      </g>
     </g>
     <g id="text_10">
      <text style="font: 6px 'DejaVu Sans', 'Arial', 'Helvetica', 'Lucida Grande', 'Verdana', 'Geneva', 'Lucid', 'Avant Garde', sans-serif; text-anchor: end" x="24.68" y="76.943531" transform="rotate(-0 24.68 76.943531)">0.6</text>
     </g>
    </g>
    <g id="ytick_5">
     <g id="line2d_10">
      <g>
       <use xlink:href="#m2e0a5ac244" x="31.68" y="57.672" style="stroke: #000000; stroke-width: 0.8"/>
      </g>
     </g>
     <g id="text_11">
      <text style="font: 6px 'DejaVu Sans', 'Arial', 'Helvetica', 'Lucida Grande', 'Verdana', 'Geneva', 'Lucid', 'Avant Garde', sans-serif; text-anchor: end" x="24.68" y="59.951531" transform="rotate(-0 24.68 59.951531)">0.8</text>
     </g>
    </g>
    <g id="ytick_6">
     <g id="line2d_11">
      <g>
       <use xlink:href="#m2e0a5ac244" x="31.68" y="40.68" style="stroke: #000000; stroke-width: 0.8"/>
      </g>
     </g>
     <g id="text_12">
      <text style="font: 6px 'DejaVu Sans', 'Arial', 'Helvetica', 'Lucida Grande', 'Verdana', 'Geneva', 'Lucid', 'Avant Garde', sans-serif; text-anchor: end" x="24.68" y="42.959531" transform="rotate(-0 24.68 42.959531)">1.0</text>
     </g>
    </g>
    <g id="text_13">
     <text style="font: 6px 'DejaVu Sans', 'Arial', 'Helvetica', 'Lucida Grande', 'Verdana', 'Geneva', 'Lucid', 'Avant Garde', sans-serif; text-anchor: middle" x="9.890313" y="83.16" transform="rotate(-90 9.890313 83.16)">Intensity (AU)</text>
    </g>
   </g>
   <g id="line2d_12">
    <path d="M 29.4624 125.64 
L 46.6224 125.64 
L 46.9656 114.747692 
L 47.652 106.76 
L 48.6816 98.772308 
L 49.0248 97.32 
L 49.7112 92.963077 
L 52.1136 82.796923 
L 52.4568 82.070769 
L 53.1432 79.166154 
L 53.4864 78.44 
L 53.8296 76.987692 
L 54.516 75.535385 
L 54.8592 74.083077 
L 55.8888 71.904615 
L 56.232 70.452308 
L 61.0368 60.286154 
L 61.38 60.286154 
L 62.7528 57.381538 
L 63.096 57.381538 
L 63.7824 55.929231 
L 64.1256 55.929231 
L 64.812 54.476923 
L 65.1552 54.476923 
L 65.8416 53.024615 
L 66.1848 53.024615 
L 66.528 52.298462 
L 66.8712 52.298462 
L 67.5576 50.846154 
L 67.9008 50.846154 
L 68.244 50.12 
L 68.5872 50.12 
L 68.9304 49.393846 
L 69.2736 49.393846 
L 69.6168 48.667692 
L 69.96 48.667692 
L 70.3032 47.941538 
L 70.9896 47.941538 
L 71.3328 47.215385 
L 71.676 47.215385 
L 72.0192 46.489231 
L 72.7056 46.489231 
L 73.0488 45.763077 
L 73.392 45.763077 
L 73.7352 45.036923 
L 74.4216 45.036923 
L 74.7648 44.310769 
L 75.7944 44.310769 
L 76.1376 43.584615 
L 77.1672 43.584615 
L 77.5104 42.858462 
L 78.54 42.858462 
L 78.8832 42.132308 
L 80.256 42.132308 
L 80.5992 41.406154 
L 83.0016 41.406154 
L 83.3448 40.68 
L 90.552 40.68 
L 90.8952 41.406154 
L 93.2976 41.406154 
L 93.6408 42.132308 
L 95.0136 42.132308 
L 95.3568 42.858462 
L 96.3864 42.858462 
L 96.7296 43.584615 
L 97.7592 43.584615 
L 98.1024 44.310769 
L 99.132 44.310769 
L 99.4752 45.036923 
L 100.1616 45.036923 
L 100.5048 45.763077 
L 100.848 45.763077 
L 101.1912 46.489231 
L 101.8776 46.489231 
L 102.2208 47.215385 
L 102.564 47.215385 
L 102.9072 47.941538 
L 103.5936 47.941538 
L 103.9368 48.667692 
L 104.28 48.667692 
L 104.6232 49.393846 
L 104.9664 49.393846 
L 105.3096 50.12 
L 105.6528 50.12 
L 105.996 50.846154 
L 106.3392 50.846154 
L 107.0256 52.298462 
L 107.3688 52.298462 
L 107.712 53.024615 
L 108.0552 53.024615 
L 108.7416 54.476923 
L 109.0848 54.476923 
L 109.7712 55.929231 
L 110.1144 55.929231 
L 110.8008 57.381538 
L 111.144 57.381538 
L 112.5168 60.286154 
L 112.86 60.286154 
L 117.6648 70.452308 
L 118.008 71.904615 
L 119.0376 74.083077 
L 119.3808 75.535385 
L 120.0672 76.987692 
L 120.4104 78.44 
L 120.7536 79.166154 
L 121.44 82.070769 
L 121.7832 82.796923 
L 124.1856 92.963077 
L 124.872 97.32 
L 125.2152 98.772308 
L 126.588 110.390769 
L 126.9312 114.747692 
L 127.2744 125.64 
L 144.4344 125.64 
L 144.4344 125.64 
" clip-path="url(#p9550072b36)" style="fill: none; stroke: #808080; stroke-linecap: square"/>
   </g>
   <g id="line2d_13">
    <path d="M 28.4724 92.422671 
L 30.1884 89.921078 
L 31.9044 86.981154 
L 33.9636 82.975208 
L 36.0228 78.462809 
L 38.4252 72.663572 
L 44.2596 58.160693 
L 46.662 53.011729 
L 48.0348 50.533168 
L 49.7508 47.94649 
L 50.7804 46.706575 
L 51.81 45.744512 
L 53.1828 44.775115 
L 54.2124 44.288841 
L 55.242 44.031344 
L 56.2716 43.972127 
L 57.6444 44.165886 
L 59.0172 44.61888 
L 60.39 45.302193 
L 62.106 46.401305 
L 68.97 51.236251 
L 71.3724 52.488771 
L 73.0884 53.136613 
L 74.8044 53.581734 
L 77.2068 53.947396 
L 79.6092 54.103166 
L 83.7276 54.089249 
L 90.9348 53.745091 
L 93.6804 53.289011 
L 96.0828 52.658623 
L 98.142 51.933341 
L 100.2012 50.949804 
L 101.9172 49.830504 
L 104.3196 47.959867 
L 110.4972 42.764441 
L 112.2132 41.67899 
L 113.586 41.064288 
L 114.9588 40.726024 
L 115.9884 40.691339 
L 117.018 40.874756 
L 118.0476 41.316797 
L 119.0772 42.014271 
L 120.45 43.261603 
L 121.4796 44.495335 
L 122.8524 46.561546 
L 124.5684 49.608958 
L 126.2844 53.278131 
L 128.3436 58.171052 
L 135.5508 76.189498 
L 137.61 80.566837 
L 139.6692 84.39806 
L 141.3852 87.184144 
L 142.758 89.065932 
L 143.4444 89.902042 
L 143.4444 89.902042 
" clip-path="url(#p9550072b36)" style="fill: none; stroke: #ff0000; stroke-linecap: square"/>
   </g>
   <g id="line2d_14">
    <path d="M -1 123.86762 
L 9.9 122.115519 
L 12.3024 121.404579 
L 14.7048 120.451482 
L 17.7936 118.942093 
L 26.0304 114.582111 
L 27.7464 113.329933 
L 29.1192 112.000837 
L 30.1488 110.735471 
L 31.1784 109.176759 
L 32.208 107.276259 
L 33.2376 104.998509 
L 34.6104 101.317839 
L 35.9832 96.872431 
L 37.356 91.694312 
L 39.072 84.334465 
L 41.8176 71.30722 
L 44.5632 58.479648 
L 46.2792 51.567207 
L 47.652 47.058657 
L 48.6816 44.405985 
L 49.7112 42.444726 
L 50.3976 41.536488 
L 51.084 40.954226 
L 51.7704 40.692428 
L 52.4568 40.745374 
L 53.1432 41.100848 
L 53.8296 41.739215 
L 54.516 42.640729 
L 55.5456 44.425456 
L 56.9184 47.435581 
L 58.2912 51.001075 
L 63.096 64.314855 
L 64.4688 67.418415 
L 65.8416 69.982108 
L 66.8712 71.531478 
L 67.9008 72.76883 
L 68.9304 73.717679 
L 69.96 74.413206 
L 71.3328 75.021872 
L 72.7056 75.369767 
L 75.108 75.674083 
L 78.1968 76.073929 
L 80.9424 76.668234 
L 84.7176 77.47678 
L 86.7768 77.64331 
L 88.4928 77.562551 
L 90.552 77.231075 
L 97.7592 75.781363 
L 101.5344 75.301045 
L 102.9072 74.898616 
L 103.9368 74.413206 
L 104.9664 73.717679 
L 105.996 72.76883 
L 107.0256 71.531478 
L 108.0552 69.982108 
L 109.428 67.418415 
L 110.8008 64.314855 
L 112.5168 59.816906 
L 117.3216 46.626486 
L 118.6944 43.778317 
L 119.724 42.158274 
L 120.4104 41.385418 
L 121.0968 40.886826 
L 121.7832 40.68 
L 122.4696 40.782465 
L 123.156 41.205426 
L 123.8424 41.950742 
L 124.5288 43.019449 
L 125.5584 45.216698 
L 126.588 48.08706 
L 127.6176 51.567207 
L 128.9904 57.003104 
L 130.7064 64.728211 
L 136.1976 90.294309 
L 137.9136 96.872431 
L 139.2864 101.317839 
L 140.6592 104.998509 
L 142.032 107.95111 
L 143.4048 110.248645 
L 144.4344 111.608158 
L 145.8072 113.031301 
L 147.18 114.121345 
L 148.896 115.195535 
L 152.328 116.982807 
L 159.4 120.542797 
L 159.4 120.542797 
" clip-path="url(#p9550072b36)" style="fill: none; stroke-dasharray: 3.7,1.6; stroke-dashoffset: 0; stroke: #ff0000"/>
   </g>
   <g id="line2d_15">
    <path d="M 28.4724 100.449916 
L 29.8452 99.026489 
L 31.218 97.235746 
L 32.5908 95.129368 
L 33.6204 93.215197 
L 34.9932 90.139985 
L 36.366 86.631375 
L 37.7388 82.550196 
L 39.798 75.543789 
L 42.5436 65.276523 
L 44.6028 57.742054 
L 46.662 51.052614 
L 47.6916 48.37139 
L 49.0644 45.57111 
L 50.094 43.940383 
L 50.7804 43.175347 
L 51.4668 42.695028 
L 52.1532 42.434417 
L 52.8396 42.357464 
L 53.526 42.473328 
L 54.2124 42.79077 
L 55.242 43.624147 
L 56.2716 44.789347 
L 57.9876 47.145828 
L 60.0468 50.33592 
L 61.7628 52.872441 
L 63.822 55.531863 
L 65.1948 56.940504 
L 66.9108 58.322493 
L 68.2836 59.164196 
L 69.9996 59.937803 
L 72.0588 60.639217 
L 75.1476 61.42376 
L 81.6684 62.856704 
L 84.0708 63.127205 
L 86.4732 63.177083 
L 88.8756 62.97257 
L 90.9348 62.605632 
L 96.0828 61.307109 
L 102.9468 59.440892 
L 104.6628 58.648571 
L 106.3788 57.539749 
L 107.7516 56.349585 
L 109.1244 54.822709 
L 110.8404 52.605665 
L 112.5564 49.906822 
L 116.6748 43.430911 
L 117.7044 42.219223 
L 118.734 41.335416 
L 119.7636 40.80817 
L 120.45 40.68 
L 121.1364 40.786716 
L 121.8228 41.151371 
L 122.5092 41.747446 
L 123.5388 42.980426 
L 124.2252 44.05717 
L 125.2548 46.222629 
L 126.6276 49.878897 
L 128.0004 54.037937 
L 130.0596 61.294867 
L 134.5212 76.968285 
L 136.2372 82.048416 
L 137.9532 86.459683 
L 139.326 89.357342 
L 141.042 92.376285 
L 142.4148 94.358475 
L 143.4444 95.596158 
L 143.4444 95.596158 
" clip-path="url(#p9550072b36)" style="fill: none; stroke: #008000; stroke-linecap: square"/>
   </g>
   <g id="line2d_16">
    <path d="M 46.728 125.64 
L 46.728 40.68 
" clip-path="url(#p9550072b36)" style="fill: none; stroke-dasharray: 1.5,2.475; stroke-dashoffset: 0; stroke: #000000; stroke-width: 1.5"/>
   </g>
   <g id="line2d_17">
    <path d="M 127.512 125.64 
L 127.512 40.68 
" clip-path="url(#p9550072b36)" style="fill: none; stroke-dasharray: 1.5,2.475; stroke-dashoffset: 0; stroke: #000000; stroke-width: 1.5"/>
   </g>
   <g id="patch_3">
    <path d="M 31.68 129.888 
L 31.68 36.432 
" style="fill: none; stroke: #000000; stroke-width: 0.5; stroke-linejoin: miter; stroke-linecap: square"/>
   </g>
   <g id="patch_4">
    <path d="M 31.68 129.888 
L 142.56 129.888 
" style="fill: none; stroke: #000000; stroke-width: 0.5; stroke-linejoin: miter; stroke-linecap: square"/>
   </g>
   <g id="legend_1">
    <g id="patch_5">
     <path d="M 53.078437 126.888 
L 121.161562 126.888 
Q 122.361562 126.888 122.361562 125.688 
L 122.361562 91.022063 
Q 122.361562 89.822063 121.161562 89.822063 
L 53.078437 89.822063 
Q 51.878437 89.822063 51.878437 91.022063 
L 51.878437 125.688 
Q 51.878437 126.888 53.078437 126.888 
z
" style="fill: #ffffff; opacity: 0.8; stroke: #cccccc; stroke-linejoin: miter"/>
    </g>
    <g id="line2d_18">
     <path d="M 54.278437 94.681125 
L 60.278437 94.681125 
L 66.278437 94.681125 
" style="fill: none; stroke: #808080; stroke-linecap: square"/>
    </g>
    <g id="text_14">
     <text style="font: 6px 'DejaVu Sans', 'Arial', 'Helvetica', 'Lucida Grande', 'Verdana', 'Geneva', 'Lucid', 'Avant Garde', sans-serif; text-anchor: start" x="71.078437" y="96.781125" transform="rotate(-0 71.078437 96.781125)">Projected profile</text>
    </g>
    <g id="line2d_19">
     <path d="M 54.278437 103.488938 
L 60.278437 103.488938 
L 66.278437 103.488938 
" style="fill: none; stroke: #ff0000; stroke-linecap: square"/>
    </g>
    <g id="text_15">
     <!-- 0.7 $\mu m$ iPSF -->
     <g transform="translate(71.078437 105.588938)">
      <text>
       <tspan style="font: 6px 'DejaVu Sans'" x="0 3.817383 5.224609 9.041992 20.611328 22.518555 24.185547 27.803711 31.612305" y="-0.4375">0.7  iPSF</tspan>
       <tspan style="font: oblique 6px 'DejaVu Sans'" x="10.949219 14.766602" y="-0.4375">μm</tspan>
      </text>
     </g>
    </g>
    <g id="line2d_20">
     <path d="M 54.278437 112.308 
L 60.278437 112.308 
L 66.278437 112.308 
" style="fill: none; stroke-dasharray: 3.7,1.6; stroke-dashoffset: 0; stroke: #ff0000"/>
    </g>
    <g id="text_16">
     <!-- 0.7 $\mu m$ tPSF -->
     <g transform="translate(71.078437 114.408)">
      <text>
       <tspan style="font: 6px 'DejaVu Sans'" x="0 3.817383 5.224609 9.041992 20.611328 22.518555 24.871094 28.489258 32.297852" y="-0.546875">0.7  tPSF</tspan>
       <tspan style="font: oblique 6px 'DejaVu Sans'" x="10.949219 14.766602" y="-0.546875">μm</tspan>
      </text>
     </g>
    </g>
    <g id="line2d_21">
     <path d="M 54.278437 121.128 
L 60.278437 121.128 
L 66.278437 121.128 
" style="fill: none; stroke: #008000; stroke-linecap: square"/>
    </g>
    <g id="text_17">
     <!-- 0.5 $\mu m$ iPSF -->
     <g transform="translate(71.078437 123.228)">
      <text>
       <tspan style="font: 6px 'DejaVu Sans'" x="0 3.817383 5.724609 9.541992 21.111328 23.018555 24.685547 28.303711 32.112305" y="-0.4375">0.5  iPSF</tspan>
       <tspan style="font: oblique 6px 'DejaVu Sans'" x="11.449219 15.266602" y="-0.4375">μm</tspan>
      </text>
     </g>
    </g>
   </g>
  </g>
  <g id="text_18">
   <text style="font: 700 6px 'DejaVu Sans', 'Arial', 'Helvetica', 'Lucida Grande', 'Verdana', 'Geneva', 'Lucid', 'Avant Garde', sans-serif; text-anchor: middle" x="79.2" y="7.727063" transform="rotate(-0 79.2 7.727063)">h) Effect of PSF size on cyto profile</text>
  </g>
 </g>
 <defs>
  <clipPath id="p9550072b36">
   <rect x="31.68" y="36.432" width="110.88" height="93.456"/>
  </clipPath>
 </defs>
</svg>
