<?xml version="1.0" encoding="utf-8" standalone="no"?>
<!DOCTYPE svg PUBLIC "-//W3C//DTD SVG 1.1//EN"
  "http://www.w3.org/Graphics/SVG/1.1/DTD/svg11.dtd">
<svg xmlns:xlink="http://www.w3.org/1999/xlink" width="144pt" height="144pt" viewBox="0 0 144 144" xmlns="http://www.w3.org/2000/svg" version="1.1">
 <metadata>
  <rdf:RDF xmlns:dc="http://purl.org/dc/elements/1.1/" xmlns:cc="http://creativecommons.org/ns#" xmlns:rdf="http://www.w3.org/1999/02/22-rdf-syntax-ns#">
   <cc:Work>
    <dc:type rdf:resource="http://purl.org/dc/dcmitype/StillImage"/>
    <dc:date>2023-12-04T15:25:36.884652</dc:date>
    <dc:format>image/svg+xml</dc:format>
    <dc:creator>
     <cc:Agent>
      <dc:title>Matplotlib v3.8.2, https://matplotlib.org/</dc:title>
     </cc:Agent>
    </dc:creator>
   </cc:Work>
  </rdf:RDF>
 </metadata>
 <defs>
  <style type="text/css">*{stroke-linejoin: round; stroke-linecap: butt}</style>
 </defs>
 <g id="figure_1">
  <g id="patch_1">
   <path d="M 0 144 
L 144 144 
L 144 0 
L 0 0 
L 0 144 
z
" style="fill: none"/>
  </g>
  <g id="axes_1">
   <g id="patch_2">
    <path d="M 28.8 120.96 
L 136.8 120.96 
L 136.8 21.6 
L 28.8 21.6 
L 28.8 120.96 
z
" style="fill: none"/>
   </g>
   <g id="PolyCollection_1">
    <defs>
     <path id="mbac37be5f5" d="M 33.709091 -58.579946 
L 33.709091 -53.469293 
L 39.198967 -53.930345 
L 44.655136 -53.364074 
L 50.13827 -53.821137 
L 55.576461 -52.92422 
L 61.014652 -52.12897 
L 66.452843 -51.393965 
L 71.891034 -50.46141 
L 77.374169 -49.552485 
L 82.81236 -48.3476 
L 88.25055 -46.706711 
L 93.733685 -45.431732 
L 99.171876 -43.569787 
L 104.610067 -42.153024 
L 110.093202 -40.450906 
L 115.531393 -38.828554 
L 120.969584 -36.76763 
L 126.452718 -27.556364 
L 131.890909 -28.101566 
L 131.890909 -38.127876 
L 131.890909 -38.127876 
L 126.452718 -36.554907 
L 120.969584 -40.903572 
L 115.531393 -40.900796 
L 110.093202 -42.183058 
L 104.610067 -43.452952 
L 99.171876 -44.804827 
L 93.733685 -46.659115 
L 88.25055 -47.918637 
L 82.81236 -49.677528 
L 77.374169 -50.928686 
L 71.891034 -51.856213 
L 66.452843 -52.740995 
L 61.014652 -53.68974 
L 55.576461 -54.535159 
L 50.13827 -55.701189 
L 44.655136 -55.677588 
L 39.198967 -56.525837 
L 33.709091 -58.579946 
z
" style="stroke: #66c2a5; stroke-opacity: 0.2"/>
    </defs>
    <g clip-path="url(#p93ee07b49b)">
     <use xlink:href="#mbac37be5f5" x="0" y="144" style="fill: #66c2a5; fill-opacity: 0.2; stroke: #66c2a5; stroke-opacity: 0.2"/>
    </g>
   </g>
   <g id="PolyCollection_2">
    <defs>
     <path id="ma8e5b27002" d="M 33.709091 -84.819228 
L 33.709091 -73.722588 
L 39.198967 -75.667787 
L 44.655136 -75.331129 
L 50.13827 -72.592433 
L 55.576461 -72.08371 
L 61.014652 -71.727384 
L 66.452843 -69.832844 
L 71.891034 -67.823194 
L 77.374169 -65.334549 
L 82.81236 -65.176663 
L 88.25055 -61.964433 
L 93.733685 -59.592638 
L 99.171876 -56.971114 
L 104.610067 -56.071493 
L 110.093202 -51.909136 
L 115.531393 -49.113332 
L 120.969584 -45.488641 
L 126.452718 -44.498471 
L 131.890909 -45.650797 
L 131.890909 -49.104844 
L 131.890909 -49.104844 
L 126.452718 -54.586353 
L 120.969584 -52.066732 
L 115.531393 -53.692506 
L 110.093202 -56.455624 
L 104.610067 -59.611121 
L 99.171876 -60.674167 
L 93.733685 -62.512129 
L 88.25055 -64.462513 
L 82.81236 -67.832618 
L 77.374169 -68.325989 
L 71.891034 -71.087407 
L 66.452843 -72.632371 
L 61.014652 -75.320446 
L 55.576461 -75.835055 
L 50.13827 -76.64972 
L 44.655136 -79.893599 
L 39.198967 -80.225006 
L 33.709091 -84.819228 
z
" style="stroke: #fc8d62; stroke-opacity: 0.2"/>
    </defs>
    <g clip-path="url(#p93ee07b49b)">
     <use xlink:href="#ma8e5b27002" x="0" y="144" style="fill: #fc8d62; fill-opacity: 0.2; stroke: #fc8d62; stroke-opacity: 0.2"/>
    </g>
   </g>
   <g id="PolyCollection_3">
    <defs>
     <path id="m8b6bd2ff88" d="M 33.709091 -117.883636 
L 33.709091 -97.977908 
L 39.198967 -96.56828 
L 44.655136 -94.585155 
L 50.13827 -92.421949 
L 55.576461 -92.399971 
L 61.014652 -89.786104 
L 66.452843 -86.444598 
L 71.891034 -83.939348 
L 77.374169 -81.27966 
L 82.81236 -78.263818 
L 88.25055 -73.163922 
L 93.733685 -70.910658 
L 99.171876 -67.130588 
L 104.610067 -66.511413 
L 110.093202 -62.907758 
L 115.531393 -55.857508 
L 120.969584 -54.097721 
L 126.452718 -47.398711 
L 131.890909 -41.819563 
L 131.890909 -47.743232 
L 131.890909 -47.743232 
L 126.452718 -52.452826 
L 120.969584 -59.713868 
L 115.531393 -63.198481 
L 110.093202 -69.54107 
L 104.610067 -71.458042 
L 99.171876 -72.029964 
L 93.733685 -75.116639 
L 88.25055 -77.034 
L 82.81236 -82.105599 
L 77.374169 -84.692659 
L 71.891034 -87.470293 
L 66.452843 -90.127659 
L 61.014652 -93.424754 
L 55.576461 -97.107598 
L 50.13827 -98.954985 
L 44.655136 -104.694949 
L 39.198967 -111.489867 
L 33.709091 -117.883636 
z
" style="stroke: #8da0cb; stroke-opacity: 0.2"/>
    </defs>
    <g clip-path="url(#p93ee07b49b)">
     <use xlink:href="#m8b6bd2ff88" x="0" y="144" style="fill: #8da0cb; fill-opacity: 0.2; stroke: #8da0cb; stroke-opacity: 0.2"/>
    </g>
   </g>
   <g id="matplotlib.axis_1">
    <g id="xtick_1">
     <g id="line2d_1">
      <defs>
       <path id="mcd2845b704" d="M 0 0 
L 0 3.5 
" style="stroke: #000000; stroke-width: 0.8"/>
      </defs>
      <g>
       <use xlink:href="#mcd2845b704" x="31.037186" y="120.96" style="stroke: #000000; stroke-width: 0.8"/>
      </g>
     </g>
     <g id="text_1">
      <!-- $\mathdefault{0.00}$ -->
      <g transform="translate(25.221098 132.218992) scale(0.06 -0.06)">
       <defs>
        <path id="NimbusSanL-Regu-30" d="M 1760 4544 
C 1338 4544 954 4360 717 4046 
C 422 3651 275 3044 275 2208 
C 275 683 787 -128 1760 -128 
C 2720 -128 3245 683 3245 2170 
C 3245 3050 3104 3638 2803 4046 
C 2566 4366 2189 4544 1760 4544 
z
M 1760 4044 
C 2368 4044 2669 3432 2669 2221 
C 2669 939 2374 340 1747 340 
C 1152 340 851 965 851 2202 
C 851 3438 1152 4044 1760 4044 
z
" transform="scale(0.015625)"/>
        <path id="NimbusSanL-Regu-2e" d="M 1222 667 
L 557 667 
L 557 0 
L 1222 0 
L 1222 667 
z
" transform="scale(0.015625)"/>
       </defs>
       <use xlink:href="#NimbusSanL-Regu-30" transform="scale(0.996264)"/>
       <use xlink:href="#NimbusSanL-Regu-2e" transform="translate(55.391677 0) scale(0.996264)"/>
       <use xlink:href="#NimbusSanL-Regu-30" transform="translate(83.086847 0) scale(0.996264)"/>
       <use xlink:href="#NimbusSanL-Regu-30" transform="translate(138.478524 0) scale(0.996264)"/>
      </g>
     </g>
    </g>
    <g id="xtick_2">
     <g id="line2d_2">
      <g>
       <use xlink:href="#mcd2845b704" x="53.50905" y="120.96" style="stroke: #000000; stroke-width: 0.8"/>
      </g>
     </g>
     <g id="text_2">
      <!-- $\mathdefault{0.25}$ -->
      <g transform="translate(47.692962 132.218992) scale(0.06 -0.06)">
       <defs>
        <path id="NimbusSanL-Regu-32" d="M 3238 558 
L 851 558 
C 909 930 1114 1167 1670 1494 
L 2310 1840 
C 2944 2186 3270 2653 3270 3211 
C 3270 3589 3117 3942 2848 4185 
C 2579 4429 2246 4544 1818 4544 
C 1242 4544 813 4339 563 3955 
C 403 3711 333 3429 320 2967 
L 883 2967 
C 902 3275 941 3461 1018 3608 
C 1165 3884 1459 4051 1798 4051 
C 2310 4051 2694 3685 2694 3198 
C 2694 2839 2483 2531 2080 2301 
L 1491 1968 
C 544 1430 269 1000 218 0 
L 3238 0 
L 3238 558 
z
" transform="scale(0.015625)"/>
        <path id="NimbusSanL-Regu-35" d="M 3046 4544 
L 704 4544 
L 365 2086 
L 883 2086 
C 1146 2399 1363 2508 1715 2508 
C 2323 2508 2707 2092 2707 1421 
C 2707 768 2330 372 1715 372 
C 1222 372 922 621 787 1133 
L 224 1133 
C 301 762 365 582 499 415 
C 755 70 1216 -128 1728 -128 
C 2643 -128 3283 537 3283 1497 
C 3283 2394 2688 3008 1818 3008 
C 1498 3008 1242 2925 979 2732 
L 1158 3987 
L 3046 3987 
L 3046 4544 
z
" transform="scale(0.015625)"/>
       </defs>
       <use xlink:href="#NimbusSanL-Regu-30" transform="scale(0.996264)"/>
       <use xlink:href="#NimbusSanL-Regu-2e" transform="translate(55.391677 0) scale(0.996264)"/>
       <use xlink:href="#NimbusSanL-Regu-32" transform="translate(83.086847 0) scale(0.996264)"/>
       <use xlink:href="#NimbusSanL-Regu-35" transform="translate(138.478524 0) scale(0.996264)"/>
      </g>
     </g>
    </g>
    <g id="xtick_3">
     <g id="line2d_3">
      <g>
       <use xlink:href="#mcd2845b704" x="75.980913" y="120.96" style="stroke: #000000; stroke-width: 0.8"/>
      </g>
     </g>
     <g id="text_3">
      <!-- $\mathdefault{0.50}$ -->
      <g transform="translate(70.164825 132.218992) scale(0.06 -0.06)">
       <use xlink:href="#NimbusSanL-Regu-30" transform="scale(0.996264)"/>
       <use xlink:href="#NimbusSanL-Regu-2e" transform="translate(55.391677 0) scale(0.996264)"/>
       <use xlink:href="#NimbusSanL-Regu-35" transform="translate(83.086847 0) scale(0.996264)"/>
       <use xlink:href="#NimbusSanL-Regu-30" transform="translate(138.478524 0) scale(0.996264)"/>
      </g>
     </g>
    </g>
    <g id="xtick_4">
     <g id="line2d_4">
      <g>
       <use xlink:href="#mcd2845b704" x="98.452776" y="120.96" style="stroke: #000000; stroke-width: 0.8"/>
      </g>
     </g>
     <g id="text_4">
      <!-- $\mathdefault{0.75}$ -->
      <g transform="translate(92.636688 132.218992) scale(0.06 -0.06)">
       <defs>
        <path id="NimbusSanL-Regu-37" d="M 3328 4525 
L 294 4525 
L 294 3968 
L 2746 3968 
C 1664 2418 1222 1466 883 -32 
L 1485 -32 
C 1734 1427 2304 2681 3328 4051 
L 3328 4525 
z
" transform="scale(0.015625)"/>
       </defs>
       <use xlink:href="#NimbusSanL-Regu-30" transform="scale(0.996264)"/>
       <use xlink:href="#NimbusSanL-Regu-2e" transform="translate(55.391677 0) scale(0.996264)"/>
       <use xlink:href="#NimbusSanL-Regu-37" transform="translate(83.086847 0) scale(0.996264)"/>
       <use xlink:href="#NimbusSanL-Regu-35" transform="translate(138.478524 0) scale(0.996264)"/>
      </g>
     </g>
    </g>
    <g id="xtick_5">
     <g id="line2d_5">
      <g>
       <use xlink:href="#mcd2845b704" x="120.92464" y="120.96" style="stroke: #000000; stroke-width: 0.8"/>
      </g>
     </g>
     <g id="text_5">
      <!-- $\mathdefault{1.00}$ -->
      <g transform="translate(115.108552 132.218992) scale(0.06 -0.06)">
       <defs>
        <path id="NimbusSanL-Regu-31" d="M 1658 3238 
L 1658 0 
L 2221 0 
L 2221 4545 
L 1850 4545 
C 1651 3847 1523 3751 653 3642 
L 653 3238 
L 1658 3238 
z
" transform="scale(0.015625)"/>
       </defs>
       <use xlink:href="#NimbusSanL-Regu-31" transform="scale(0.996264)"/>
       <use xlink:href="#NimbusSanL-Regu-2e" transform="translate(55.391677 0) scale(0.996264)"/>
       <use xlink:href="#NimbusSanL-Regu-30" transform="translate(83.086847 0) scale(0.996264)"/>
       <use xlink:href="#NimbusSanL-Regu-30" transform="translate(138.478524 0) scale(0.996264)"/>
      </g>
     </g>
    </g>
    <g id="text_6">
     <!-- $d_c$/$D$ -->
     <g transform="translate(76.524377 141.751164) scale(0.06 -0.06)">
      <defs>
       <path id="NimbusSanL-ReguItal-64" d="M 4160 4672 
L 3622 4672 
L 3238 2873 
C 3034 3289 2778 3456 2323 3456 
C 1261 3456 467 2448 467 1102 
C 467 356 896 -128 1562 -128 
C 1837 -128 2131 -39 2387 115 
C 2579 230 2662 326 2752 505 
L 2650 19 
L 3168 19 
L 4160 4672 
z
M 2272 2962 
C 2746 2962 3027 2643 3027 2102 
C 3027 1727 2925 1339 2733 1008 
C 2483 581 2170 365 1779 365 
C 1306 365 1030 684 1030 1231 
C 1030 1587 1139 1994 1312 2319 
C 1555 2758 1862 2962 2272 2962 
z
" transform="scale(0.015625)"/>
       <path id="NimbusSanL-ReguItal-63" d="M 3526 2236 
L 3533 2332 
C 3539 2427 3546 2498 3546 2517 
C 3546 2728 3430 2983 3264 3155 
C 3066 3359 2803 3456 2438 3456 
C 1862 3456 1344 3213 1005 2774 
C 704 2385 486 1689 486 1102 
C 486 803 589 490 768 267 
C 986 -8 1274 -128 1683 -128 
C 2208 -128 2650 56 2944 402 
C 3110 593 3213 810 3315 1167 
L 2778 1167 
C 2586 645 2234 365 1773 365 
C 1331 365 1050 677 1050 1173 
C 1050 1581 1184 2065 1395 2395 
C 1632 2771 1952 2962 2342 2962 
C 2746 2962 2995 2740 2995 2376 
C 2995 2338 2995 2294 2989 2236 
L 3526 2236 
z
" transform="scale(0.015625)"/>
       <path id="NimbusSanL-Regu-2f" d="M 1466 4672 
L -51 -128 
L 301 -128 
L 1818 4672 
L 1466 4672 
z
" transform="scale(0.015625)"/>
       <path id="NimbusSanL-ReguItal-44" d="M 570 0 
L 2374 0 
C 3066 0 3648 289 4115 859 
C 4550 1390 4858 2326 4858 3128 
C 4858 3595 4666 4069 4365 4338 
C 4122 4556 3782 4672 3366 4672 
L 1562 4672 
L 570 0 
z
M 1280 526 
L 2054 4146 
L 3149 4146 
C 3834 4146 4243 3742 4243 3076 
C 4243 2487 4038 1717 3782 1314 
C 3450 801 2963 526 2381 526 
L 1280 526 
z
" transform="scale(0.015625)"/>
      </defs>
      <use xlink:href="#NimbusSanL-ReguItal-64" transform="scale(0.996264)"/>
      <use xlink:href="#NimbusSanL-ReguItal-63" transform="translate(55.391677 -14.943915) scale(0.697382)"/>
      <use xlink:href="#NimbusSanL-Regu-2f" transform="translate(94.419456 0) scale(0.996264)"/>
      <use xlink:href="#NimbusSanL-ReguItal-44" transform="translate(122.114626 0) scale(0.996264)"/>
     </g>
    </g>
   </g>
   <g id="matplotlib.axis_2">
    <g id="ytick_1">
     <g id="line2d_6">
      <defs>
       <path id="mc413382f0c" d="M 0 0 
L -3.5 0 
" style="stroke: #000000; stroke-width: 0.8"/>
      </defs>
      <g>
       <use xlink:href="#mc413382f0c" x="28.8" y="116.171039" style="stroke: #000000; stroke-width: 0.8"/>
      </g>
     </g>
     <g id="text_7">
      <!-- $\mathdefault{5}$ -->
      <g transform="translate(18.47651 118.300535) scale(0.06 -0.06)">
       <use xlink:href="#NimbusSanL-Regu-35" transform="scale(0.996264)"/>
      </g>
     </g>
    </g>
    <g id="ytick_2">
     <g id="line2d_7">
      <g>
       <use xlink:href="#mc413382f0c" x="28.8" y="91.374975" style="stroke: #000000; stroke-width: 0.8"/>
      </g>
     </g>
     <g id="text_8">
      <!-- $\mathdefault{10}$ -->
      <g transform="translate(15.153021 93.504471) scale(0.06 -0.06)">
       <use xlink:href="#NimbusSanL-Regu-31" transform="scale(0.996264)"/>
       <use xlink:href="#NimbusSanL-Regu-30" transform="translate(55.391677 0) scale(0.996264)"/>
      </g>
     </g>
    </g>
    <g id="ytick_3">
     <g id="line2d_8">
      <g>
       <use xlink:href="#mc413382f0c" x="28.8" y="66.57891" style="stroke: #000000; stroke-width: 0.8"/>
      </g>
     </g>
     <g id="text_9">
      <!-- $\mathdefault{15}$ -->
      <g transform="translate(15.153021 68.708406) scale(0.06 -0.06)">
       <use xlink:href="#NimbusSanL-Regu-31" transform="scale(0.996264)"/>
       <use xlink:href="#NimbusSanL-Regu-35" transform="translate(55.391677 0) scale(0.996264)"/>
      </g>
     </g>
    </g>
    <g id="ytick_4">
     <g id="line2d_9">
      <g>
       <use xlink:href="#mc413382f0c" x="28.8" y="41.782845" style="stroke: #000000; stroke-width: 0.8"/>
      </g>
     </g>
     <g id="text_10">
      <!-- $\mathdefault{20}$ -->
      <g transform="translate(15.153021 43.912341) scale(0.06 -0.06)">
       <use xlink:href="#NimbusSanL-Regu-32" transform="scale(0.996264)"/>
       <use xlink:href="#NimbusSanL-Regu-30" transform="translate(55.391677 0) scale(0.996264)"/>
      </g>
     </g>
    </g>
    <g id="text_11">
     <!-- Mean observed intensity -->
     <g transform="translate(9.879841 103.687) rotate(-90) scale(0.06 -0.06)">
      <defs>
       <path id="NimbusSanL-Regu-4d" d="M 2995 -2 
L 4307 3915 
L 4307 -2 
L 4870 -2 
L 4870 4672 
L 4045 4672 
L 2688 601 
L 1306 4672 
L 480 4672 
L 480 -2 
L 1043 -2 
L 1043 3915 
L 2368 -2 
L 2995 -2 
z
" transform="scale(0.015625)"/>
       <path id="NimbusSanL-Regu-65" d="M 3283 1529 
C 3283 2034 3245 2338 3149 2584 
C 2931 3127 2419 3456 1792 3456 
C 858 3456 256 2742 256 1645 
C 256 547 838 -128 1779 -128 
C 2547 -128 3078 310 3213 1044 
L 2675 1044 
C 2528 598 2227 365 1798 365 
C 1459 365 1171 520 992 805 
C 864 998 819 1193 813 1529 
L 3283 1529 
z
M 826 1984 
C 870 2577 1248 2962 1786 2962 
C 2310 2962 2714 2530 2714 1984 
C 2714 1984 2714 1984 2707 1984 
L 826 1984 
z
" transform="scale(0.015625)"/>
       <path id="NimbusSanL-Regu-61" d="M 3424 333 
C 3366 320 3341 320 3309 320 
C 3123 320 3021 415 3021 581 
L 3021 2545 
C 3021 3137 2586 3456 1760 3456 
C 1274 3456 870 3316 646 3066 
C 493 2893 429 2702 416 2370 
L 954 2370 
C 998 2777 1242 2962 1741 2962 
C 2221 2962 2490 2783 2490 2465 
L 2490 2325 
C 2490 2101 2355 2006 1933 1955 
C 1178 1860 1062 1834 858 1751 
C 467 1592 269 1292 269 859 
C 269 254 691 -128 1370 -128 
C 1792 -128 2131 19 2509 365 
C 2547 25 2714 -128 3059 -128 
C 3168 -128 3251 -116 3424 -70 
L 3424 333 
z
M 2490 1072 
C 2490 893 2438 785 2278 639 
C 2061 441 1798 340 1485 340 
C 1069 340 826 537 826 874 
C 826 1225 1062 1403 1632 1486 
C 2195 1562 2310 1588 2490 1670 
L 2490 1072 
z
" transform="scale(0.015625)"/>
       <path id="NimbusSanL-Regu-6e" d="M 448 3359 
L 448 0 
L 986 0 
L 986 1853 
C 986 2539 1344 2988 1894 2988 
C 2317 2988 2586 2731 2586 2327 
L 2586 0 
L 3117 0 
L 3117 2539 
C 3117 3097 2701 3456 2054 3456 
C 1555 3456 1235 3263 941 2796 
L 941 3359 
L 448 3359 
z
" transform="scale(0.015625)"/>
       <path id="NimbusSanL-Regu-6f" d="M 1741 3456 
C 800 3456 230 2786 230 1663 
C 230 541 794 -128 1747 -128 
C 2688 -128 3264 541 3264 1638 
C 3264 2792 2707 3456 1741 3456 
z
M 1747 2962 
C 2349 2962 2707 2472 2707 1645 
C 2707 861 2336 365 1747 365 
C 1152 365 787 855 787 1663 
C 787 2466 1152 2962 1747 2962 
z
" transform="scale(0.015625)"/>
       <path id="NimbusSanL-Regu-62" d="M 346 4672 
L 346 -2 
L 826 -2 
L 826 448 
C 1082 57 1421 -128 1888 -128 
C 2771 -128 3347 592 3347 1702 
C 3347 2786 2797 3456 1914 3456 
C 1453 3456 1126 3282 877 2905 
L 877 4672 
L 346 4672 
z
M 1811 2956 
C 2406 2956 2790 2440 2790 1645 
C 2790 887 2394 372 1811 372 
C 1248 372 877 881 877 1664 
C 877 2447 1248 2956 1811 2956 
z
" transform="scale(0.015625)"/>
       <path id="NimbusSanL-Regu-73" d="M 2803 2427 
C 2797 3085 2362 3456 1587 3456 
C 806 3456 301 3054 301 2436 
C 301 1913 570 1665 1363 1474 
L 1862 1353 
C 2234 1263 2381 1130 2381 888 
C 2381 576 2067 365 1600 365 
C 1312 365 1069 448 934 588 
C 851 684 813 779 781 1014 
L 218 1014 
C 243 241 678 -128 1555 -128 
C 2400 -128 2938 285 2938 929 
C 2938 1426 2656 1701 1990 1860 
L 1478 1981 
C 1043 2082 858 2223 858 2458 
C 858 2764 1133 2962 1568 2962 
C 1997 2962 2227 2777 2240 2427 
L 2803 2427 
z
" transform="scale(0.015625)"/>
       <path id="NimbusSanL-Regu-72" d="M 442 3359 
L 442 0 
L 979 0 
L 979 1741 
C 979 2221 1101 2535 1357 2720 
C 1523 2842 1683 2880 2054 2880 
L 2054 3432 
C 1965 3444 1920 3444 1850 3444 
C 1504 3444 1242 3240 934 2746 
L 934 3359 
L 442 3359 
z
" transform="scale(0.015625)"/>
       <path id="NimbusSanL-Regu-76" d="M 1824 0 
L 3110 3360 
L 2509 3360 
L 1562 635 
L 666 3360 
L 64 3360 
L 1242 0 
L 1824 0 
z
" transform="scale(0.015625)"/>
       <path id="NimbusSanL-Regu-64" d="M 3168 4672 
L 2637 4672 
L 2637 2937 
C 2413 3276 2054 3456 1606 3456 
C 736 3456 166 2761 166 1695 
C 166 566 723 -128 1626 -128 
C 2086 -128 2406 45 2694 461 
L 2694 -2 
L 3168 -2 
L 3168 4672 
z
M 1696 2956 
C 2272 2956 2637 2447 2637 1651 
C 2637 881 2266 372 1702 372 
C 1114 372 723 887 723 1664 
C 723 2440 1114 2956 1696 2956 
z
" transform="scale(0.015625)"/>
       <path id="NimbusSanL-Regu-69" d="M 960 3359 
L 429 3359 
L 429 0 
L 960 0 
L 960 3359 
z
M 960 4672 
L 422 4672 
L 422 3999 
L 960 3999 
L 960 4672 
z
" transform="scale(0.015625)"/>
       <path id="NimbusSanL-Regu-74" d="M 1626 3380 
L 1075 3380 
L 1075 4288 
L 544 4288 
L 544 3380 
L 90 3380 
L 90 2944 
L 544 2944 
L 544 404 
C 544 64 774 -128 1190 -128 
C 1318 -128 1446 -116 1626 -83 
L 1626 366 
C 1555 346 1472 340 1370 340 
C 1139 340 1075 404 1075 641 
L 1075 2944 
L 1626 2944 
L 1626 3380 
z
" transform="scale(0.015625)"/>
       <path id="NimbusSanL-Regu-79" d="M 2483 3360 
L 1555 738 
L 698 3360 
L 128 3360 
L 1261 -21 
L 1056 -554 
C 973 -792 851 -882 627 -882 
C 550 -882 461 -869 346 -843 
L 346 -1325 
C 454 -1382 563 -1408 704 -1408 
C 877 -1408 1062 -1350 1203 -1247 
C 1370 -1125 1466 -983 1568 -713 
L 3059 3360 
L 2483 3360 
z
" transform="scale(0.015625)"/>
      </defs>
      <use xlink:href="#NimbusSanL-Regu-4d" transform="scale(0.996264)"/>
      <use xlink:href="#NimbusSanL-Regu-65" transform="translate(82.98843 0) scale(0.996264)"/>
      <use xlink:href="#NimbusSanL-Regu-61" transform="translate(138.380107 0) scale(0.996264)"/>
      <use xlink:href="#NimbusSanL-Regu-6e" transform="translate(193.771784 0) scale(0.996264)"/>
      <use xlink:href="#NimbusSanL-Regu-6f" transform="translate(276.858631 0) scale(0.996264)"/>
      <use xlink:href="#NimbusSanL-Regu-62" transform="translate(332.250308 0) scale(0.996264)"/>
      <use xlink:href="#NimbusSanL-Regu-73" transform="translate(387.641985 0) scale(0.996264)"/>
      <use xlink:href="#NimbusSanL-Regu-65" transform="translate(437.455185 0) scale(0.996264)"/>
      <use xlink:href="#NimbusSanL-Regu-72" transform="translate(492.846862 0) scale(0.996264)"/>
      <use xlink:href="#NimbusSanL-Regu-76" transform="translate(529.010185 0) scale(0.996264)"/>
      <use xlink:href="#NimbusSanL-Regu-65" transform="translate(576.332755 0) scale(0.996264)"/>
      <use xlink:href="#NimbusSanL-Regu-64" transform="translate(631.724432 0) scale(0.996264)"/>
      <use xlink:href="#NimbusSanL-Regu-69" transform="translate(714.811279 0) scale(0.996264)"/>
      <use xlink:href="#NimbusSanL-Regu-6e" transform="translate(736.928063 0) scale(0.996264)"/>
      <use xlink:href="#NimbusSanL-Regu-74" transform="translate(792.31974 0) scale(0.996264)"/>
      <use xlink:href="#NimbusSanL-Regu-65" transform="translate(820.01491 0) scale(0.996264)"/>
      <use xlink:href="#NimbusSanL-Regu-6e" transform="translate(875.406587 0) scale(0.996264)"/>
      <use xlink:href="#NimbusSanL-Regu-73" transform="translate(930.798264 0) scale(0.996264)"/>
      <use xlink:href="#NimbusSanL-Regu-69" transform="translate(980.611464 0) scale(0.996264)"/>
      <use xlink:href="#NimbusSanL-Regu-74" transform="translate(1002.728249 0) scale(0.996264)"/>
      <use xlink:href="#NimbusSanL-Regu-79" transform="translate(1030.423418 0) scale(0.996264)"/>
     </g>
    </g>
   </g>
   <g id="line2d_10">
    <path d="M 33.709091 88.019248 
L 39.198967 88.698991 
L 44.655136 89.454279 
L 50.13827 89.227342 
L 55.576461 90.252136 
L 61.014652 91.074036 
L 66.452843 91.987184 
L 71.891034 92.817642 
L 77.374169 93.752263 
L 82.81236 94.993907 
L 88.25055 96.683802 
L 93.733685 97.934459 
L 99.171876 99.78697 
L 104.610067 101.254807 
L 110.093202 102.650683 
L 115.531393 104.142411 
L 120.969584 104.981593 
L 126.452718 111.588049 
L 131.890909 110.539734 
" clip-path="url(#p93ee07b49b)" style="fill: none; stroke: #66c2a5; stroke-linecap: square"/>
   </g>
   <g id="line2d_11">
    <path d="M 33.709091 64.768261 
L 39.198967 66.085621 
L 44.655136 66.327359 
L 50.13827 69.333356 
L 55.576461 70.016321 
L 61.014652 70.565433 
L 66.452843 72.703148 
L 71.891034 74.533553 
L 77.374169 77.154556 
L 82.81236 77.495714 
L 88.25055 80.77396 
L 93.733685 82.935425 
L 99.171876 85.217392 
L 104.610067 86.157469 
L 110.093202 89.822904 
L 115.531393 92.525052 
L 120.969584 95.281057 
L 126.452718 94.637318 
L 131.890909 96.622179 
" clip-path="url(#p93ee07b49b)" style="fill: none; stroke: #fc8d62; stroke-linecap: square"/>
   </g>
   <g id="line2d_12">
    <path d="M 33.709091 36.34456 
L 39.198967 39.782184 
L 44.655136 44.67662 
L 50.13827 48.4772 
L 55.576461 48.897847 
L 61.014652 52.398994 
L 66.452843 55.689585 
L 71.891034 58.270584 
L 77.374169 61.089885 
L 82.81236 63.885546 
L 88.25055 68.863123 
L 93.733685 70.944833 
L 99.171876 74.286121 
L 104.610067 75.071069 
L 110.093202 77.887918 
L 115.531393 84.311899 
L 120.969584 86.857228 
L 126.452718 93.77789 
L 131.890909 99.176115 
" clip-path="url(#p93ee07b49b)" style="fill: none; stroke: #8da0cb; stroke-linecap: square"/>
   </g>
   <g id="line2d_13"/>
   <g id="line2d_14"/>
   <g id="line2d_15"/>
   <g id="patch_3">
    <path d="M 28.8 120.96 
L 28.8 21.6 
" style="fill: none; stroke: #000000; stroke-width: 0.5; stroke-linejoin: miter; stroke-linecap: square"/>
   </g>
   <g id="patch_4">
    <path d="M 28.8 120.96 
L 136.8 120.96 
" style="fill: none; stroke: #000000; stroke-width: 0.5; stroke-linejoin: miter; stroke-linecap: square"/>
   </g>
   <g id="legend_1">
    <g id="patch_5">
     <path d="M 76.904436 60.97112 
L 132.6 60.97112 
Q 133.8 60.97112 133.8 59.77112 
L 133.8 25.8 
Q 133.8 24.6 132.6 24.6 
L 76.904436 24.6 
Q 75.704436 24.6 75.704436 25.8 
L 75.704436 59.77112 
Q 75.704436 60.97112 76.904436 60.97112 
z
" style="fill: #ffffff; opacity: 0.8; stroke: #cccccc; stroke-linejoin: miter"/>
    </g>
    <g id="text_12">
     <!-- Colony size (\# cells) -->
     <g transform="translate(78.104436 31.3696) scale(0.06 -0.06)">
      <defs>
       <path id="NimbusSanL-Regu-43" d="M 4237 3229 
C 4051 4252 3462 4750 2438 4750 
C 1811 4750 1306 4552 960 4168 
C 538 3709 307 3045 307 2291 
C 307 1525 544 868 986 414 
C 1344 44 1805 -128 2413 -128 
C 3552 -128 4192 485 4333 1717 
L 3718 1717 
C 3667 1399 3603 1182 3507 997 
C 3315 614 2918 397 2419 397 
C 1491 397 902 1137 902 2298 
C 902 3491 1466 4224 2368 4224 
C 2746 4224 3098 4110 3290 3930 
C 3462 3771 3558 3573 3629 3229 
L 4237 3229 
z
" transform="scale(0.015625)"/>
       <path id="NimbusSanL-Regu-6c" d="M 973 4672 
L 435 4672 
L 435 -2 
L 973 -2 
L 973 4672 
z
" transform="scale(0.015625)"/>
       <path id="NimbusSanL-Regu-7a" d="M 2835 3348 
L 333 3348 
L 333 2880 
L 2202 2880 
L 198 481 
L 198 0 
L 2925 0 
L 2925 468 
L 845 468 
L 2835 2874 
L 2835 3348 
z
" transform="scale(0.015625)"/>
       <path id="NimbusSanL-Regu-28" d="M 1510 4672 
C 870 3830 467 2660 467 1651 
C 467 636 870 -534 1510 -1376 
L 1862 -1376 
C 1299 -457 986 623 986 1651 
C 986 2673 1299 3759 1862 4672 
L 1510 4672 
z
" transform="scale(0.015625)"/>
       <path id="NimbusSanL-Regu-23" d="M 3104 4448 
L 2611 4448 
L 2387 3200 
L 1587 3200 
L 1818 4448 
L 1331 4448 
L 1101 3200 
L 326 3200 
L 326 2764 
L 1018 2764 
L 819 1651 
L 90 1651 
L 90 1216 
L 736 1216 
L 493 -128 
L 979 -128 
L 1229 1216 
L 2022 1216 
L 1779 -128 
L 2266 -128 
L 2515 1216 
L 3264 1216 
L 3264 1651 
L 2592 1651 
L 2790 2764 
L 3469 2764 
L 3469 3200 
L 2874 3200 
L 3104 4448 
z
M 2304 2764 
L 2106 1651 
L 1306 1651 
L 1510 2764 
L 2304 2764 
z
" transform="scale(0.015625)"/>
       <path id="NimbusSanL-Regu-63" d="M 3014 2236 
C 2989 2562 2918 2773 2790 2958 
C 2560 3271 2157 3456 1690 3456 
C 787 3456 198 2742 198 1632 
C 198 554 774 -128 1683 -128 
C 2483 -128 2989 350 3053 1167 
L 2515 1167 
C 2426 632 2150 365 1696 365 
C 1107 365 755 843 755 1632 
C 755 2466 1101 2962 1683 2962 
C 2131 2962 2413 2701 2477 2236 
L 3014 2236 
z
" transform="scale(0.015625)"/>
       <path id="NimbusSanL-Regu-29" d="M 595 -1376 
C 1235 -534 1638 636 1638 1644 
C 1638 2660 1235 3830 595 4672 
L 243 4672 
C 806 3753 1120 2673 1120 1644 
C 1120 623 806 -464 243 -1376 
L 595 -1376 
z
" transform="scale(0.015625)"/>
      </defs>
      <use xlink:href="#NimbusSanL-Regu-43" transform="scale(0.996264)"/>
      <use xlink:href="#NimbusSanL-Regu-6f" transform="translate(71.929985 0) scale(0.996264)"/>
      <use xlink:href="#NimbusSanL-Regu-6c" transform="translate(127.321662 0) scale(0.996264)"/>
      <use xlink:href="#NimbusSanL-Regu-6f" transform="translate(149.438446 0) scale(0.996264)"/>
      <use xlink:href="#NimbusSanL-Regu-6e" transform="translate(204.830123 0) scale(0.996264)"/>
      <use xlink:href="#NimbusSanL-Regu-79" transform="translate(258.728407 0) scale(0.996264)"/>
      <use xlink:href="#NimbusSanL-Regu-73" transform="translate(336.236777 0) scale(0.996264)"/>
      <use xlink:href="#NimbusSanL-Regu-69" transform="translate(386.049978 0) scale(0.996264)"/>
      <use xlink:href="#NimbusSanL-Regu-7a" transform="translate(408.166762 0) scale(0.996264)"/>
      <use xlink:href="#NimbusSanL-Regu-65" transform="translate(456.48657 0) scale(0.996264)"/>
      <use xlink:href="#NimbusSanL-Regu-28" transform="translate(539.573417 0) scale(0.996264)"/>
      <use xlink:href="#NimbusSanL-Regu-23" transform="translate(572.748646 0) scale(0.996264)"/>
      <use xlink:href="#NimbusSanL-Regu-63" transform="translate(655.835493 0) scale(0.996264)"/>
      <use xlink:href="#NimbusSanL-Regu-65" transform="translate(705.648693 0) scale(0.996264)"/>
      <use xlink:href="#NimbusSanL-Regu-6c" transform="translate(761.04037 0) scale(0.996264)"/>
      <use xlink:href="#NimbusSanL-Regu-6c" transform="translate(783.157155 0) scale(0.996264)"/>
      <use xlink:href="#NimbusSanL-Regu-73" transform="translate(805.273939 0) scale(0.996264)"/>
      <use xlink:href="#NimbusSanL-Regu-29" transform="translate(855.08714 0) scale(0.996264)"/>
     </g>
    </g>
    <g id="line2d_16">
     <path d="M 82.893936 37.91238 
L 88.893936 37.91238 
L 94.893936 37.91238 
" style="fill: none; stroke: #66c2a5; stroke-linecap: square"/>
    </g>
    <g id="text_13">
     <!-- [1, 269) -->
     <g transform="translate(99.693936 40.01238) scale(0.06 -0.06)">
      <defs>
       <path id="NimbusSanL-Regu-5b" d="M 1600 4672 
L 410 4672 
L 410 -1357 
L 1600 -1357 
L 1600 -896 
L 941 -896 
L 941 4210 
L 1600 4210 
L 1600 4672 
z
" transform="scale(0.015625)"/>
       <path id="NimbusSanL-Regu-2c" d="M 557 640 
L 557 -27 
L 941 -27 
L 941 -142 
C 941 -583 858 -710 557 -710 
L 557 -960 
C 1005 -960 1229 -674 1229 -126 
L 1229 640 
L 557 640 
z
" transform="scale(0.015625)"/>
       <path id="NimbusSanL-Regu-36" d="M 3187 3382 
C 3078 4111 2592 4544 1901 4544 
C 1402 4544 954 4302 685 3900 
C 403 3460 275 2904 275 2081 
C 275 1321 390 836 659 434 
C 902 69 1299 -128 1798 -128 
C 2662 -128 3283 518 3283 1415 
C 3283 2268 2707 2868 1894 2868 
C 1446 2868 1094 2695 851 2362 
C 858 3444 1216 4044 1862 4044 
C 2259 4044 2534 3803 2624 3382 
L 3187 3382 
z
M 1824 2368 
C 2368 2368 2707 1986 2707 1370 
C 2707 793 2323 372 1805 372 
C 1280 372 883 813 883 1402 
C 883 1973 1267 2368 1824 2368 
z
" transform="scale(0.015625)"/>
       <path id="NimbusSanL-Regu-39" d="M 339 1064 
C 448 316 934 -128 1626 -128 
C 2125 -128 2579 114 2842 516 
C 3130 956 3258 1512 3258 2335 
C 3258 3095 3142 3580 2874 3982 
C 2624 4347 2227 4544 1728 4544 
C 864 4544 243 3909 243 3027 
C 243 2190 819 1600 1638 1600 
C 2067 1600 2381 1754 2675 2106 
C 2669 991 2310 372 1664 372 
C 1267 372 992 624 902 1064 
L 339 1064 
z
M 1722 4051 
C 2246 4051 2643 3622 2643 3041 
C 2643 2491 2253 2100 1702 2100 
C 1158 2100 819 2472 819 3072 
C 819 3640 1203 4051 1722 4051 
z
" transform="scale(0.015625)"/>
      </defs>
      <use xlink:href="#NimbusSanL-Regu-5b" transform="scale(0.996264)"/>
      <use xlink:href="#NimbusSanL-Regu-31" transform="translate(27.69517 0) scale(0.996264)"/>
      <use xlink:href="#NimbusSanL-Regu-2c" transform="translate(83.086847 0) scale(0.996264)"/>
      <use xlink:href="#NimbusSanL-Regu-32" transform="translate(138.477186 0) scale(0.996264)"/>
      <use xlink:href="#NimbusSanL-Regu-36" transform="translate(193.868863 0) scale(0.996264)"/>
      <use xlink:href="#NimbusSanL-Regu-39" transform="translate(249.26054 0) scale(0.996264)"/>
      <use xlink:href="#NimbusSanL-Regu-29" transform="translate(304.652217 0) scale(0.996264)"/>
     </g>
    </g>
    <g id="line2d_17">
     <path d="M 82.893936 46.55516 
L 88.893936 46.55516 
L 94.893936 46.55516 
" style="fill: none; stroke: #fc8d62; stroke-linecap: square"/>
    </g>
    <g id="text_14">
     <!-- [269, 536) -->
     <g transform="translate(99.693936 48.65516) scale(0.06 -0.06)">
      <defs>
       <path id="NimbusSanL-Regu-33" d="M 1414 2112 
L 1485 2112 
L 1722 2112 
C 2342 2112 2662 1830 2662 1284 
C 2662 712 2310 372 1722 372 
C 1107 372 806 681 768 1345 
L 205 1345 
C 230 978 294 740 403 534 
C 634 97 1082 -128 1702 -128 
C 2637 -128 3238 431 3238 1293 
C 3238 1872 3014 2194 2470 2381 
C 2893 2546 3104 2862 3104 3311 
C 3104 4082 2586 4544 1722 4544 
C 806 4544 320 4050 301 3095 
L 864 3095 
C 870 3366 896 3517 966 3655 
C 1094 3900 1376 4051 1728 4051 
C 2227 4051 2528 3760 2528 3287 
C 2528 2971 2413 2781 2163 2681 
C 2010 2618 1811 2592 1414 2592 
L 1414 2112 
z
" transform="scale(0.015625)"/>
      </defs>
      <use xlink:href="#NimbusSanL-Regu-5b" transform="scale(0.996264)"/>
      <use xlink:href="#NimbusSanL-Regu-32" transform="translate(27.69517 0) scale(0.996264)"/>
      <use xlink:href="#NimbusSanL-Regu-36" transform="translate(83.086847 0) scale(0.996264)"/>
      <use xlink:href="#NimbusSanL-Regu-39" transform="translate(138.478524 0) scale(0.996264)"/>
      <use xlink:href="#NimbusSanL-Regu-2c" transform="translate(193.8702 0) scale(0.996264)"/>
      <use xlink:href="#NimbusSanL-Regu-35" transform="translate(249.26054 0) scale(0.996264)"/>
      <use xlink:href="#NimbusSanL-Regu-33" transform="translate(304.652217 0) scale(0.996264)"/>
      <use xlink:href="#NimbusSanL-Regu-36" transform="translate(360.043894 0) scale(0.996264)"/>
      <use xlink:href="#NimbusSanL-Regu-29" transform="translate(415.435571 0) scale(0.996264)"/>
     </g>
    </g>
    <g id="line2d_18">
     <path d="M 82.893936 55.19794 
L 88.893936 55.19794 
L 94.893936 55.19794 
" style="fill: none; stroke: #8da0cb; stroke-linecap: square"/>
    </g>
    <g id="text_15">
     <!-- [536, 803) -->
     <g transform="translate(99.693936 57.29794) scale(0.06 -0.06)">
      <defs>
       <path id="NimbusSanL-Regu-38" d="M 2502 2399 
C 2970 2680 3123 2910 3123 3338 
C 3123 4046 2566 4544 1760 4544 
C 960 4544 397 4046 397 3338 
C 397 2917 550 2687 1011 2399 
C 493 2150 237 1774 237 1276 
C 237 446 864 -128 1760 -128 
C 2656 -128 3283 447 3283 1270 
C 3283 1774 3027 2150 2502 2399 
z
M 1760 4044 
C 2240 4044 2547 3764 2547 3325 
C 2547 2904 2234 2624 1760 2624 
C 1286 2624 973 2904 973 3331 
C 973 3764 1286 4044 1760 4044 
z
M 1760 2149 
C 2323 2149 2707 1792 2707 1263 
C 2707 729 2323 372 1747 372 
C 1197 372 813 735 813 1263 
C 813 1792 1197 2149 1760 2149 
z
" transform="scale(0.015625)"/>
      </defs>
      <use xlink:href="#NimbusSanL-Regu-5b" transform="scale(0.996264)"/>
      <use xlink:href="#NimbusSanL-Regu-35" transform="translate(27.69517 0) scale(0.996264)"/>
      <use xlink:href="#NimbusSanL-Regu-33" transform="translate(83.086847 0) scale(0.996264)"/>
      <use xlink:href="#NimbusSanL-Regu-36" transform="translate(138.478524 0) scale(0.996264)"/>
      <use xlink:href="#NimbusSanL-Regu-2c" transform="translate(193.8702 0) scale(0.996264)"/>
      <use xlink:href="#NimbusSanL-Regu-38" transform="translate(249.26054 0) scale(0.996264)"/>
      <use xlink:href="#NimbusSanL-Regu-30" transform="translate(304.652217 0) scale(0.996264)"/>
      <use xlink:href="#NimbusSanL-Regu-33" transform="translate(360.043894 0) scale(0.996264)"/>
      <use xlink:href="#NimbusSanL-Regu-29" transform="translate(415.435571 0) scale(0.996264)"/>
     </g>
    </g>
   </g>
  </g>
  <g id="text_16">
   <!-- \textbf{c) Effect of cell position in \underline{real} colony} -->
   <g transform="translate(18.277327 7.195786) scale(0.06 -0.06)">
    <defs>
     <path id="NimbusSanL-Bold-63" d="M 3341 2188 
C 3277 3034 2714 3541 1850 3541 
C 819 3541 218 2861 218 1680 
C 218 538 813 -128 1837 -128 
C 2675 -128 3258 391 3341 1219 
L 2483 1219 
C 2368 769 2189 596 1843 596 
C 1389 596 1114 1006 1114 1680 
C 1114 2007 1178 2316 1286 2521 
C 1389 2714 1587 2816 1843 2816 
C 2208 2816 2381 2643 2483 2188 
L 3341 2188 
z
" transform="scale(0.015625)"/>
     <path id="NimbusSanL-Bold-29" d="M 781 -1284 
C 1517 -175 1824 710 1824 1690 
C 1824 2678 1517 3562 781 4672 
L 141 4672 
C 819 3351 1037 2633 1037 1690 
C 1037 754 819 24 141 -1284 
L 781 -1284 
z
" transform="scale(0.015625)"/>
     <path id="NimbusSanL-Bold-45" d="M 1466 2015 
L 3699 2015 
L 3699 2816 
L 1466 2816 
L 1466 3870 
L 3878 3870 
L 3878 4672 
L 506 4672 
L 506 0 
L 3994 0 
L 3994 801 
L 1466 801 
L 1466 2015 
z
" transform="scale(0.015625)"/>
     <path id="NimbusSanL-Bold-66" d="M 2003 3392 
L 1472 3392 
L 1472 3731 
C 1472 3910 1549 3999 1715 3999 
C 1792 3999 1894 3999 1971 3986 
L 1971 4659 
C 1805 4672 1581 4672 1459 4672 
C 864 4672 576 4390 576 3808 
L 576 3392 
L 90 3392 
L 90 2796 
L 576 2796 
L 576 -1 
L 1472 -1 
L 1472 2796 
L 2003 2796 
L 2003 3392 
z
" transform="scale(0.015625)"/>
     <path id="NimbusSanL-Bold-65" d="M 3354 1472 
C 3360 1548 3360 1580 3360 1624 
C 3360 1966 3309 2283 3226 2524 
C 2995 3145 2438 3520 1741 3520 
C 749 3520 141 2806 141 1651 
C 141 547 742 -128 1722 -128 
C 2496 -128 3123 315 3322 995 
L 2438 995 
C 2330 719 2080 558 1754 558 
C 1498 558 1293 667 1165 860 
C 1082 989 1050 1144 1037 1472 
L 3354 1472 
z
M 1050 2068 
C 1107 2579 1331 2834 1728 2834 
C 1952 2834 2157 2728 2285 2553 
C 2368 2429 2406 2298 2426 2068 
L 1050 2068 
z
" transform="scale(0.015625)"/>
     <path id="NimbusSanL-Bold-74" d="M 1926 3412 
L 1427 3412 
L 1427 4352 
L 531 4352 
L 531 3412 
L 90 3412 
L 90 2816 
L 531 2816 
L 531 687 
C 531 141 819 -128 1408 -128 
C 1606 -128 1766 -109 1926 -58 
L 1926 570 
C 1837 558 1786 551 1722 551 
C 1485 551 1427 622 1427 929 
L 1427 2816 
L 1926 2816 
L 1926 3412 
z
" transform="scale(0.015625)"/>
     <path id="NimbusSanL-Bold-6f" d="M 1926 3541 
C 870 3541 224 2842 224 1706 
C 224 564 870 -128 1933 -128 
C 2982 -128 3642 570 3642 1680 
C 3642 2855 3008 3541 1926 3541 
z
M 1933 2816 
C 2426 2816 2746 2374 2746 1693 
C 2746 1045 2413 596 1933 596 
C 1446 596 1120 1045 1120 1706 
C 1120 2367 1446 2816 1933 2816 
z
" transform="scale(0.015625)"/>
     <path id="NimbusSanL-Bold-6c" d="M 1325 4672 
L 429 4672 
L 429 -2 
L 1325 -2 
L 1325 4672 
z
" transform="scale(0.015625)"/>
     <path id="NimbusSanL-Bold-70" d="M 1267 3452 
L 371 3452 
L 371 -1408 
L 1267 -1408 
L 1267 390 
C 1485 6 1792 -174 2227 -174 
C 3059 -174 3674 608 3674 1661 
C 3674 2148 3533 2636 3302 2957 
C 3072 3284 2643 3502 2227 3502 
C 1792 3502 1485 3317 1267 2933 
L 1267 3452 
z
M 2022 2752 
C 2477 2752 2778 2309 2778 1648 
C 2778 1019 2464 576 2022 576 
C 1574 576 1267 1012 1267 1661 
C 1267 2309 1574 2752 2022 2752 
z
" transform="scale(0.015625)"/>
     <path id="NimbusSanL-Bold-73" d="M 3232 2352 
C 3219 3081 2656 3522 1728 3522 
C 851 3522 307 3082 307 2375 
C 307 2145 378 1947 499 1813 
C 621 1693 730 1635 1062 1527 
L 2131 1195 
C 2355 1125 2432 1055 2432 915 
C 2432 704 2182 577 1766 577 
C 1536 577 1350 622 1235 698 
C 1139 768 1101 838 1062 1023 
L 186 1023 
C 211 268 768 -128 1818 -128 
C 2298 -128 2662 -27 2918 177 
C 3174 381 3328 700 3328 1038 
C 3328 1485 3104 1771 2650 1905 
L 1517 2230 
C 1267 2307 1203 2358 1203 2498 
C 1203 2689 1408 2816 1722 2816 
C 2150 2816 2362 2664 2368 2352 
L 3232 2352 
z
" transform="scale(0.015625)"/>
     <path id="NimbusSanL-Bold-69" d="M 1325 3462 
L 429 3462 
L 429 0 
L 1325 0 
L 1325 3462 
z
M 1325 4672 
L 429 4672 
L 429 3870 
L 1325 3870 
L 1325 4672 
z
" transform="scale(0.015625)"/>
     <path id="NimbusSanL-Bold-6e" d="M 403 3462 
L 403 0 
L 1299 0 
L 1299 2077 
C 1299 2487 1587 2757 2022 2757 
C 2406 2757 2598 2545 2598 2135 
L 2598 0 
L 3494 0 
L 3494 2321 
C 3494 3084 3072 3520 2336 3520 
C 1869 3520 1555 3346 1299 2962 
L 1299 3462 
L 403 3462 
z
" transform="scale(0.015625)"/>
     <path id="NimbusSanL-Bold-72" d="M 403 3462 
L 403 0 
L 1299 0 
L 1299 1840 
C 1299 2366 1562 2628 2086 2628 
C 2182 2628 2246 2622 2368 2602 
L 2368 3514 
C 2317 3520 2285 3520 2259 3520 
C 1850 3520 1491 3250 1299 2782 
L 1299 3462 
L 403 3462 
z
" transform="scale(0.015625)"/>
     <path id="NimbusSanL-Bold-61" d="M 3354 128 
C 3194 275 3149 372 3149 551 
L 3149 2475 
C 3149 3182 2669 3541 1734 3541 
C 800 3541 314 3143 256 2342 
L 1120 2342 
C 1165 2701 1312 2816 1754 2816 
C 2099 2816 2272 2701 2272 2470 
C 2272 2355 2214 2252 2118 2201 
C 1997 2137 1997 2137 1555 2066 
L 1197 2001 
C 512 1886 179 1533 179 911 
C 179 616 262 372 422 199 
C 621 -7 922 -128 1229 -128 
C 1613 -128 1965 38 2278 365 
C 2278 186 2298 122 2381 19 
L 3354 19 
L 3354 128 
z
M 2272 1411 
C 2272 891 2016 596 1562 596 
C 1261 596 1075 756 1075 1013 
C 1075 1283 1216 1411 1587 1488 
L 1894 1546 
C 2131 1591 2170 1603 2272 1655 
L 2272 1411 
z
" transform="scale(0.015625)"/>
     <path id="NimbusSanL-Bold-79" d="M 2522 3456 
L 1805 937 
L 1043 3456 
L 58 3456 
L 1344 -146 
L 1344 -152 
L 1344 -172 
C 1344 -498 1101 -748 787 -748 
C 717 -748 666 -741 550 -710 
L 550 -1382 
C 685 -1402 762 -1408 870 -1408 
C 1094 -1408 1363 -1363 1517 -1299 
C 1766 -1196 1875 -1049 2022 -639 
L 3443 3456 
L 2522 3456 
z
" transform="scale(0.015625)"/>
    </defs>
    <use xlink:href="#NimbusSanL-Bold-63" transform="scale(0.996264)"/>
    <use xlink:href="#NimbusSanL-Bold-29" transform="translate(55.391677 0) scale(0.996264)"/>
    <use xlink:href="#NimbusSanL-Bold-45" transform="translate(116.262076 0) scale(0.996264)"/>
    <use xlink:href="#NimbusSanL-Bold-66" transform="translate(182.712107 0) scale(0.996264)"/>
    <use xlink:href="#NimbusSanL-Bold-66" transform="translate(215.887337 0) scale(0.996264)"/>
    <use xlink:href="#NimbusSanL-Bold-65" transform="translate(248.066272 0) scale(0.996264)"/>
    <use xlink:href="#NimbusSanL-Bold-63" transform="translate(303.457949 0) scale(0.996264)"/>
    <use xlink:href="#NimbusSanL-Bold-74" transform="translate(358.849626 0) scale(0.996264)"/>
    <use xlink:href="#NimbusSanL-Bold-6f" transform="translate(419.720026 0) scale(0.996264)"/>
    <use xlink:href="#NimbusSanL-Bold-66" transform="translate(480.591656 0) scale(0.996264)"/>
    <use xlink:href="#NimbusSanL-Bold-63" transform="translate(541.462056 0) scale(0.996264)"/>
    <use xlink:href="#NimbusSanL-Bold-65" transform="translate(596.853733 0) scale(0.996264)"/>
    <use xlink:href="#NimbusSanL-Bold-6c" transform="translate(652.24541 0) scale(0.996264)"/>
    <use xlink:href="#NimbusSanL-Bold-6c" transform="translate(679.940579 0) scale(0.996264)"/>
    <use xlink:href="#NimbusSanL-Bold-70" transform="translate(735.330918 0) scale(0.996264)"/>
    <use xlink:href="#NimbusSanL-Bold-6f" transform="translate(796.202549 0) scale(0.996264)"/>
    <use xlink:href="#NimbusSanL-Bold-73" transform="translate(857.07418 0) scale(0.996264)"/>
    <use xlink:href="#NimbusSanL-Bold-69" transform="translate(912.465857 0) scale(0.996264)"/>
    <use xlink:href="#NimbusSanL-Bold-74" transform="translate(940.161026 0) scale(0.996264)"/>
    <use xlink:href="#NimbusSanL-Bold-69" transform="translate(973.336256 0) scale(0.996264)"/>
    <use xlink:href="#NimbusSanL-Bold-6f" transform="translate(1001.031426 0) scale(0.996264)"/>
    <use xlink:href="#NimbusSanL-Bold-6e" transform="translate(1061.903056 0) scale(0.996264)"/>
    <use xlink:href="#NimbusSanL-Bold-69" transform="translate(1150.469857 0) scale(0.996264)"/>
    <use xlink:href="#NimbusSanL-Bold-6e" transform="translate(1178.165026 0) scale(0.996264)"/>
    <use xlink:href="#NimbusSanL-Bold-72" transform="translate(1266.731827 0) scale(0.996264)"/>
    <use xlink:href="#NimbusSanL-Bold-65" transform="translate(1305.485533 0) scale(0.996264)"/>
    <use xlink:href="#NimbusSanL-Bold-61" transform="translate(1360.87721 0) scale(0.996264)"/>
    <use xlink:href="#NimbusSanL-Bold-6c" transform="translate(1416.268887 0) scale(0.996264)"/>
    <use xlink:href="#NimbusSanL-Bold-63" transform="translate(1471.659226 0) scale(0.996264)"/>
    <use xlink:href="#NimbusSanL-Bold-6f" transform="translate(1527.050903 0) scale(0.996264)"/>
    <use xlink:href="#NimbusSanL-Bold-6c" transform="translate(1587.922534 0) scale(0.996264)"/>
    <use xlink:href="#NimbusSanL-Bold-6f" transform="translate(1615.617703 0) scale(0.996264)"/>
    <use xlink:href="#NimbusSanL-Bold-6e" transform="translate(1676.489334 0) scale(0.996264)"/>
    <use xlink:href="#NimbusSanL-Bold-79" transform="translate(1735.368953 0) scale(0.996264)"/>
    <path d="M 1266.731827 -16.935226 
L 1443.964056 -16.935226 
L 1443.964056 -12.950277 
L 1266.731827 -12.950277 
L 1266.731827 -16.935226 
z
"/>
   </g>
  </g>
 </g>
 <defs>
  <clipPath id="p93ee07b49b">
   <rect x="28.8" y="21.6" width="108" height="99.36"/>
  </clipPath>
 </defs>
</svg>
