<?xml version="1.0" encoding="utf-8" standalone="no"?>
<!DOCTYPE svg PUBLIC "-//W3C//DTD SVG 1.1//EN"
  "http://www.w3.org/Graphics/SVG/1.1/DTD/svg11.dtd">
<svg xmlns:xlink="http://www.w3.org/1999/xlink" width="360pt" height="360pt" viewBox="0 0 360 360" xmlns="http://www.w3.org/2000/svg" version="1.1">
 <metadata>
  <rdf:RDF xmlns:dc="http://purl.org/dc/elements/1.1/" xmlns:cc="http://creativecommons.org/ns#" xmlns:rdf="http://www.w3.org/1999/02/22-rdf-syntax-ns#">
   <cc:Work>
    <dc:type rdf:resource="http://purl.org/dc/dcmitype/StillImage"/>
    <dc:date>2024-04-16T19:03:50.676457</dc:date>
    <dc:format>image/svg+xml</dc:format>
    <dc:creator>
     <cc:Agent>
      <dc:title>Matplotlib v3.8.2, https://matplotlib.org/</dc:title>
     </cc:Agent>
    </dc:creator>
   </cc:Work>
  </rdf:RDF>
 </metadata>
 <defs>
  <style type="text/css">*{stroke-linejoin: round; stroke-linecap: butt}</style>
 </defs>
 <g id="figure_1">
  <g id="patch_1">
   <path d="M 0 360 
L 360 360 
L 360 0 
L 0 0 
L 0 360 
z
" style="fill: none"/>
  </g>
  <g id="axes_1">
   <g id="patch_2">
    <path d="M 108 252 
L 324 252 
L 324 43.2 
L 108 43.2 
L 108 252 
z
" style="fill: none"/>
   </g>
   <g id="matplotlib.axis_1">
    <g id="xtick_1">
     <g id="line2d_1">
      <defs>
       <path id="mbecee3c3c6" d="M 0 0 
L 0 3.5 
" style="stroke: #000000; stroke-width: 0.8"/>
      </defs>
      <g>
       <use xlink:href="#mbecee3c3c6" x="117.818182" y="252" style="stroke: #000000; stroke-width: 0.8"/>
      </g>
     </g>
     <g id="text_1">
      <text style="font: 6px 'DejaVu Sans', 'Arial', 'Helvetica', 'Lucida Grande', 'Verdana', 'Geneva', 'Lucid', 'Avant Garde', sans-serif; text-anchor: middle" x="117.818182" y="263.559063" transform="rotate(-0 117.818182 263.559063)">0</text>
     </g>
    </g>
    <g id="xtick_2">
     <g id="line2d_2">
      <g>
       <use xlink:href="#mbecee3c3c6" x="164.795128" y="252" style="stroke: #000000; stroke-width: 0.8"/>
      </g>
     </g>
     <g id="text_2">
      <text style="font: 6px 'DejaVu Sans', 'Arial', 'Helvetica', 'Lucida Grande', 'Verdana', 'Geneva', 'Lucid', 'Avant Garde', sans-serif; text-anchor: middle" x="164.795128" y="263.559063" transform="rotate(-0 164.795128 263.559063)">50</text>
     </g>
    </g>
    <g id="xtick_3">
     <g id="line2d_3">
      <g>
       <use xlink:href="#mbecee3c3c6" x="211.772075" y="252" style="stroke: #000000; stroke-width: 0.8"/>
      </g>
     </g>
     <g id="text_3">
      <text style="font: 6px 'DejaVu Sans', 'Arial', 'Helvetica', 'Lucida Grande', 'Verdana', 'Geneva', 'Lucid', 'Avant Garde', sans-serif; text-anchor: middle" x="211.772075" y="263.559063" transform="rotate(-0 211.772075 263.559063)">100</text>
     </g>
    </g>
    <g id="xtick_4">
     <g id="line2d_4">
      <g>
       <use xlink:href="#mbecee3c3c6" x="258.749021" y="252" style="stroke: #000000; stroke-width: 0.8"/>
      </g>
     </g>
     <g id="text_4">
      <text style="font: 6px 'DejaVu Sans', 'Arial', 'Helvetica', 'Lucida Grande', 'Verdana', 'Geneva', 'Lucid', 'Avant Garde', sans-serif; text-anchor: middle" x="258.749021" y="263.559063" transform="rotate(-0 258.749021 263.559063)">150</text>
     </g>
    </g>
    <g id="xtick_5">
     <g id="line2d_5">
      <g>
       <use xlink:href="#mbecee3c3c6" x="305.725968" y="252" style="stroke: #000000; stroke-width: 0.8"/>
      </g>
     </g>
     <g id="text_5">
      <text style="font: 6px 'DejaVu Sans', 'Arial', 'Helvetica', 'Lucida Grande', 'Verdana', 'Geneva', 'Lucid', 'Avant Garde', sans-serif; text-anchor: middle" x="305.725968" y="263.559063" transform="rotate(-0 305.725968 263.559063)">200</text>
     </g>
    </g>
    <g id="text_6">
     <text style="font: 6px 'DejaVu Sans', 'Arial', 'Helvetica', 'Lucida Grande', 'Verdana', 'Geneva', 'Lucid', 'Avant Garde', sans-serif; text-anchor: middle" x="216" y="273.365938" transform="rotate(-0 216 273.365938)">Distance (pixels)</text>
    </g>
   </g>
   <g id="matplotlib.axis_2">
    <g id="ytick_1">
     <g id="line2d_6">
      <defs>
       <path id="m53373b8917" d="M 0 0 
L -3.5 0 
" style="stroke: #000000; stroke-width: 0.8"/>
      </defs>
      <g>
       <use xlink:href="#m53373b8917" x="108" y="237.536652" style="stroke: #000000; stroke-width: 0.8"/>
      </g>
     </g>
     <g id="text_7">
      <!-- $\mathdefault{10^{-3}}$ -->
      <g transform="translate(86.9 239.816183)">
       <text>
        <tspan style="font: 6px 'DejaVu Sans'" x="0 3.817383" y="-0.5859375">10</tspan>
        <tspan style="font: 4.2px 'DejaVu Sans'" x="7.692188 11.211328" y="-2.8828125">−3</tspan>
       </text>
      </g>
     </g>
    </g>
    <g id="ytick_2">
     <g id="line2d_7">
      <g>
       <use xlink:href="#m53373b8917" x="108" y="175.921404" style="stroke: #000000; stroke-width: 0.8"/>
      </g>
     </g>
     <g id="text_8">
      <!-- $\mathdefault{10^{-2}}$ -->
      <g transform="translate(86.9 178.200936)">
       <text>
        <tspan style="font: 6px 'DejaVu Sans'" x="0 3.817383" y="-0.5859375">10</tspan>
        <tspan style="font: 4.2px 'DejaVu Sans'" x="7.692188 11.211328" y="-2.8828125">−2</tspan>
       </text>
      </g>
     </g>
    </g>
    <g id="ytick_3">
     <g id="line2d_8">
      <g>
       <use xlink:href="#m53373b8917" x="108" y="114.306157" style="stroke: #000000; stroke-width: 0.8"/>
      </g>
     </g>
     <g id="text_9">
      <!-- $\mathdefault{10^{-1}}$ -->
      <g transform="translate(86.9 116.585688)">
       <text>
        <tspan style="font: 6px 'DejaVu Sans'" x="0 3.817383" y="-0.640625">10</tspan>
        <tspan style="font: 4.2px 'DejaVu Sans'" x="7.692188 11.211328" y="-2.9375">−1</tspan>
       </text>
      </g>
     </g>
    </g>
    <g id="ytick_4">
     <g id="line2d_9">
      <g>
       <use xlink:href="#m53373b8917" x="108" y="52.690909" style="stroke: #000000; stroke-width: 0.8"/>
      </g>
     </g>
     <g id="text_10">
      <!-- $\mathdefault{10^{0}}$ -->
      <g transform="translate(90.44 54.97044)">
       <text>
        <tspan style="font: 6px 'DejaVu Sans'" x="0 3.817383" y="-0.5859375">10</tspan>
        <tspan style="font: 4.2px 'DejaVu Sans'" x="7.692188" y="-2.8828125">0</tspan>
       </text>
      </g>
     </g>
    </g>
    <g id="ytick_5"/>
    <g id="ytick_6"/>
    <g id="ytick_7"/>
    <g id="ytick_8"/>
    <g id="ytick_9"/>
    <g id="ytick_10"/>
    <g id="ytick_11"/>
    <g id="ytick_12"/>
    <g id="ytick_13"/>
    <g id="ytick_14"/>
    <g id="ytick_15"/>
    <g id="ytick_16"/>
    <g id="ytick_17"/>
    <g id="ytick_18"/>
    <g id="ytick_19"/>
    <g id="ytick_20"/>
    <g id="ytick_21"/>
    <g id="ytick_22"/>
    <g id="ytick_23"/>
    <g id="ytick_24"/>
    <g id="ytick_25"/>
    <g id="ytick_26"/>
    <g id="ytick_27"/>
    <g id="ytick_28"/>
    <g id="ytick_29"/>
    <g id="ytick_30"/>
    <g id="ytick_31"/>
    <g id="ytick_32"/>
    <g id="text_11">
     <text style="font: 6px 'DejaVu Sans', 'Arial', 'Helvetica', 'Lucida Grande', 'Verdana', 'Geneva', 'Lucid', 'Avant Garde', sans-serif; text-anchor: middle" x="81.652188" y="147.6" transform="rotate(-90 81.652188 147.6)">Intensity (AU)</text>
    </g>
   </g>
   <g id="line2d_10">
    <path d="M 117.818182 222.342568 
L 118.757721 215.836962 
L 119.69726 216.534822 
L 120.636799 222.928201 
L 121.576338 231.241437 
L 122.515876 216.20532 
L 123.455415 219.889463 
L 124.394954 214.549263 
L 125.334493 220.45454 
L 126.274032 216.377556 
L 128.15311 222.18768 
L 129.092649 212.999344 
L 130.032188 214.903821 
L 130.971727 217.339476 
L 131.911266 215.045574 
L 132.850805 224.657236 
L 133.790344 218.016559 
L 134.729883 218.594948 
L 135.669421 217.601763 
L 136.60896 223.485073 
L 137.548499 226.168445 
L 139.427577 214.896987 
L 140.367116 213.774874 
L 141.306655 214.40599 
L 142.246194 214.451828 
L 143.185733 215.833634 
L 144.125272 211.942542 
L 145.064811 210.359822 
L 146.00435 213.314388 
L 146.943889 222.282445 
L 147.883428 212.354895 
L 148.822967 208.695347 
L 149.762505 220.453508 
L 150.702044 215.075434 
L 151.641583 213.226342 
L 152.581122 216.227182 
L 153.520661 212.035329 
L 154.4602 208.678376 
L 155.399739 209.389829 
L 156.339278 213.676256 
L 157.278817 211.744219 
L 158.218356 211.693833 
L 159.157895 208.685692 
L 160.097434 209.751345 
L 161.036973 206.201032 
L 161.976512 209.472166 
L 162.91605 214.853922 
L 163.855589 214.813073 
L 165.734667 206.343654 
L 166.674206 211.543316 
L 167.613745 207.320162 
L 168.553284 211.494805 
L 169.492823 214.780735 
L 170.432362 205.672211 
L 171.371901 210.626712 
L 172.31144 208.101635 
L 173.250979 204.142414 
L 174.190518 205.773156 
L 175.130057 198.318617 
L 176.069595 203.054864 
L 177.009134 202.840848 
L 177.948673 199.222605 
L 178.888212 196.344779 
L 179.827751 196.876805 
L 180.76729 197.954247 
L 181.706829 203.155289 
L 182.646368 197.224554 
L 183.585907 195.31161 
L 184.525446 192.774459 
L 185.464985 188.97948 
L 186.404524 191.757147 
L 187.344063 191.22246 
L 188.283602 193.829671 
L 189.22314 190.859261 
L 190.162679 190.618286 
L 191.102218 188.221993 
L 192.041757 193.507356 
L 192.981296 186.289086 
L 193.920835 182.718899 
L 194.860374 183.069289 
L 195.799913 183.827092 
L 197.678991 181.042452 
L 198.61853 175.7188 
L 199.558069 175.925265 
L 200.497608 175.09744 
L 201.437147 177.783927 
L 202.376686 175.691634 
L 203.316224 174.259284 
L 204.255763 168.928308 
L 205.195302 162.543664 
L 206.134841 161.522998 
L 207.07438 153.432922 
L 208.953458 128.568896 
L 209.892997 121.135152 
L 210.832536 118.404981 
L 211.772075 112.38284 
L 212.711614 95.671999 
L 213.651153 75.798937 
L 214.590692 61.290917 
L 215.530231 53.818581 
L 216.469769 52.690909 
L 217.409308 57.884488 
L 218.348847 69.997178 
L 220.227925 108.203734 
L 221.167464 119.113229 
L 222.107003 122.783361 
L 223.046542 128.774245 
L 223.986081 140.331751 
L 224.92562 153.359632 
L 225.865159 155.806002 
L 226.804698 154.907872 
L 227.744237 159.596677 
L 228.683776 167.580627 
L 229.623314 177.48926 
L 230.562853 184.305021 
L 231.502392 186.691027 
L 232.441931 186.275766 
L 233.38147 189.626447 
L 234.321009 187.806031 
L 235.260548 190.844173 
L 236.200087 188.962986 
L 237.139626 189.804772 
L 238.079165 188.029668 
L 239.018704 189.754221 
L 239.958243 192.626579 
L 240.897782 195.988332 
L 241.837321 197.202199 
L 242.77686 197.607774 
L 243.716398 199.561182 
L 244.655937 200.185086 
L 245.595476 200.122202 
L 246.535015 193.3645 
L 247.474554 194.274863 
L 248.414093 191.613964 
L 249.353632 195.299646 
L 250.293171 203.179725 
L 251.23271 204.456459 
L 253.111788 201.429075 
L 254.051327 205.148925 
L 254.990866 207.624535 
L 255.930405 205.302242 
L 256.869943 201.887285 
L 257.809482 212.378758 
L 258.749021 207.458578 
L 259.68856 204.180967 
L 260.628099 211.388198 
L 261.567638 209.110034 
L 262.507177 207.598625 
L 263.446716 216.055179 
L 264.386255 201.962741 
L 265.325794 215.677313 
L 266.265333 206.985785 
L 267.204872 207.82042 
L 268.144411 208.912485 
L 269.08395 211.864925 
L 270.023488 213.682484 
L 270.963027 211.323935 
L 271.902566 210.550472 
L 272.842105 211.931553 
L 273.781644 216.7314 
L 274.721183 213.826577 
L 275.660722 221.51298 
L 276.600261 215.788489 
L 277.5398 216.758422 
L 278.479339 215.575005 
L 279.418878 219.050293 
L 280.358417 218.604227 
L 281.297956 216.941149 
L 282.237495 208.417075 
L 283.177033 212.259039 
L 284.116572 219.758281 
L 285.056111 220.911242 
L 285.99565 215.587794 
L 286.935189 221.307643 
L 287.874728 220.944578 
L 288.814267 217.130657 
L 289.753806 218.493299 
L 290.693345 212.897573 
L 291.632884 208.925444 
L 293.511962 218.092139 
L 294.451501 228.061263 
L 295.39104 216.910299 
L 296.330579 217.820239 
L 297.270117 219.696029 
L 298.209656 216.591514 
L 299.149195 219.243728 
L 300.088734 214.810946 
L 301.028273 213.883342 
L 301.967812 211.430389 
L 302.907351 224.309539 
L 303.84689 222.222204 
L 304.786429 222.376405 
L 305.725968 216.584311 
L 306.665507 221.812901 
L 307.605046 223.915714 
L 308.544585 218.979359 
L 309.484124 220.4703 
L 310.423662 216.395906 
L 311.363201 222.316617 
L 312.30274 242.509091 
L 313.242279 240.040091 
L 314.181818 216.55466 
L 314.181818 216.55466 
" clip-path="url(#p1e7f4bc74a)" style="fill: none; stroke-dasharray: 3.7,1.6; stroke-dashoffset: 0; stroke: #1f77b4"/>
   </g>
   <g id="line2d_11">
    <path d="M 117.818182 208.247296 
L 206.134841 208.207376 
L 207.07438 207.889465 
L 208.013919 205.749962 
L 208.953458 196.129548 
L 209.892997 173.218016 
L 211.772075 115.101936 
L 212.711614 91.409736 
L 213.651153 73.16913 
L 214.590692 60.600374 
L 215.530231 53.767817 
L 216.469769 52.690909 
L 217.409308 57.372028 
L 218.348847 67.799555 
L 219.288386 83.932104 
L 220.227925 105.632218 
L 223.046542 189.045777 
L 223.986081 203.496052 
L 224.92562 207.482647 
L 225.865159 208.154202 
L 227.744237 208.246591 
L 314.181818 208.247296 
L 314.181818 208.247296 
" clip-path="url(#p1e7f4bc74a)" style="fill: none; stroke: #ff7f0e; stroke-linecap: square"/>
   </g>
   <g id="patch_3">
    <path d="M 108 252 
L 108 43.2 
" style="fill: none; stroke: #000000; stroke-width: 0.5; stroke-linejoin: miter; stroke-linecap: square"/>
   </g>
   <g id="patch_4">
    <path d="M 108 252 
L 324 252 
" style="fill: none; stroke: #000000; stroke-width: 0.5; stroke-linejoin: miter; stroke-linecap: square"/>
   </g>
   <g id="legend_1">
    <g id="patch_5">
     <path d="M 277.12125 65.61375 
L 319.8 65.61375 
Q 321 65.61375 321 64.41375 
L 321 47.4 
Q 321 46.2 319.8 46.2 
L 277.12125 46.2 
Q 275.92125 46.2 275.92125 47.4 
L 275.92125 64.41375 
Q 275.92125 65.61375 277.12125 65.61375 
z
" style="fill: #ffffff; opacity: 0.8; stroke: #cccccc; stroke-linejoin: miter"/>
    </g>
    <g id="line2d_12">
     <path d="M 278.32125 51.059063 
L 284.32125 51.059063 
L 290.32125 51.059063 
" style="fill: none; stroke-dasharray: 3.7,1.6; stroke-dashoffset: 0; stroke: #1f77b4"/>
    </g>
    <g id="text_12">
     <text style="font: 6px 'DejaVu Sans', 'Arial', 'Helvetica', 'Lucida Grande', 'Verdana', 'Geneva', 'Lucid', 'Avant Garde', sans-serif; text-anchor: start" x="295.12125" y="53.159063" transform="rotate(-0 295.12125 53.159063)">Original</text>
    </g>
    <g id="line2d_13">
     <path d="M 278.32125 59.865937 
L 284.32125 59.865937 
L 290.32125 59.865937 
" style="fill: none; stroke: #ff7f0e; stroke-linecap: square"/>
    </g>
    <g id="text_13">
     <text style="font: 6px 'DejaVu Sans', 'Arial', 'Helvetica', 'Lucida Grande', 'Verdana', 'Geneva', 'Lucid', 'Avant Garde', sans-serif; text-anchor: start" x="295.12125" y="61.965937" transform="rotate(-0 295.12125 61.965937)">Fitted</text>
    </g>
   </g>
  </g>
  <g id="text_14">
   <text style="font: 6px 'DejaVu Sans', 'Arial', 'Helvetica', 'Lucida Grande', 'Verdana', 'Geneva', 'Lucid', 'Avant Garde', sans-serif; text-anchor: middle" x="180" y="11.759062" transform="rotate(-0 180 11.759062)">Gaussian Fit, MSE = 5.2e-10</text>
  </g>
 </g>
 <defs>
  <clipPath id="p1e7f4bc74a">
   <rect x="108" y="43.2" width="216" height="208.8"/>
  </clipPath>
 </defs>
</svg>
