<?xml version="1.0" encoding="utf-8" standalone="no"?>
<!DOCTYPE svg PUBLIC "-//W3C//DTD SVG 1.1//EN"
  "http://www.w3.org/Graphics/SVG/1.1/DTD/svg11.dtd">
<svg xmlns:xlink="http://www.w3.org/1999/xlink" width="144pt" height="144pt" viewBox="0 0 144 144" xmlns="http://www.w3.org/2000/svg" version="1.1">
 <metadata>
  <rdf:RDF xmlns:dc="http://purl.org/dc/elements/1.1/" xmlns:cc="http://creativecommons.org/ns#" xmlns:rdf="http://www.w3.org/1999/02/22-rdf-syntax-ns#">
   <cc:Work>
    <dc:type rdf:resource="http://purl.org/dc/dcmitype/StillImage"/>
    <dc:date>2023-12-20T00:16:23.559178</dc:date>
    <dc:format>image/svg+xml</dc:format>
    <dc:creator>
     <cc:Agent>
      <dc:title>Matplotlib v3.8.2, https://matplotlib.org/</dc:title>
     </cc:Agent>
    </dc:creator>
   </cc:Work>
  </rdf:RDF>
 </metadata>
 <defs>
  <style type="text/css">*{stroke-linejoin: round; stroke-linecap: butt}</style>
 </defs>
 <g id="figure_1">
  <g id="patch_1">
   <path d="M 0 144 
L 144 144 
L 144 0 
L 0 0 
L 0 144 
z
" style="fill: none"/>
  </g>
  <g id="axes_1">
   <g id="patch_2">
    <path d="M 43.2 100.8 
L 129.6 100.8 
L 129.6 17.28 
L 43.2 17.28 
L 43.2 100.8 
z
" style="fill: none"/>
   </g>
   <g id="matplotlib.axis_1">
    <g id="xtick_1">
     <g id="line2d_1">
      <defs>
       <path id="mf68425304e" d="M 0 0 
L 0 3.5 
" style="stroke: #000000; stroke-width: 0.8"/>
      </defs>
      <g>
       <use xlink:href="#mf68425304e" x="47.127273" y="100.8" style="stroke: #000000; stroke-width: 0.8"/>
      </g>
     </g>
     <g id="text_1">
      <text style="font: 6px 'DejaVu Sans', 'Arial', 'Helvetica', 'Lucida Grande', 'Verdana', 'Geneva', 'Lucid', 'Avant Garde', sans-serif; text-anchor: middle" x="47.127273" y="112.359063" transform="rotate(-0 47.127273 112.359063)">0</text>
     </g>
    </g>
    <g id="xtick_2">
     <g id="line2d_2">
      <g>
       <use xlink:href="#mf68425304e" x="84.70883" y="100.8" style="stroke: #000000; stroke-width: 0.8"/>
      </g>
     </g>
     <g id="text_2">
      <text style="font: 6px 'DejaVu Sans', 'Arial', 'Helvetica', 'Lucida Grande', 'Verdana', 'Geneva', 'Lucid', 'Avant Garde', sans-serif; text-anchor: middle" x="84.70883" y="112.359063" transform="rotate(-0 84.70883 112.359063)">100</text>
     </g>
    </g>
    <g id="xtick_3">
     <g id="line2d_3">
      <g>
       <use xlink:href="#mf68425304e" x="122.290387" y="100.8" style="stroke: #000000; stroke-width: 0.8"/>
      </g>
     </g>
     <g id="text_3">
      <text style="font: 6px 'DejaVu Sans', 'Arial', 'Helvetica', 'Lucida Grande', 'Verdana', 'Geneva', 'Lucid', 'Avant Garde', sans-serif; text-anchor: middle" x="122.290387" y="112.359063" transform="rotate(-0 122.290387 112.359063)">200</text>
     </g>
    </g>
    <g id="text_4">
     <text style="font: 6px 'DejaVu Sans', 'Arial', 'Helvetica', 'Lucida Grande', 'Verdana', 'Geneva', 'Lucid', 'Avant Garde', sans-serif; text-anchor: middle" x="86.4" y="122.165938" transform="rotate(-0 86.4 122.165938)">Distance (pixels)</text>
    </g>
   </g>
   <g id="matplotlib.axis_2">
    <g id="ytick_1">
     <g id="line2d_4">
      <defs>
       <path id="m65de9757bf" d="M 0 0 
L -3.5 0 
" style="stroke: #000000; stroke-width: 0.8"/>
      </defs>
      <g>
       <use xlink:href="#m65de9757bf" x="43.2" y="90.360342" style="stroke: #000000; stroke-width: 0.8"/>
      </g>
     </g>
     <g id="text_5">
      <!-- $\mathdefault{10^{-5}}$ -->
      <g transform="translate(22.1 92.639874)">
       <text>
        <tspan style="font: 6px 'DejaVu Sans'" x="0 3.817383" y="-0.640625">10</tspan>
        <tspan style="font: 4.2px 'DejaVu Sans'" x="7.692188 11.211328" y="-2.9375">−5</tspan>
       </text>
      </g>
     </g>
    </g>
    <g id="ytick_2">
     <g id="line2d_5">
      <g>
       <use xlink:href="#m65de9757bf" x="43.2" y="66.150284" style="stroke: #000000; stroke-width: 0.8"/>
      </g>
     </g>
     <g id="text_6">
      <!-- $\mathdefault{10^{-4}}$ -->
      <g transform="translate(22.1 68.429815)">
       <text>
        <tspan style="font: 6px 'DejaVu Sans'" x="0 3.817383" y="-0.640625">10</tspan>
        <tspan style="font: 4.2px 'DejaVu Sans'" x="7.692188 11.211328" y="-2.9375">−4</tspan>
       </text>
      </g>
     </g>
    </g>
    <g id="ytick_3">
     <g id="line2d_6">
      <g>
       <use xlink:href="#m65de9757bf" x="43.2" y="41.940226" style="stroke: #000000; stroke-width: 0.8"/>
      </g>
     </g>
     <g id="text_7">
      <!-- $\mathdefault{10^{-3}}$ -->
      <g transform="translate(22.1 44.219757)">
       <text>
        <tspan style="font: 6px 'DejaVu Sans'" x="0 3.817383" y="-0.5859375">10</tspan>
        <tspan style="font: 4.2px 'DejaVu Sans'" x="7.692188 11.211328" y="-2.8828125">−3</tspan>
       </text>
      </g>
     </g>
    </g>
    <g id="ytick_4">
     <g id="line2d_7">
      <g>
       <use xlink:href="#m65de9757bf" x="43.2" y="17.730167" style="stroke: #000000; stroke-width: 0.8"/>
      </g>
     </g>
     <g id="text_8">
      <!-- $\mathdefault{10^{-2}}$ -->
      <g transform="translate(22.1 20.009699)">
       <text>
        <tspan style="font: 6px 'DejaVu Sans'" x="0 3.817383" y="-0.5859375">10</tspan>
        <tspan style="font: 4.2px 'DejaVu Sans'" x="7.692188 11.211328" y="-2.8828125">−2</tspan>
       </text>
      </g>
     </g>
    </g>
    <g id="ytick_5"/>
    <g id="ytick_6"/>
    <g id="ytick_7"/>
    <g id="ytick_8"/>
    <g id="ytick_9"/>
    <g id="ytick_10"/>
    <g id="ytick_11"/>
    <g id="ytick_12"/>
    <g id="ytick_13"/>
    <g id="ytick_14"/>
    <g id="ytick_15"/>
    <g id="ytick_16"/>
    <g id="ytick_17"/>
    <g id="ytick_18"/>
    <g id="ytick_19"/>
    <g id="ytick_20"/>
    <g id="ytick_21"/>
    <g id="ytick_22"/>
    <g id="ytick_23"/>
    <g id="ytick_24"/>
    <g id="ytick_25"/>
    <g id="ytick_26"/>
    <g id="ytick_27"/>
    <g id="ytick_28"/>
    <g id="ytick_29"/>
    <g id="ytick_30"/>
    <g id="ytick_31"/>
    <g id="ytick_32"/>
    <g id="ytick_33"/>
    <g id="ytick_34"/>
    <g id="text_9">
     <text style="font: 6px 'DejaVu Sans', 'Arial', 'Helvetica', 'Lucida Grande', 'Verdana', 'Geneva', 'Lucid', 'Avant Garde', sans-serif; text-anchor: middle" x="16.852187" y="59.04" transform="rotate(-90 16.852187 59.04)">Intensity (AU)</text>
    </g>
   </g>
   <g id="line2d_8">
    <path d="M 47.127273 89.079742 
L 47.503088 86.523539 
L 47.878904 86.797745 
L 48.254719 89.309851 
L 48.630535 92.576314 
L 49.006351 86.668275 
L 49.382166 88.11586 
L 49.757982 86.017572 
L 50.133797 88.337892 
L 50.509613 86.735951 
L 51.261244 89.018883 
L 51.63706 85.408573 
L 52.388691 87.113912 
L 52.764506 86.212584 
L 53.140322 89.989229 
L 53.516137 87.379953 
L 53.891953 87.607216 
L 54.267769 87.21697 
L 54.643584 89.528659 
L 55.0194 90.583018 
L 55.771031 86.154201 
L 56.146846 85.713296 
L 56.522662 85.961277 
L 56.898478 85.979288 
L 57.274293 86.522231 
L 57.650109 84.993331 
L 58.025924 84.371444 
L 58.40174 85.532362 
L 58.777555 89.056119 
L 59.153371 85.155354 
L 59.529187 83.717433 
L 59.905002 88.337487 
L 60.280818 86.224317 
L 60.656633 85.497766 
L 61.032449 86.676865 
L 61.78408 83.710764 
L 62.159896 83.990312 
L 62.535711 85.674547 
L 62.911527 84.915405 
L 63.287342 84.895607 
L 63.663158 83.713639 
L 64.038973 84.132359 
L 64.414789 82.737359 
L 64.790605 84.022663 
L 65.16642 86.13728 
L 65.542236 86.121229 
L 66.293867 82.793398 
L 66.669682 84.836466 
L 67.045498 83.177091 
L 67.797129 86.108523 
L 68.172945 82.529573 
L 68.54876 84.476311 
L 68.924576 83.48415 
L 69.300391 81.92848 
L 69.676207 82.569237 
L 70.052023 79.640175 
L 70.427838 81.501157 
L 70.803654 81.417065 
L 71.555285 78.864609 
L 71.9311 79.073654 
L 72.306916 79.497006 
L 72.682732 81.540616 
L 73.058547 79.210293 
L 73.810178 77.461747 
L 74.185994 75.970612 
L 74.561809 77.062022 
L 74.937625 76.851931 
L 75.313441 77.876364 
L 75.689256 76.709222 
L 76.065072 76.614537 
L 76.440887 75.672978 
L 76.816703 77.749719 
L 77.192518 74.913494 
L 77.568334 73.510685 
L 77.94415 73.648361 
L 78.319965 73.94612 
L 79.071596 72.85197 
L 79.447412 70.760184 
L 79.823227 70.841308 
L 80.199043 70.516037 
L 80.574859 71.57162 
L 81.32649 70.186706 
L 82.078121 65.583368 
L 82.453936 65.182324 
L 82.829752 62.003546 
L 83.581383 52.233894 
L 83.957199 49.313004 
L 84.333014 48.240256 
L 84.70883 45.874018 
L 85.836277 25.798818 
L 86.212092 22.862763 
L 86.587908 22.419675 
L 86.963723 24.460353 
L 87.339539 29.21971 
L 88.09117 44.231951 
L 88.466986 48.518543 
L 88.842801 49.960624 
L 89.218617 52.314581 
L 89.970248 61.974748 
L 90.346064 62.935984 
L 90.721879 62.583088 
L 91.097695 64.425428 
L 92.225141 74.133909 
L 92.600957 75.071426 
L 92.976773 74.90826 
L 93.352588 76.22482 
L 93.728404 75.509537 
L 94.104219 76.703293 
L 94.480035 75.964131 
L 94.85585 76.294888 
L 95.231666 75.597409 
L 95.607482 76.275026 
L 96.359113 78.724552 
L 96.734928 79.201509 
L 97.110744 79.360869 
L 97.486559 80.128408 
L 97.862375 80.373554 
L 98.238191 80.348845 
L 98.614006 77.693588 
L 98.989822 78.05129 
L 99.365637 77.005762 
L 99.741453 78.453952 
L 100.117268 81.550217 
L 100.493084 82.051875 
L 101.244715 80.862346 
L 101.620531 82.323962 
L 101.996346 83.296686 
L 102.372162 82.384204 
L 102.747977 81.042388 
L 103.123793 85.16473 
L 103.499609 83.231478 
L 103.875424 81.943628 
L 104.25124 84.775516 
L 104.627055 83.880373 
L 105.002871 83.286506 
L 105.378686 86.609282 
L 105.754502 81.072036 
L 106.130318 86.46081 
L 106.506133 83.045706 
L 107.257764 83.802751 
L 107.63358 84.962834 
L 108.009395 85.676995 
L 108.385211 84.750266 
L 108.761027 84.446354 
L 109.136842 84.989013 
L 109.512658 86.874984 
L 109.888473 85.733612 
L 110.264289 88.753778 
L 110.640104 86.504492 
L 111.01592 86.885602 
L 111.391736 86.420611 
L 111.767551 87.786131 
L 112.143367 87.610862 
L 112.519182 86.9574 
L 112.894998 83.608094 
L 113.270813 85.11769 
L 113.646629 88.064316 
L 114.022445 88.517341 
L 114.39826 86.425635 
L 114.774076 88.673097 
L 115.149891 88.53044 
L 115.525707 87.031862 
L 115.901522 87.567275 
L 116.653154 83.807844 
L 117.404785 87.409651 
L 117.7806 91.32675 
L 118.156416 86.945278 
L 118.532231 87.302815 
L 118.908047 88.039855 
L 119.283863 86.82002 
L 119.659678 87.862136 
L 120.035494 86.120393 
L 120.411309 85.755917 
L 120.787125 84.792094 
L 121.16294 89.852611 
L 121.538756 89.032449 
L 121.914572 89.093037 
L 122.290387 86.81719 
L 122.666203 88.871624 
L 123.042018 89.697868 
L 123.417834 87.75826 
L 123.793649 88.344085 
L 124.169465 86.743161 
L 124.545281 89.069546 
L 124.921096 97.003636 
L 125.296912 96.033509 
L 125.672727 86.805539 
L 125.672727 86.805539 
" clip-path="url(#pccf803c5ea)" style="fill: none; stroke-dasharray: 3.7,1.6; stroke-dashoffset: 0; stroke: #1f77b4"/>
   </g>
   <g id="line2d_9">
    <path d="M 47.127273 89.67811 
L 52.388691 88.995427 
L 56.522662 88.241605 
L 59.905002 87.410875 
L 62.911527 86.439796 
L 65.542236 85.339173 
L 67.797129 84.141474 
L 69.676207 82.905715 
L 71.555285 81.387989 
L 73.058547 79.913952 
L 74.561809 78.145001 
L 76.065072 75.999492 
L 77.568334 73.361799 
L 78.695781 70.959727 
L 79.823227 68.077087 
L 80.950674 64.550111 
L 82.078121 60.112207 
L 82.829752 56.425852 
L 83.581383 51.886414 
L 84.333014 46.074701 
L 85.084645 38.23639 
L 86.212092 22.182962 
L 86.587908 21.076364 
L 86.963723 25.365904 
L 87.715355 36.520233 
L 88.466986 44.839328 
L 89.218617 50.94799 
L 89.970248 55.678914 
L 91.097695 61.153111 
L 92.225141 65.366568 
L 93.352588 68.738484 
L 94.480035 71.507389 
L 95.983297 74.511551 
L 97.486559 76.930628 
L 98.989822 78.910153 
L 100.493084 80.549821 
L 102.372162 82.228807 
L 104.25124 83.588682 
L 106.506133 84.900067 
L 108.761027 85.945602 
L 111.391736 86.913871 
L 114.39826 87.775094 
L 117.7806 88.517921 
L 121.914572 89.197758 
L 125.672727 89.66342 
L 125.672727 89.66342 
" clip-path="url(#pccf803c5ea)" style="fill: none; stroke: #ff7f0e; stroke-linecap: square"/>
   </g>
   <g id="patch_3">
    <path d="M 43.2 100.8 
L 43.2 17.28 
" style="fill: none; stroke: #000000; stroke-width: 0.5; stroke-linejoin: miter; stroke-linecap: square"/>
   </g>
   <g id="patch_4">
    <path d="M 43.2 100.8 
L 129.6 100.8 
" style="fill: none; stroke: #000000; stroke-width: 0.5; stroke-linejoin: miter; stroke-linecap: square"/>
   </g>
   <g id="legend_1">
    <g id="patch_5">
     <path d="M 82.72125 39.69375 
L 125.4 39.69375 
Q 126.6 39.69375 126.6 38.49375 
L 126.6 21.48 
Q 126.6 20.28 125.4 20.28 
L 82.72125 20.28 
Q 81.52125 20.28 81.52125 21.48 
L 81.52125 38.49375 
Q 81.52125 39.69375 82.72125 39.69375 
z
" style="fill: #ffffff; opacity: 0.8; stroke: #cccccc; stroke-linejoin: miter"/>
    </g>
    <g id="line2d_10">
     <path d="M 83.92125 25.139062 
L 89.92125 25.139062 
L 95.92125 25.139062 
" style="fill: none; stroke-dasharray: 3.7,1.6; stroke-dashoffset: 0; stroke: #1f77b4"/>
    </g>
    <g id="text_10">
     <text style="font: 6px 'DejaVu Sans', 'Arial', 'Helvetica', 'Lucida Grande', 'Verdana', 'Geneva', 'Lucid', 'Avant Garde', sans-serif; text-anchor: start" x="100.72125" y="27.239062" transform="rotate(-0 100.72125 27.239062)">Original</text>
    </g>
    <g id="line2d_11">
     <path d="M 83.92125 33.945937 
L 89.92125 33.945937 
L 95.92125 33.945937 
" style="fill: none; stroke: #ff7f0e; stroke-linecap: square"/>
    </g>
    <g id="text_11">
     <text style="font: 6px 'DejaVu Sans', 'Arial', 'Helvetica', 'Lucida Grande', 'Verdana', 'Geneva', 'Lucid', 'Avant Garde', sans-serif; text-anchor: start" x="100.72125" y="36.045937" transform="rotate(-0 100.72125 36.045937)">Fitted</text>
    </g>
   </g>
  </g>
  <g id="text_12">
   <text style="font: 6px 'DejaVu Sans', 'Arial', 'Helvetica', 'Lucida Grande', 'Verdana', 'Geneva', 'Lucid', 'Avant Garde', sans-serif; text-anchor: middle" x="72" y="7.439063" transform="rotate(-0 72 7.439063)">Lorentzian Fit, MSE = 4.9e-10</text>
  </g>
 </g>
 <defs>
  <clipPath id="pccf803c5ea">
   <rect x="43.2" y="17.28" width="86.4" height="83.52"/>
  </clipPath>
 </defs>
</svg>
