<?xml version="1.0" encoding="utf-8" standalone="no"?>
<!DOCTYPE svg PUBLIC "-//W3C//DTD SVG 1.1//EN"
  "http://www.w3.org/Graphics/SVG/1.1/DTD/svg11.dtd">
<svg xmlns:xlink="http://www.w3.org/1999/xlink" width="144pt" height="144pt" viewBox="0 0 144 144" xmlns="http://www.w3.org/2000/svg" version="1.1">
 <metadata>
  <rdf:RDF xmlns:dc="http://purl.org/dc/elements/1.1/" xmlns:cc="http://creativecommons.org/ns#" xmlns:rdf="http://www.w3.org/1999/02/22-rdf-syntax-ns#">
   <cc:Work>
    <dc:type rdf:resource="http://purl.org/dc/dcmitype/StillImage"/>
    <dc:date>2023-12-20T00:16:24.100770</dc:date>
    <dc:format>image/svg+xml</dc:format>
    <dc:creator>
     <cc:Agent>
      <dc:title>Matplotlib v3.8.2, https://matplotlib.org/</dc:title>
     </cc:Agent>
    </dc:creator>
   </cc:Work>
  </rdf:RDF>
 </metadata>
 <defs>
  <style type="text/css">*{stroke-linejoin: round; stroke-linecap: butt}</style>
 </defs>
 <g id="figure_1">
  <g id="patch_1">
   <path d="M 0 144 
L 144 144 
L 144 0 
L 0 0 
L 0 144 
z
" style="fill: none"/>
  </g>
  <g id="axes_1">
   <g id="patch_2">
    <path d="M 43.2 100.8 
L 129.6 100.8 
L 129.6 17.28 
L 43.2 17.28 
L 43.2 100.8 
z
" style="fill: none"/>
   </g>
   <g id="matplotlib.axis_1">
    <g id="xtick_1">
     <g id="line2d_1">
      <defs>
       <path id="md97e532fa6" d="M 0 0 
L 0 3.5 
" style="stroke: #000000; stroke-width: 0.8"/>
      </defs>
      <g>
       <use xlink:href="#md97e532fa6" x="47.127273" y="100.8" style="stroke: #000000; stroke-width: 0.8"/>
      </g>
     </g>
     <g id="text_1">
      <text style="font: 6px 'DejaVu Sans', 'Arial', 'Helvetica', 'Lucida Grande', 'Verdana', 'Geneva', 'Lucid', 'Avant Garde', sans-serif; text-anchor: middle" x="47.127273" y="112.359063" transform="rotate(-0 47.127273 112.359063)">0</text>
     </g>
    </g>
    <g id="xtick_2">
     <g id="line2d_2">
      <g>
       <use xlink:href="#md97e532fa6" x="84.70883" y="100.8" style="stroke: #000000; stroke-width: 0.8"/>
      </g>
     </g>
     <g id="text_2">
      <text style="font: 6px 'DejaVu Sans', 'Arial', 'Helvetica', 'Lucida Grande', 'Verdana', 'Geneva', 'Lucid', 'Avant Garde', sans-serif; text-anchor: middle" x="84.70883" y="112.359063" transform="rotate(-0 84.70883 112.359063)">100</text>
     </g>
    </g>
    <g id="xtick_3">
     <g id="line2d_3">
      <g>
       <use xlink:href="#md97e532fa6" x="122.290387" y="100.8" style="stroke: #000000; stroke-width: 0.8"/>
      </g>
     </g>
     <g id="text_3">
      <text style="font: 6px 'DejaVu Sans', 'Arial', 'Helvetica', 'Lucida Grande', 'Verdana', 'Geneva', 'Lucid', 'Avant Garde', sans-serif; text-anchor: middle" x="122.290387" y="112.359063" transform="rotate(-0 122.290387 112.359063)">200</text>
     </g>
    </g>
    <g id="text_4">
     <text style="font: 6px 'DejaVu Sans', 'Arial', 'Helvetica', 'Lucida Grande', 'Verdana', 'Geneva', 'Lucid', 'Avant Garde', sans-serif; text-anchor: middle" x="86.4" y="122.165938" transform="rotate(-0 86.4 122.165938)">Distance (pixels)</text>
    </g>
   </g>
   <g id="matplotlib.axis_2">
    <g id="ytick_1">
     <g id="line2d_4">
      <defs>
       <path id="m55f95ccf49" d="M 0 0 
L -3.5 0 
" style="stroke: #000000; stroke-width: 0.8"/>
      </defs>
      <g>
       <use xlink:href="#m55f95ccf49" x="43.2" y="90.262356" style="stroke: #000000; stroke-width: 0.8"/>
      </g>
     </g>
     <g id="text_5">
      <!-- $\mathdefault{10^{-5}}$ -->
      <g transform="translate(22.1 92.541888)">
       <text>
        <tspan style="font: 6px 'DejaVu Sans'" x="0 3.817383" y="-0.640625">10</tspan>
        <tspan style="font: 4.2px 'DejaVu Sans'" x="7.692188 11.211328" y="-2.9375">−5</tspan>
       </text>
      </g>
     </g>
    </g>
    <g id="ytick_2">
     <g id="line2d_5">
      <g>
       <use xlink:href="#m55f95ccf49" x="43.2" y="65.695209" style="stroke: #000000; stroke-width: 0.8"/>
      </g>
     </g>
     <g id="text_6">
      <!-- $\mathdefault{10^{-4}}$ -->
      <g transform="translate(22.1 67.97474)">
       <text>
        <tspan style="font: 6px 'DejaVu Sans'" x="0 3.817383" y="-0.640625">10</tspan>
        <tspan style="font: 4.2px 'DejaVu Sans'" x="7.692188 11.211328" y="-2.9375">−4</tspan>
       </text>
      </g>
     </g>
    </g>
    <g id="ytick_3">
     <g id="line2d_6">
      <g>
       <use xlink:href="#m55f95ccf49" x="43.2" y="41.128062" style="stroke: #000000; stroke-width: 0.8"/>
      </g>
     </g>
     <g id="text_7">
      <!-- $\mathdefault{10^{-3}}$ -->
      <g transform="translate(22.1 43.407593)">
       <text>
        <tspan style="font: 6px 'DejaVu Sans'" x="0 3.817383" y="-0.5859375">10</tspan>
        <tspan style="font: 4.2px 'DejaVu Sans'" x="7.692188 11.211328" y="-2.8828125">−3</tspan>
       </text>
      </g>
     </g>
    </g>
    <g id="ytick_4"/>
    <g id="ytick_5"/>
    <g id="ytick_6"/>
    <g id="ytick_7"/>
    <g id="ytick_8"/>
    <g id="ytick_9"/>
    <g id="ytick_10"/>
    <g id="ytick_11"/>
    <g id="ytick_12"/>
    <g id="ytick_13"/>
    <g id="ytick_14"/>
    <g id="ytick_15"/>
    <g id="ytick_16"/>
    <g id="ytick_17"/>
    <g id="ytick_18"/>
    <g id="ytick_19"/>
    <g id="ytick_20"/>
    <g id="ytick_21"/>
    <g id="ytick_22"/>
    <g id="ytick_23"/>
    <g id="ytick_24"/>
    <g id="ytick_25"/>
    <g id="ytick_26"/>
    <g id="ytick_27"/>
    <g id="ytick_28"/>
    <g id="ytick_29"/>
    <g id="ytick_30"/>
    <g id="ytick_31"/>
    <g id="ytick_32"/>
    <g id="ytick_33"/>
    <g id="text_8">
     <text style="font: 6px 'DejaVu Sans', 'Arial', 'Helvetica', 'Lucida Grande', 'Verdana', 'Geneva', 'Lucid', 'Avant Garde', sans-serif; text-anchor: middle" x="16.852187" y="59.04" transform="rotate(-90 16.852187 59.04)">Intensity (AU)</text>
    </g>
   </g>
   <g id="line2d_7">
    <path d="M 47.127273 88.962868 
L 47.503088 86.368961 
L 47.878904 86.647212 
L 48.254719 89.196371 
L 48.630535 92.511013 
L 49.006351 86.515833 
L 49.382166 87.984769 
L 49.757982 85.855532 
L 50.133797 88.210076 
L 50.509613 86.584507 
L 51.261244 88.901111 
L 51.63706 85.237551 
L 52.388691 86.968042 
L 52.764506 86.05342 
L 53.140322 89.885769 
L 53.516137 87.238007 
L 53.891953 87.468622 
L 54.267769 87.072621 
L 54.643584 89.418406 
L 55.0194 90.488316 
L 55.771031 85.994176 
L 56.146846 85.546768 
L 56.522662 85.798406 
L 56.898478 85.816683 
L 57.274293 86.367634 
L 57.650109 84.816183 
L 58.025924 84.185124 
L 58.40174 85.363165 
L 58.777555 88.938896 
L 59.153371 84.980597 
L 59.529187 83.521467 
L 59.905002 88.209665 
L 60.280818 86.065326 
L 60.656633 85.328059 
L 61.032449 86.524549 
L 61.78408 83.5147 
L 62.159896 83.79837 
L 62.535711 85.507448 
L 62.911527 84.737109 
L 63.287342 84.717019 
L 63.663158 83.517617 
L 64.038973 83.942513 
L 64.414789 82.526937 
L 64.790605 83.831199 
L 65.16642 85.977005 
L 65.542236 85.960718 
L 66.293867 82.583803 
L 66.669682 84.657005 
L 67.045498 82.973155 
L 67.797129 85.947824 
L 68.172945 82.316086 
L 68.54876 84.291538 
L 68.924576 83.284743 
L 69.300391 81.706127 
L 69.676207 82.356335 
L 70.052023 79.384071 
L 70.427838 81.272501 
L 70.803654 81.187169 
L 71.555285 78.597065 
L 71.9311 78.809194 
L 72.306916 79.23879 
L 72.682732 81.312543 
L 73.058547 78.947848 
L 73.810178 77.173512 
L 74.185994 75.660383 
L 74.561809 76.767891 
L 74.937625 76.554701 
L 75.313441 77.594245 
L 75.689256 76.409887 
L 76.065072 76.313805 
L 76.440887 75.358359 
L 76.816703 77.465732 
L 77.192518 74.587673 
L 77.568334 73.164173 
L 77.94415 73.30388 
L 78.319965 73.60603 
L 79.071596 72.495742 
L 79.447412 70.373103 
L 79.823227 70.455424 
L 80.199043 70.125355 
L 80.574859 71.196508 
L 81.32649 69.791167 
L 82.078121 65.119931 
L 82.453936 64.712972 
L 82.829752 61.487308 
L 83.581383 51.573558 
L 83.957199 48.609585 
L 84.333014 47.521015 
L 84.70883 45.119876 
L 85.836277 24.748574 
L 86.212092 21.769214 
L 86.587908 21.31959 
L 86.963723 23.390368 
L 87.339539 28.219923 
L 88.09117 43.453589 
L 88.466986 47.803407 
L 88.842801 49.266757 
L 89.218617 51.655434 
L 89.970248 61.458086 
L 90.346064 62.4335 
L 90.721879 62.075398 
L 91.097695 63.944912 
L 92.225141 73.796589 
L 92.600957 74.747934 
L 92.976773 74.582362 
L 93.352588 75.918341 
L 93.728404 75.192507 
L 94.104219 76.403871 
L 94.480035 75.653807 
L 94.85585 75.989442 
L 95.231666 75.281675 
L 95.607482 75.969287 
L 96.359113 78.454942 
L 96.734928 78.938934 
L 97.110744 79.100645 
L 97.486559 79.879505 
L 97.862375 80.128267 
L 98.238191 80.103194 
L 98.614006 77.408773 
L 98.989822 77.771751 
L 99.365637 76.710801 
L 99.741453 78.180351 
L 100.117268 81.322285 
L 100.493084 81.831343 
L 101.244715 80.624269 
L 101.620531 82.107442 
L 101.996346 83.094514 
L 102.372162 82.168573 
L 102.747977 80.806966 
L 103.123793 84.990111 
L 103.499609 83.028344 
L 103.875424 81.721499 
L 104.25124 84.595156 
L 104.627055 83.68681 
L 105.002871 83.084183 
L 105.378686 86.455969 
L 105.754502 80.837051 
L 106.130318 86.305307 
L 106.506133 82.839832 
L 107.257764 83.608043 
L 107.63358 84.785236 
L 108.009395 85.509931 
L 108.385211 84.569534 
L 108.761027 84.261139 
L 109.136842 84.811802 
L 109.512658 86.725591 
L 109.888473 85.567383 
L 110.264289 88.632096 
L 110.640104 86.349634 
L 111.01592 86.736365 
L 111.391736 86.264515 
L 111.767551 87.650177 
L 112.143367 87.472322 
L 112.519182 86.809222 
L 112.894998 83.410515 
L 113.270813 84.942377 
L 113.646629 87.932465 
L 114.022445 88.392171 
L 114.39826 86.269614 
L 114.774076 88.550224 
L 115.149891 88.405463 
L 115.525707 86.884782 
L 115.901522 87.428093 
L 116.653154 83.613211 
L 117.404785 87.268143 
L 117.7806 91.243018 
L 118.156416 86.796921 
L 118.532231 87.159732 
L 118.908047 87.907643 
L 119.283863 86.669815 
L 119.659678 87.727302 
L 120.035494 85.95987 
L 120.411309 85.590017 
L 120.787125 84.611979 
L 121.16294 89.747136 
L 121.538756 88.914877 
L 121.914572 88.976359 
L 122.290387 86.666944 
L 122.666203 88.75168 
L 123.042018 89.590111 
L 123.417834 87.621894 
L 123.793649 88.21636 
L 124.169465 86.591823 
L 124.545281 88.952521 
L 124.921096 97.003636 
L 125.296912 96.0192 
L 125.672727 86.655121 
L 125.672727 86.655121 
" clip-path="url(#p0ad462af4c)" style="fill: none; stroke-dasharray: 3.7,1.6; stroke-dashoffset: 0; stroke: #1f77b4"/>
   </g>
   <g id="line2d_8">
    <path d="M 47.127273 88.297725 
L 53.140322 87.716503 
L 57.650109 87.060865 
L 61.032449 86.368941 
L 64.038973 85.535012 
L 66.669682 84.558935 
L 68.924576 83.461666 
L 70.803654 82.293527 
L 72.306916 81.13822 
L 73.810178 79.727809 
L 75.313441 77.987193 
L 76.816703 75.811274 
L 77.94415 73.804124 
L 79.071596 71.374537 
L 80.199043 68.387422 
L 81.32649 64.633052 
L 82.453936 59.753666 
L 83.205568 55.556513 
L 83.957199 50.16896 
L 84.70883 42.78323 
L 85.460461 31.632381 
L 85.836277 24.991487 
L 86.212092 21.076364 
L 86.587908 21.345265 
L 86.963723 23.168776 
L 88.09117 41.272758 
L 88.842801 49.124752 
L 89.594432 54.767701 
L 90.346064 59.126538 
L 91.47351 64.162193 
L 92.600957 68.018505 
L 93.728404 71.077594 
L 94.85585 73.560664 
L 95.983297 75.608956 
L 97.486559 77.826596 
L 98.989822 79.598497 
L 100.493084 81.032869 
L 102.372162 82.466602 
L 104.25124 83.599242 
L 106.506133 84.665119 
L 109.136842 85.615117 
L 112.143367 86.428386 
L 115.525707 87.10452 
L 119.659678 87.701586 
L 124.921096 88.22808 
L 125.672727 88.288154 
L 125.672727 88.288154 
" clip-path="url(#p0ad462af4c)" style="fill: none; stroke: #ff7f0e; stroke-linecap: square"/>
   </g>
   <g id="patch_3">
    <path d="M 43.2 100.8 
L 43.2 17.28 
" style="fill: none; stroke: #000000; stroke-width: 0.5; stroke-linejoin: miter; stroke-linecap: square"/>
   </g>
   <g id="patch_4">
    <path d="M 43.2 100.8 
L 129.6 100.8 
" style="fill: none; stroke: #000000; stroke-width: 0.5; stroke-linejoin: miter; stroke-linecap: square"/>
   </g>
   <g id="legend_1">
    <g id="patch_5">
     <path d="M 82.72125 39.69375 
L 125.4 39.69375 
Q 126.6 39.69375 126.6 38.49375 
L 126.6 21.48 
Q 126.6 20.28 125.4 20.28 
L 82.72125 20.28 
Q 81.52125 20.28 81.52125 21.48 
L 81.52125 38.49375 
Q 81.52125 39.69375 82.72125 39.69375 
z
" style="fill: #ffffff; opacity: 0.8; stroke: #cccccc; stroke-linejoin: miter"/>
    </g>
    <g id="line2d_9">
     <path d="M 83.92125 25.139062 
L 89.92125 25.139062 
L 95.92125 25.139062 
" style="fill: none; stroke-dasharray: 3.7,1.6; stroke-dashoffset: 0; stroke: #1f77b4"/>
    </g>
    <g id="text_9">
     <text style="font: 6px 'DejaVu Sans', 'Arial', 'Helvetica', 'Lucida Grande', 'Verdana', 'Geneva', 'Lucid', 'Avant Garde', sans-serif; text-anchor: start" x="100.72125" y="27.239062" transform="rotate(-0 100.72125 27.239062)">Original</text>
    </g>
    <g id="line2d_10">
     <path d="M 83.92125 33.945937 
L 89.92125 33.945937 
L 95.92125 33.945937 
" style="fill: none; stroke: #ff7f0e; stroke-linecap: square"/>
    </g>
    <g id="text_10">
     <text style="font: 6px 'DejaVu Sans', 'Arial', 'Helvetica', 'Lucida Grande', 'Verdana', 'Geneva', 'Lucid', 'Avant Garde', sans-serif; text-anchor: start" x="100.72125" y="36.045937" transform="rotate(-0 100.72125 36.045937)">Fitted</text>
    </g>
   </g>
  </g>
  <g id="text_11">
   <text style="font: 6px 'DejaVu Sans', 'Arial', 'Helvetica', 'Lucida Grande', 'Verdana', 'Geneva', 'Lucid', 'Avant Garde', sans-serif; text-anchor: middle" x="72" y="7.439063" transform="rotate(-0 72 7.439063)">Lorentzian Fit * Diff of Gauss, MSE = 1.8e-10</text>
  </g>
 </g>
 <defs>
  <clipPath id="p0ad462af4c">
   <rect x="43.2" y="17.28" width="86.4" height="83.52"/>
  </clipPath>
 </defs>
</svg>
