<?xml version="1.0" encoding="utf-8" standalone="no"?>
<!DOCTYPE svg PUBLIC "-//W3C//DTD SVG 1.1//EN"
  "http://www.w3.org/Graphics/SVG/1.1/DTD/svg11.dtd">
<svg xmlns:xlink="http://www.w3.org/1999/xlink" width="360pt" height="360pt" viewBox="0 0 360 360" xmlns="http://www.w3.org/2000/svg" version="1.1">
 <metadata>
  <rdf:RDF xmlns:dc="http://purl.org/dc/elements/1.1/" xmlns:cc="http://creativecommons.org/ns#" xmlns:rdf="http://www.w3.org/1999/02/22-rdf-syntax-ns#">
   <cc:Work>
    <dc:type rdf:resource="http://purl.org/dc/dcmitype/StillImage"/>
    <dc:date>2024-04-16T19:03:51.354937</dc:date>
    <dc:format>image/svg+xml</dc:format>
    <dc:creator>
     <cc:Agent>
      <dc:title>Matplotlib v3.8.2, https://matplotlib.org/</dc:title>
     </cc:Agent>
    </dc:creator>
   </cc:Work>
  </rdf:RDF>
 </metadata>
 <defs>
  <style type="text/css">*{stroke-linejoin: round; stroke-linecap: butt}</style>
 </defs>
 <g id="figure_1">
  <g id="patch_1">
   <path d="M 0 360 
L 360 360 
L 360 0 
L 0 0 
L 0 360 
z
" style="fill: none"/>
  </g>
  <g id="axes_1">
   <g id="patch_2">
    <path d="M 108 252 
L 324 252 
L 324 43.2 
L 108 43.2 
L 108 252 
z
" style="fill: none"/>
   </g>
   <g id="matplotlib.axis_1">
    <g id="xtick_1">
     <g id="line2d_1">
      <defs>
       <path id="m0fdfcd516a" d="M 0 0 
L 0 3.5 
" style="stroke: #000000; stroke-width: 0.8"/>
      </defs>
      <g>
       <use xlink:href="#m0fdfcd516a" x="117.818182" y="252" style="stroke: #000000; stroke-width: 0.8"/>
      </g>
     </g>
     <g id="text_1">
      <text style="font: 6px 'DejaVu Sans', 'Arial', 'Helvetica', 'Lucida Grande', 'Verdana', 'Geneva', 'Lucid', 'Avant Garde', sans-serif; text-anchor: middle" x="117.818182" y="263.559063" transform="rotate(-0 117.818182 263.559063)">0</text>
     </g>
    </g>
    <g id="xtick_2">
     <g id="line2d_2">
      <g>
       <use xlink:href="#m0fdfcd516a" x="164.795128" y="252" style="stroke: #000000; stroke-width: 0.8"/>
      </g>
     </g>
     <g id="text_2">
      <text style="font: 6px 'DejaVu Sans', 'Arial', 'Helvetica', 'Lucida Grande', 'Verdana', 'Geneva', 'Lucid', 'Avant Garde', sans-serif; text-anchor: middle" x="164.795128" y="263.559063" transform="rotate(-0 164.795128 263.559063)">50</text>
     </g>
    </g>
    <g id="xtick_3">
     <g id="line2d_3">
      <g>
       <use xlink:href="#m0fdfcd516a" x="211.772075" y="252" style="stroke: #000000; stroke-width: 0.8"/>
      </g>
     </g>
     <g id="text_3">
      <text style="font: 6px 'DejaVu Sans', 'Arial', 'Helvetica', 'Lucida Grande', 'Verdana', 'Geneva', 'Lucid', 'Avant Garde', sans-serif; text-anchor: middle" x="211.772075" y="263.559063" transform="rotate(-0 211.772075 263.559063)">100</text>
     </g>
    </g>
    <g id="xtick_4">
     <g id="line2d_4">
      <g>
       <use xlink:href="#m0fdfcd516a" x="258.749021" y="252" style="stroke: #000000; stroke-width: 0.8"/>
      </g>
     </g>
     <g id="text_4">
      <text style="font: 6px 'DejaVu Sans', 'Arial', 'Helvetica', 'Lucida Grande', 'Verdana', 'Geneva', 'Lucid', 'Avant Garde', sans-serif; text-anchor: middle" x="258.749021" y="263.559063" transform="rotate(-0 258.749021 263.559063)">150</text>
     </g>
    </g>
    <g id="xtick_5">
     <g id="line2d_5">
      <g>
       <use xlink:href="#m0fdfcd516a" x="305.725968" y="252" style="stroke: #000000; stroke-width: 0.8"/>
      </g>
     </g>
     <g id="text_5">
      <text style="font: 6px 'DejaVu Sans', 'Arial', 'Helvetica', 'Lucida Grande', 'Verdana', 'Geneva', 'Lucid', 'Avant Garde', sans-serif; text-anchor: middle" x="305.725968" y="263.559063" transform="rotate(-0 305.725968 263.559063)">200</text>
     </g>
    </g>
    <g id="text_6">
     <text style="font: 6px 'DejaVu Sans', 'Arial', 'Helvetica', 'Lucida Grande', 'Verdana', 'Geneva', 'Lucid', 'Avant Garde', sans-serif; text-anchor: middle" x="216" y="273.365938" transform="rotate(-0 216 273.365938)">Distance (pixels)</text>
    </g>
   </g>
   <g id="matplotlib.axis_2">
    <g id="ytick_1">
     <g id="line2d_6">
      <defs>
       <path id="m0cdc8782ed" d="M 0 0 
L -3.5 0 
" style="stroke: #000000; stroke-width: 0.8"/>
      </defs>
      <g>
       <use xlink:href="#m0cdc8782ed" x="108" y="212.142998" style="stroke: #000000; stroke-width: 0.8"/>
      </g>
     </g>
     <g id="text_7">
      <!-- $\mathdefault{10^{-3}}$ -->
      <g transform="translate(86.9 214.422529)">
       <text>
        <tspan style="font: 6px 'DejaVu Sans'" x="0 3.817383" y="-0.5859375">10</tspan>
        <tspan style="font: 4.2px 'DejaVu Sans'" x="7.692188 11.211328" y="-2.8828125">−3</tspan>
       </text>
      </g>
     </g>
    </g>
    <g id="ytick_2">
     <g id="line2d_7">
      <g>
       <use xlink:href="#m0cdc8782ed" x="108" y="158.992302" style="stroke: #000000; stroke-width: 0.8"/>
      </g>
     </g>
     <g id="text_8">
      <!-- $\mathdefault{10^{-2}}$ -->
      <g transform="translate(86.9 161.271833)">
       <text>
        <tspan style="font: 6px 'DejaVu Sans'" x="0 3.817383" y="-0.5859375">10</tspan>
        <tspan style="font: 4.2px 'DejaVu Sans'" x="7.692188 11.211328" y="-2.8828125">−2</tspan>
       </text>
      </g>
     </g>
    </g>
    <g id="ytick_3">
     <g id="line2d_8">
      <g>
       <use xlink:href="#m0cdc8782ed" x="108" y="105.841605" style="stroke: #000000; stroke-width: 0.8"/>
      </g>
     </g>
     <g id="text_9">
      <!-- $\mathdefault{10^{-1}}$ -->
      <g transform="translate(86.9 108.121137)">
       <text>
        <tspan style="font: 6px 'DejaVu Sans'" x="0 3.817383" y="-0.640625">10</tspan>
        <tspan style="font: 4.2px 'DejaVu Sans'" x="7.692188 11.211328" y="-2.9375">−1</tspan>
       </text>
      </g>
     </g>
    </g>
    <g id="ytick_4">
     <g id="line2d_9">
      <g>
       <use xlink:href="#m0cdc8782ed" x="108" y="52.690909" style="stroke: #000000; stroke-width: 0.8"/>
      </g>
     </g>
     <g id="text_10">
      <!-- $\mathdefault{10^{0}}$ -->
      <g transform="translate(90.44 54.97044)">
       <text>
        <tspan style="font: 6px 'DejaVu Sans'" x="0 3.817383" y="-0.5859375">10</tspan>
        <tspan style="font: 4.2px 'DejaVu Sans'" x="7.692188" y="-2.8828125">0</tspan>
       </text>
      </g>
     </g>
    </g>
    <g id="ytick_5"/>
    <g id="ytick_6"/>
    <g id="ytick_7"/>
    <g id="ytick_8"/>
    <g id="ytick_9"/>
    <g id="ytick_10"/>
    <g id="ytick_11"/>
    <g id="ytick_12"/>
    <g id="ytick_13"/>
    <g id="ytick_14"/>
    <g id="ytick_15"/>
    <g id="ytick_16"/>
    <g id="ytick_17"/>
    <g id="ytick_18"/>
    <g id="ytick_19"/>
    <g id="ytick_20"/>
    <g id="ytick_21"/>
    <g id="ytick_22"/>
    <g id="ytick_23"/>
    <g id="ytick_24"/>
    <g id="ytick_25"/>
    <g id="ytick_26"/>
    <g id="ytick_27"/>
    <g id="ytick_28"/>
    <g id="ytick_29"/>
    <g id="ytick_30"/>
    <g id="ytick_31"/>
    <g id="ytick_32"/>
    <g id="ytick_33"/>
    <g id="ytick_34"/>
    <g id="ytick_35"/>
    <g id="ytick_36"/>
    <g id="text_11">
     <text style="font: 6px 'DejaVu Sans', 'Arial', 'Helvetica', 'Lucida Grande', 'Verdana', 'Geneva', 'Lucid', 'Avant Garde', sans-serif; text-anchor: middle" x="81.652188" y="147.6" transform="rotate(-90 81.652188 147.6)">Intensity (AU)</text>
    </g>
   </g>
   <g id="line2d_10">
    <path d="M 117.818182 199.03624 
L 118.757721 193.424358 
L 119.69726 194.026348 
L 120.636799 199.54142 
L 121.576338 206.712604 
L 122.515876 193.742112 
L 123.455415 196.920136 
L 124.394954 192.31356 
L 125.334493 197.407585 
L 126.274032 193.890687 
L 128.15311 198.90263 
L 129.092649 190.976565 
L 130.032188 192.61941 
L 130.971727 194.720461 
L 131.911266 192.741689 
L 132.850805 201.032924 
L 133.790344 195.304527 
L 134.729883 195.803459 
L 135.669421 194.946715 
L 136.60896 200.021791 
L 137.548499 202.336528 
L 139.427577 192.613515 
L 140.367116 191.645555 
L 141.306655 192.18997 
L 142.246194 192.229511 
L 143.185733 193.421487 
L 144.125272 190.064944 
L 145.064811 188.699655 
L 146.00435 191.248329 
L 146.943889 198.984377 
L 147.883428 190.420649 
L 148.822967 187.263841 
L 149.762505 197.406695 
L 150.702044 192.767447 
L 151.641583 191.172379 
L 152.581122 193.760971 
L 153.520661 190.144984 
L 154.4602 187.249201 
L 155.399739 187.862917 
L 156.339278 191.560485 
L 157.278817 189.893866 
L 158.218356 189.850402 
L 159.157895 187.255512 
L 160.097434 188.174768 
L 161.036973 185.112189 
L 161.976512 187.933942 
L 162.91605 192.576366 
L 163.855589 192.541128 
L 165.734667 185.235217 
L 166.674206 189.720563 
L 167.613745 186.077575 
L 168.553284 189.678716 
L 169.492823 192.513233 
L 170.432362 184.656016 
L 171.371901 188.92988 
L 172.31144 186.751692 
L 173.250979 183.336379 
L 174.190518 184.743093 
L 175.130057 178.31264 
L 176.069595 182.398234 
L 177.009134 182.213619 
L 177.948673 179.092441 
L 178.888212 176.609963 
L 179.827751 177.068901 
L 180.76729 177.998326 
L 181.706829 182.484863 
L 182.646368 177.368878 
L 183.585907 175.718729 
L 184.525446 173.530125 
L 185.464985 170.256491 
L 186.404524 172.652569 
L 187.344063 172.191336 
L 188.283602 174.440375 
L 189.22314 171.878033 
L 190.162679 171.670162 
L 191.102218 169.603065 
L 192.041757 174.162339 
L 192.981296 167.935697 
L 193.920835 164.855973 
L 194.860374 165.158227 
L 195.799913 165.811925 
L 197.678991 163.409832 
L 198.61853 158.817531 
L 199.558069 158.995632 
L 200.497608 158.281532 
L 201.437147 160.598956 
L 202.376686 158.794097 
L 203.316224 157.558519 
L 204.255763 152.9599 
L 205.195302 147.452363 
L 206.134841 146.571913 
L 207.07438 139.593232 
L 208.953458 118.144965 
L 209.892997 111.73245 
L 210.832536 109.377344 
L 211.772075 104.182509 
L 212.711614 89.767363 
L 213.651153 72.624413 
L 214.590692 60.109469 
L 215.530231 53.663664 
L 216.469769 52.690909 
L 217.409308 57.171007 
L 218.348847 67.619685 
L 220.227925 100.577519 
L 221.167464 109.988294 
L 222.107003 113.154232 
L 223.046542 118.322103 
L 223.986081 128.291867 
L 224.92562 139.53001 
L 225.865159 141.640304 
L 226.804698 140.865557 
L 227.744237 144.910225 
L 228.683776 151.79736 
L 229.623314 160.344769 
L 230.562853 166.224198 
L 231.502392 168.28242 
L 232.441931 167.924206 
L 233.38147 170.81458 
L 234.321009 169.244248 
L 235.260548 171.865017 
L 236.200087 170.242263 
L 237.139626 170.968407 
L 238.079165 169.437162 
L 239.018704 170.9248 
L 239.958243 173.40256 
L 240.897782 176.302484 
L 241.837321 177.349594 
L 242.77686 177.699451 
L 243.716398 179.384505 
L 244.655937 179.922699 
L 245.595476 179.868454 
L 246.535015 174.039108 
L 247.474554 174.824407 
L 248.414093 172.529056 
L 249.353632 175.708408 
L 250.293171 182.505941 
L 251.23271 183.60728 
L 253.111788 180.995791 
L 254.051327 184.204617 
L 254.990866 186.340134 
L 255.930405 184.336872 
L 256.869943 181.391054 
L 257.809482 190.441233 
L 258.749021 186.196976 
L 259.68856 183.369635 
L 260.628099 189.586755 
L 261.567638 187.621559 
L 262.507177 186.317784 
L 263.446716 193.612597 
L 264.386255 181.456144 
L 265.325794 193.286641 
L 266.265333 185.789134 
L 267.204872 186.509109 
L 268.144411 187.451149 
L 269.08395 189.99799 
L 270.023488 191.565857 
L 270.963027 189.53132 
L 271.902566 188.864113 
L 272.842105 190.055465 
L 273.781644 194.195921 
L 274.721183 191.690155 
L 275.660722 198.320619 
L 276.600261 193.382544 
L 277.5398 194.219231 
L 278.479339 193.198388 
L 279.418878 196.196249 
L 280.358417 195.811463 
L 281.297956 194.376855 
L 282.237495 187.023797 
L 283.177033 190.337962 
L 284.116572 196.806976 
L 285.056111 197.801546 
L 285.99565 193.209421 
L 286.935189 198.14349 
L 287.874728 197.830302 
L 288.814267 194.540328 
L 289.753806 195.715774 
L 290.693345 190.888776 
L 291.632884 187.462328 
L 293.511962 195.369725 
L 294.451501 203.969315 
L 295.39104 194.350243 
L 296.330579 195.135178 
L 297.270117 196.753276 
L 298.209656 194.075251 
L 299.149195 196.363111 
L 300.088734 192.539294 
L 301.028273 191.739122 
L 301.967812 189.623149 
L 302.907351 200.732993 
L 303.84689 198.932411 
L 304.786429 199.065429 
L 305.725968 194.069039 
L 306.665507 198.579338 
L 307.605046 200.393271 
L 308.544585 196.135061 
L 309.484124 197.421179 
L 310.423662 193.906516 
L 311.363201 199.013855 
L 312.30274 216.432336 
L 313.242279 214.302521 
L 314.181818 194.043461 
L 314.181818 194.043461 
" clip-path="url(#p95056b1d15)" style="fill: none; stroke-dasharray: 3.7,1.6; stroke-dashoffset: 0; stroke: #1f77b4"/>
   </g>
   <g id="line2d_11">
    <path d="M 117.818182 242.509091 
L 124.394954 239.313562 
L 130.971727 235.880298 
L 137.548499 232.171062 
L 143.185733 228.73582 
L 148.822967 225.024282 
L 153.520661 221.685768 
L 158.218356 218.086902 
L 162.91605 214.183621 
L 166.674206 210.804517 
L 170.432362 207.15845 
L 174.190518 203.1996 
L 177.948673 198.869235 
L 180.76729 195.332234 
L 183.585907 191.501683 
L 186.404524 187.324427 
L 189.22314 182.731433 
L 192.041757 177.630759 
L 194.860374 171.89615 
L 196.739452 167.635083 
L 198.61853 162.940801 
L 200.497608 157.715263 
L 202.376686 151.822916 
L 204.255763 145.068758 
L 206.134841 137.157657 
L 208.013919 127.61172 
L 208.953458 121.98433 
L 209.892997 115.580505 
L 210.832536 108.153828 
L 211.772075 99.321254 
L 212.711614 88.480401 
L 214.590692 60.993095 
L 215.530231 52.690909 
L 216.469769 53.19637 
L 217.409308 57.105606 
L 220.227925 95.976641 
L 221.167464 105.398125 
L 222.107003 113.240473 
L 223.046542 119.951793 
L 224.92562 131.021253 
L 226.804698 139.951278 
L 228.683776 147.434541 
L 230.562853 153.874323 
L 232.441931 159.525954 
L 234.321009 164.561286 
L 236.200087 169.101495 
L 239.018704 175.171186 
L 241.837321 180.535214 
L 244.655937 185.340633 
L 247.474554 189.692853 
L 250.293171 193.670013 
L 253.111788 197.331641 
L 256.869943 201.801751 
L 260.628099 205.877063 
L 264.386255 209.62168 
L 268.144411 213.085259 
L 272.842105 217.078557 
L 277.5398 220.753804 
L 282.237495 224.157943 
L 287.874728 227.936982 
L 293.511962 231.429967 
L 299.149195 234.677169 
L 305.725968 238.197709 
L 312.30274 241.468706 
L 314.181818 242.362236 
L 314.181818 242.362236 
" clip-path="url(#p95056b1d15)" style="fill: none; stroke: #ff7f0e; stroke-linecap: square"/>
   </g>
   <g id="patch_3">
    <path d="M 108 252 
L 108 43.2 
" style="fill: none; stroke: #000000; stroke-width: 0.5; stroke-linejoin: miter; stroke-linecap: square"/>
   </g>
   <g id="patch_4">
    <path d="M 108 252 
L 324 252 
" style="fill: none; stroke: #000000; stroke-width: 0.5; stroke-linejoin: miter; stroke-linecap: square"/>
   </g>
   <g id="legend_1">
    <g id="patch_5">
     <path d="M 277.12125 65.61375 
L 319.8 65.61375 
Q 321 65.61375 321 64.41375 
L 321 47.4 
Q 321 46.2 319.8 46.2 
L 277.12125 46.2 
Q 275.92125 46.2 275.92125 47.4 
L 275.92125 64.41375 
Q 275.92125 65.61375 277.12125 65.61375 
z
" style="fill: #ffffff; opacity: 0.8; stroke: #cccccc; stroke-linejoin: miter"/>
    </g>
    <g id="line2d_12">
     <path d="M 278.32125 51.059063 
L 284.32125 51.059063 
L 290.32125 51.059063 
" style="fill: none; stroke-dasharray: 3.7,1.6; stroke-dashoffset: 0; stroke: #1f77b4"/>
    </g>
    <g id="text_12">
     <text style="font: 6px 'DejaVu Sans', 'Arial', 'Helvetica', 'Lucida Grande', 'Verdana', 'Geneva', 'Lucid', 'Avant Garde', sans-serif; text-anchor: start" x="295.12125" y="53.159063" transform="rotate(-0 295.12125 53.159063)">Original</text>
    </g>
    <g id="line2d_13">
     <path d="M 278.32125 59.865937 
L 284.32125 59.865937 
L 290.32125 59.865937 
" style="fill: none; stroke: #ff7f0e; stroke-linecap: square"/>
    </g>
    <g id="text_13">
     <text style="font: 6px 'DejaVu Sans', 'Arial', 'Helvetica', 'Lucida Grande', 'Verdana', 'Geneva', 'Lucid', 'Avant Garde', sans-serif; text-anchor: start" x="295.12125" y="61.965937" transform="rotate(-0 295.12125 61.965937)">Fitted</text>
    </g>
   </g>
  </g>
  <g id="text_14">
   <text style="font: 6px 'DejaVu Sans', 'Arial', 'Helvetica', 'Lucida Grande', 'Verdana', 'Geneva', 'Lucid', 'Avant Garde', sans-serif; text-anchor: middle" x="180" y="11.759062" transform="rotate(-0 180 11.759062)">Lorentzian Fit * Diff of Gauss, MSE = 2.8e-10</text>
  </g>
 </g>
 <defs>
  <clipPath id="p95056b1d15">
   <rect x="108" y="43.2" width="216" height="208.8"/>
  </clipPath>
 </defs>
</svg>
