<?xml version="1.0" encoding="utf-8" standalone="no"?>
<!DOCTYPE svg PUBLIC "-//W3C//DTD SVG 1.1//EN"
  "http://www.w3.org/Graphics/SVG/1.1/DTD/svg11.dtd">
<svg xmlns:xlink="http://www.w3.org/1999/xlink" width="144pt" height="144pt" viewBox="0 0 144 144" xmlns="http://www.w3.org/2000/svg" version="1.1">
 <metadata>
  <rdf:RDF xmlns:dc="http://purl.org/dc/elements/1.1/" xmlns:cc="http://creativecommons.org/ns#" xmlns:rdf="http://www.w3.org/1999/02/22-rdf-syntax-ns#">
   <cc:Work>
    <dc:type rdf:resource="http://purl.org/dc/dcmitype/StillImage"/>
    <dc:date>2023-12-20T00:16:24.246639</dc:date>
    <dc:format>image/svg+xml</dc:format>
    <dc:creator>
     <cc:Agent>
      <dc:title>Matplotlib v3.8.2, https://matplotlib.org/</dc:title>
     </cc:Agent>
    </dc:creator>
   </cc:Work>
  </rdf:RDF>
 </metadata>
 <defs>
  <style type="text/css">*{stroke-linejoin: round; stroke-linecap: butt}</style>
 </defs>
 <g id="figure_1">
  <g id="patch_1">
   <path d="M 0 144 
L 144 144 
L 144 0 
L 0 0 
L 0 144 
z
" style="fill: none"/>
  </g>
  <g id="axes_1">
   <g id="patch_2">
    <path d="M 43.2 100.8 
L 129.6 100.8 
L 129.6 17.28 
L 43.2 17.28 
L 43.2 100.8 
z
" style="fill: none"/>
   </g>
   <g id="matplotlib.axis_1">
    <g id="xtick_1">
     <g id="line2d_1">
      <defs>
       <path id="mc24c53539b" d="M 0 0 
L 0 3.5 
" style="stroke: #000000; stroke-width: 0.8"/>
      </defs>
      <g>
       <use xlink:href="#mc24c53539b" x="47.127273" y="100.8" style="stroke: #000000; stroke-width: 0.8"/>
      </g>
     </g>
     <g id="text_1">
      <text style="font: 6px 'DejaVu Sans', 'Arial', 'Helvetica', 'Lucida Grande', 'Verdana', 'Geneva', 'Lucid', 'Avant Garde', sans-serif; text-anchor: middle" x="47.127273" y="112.359063" transform="rotate(-0 47.127273 112.359063)">0</text>
     </g>
    </g>
    <g id="xtick_2">
     <g id="line2d_2">
      <g>
       <use xlink:href="#mc24c53539b" x="84.70883" y="100.8" style="stroke: #000000; stroke-width: 0.8"/>
      </g>
     </g>
     <g id="text_2">
      <text style="font: 6px 'DejaVu Sans', 'Arial', 'Helvetica', 'Lucida Grande', 'Verdana', 'Geneva', 'Lucid', 'Avant Garde', sans-serif; text-anchor: middle" x="84.70883" y="112.359063" transform="rotate(-0 84.70883 112.359063)">100</text>
     </g>
    </g>
    <g id="xtick_3">
     <g id="line2d_3">
      <g>
       <use xlink:href="#mc24c53539b" x="122.290387" y="100.8" style="stroke: #000000; stroke-width: 0.8"/>
      </g>
     </g>
     <g id="text_3">
      <text style="font: 6px 'DejaVu Sans', 'Arial', 'Helvetica', 'Lucida Grande', 'Verdana', 'Geneva', 'Lucid', 'Avant Garde', sans-serif; text-anchor: middle" x="122.290387" y="112.359063" transform="rotate(-0 122.290387 112.359063)">200</text>
     </g>
    </g>
    <g id="text_4">
     <text style="font: 6px 'DejaVu Sans', 'Arial', 'Helvetica', 'Lucida Grande', 'Verdana', 'Geneva', 'Lucid', 'Avant Garde', sans-serif; text-anchor: middle" x="86.4" y="122.165938" transform="rotate(-0 86.4 122.165938)">Distance (pixels)</text>
    </g>
   </g>
   <g id="matplotlib.axis_2">
    <g id="ytick_1">
     <g id="line2d_4">
      <defs>
       <path id="m74c8b387e0" d="M 0 0 
L -3.5 0 
" style="stroke: #000000; stroke-width: 0.8"/>
      </defs>
      <g>
       <use xlink:href="#m74c8b387e0" x="43.2" y="90.303222" style="stroke: #000000; stroke-width: 0.8"/>
      </g>
     </g>
     <g id="text_5">
      <!-- $\mathdefault{10^{-5}}$ -->
      <g transform="translate(22.1 92.582753)">
       <text>
        <tspan style="font: 6px 'DejaVu Sans'" x="0 3.817383" y="-0.640625">10</tspan>
        <tspan style="font: 4.2px 'DejaVu Sans'" x="7.692188 11.211328" y="-2.9375">−5</tspan>
       </text>
      </g>
     </g>
    </g>
    <g id="ytick_2">
     <g id="line2d_5">
      <g>
       <use xlink:href="#m74c8b387e0" x="43.2" y="65.885" style="stroke: #000000; stroke-width: 0.8"/>
      </g>
     </g>
     <g id="text_6">
      <!-- $\mathdefault{10^{-4}}$ -->
      <g transform="translate(22.1 68.164532)">
       <text>
        <tspan style="font: 6px 'DejaVu Sans'" x="0 3.817383" y="-0.640625">10</tspan>
        <tspan style="font: 4.2px 'DejaVu Sans'" x="7.692188 11.211328" y="-2.9375">−4</tspan>
       </text>
      </g>
     </g>
    </g>
    <g id="ytick_3">
     <g id="line2d_6">
      <g>
       <use xlink:href="#m74c8b387e0" x="43.2" y="41.466779" style="stroke: #000000; stroke-width: 0.8"/>
      </g>
     </g>
     <g id="text_7">
      <!-- $\mathdefault{10^{-3}}$ -->
      <g transform="translate(22.1 43.74631)">
       <text>
        <tspan style="font: 6px 'DejaVu Sans'" x="0 3.817383" y="-0.5859375">10</tspan>
        <tspan style="font: 4.2px 'DejaVu Sans'" x="7.692188 11.211328" y="-2.8828125">−3</tspan>
       </text>
      </g>
     </g>
    </g>
    <g id="ytick_4"/>
    <g id="ytick_5"/>
    <g id="ytick_6"/>
    <g id="ytick_7"/>
    <g id="ytick_8"/>
    <g id="ytick_9"/>
    <g id="ytick_10"/>
    <g id="ytick_11"/>
    <g id="ytick_12"/>
    <g id="ytick_13"/>
    <g id="ytick_14"/>
    <g id="ytick_15"/>
    <g id="ytick_16"/>
    <g id="ytick_17"/>
    <g id="ytick_18"/>
    <g id="ytick_19"/>
    <g id="ytick_20"/>
    <g id="ytick_21"/>
    <g id="ytick_22"/>
    <g id="ytick_23"/>
    <g id="ytick_24"/>
    <g id="ytick_25"/>
    <g id="ytick_26"/>
    <g id="ytick_27"/>
    <g id="ytick_28"/>
    <g id="ytick_29"/>
    <g id="ytick_30"/>
    <g id="ytick_31"/>
    <g id="ytick_32"/>
    <g id="ytick_33"/>
    <g id="text_8">
     <text style="font: 6px 'DejaVu Sans', 'Arial', 'Helvetica', 'Lucida Grande', 'Verdana', 'Geneva', 'Lucid', 'Avant Garde', sans-serif; text-anchor: middle" x="16.852187" y="59.04" transform="rotate(-90 16.852187 59.04)">Intensity (AU)</text>
    </g>
   </g>
   <g id="line2d_7">
    <path d="M 47.127273 89.011611 
L 47.503088 86.433429 
L 47.878904 86.709993 
L 48.254719 89.243699 
L 48.630535 92.538247 
L 49.006351 86.57941 
L 49.382166 88.039441 
L 49.757982 85.923111 
L 50.133797 88.263382 
L 50.509613 86.647668 
L 51.261244 88.950228 
L 51.63706 85.308877 
L 52.388691 87.028878 
L 52.764506 86.1198 
L 53.140322 89.928918 
L 53.516137 87.297206 
L 53.891953 87.526423 
L 54.267769 87.132822 
L 54.643584 89.464388 
L 55.0194 90.527812 
L 55.771031 86.060916 
L 56.146846 85.61622 
L 56.522662 85.866332 
L 56.898478 85.884499 
L 57.274293 86.43211 
L 57.650109 84.890064 
L 58.025924 84.262829 
L 58.40174 85.433729 
L 58.777555 88.987784 
L 59.153371 85.05348 
L 59.529187 83.603196 
L 59.905002 88.262973 
L 60.280818 86.131634 
L 60.656633 85.398836 
L 61.032449 86.588073 
L 61.78408 83.59647 
L 62.159896 83.87842 
L 62.535711 85.577137 
L 62.911527 84.811468 
L 63.287342 84.7915 
L 63.663158 83.599369 
L 64.038973 84.021689 
L 64.414789 82.614695 
L 64.790605 83.91105 
L 65.16642 86.043848 
L 65.542236 86.02766 
L 66.293867 82.671216 
L 66.669682 84.731851 
L 67.045498 83.058208 
L 67.797129 86.014845 
L 68.172945 82.405122 
L 68.54876 84.368598 
L 68.924576 83.367907 
L 69.300391 81.798861 
L 69.676207 82.445127 
L 70.052023 79.490881 
L 70.427838 81.367863 
L 70.803654 81.283048 
L 71.555285 78.708646 
L 71.9311 78.919488 
L 72.306916 79.346481 
L 72.682732 81.407662 
L 73.058547 79.057302 
L 73.810178 77.293722 
L 74.185994 75.789765 
L 74.561809 76.890559 
L 74.937625 76.678662 
L 75.313441 77.711904 
L 75.689256 76.534726 
L 76.065072 76.439227 
L 76.440887 75.489572 
L 76.816703 77.58417 
L 77.192518 74.723558 
L 77.568334 73.308687 
L 77.94415 73.447548 
L 78.319965 73.747866 
L 79.071596 72.644309 
L 79.447412 70.534537 
L 79.823227 70.616359 
L 80.199043 70.288291 
L 80.574859 71.35295 
L 81.32649 69.956129 
L 82.078121 65.31321 
L 82.453936 64.908717 
L 82.829752 61.702608 
L 83.581383 51.848954 
L 83.957199 48.902949 
L 84.333014 47.820978 
L 84.70883 45.434395 
L 85.836277 25.186584 
L 86.212092 22.225284 
L 86.587908 21.778386 
L 86.963723 23.83661 
L 87.339539 28.636889 
L 88.09117 43.778208 
L 88.466986 48.101658 
L 88.842801 49.556138 
L 89.218617 51.930335 
L 89.970248 61.673562 
L 90.346064 62.643063 
L 90.721879 62.287133 
L 91.097695 64.145314 
L 92.225141 73.93727 
L 92.600957 74.882848 
L 92.976773 74.718279 
L 93.352588 76.04616 
L 93.728404 75.324726 
L 94.104219 76.528746 
L 94.480035 75.783229 
L 94.85585 76.11683 
L 95.231666 75.413353 
L 95.607482 76.096797 
L 96.359113 78.567384 
L 96.734928 79.048442 
L 97.110744 79.209173 
L 97.486559 79.983311 
L 97.862375 80.230565 
L 98.238191 80.205644 
L 98.614006 77.527556 
L 98.989822 77.888334 
L 99.365637 76.833816 
L 99.741453 78.294458 
L 100.117268 81.417345 
L 100.493084 81.923317 
L 101.244715 80.72356 
L 101.620531 82.197743 
L 101.996346 83.17883 
L 102.372162 82.258503 
L 102.747977 80.90515 
L 103.123793 85.062937 
L 103.499609 83.113062 
L 103.875424 81.814139 
L 104.25124 84.670376 
L 104.627055 83.767536 
L 105.002871 83.168563 
L 105.378686 86.519909 
L 105.754502 80.935053 
L 106.130318 86.37016 
L 106.506133 82.925693 
L 107.257764 83.689247 
L 107.63358 84.859304 
L 108.009395 85.579606 
L 108.385211 84.644909 
L 108.761027 84.338384 
L 109.136842 84.885709 
L 109.512658 86.787896 
L 109.888473 85.63671 
L 110.264289 88.682844 
L 110.640104 86.414218 
L 111.01592 86.798605 
L 111.391736 86.329615 
L 111.767551 87.706877 
L 112.143367 87.5301 
L 112.519182 86.87102 
L 112.894998 83.492916 
L 113.270813 85.015492 
L 113.646629 87.987454 
L 114.022445 88.444374 
L 114.39826 86.334683 
L 114.774076 88.601469 
L 115.149891 88.457585 
L 115.525707 86.946122 
L 115.901522 87.486139 
L 116.653154 83.694384 
L 117.404785 87.32716 
L 117.7806 91.277939 
L 118.156416 86.858794 
L 118.532231 87.219405 
L 118.908047 87.962783 
L 119.283863 86.732459 
L 119.659678 87.783535 
L 120.035494 86.026817 
L 120.411309 85.659207 
L 120.787125 84.687097 
L 121.16294 89.791125 
L 121.538756 88.963911 
L 121.914572 89.02502 
L 122.290387 86.729605 
L 122.666203 88.801703 
L 123.042018 89.635051 
L 123.417834 87.678766 
L 123.793649 88.269628 
L 124.169465 86.65494 
L 124.545281 89.001327 
L 124.921096 97.003636 
L 125.296912 96.025168 
L 125.672727 86.717853 
L 125.672727 86.717853 
" clip-path="url(#pc91c9206c2)" style="fill: none; stroke-dasharray: 3.7,1.6; stroke-dashoffset: 0; stroke: #1f77b4"/>
   </g>
   <g id="line2d_8">
    <path d="M 47.127273 85.235685 
L 63.287342 85.080836 
L 68.54876 84.833828 
L 71.555285 84.484339 
L 73.434363 84.069912 
L 74.937625 83.521217 
L 76.065072 82.892386 
L 77.192518 81.962997 
L 77.94415 81.096175 
L 78.695781 79.950036 
L 79.447412 78.428849 
L 80.199043 76.409389 
L 80.950674 73.738778 
L 81.702305 70.234316 
L 82.453936 65.681974 
L 83.205568 59.825739 
L 83.957199 52.343858 
L 84.70883 42.863909 
L 86.212092 21.793622 
L 86.587908 21.076364 
L 86.963723 24.065875 
L 89.218617 54.911399 
L 89.970248 61.838918 
L 90.721879 67.251175 
L 91.47351 71.44641 
L 92.225141 74.665281 
L 92.976773 77.111371 
L 93.728404 78.957956 
L 94.480035 80.348435 
L 95.231666 81.396986 
L 96.359113 82.51465 
L 97.486559 83.264062 
L 98.989822 83.910628 
L 100.8689 84.392065 
L 103.123793 84.717862 
L 106.506133 84.966148 
L 112.519182 85.140602 
L 125.296912 85.234229 
L 125.672727 85.235303 
L 125.672727 85.235303 
" clip-path="url(#pc91c9206c2)" style="fill: none; stroke: #ff7f0e; stroke-linecap: square"/>
   </g>
   <g id="patch_3">
    <path d="M 43.2 100.8 
L 43.2 17.28 
" style="fill: none; stroke: #000000; stroke-width: 0.5; stroke-linejoin: miter; stroke-linecap: square"/>
   </g>
   <g id="patch_4">
    <path d="M 43.2 100.8 
L 129.6 100.8 
" style="fill: none; stroke: #000000; stroke-width: 0.5; stroke-linejoin: miter; stroke-linecap: square"/>
   </g>
   <g id="legend_1">
    <g id="patch_5">
     <path d="M 82.72125 39.69375 
L 125.4 39.69375 
Q 126.6 39.69375 126.6 38.49375 
L 126.6 21.48 
Q 126.6 20.28 125.4 20.28 
L 82.72125 20.28 
Q 81.52125 20.28 81.52125 21.48 
L 81.52125 38.49375 
Q 81.52125 39.69375 82.72125 39.69375 
z
" style="fill: #ffffff; opacity: 0.8; stroke: #cccccc; stroke-linejoin: miter"/>
    </g>
    <g id="line2d_9">
     <path d="M 83.92125 25.139062 
L 89.92125 25.139062 
L 95.92125 25.139062 
" style="fill: none; stroke-dasharray: 3.7,1.6; stroke-dashoffset: 0; stroke: #1f77b4"/>
    </g>
    <g id="text_9">
     <text style="font: 6px 'DejaVu Sans', 'Arial', 'Helvetica', 'Lucida Grande', 'Verdana', 'Geneva', 'Lucid', 'Avant Garde', sans-serif; text-anchor: start" x="100.72125" y="27.239062" transform="rotate(-0 100.72125 27.239062)">Original</text>
    </g>
    <g id="line2d_10">
     <path d="M 83.92125 33.945937 
L 89.92125 33.945937 
L 95.92125 33.945937 
" style="fill: none; stroke: #ff7f0e; stroke-linecap: square"/>
    </g>
    <g id="text_10">
     <text style="font: 6px 'DejaVu Sans', 'Arial', 'Helvetica', 'Lucida Grande', 'Verdana', 'Geneva', 'Lucid', 'Avant Garde', sans-serif; text-anchor: start" x="100.72125" y="36.045937" transform="rotate(-0 100.72125 36.045937)">Fitted</text>
    </g>
   </g>
  </g>
  <g id="text_11">
   <text style="font: 6px 'DejaVu Sans', 'Arial', 'Helvetica', 'Lucida Grande', 'Verdana', 'Geneva', 'Lucid', 'Avant Garde', sans-serif; text-anchor: middle" x="72" y="7.439063" transform="rotate(-0 72 7.439063)">Moffat, MSE = 2.1e-10</text>
  </g>
 </g>
 <defs>
  <clipPath id="pc91c9206c2">
   <rect x="43.2" y="17.28" width="86.4" height="83.52"/>
  </clipPath>
 </defs>
</svg>
