<?xml version="1.0" encoding="utf-8" standalone="no"?>
<!DOCTYPE svg PUBLIC "-//W3C//DTD SVG 1.1//EN"
  "http://www.w3.org/Graphics/SVG/1.1/DTD/svg11.dtd">
<svg xmlns:xlink="http://www.w3.org/1999/xlink" width="288pt" height="144pt" viewBox="0 0 288 144" xmlns="http://www.w3.org/2000/svg" version="1.1">
 <metadata>
  <rdf:RDF xmlns:dc="http://purl.org/dc/elements/1.1/" xmlns:cc="http://creativecommons.org/ns#" xmlns:rdf="http://www.w3.org/1999/02/22-rdf-syntax-ns#">
   <cc:Work>
    <dc:type rdf:resource="http://purl.org/dc/dcmitype/StillImage"/>
    <dc:date>2023-11-20T06:25:40.555129</dc:date>
    <dc:format>image/svg+xml</dc:format>
    <dc:creator>
     <cc:Agent>
      <dc:title>Matplotlib v3.7.2, https://matplotlib.org/</dc:title>
     </cc:Agent>
    </dc:creator>
   </cc:Work>
  </rdf:RDF>
 </metadata>
 <defs>
  <style type="text/css">*{stroke-linejoin: round; stroke-linecap: butt}</style>
 </defs>
 <g id="figure_1">
  <g id="patch_1">
   <path d="M 0 144 
L 288 144 
L 288 0 
L 0 0 
L 0 144 
z
" style="fill: none"/>
  </g>
  <g id="axes_1">
   <g id="patch_2">
    <path d="M 36 128.16 
L 259.2 128.16 
L 259.2 17.28 
L 36 17.28 
L 36 128.16 
z
" style="fill: none"/>
   </g>
   <g id="matplotlib.axis_1">
    <g id="xtick_1">
     <g id="line2d_1">
      <defs>
       <path id="ma0fe1602bf" d="M 0 0 
L 0 3.5 
" style="stroke: #000000; stroke-width: 0.8"/>
      </defs>
      <g>
       <use xlink:href="#ma0fe1602bf" x="46.145455" y="128.16" style="stroke: #000000; stroke-width: 0.8"/>
      </g>
     </g>
     <g id="text_1">
      <text style="font: 6px 'DejaVu Sans', 'Arial', 'Helvetica', 'Lucida Grande', 'Verdana', 'Geneva', 'Lucid', 'Avant Garde', sans-serif; text-anchor: middle" x="46.145455" y="139.719063" transform="rotate(-0 46.145455 139.719063)">0</text>
     </g>
    </g>
    <g id="xtick_2">
     <g id="line2d_2">
      <g>
       <use xlink:href="#ma0fe1602bf" x="85.759888" y="128.16" style="stroke: #000000; stroke-width: 0.8"/>
      </g>
     </g>
     <g id="text_2">
      <text style="font: 6px 'DejaVu Sans', 'Arial', 'Helvetica', 'Lucida Grande', 'Verdana', 'Geneva', 'Lucid', 'Avant Garde', sans-serif; text-anchor: middle" x="85.759888" y="139.719063" transform="rotate(-0 85.759888 139.719063)">10</text>
     </g>
    </g>
    <g id="xtick_3">
     <g id="line2d_3">
      <g>
       <use xlink:href="#ma0fe1602bf" x="125.374322" y="128.16" style="stroke: #000000; stroke-width: 0.8"/>
      </g>
     </g>
     <g id="text_3">
      <text style="font: 6px 'DejaVu Sans', 'Arial', 'Helvetica', 'Lucida Grande', 'Verdana', 'Geneva', 'Lucid', 'Avant Garde', sans-serif; text-anchor: middle" x="125.374322" y="139.719063" transform="rotate(-0 125.374322 139.719063)">20</text>
     </g>
    </g>
    <g id="xtick_4">
     <g id="line2d_4">
      <g>
       <use xlink:href="#ma0fe1602bf" x="164.988756" y="128.16" style="stroke: #000000; stroke-width: 0.8"/>
      </g>
     </g>
     <g id="text_4">
      <text style="font: 6px 'DejaVu Sans', 'Arial', 'Helvetica', 'Lucida Grande', 'Verdana', 'Geneva', 'Lucid', 'Avant Garde', sans-serif; text-anchor: middle" x="164.988756" y="139.719063" transform="rotate(-0 164.988756 139.719063)">30</text>
     </g>
    </g>
    <g id="xtick_5">
     <g id="line2d_5">
      <g>
       <use xlink:href="#ma0fe1602bf" x="204.603189" y="128.16" style="stroke: #000000; stroke-width: 0.8"/>
      </g>
     </g>
     <g id="text_5">
      <text style="font: 6px 'DejaVu Sans', 'Arial', 'Helvetica', 'Lucida Grande', 'Verdana', 'Geneva', 'Lucid', 'Avant Garde', sans-serif; text-anchor: middle" x="204.603189" y="139.719063" transform="rotate(-0 204.603189 139.719063)">40</text>
     </g>
    </g>
    <g id="xtick_6">
     <g id="line2d_6">
      <g>
       <use xlink:href="#ma0fe1602bf" x="244.217623" y="128.16" style="stroke: #000000; stroke-width: 0.8"/>
      </g>
     </g>
     <g id="text_6">
      <text style="font: 6px 'DejaVu Sans', 'Arial', 'Helvetica', 'Lucida Grande', 'Verdana', 'Geneva', 'Lucid', 'Avant Garde', sans-serif; text-anchor: middle" x="244.217623" y="139.719063" transform="rotate(-0 244.217623 139.719063)">50</text>
     </g>
    </g>
    <g id="text_7">
     <!-- Distance ($\mu m$) -->
     <g transform="translate(126.33 149.526875)">
      <text>
       <tspan style="font: 6px 'DejaVu Sans'" x="0 4.620117 6.287109 9.413086 11.765625 15.442383 19.245117 22.543945 26.235352 28.142578 40.145508" y="-0.4375">Distance ()</tspan>
       <tspan style="font: oblique 6px 'DejaVu Sans'" x="30.483398 34.300781" y="-0.4375">μm</tspan>
      </text>
     </g>
    </g>
   </g>
   <g id="matplotlib.axis_2">
    <g id="ytick_1">
     <g id="line2d_7">
      <defs>
       <path id="mc5471e4232" d="M 0 0 
L -3.5 0 
" style="stroke: #000000; stroke-width: 0.8"/>
      </defs>
      <g>
       <use xlink:href="#mc5471e4232" x="36" y="110.51961" style="stroke: #000000; stroke-width: 0.8"/>
      </g>
     </g>
     <g id="text_8">
      <text style="font: 6px 'DejaVu Sans', 'Arial', 'Helvetica', 'Lucida Grande', 'Verdana', 'Geneva', 'Lucid', 'Avant Garde', sans-serif; text-anchor: end" x="29" y="112.799141" transform="rotate(-0 29 112.799141)">0.2</text>
     </g>
    </g>
    <g id="ytick_2">
     <g id="line2d_8">
      <g>
       <use xlink:href="#mc5471e4232" x="36" y="88.469707" style="stroke: #000000; stroke-width: 0.8"/>
      </g>
     </g>
     <g id="text_9">
      <text style="font: 6px 'DejaVu Sans', 'Arial', 'Helvetica', 'Lucida Grande', 'Verdana', 'Geneva', 'Lucid', 'Avant Garde', sans-serif; text-anchor: end" x="29" y="90.749239" transform="rotate(-0 29 90.749239)">0.4</text>
     </g>
    </g>
    <g id="ytick_3">
     <g id="line2d_9">
      <g>
       <use xlink:href="#mc5471e4232" x="36" y="66.419805" style="stroke: #000000; stroke-width: 0.8"/>
      </g>
     </g>
     <g id="text_10">
      <text style="font: 6px 'DejaVu Sans', 'Arial', 'Helvetica', 'Lucida Grande', 'Verdana', 'Geneva', 'Lucid', 'Avant Garde', sans-serif; text-anchor: end" x="29" y="68.699336" transform="rotate(-0 29 68.699336)">0.6</text>
     </g>
    </g>
    <g id="ytick_4">
     <g id="line2d_10">
      <g>
       <use xlink:href="#mc5471e4232" x="36" y="44.369902" style="stroke: #000000; stroke-width: 0.8"/>
      </g>
     </g>
     <g id="text_11">
      <text style="font: 6px 'DejaVu Sans', 'Arial', 'Helvetica', 'Lucida Grande', 'Verdana', 'Geneva', 'Lucid', 'Avant Garde', sans-serif; text-anchor: end" x="29" y="46.649434" transform="rotate(-0 29 46.649434)">0.8</text>
     </g>
    </g>
    <g id="ytick_5">
     <g id="line2d_11">
      <g>
       <use xlink:href="#mc5471e4232" x="36" y="22.32" style="stroke: #000000; stroke-width: 0.8"/>
      </g>
     </g>
     <g id="text_12">
      <text style="font: 6px 'DejaVu Sans', 'Arial', 'Helvetica', 'Lucida Grande', 'Verdana', 'Geneva', 'Lucid', 'Avant Garde', sans-serif; text-anchor: end" x="29" y="24.599531" transform="rotate(-0 29 24.599531)">1.0</text>
     </g>
    </g>
    <g id="text_13">
     <text style="font: 6px 'DejaVu Sans', 'Arial', 'Helvetica', 'Lucida Grande', 'Verdana', 'Geneva', 'Lucid', 'Avant Garde', sans-serif; text-anchor: middle" x="14.210313" y="72.72" transform="rotate(-90 14.210313 72.72)">Intensity (AU)</text>
    </g>
   </g>
   <g id="line2d_12">
    <path d="M 46.145455 120.107536 
L 46.837387 120.841348 
L 47.183353 120.703936 
L 47.702302 120.38943 
L 48.048268 120.285085 
L 48.567217 120.412907 
L 48.913183 121.580845 
L 49.259149 123.12 
L 49.432132 122.598046 
L 49.605115 119.732183 
L 49.951081 104.093152 
L 50.815996 64.894084 
L 51.334945 53.88417 
L 51.507928 50.789228 
L 51.680911 49.934081 
L 51.853894 53.568494 
L 52.71881 92.408906 
L 52.891793 93.99208 
L 53.064776 93.659686 
L 53.237759 92.692005 
L 53.583725 92.372062 
L 53.756708 91.673357 
L 53.929691 90.0422 
L 54.102674 86.732969 
L 54.794606 65.869946 
L 55.140572 64.25996 
L 55.486538 59.568421 
L 55.659521 57.235029 
L 55.832504 56.876326 
L 56.17847 59.041349 
L 56.351453 58.528392 
L 56.697419 53.121447 
L 57.043385 48.96103 
L 57.216368 48.937598 
L 57.389351 49.032482 
L 57.562334 48.577286 
L 57.735317 47.703167 
L 57.9083 47.414527 
L 58.427249 50.888265 
L 58.773216 49.368005 
L 58.946199 49.944201 
L 59.465148 54.278976 
L 59.638131 55.150075 
L 59.811114 54.70326 
L 60.330063 46.044399 
L 60.503046 46.769597 
L 60.849012 49.229508 
L 61.194978 47.658952 
L 61.367961 50.522718 
L 61.88691 69.817426 
L 62.059893 71.810922 
L 62.232876 72.049377 
L 62.405859 72.040639 
L 62.578842 71.694346 
L 62.751825 70.868926 
L 62.924808 70.732061 
L 63.097791 71.867456 
L 63.61674 76.976158 
L 63.789723 78.160944 
L 63.962706 77.675533 
L 64.135689 74.644084 
L 65.000605 47.152986 
L 65.173588 47.13624 
L 65.519554 48.08663 
L 65.692537 47.653885 
L 66.038503 46.247553 
L 66.211486 47.092668 
L 67.422367 61.450454 
L 67.59535 61.906609 
L 67.768333 61.308104 
L 68.633248 50.584279 
L 69.152197 47.097264 
L 69.498163 44.801728 
L 69.671146 44.624619 
L 69.844129 45.414798 
L 70.536061 51.583624 
L 70.709044 52.480158 
L 71.400977 62.176135 
L 71.57396 61.573569 
L 72.092909 54.84371 
L 72.438875 53.158795 
L 73.649756 41.112516 
L 74.168705 39.6437 
L 74.687654 38.617306 
L 74.860637 38.064778 
L 75.03362 38.008709 
L 75.206603 38.187506 
L 75.379586 37.677111 
L 75.725552 34.919039 
L 75.898535 34.699883 
L 76.244501 38.760054 
L 77.109416 50.299093 
L 77.282399 51.001912 
L 77.628365 50.815536 
L 77.801349 50.400315 
L 77.974332 49.2126 
L 78.320298 42.878929 
L 78.493281 39.374597 
L 78.666264 39.275987 
L 79.185213 52.267159 
L 79.358196 52.080749 
L 80.050128 46.702284 
L 80.223111 45.947579 
L 80.396094 46.640856 
L 81.606975 67.75627 
L 81.952941 74.770335 
L 82.125924 73.84017 
L 83.336805 48.571192 
L 83.682771 47.762935 
L 83.855754 47.582276 
L 84.374704 47.470838 
L 84.547687 46.119183 
L 85.066636 37.928237 
L 85.239619 37.906678 
L 85.758568 46.692605 
L 85.931551 46.120014 
L 86.277517 42.714248 
L 86.4505 42.843085 
L 86.796466 44.151923 
L 86.969449 43.974957 
L 87.142432 42.362007 
L 87.488398 36.706521 
L 87.661381 36.342078 
L 88.18033 42.741794 
L 88.526296 47.247617 
L 89.391211 64.63142 
L 89.564194 64.31734 
L 89.91016 61.503104 
L 90.256126 55.995232 
L 90.948059 37.345758 
L 91.294025 41.806649 
L 91.467008 43.646201 
L 91.639991 44.206296 
L 91.812974 43.803918 
L 91.985957 44.048269 
L 92.331923 49.982725 
L 92.677889 56.08765 
L 92.850872 56.969106 
L 93.023855 56.134281 
L 93.369821 53.816321 
L 93.542804 54.823703 
L 93.88877 57.89915 
L 94.234736 57.760978 
L 94.407719 57.24498 
L 94.580702 55.025382 
L 95.099651 45.133956 
L 95.6186 40.945694 
L 96.137549 32.243653 
L 96.310532 31.835161 
L 96.829482 35.691488 
L 97.002465 35.395972 
L 97.175448 35.413188 
L 97.521414 37.050192 
L 97.86738 38.91951 
L 98.559312 47.251623 
L 98.732295 46.11505 
L 99.078261 36.787303 
L 99.424227 27.00016 
L 99.59721 26.205087 
L 99.770193 26.285304 
L 100.116159 25.355255 
L 100.289142 25.846625 
L 101.154057 35.328811 
L 101.32704 35.048168 
L 101.673006 31.03626 
L 101.845989 31.197692 
L 102.191955 33.818039 
L 102.537921 30.968823 
L 102.710904 32.644214 
L 103.05687 40.440796 
L 103.229854 40.878659 
L 103.57582 36.172924 
L 103.748803 36.370287 
L 104.094769 46.025496 
L 104.267752 50.630166 
L 104.440735 51.929215 
L 104.613718 50.281017 
L 105.651616 34.100453 
L 105.997582 32.490917 
L 106.343548 31.975201 
L 106.516531 31.547357 
L 106.689514 30.792006 
L 107.727412 22.975952 
L 107.900395 22.463181 
L 108.073378 22.32 
L 108.246361 22.523213 
L 108.419344 23.487422 
L 109.111276 31.906762 
L 109.284259 31.009288 
L 109.457243 31.257689 
L 109.803209 38.166449 
L 110.149175 44.635769 
L 110.322158 45.535726 
L 110.495141 44.676151 
L 110.841107 37.357366 
L 111.187073 31.166436 
L 111.360056 30.639357 
L 111.533039 31.436263 
L 111.879005 34.997731 
L 112.224971 36.044635 
L 112.397954 38.258356 
L 112.74392 45.81361 
L 112.916903 47.549423 
L 113.089886 47.979889 
L 113.262869 47.565031 
L 113.435852 45.927983 
L 113.781818 37.180221 
L 114.127784 28.609728 
L 114.300767 27.02643 
L 114.47375 28.267384 
L 114.992699 38.21171 
L 115.338665 40.020702 
L 115.857615 42.865922 
L 116.203581 41.876031 
L 116.72253 45.776547 
L 116.895513 44.798686 
L 117.587445 34.111519 
L 117.760428 35.361326 
L 118.106394 39.937779 
L 118.279377 40.300214 
L 118.45236 39.771435 
L 118.798326 36.65127 
L 119.144292 32.706591 
L 119.317275 32.267579 
L 119.490258 33.083367 
L 120.18219 39.825244 
L 120.355173 40.443601 
L 120.701139 40.716421 
L 120.874122 40.333672 
L 121.047105 38.581637 
L 121.566054 27.9775 
L 121.739037 28.525825 
L 122.085003 33.647932 
L 122.43097 31.281625 
L 122.603953 32.275081 
L 123.122902 39.692672 
L 123.295885 40.229797 
L 123.468868 41.1776 
L 123.987817 46.070283 
L 124.1608 46.459104 
L 124.333783 45.305728 
L 124.679749 40.147224 
L 124.852732 39.301628 
L 125.371681 43.773994 
L 125.717647 43.122356 
L 126.236596 43.752813 
L 126.409579 42.884912 
L 126.755545 40.134687 
L 126.928528 40.471879 
L 127.62046 49.17107 
L 127.966426 48.146039 
L 128.312392 45.228193 
L 128.485375 43.498007 
L 128.658359 42.954668 
L 128.831342 43.994481 
L 129.523274 51.856073 
L 129.696257 51.642295 
L 130.042223 49.742605 
L 130.388189 47.378596 
L 130.561172 47.474894 
L 130.907138 49.427987 
L 131.080121 48.849028 
L 131.426087 45.918193 
L 131.772053 48.210771 
L 131.945036 47.584572 
L 132.463985 42.708843 
L 132.809951 41.293862 
L 132.982934 41.290062 
L 133.501883 45.84733 
L 133.674866 45.309348 
L 134.020832 41.954777 
L 134.193815 42.278672 
L 134.885748 50.098354 
L 135.57768 45.140396 
L 135.923646 41.149128 
L 136.096629 41.276184 
L 137.134527 52.223746 
L 137.30751 52.861277 
L 137.480493 52.031096 
L 137.826459 48.578302 
L 137.999442 49.558437 
L 138.345408 56.29533 
L 138.518391 57.26572 
L 138.691374 55.886089 
L 139.03734 47.888765 
L 139.556289 32.272529 
L 139.729272 29.979418 
L 139.902255 29.598198 
L 140.248221 35.178791 
L 140.594187 38.782148 
L 140.76717 38.972867 
L 140.940153 38.218136 
L 141.113136 36.701241 
L 141.28612 36.489714 
L 141.632086 43.064597 
L 141.978052 47.765999 
L 142.151035 47.013338 
L 143.361916 37.22013 
L 143.534899 37.69969 
L 143.880865 43.050186 
L 144.226831 49.545034 
L 144.918763 56.219655 
L 145.091746 56.701875 
L 145.264729 56.105079 
L 145.783678 52.69156 
L 146.129644 44.223098 
L 146.47561 36.653591 
L 146.821576 34.362081 
L 147.167542 32.399336 
L 147.513508 29.647498 
L 147.686492 29.612913 
L 148.205441 34.256684 
L 148.551407 41.037681 
L 148.897373 48.003618 
L 149.070356 48.421848 
L 149.243339 46.051744 
L 149.935271 31.266857 
L 150.281237 27.924981 
L 150.45422 27.988831 
L 150.800186 31.607217 
L 151.492118 40.373627 
L 151.838084 46.000187 
L 152.011067 46.919626 
L 152.18405 46.732278 
L 152.357033 45.528489 
L 152.702999 38.279471 
L 152.875982 34.785876 
L 153.048965 34.056117 
L 153.567914 37.204421 
L 153.740897 36.982376 
L 153.91388 37.084249 
L 154.086864 38.429924 
L 154.259847 41.467416 
L 154.605813 55.063414 
L 155.124762 77.725997 
L 155.297745 78.58929 
L 155.470728 75.055464 
L 156.335643 44.947529 
L 157.027575 28.500917 
L 157.200558 29.227222 
L 157.546524 32.463861 
L 157.719507 31.390689 
L 158.065473 24.90827 
L 158.238456 23.985146 
L 158.411439 26.557966 
L 158.930388 42.924116 
L 159.103371 43.9941 
L 159.449337 41.983502 
L 159.795303 42.715551 
L 159.968286 41.35008 
L 160.314252 37.162777 
L 160.487236 37.808674 
L 161.179168 47.521018 
L 161.352151 48.403146 
L 161.525134 51.360284 
L 162.044083 67.299963 
L 162.217066 68.203292 
L 162.390049 65.941783 
L 163.081981 47.382965 
L 163.254964 46.707239 
L 163.427947 47.13526 
L 163.60093 46.87969 
L 163.946896 43.869895 
L 164.292862 39.984976 
L 164.465845 39.828938 
L 164.811811 42.321369 
L 164.984794 42.267401 
L 165.503743 38.603573 
L 166.022692 40.714896 
L 166.195675 40.143264 
L 166.368658 41.332992 
L 166.714625 49.940639 
L 167.406557 72.087743 
L 167.57954 72.498809 
L 167.752523 68.689151 
L 168.444455 44.409579 
L 168.617438 42.380563 
L 168.790421 42.302011 
L 169.136387 43.730605 
L 169.30937 45.425136 
L 169.828319 54.049007 
L 170.001302 53.422992 
L 171.0392 39.774026 
L 171.212183 39.044597 
L 171.385166 39.633731 
L 171.731132 41.668597 
L 172.423064 41.640465 
L 172.596047 42.155341 
L 172.76903 43.267743 
L 173.460963 50.716603 
L 173.979912 63.9056 
L 174.325878 71.412309 
L 174.498861 72.035857 
L 174.671844 70.805369 
L 175.01781 63.547146 
L 175.363776 53.868557 
L 175.536759 52.002284 
L 175.709742 51.8126 
L 175.882725 51.886461 
L 176.055708 51.402754 
L 176.401674 48.724048 
L 176.920623 43.962288 
L 177.093606 43.120048 
L 177.266589 43.029857 
L 177.612555 45.949204 
L 177.958521 48.873293 
L 178.131504 48.954528 
L 178.304487 47.735921 
L 178.650453 44.038004 
L 178.823436 44.128939 
L 178.996419 45.017593 
L 179.169402 44.716483 
L 179.688352 39.73265 
L 179.861335 41.575621 
L 180.380284 48.802603 
L 180.72625 50.221032 
L 180.899233 51.623393 
L 181.418182 58.353485 
L 181.591165 57.315471 
L 182.110114 47.688586 
L 182.283097 47.874167 
L 182.802046 52.432196 
L 182.975029 52.913704 
L 183.148012 53.032316 
L 183.320995 53.351276 
L 183.839944 55.195296 
L 184.18591 55.703504 
L 184.877842 57.743787 
L 185.050825 56.488999 
L 185.396791 50.198979 
L 185.742757 43.896429 
L 185.915741 43.262118 
L 186.43469 46.669638 
L 186.607673 45.923342 
L 186.953639 42.742954 
L 187.299605 39.207947 
L 187.472588 38.570235 
L 187.645571 38.947593 
L 187.991537 42.121842 
L 189.029435 45.693371 
L 189.202418 45.02951 
L 189.548384 42.517316 
L 189.721367 42.314406 
L 189.89435 43.765615 
L 190.586282 54.191879 
L 190.759265 53.334793 
L 191.451197 41.693867 
L 191.62418 41.714409 
L 192.14313 45.614803 
L 192.662079 38.407213 
L 192.835062 38.619301 
L 193.354011 41.991402 
L 193.699977 44.667886 
L 193.87296 44.815218 
L 194.045943 44.66388 
L 194.218926 44.785056 
L 194.564892 45.713818 
L 195.083841 48.385453 
L 195.256824 48.257994 
L 195.429807 47.040118 
L 195.948756 41.463812 
L 196.467705 38.253158 
L 196.986654 27.476024 
L 197.159637 27.464842 
L 197.851569 40.84095 
L 198.370518 35.245373 
L 198.889468 36.20776 
L 199.062451 35.959764 
L 199.408417 33.337062 
L 199.754383 31.038127 
L 199.927366 32.300537 
L 200.273332 36.611373 
L 200.446315 36.906802 
L 200.792281 35.177772 
L 200.965264 36.855398 
L 201.657196 48.685007 
L 202.003162 57.303213 
L 202.176145 57.759973 
L 202.522111 54.084699 
L 202.868077 48.103611 
L 203.214043 40.68679 
L 203.905975 35.521187 
L 204.078958 33.998641 
L 204.251941 33.703783 
L 204.424924 34.909125 
L 204.77089 41.731453 
L 205.28984 51.354697 
L 205.462823 53.029551 
L 205.635806 53.556273 
L 206.154755 51.386334 
L 206.327738 51.869799 
L 206.673704 54.499515 
L 206.846687 53.857122 
L 207.01967 50.346944 
L 207.538619 31.836503 
L 207.711602 31.164883 
L 208.057568 35.53704 
L 208.230551 35.842279 
L 208.7495 32.237305 
L 208.922483 33.136807 
L 209.268449 36.12813 
L 209.441432 35.844711 
L 209.787398 33.110398 
L 209.960381 32.502665 
L 210.133364 32.462573 
L 210.652313 34.819474 
L 210.998279 34.269319 
L 211.171262 35.066968 
L 211.344246 36.459366 
L 211.517229 36.49293 
L 211.863195 33.819453 
L 212.036178 34.26903 
L 212.901093 45.610658 
L 213.420042 54.10292 
L 213.593025 52.928031 
L 214.111974 44.601416 
L 214.284957 43.620327 
L 214.45794 44.056494 
L 214.803906 45.447969 
L 214.976889 44.952511 
L 215.149872 44.852105 
L 215.322855 46.87434 
L 215.841804 57.995887 
L 216.18777 60.4511 
L 216.360753 60.031749 
L 216.706719 57.611826 
L 217.052685 53.361376 
L 217.398651 48.542931 
L 218.263567 42.230634 
L 218.955499 45.173725 
L 219.128482 45.21075 
L 219.301465 45.404875 
L 219.474448 46.078158 
L 219.647431 47.410888 
L 220.339363 56.574185 
L 220.685329 56.838401 
L 221.031295 58.123229 
L 221.550244 61.852905 
L 221.89621 64.268623 
L 222.069193 64.064711 
L 222.588142 58.895914 
L 222.761125 59.60064 
L 222.934108 60.795448 
L 223.107091 60.889311 
L 223.453057 59.181926 
L 223.62604 60.679839 
L 223.972007 66.368295 
L 224.14499 67.25389 
L 224.317973 66.275903 
L 224.836922 60.119257 
L 225.182888 57.34839 
L 225.528854 54.324093 
L 226.047803 52.032178 
L 226.220786 52.05663 
L 226.739735 54.63959 
L 227.085701 54.105401 
L 227.258684 54.207878 
L 227.431667 53.98382 
L 227.777633 52.804661 
L 227.950616 52.761741 
L 228.296582 53.707488 
L 228.815531 54.931778 
L 229.507463 56.280911 
L 229.680446 56.77661 
L 229.853429 58.774817 
L 230.545362 74.329434 
L 230.891328 77.596901 
L 231.064311 77.908767 
L 231.237294 76.767364 
L 231.58326 73.174611 
L 231.756243 73.100026 
L 231.929226 73.463428 
L 232.102209 73.391564 
L 232.275192 72.566343 
L 232.621158 68.41586 
L 233.659056 53.021605 
L 233.832039 52.040276 
L 234.523971 45.946021 
L 234.869937 48.681433 
L 235.561869 55.668617 
L 236.080818 60.942779 
L 236.253801 61.172426 
L 236.945734 60.043378 
L 237.464683 59.651961 
L 237.810649 56.854994 
L 238.156615 55.126919 
L 238.329598 54.853325 
L 238.848547 53.095735 
L 239.540479 55.922566 
L 239.713462 57.76548 
L 240.405394 71.863457 
L 241.097326 77.09515 
L 241.270309 75.854889 
L 242.308207 63.330467 
L 242.48119 62.460137 
L 242.654173 62.295056 
L 243.00014 61.400408 
L 243.173123 62.064211 
L 243.692072 66.012652 
L 243.865055 66.724156 
L 244.211021 71.154792 
L 244.556987 75.712686 
L 244.902953 78.216822 
L 245.248919 83.308057 
L 245.940851 95.45405 
L 246.113834 96.40272 
L 246.286817 96.332578 
L 246.4598 96.507156 
L 248.016647 106.465946 
L 248.535596 111.045856 
L 249.054545 113.727485 
L 249.054545 113.727485 
" clip-path="url(#p2f944d86e7)" style="fill: none; stroke: #1f77b4; stroke-linecap: square"/>
   </g>
   <g id="line2d_13">
    <path d="M 46.145455 107.287358 
L 46.318438 106.938166 
L 46.491421 106.940663 
L 48.048268 104.79691 
L 49.259149 101.315129 
L 49.432132 100.656394 
L 49.778098 97.57285 
L 51.334945 81.818273 
L 51.853894 80.287 
L 52.19986 81.741034 
L 52.891793 84.887573 
L 53.064776 84.772155 
L 53.410742 84.072451 
L 53.583725 83.893744 
L 54.102674 81.805791 
L 55.486538 73.147668 
L 57.043385 67.64049 
L 57.389351 67.178523 
L 57.735317 66.425222 
L 57.9083 66.320376 
L 58.081283 65.806428 
L 58.427249 65.890275 
L 58.600233 65.942257 
L 58.773216 65.262377 
L 58.946199 65.277648 
L 59.119182 65.703198 
L 59.292165 65.24828 
L 59.638131 65.281613 
L 60.503046 63.843145 
L 60.676029 64.31583 
L 60.849012 64.345199 
L 61.021995 64.59439 
L 61.194978 64.416858 
L 62.405859 68.775288 
L 62.578842 68.5678 
L 62.751825 68.805391 
L 62.924808 68.498931 
L 63.097791 68.539606 
L 63.270774 68.900545 
L 63.443757 68.487624 
L 63.789723 68.630795 
L 63.962706 68.280135 
L 64.135689 67.599374 
L 65.000605 62.384559 
L 65.519554 60.713198 
L 65.692537 60.882801 
L 66.038503 59.912173 
L 66.211486 60.286034 
L 66.384469 60.119367 
L 66.557452 60.251379 
L 66.730435 60.580306 
L 66.903418 60.550497 
L 67.076401 61.055635 
L 67.249384 60.775753 
L 67.422367 60.751084 
L 67.59535 60.513786 
L 67.768333 60.975312 
L 68.460265 58.727742 
L 68.633248 58.426715 
L 68.806231 57.353443 
L 68.979214 57.504985 
L 69.498163 56.329805 
L 70.190095 56.400877 
L 70.536061 57.274442 
L 70.882027 57.225397 
L 71.400977 58.039344 
L 71.57396 57.742135 
L 71.746943 57.844191 
L 72.265892 56.063726 
L 72.611858 55.34229 
L 72.957824 53.925994 
L 73.822739 51.355371 
L 73.995722 51.374607 
L 74.341688 50.521599 
L 74.514671 50.649059 
L 74.687654 50.54715 
L 75.03362 49.765067 
L 75.206603 49.832762 
L 75.552569 49.516169 
L 75.725552 49.698695 
L 75.898535 49.41617 
L 76.071518 49.463012 
L 76.590467 50.608677 
L 76.936433 51.053316 
L 77.109416 51.786647 
L 77.628365 51.774606 
L 77.801349 51.60838 
L 77.974332 51.81954 
L 78.147315 51.290466 
L 78.320298 51.370936 
L 78.666264 50.561394 
L 78.839247 50.637018 
L 79.01223 51.298396 
L 79.185213 51.250378 
L 79.531179 51.981507 
L 79.704162 51.483711 
L 80.223111 52.180772 
L 80.396094 51.436281 
L 80.915043 53.356099 
L 81.088026 53.566965 
L 81.779958 56.18399 
L 81.952941 55.87151 
L 82.125924 55.996619 
L 82.298907 56.395297 
L 82.47189 54.867842 
L 82.644873 54.870485 
L 83.336805 51.19913 
L 83.509788 51.119982 
L 83.682771 50.762715 
L 83.855754 50.690321 
L 84.028738 49.761837 
L 84.201721 49.870794 
L 84.547687 48.868594 
L 84.72067 48.670798 
L 84.893653 48.214264 
L 85.066636 48.071534 
L 85.239619 47.733796 
L 85.412602 47.127777 
L 85.585585 48.075939 
L 85.758568 47.960814 
L 85.931551 47.998112 
L 86.104534 47.666395 
L 86.796466 47.463165 
L 87.142432 47.172564 
L 87.315415 47.257145 
L 87.488398 46.471538 
L 87.661381 46.449072 
L 87.834364 46.686369 
L 88.007347 47.463753 
L 88.18033 47.337468 
L 88.353313 47.657438 
L 88.526296 48.64187 
L 88.699279 48.666245 
L 89.045245 50.025566 
L 89.391211 51.325709 
L 89.564194 51.303389 
L 89.737177 50.885034 
L 89.91016 51.213962 
L 90.602093 48.476966 
L 90.948059 47.117351 
L 91.121042 46.82631 
L 91.294025 46.812947 
L 91.467008 47.164635 
L 91.812974 46.971537 
L 91.985957 47.23835 
L 92.15894 47.237762 
L 92.331923 47.485485 
L 92.504906 48.393265 
L 92.677889 48.393853 
L 92.850872 48.695027 
L 93.023855 48.74789 
L 93.196838 49.030855 
L 93.369821 48.749065 
L 93.542804 48.693411 
L 93.715787 48.908829 
L 93.88877 48.417201 
L 94.234736 48.527039 
L 94.580702 47.782548 
L 94.753685 46.641288 
L 94.926668 46.633065 
L 95.272634 45.071543 
L 96.310532 41.620012 
L 96.483515 41.382714 
L 96.829482 41.434109 
L 97.002465 41.153787 
L 97.175448 41.404594 
L 97.348431 40.796225 
L 97.521414 41.725885 
L 97.694397 41.332494 
L 97.86738 41.786384 
L 98.040363 41.528529 
L 98.213346 41.706502 
L 98.386329 42.160538 
L 98.559312 42.149085 
L 98.905278 41.489028 
L 99.424227 39.381692 
L 99.59721 38.737788 
L 99.770193 38.623839 
L 99.943176 38.735439 
L 100.289142 37.876264 
L 100.635108 38.621049 
L 101.154057 38.738963 
L 101.32704 39.463043 
L 101.500023 39.312676 
L 101.673006 38.931327 
L 101.845989 38.868772 
L 102.018972 38.96187 
L 102.191955 39.271561 
L 102.537921 39.232354 
L 102.710904 39.066422 
L 103.05687 40.334406 
L 103.229854 40.657166 
L 103.402837 40.162894 
L 103.921786 41.119132 
L 104.094769 41.368177 
L 104.440735 42.526323 
L 104.613718 42.03954 
L 104.786701 41.951729 
L 105.132667 41.327942 
L 105.30565 40.367739 
L 105.651616 39.709445 
L 105.997582 38.97303 
L 106.170565 38.684485 
L 106.343548 38.026924 
L 106.516531 38.339699 
L 106.689514 37.515766 
L 106.862497 37.750714 
L 107.381446 36.593302 
L 107.554429 36.572156 
L 107.727412 36.327664 
L 107.900395 35.841762 
L 108.073378 36.217679 
L 108.592327 36.192422 
L 108.938293 37.386838 
L 109.111276 37.796822 
L 109.284259 37.897703 
L 109.457243 38.258495 
L 109.630226 38.139699 
L 109.976192 39.564952 
L 110.149175 39.892851 
L 110.322158 39.566861 
L 110.495141 40.168915 
L 110.841107 39.469651 
L 111.01409 38.952913 
L 111.360056 38.94278 
L 111.533039 38.286101 
L 111.706022 38.707686 
L 111.879005 38.787568 
L 112.051988 39.515466 
L 112.224971 39.071121 
L 112.397954 39.303572 
L 112.74392 40.31796 
L 112.916903 40.721042 
L 113.089886 40.766857 
L 113.262869 40.561718 
L 113.435852 41.04248 
L 113.781818 39.364806 
L 113.954801 39.196524 
L 114.127784 39.257611 
L 114.300767 38.144398 
L 114.47375 38.297848 
L 114.646733 38.788302 
L 114.819716 38.790211 
L 115.165682 39.718255 
L 115.338665 39.752763 
L 115.511648 40.117079 
L 115.684631 39.973027 
L 116.030598 40.948942 
L 116.376564 40.32677 
L 116.72253 41.1648 
L 117.241479 40.04777 
L 117.414462 39.902836 
L 117.760428 39.325745 
L 117.933411 39.921485 
L 118.106394 39.346891 
L 118.45236 39.551736 
L 118.625343 38.989917 
L 118.798326 39.440576 
L 118.971309 38.704749 
L 119.144292 38.676555 
L 119.317275 38.447921 
L 119.490258 38.684631 
L 119.663241 38.615322 
L 120.009207 38.926481 
L 120.18219 39.281252 
L 120.528156 39.26833 
L 120.701139 39.360988 
L 121.393071 38.714881 
L 121.739037 37.565398 
L 121.91202 38.664073 
L 122.085003 38.169361 
L 122.43097 38.827509 
L 122.603953 38.4024 
L 122.949919 39.692117 
L 123.295885 40.236022 
L 123.468868 40.422365 
L 123.814834 41.155108 
L 123.987817 41.241599 
L 124.1608 41.669791 
L 124.333783 41.449821 
L 124.506766 41.818102 
L 124.679749 41.648058 
L 124.852732 41.03367 
L 125.198698 41.632493 
L 125.544664 41.99167 
L 125.717647 41.498573 
L 125.89063 42.163475 
L 126.063613 42.102095 
L 126.236596 41.838807 
L 126.409579 41.889614 
L 126.582562 42.436602 
L 126.755545 41.990642 
L 127.101511 42.169936 
L 127.447477 43.140859 
L 127.62046 43.163766 
L 127.793443 43.413398 
L 127.966426 43.213399 
L 128.139409 43.232488 
L 128.312392 43.661121 
L 128.485375 42.931021 
L 128.831342 43.316188 
L 129.004325 43.616481 
L 129.177308 43.437187 
L 129.350291 44.332632 
L 129.523274 44.097243 
L 129.696257 44.517213 
L 130.215206 43.92206 
L 130.388189 44.274335 
L 130.561172 43.946289 
L 130.907138 43.824997 
L 131.080121 44.335275 
L 131.426087 43.285058 
L 131.772053 43.826613 
L 131.945036 43.485498 
L 132.118019 43.547025 
L 132.291002 42.975367 
L 132.463985 43.298274 
L 132.636968 42.875955 
L 132.809951 43.059508 
L 132.982934 43.064354 
L 133.155917 42.737776 
L 133.501883 43.369199 
L 133.674866 43.505762 
L 133.847849 43.087702 
L 134.193815 43.417803 
L 134.366798 43.136894 
L 134.712764 44.166993 
L 134.885748 44.099152 
L 135.058731 43.808404 
L 135.231714 43.834983 
L 136.096629 43.080653 
L 136.269612 43.169786 
L 136.615578 43.572575 
L 136.788561 43.570666 
L 137.134527 44.539386 
L 137.30751 44.297977 
L 137.480493 44.659209 
L 137.653476 44.553923 
L 137.826459 44.215451 
L 137.999442 44.497095 
L 138.172425 44.026465 
L 138.345408 44.87169 
L 138.518391 44.661999 
L 138.691374 44.69915 
L 138.864357 43.745409 
L 139.03734 43.459507 
L 139.383306 41.426326 
L 139.556289 41.49358 
L 139.902255 40.14307 
L 140.075238 40.498723 
L 140.248221 40.401073 
L 140.594187 40.902393 
L 140.76717 41.026621 
L 140.940153 41.418837 
L 141.113136 40.836754 
L 141.28612 41.647031 
L 141.459103 41.211936 
L 141.805069 42.294018 
L 141.978052 42.496954 
L 142.151035 42.48183 
L 142.324018 42.708995 
L 142.497001 42.386382 
L 142.669984 42.553489 
L 142.842967 41.832199 
L 143.01595 42.344385 
L 143.188933 41.828528 
L 143.361916 41.727941 
L 143.534899 42.27346 
L 143.707882 42.036163 
L 144.572797 44.248931 
L 144.74578 44.337184 
L 144.918763 44.720002 
L 145.264729 44.657594 
L 145.437712 44.382264 
L 145.610695 44.513248 
L 145.783678 43.624411 
L 145.956661 43.493574 
L 146.47561 40.826622 
L 146.648593 40.9416 
L 147.167542 39.629122 
L 147.340525 39.743659 
L 147.513508 38.900783 
L 147.686492 38.889183 
L 147.859475 39.38272 
L 148.032458 39.445422 
L 148.205441 39.755113 
L 148.378424 39.730003 
L 148.72439 40.924859 
L 149.070356 41.510908 
L 149.243339 41.384036 
L 150.108254 39.423102 
L 150.281237 39.421487 
L 150.45422 39.102839 
L 150.627203 39.090798 
L 150.800186 39.612969 
L 150.973169 39.776845 
L 151.319135 40.553789 
L 151.492118 41.32339 
L 151.665101 41.299161 
L 152.357033 42.438658 
L 152.530016 42.232051 
L 153.048965 40.963479 
L 153.394931 41.815752 
L 153.740897 42.068321 
L 154.43283 44.516625 
L 154.778796 46.963167 
L 155.124762 49.031589 
L 155.297745 49.087389 
L 155.470728 49.626008 
L 156.16266 45.886078 
L 157.200558 40.527063 
L 157.373541 40.645859 
L 157.89249 40.126037 
L 158.065473 39.884187 
L 158.238456 39.973174 
L 158.584422 40.633965 
L 159.276354 42.931755 
L 159.449337 42.937041 
L 159.62232 42.81663 
L 159.795303 43.811047 
L 159.968286 43.269346 
L 160.141269 43.790489 
L 160.314252 43.336012 
L 161.698117 47.213386 
L 162.044083 48.640842 
L 162.217066 48.860812 
L 162.563032 48.653617 
L 163.081981 46.47007 
L 163.254964 46.33101 
L 163.427947 46.359351 
L 163.60093 45.519853 
L 163.773913 45.477856 
L 163.946896 45.049663 
L 164.119879 45.228517 
L 164.465845 43.914278 
L 164.638828 44.590634 
L 165.33076 44.393131 
L 165.503743 44.647462 
L 165.676726 43.944968 
L 165.849709 45.080941 
L 166.022692 45.437327 
L 166.195675 45.389163 
L 166.368658 45.588428 
L 166.887608 47.957878 
L 167.060591 48.396936 
L 167.406557 50.183715 
L 167.57954 50.571085 
L 167.752523 50.556989 
L 168.098489 48.369771 
L 168.271472 48.369771 
L 168.444455 46.963167 
L 168.617438 46.774328 
L 168.790421 46.318235 
L 168.963404 46.209572 
L 169.136387 46.352449 
L 169.30937 46.084609 
L 169.482353 46.335122 
L 169.655336 46.340702 
L 169.828319 47.441433 
L 170.001302 46.828072 
L 170.174285 46.831449 
L 170.347268 46.312655 
L 170.520251 46.493565 
L 170.866217 45.647165 
L 171.0392 45.55671 
L 171.212183 45.152306 
L 171.385166 45.199589 
L 171.558149 45.578443 
L 171.731132 45.475653 
L 171.904115 45.646725 
L 172.077098 45.550249 
L 172.250081 45.830424 
L 172.423064 46.392978 
L 172.596047 46.343345 
L 172.76903 46.429101 
L 173.114997 47.730125 
L 174.498861 52.257864 
L 174.844827 52.156984 
L 175.01781 51.882241 
L 175.536759 49.655817 
L 175.709742 49.535112 
L 176.228691 48.383427 
L 177.093606 46.73703 
L 177.266589 46.816618 
L 177.439572 46.462141 
L 177.785538 47.119701 
L 177.958521 46.844518 
L 178.131504 47.089305 
L 178.304487 46.855385 
L 178.47747 46.877117 
L 178.823436 46.500173 
L 178.996419 46.432332 
L 179.342385 46.478146 
L 179.688352 45.988133 
L 180.207301 47.284458 
L 180.380284 47.210156 
L 180.553267 47.902812 
L 180.72625 47.770213 
L 180.899233 48.369917 
L 181.072216 48.485482 
L 181.245199 49.093997 
L 181.418182 49.047155 
L 181.591165 49.511764 
L 182.110114 48.370505 
L 182.283097 48.743485 
L 182.629063 48.600754 
L 182.802046 48.952441 
L 183.148012 48.858609 
L 183.320995 49.224247 
L 184.012927 49.286214 
L 184.18591 49.27755 
L 184.358893 49.449356 
L 184.531876 49.26874 
L 184.704859 49.361397 
L 184.877842 48.928065 
L 185.050825 48.967566 
L 185.742757 47.107366 
L 185.915741 46.338206 
L 186.088724 46.7012 
L 186.607673 46.043346 
L 186.780656 46.031892 
L 186.953639 45.465668 
L 187.126622 45.383289 
L 187.299605 45.619706 
L 187.472588 44.732484 
L 187.645571 44.766992 
L 187.818554 45.143642 
L 187.991537 45.054803 
L 188.16452 45.455829 
L 188.337503 45.119854 
L 188.510486 45.150544 
L 188.683469 45.517944 
L 188.856452 45.581086 
L 189.029435 45.337768 
L 189.202418 45.641438 
L 189.548384 45.567723 
L 189.721367 45.755828 
L 189.89435 45.204435 
L 190.067333 45.996503 
L 190.240316 46.078294 
L 190.413299 46.635561 
L 190.586282 46.707221 
L 190.759265 46.433359 
L 190.932248 46.665077 
L 191.105231 45.84364 
L 191.278214 45.59298 
L 191.451197 45.669779 
L 191.62418 45.343201 
L 191.797163 44.533659 
L 191.970146 45.252453 
L 192.14313 45.326168 
L 192.662079 44.127933 
L 192.835062 44.375363 
L 193.008045 44.203117 
L 193.181028 44.221619 
L 193.354011 44.48755 
L 193.526994 44.395187 
L 193.699977 44.914862 
L 193.87296 44.890339 
L 194.218926 44.986521 
L 194.391909 45.43395 
L 194.564892 45.101205 
L 194.737875 45.670807 
L 195.083841 45.246873 
L 195.429807 45.574038 
L 195.60279 44.728372 
L 195.775773 44.772278 
L 196.121739 43.937185 
L 196.294722 43.84952 
L 196.467705 43.034398 
L 196.640688 43.505762 
L 196.813671 41.91634 
L 196.986654 42.201214 
L 197.159637 41.673315 
L 197.33262 41.670232 
L 197.505603 41.84982 
L 197.678586 42.570082 
L 197.851569 42.382858 
L 198.024552 42.631903 
L 198.197535 41.929702 
L 198.370518 41.989467 
L 198.543502 42.300626 
L 198.716485 41.951435 
L 198.889468 42.210905 
L 199.235434 41.760246 
L 199.408417 42.177279 
L 199.5814 41.635577 
L 199.754383 41.61869 
L 199.927366 42.130876 
L 200.100349 42.083446 
L 200.273332 42.170671 
L 200.446315 43.143942 
L 200.619298 43.089757 
L 200.792281 43.180947 
L 200.965264 42.995485 
L 201.138247 44.448637 
L 201.31123 44.578005 
L 201.484213 45.45392 
L 201.657196 45.455389 
L 202.003162 46.908542 
L 202.349128 47.251712 
L 203.04106 46.191216 
L 203.214043 45.131454 
L 203.387026 45.227196 
L 203.905975 44.353924 
L 204.078958 44.396802 
L 204.251941 44.286817 
L 204.424924 44.758475 
L 204.597907 44.803849 
L 204.77089 45.270514 
L 205.116857 46.743637 
L 205.981772 48.154206 
L 206.154755 47.612651 
L 206.327738 47.691799 
L 206.673704 47.56713 
L 206.846687 47.379318 
L 207.01967 46.888424 
L 207.192653 45.664492 
L 207.365636 45.455683 
L 207.538619 44.093866 
L 207.711602 43.959211 
L 207.884585 43.484764 
L 208.057568 43.642032 
L 208.230551 43.594014 
L 208.403534 43.422355 
L 208.576517 42.961711 
L 208.7495 43.181093 
L 208.922483 42.86641 
L 209.268449 43.321622 
L 209.614415 43.284324 
L 209.787398 43.280653 
L 209.960381 42.906351 
L 210.133364 43.255396 
L 210.306347 43.336012 
L 210.47933 43.260535 
L 210.652313 43.707083 
L 210.825296 43.727054 
L 210.998279 43.481386 
L 211.171262 44.013396 
L 211.517229 44.233513 
L 211.690212 44.864495 
L 211.863195 44.536743 
L 212.209161 45.211924 
L 212.382144 46.035123 
L 212.555127 46.178735 
L 213.074076 48.016027 
L 213.247059 48.314264 
L 213.593025 49.173292 
L 213.766008 49.011912 
L 213.938991 49.097815 
L 214.284957 48.660372 
L 214.45794 49.098256 
L 214.630923 49.061105 
L 214.803906 49.601044 
L 214.976889 49.592381 
L 215.668821 51.463887 
L 215.841804 52.498392 
L 216.014787 52.205295 
L 216.360753 53.397068 
L 216.533736 53.354484 
L 216.706719 52.577981 
L 216.879702 53.248317 
L 217.225668 52.2539 
L 217.398651 52.210581 
L 217.571635 51.820568 
L 217.744618 51.739657 
L 217.917601 51.183271 
L 218.090584 51.356105 
L 218.263567 51.227177 
L 218.43655 50.78063 
L 218.782516 51.785179 
L 218.955499 51.329233 
L 219.647431 52.576366 
L 219.820414 53.723645 
L 219.993397 53.647287 
L 220.339363 55.092951 
L 220.512346 55.174008 
L 220.858312 56.327896 
L 221.031295 56.166957 
L 221.204278 57.041844 
L 221.377261 57.128187 
L 221.723227 57.964602 
L 221.89621 57.843163 
L 222.069193 58.618344 
L 222.242176 58.344336 
L 222.415159 58.679724 
L 222.588142 58.106305 
L 222.934108 58.629651 
L 223.107091 59.126713 
L 223.280074 58.795436 
L 223.453057 59.090296 
L 223.62604 58.930237 
L 223.972007 59.71188 
L 224.14499 59.69793 
L 224.317973 60.066945 
L 224.836922 59.184568 
L 225.009905 59.176345 
L 225.528854 58.33391 
L 225.701837 58.119814 
L 225.87482 58.281341 
L 226.047803 57.733325 
L 226.220786 57.815116 
L 226.393769 58.061664 
L 226.566752 58.008507 
L 226.912718 58.215996 
L 227.085701 58.065336 
L 227.258684 58.156231 
L 227.60465 58.694555 
L 227.777633 58.377669 
L 227.950616 58.463132 
L 228.123599 59.001162 
L 228.296582 58.845803 
L 228.469565 59.014084 
L 228.815531 59.811879 
L 228.988514 59.855785 
L 230.026412 62.803647 
L 230.545362 65.437706 
L 230.891328 65.998204 
L 231.064311 66.925073 
L 231.237294 67.185278 
L 231.410277 66.631535 
L 231.58326 66.795852 
L 231.756243 67.132121 
L 231.929226 66.539759 
L 232.102209 66.491007 
L 232.275192 66.571477 
L 232.448175 66.526543 
L 232.621158 65.661347 
L 232.794141 65.558851 
L 233.659056 62.908346 
L 233.832039 63.026701 
L 234.005022 62.640358 
L 234.178005 62.557099 
L 234.350988 61.80365 
L 234.523971 62.222004 
L 234.869937 62.505997 
L 235.04292 62.816716 
L 235.215903 63.397771 
L 235.388886 63.457243 
L 236.080818 65.701289 
L 236.253801 65.60217 
L 236.426784 66.096001 
L 236.599767 65.998644 
L 236.772751 66.619054 
L 237.118717 66.453415 
L 237.2917 66.854589 
L 237.464683 66.799083 
L 237.637666 66.617292 
L 237.810649 66.967217 
L 237.983632 66.777644 
L 238.156615 66.822724 
L 238.848547 67.470446 
L 239.02153 67.483662 
L 239.540479 69.03564 
L 239.713462 69.395257 
L 239.886445 70.674842 
L 240.059428 70.899364 
L 240.232411 72.429902 
L 240.405394 72.703763 
L 240.75136 74.097885 
L 241.270309 75.344431 
L 241.616275 75.379526 
L 241.962241 75.178939 
L 242.308207 75.258234 
L 242.48119 74.815358 
L 242.654173 75.656324 
L 243.00014 75.85045 
L 243.346106 76.682606 
L 243.519089 77.558521 
L 243.692072 77.780253 
L 243.865055 78.811381 
L 244.038038 79.122246 
L 244.72997 82.713571 
L 245.248919 85.476705 
L 246.113834 90.370376 
L 247.324715 94.983578 
L 247.670681 96.58651 
L 249.054545 102.147285 
L 249.054545 102.147285 
" clip-path="url(#p2f944d86e7)" style="fill: none; stroke: #ff7f0e; stroke-linecap: square"/>
   </g>
   <g id="patch_3">
    <path d="M 36 128.16 
L 36 17.28 
" style="fill: none; stroke: #000000; stroke-width: 0.5; stroke-linejoin: miter; stroke-linecap: square"/>
   </g>
   <g id="patch_4">
    <path d="M 36 128.16 
L 259.2 128.16 
" style="fill: none; stroke: #000000; stroke-width: 0.5; stroke-linejoin: miter; stroke-linecap: square"/>
   </g>
   <g id="text_14">
    <text style="font: 6px 'DejaVu Sans', 'Arial', 'Helvetica', 'Lucida Grande', 'Verdana', 'Geneva', 'Lucid', 'Avant Garde', sans-serif; text-anchor: middle" x="147.6" y="11.28" transform="rotate(-0 147.6 11.28)">Average intensity traces across microcolony</text>
   </g>
   <g id="legend_1">
    <g id="patch_5">
     <path d="M 118.486875 125.16 
L 176.713125 125.16 
Q 177.913125 125.16 177.913125 123.96 
L 177.913125 106.94625 
Q 177.913125 105.74625 176.713125 105.74625 
L 118.486875 105.74625 
Q 117.286875 105.74625 117.286875 106.94625 
L 117.286875 123.96 
Q 117.286875 125.16 118.486875 125.16 
z
" style="fill: #ffffff; opacity: 0.8; stroke: #cccccc; stroke-linejoin: miter"/>
    </g>
    <g id="line2d_14">
     <path d="M 119.686875 110.605313 
L 125.686875 110.605313 
L 131.686875 110.605313 
" style="fill: none; stroke: #1f77b4; stroke-linecap: square"/>
    </g>
    <g id="text_15">
     <text style="font: 6px 'DejaVu Sans', 'Arial', 'Helvetica', 'Lucida Grande', 'Verdana', 'Geneva', 'Lucid', 'Avant Garde', sans-serif; text-anchor: start" x="136.486875" y="112.705313" transform="rotate(-0 136.486875 112.705313)">Deconvolved</text>
    </g>
    <g id="line2d_15">
     <path d="M 119.686875 119.412188 
L 125.686875 119.412188 
L 131.686875 119.412188 
" style="fill: none; stroke: #ff7f0e; stroke-linecap: square"/>
    </g>
    <g id="text_16">
     <text style="font: 6px 'DejaVu Sans', 'Arial', 'Helvetica', 'Lucida Grande', 'Verdana', 'Geneva', 'Lucid', 'Avant Garde', sans-serif; text-anchor: start" x="136.486875" y="121.512188" transform="rotate(-0 136.486875 121.512188)">Raw</text>
    </g>
   </g>
  </g>
 </g>
 <defs>
  <clipPath id="p2f944d86e7">
   <rect x="36" y="17.28" width="223.2" height="110.88"/>
  </clipPath>
 </defs>
</svg>
