<?xml version="1.0" encoding="utf-8" standalone="no"?>
<!DOCTYPE svg PUBLIC "-//W3C//DTD SVG 1.1//EN"
  "http://www.w3.org/Graphics/SVG/1.1/DTD/svg11.dtd">
<svg xmlns:xlink="http://www.w3.org/1999/xlink" width="108pt" height="72pt" viewBox="0 0 108 72" xmlns="http://www.w3.org/2000/svg" version="1.1">
 <metadata>
  <rdf:RDF xmlns:dc="http://purl.org/dc/elements/1.1/" xmlns:cc="http://creativecommons.org/ns#" xmlns:rdf="http://www.w3.org/1999/02/22-rdf-syntax-ns#">
   <cc:Work>
    <dc:type rdf:resource="http://purl.org/dc/dcmitype/StillImage"/>
    <dc:date>2023-11-22T10:39:37.947856</dc:date>
    <dc:format>image/svg+xml</dc:format>
    <dc:creator>
     <cc:Agent>
      <dc:title>Matplotlib v3.7.2, https://matplotlib.org/</dc:title>
     </cc:Agent>
    </dc:creator>
   </cc:Work>
  </rdf:RDF>
 </metadata>
 <defs>
  <style type="text/css">*{stroke-linejoin: round; stroke-linecap: butt}</style>
 </defs>
 <g id="figure_1">
  <g id="patch_1">
   <path d="M 0 72 
L 108 72 
L 108 0 
L 0 0 
L 0 72 
z
" style="fill: none"/>
  </g>
  <g id="axes_1">
   <g id="patch_2">
    <path d="M 13.5 64.08 
L 97.2 64.08 
L 97.2 8.64 
L 13.5 8.64 
L 13.5 64.08 
z
" style="fill: none"/>
   </g>
   <g id="PolyCollection_1">
    <path d="M 11.52375 61.56 
L 11.52375 61.558132 
L 11.826 61.55532 
L 12.12825 61.55179 
L 12.4305 61.547711 
L 12.73275 61.543035 
L 13.035 61.537702 
L 13.33725 61.531652 
L 13.6395 61.525041 
L 13.94175 61.517638 
L 14.244 61.509621 
L 14.54625 61.501003 
L 14.8485 61.491804 
L 15.15075 61.482056 
L 15.453 61.471799 
L 15.75525 61.46107 
L 16.0575 61.449895 
L 16.35975 61.438278 
L 16.662 61.426205 
L 16.96425 61.413836 
L 17.2665 61.400907 
L 17.56875 61.387319 
L 17.871 61.37318 
L 18.17325 61.358195 
L 18.4755 61.342264 
L 18.77775 61.325533 
L 19.08 61.307746 
L 19.38225 61.289109 
L 19.6845 61.269423 
L 19.98675 61.24895 
L 20.289 61.22774 
L 20.59125 61.205656 
L 20.8935 61.182953 
L 21.19575 61.159642 
L 21.498 61.135511 
L 21.80025 61.110703 
L 22.1025 61.08511 
L 22.40475 61.058574 
L 22.707 61.030934 
L 23.00925 61.001789 
L 23.3115 60.971161 
L 23.61375 60.938891 
L 23.916 60.904856 
L 24.21825 60.868983 
L 24.5205 60.831249 
L 24.82275 60.791689 
L 25.125 60.75036 
L 25.42725 60.70735 
L 25.7295 60.662725 
L 26.03175 60.616524 
L 26.334 60.568725 
L 26.63625 60.519232 
L 26.9385 60.467859 
L 27.24075 60.414545 
L 27.543 60.358734 
L 27.84525 60.300061 
L 28.1475 60.238101 
L 28.44975 60.172452 
L 28.752 60.102982 
L 29.05425 60.029224 
L 29.3565 59.950987 
L 29.65875 59.86839 
L 29.961 59.781241 
L 30.26325 59.689578 
L 30.5655 59.593694 
L 30.86775 59.493377 
L 31.17 59.388808 
L 31.47225 59.279557 
L 31.7745 59.165465 
L 32.07675 59.04596 
L 32.379 58.920098 
L 32.68125 58.787178 
L 32.9835 58.646165 
L 33.28575 58.49579 
L 33.588 58.335233 
L 33.89025 58.163572 
L 34.1925 57.980029 
L 34.49475 57.784038 
L 34.797 57.575279 
L 35.09925 57.353558 
L 35.4015 57.118803 
L 35.70375 56.870933 
L 36.006 56.609725 
L 36.30825 56.334783 
L 36.6105 56.04484 
L 36.91275 55.738441 
L 37.215 55.413087 
L 37.51725 55.065533 
L 37.8195 54.691747 
L 38.12175 54.287194 
L 38.424 53.846883 
L 38.72625 53.36614 
L 39.0285 52.837539 
L 39.33075 52.255967 
L 39.633 51.617041 
L 39.93525 50.917428 
L 40.2375 50.15522 
L 40.53975 49.330126 
L 40.842 48.443623 
L 41.14425 47.499394 
L 41.4465 46.502476 
L 41.74875 45.459822 
L 42.051 44.379605 
L 42.35325 43.271295 
L 42.35325 43.64 
L 42.35325 43.64 
L 42.051 47 
L 41.74875 51.48 
L 41.4465 61.56 
L 41.14425 61.56 
L 40.842 61.56 
L 40.53975 61.56 
L 40.2375 61.56 
L 39.93525 61.56 
L 39.633 61.56 
L 39.33075 61.56 
L 39.0285 61.56 
L 38.72625 61.56 
L 38.424 61.56 
L 38.12175 61.56 
L 37.8195 61.56 
L 37.51725 61.56 
L 37.215 61.56 
L 36.91275 61.56 
L 36.6105 61.56 
L 36.30825 61.56 
L 36.006 61.56 
L 35.70375 61.56 
L 35.4015 61.56 
L 35.09925 61.56 
L 34.797 61.56 
L 34.49475 61.56 
L 34.1925 61.56 
L 33.89025 61.56 
L 33.588 61.56 
L 33.28575 61.56 
L 32.9835 61.56 
L 32.68125 61.56 
L 32.379 61.56 
L 32.07675 61.56 
L 31.7745 61.56 
L 31.47225 61.56 
L 31.17 61.56 
L 30.86775 61.56 
L 30.5655 61.56 
L 30.26325 61.56 
L 29.961 61.56 
L 29.65875 61.56 
L 29.3565 61.56 
L 29.05425 61.56 
L 28.752 61.56 
L 28.44975 61.56 
L 28.1475 61.56 
L 27.84525 61.56 
L 27.543 61.56 
L 27.24075 61.56 
L 26.9385 61.56 
L 26.63625 61.56 
L 26.334 61.56 
L 26.03175 61.56 
L 25.7295 61.56 
L 25.42725 61.56 
L 25.125 61.56 
L 24.82275 61.56 
L 24.5205 61.56 
L 24.21825 61.56 
L 23.916 61.56 
L 23.61375 61.56 
L 23.3115 61.56 
L 23.00925 61.56 
L 22.707 61.56 
L 22.40475 61.56 
L 22.1025 61.56 
L 21.80025 61.56 
L 21.498 61.56 
L 21.19575 61.56 
L 20.8935 61.56 
L 20.59125 61.56 
L 20.289 61.56 
L 19.98675 61.56 
L 19.6845 61.56 
L 19.38225 61.56 
L 19.08 61.56 
L 18.77775 61.56 
L 18.4755 61.56 
L 18.17325 61.56 
L 17.871 61.56 
L 17.56875 61.56 
L 17.2665 61.56 
L 16.96425 61.56 
L 16.662 61.56 
L 16.35975 61.56 
L 16.0575 61.56 
L 15.75525 61.56 
L 15.453 61.56 
L 15.15075 61.56 
L 14.8485 61.56 
L 14.54625 61.56 
L 14.244 61.56 
L 13.94175 61.56 
L 13.6395 61.56 
L 13.33725 61.56 
L 13.035 61.56 
L 12.73275 61.56 
L 12.4305 61.56 
L 12.12825 61.56 
L 11.826 61.56 
L 11.52375 61.56 
z
" clip-path="url(#p3001d00b74)" style="fill: #2ca02c; fill-opacity: 0.2; stroke: #2ca02c; stroke-opacity: 0.2"/>
    <path d="M 68.0445 43.64 
L 68.0445 43.271289 
L 68.34675 44.379605 
L 68.649 45.459824 
L 68.95125 46.502471 
L 69.2535 47.499402 
L 69.55575 48.443618 
L 69.858 49.330124 
L 70.16025 50.155216 
L 70.4625 50.917429 
L 70.76475 51.617047 
L 71.067 52.255967 
L 71.36925 52.83754 
L 71.6715 53.36614 
L 71.97375 53.846884 
L 72.276 54.287193 
L 72.57825 54.691746 
L 72.8805 55.065535 
L 73.18275 55.413087 
L 73.485 55.738443 
L 73.78725 56.04484 
L 74.0895 56.334783 
L 74.39175 56.609725 
L 74.694 56.870934 
L 74.99625 57.118802 
L 75.2985 57.353558 
L 75.60075 57.57528 
L 75.903 57.784038 
L 76.20525 57.980029 
L 76.5075 58.163571 
L 76.80975 58.335233 
L 77.112 58.495791 
L 77.41425 58.646164 
L 77.7165 58.787178 
L 78.01875 58.920098 
L 78.321 59.045961 
L 78.62325 59.165465 
L 78.9255 59.279557 
L 79.22775 59.388807 
L 79.53 59.493378 
L 79.83225 59.593694 
L 80.1345 59.689578 
L 80.43675 59.781241 
L 80.739 59.86839 
L 81.04125 59.950987 
L 81.3435 60.029224 
L 81.64575 60.102983 
L 81.948 60.172452 
L 82.25025 60.2381 
L 82.5525 60.300061 
L 82.85475 60.358734 
L 83.157 60.414545 
L 83.45925 60.467859 
L 83.7615 60.519232 
L 84.06375 60.568725 
L 84.366 60.616524 
L 84.66825 60.662725 
L 84.9705 60.70735 
L 85.27275 60.75036 
L 85.575 60.791689 
L 85.87725 60.831249 
L 86.1795 60.868983 
L 86.48175 60.904856 
L 86.784 60.938892 
L 87.08625 60.971161 
L 87.3885 61.001789 
L 87.69075 61.030934 
L 87.993 61.058574 
L 88.29525 61.08511 
L 88.5975 61.110703 
L 88.89975 61.135511 
L 89.202 61.159642 
L 89.50425 61.182953 
L 89.8065 61.205656 
L 90.10875 61.22774 
L 90.411 61.24895 
L 90.71325 61.269423 
L 91.0155 61.289109 
L 91.31775 61.307746 
L 91.62 61.325533 
L 91.92225 61.342264 
L 92.2245 61.358195 
L 92.52675 61.37318 
L 92.829 61.387319 
L 93.13125 61.400907 
L 93.4335 61.413836 
L 93.73575 61.426205 
L 94.038 61.438278 
L 94.34025 61.449895 
L 94.6425 61.46107 
L 94.94475 61.471799 
L 95.247 61.482056 
L 95.54925 61.491804 
L 95.8515 61.501003 
L 96.15375 61.509621 
L 96.456 61.517638 
L 96.75825 61.525041 
L 97.0605 61.531652 
L 97.36275 61.537702 
L 97.665 61.543035 
L 97.96725 61.547711 
L 98.2695 61.55179 
L 98.57175 61.55532 
L 98.874 61.558132 
L 98.874 61.56 
L 98.874 61.56 
L 98.57175 61.56 
L 98.2695 61.56 
L 97.96725 61.56 
L 97.665 61.56 
L 97.36275 61.56 
L 97.0605 61.56 
L 96.75825 61.56 
L 96.456 61.56 
L 96.15375 61.56 
L 95.8515 61.56 
L 95.54925 61.56 
L 95.247 61.56 
L 94.94475 61.56 
L 94.6425 61.56 
L 94.34025 61.56 
L 94.038 61.56 
L 93.73575 61.56 
L 93.4335 61.56 
L 93.13125 61.56 
L 92.829 61.56 
L 92.52675 61.56 
L 92.2245 61.56 
L 91.92225 61.56 
L 91.62 61.56 
L 91.31775 61.56 
L 91.0155 61.56 
L 90.71325 61.56 
L 90.411 61.56 
L 90.10875 61.56 
L 89.8065 61.56 
L 89.50425 61.56 
L 89.202 61.56 
L 88.89975 61.56 
L 88.5975 61.56 
L 88.29525 61.56 
L 87.993 61.56 
L 87.69075 61.56 
L 87.3885 61.56 
L 87.08625 61.56 
L 86.784 61.56 
L 86.48175 61.56 
L 86.1795 61.56 
L 85.87725 61.56 
L 85.575 61.56 
L 85.27275 61.56 
L 84.9705 61.56 
L 84.66825 61.56 
L 84.366 61.56 
L 84.06375 61.56 
L 83.7615 61.56 
L 83.45925 61.56 
L 83.157 61.56 
L 82.85475 61.56 
L 82.5525 61.56 
L 82.25025 61.56 
L 81.948 61.56 
L 81.64575 61.56 
L 81.3435 61.56 
L 81.04125 61.56 
L 80.739 61.56 
L 80.43675 61.56 
L 80.1345 61.56 
L 79.83225 61.56 
L 79.53 61.56 
L 79.22775 61.56 
L 78.9255 61.56 
L 78.62325 61.56 
L 78.321 61.56 
L 78.01875 61.56 
L 77.7165 61.56 
L 77.41425 61.56 
L 77.112 61.56 
L 76.80975 61.56 
L 76.5075 61.56 
L 76.20525 61.56 
L 75.903 61.56 
L 75.60075 61.56 
L 75.2985 61.56 
L 74.99625 61.56 
L 74.694 61.56 
L 74.39175 61.56 
L 74.0895 61.56 
L 73.78725 61.56 
L 73.485 61.56 
L 73.18275 61.56 
L 72.8805 61.56 
L 72.57825 61.56 
L 72.276 61.56 
L 71.97375 61.56 
L 71.6715 61.56 
L 71.36925 61.56 
L 71.067 61.56 
L 70.76475 61.56 
L 70.4625 61.56 
L 70.16025 61.56 
L 69.858 61.56 
L 69.55575 61.56 
L 69.2535 61.56 
L 68.95125 61.56 
L 68.649 51.48 
L 68.34675 47 
L 68.0445 43.64 
z
" clip-path="url(#p3001d00b74)" style="fill: #2ca02c; fill-opacity: 0.2; stroke: #2ca02c; stroke-opacity: 0.2"/>
   </g>
   <g id="PolyCollection_2">
    <defs>
     <path id="m2921631ed4" d="M 42.6555 -30.6 
L 42.6555 -29.855549 
L 42.95775 -30.990749 
L 43.26 -32.124666 
L 43.56225 -33.24816 
L 43.8645 -34.353245 
L 44.16675 -35.433249 
L 44.469 -36.482856 
L 44.77125 -37.498368 
L 45.0735 -38.477203 
L 45.37575 -39.418676 
L 45.678 -40.322586 
L 45.98025 -41.190099 
L 46.2825 -42.022529 
L 46.58475 -42.821946 
L 46.887 -43.589816 
L 47.18925 -44.32793 
L 47.4915 -45.03757 
L 47.79375 -45.719381 
L 48.096 -46.374049 
L 48.39825 -47.001239 
L 48.7005 -47.600916 
L 49.00275 -48.172332 
L 49.305 -48.714789 
L 49.60725 -49.227796 
L 49.9095 -49.71091 
L 50.21175 -50.163889 
L 50.514 -50.586871 
L 50.81625 -50.980287 
L 51.1185 -51.344515 
L 51.42075 -51.680595 
L 51.723 -51.989092 
L 52.02525 -52.271299 
L 52.3275 -52.527593 
L 52.62975 -52.758603 
L 52.932 -52.964778 
L 53.23425 -53.14596 
L 53.5365 -53.302496 
L 53.83875 -53.434128 
L 54.141 -53.540184 
L 54.44325 -53.620229 
L 54.7455 -53.674018 
L 55.04775 -53.700832 
L 55.35 -53.700837 
L 55.65225 -53.674018 
L 55.9545 -53.620204 
L 56.25675 -53.540181 
L 56.559 -53.434125 
L 56.86125 -53.302496 
L 57.1635 -53.145955 
L 57.46575 -52.964786 
L 57.768 -52.758585 
L 58.07025 -52.527591 
L 58.3725 -52.271276 
L 58.67475 -51.989072 
L 58.977 -51.680569 
L 59.27925 -51.344507 
L 59.5815 -50.980311 
L 59.88375 -50.586868 
L 60.186 -50.163886 
L 60.48825 -49.710928 
L 60.7905 -49.227781 
L 61.09275 -48.714794 
L 61.395 -48.172317 
L 61.69725 -47.600921 
L 61.9995 -47.001252 
L 62.30175 -46.374041 
L 62.604 -45.719399 
L 62.90625 -45.037572 
L 63.2085 -44.327923 
L 63.51075 -43.589806 
L 63.813 -42.82193 
L 64.11525 -42.022524 
L 64.4175 -41.190099 
L 64.71975 -40.322599 
L 65.022 -39.418674 
L 65.32425 -38.477192 
L 65.6265 -37.49836 
L 65.92875 -36.482854 
L 66.231 -35.433238 
L 66.53325 -34.353242 
L 66.8355 -33.248155 
L 67.13775 -32.124664 
L 67.44 -30.990744 
L 67.74225 -29.855545 
L 67.74225 -30.6 
L 67.74225 -30.6 
L 67.44 -32.84 
L 67.13775 -35.08 
L 66.8355 -37.32 
L 66.53325 -38.44 
L 66.231 -40.68 
L 65.92875 -41.8 
L 65.6265 -42.92 
L 65.32425 -44.04 
L 65.022 -45.16 
L 64.71975 -46.28 
L 64.4175 -47.4 
L 64.11525 -48.52 
L 63.813 -49.64 
L 63.51075 -50.76 
L 63.2085 -50.76 
L 62.90625 -51.88 
L 62.604 -53 
L 62.30175 -53 
L 61.9995 -54.12 
L 61.69725 -55.24 
L 61.395 -55.24 
L 61.09275 -56.36 
L 60.7905 -56.36 
L 60.48825 -57.48 
L 60.186 -57.48 
L 59.88375 -57.48 
L 59.5815 -58.6 
L 59.27925 -58.6 
L 58.977 -58.6 
L 58.67475 -59.72 
L 58.3725 -59.72 
L 58.07025 -59.72 
L 57.768 -59.72 
L 57.46575 -59.72 
L 57.1635 -60.84 
L 56.86125 -60.84 
L 56.559 -60.84 
L 56.25675 -60.84 
L 55.9545 -60.84 
L 55.65225 -60.84 
L 55.35 -60.84 
L 55.04775 -60.84 
L 54.7455 -60.84 
L 54.44325 -60.84 
L 54.141 -60.84 
L 53.83875 -60.84 
L 53.5365 -60.84 
L 53.23425 -60.84 
L 52.932 -59.72 
L 52.62975 -59.72 
L 52.3275 -59.72 
L 52.02525 -59.72 
L 51.723 -59.72 
L 51.42075 -58.6 
L 51.1185 -58.6 
L 50.81625 -58.6 
L 50.514 -57.48 
L 50.21175 -57.48 
L 49.9095 -57.48 
L 49.60725 -56.36 
L 49.305 -56.36 
L 49.00275 -55.24 
L 48.7005 -55.24 
L 48.39825 -54.12 
L 48.096 -53 
L 47.79375 -53 
L 47.4915 -51.88 
L 47.18925 -50.76 
L 46.887 -50.76 
L 46.58475 -49.64 
L 46.2825 -48.52 
L 45.98025 -47.4 
L 45.678 -46.28 
L 45.37575 -45.16 
L 45.0735 -44.04 
L 44.77125 -42.92 
L 44.469 -41.8 
L 44.16675 -40.68 
L 43.8645 -38.44 
L 43.56225 -37.32 
L 43.26 -35.08 
L 42.95775 -32.84 
L 42.6555 -30.6 
z
" style="stroke: #d62728; stroke-opacity: 0.2"/>
    </defs>
    <g clip-path="url(#p3001d00b74)">
     <use xlink:href="#m2921631ed4" x="0" y="72" style="fill: #d62728; fill-opacity: 0.2; stroke: #d62728; stroke-opacity: 0.2"/>
    </g>
   </g>
   <g id="matplotlib.axis_1">
    <g id="xtick_1">
     <g id="line2d_1">
      <defs>
       <path id="m378e56da12" d="M 0 0 
L 0 3.5 
" style="stroke: #000000; stroke-width: 0.8"/>
      </defs>
      <g>
       <use xlink:href="#m378e56da12" x="27.45" y="64.08" style="stroke: #000000; stroke-width: 0.8"/>
      </g>
     </g>
     <g id="text_1">
      <text style="font: 6px 'DejaVu Sans', 'Arial', 'Helvetica', 'Lucida Grande', 'Verdana', 'Geneva', 'Lucid', 'Avant Garde', sans-serif; text-anchor: middle" x="27.45" y="75.639062" transform="rotate(-0 27.45 75.639062)">−1</text>
     </g>
    </g>
    <g id="xtick_2">
     <g id="line2d_2">
      <g>
       <use xlink:href="#m378e56da12" x="55.35" y="64.08" style="stroke: #000000; stroke-width: 0.8"/>
      </g>
     </g>
     <g id="text_2">
      <text style="font: 6px 'DejaVu Sans', 'Arial', 'Helvetica', 'Lucida Grande', 'Verdana', 'Geneva', 'Lucid', 'Avant Garde', sans-serif; text-anchor: middle" x="55.35" y="75.639062" transform="rotate(-0 55.35 75.639062)">0</text>
     </g>
    </g>
    <g id="xtick_3">
     <g id="line2d_3">
      <g>
       <use xlink:href="#m378e56da12" x="83.25" y="64.08" style="stroke: #000000; stroke-width: 0.8"/>
      </g>
     </g>
     <g id="text_3">
      <text style="font: 6px 'DejaVu Sans', 'Arial', 'Helvetica', 'Lucida Grande', 'Verdana', 'Geneva', 'Lucid', 'Avant Garde', sans-serif; text-anchor: middle" x="83.25" y="75.639062" transform="rotate(-0 83.25 75.639062)">1</text>
     </g>
    </g>
    <g id="text_4">
     <!-- Profile $\mu m$ -->
     <g transform="translate(40.11 85.446875)">
      <text>
       <tspan style="font: 6px 'DejaVu Sans'" x="0 3.618164 6.084961 9.755859 11.868164 13.535156 15.202148 18.893555" y="-0.4375">Profile </tspan>
       <tspan style="font: oblique 6px 'DejaVu Sans'" x="20.800781 24.618164" y="-0.4375">μm</tspan>
      </text>
     </g>
    </g>
   </g>
   <g id="matplotlib.axis_2">
    <g id="ytick_1">
     <g id="line2d_4">
      <defs>
       <path id="m2794ba5174" d="M 0 0 
L -3.5 0 
" style="stroke: #000000; stroke-width: 0.8"/>
      </defs>
      <g>
       <use xlink:href="#m2794ba5174" x="13.5" y="61.56" style="stroke: #000000; stroke-width: 0.8"/>
      </g>
     </g>
     <g id="text_5">
      <text style="font: 6px 'DejaVu Sans', 'Arial', 'Helvetica', 'Lucida Grande', 'Verdana', 'Geneva', 'Lucid', 'Avant Garde', sans-serif; text-anchor: end" x="6.5" y="63.839531" transform="rotate(-0 6.5 63.839531)">0.0</text>
     </g>
    </g>
    <g id="ytick_2">
     <g id="line2d_5">
      <g>
       <use xlink:href="#m2794ba5174" x="13.5" y="39.929581" style="stroke: #000000; stroke-width: 0.8"/>
      </g>
     </g>
     <g id="text_6">
      <text style="font: 6px 'DejaVu Sans', 'Arial', 'Helvetica', 'Lucida Grande', 'Verdana', 'Geneva', 'Lucid', 'Avant Garde', sans-serif; text-anchor: end" x="6.5" y="42.209113" transform="rotate(-0 6.5 42.209113)">0.5</text>
     </g>
    </g>
    <g id="ytick_3">
     <g id="line2d_6">
      <g>
       <use xlink:href="#m2794ba5174" x="13.5" y="18.299163" style="stroke: #000000; stroke-width: 0.8"/>
      </g>
     </g>
     <g id="text_7">
      <text style="font: 6px 'DejaVu Sans', 'Arial', 'Helvetica', 'Lucida Grande', 'Verdana', 'Geneva', 'Lucid', 'Avant Garde', sans-serif; text-anchor: end" x="6.5" y="20.578694" transform="rotate(-0 6.5 20.578694)">1.0</text>
     </g>
    </g>
    <g id="text_8">
     <text style="font: 6px 'DejaVu Sans', 'Arial', 'Helvetica', 'Lucida Grande', 'Verdana', 'Geneva', 'Lucid', 'Avant Garde', sans-serif; text-anchor: middle" x="-8.289687" y="36.36" transform="rotate(-90 -8.289687 36.36)">Intensity (AU)</text>
    </g>
   </g>
   <g id="line2d_7">
    <path d="M -1 61.56 
L 16.0575 61.449895 
L 21.498 61.135511 
L 25.42725 60.70735 
L 28.44975 60.172452 
L 30.5655 59.593694 
L 32.68125 58.787178 
L 34.1925 57.980029 
L 35.70375 56.870933 
L 36.91275 55.738441 
L 38.12175 54.287194 
L 39.0285 52.837539 
L 39.93525 50.917428 
L 40.842 48.443623 
L 42.051 44.379605 
L 45.37575 32.581324 
L 46.887 28.410184 
L 48.39825 24.998761 
L 49.60725 22.772204 
L 50.81625 21.019713 
L 52.02525 19.728701 
L 52.932 19.035222 
L 53.83875 18.565872 
L 54.7455 18.325982 
L 55.65225 18.325982 
L 56.559 18.565875 
L 57.46575 19.035214 
L 58.3725 19.728724 
L 59.27925 20.655493 
L 60.186 21.836114 
L 61.395 23.827683 
L 62.604 26.280601 
L 63.813 29.17807 
L 65.022 32.581326 
L 66.53325 37.646758 
L 69.55575 48.443618 
L 70.4625 50.917429 
L 71.36925 52.83754 
L 72.276 54.287193 
L 73.485 55.738443 
L 74.99625 57.118802 
L 76.5075 58.163571 
L 78.01875 58.920098 
L 80.1345 59.689578 
L 82.25025 60.2381 
L 85.27275 60.75036 
L 88.89975 61.135511 
L 94.038 61.438278 
L 100.083 61.56 
L 109 61.56 
L 109 61.56 
" clip-path="url(#p3001d00b74)" style="fill: none; stroke: #1f77b4; stroke-linecap: square"/>
   </g>
   <g id="line2d_8">
    <path d="M -1 61.56 
L 41.4465 61.56 
L 41.74875 51.48 
L 42.35325 43.64 
L 43.56225 34.68 
L 43.8645 33.56 
L 44.16675 31.32 
L 46.887 21.24 
L 47.18925 21.24 
L 47.79375 19 
L 48.096 19 
L 48.7005 16.76 
L 49.00275 16.76 
L 49.305 15.64 
L 49.60725 15.64 
L 49.9095 14.52 
L 50.514 14.52 
L 50.81625 13.4 
L 51.42075 13.4 
L 51.723 12.28 
L 52.932 12.28 
L 53.23425 11.16 
L 57.1635 11.16 
L 57.46575 12.28 
L 58.67475 12.28 
L 58.977 13.4 
L 59.5815 13.4 
L 59.88375 14.52 
L 60.48825 14.52 
L 60.7905 15.64 
L 61.09275 15.64 
L 61.395 16.76 
L 61.69725 16.76 
L 62.30175 19 
L 62.604 19 
L 63.2085 21.24 
L 63.51075 21.24 
L 66.231 31.32 
L 66.53325 33.56 
L 66.8355 34.68 
L 68.0445 43.64 
L 68.649 51.48 
L 68.95125 61.56 
L 109 61.56 
L 109 61.56 
" clip-path="url(#p3001d00b74)" style="fill: none; stroke: #ff7f0e; stroke-linecap: square"/>
   </g>
   <g id="patch_3">
    <path d="M 13.5 64.08 
L 13.5 8.64 
" style="fill: none; stroke: #000000; stroke-width: 0.5; stroke-linejoin: miter; stroke-linecap: square"/>
   </g>
   <g id="patch_4">
    <path d="M 13.5 64.08 
L 97.2 64.08 
" style="fill: none; stroke: #000000; stroke-width: 0.5; stroke-linejoin: miter; stroke-linecap: square"/>
   </g>
   <g id="legend_1">
    <g id="patch_5">
     <path d="M 1.5225 54.87375 
L 93 54.87375 
Q 94.2 54.87375 94.2 53.67375 
L 94.2 19.04625 
Q 94.2 17.84625 93 17.84625 
L 1.5225 17.84625 
Q 0.3225 17.84625 0.3225 19.04625 
L 0.3225 53.67375 
Q 0.3225 54.87375 1.5225 54.87375 
z
" style="fill: #ffffff; opacity: 0.8; stroke: #cccccc; stroke-linejoin: miter"/>
    </g>
    <g id="line2d_9">
     <path d="M 2.7225 22.705312 
L 8.7225 22.705312 
L 14.7225 22.705312 
" style="fill: none; stroke: #1f77b4; stroke-linecap: square"/>
    </g>
    <g id="text_9">
     <text style="font: 6px 'DejaVu Sans', 'Arial', 'Helvetica', 'Lucida Grande', 'Verdana', 'Geneva', 'Lucid', 'Avant Garde', sans-serif; text-anchor: start" x="19.5225" y="24.805312" transform="rotate(-0 19.5225 24.805312)">Observation</text>
    </g>
    <g id="line2d_10">
     <path d="M 2.7225 31.512188 
L 8.7225 31.512188 
L 14.7225 31.512188 
" style="fill: none; stroke: #ff7f0e; stroke-linecap: square"/>
    </g>
    <g id="text_10">
     <text style="font: 6px 'DejaVu Sans', 'Arial', 'Helvetica', 'Lucida Grande', 'Verdana', 'Geneva', 'Lucid', 'Avant Garde', sans-serif; text-anchor: start" x="19.5225" y="33.612188" transform="rotate(-0 19.5225 33.612188)">Ground truth</text>
    </g>
    <g id="patch_6">
     <path d="M 2.7225 42.419062 
L 14.7225 42.419062 
L 14.7225 38.219062 
L 2.7225 38.219062 
z
" style="fill: #2ca02c; fill-opacity: 0.2; stroke: #2ca02c; stroke-opacity: 0.2; stroke-linejoin: miter"/>
    </g>
    <g id="text_11">
     <text style="font: 6px 'DejaVu Sans', 'Arial', 'Helvetica', 'Lucida Grande', 'Verdana', 'Geneva', 'Lucid', 'Avant Garde', sans-serif; text-anchor: start" x="19.5225" y="42.419062" transform="rotate(-0 19.5225 42.419062)">Beyond border intensity</text>
    </g>
    <g id="patch_7">
     <path d="M 2.7225 51.225938 
L 14.7225 51.225938 
L 14.7225 47.025937 
L 2.7225 47.025937 
z
" style="fill: #d62728; fill-opacity: 0.2; stroke: #d62728; stroke-opacity: 0.2; stroke-linejoin: miter"/>
    </g>
    <g id="text_12">
     <text style="font: 6px 'DejaVu Sans', 'Arial', 'Helvetica', 'Lucida Grande', 'Verdana', 'Geneva', 'Lucid', 'Avant Garde', sans-serif; text-anchor: start" x="19.5225" y="51.225938" transform="rotate(-0 19.5225 51.225938)">Lost intensity</text>
    </g>
   </g>
  </g>
 </g>
 <defs>
  <clipPath id="p3001d00b74">
   <rect x="13.5" y="8.64" width="83.7" height="55.44"/>
  </clipPath>
 </defs>
</svg>
