<?xml version="1.0" encoding="utf-8" standalone="no"?>
<!DOCTYPE svg PUBLIC "-//W3C//DTD SVG 1.1//EN"
  "http://www.w3.org/Graphics/SVG/1.1/DTD/svg11.dtd">
<svg xmlns:xlink="http://www.w3.org/1999/xlink" width="144pt" height="144pt" viewBox="0 0 144 144" xmlns="http://www.w3.org/2000/svg" version="1.1">
 <metadata>
  <rdf:RDF xmlns:dc="http://purl.org/dc/elements/1.1/" xmlns:cc="http://creativecommons.org/ns#" xmlns:rdf="http://www.w3.org/1999/02/22-rdf-syntax-ns#">
   <cc:Work>
    <dc:type rdf:resource="http://purl.org/dc/dcmitype/StillImage"/>
    <dc:date>2023-10-09T13:52:46.091681</dc:date>
    <dc:format>image/svg+xml</dc:format>
    <dc:creator>
     <cc:Agent>
      <dc:title>Matplotlib v3.7.2, https://matplotlib.org/</dc:title>
     </cc:Agent>
    </dc:creator>
   </cc:Work>
  </rdf:RDF>
 </metadata>
 <defs>
  <style type="text/css">*{stroke-linejoin: round; stroke-linecap: butt}</style>
 </defs>
 <g id="figure_1">
  <g id="patch_1">
   <path d="M 0 144 
L 144 144 
L 144 0 
L 0 0 
L 0 144 
z
" style="fill: none"/>
  </g>
  <g id="axes_1">
   <g id="patch_2">
    <path d="M 30.86 114.232 
L 137.52 114.232 
L 137.52 23.712 
L 30.86 23.712 
L 30.86 114.232 
z
" style="fill: none"/>
   </g>
   <g id="PolyCollection_1">
    <defs>
     <path id="mda384ea378" d="M 35.708182 -38.398471 
L 35.708182 -33.882545 
L 47.854457 -36.794719 
L 54.959572 -38.409383 
L 60.000732 -43.153098 
L 63.910959 -46.728517 
L 67.105848 -47.920415 
L 69.807087 -48.288297 
L 72.147007 -54.66802 
L 74.210963 -57.324258 
L 76.057234 -60.587872 
L 77.72739 -60.514626 
L 79.252123 -61.501998 
L 80.654741 -65.015789 
L 81.953362 -60.460101 
L 83.16235 -65.915394 
L 84.293282 -69.016638 
L 85.35563 -71.472678 
L 86.357238 -64.273804 
L 87.304678 -71.824949 
L 88.20351 -74.331728 
L 89.058478 -70.461401 
L 89.873665 -71.638507 
L 90.65261 -73.713389 
L 92.113737 -75.736595 
L 92.801016 -78.95186 
L 93.462354 -80.051142 
L 94.099637 -72.131136 
L 94.714556 -80.201046 
L 95.308625 -81.475397 
L 96.439557 -80.744685 
L 96.978781 -74.740905 
L 97.501905 -82.739429 
L 98.009865 -86.212263 
L 98.503513 -81.083923 
L 98.983636 -84.184677 
L 99.450953 -87.451933 
L 99.906131 -86.636895 
L 100.349785 -86.267701 
L 100.782483 -87.155823 
L 101.204753 -85.164815 
L 101.617086 -90.628836 
L 102.01994 -90.876076 
L 103.544673 -86.420882 
L 103.905992 -90.156672 
L 104.260012 -89.892417 
L 104.947291 -84.878942 
L 105.28108 -94.228327 
L 106.245913 -88.383549 
L 106.556069 -89.838638 
L 106.860831 -92.125004 
L 107.160383 -88.790131 
L 107.4549 -92.4527 
L 108.029488 -96.142837 
L 108.585833 -91.505568 
L 108.857518 -96.724222 
L 110.15614 -90.072213 
L 110.404702 -93.692384 
L 110.649788 -96.662314 
L 110.891494 -99.011582 
L 111.129911 -88.571813 
L 111.365127 -95.016376 
L 111.826295 -93.391465 
L 112.052407 -99.487257 
L 112.928758 -92.273557 
L 113.141165 -100.01577 
L 113.351028 -96.784851 
L 113.763362 -97.751366 
L 113.965946 -98.401701 
L 114.364222 -92.888186 
L 114.753646 -100.412831 
L 115.322021 -95.766767 
L 115.507456 -101.019539 
L 116.230171 -101.03932 
L 116.753296 -100.174283 
L 116.924257 -97.308219 
L 117.093566 -99.291145 
L 117.427355 -99.259924 
L 118.076443 -101.274196 
L 118.547952 -103.247559 
L 118.702344 -101.872297 
L 118.855387 -98.72122 
L 119.007106 -102.325794 
L 119.746598 -101.285182 
L 120.175764 -100.519416 
L 120.316514 -102.454506 
L 120.456143 -97.984 
L 120.732108 -103.824111 
L 120.868477 -104.796197 
L 121.534845 -101.847162 
L 122.050276 -104.002262 
L 122.427137 -104.25832 
L 122.550977 -101.180305 
L 122.673949 -105.224604 
L 122.796064 -106.380027 
L 123.394189 -101.266176 
L 123.743504 -106.646029 
L 124.751515 -103.649587 
L 125.28744 -103.143242 
L 125.392686 -108.276031 
L 125.497303 -107.531987 
L 125.6013 -108.14233 
L 125.704683 -103.782301 
L 126.608667 -106.448191 
L 127.091435 -107.919172 
L 128.198543 -109.489506 
L 128.376446 -106.921106 
L 128.552562 -109.414874 
L 128.98526 -108.732455 
L 129.070532 -108.549067 
L 129.323886 -109.627107 
L 129.819864 -107.504408 
L 129.982119 -109.777216 
L 130.616518 -112.271184 
L 130.694227 -110.631906 
L 131.077686 -109.025122 
L 131.74745 -110.618039 
L 131.820313 -109.07928 
L 131.892873 -110.649452 
L 132.532743 -110.985031 
L 132.671818 -111.516944 
L 132.671818 -114.910015 
L 132.671818 -114.910015 
L 132.532743 -115.316185 
L 131.892873 -114.900357 
L 131.820313 -113.460916 
L 131.74745 -114.605259 
L 131.077686 -112.181797 
L 130.694227 -114.950883 
L 130.616518 -116.173455 
L 129.982119 -114.257897 
L 129.819864 -112.489082 
L 129.323886 -113.747616 
L 129.070532 -112.924456 
L 128.98526 -111.813649 
L 128.552562 -113.644858 
L 128.376446 -111.813271 
L 128.198543 -113.711764 
L 127.091435 -112.54232 
L 126.608667 -111.517824 
L 125.704683 -109.253112 
L 125.6013 -112.960777 
L 125.497303 -110.968269 
L 125.392686 -111.917698 
L 125.28744 -107.157863 
L 124.751515 -109.437978 
L 123.743504 -109.625293 
L 123.394189 -107.100853 
L 122.796064 -111.807236 
L 122.673949 -110.486588 
L 122.550977 -105.618561 
L 122.427137 -110.052798 
L 122.050276 -109.855049 
L 121.534845 -108.348008 
L 120.868477 -109.223496 
L 120.732108 -109.287523 
L 120.456143 -104.214083 
L 120.316514 -107.786051 
L 120.175764 -106.483175 
L 119.746598 -107.63666 
L 119.007106 -107.356764 
L 118.855387 -104.599216 
L 118.702344 -107.988876 
L 118.547952 -108.612363 
L 118.076443 -106.614127 
L 117.427355 -105.606167 
L 117.093566 -103.740946 
L 116.924257 -104.069628 
L 116.753296 -106.817724 
L 116.230171 -107.068012 
L 115.507456 -108.055697 
L 115.322021 -102.825437 
L 114.753646 -105.057031 
L 114.364222 -99.275574 
L 113.965946 -103.011131 
L 113.763362 -102.224851 
L 113.351028 -104.489861 
L 113.141165 -106.853978 
L 112.928758 -100.154701 
L 112.052407 -107.424872 
L 111.826295 -101.62034 
L 111.365127 -102.884829 
L 111.129911 -96.187898 
L 110.891494 -105.913912 
L 110.649788 -100.565988 
L 110.404702 -101.574815 
L 110.15614 -99.254724 
L 108.857518 -102.683196 
L 108.585833 -99.340232 
L 108.029488 -102.227322 
L 107.4549 -98.108793 
L 107.160383 -97.588422 
L 106.860831 -101.368871 
L 106.556069 -95.974644 
L 106.245913 -97.260822 
L 105.28108 -99.005175 
L 104.947291 -94.762272 
L 104.260012 -99.081329 
L 103.905992 -97.14583 
L 103.544673 -92.455045 
L 102.01994 -97.498766 
L 101.617086 -98.583224 
L 101.204753 -91.793094 
L 100.782483 -95.058828 
L 100.349785 -92.759973 
L 99.906131 -96.219533 
L 99.450953 -94.842799 
L 98.983636 -93.859597 
L 98.503513 -90.474686 
L 98.009865 -94.520869 
L 97.501905 -87.328425 
L 96.978781 -84.75447 
L 96.439557 -87.897568 
L 95.308625 -88.700634 
L 94.714556 -87.465333 
L 94.099637 -82.566467 
L 93.462354 -84.803116 
L 92.801016 -86.530883 
L 92.113737 -79.950264 
L 90.65261 -82.315465 
L 89.873665 -78.29319 
L 89.058478 -78.063505 
L 88.20351 -80.379513 
L 87.304678 -76.41946 
L 86.357238 -74.25493 
L 85.35563 -75.939257 
L 84.293282 -72.321799 
L 83.16235 -71.105372 
L 81.953362 -69.309694 
L 80.654741 -69.403006 
L 79.252123 -66.477121 
L 77.72739 -65.160849 
L 76.057234 -64.239798 
L 74.210963 -61.435999 
L 72.147007 -57.545794 
L 69.807087 -51.909516 
L 67.105848 -51.221867 
L 63.910959 -51.30128 
L 60.000732 -45.252751 
L 54.959572 -41.046872 
L 47.854457 -38.305987 
L 35.708182 -38.398471 
z
" style="stroke: #1f77b4; stroke-opacity: 0.2"/>
    </defs>
    <g clip-path="url(#pe24f8cecdf)">
     <use xlink:href="#mda384ea378" x="0" y="144" style="fill: #1f77b4; fill-opacity: 0.2; stroke: #1f77b4; stroke-opacity: 0.2"/>
    </g>
   </g>
   <g id="matplotlib.axis_1">
    <g id="xtick_1">
     <g id="line2d_1">
      <defs>
       <path id="maf1dd5b9d9" d="M 0 0 
L 0 3.5 
" style="stroke: #000000; stroke-width: 0.8"/>
      </defs>
      <g>
       <use xlink:href="#maf1dd5b9d9" x="35.708182" y="114.232" style="stroke: #000000; stroke-width: 0.8"/>
      </g>
     </g>
     <g id="text_1">
      <!-- $\mathdefault{10^{0}}$ -->
      <g transform="translate(30.428182 125.791062)">
       <text>
        <tspan style="font: 6px 'DejaVu Sans'" x="0 3.817383" y="-0.5859375">10</tspan>
        <tspan style="font: 4.2px 'DejaVu Sans'" x="7.692188" y="-2.8828125">0</tspan>
       </text>
      </g>
     </g>
    </g>
    <g id="xtick_2">
     <g id="line2d_2">
      <g>
       <use xlink:href="#maf1dd5b9d9" x="76.057234" y="114.232" style="stroke: #000000; stroke-width: 0.8"/>
      </g>
     </g>
     <g id="text_2">
      <!-- $\mathdefault{10^{1}}$ -->
      <g transform="translate(70.777234 125.791062)">
       <text>
        <tspan style="font: 6px 'DejaVu Sans'" x="0 3.817383" y="-0.640625">10</tspan>
        <tspan style="font: 4.2px 'DejaVu Sans'" x="7.692188" y="-2.9375">1</tspan>
       </text>
      </g>
     </g>
    </g>
    <g id="xtick_3">
     <g id="line2d_3">
      <g>
       <use xlink:href="#maf1dd5b9d9" x="116.406287" y="114.232" style="stroke: #000000; stroke-width: 0.8"/>
      </g>
     </g>
     <g id="text_3">
      <!-- $\mathdefault{10^{2}}$ -->
      <g transform="translate(111.126287 125.791062)">
       <text>
        <tspan style="font: 6px 'DejaVu Sans'" x="0 3.817383" y="-0.5859375">10</tspan>
        <tspan style="font: 4.2px 'DejaVu Sans'" x="7.692188" y="-2.8828125">2</tspan>
       </text>
      </g>
     </g>
    </g>
    <g id="xtick_4"/>
    <g id="xtick_5"/>
    <g id="xtick_6"/>
    <g id="xtick_7"/>
    <g id="xtick_8"/>
    <g id="xtick_9"/>
    <g id="xtick_10"/>
    <g id="xtick_11"/>
    <g id="xtick_12"/>
    <g id="xtick_13"/>
    <g id="xtick_14"/>
    <g id="xtick_15"/>
    <g id="xtick_16"/>
    <g id="xtick_17"/>
    <g id="xtick_18"/>
    <g id="xtick_19"/>
    <g id="xtick_20"/>
    <g id="xtick_21"/>
    <g id="xtick_22"/>
    <g id="xtick_23"/>
    <g id="text_4">
     <text style="font: 6px 'DejaVu Sans', 'Arial', 'Helvetica', 'Lucida Grande', 'Verdana', 'Geneva', 'Lucid', 'Avant Garde', sans-serif; text-anchor: middle" x="84.19" y="135.597938" transform="rotate(-0 84.19 135.597938)">Colony size (cells)</text>
    </g>
   </g>
   <g id="matplotlib.axis_2">
    <g id="ytick_1">
     <g id="line2d_4">
      <defs>
       <path id="m3adca55f87" d="M 0 0 
L -3.5 0 
" style="stroke: #000000; stroke-width: 0.8"/>
      </defs>
      <g>
       <use xlink:href="#m3adca55f87" x="30.86" y="104.664958" style="stroke: #000000; stroke-width: 0.8"/>
      </g>
     </g>
     <g id="text_5">
      <text style="font: 6px 'DejaVu Sans', 'Arial', 'Helvetica', 'Lucida Grande', 'Verdana', 'Geneva', 'Lucid', 'Avant Garde', sans-serif; text-anchor: end" x="23.86" y="106.944489" transform="rotate(-0 23.86 106.944489)">5</text>
     </g>
    </g>
    <g id="ytick_2">
     <g id="line2d_5">
      <g>
       <use xlink:href="#m3adca55f87" x="30.86" y="90.414271" style="stroke: #000000; stroke-width: 0.8"/>
      </g>
     </g>
     <g id="text_6">
      <text style="font: 6px 'DejaVu Sans', 'Arial', 'Helvetica', 'Lucida Grande', 'Verdana', 'Geneva', 'Lucid', 'Avant Garde', sans-serif; text-anchor: end" x="23.86" y="92.693802" transform="rotate(-0 23.86 92.693802)">6</text>
     </g>
    </g>
    <g id="ytick_3">
     <g id="line2d_6">
      <g>
       <use xlink:href="#m3adca55f87" x="30.86" y="76.163584" style="stroke: #000000; stroke-width: 0.8"/>
      </g>
     </g>
     <g id="text_7">
      <text style="font: 6px 'DejaVu Sans', 'Arial', 'Helvetica', 'Lucida Grande', 'Verdana', 'Geneva', 'Lucid', 'Avant Garde', sans-serif; text-anchor: end" x="23.86" y="78.443115" transform="rotate(-0 23.86 78.443115)">7</text>
     </g>
    </g>
    <g id="ytick_4">
     <g id="line2d_7">
      <g>
       <use xlink:href="#m3adca55f87" x="30.86" y="61.912897" style="stroke: #000000; stroke-width: 0.8"/>
      </g>
     </g>
     <g id="text_8">
      <text style="font: 6px 'DejaVu Sans', 'Arial', 'Helvetica', 'Lucida Grande', 'Verdana', 'Geneva', 'Lucid', 'Avant Garde', sans-serif; text-anchor: end" x="23.86" y="64.192428" transform="rotate(-0 23.86 64.192428)">8</text>
     </g>
    </g>
    <g id="ytick_5">
     <g id="line2d_8">
      <g>
       <use xlink:href="#m3adca55f87" x="30.86" y="47.66221" style="stroke: #000000; stroke-width: 0.8"/>
      </g>
     </g>
     <g id="text_9">
      <text style="font: 6px 'DejaVu Sans', 'Arial', 'Helvetica', 'Lucida Grande', 'Verdana', 'Geneva', 'Lucid', 'Avant Garde', sans-serif; text-anchor: end" x="23.86" y="49.941741" transform="rotate(-0 23.86 49.941741)">9</text>
     </g>
    </g>
    <g id="ytick_6">
     <g id="line2d_9">
      <g>
       <use xlink:href="#m3adca55f87" x="30.86" y="33.411523" style="stroke: #000000; stroke-width: 0.8"/>
      </g>
     </g>
     <g id="text_10">
      <text style="font: 6px 'DejaVu Sans', 'Arial', 'Helvetica', 'Lucida Grande', 'Verdana', 'Geneva', 'Lucid', 'Avant Garde', sans-serif; text-anchor: end" x="23.86" y="35.691054" transform="rotate(-0 23.86 35.691054)">10</text>
     </g>
    </g>
    <g id="text_11">
     <text style="font: 6px 'DejaVu Sans', 'Arial', 'Helvetica', 'Lucida Grande', 'Verdana', 'Geneva', 'Lucid', 'Avant Garde', sans-serif; text-anchor: middle" x="10.977188" y="68.972" transform="rotate(-90 10.977188 68.972)">Mean observed intensity</text>
    </g>
   </g>
   <g id="line2d_10">
    <path d="M 35.708182 107.984671 
L 47.854457 106.435317 
L 54.959572 104.208491 
L 60.000732 99.785856 
L 63.910959 94.819425 
L 67.105848 94.425683 
L 69.807087 93.769706 
L 72.147007 87.873508 
L 74.210963 84.538665 
L 76.057234 81.468329 
L 77.72739 81.240105 
L 79.252123 80.098091 
L 80.654741 76.769442 
L 81.953362 78.936499 
L 83.16235 75.417007 
L 84.293282 73.292106 
L 85.35563 70.220104 
L 86.357238 74.302781 
L 87.304678 69.84985 
L 88.20351 66.669024 
L 89.058478 69.771582 
L 89.873665 68.798145 
L 90.65261 65.783648 
L 92.113737 66.209336 
L 92.801016 60.83561 
L 93.462354 61.585933 
L 94.099637 66.70346 
L 94.714556 59.977259 
L 95.308625 58.971331 
L 96.439557 59.602643 
L 96.978781 64.326767 
L 97.501905 59.131463 
L 98.009865 53.457691 
L 98.503513 58.045736 
L 98.983636 54.899756 
L 99.450953 52.950791 
L 99.906131 52.547152 
L 100.349785 54.171257 
L 100.782483 53.168151 
L 101.204753 55.630621 
L 101.617086 49.34137 
L 102.01994 49.447219 
L 103.544673 54.525298 
L 103.905992 50.303245 
L 104.260012 49.477217 
L 104.947291 53.908067 
L 105.28108 47.309605 
L 106.245913 50.83306 
L 106.556069 51.056147 
L 106.860831 47.294614 
L 107.160383 50.88472 
L 107.4549 48.941759 
L 108.029488 44.774274 
L 108.585833 48.440033 
L 108.857518 44.317106 
L 110.15614 49.472138 
L 110.404702 46.179362 
L 110.649788 45.267529 
L 110.891494 41.362516 
L 111.129911 51.653185 
L 111.365127 45.009141 
L 111.826295 46.588384 
L 112.052407 40.682684 
L 112.928758 47.9673 
L 113.141165 40.743521 
L 113.351028 43.474502 
L 113.763362 43.902667 
L 113.965946 43.194258 
L 114.364222 47.913412 
L 114.753646 41.142658 
L 115.322021 44.897876 
L 115.507456 39.564824 
L 116.230171 39.698919 
L 116.753296 40.451533 
L 116.924257 43.023241 
L 117.093566 42.387772 
L 117.427355 41.433259 
L 118.076443 40.165175 
L 118.547952 38.156904 
L 118.702344 39.132734 
L 118.855387 42.134191 
L 119.007106 39.018858 
L 119.746598 39.588994 
L 120.175764 40.436522 
L 120.316514 38.759817 
L 120.456143 42.90926 
L 120.732108 37.375374 
L 120.868477 36.863648 
L 121.534845 38.864424 
L 122.050276 37.033267 
L 122.427137 36.77973 
L 122.550977 40.450506 
L 122.673949 36.016416 
L 122.796064 34.710896 
L 123.394189 39.76761 
L 123.743504 35.828905 
L 124.751515 37.357021 
L 125.28744 38.795455 
L 125.392686 33.790542 
L 125.497303 34.718846 
L 125.6013 33.479549 
L 125.704683 37.295581 
L 126.608667 35.055938 
L 127.091435 33.865631 
L 128.198543 32.335695 
L 128.376446 34.610271 
L 128.552562 32.369464 
L 128.98526 33.695958 
L 129.070532 33.2121 
L 129.323886 32.245164 
L 129.819864 33.820595 
L 129.982119 31.912952 
L 130.616518 29.833658 
L 130.694227 31.072505 
L 131.077686 33.441419 
L 131.74745 31.313681 
L 131.820313 32.895516 
L 131.892873 31.3565 
L 132.532743 30.746994 
L 132.671818 30.710852 
" clip-path="url(#pe24f8cecdf)" style="fill: none; stroke: #1f77b4; stroke-linecap: square"/>
   </g>
   <g id="patch_3">
    <path d="M 30.86 114.232 
L 30.86 23.712 
" style="fill: none; stroke: #000000; stroke-width: 0.5; stroke-linejoin: miter; stroke-linecap: square"/>
   </g>
   <g id="patch_4">
    <path d="M 30.86 114.232 
L 137.52 114.232 
" style="fill: none; stroke: #000000; stroke-width: 0.5; stroke-linejoin: miter; stroke-linecap: square"/>
   </g>
   <g id="text_12">
    <text style="font: 6px 'DejaVu Sans', 'Arial', 'Helvetica', 'Lucida Grande', 'Verdana', 'Geneva', 'Lucid', 'Avant Garde', sans-serif" transform="translate(51.795156 10.993313)">Average cell intensity</text>
    <text style="font: 6px 'DejaVu Sans', 'Arial', 'Helvetica', 'Lucida Grande', 'Verdana', 'Geneva', 'Lucid', 'Avant Garde', sans-serif" transform="translate(47.525312 17.712)">vs simulated colony size</text>
   </g>
  </g>
 </g>
 <defs>
  <clipPath id="pe24f8cecdf">
   <rect x="30.86" y="23.712" width="106.66" height="90.52"/>
  </clipPath>
 </defs>
</svg>
