<?xml version="1.0" encoding="utf-8" standalone="no"?>
<!DOCTYPE svg PUBLIC "-//W3C//DTD SVG 1.1//EN"
  "http://www.w3.org/Graphics/SVG/1.1/DTD/svg11.dtd">
<svg xmlns:xlink="http://www.w3.org/1999/xlink" width="144pt" height="144pt" viewBox="0 0 144 144" xmlns="http://www.w3.org/2000/svg" version="1.1">
 <metadata>
  <rdf:RDF xmlns:dc="http://purl.org/dc/elements/1.1/" xmlns:cc="http://creativecommons.org/ns#" xmlns:rdf="http://www.w3.org/1999/02/22-rdf-syntax-ns#">
   <cc:Work>
    <dc:type rdf:resource="http://purl.org/dc/dcmitype/StillImage"/>
    <dc:date>2023-12-21T02:43:57.405761</dc:date>
    <dc:format>image/svg+xml</dc:format>
    <dc:creator>
     <cc:Agent>
      <dc:title>Matplotlib v3.8.2, https://matplotlib.org/</dc:title>
     </cc:Agent>
    </dc:creator>
   </cc:Work>
  </rdf:RDF>
 </metadata>
 <defs>
  <style type="text/css">*{stroke-linejoin: round; stroke-linecap: butt}</style>
 </defs>
 <g id="figure_1">
  <g id="patch_1">
   <path d="M 0 144 
L 144 144 
L 144 0 
L 0 0 
L 0 144 
z
" style="fill: none"/>
  </g>
  <g id="axes_1">
   <g id="patch_2">
    <path d="M 32.84 114.232 
L 111.19 114.232 
L 111.19 26.113422 
L 32.84 26.113422 
L 32.84 114.232 
z
" style="fill: none"/>
   </g>
   <g id="PolyCollection_1">
    <defs>
     <path id="m9305f7f8ba" d="M 36.401364 -39.011563 
L 36.401364 -33.77339 
L 43.561058 -34.828092 
L 47.749211 -36.619898 
L 50.720753 -40.589511 
L 53.02566 -43.504165 
L 54.908906 -43.728245 
L 56.501168 -47.82306 
L 57.880448 -49.027096 
L 59.097059 -53.16189 
L 60.185355 -50.723024 
L 61.169838 -53.085649 
L 62.068601 -51.05539 
L 62.895382 -53.930568 
L 63.660863 -57.109805 
L 64.373508 -59.264653 
L 65.040143 -58.195587 
L 65.66635 -62.67005 
L 66.256754 -59.686709 
L 66.815228 -60.786394 
L 67.34505 -60.793376 
L 67.849016 -64.295272 
L 68.329533 -61.699338 
L 68.788686 -64.659985 
L 69.228296 -65.509911 
L 69.649956 -63.584336 
L 70.055077 -67.46823 
L 70.444907 -65.007897 
L 70.820557 -67.08172 
L 71.183025 -67.212161 
L 71.533203 -71.15694 
L 71.871897 -66.768727 
L 72.517686 -71.881195 
L 72.826045 -71.673026 
L 73.125464 -71.599692 
L 73.416449 -68.19712 
L 73.69946 -71.447629 
L 73.974923 -70.487768 
L 74.24323 -76.315117 
L 74.759801 -72.986678 
L 75.489228 -73.380711 
L 75.721355 -72.554633 
L 75.948381 -76.468413 
L 76.170524 -76.374287 
L 76.38799 -77.902111 
L 76.600972 -79.230939 
L 77.014198 -78.820308 
L 77.794134 -79.274928 
L 77.980252 -78.467791 
L 78.163076 -82.31192 
L 78.342719 -78.668664 
L 78.519292 -79.992838 
L 78.692897 -82.065283 
L 79.196863 -74.540562 
L 79.359532 -74.519357 
L 79.832711 -81.530998 
L 79.985739 -81.507992 
L 80.285159 -84.970499 
L 80.576143 -82.70091 
L 80.718618 -80.623334 
L 80.859154 -82.367675 
L 81.53451 -84.288755 
L 81.919495 -85.85209 
L 82.0447 -83.770325 
L 82.168405 -86.617349 
L 82.530872 -84.766748 
L 82.765638 -84.026779 
L 82.88105 -82.446185 
L 82.995187 -87.866733 
L 83.547685 -88.114083 
L 83.654725 -86.045945 
L 83.760667 -87.570838 
L 83.865533 -87.994906 
L 83.969346 -86.925527 
L 84.173892 -86.938008 
L 84.274666 -87.785058 
L 84.859497 -91.45866 
L 85.231763 -92.474885 
L 85.32277 -89.693843 
L 85.412983 -90.90768 
L 85.502414 -88.699059 
L 85.678987 -90.30629 
L 86.023327 -88.933063 
L 86.107648 -89.953806 
L 86.438213 -91.500739 
L 86.599611 -94.432214 
L 87.145434 -90.826321 
L 87.221107 -93.298588 
L 87.296229 -93.918011 
L 87.370809 -90.648473 
L 87.518372 -92.614657 
L 87.663857 -92.251745 
L 88.157499 -92.948615 
L 88.226132 -94.945233 
L 88.429337 -91.099277 
L 88.888491 -92.479136 
L 88.952449 -93.194849 
L 89.07919 -95.674224 
L 89.204395 -94.87566 
L 89.3281 -95.687332 
L 89.450341 -94.610218 
L 90.323756 -98.139688 
L 90.544711 -94.609057 
L 90.70738 -97.607151 
L 90.81442 -97.146641 
L 90.920362 -96.801492 
L 91.282829 -94.007323 
L 92.160369 -98.798331 
L 92.207002 -98.550342 
L 92.253426 -96.218792 
L 92.299642 -98.356263 
L 92.52767 -98.31503 
L 92.61749 -98.309861 
L 92.794821 -98.653784 
L 93.597908 -98.894916 
L 93.839068 -100.346642 
L 94.035822 -100.762702 
L 94.1521 -100.033717 
L 94.19057 -99.694692 
L 94.455924 -100.570278 
L 94.787372 -98.698986 
L 95.108515 -100.584125 
L 95.351567 -101.261426 
L 95.755368 -101.96343 
L 95.788316 -101.205575 
L 95.82116 -100.672006 
L 95.919068 -100.853441 
L 96.016057 -101.556399 
L 96.143975 -101.697022 
L 96.850262 -102.070346 
L 96.938926 -102.141535 
L 96.968312 -101.392684 
L 97.142895 -103.04234 
L 97.28616 -103.755488 
L 97.622101 -101.973987 
L 97.649609 -103.466326 
L 97.731696 -103.20212 
L 97.78606 -103.200054 
L 98.23696 -104.65353 
L 98.442524 -103.288418 
L 98.568954 -104.552233 
L 98.693856 -104.868336 
L 98.914943 -104.74507 
L 99.035754 -103.777012 
L 99.155169 -105.235955 
L 99.226161 -104.071572 
L 99.619483 -105.784605 
L 99.910467 -105.303392 
L 100.128853 -106.297772 
L 100.171982 -103.685858 
L 100.406022 -105.619898 
L 100.427038 -106.423918 
L 100.53148 -105.073446 
L 100.572963 -105.695112 
L 100.61428 -106.468232 
L 100.716856 -107.410328 
L 101.136883 -107.182896 
L 101.578126 -105.164177 
L 101.596889 -107.232884 
L 101.727287 -106.989503 
L 101.874325 -107.622677 
L 101.983246 -107.713051 
L 102.215374 -107.982824 
L 102.233016 -106.628991 
L 102.562609 -107.935137 
L 102.815583 -108.185216 
L 102.980855 -106.628492 
L 103.15965 -108.204088 
L 103.175752 -108.479541 
L 103.255886 -108.181098 
L 103.287767 -108.759255 
L 103.662849 -107.579635 
L 103.769731 -109.367104 
L 104.25922 -108.958924 
L 104.30259 -107.309981 
L 104.331402 -109.279709 
L 104.374471 -109.371615 
L 104.41736 -109.869328 
L 104.864101 -109.634801 
L 104.999835 -108.734421 
L 105.173665 -110.421122 
L 105.226568 -109.820113 
L 105.396654 -110.336845 
L 105.602219 -110.63624 
L 105.716076 -108.137271 
L 105.728649 -110.13183 
L 105.778791 -109.51847 
L 106.098913 -110.464545 
L 106.13522 -110.43981 
L 106.374057 -110.31971 
L 106.503101 -111.672901 
L 106.801855 -111.445854 
L 106.903289 -109.64303 
L 107.003736 -110.895766 
L 107.070162 -110.715708 
L 107.125193 -110.282443 
L 107.299347 -111.460177 
L 107.534113 -111.198168 
L 107.565717 -110.472085 
L 107.57623 -111.86627 
L 107.628636 -112.308253 
L 107.628636 -113.881188 
L 107.628636 -113.881188 
L 107.57623 -113.377683 
L 107.565717 -112.203224 
L 107.534113 -112.874564 
L 107.299347 -113.078123 
L 107.125193 -112.218254 
L 107.070162 -112.540189 
L 107.003736 -112.472482 
L 106.903289 -111.367621 
L 106.801855 -113.299709 
L 106.503101 -113.458431 
L 106.374057 -111.568879 
L 106.13522 -112.326791 
L 106.098913 -112.304561 
L 105.778791 -111.495294 
L 105.728649 -111.96576 
L 105.716076 -109.952953 
L 105.602219 -112.38931 
L 105.396654 -112.196234 
L 105.226568 -111.641328 
L 105.173665 -112.350898 
L 104.999835 -110.708581 
L 104.864101 -111.052511 
L 104.41736 -111.951507 
L 104.374471 -111.430698 
L 104.331402 -111.300951 
L 104.30259 -110.171679 
L 104.25922 -111.055131 
L 103.769731 -110.854594 
L 103.662849 -109.320539 
L 103.287767 -110.895304 
L 103.255886 -110.245 
L 103.175752 -110.769778 
L 103.15965 -109.657777 
L 102.980855 -108.775984 
L 102.815583 -110.401414 
L 102.562609 -110.296719 
L 102.233016 -108.877365 
L 102.215374 -110.028008 
L 101.983246 -109.292118 
L 101.874325 -110.00454 
L 101.727287 -108.752822 
L 101.596889 -109.496532 
L 101.578126 -107.572617 
L 101.136883 -109.551891 
L 100.716856 -109.742046 
L 100.61428 -108.902814 
L 100.572963 -108.358013 
L 100.53148 -108.616438 
L 100.427038 -108.817721 
L 100.406022 -107.283758 
L 100.171982 -106.601695 
L 100.128853 -108.728537 
L 99.910467 -108.820121 
L 99.619483 -108.178292 
L 99.226161 -107.045973 
L 99.155169 -107.795545 
L 99.035754 -106.543268 
L 98.914943 -107.662822 
L 98.693856 -107.665568 
L 98.568954 -107.258723 
L 98.442524 -105.268745 
L 98.23696 -106.833497 
L 97.78606 -106.186573 
L 97.731696 -106.044211 
L 97.649609 -106.382056 
L 97.622101 -104.949647 
L 97.28616 -105.634325 
L 97.142895 -106.14594 
L 96.968312 -104.535794 
L 96.938926 -105.292507 
L 96.850262 -105.266247 
L 96.143975 -105.130157 
L 96.016057 -104.848964 
L 95.919068 -103.57963 
L 95.82116 -103.871482 
L 95.788316 -104.67579 
L 95.755368 -104.497961 
L 95.351567 -104.472836 
L 95.108515 -103.986087 
L 94.787372 -102.221499 
L 94.455924 -103.311181 
L 94.19057 -102.254785 
L 94.1521 -103.79125 
L 94.035822 -103.091883 
L 93.839068 -103.552083 
L 93.597908 -102.848988 
L 92.794821 -101.296629 
L 92.61749 -100.71109 
L 92.52767 -102.1025 
L 92.299642 -101.708931 
L 92.253426 -100.176273 
L 92.207002 -102.801248 
L 92.160369 -102.059615 
L 91.282829 -97.92687 
L 90.920362 -99.992652 
L 90.81442 -100.062952 
L 90.70738 -102.101081 
L 90.544711 -97.865688 
L 90.323756 -101.69944 
L 89.450341 -99.421788 
L 89.3281 -98.607867 
L 89.204395 -99.617393 
L 89.07919 -100.19692 
L 88.952449 -97.00626 
L 88.888491 -96.496854 
L 88.429337 -96.140908 
L 88.226132 -98.173252 
L 88.157499 -97.194688 
L 87.663857 -97.62025 
L 87.518372 -96.758232 
L 87.370809 -95.798668 
L 87.296229 -98.414695 
L 87.221107 -97.422548 
L 87.145434 -95.431396 
L 86.599611 -98.946636 
L 86.438213 -95.403352 
L 86.107648 -94.642308 
L 86.023327 -94.154354 
L 85.678987 -93.616355 
L 85.502414 -93.743011 
L 85.412983 -95.534884 
L 85.32277 -94.336815 
L 85.231763 -96.341312 
L 84.859497 -95.908249 
L 84.274666 -92.329206 
L 84.173892 -92.765838 
L 83.969346 -92.340194 
L 83.865533 -91.891809 
L 83.760667 -92.78394 
L 83.654725 -91.876415 
L 83.547685 -91.586549 
L 82.995187 -93.719774 
L 82.88105 -88.063003 
L 82.765638 -90.562817 
L 82.530872 -89.767267 
L 82.168405 -90.179305 
L 82.0447 -89.879732 
L 81.919495 -89.613807 
L 81.53451 -90.153488 
L 80.859154 -86.459317 
L 80.718618 -85.280019 
L 80.576143 -87.210206 
L 80.285159 -90.051586 
L 79.985739 -87.791703 
L 79.832711 -85.888788 
L 79.359532 -81.647663 
L 79.196863 -80.993439 
L 78.692897 -88.546554 
L 78.519292 -83.0211 
L 78.342719 -84.652674 
L 78.163076 -87.391577 
L 77.980252 -85.610213 
L 77.794134 -85.978821 
L 77.014198 -83.974322 
L 76.600972 -84.660904 
L 76.38799 -81.142151 
L 76.170524 -80.802203 
L 75.948381 -81.919863 
L 75.721355 -77.580952 
L 75.489228 -77.558523 
L 74.759801 -78.967988 
L 74.24323 -79.437079 
L 73.974923 -75.737515 
L 73.69946 -75.208063 
L 73.416449 -75.285252 
L 73.125464 -77.199381 
L 72.826045 -79.339619 
L 72.517686 -75.81163 
L 71.871897 -72.081135 
L 71.533203 -76.193076 
L 71.183025 -71.792584 
L 70.820557 -72.004513 
L 70.444907 -69.136391 
L 70.055077 -72.721152 
L 69.649956 -71.338998 
L 69.228296 -73.117871 
L 68.788686 -68.161621 
L 68.329533 -67.11276 
L 67.849016 -67.488852 
L 67.34505 -65.529577 
L 66.815228 -64.715651 
L 66.256754 -64.424136 
L 65.66635 -66.017122 
L 65.040143 -61.311426 
L 64.373508 -62.932468 
L 63.660863 -61.420169 
L 62.895382 -57.208875 
L 62.068601 -58.345868 
L 61.169838 -56.9743 
L 60.185355 -55.138869 
L 59.097059 -56.886943 
L 57.880448 -51.198315 
L 56.501168 -50.246398 
L 54.908906 -46.567006 
L 53.02566 -45.726965 
L 50.720753 -42.455523 
L 47.749211 -38.228026 
L 43.561058 -36.293413 
L 36.401364 -39.011563 
z
" style="stroke: #1f77b4; stroke-opacity: 0.2"/>
    </defs>
    <g clip-path="url(#p66ff79ce3d)">
     <use xlink:href="#m9305f7f8ba" x="0" y="144" style="fill: #1f77b4; fill-opacity: 0.2; stroke: #1f77b4; stroke-opacity: 0.2"/>
    </g>
   </g>
   <g id="matplotlib.axis_1">
    <g id="xtick_1">
     <g id="line2d_1">
      <defs>
       <path id="md673a9e54d" d="M 0 0 
L 0 3.5 
" style="stroke: #000000; stroke-width: 0.8"/>
      </defs>
      <g>
       <use xlink:href="#md673a9e54d" x="36.401364" y="114.232" style="stroke: #000000; stroke-width: 0.8"/>
      </g>
     </g>
     <g id="text_1">
      <!-- $\mathdefault{10^{0}}$ -->
      <g transform="translate(31.121364 125.791062)">
       <text>
        <tspan style="font: 6px 'DejaVu Sans'" x="0 3.817383" y="-0.5859375">10</tspan>
        <tspan style="font: 4.2px 'DejaVu Sans'" x="7.692188" y="-2.8828125">0</tspan>
       </text>
      </g>
     </g>
    </g>
    <g id="xtick_2">
     <g id="line2d_2">
      <g>
       <use xlink:href="#md673a9e54d" x="60.185355" y="114.232" style="stroke: #000000; stroke-width: 0.8"/>
      </g>
     </g>
     <g id="text_2">
      <!-- $\mathdefault{10^{1}}$ -->
      <g transform="translate(54.905355 125.791062)">
       <text>
        <tspan style="font: 6px 'DejaVu Sans'" x="0 3.817383" y="-0.640625">10</tspan>
        <tspan style="font: 4.2px 'DejaVu Sans'" x="7.692188" y="-2.9375">1</tspan>
       </text>
      </g>
     </g>
    </g>
    <g id="xtick_3">
     <g id="line2d_3">
      <g>
       <use xlink:href="#md673a9e54d" x="83.969346" y="114.232" style="stroke: #000000; stroke-width: 0.8"/>
      </g>
     </g>
     <g id="text_3">
      <!-- $\mathdefault{10^{2}}$ -->
      <g transform="translate(78.689346 125.791062)">
       <text>
        <tspan style="font: 6px 'DejaVu Sans'" x="0 3.817383" y="-0.5859375">10</tspan>
        <tspan style="font: 4.2px 'DejaVu Sans'" x="7.692188" y="-2.8828125">2</tspan>
       </text>
      </g>
     </g>
    </g>
    <g id="xtick_4">
     <g id="line2d_4">
      <g>
       <use xlink:href="#md673a9e54d" x="107.753337" y="114.232" style="stroke: #000000; stroke-width: 0.8"/>
      </g>
     </g>
     <g id="text_4">
      <!-- $\mathdefault{10^{3}}$ -->
      <g transform="translate(102.473337 125.791062)">
       <text>
        <tspan style="font: 6px 'DejaVu Sans'" x="0 3.817383" y="-0.5859375">10</tspan>
        <tspan style="font: 4.2px 'DejaVu Sans'" x="7.692188" y="-2.8828125">3</tspan>
       </text>
      </g>
     </g>
    </g>
    <g id="xtick_5"/>
    <g id="xtick_6"/>
    <g id="xtick_7"/>
    <g id="xtick_8"/>
    <g id="xtick_9"/>
    <g id="xtick_10"/>
    <g id="xtick_11"/>
    <g id="xtick_12"/>
    <g id="xtick_13"/>
    <g id="xtick_14"/>
    <g id="xtick_15"/>
    <g id="xtick_16"/>
    <g id="xtick_17"/>
    <g id="xtick_18"/>
    <g id="xtick_19"/>
    <g id="xtick_20"/>
    <g id="xtick_21"/>
    <g id="xtick_22"/>
    <g id="xtick_23"/>
    <g id="xtick_24"/>
    <g id="xtick_25"/>
    <g id="xtick_26"/>
    <g id="xtick_27"/>
    <g id="xtick_28"/>
    <g id="xtick_29"/>
    <g id="xtick_30"/>
    <g id="text_5">
     <text style="font: 6px 'DejaVu Sans', 'Arial', 'Helvetica', 'Lucida Grande', 'Verdana', 'Geneva', 'Lucid', 'Avant Garde', sans-serif; text-anchor: middle" x="72.015" y="135.597938" transform="rotate(-0 72.015 135.597938)">Colony size (cells)</text>
    </g>
   </g>
   <g id="matplotlib.axis_2">
    <g id="ytick_1">
     <g id="line2d_5">
      <defs>
       <path id="me4bb3149c3" d="M 0 0 
L -3.5 0 
" style="stroke: #000000; stroke-width: 0.8"/>
      </defs>
      <g>
       <use xlink:href="#me4bb3149c3" x="32.84" y="107.5859" style="stroke: #000000; stroke-width: 0.8"/>
      </g>
     </g>
     <g id="text_6">
      <text style="font: 6px 'DejaVu Sans', 'Arial', 'Helvetica', 'Lucida Grande', 'Verdana', 'Geneva', 'Lucid', 'Avant Garde', sans-serif; text-anchor: end" x="25.84" y="109.865431" transform="rotate(-0 25.84 109.865431)">1.0</text>
     </g>
    </g>
    <g id="ytick_2">
     <g id="line2d_6">
      <g>
       <use xlink:href="#me4bb3149c3" x="32.84" y="94.622019" style="stroke: #000000; stroke-width: 0.8"/>
      </g>
     </g>
     <g id="text_7">
      <text style="font: 6px 'DejaVu Sans', 'Arial', 'Helvetica', 'Lucida Grande', 'Verdana', 'Geneva', 'Lucid', 'Avant Garde', sans-serif; text-anchor: end" x="25.84" y="96.90155" transform="rotate(-0 25.84 96.90155)">1.2</text>
     </g>
    </g>
    <g id="ytick_3">
     <g id="line2d_7">
      <g>
       <use xlink:href="#me4bb3149c3" x="32.84" y="81.658138" style="stroke: #000000; stroke-width: 0.8"/>
      </g>
     </g>
     <g id="text_8">
      <text style="font: 6px 'DejaVu Sans', 'Arial', 'Helvetica', 'Lucida Grande', 'Verdana', 'Geneva', 'Lucid', 'Avant Garde', sans-serif; text-anchor: end" x="25.84" y="83.937669" transform="rotate(-0 25.84 83.937669)">1.4</text>
     </g>
    </g>
    <g id="ytick_4">
     <g id="line2d_8">
      <g>
       <use xlink:href="#me4bb3149c3" x="32.84" y="68.694257" style="stroke: #000000; stroke-width: 0.8"/>
      </g>
     </g>
     <g id="text_9">
      <text style="font: 6px 'DejaVu Sans', 'Arial', 'Helvetica', 'Lucida Grande', 'Verdana', 'Geneva', 'Lucid', 'Avant Garde', sans-serif; text-anchor: end" x="25.84" y="70.973788" transform="rotate(-0 25.84 70.973788)">1.6</text>
     </g>
    </g>
    <g id="ytick_5">
     <g id="line2d_9">
      <g>
       <use xlink:href="#me4bb3149c3" x="32.84" y="55.730376" style="stroke: #000000; stroke-width: 0.8"/>
      </g>
     </g>
     <g id="text_10">
      <text style="font: 6px 'DejaVu Sans', 'Arial', 'Helvetica', 'Lucida Grande', 'Verdana', 'Geneva', 'Lucid', 'Avant Garde', sans-serif; text-anchor: end" x="25.84" y="58.009907" transform="rotate(-0 25.84 58.009907)">1.8</text>
     </g>
    </g>
    <g id="ytick_6">
     <g id="line2d_10">
      <g>
       <use xlink:href="#me4bb3149c3" x="32.84" y="42.766495" style="stroke: #000000; stroke-width: 0.8"/>
      </g>
     </g>
     <g id="text_11">
      <text style="font: 6px 'DejaVu Sans', 'Arial', 'Helvetica', 'Lucida Grande', 'Verdana', 'Geneva', 'Lucid', 'Avant Garde', sans-serif; text-anchor: end" x="25.84" y="45.046026" transform="rotate(-0 25.84 45.046026)">2.0</text>
     </g>
    </g>
    <g id="ytick_7">
     <g id="line2d_11">
      <g>
       <use xlink:href="#me4bb3149c3" x="32.84" y="29.802614" style="stroke: #000000; stroke-width: 0.8"/>
      </g>
     </g>
     <g id="text_12">
      <text style="font: 6px 'DejaVu Sans', 'Arial', 'Helvetica', 'Lucida Grande', 'Verdana', 'Geneva', 'Lucid', 'Avant Garde', sans-serif; text-anchor: end" x="25.84" y="32.082145" transform="rotate(-0 25.84 32.082145)">2.2</text>
     </g>
    </g>
    <g id="text_13">
     <text style="font: 6px 'DejaVu Sans', 'Arial', 'Helvetica', 'Lucida Grande', 'Verdana', 'Geneva', 'Lucid', 'Avant Garde', sans-serif; text-anchor: middle" x="11.050313" y="70.172711" transform="rotate(-90 11.050313 70.172711)">Intensity foldchange</text>
    </g>
   </g>
   <g id="line2d_12">
    <path d="M 36.401364 107.5859 
L 43.561058 108.460346 
L 47.749211 106.596317 
L 53.02566 99.365454 
L 54.908906 98.873071 
L 56.501168 94.966242 
L 57.880448 93.861725 
L 59.097059 88.977517 
L 60.185355 91.003507 
L 61.169838 88.875169 
L 62.068601 89.221836 
L 62.895382 88.38357 
L 63.660863 84.867432 
L 64.373508 82.889384 
L 65.040143 84.280727 
L 65.66635 79.62631 
L 66.256754 82.003491 
L 66.815228 81.198319 
L 67.34505 80.761432 
L 67.849016 77.994073 
L 68.329533 79.646154 
L 68.788686 77.545288 
L 69.228296 74.695728 
L 69.649956 76.164191 
L 70.055077 73.945531 
L 70.444907 76.836416 
L 70.820557 74.459947 
L 71.183025 74.386798 
L 71.533203 70.414508 
L 71.871897 74.584695 
L 72.826045 68.521225 
L 73.125464 69.68281 
L 73.416449 71.982051 
L 73.69946 70.62005 
L 73.974923 70.71403 
L 74.24323 66.068513 
L 74.759801 67.898598 
L 75.489228 68.511211 
L 75.721355 68.873518 
L 75.948381 64.639518 
L 76.170524 65.474536 
L 76.38799 64.434454 
L 76.600972 62.115428 
L 77.014198 62.567594 
L 77.794134 61.441872 
L 77.980252 62.034076 
L 78.163076 59.025643 
L 78.342719 62.48465 
L 78.519292 62.538804 
L 78.692897 58.686632 
L 79.196863 66.191279 
L 79.359532 65.803902 
L 79.985739 59.246832 
L 80.285159 56.347104 
L 80.718618 61.019751 
L 80.859154 59.432111 
L 81.53451 56.813411 
L 81.919495 56.336581 
L 82.0447 57.249592 
L 82.168405 55.542052 
L 82.530872 56.745815 
L 82.765638 56.954745 
L 82.88105 58.769281 
L 82.995187 53.128615 
L 83.547685 54.012014 
L 83.654725 54.830588 
L 83.760667 53.884462 
L 83.969346 54.331341 
L 84.274666 54.045019 
L 84.859497 50.315322 
L 85.231763 49.459485 
L 85.32277 52.066422 
L 85.412983 50.91701 
L 85.502414 52.786335 
L 85.678987 52.112217 
L 86.023327 52.464526 
L 86.107648 51.734508 
L 86.438213 50.47277 
L 86.599611 47.209079 
L 87.145434 50.706478 
L 87.296229 47.785969 
L 87.370809 50.907074 
L 87.663857 48.95885 
L 88.157499 48.81826 
L 88.226132 47.345043 
L 88.429337 50.259367 
L 88.888491 49.561166 
L 89.07919 45.953228 
L 89.204395 46.749434 
L 89.450341 46.831312 
L 90.323756 43.947701 
L 90.544711 47.756297 
L 90.70738 44.135545 
L 90.920362 45.599153 
L 91.282829 47.887576 
L 92.207002 43.225524 
L 92.253426 45.674131 
L 92.299642 43.948495 
L 92.52767 43.673013 
L 92.61749 44.383747 
L 92.794821 44.044965 
L 93.597908 43.229922 
L 93.839068 42.092296 
L 94.1521 42.060182 
L 94.19057 42.999512 
L 94.455924 42.016438 
L 94.787372 43.54967 
L 95.108515 41.681842 
L 95.351567 41.075258 
L 95.755368 40.786107 
L 95.82116 41.719722 
L 95.919068 41.67909 
L 96.016057 40.676711 
L 96.143975 40.587951 
L 96.938926 40.142533 
L 96.968312 41.013658 
L 97.142895 39.347479 
L 97.28616 39.308626 
L 97.622101 40.541634 
L 97.649609 39.04528 
L 97.731696 39.365796 
L 97.78606 39.371065 
L 98.23696 38.34408 
L 98.442524 39.631917 
L 98.693856 37.797312 
L 98.914943 37.867924 
L 99.035754 38.866988 
L 99.155169 37.513404 
L 99.226161 38.337314 
L 99.619483 37.022644 
L 99.910467 36.99163 
L 100.128853 36.475286 
L 100.171982 38.915347 
L 100.406022 37.532299 
L 100.427038 36.37828 
L 100.53148 37.112067 
L 100.572963 36.921498 
L 100.716856 35.410983 
L 101.136883 35.652699 
L 101.578126 37.648002 
L 101.596889 35.595683 
L 101.727287 36.058068 
L 101.874325 35.158065 
L 101.983246 35.472567 
L 102.215374 35.024285 
L 102.233016 36.127839 
L 102.562609 34.81262 
L 102.815583 34.641434 
L 102.980855 36.329027 
L 103.287767 34.115665 
L 103.662849 35.56053 
L 103.769731 33.859356 
L 104.25922 33.936835 
L 104.30259 35.149686 
L 104.331402 33.72071 
L 104.41736 33.029814 
L 104.864101 33.652667 
L 104.999835 34.233172 
L 105.173665 32.644196 
L 105.226568 33.235845 
L 105.602219 32.478748 
L 105.716076 34.96657 
L 105.728649 32.95811 
L 105.778791 33.437805 
L 106.098913 32.556493 
L 106.13522 32.608853 
L 106.374057 33.040996 
L 106.503101 31.439441 
L 106.801855 31.622198 
L 106.903289 33.458373 
L 107.003736 32.288303 
L 107.070162 32.299743 
L 107.125193 32.71205 
L 107.299347 31.747393 
L 107.534113 31.961491 
L 107.565717 32.598263 
L 107.57623 31.439343 
L 107.628636 30.8815 
L 107.628636 30.8815 
" clip-path="url(#p66ff79ce3d)" style="fill: none; stroke: #1f77b4; stroke-linecap: square"/>
   </g>
   <g id="patch_3">
    <path d="M 32.84 114.232 
L 32.84 26.113422 
" style="fill: none; stroke: #000000; stroke-width: 0.5; stroke-linejoin: miter; stroke-linecap: square"/>
   </g>
   <g id="patch_4">
    <path d="M 32.84 114.232 
L 111.19 114.232 
" style="fill: none; stroke: #000000; stroke-width: 0.5; stroke-linejoin: miter; stroke-linecap: square"/>
   </g>
  </g>
  <g id="axes_2">
   <g id="matplotlib.axis_3">
    <g id="ytick_8">
     <g id="line2d_13">
      <defs>
       <path id="m84b1c50afc" d="M 0 0 
L 3.5 0 
" style="stroke: #000000; stroke-width: 0.8"/>
      </defs>
      <g>
       <use xlink:href="#m84b1c50afc" x="111.19" y="99.786222" style="stroke: #000000; stroke-width: 0.8"/>
      </g>
     </g>
     <g id="text_14">
      <text style="font: 6px 'DejaVu Sans', 'Arial', 'Helvetica', 'Lucida Grande', 'Verdana', 'Geneva', 'Lucid', 'Avant Garde', sans-serif; text-anchor: start" x="118.19" y="102.065753" transform="rotate(-0 118.19 102.065753)">0.4</text>
     </g>
    </g>
    <g id="ytick_9">
     <g id="line2d_14">
      <g>
       <use xlink:href="#m84b1c50afc" x="111.19" y="81.67768" style="stroke: #000000; stroke-width: 0.8"/>
      </g>
     </g>
     <g id="text_15">
      <text style="font: 6px 'DejaVu Sans', 'Arial', 'Helvetica', 'Lucida Grande', 'Verdana', 'Geneva', 'Lucid', 'Avant Garde', sans-serif; text-anchor: start" x="118.19" y="83.957212" transform="rotate(-0 118.19 83.957212)">0.5</text>
     </g>
    </g>
    <g id="ytick_10">
     <g id="line2d_15">
      <g>
       <use xlink:href="#m84b1c50afc" x="111.19" y="63.569139" style="stroke: #000000; stroke-width: 0.8"/>
      </g>
     </g>
     <g id="text_16">
      <text style="font: 6px 'DejaVu Sans', 'Arial', 'Helvetica', 'Lucida Grande', 'Verdana', 'Geneva', 'Lucid', 'Avant Garde', sans-serif; text-anchor: start" x="118.19" y="65.84867" transform="rotate(-0 118.19 65.84867)">0.6</text>
     </g>
    </g>
    <g id="ytick_11">
     <g id="line2d_16">
      <g>
       <use xlink:href="#m84b1c50afc" x="111.19" y="45.460597" style="stroke: #000000; stroke-width: 0.8"/>
      </g>
     </g>
     <g id="text_17">
      <text style="font: 6px 'DejaVu Sans', 'Arial', 'Helvetica', 'Lucida Grande', 'Verdana', 'Geneva', 'Lucid', 'Avant Garde', sans-serif; text-anchor: start" x="118.19" y="47.740128" transform="rotate(-0 118.19 47.740128)">0.7</text>
     </g>
    </g>
    <g id="ytick_12">
     <g id="line2d_17">
      <g>
       <use xlink:href="#m84b1c50afc" x="111.19" y="27.352055" style="stroke: #000000; stroke-width: 0.8"/>
      </g>
     </g>
     <g id="text_18">
      <text style="font: 6px 'DejaVu Sans', 'Arial', 'Helvetica', 'Lucida Grande', 'Verdana', 'Geneva', 'Lucid', 'Avant Garde', sans-serif; text-anchor: start" x="118.19" y="29.631587" transform="rotate(-0 118.19 29.631587)">0.8</text>
     </g>
    </g>
    <g id="text_19">
     <text style="font: 6px 'DejaVu Sans', 'Arial', 'Helvetica', 'Lucida Grande', 'Verdana', 'Geneva', 'Lucid', 'Avant Garde', sans-serif; text-anchor: middle" x="136.290938" y="70.172711" transform="rotate(-90 136.290938 70.172711)">Observed/True cell intensity</text>
    </g>
   </g>
   <g id="line2d_18">
    <path d="M 36.401364 110.22661 
L 43.561058 109.329675 
L 47.749211 105.506803 
L 50.720753 102.297208 
L 53.02566 98.916013 
L 54.908906 97.786503 
L 56.501168 94.284987 
L 57.880448 93.667198 
L 59.097059 88.755579 
L 60.185355 90.342032 
L 61.169838 88.040081 
L 62.068601 88.228547 
L 62.895382 87.838093 
L 63.660863 84.373833 
L 64.373508 82.566413 
L 65.040143 83.685001 
L 65.66635 79.626107 
L 66.256754 81.90352 
L 67.34505 79.325757 
L 67.849016 77.804291 
L 68.329533 78.902256 
L 69.228296 74.549553 
L 69.649956 75.785546 
L 70.055077 73.280323 
L 70.444907 76.244367 
L 70.820557 73.98104 
L 71.183025 74.144355 
L 71.533203 70.366723 
L 71.871897 73.777581 
L 72.826045 68.463211 
L 73.416449 71.054293 
L 73.974923 69.963829 
L 74.24323 65.771812 
L 74.759801 67.429145 
L 75.721355 67.727351 
L 75.948381 64.536885 
L 76.170524 65.147255 
L 76.38799 64.033187 
L 76.600972 61.919961 
L 77.014198 62.902104 
L 77.794134 61.250836 
L 77.980252 61.736739 
L 78.163076 59.180726 
L 78.342719 62.058991 
L 78.519292 61.943031 
L 78.692897 58.413767 
L 79.196863 65.557125 
L 79.359532 64.867733 
L 80.285159 56.045782 
L 80.718618 60.362227 
L 80.859154 58.790901 
L 81.53451 56.455719 
L 81.919495 55.58679 
L 82.0447 56.82237 
L 82.168405 54.747109 
L 82.530872 56.261486 
L 82.765638 56.084285 
L 82.88105 57.741913 
L 82.995187 52.963196 
L 83.547685 53.662224 
L 83.654725 54.26715 
L 83.760667 53.145839 
L 83.865533 53.214258 
L 83.969346 53.553867 
L 84.274666 53.03555 
L 84.859497 49.962409 
L 85.231763 48.788298 
L 85.32277 51.743682 
L 85.412983 50.506171 
L 85.502414 52.222969 
L 85.678987 51.714012 
L 86.023327 52.024176 
L 86.107648 50.973692 
L 86.438213 50.015068 
L 86.599611 46.811814 
L 87.145434 50.030256 
L 87.296229 47.123467 
L 87.370809 50.187756 
L 87.663857 48.288483 
L 88.157499 47.777274 
L 88.226132 46.929456 
L 88.429337 49.135297 
L 88.888491 48.673555 
L 88.952449 48.152931 
L 89.07919 45.186996 
L 89.204395 46.230525 
L 89.3281 45.845127 
L 89.450341 46.199681 
L 90.323756 43.573851 
L 90.544711 47.009538 
L 90.70738 43.56134 
L 90.920362 45.019711 
L 91.282829 47.095391 
L 92.207002 42.702018 
L 92.253426 45.024079 
L 92.299642 43.106145 
L 92.52767 43.160191 
L 92.61749 43.511917 
L 93.597908 42.72976 
L 93.839068 41.070677 
L 94.035822 41.443913 
L 94.1521 41.390437 
L 94.19057 42.240929 
L 94.455924 41.367938 
L 94.787372 42.795384 
L 95.108515 40.853849 
L 95.755368 39.896309 
L 95.82116 41.034583 
L 95.919068 40.730906 
L 96.016057 39.767067 
L 96.143975 39.824633 
L 96.850262 39.61568 
L 96.938926 39.207922 
L 96.968312 40.301669 
L 97.142895 38.405655 
L 97.28616 38.431429 
L 97.622101 39.626336 
L 97.649609 38.223112 
L 97.731696 38.628395 
L 98.23696 37.519327 
L 98.442524 38.958329 
L 98.568954 37.209429 
L 98.693856 37.082452 
L 98.914943 37.08384 
L 99.035754 38.033329 
L 99.155169 36.673104 
L 99.226161 37.528887 
L 99.619483 36.089562 
L 99.910467 36.418986 
L 100.128853 35.64551 
L 100.171982 38.222413 
L 100.406022 36.671947 
L 100.427038 35.58169 
L 100.53148 35.884787 
L 100.572963 36.111357 
L 100.716856 34.78378 
L 101.136883 34.97184 
L 101.578126 36.832401 
L 101.596889 34.939971 
L 101.727287 35.28466 
L 101.874325 34.374354 
L 101.983246 34.721888 
L 102.215374 34.088105 
L 102.233016 35.056932 
L 102.562609 34.046189 
L 102.815583 33.935292 
L 102.980855 35.53355 
L 103.287767 33.536742 
L 103.662849 34.404577 
L 103.769731 33.086622 
L 104.25922 33.313542 
L 104.30259 34.565398 
L 104.331402 32.646087 
L 104.374471 32.715575 
L 104.41736 32.318576 
L 104.864101 32.79258 
L 104.999835 33.234116 
L 105.173665 31.870836 
L 105.226568 32.334132 
L 105.602219 31.752081 
L 105.716076 33.88522 
L 105.728649 32.107629 
L 105.778791 32.257052 
L 106.098913 31.742891 
L 106.13522 31.861883 
L 106.374057 31.995934 
L 106.503101 30.795333 
L 106.801855 30.951756 
L 106.903289 32.679295 
L 107.070162 31.242126 
L 107.125193 31.768274 
L 107.299347 30.755074 
L 107.534113 31.048575 
L 107.565717 31.497085 
L 107.57623 30.490743 
L 107.628636 30.118812 
L 107.628636 30.118812 
" clip-path="url(#p66ff79ce3d)" style="fill: none; stroke: #1f77b4; stroke-opacity: 0; stroke-linecap: square"/>
   </g>
   <g id="patch_5">
    <path d="M 32.84 114.232 
L 32.84 26.113422 
" style="fill: none; stroke: #000000; stroke-width: 0.5; stroke-linejoin: miter; stroke-linecap: square"/>
   </g>
   <g id="patch_6">
    <path d="M 32.84 114.232 
L 111.19 114.232 
" style="fill: none; stroke: #000000; stroke-width: 0.5; stroke-linejoin: miter; stroke-linecap: square"/>
   </g>
  </g>
  <g id="text_20">
   <text style="font: 700 6px 'DejaVu Sans', 'Arial', 'Helvetica', 'Lucida Grande', 'Verdana', 'Geneva', 'Lucid', 'Avant Garde', sans-serif" transform="translate(35.179688 7.439063)">Average cell intensity</text>
   <text style="font: 700 6px 'DejaVu Sans', 'Arial', 'Helvetica', 'Lucida Grande', 'Verdana', 'Geneva', 'Lucid', 'Avant Garde', sans-serif" transform="translate(30.765937 14.204625)">vs simulated colony size</text>
  </g>
 </g>
 <defs>
  <clipPath id="p66ff79ce3d">
   <rect x="32.84" y="26.113422" width="78.35" height="88.118578"/>
  </clipPath>
 </defs>
</svg>
