<?xml version="1.0" encoding="utf-8" standalone="no"?>
<!DOCTYPE svg PUBLIC "-//W3C//DTD SVG 1.1//EN"
  "http://www.w3.org/Graphics/SVG/1.1/DTD/svg11.dtd">
<svg xmlns:xlink="http://www.w3.org/1999/xlink" width="144pt" height="144pt" viewBox="0 0 144 144" xmlns="http://www.w3.org/2000/svg" version="1.1">
 <metadata>
  <rdf:RDF xmlns:dc="http://purl.org/dc/elements/1.1/" xmlns:cc="http://creativecommons.org/ns#" xmlns:rdf="http://www.w3.org/1999/02/22-rdf-syntax-ns#">
   <cc:Work>
    <dc:type rdf:resource="http://purl.org/dc/dcmitype/StillImage"/>
    <dc:date>2023-10-09T13:52:50.211494</dc:date>
    <dc:format>image/svg+xml</dc:format>
    <dc:creator>
     <cc:Agent>
      <dc:title>Matplotlib v3.7.2, https://matplotlib.org/</dc:title>
     </cc:Agent>
    </dc:creator>
   </cc:Work>
  </rdf:RDF>
 </metadata>
 <defs>
  <style type="text/css">*{stroke-linejoin: round; stroke-linecap: butt}</style>
 </defs>
 <g id="figure_1">
  <g id="patch_1">
   <path d="M 0 144 
L 144 144 
L 144 0 
L 0 0 
L 0 144 
z
" style="fill: none"/>
  </g>
  <g id="axes_1">
   <g id="patch_2">
    <path d="M 32.81 115 
L 137.52 115 
L 137.52 23.712 
L 32.81 23.712 
L 32.81 115 
z
" style="fill: none"/>
   </g>
   <g id="patch_3">
    <path d="M 41.476967 115 
L 45.103764 115 
L 45.103764 114.991126 
L 41.476967 114.991126 
z
" clip-path="url(#p6734c310e1)" style="fill: #1f77b4"/>
   </g>
   <g id="patch_4">
    <path d="M 45.103764 115 
L 48.730561 115 
L 48.730561 114.982251 
L 45.103764 114.982251 
z
" clip-path="url(#p6734c310e1)" style="fill: #1f77b4"/>
   </g>
   <g id="patch_5">
    <path d="M 48.730561 115 
L 52.357358 115 
L 52.357358 114.787014 
L 48.730561 114.787014 
z
" clip-path="url(#p6734c310e1)" style="fill: #1f77b4"/>
   </g>
   <g id="patch_6">
    <path d="M 52.357358 115 
L 55.984155 115 
L 55.984155 112.182374 
L 52.357358 112.182374 
z
" clip-path="url(#p6734c310e1)" style="fill: #1f77b4"/>
   </g>
   <g id="patch_7">
    <path d="M 55.984155 115 
L 59.610952 115 
L 59.610952 108.330878 
L 55.984155 108.330878 
z
" clip-path="url(#p6734c310e1)" style="fill: #1f77b4"/>
   </g>
   <g id="patch_8">
    <path d="M 59.610952 115 
L 63.237749 115 
L 63.237749 104.612499 
L 59.610952 104.612499 
z
" clip-path="url(#p6734c310e1)" style="fill: #1f77b4"/>
   </g>
   <g id="patch_9">
    <path d="M 63.237749 115 
L 66.864546 115 
L 66.864546 102.717812 
L 63.237749 102.717812 
z
" clip-path="url(#p6734c310e1)" style="fill: #1f77b4"/>
   </g>
   <g id="patch_10">
    <path d="M 66.864546 115 
L 70.491343 115 
L 70.491343 101.666194 
L 66.864546 101.666194 
z
" clip-path="url(#p6734c310e1)" style="fill: #1f77b4"/>
   </g>
   <g id="patch_11">
    <path d="M 70.491343 115 
L 74.11814 115 
L 74.11814 101.910241 
L 70.491343 101.910241 
z
" clip-path="url(#p6734c310e1)" style="fill: #1f77b4"/>
   </g>
   <g id="patch_12">
    <path d="M 74.11814 115 
L 77.744937 115 
L 77.744937 102.992919 
L 74.11814 102.992919 
z
" clip-path="url(#p6734c310e1)" style="fill: #1f77b4"/>
   </g>
   <g id="patch_13">
    <path d="M 77.744937 115 
L 81.371734 115 
L 81.371734 103.884797 
L 77.744937 103.884797 
z
" clip-path="url(#p6734c310e1)" style="fill: #1f77b4"/>
   </g>
   <g id="patch_14">
    <path d="M 81.371734 115 
L 84.998531 115 
L 84.998531 105.783922 
L 81.371734 105.783922 
z
" clip-path="url(#p6734c310e1)" style="fill: #1f77b4"/>
   </g>
   <g id="patch_15">
    <path d="M 84.998531 115 
L 88.625328 115 
L 88.625328 107.0574 
L 84.998531 107.0574 
z
" clip-path="url(#p6734c310e1)" style="fill: #1f77b4"/>
   </g>
   <g id="patch_16">
    <path d="M 88.625328 115 
L 92.252125 115 
L 92.252125 107.989214 
L 88.625328 107.989214 
z
" clip-path="url(#p6734c310e1)" style="fill: #1f77b4"/>
   </g>
   <g id="patch_17">
    <path d="M 92.252125 115 
L 95.878922 115 
L 95.878922 108.668106 
L 92.252125 108.668106 
z
" clip-path="url(#p6734c310e1)" style="fill: #1f77b4"/>
   </g>
   <g id="patch_18">
    <path d="M 95.878922 115 
L 99.505719 115 
L 99.505719 110.105761 
L 95.878922 110.105761 
z
" clip-path="url(#p6734c310e1)" style="fill: #1f77b4"/>
   </g>
   <g id="patch_19">
    <path d="M 99.505719 115 
L 103.132516 115 
L 103.132516 110.598291 
L 99.505719 110.598291 
z
" clip-path="url(#p6734c310e1)" style="fill: #1f77b4"/>
   </g>
   <g id="patch_20">
    <path d="M 103.132516 115 
L 106.759313 115 
L 106.759313 111.303807 
L 103.132516 111.303807 
z
" clip-path="url(#p6734c310e1)" style="fill: #1f77b4"/>
   </g>
   <g id="patch_21">
    <path d="M 106.759313 115 
L 110.38611 115 
L 110.38611 111.90283 
L 106.759313 111.90283 
z
" clip-path="url(#p6734c310e1)" style="fill: #1f77b4"/>
   </g>
   <g id="patch_22">
    <path d="M 110.38611 115 
L 114.012907 115 
L 114.012907 112.31549 
L 110.38611 112.31549 
z
" clip-path="url(#p6734c310e1)" style="fill: #1f77b4"/>
   </g>
   <g id="patch_23">
    <path d="M 114.012907 115 
L 117.639704 115 
L 117.639704 112.91895 
L 114.012907 112.91895 
z
" clip-path="url(#p6734c310e1)" style="fill: #1f77b4"/>
   </g>
   <g id="patch_24">
    <path d="M 117.639704 115 
L 121.266501 115 
L 121.266501 113.41148 
L 117.639704 113.41148 
z
" clip-path="url(#p6734c310e1)" style="fill: #1f77b4"/>
   </g>
   <g id="patch_25">
    <path d="M 121.266501 115 
L 124.893298 115 
L 124.893298 113.779768 
L 121.266501 113.779768 
z
" clip-path="url(#p6734c310e1)" style="fill: #1f77b4"/>
   </g>
   <g id="patch_26">
    <path d="M 124.893298 115 
L 128.520096 115 
L 128.520096 113.992754 
L 124.893298 113.992754 
z
" clip-path="url(#p6734c310e1)" style="fill: #1f77b4"/>
   </g>
   <g id="patch_27">
    <path d="M 128.520096 115 
L 132.146893 115 
L 132.146893 114.077061 
L 128.520096 114.077061 
z
" clip-path="url(#p6734c310e1)" style="fill: #1f77b4"/>
   </g>
   <g id="patch_28">
    <path d="M 132.146893 115 
L 135.77369 115 
L 135.77369 114.329982 
L 132.146893 114.329982 
z
" clip-path="url(#p6734c310e1)" style="fill: #1f77b4"/>
   </g>
   <g id="patch_29">
    <path d="M 135.77369 115 
L 139.400487 115 
L 139.400487 114.489721 
L 135.77369 114.489721 
z
" clip-path="url(#p6734c310e1)" style="fill: #1f77b4"/>
   </g>
   <g id="patch_30">
    <path d="M 139.400487 115 
L 143.027284 115 
L 143.027284 114.716019 
L 139.400487 114.716019 
z
" clip-path="url(#p6734c310e1)" style="fill: #1f77b4"/>
   </g>
   <g id="patch_31">
    <path d="M 143.027284 115 
L 146.654081 115 
L 146.654081 114.831386 
L 143.027284 114.831386 
z
" clip-path="url(#p6734c310e1)" style="fill: #1f77b4"/>
   </g>
   <g id="patch_32">
    <path d="M 146.654081 115 
L 150.280878 115 
L 150.280878 114.849135 
L 146.654081 114.849135 
z
" clip-path="url(#p6734c310e1)" style="fill: #1f77b4"/>
   </g>
   <g id="patch_33">
    <path d="M 150.280878 115 
L 153.907675 115 
L 153.907675 114.897944 
L 150.280878 114.897944 
z
" clip-path="url(#p6734c310e1)" style="fill: #1f77b4"/>
   </g>
   <g id="patch_34">
    <path d="M 153.907675 115 
L 157.534472 115 
L 157.534472 114.951191 
L 153.907675 114.951191 
z
" clip-path="url(#p6734c310e1)" style="fill: #1f77b4"/>
   </g>
   <g id="patch_35">
    <path d="M 157.534472 115 
L 161.161269 115 
L 161.161269 114.933442 
L 157.534472 114.933442 
z
" clip-path="url(#p6734c310e1)" style="fill: #1f77b4"/>
   </g>
   <g id="patch_36">
    <path d="M 161.161269 115 
L 164.788066 115 
L 164.788066 114.942316 
L 161.161269 114.942316 
z
" clip-path="url(#p6734c310e1)" style="fill: #1f77b4"/>
   </g>
   <g id="patch_37">
    <path d="M 164.788066 115 
L 168.414863 115 
L 168.414863 114.982251 
L 164.788066 114.982251 
z
" clip-path="url(#p6734c310e1)" style="fill: #1f77b4"/>
   </g>
   <g id="patch_38">
    <path d="M 168.414863 115 
L 172.04166 115 
L 172.04166 114.977814 
L 168.414863 114.977814 
z
" clip-path="url(#p6734c310e1)" style="fill: #1f77b4"/>
   </g>
   <g id="patch_39">
    <path d="M 172.04166 115 
L 175.668457 115 
L 175.668457 114.977814 
L 172.04166 114.977814 
z
" clip-path="url(#p6734c310e1)" style="fill: #1f77b4"/>
   </g>
   <g id="patch_40">
    <path d="M 175.668457 115 
L 179.295254 115 
L 179.295254 114.982251 
L 175.668457 114.982251 
z
" clip-path="url(#p6734c310e1)" style="fill: #1f77b4"/>
   </g>
   <g id="patch_41">
    <path d="M 179.295254 115 
L 182.922051 115 
L 182.922051 114.991126 
L 179.295254 114.991126 
z
" clip-path="url(#p6734c310e1)" style="fill: #1f77b4"/>
   </g>
   <g id="patch_42">
    <path d="M 182.922051 115 
L 186.548848 115 
L 186.548848 114.982251 
L 182.922051 114.982251 
z
" clip-path="url(#p6734c310e1)" style="fill: #1f77b4"/>
   </g>
   <g id="patch_43">
    <path d="M 43.628568 115 
L 44.697068 115 
L 44.697068 110.42416 
L 43.628568 110.42416 
z
" clip-path="url(#p6734c310e1)" style="fill: #ff7f0e; opacity: 0.6"/>
   </g>
   <g id="patch_44">
    <path d="M 44.697068 115 
L 45.765568 115 
L 45.765568 115 
L 44.697068 115 
z
" clip-path="url(#p6734c310e1)" style="fill: #ff7f0e; opacity: 0.6"/>
   </g>
   <g id="patch_45">
    <path d="M 45.765568 115 
L 46.834069 115 
L 46.834069 110.42416 
L 45.765568 110.42416 
z
" clip-path="url(#p6734c310e1)" style="fill: #ff7f0e; opacity: 0.6"/>
   </g>
   <g id="patch_46">
    <path d="M 46.834069 115 
L 47.902569 115 
L 47.902569 110.42416 
L 46.834069 110.42416 
z
" clip-path="url(#p6734c310e1)" style="fill: #ff7f0e; opacity: 0.6"/>
   </g>
   <g id="patch_47">
    <path d="M 47.902569 115 
L 48.971069 115 
L 48.971069 115 
L 47.902569 115 
z
" clip-path="url(#p6734c310e1)" style="fill: #ff7f0e; opacity: 0.6"/>
   </g>
   <g id="patch_48">
    <path d="M 48.971069 115 
L 50.039569 115 
L 50.039569 115 
L 48.971069 115 
z
" clip-path="url(#p6734c310e1)" style="fill: #ff7f0e; opacity: 0.6"/>
   </g>
   <g id="patch_49">
    <path d="M 50.039569 115 
L 51.10807 115 
L 51.10807 101.272481 
L 50.039569 101.272481 
z
" clip-path="url(#p6734c310e1)" style="fill: #ff7f0e; opacity: 0.6"/>
   </g>
   <g id="patch_50">
    <path d="M 51.10807 115 
L 52.17657 115 
L 52.17657 101.272481 
L 51.10807 101.272481 
z
" clip-path="url(#p6734c310e1)" style="fill: #ff7f0e; opacity: 0.6"/>
   </g>
   <g id="patch_51">
    <path d="M 52.17657 115 
L 53.24507 115 
L 53.24507 105.848321 
L 52.17657 105.848321 
z
" clip-path="url(#p6734c310e1)" style="fill: #ff7f0e; opacity: 0.6"/>
   </g>
   <g id="patch_52">
    <path d="M 53.24507 115 
L 54.31357 115 
L 54.31357 64.665764 
L 53.24507 64.665764 
z
" clip-path="url(#p6734c310e1)" style="fill: #ff7f0e; opacity: 0.6"/>
   </g>
   <g id="patch_53">
    <path d="M 54.31357 115 
L 55.38207 115 
L 55.38207 50.938246 
L 54.31357 50.938246 
z
" clip-path="url(#p6734c310e1)" style="fill: #ff7f0e; opacity: 0.6"/>
   </g>
   <g id="patch_54">
    <path d="M 55.38207 115 
L 56.450571 115 
L 56.450571 28.059048 
L 55.38207 28.059048 
z
" clip-path="url(#p6734c310e1)" style="fill: #ff7f0e; opacity: 0.6"/>
   </g>
   <g id="patch_55">
    <path d="M 56.450571 115 
L 57.519071 115 
L 57.519071 73.817444 
L 56.450571 73.817444 
z
" clip-path="url(#p6734c310e1)" style="fill: #ff7f0e; opacity: 0.6"/>
   </g>
   <g id="patch_56">
    <path d="M 57.519071 115 
L 58.587571 115 
L 58.587571 60.089925 
L 57.519071 60.089925 
z
" clip-path="url(#p6734c310e1)" style="fill: #ff7f0e; opacity: 0.6"/>
   </g>
   <g id="patch_57">
    <path d="M 58.587571 115 
L 59.656071 115 
L 59.656071 69.241604 
L 58.587571 69.241604 
z
" clip-path="url(#p6734c310e1)" style="fill: #ff7f0e; opacity: 0.6"/>
   </g>
   <g id="patch_58">
    <path d="M 59.656071 115 
L 60.724572 115 
L 60.724572 78.393283 
L 59.656071 78.393283 
z
" clip-path="url(#p6734c310e1)" style="fill: #ff7f0e; opacity: 0.6"/>
   </g>
   <g id="patch_59">
    <path d="M 60.724572 115 
L 61.793072 115 
L 61.793072 105.848321 
L 60.724572 105.848321 
z
" clip-path="url(#p6734c310e1)" style="fill: #ff7f0e; opacity: 0.6"/>
   </g>
   <g id="patch_60">
    <path d="M 61.793072 115 
L 62.861572 115 
L 62.861572 96.696642 
L 61.793072 96.696642 
z
" clip-path="url(#p6734c310e1)" style="fill: #ff7f0e; opacity: 0.6"/>
   </g>
   <g id="patch_61">
    <path d="M 62.861572 115 
L 63.930072 115 
L 63.930072 105.848321 
L 62.861572 105.848321 
z
" clip-path="url(#p6734c310e1)" style="fill: #ff7f0e; opacity: 0.6"/>
   </g>
   <g id="patch_62">
    <path d="M 63.930072 115 
L 64.998573 115 
L 64.998573 105.848321 
L 63.930072 105.848321 
z
" clip-path="url(#p6734c310e1)" style="fill: #ff7f0e; opacity: 0.6"/>
   </g>
   <g id="patch_63">
    <path d="M 50.207288 115 
L 53.615827 115 
L 53.615827 114.986534 
L 50.207288 114.986534 
z
" clip-path="url(#p6734c310e1)" style="fill: #2ca02c; opacity: 0.6"/>
   </g>
   <g id="patch_64">
    <path d="M 53.615827 115 
L 57.024366 115 
L 57.024366 114.986534 
L 53.615827 114.986534 
z
" clip-path="url(#p6734c310e1)" style="fill: #2ca02c; opacity: 0.6"/>
   </g>
   <g id="patch_65">
    <path d="M 57.024366 115 
L 60.432905 115 
L 60.432905 114.973067 
L 57.024366 114.973067 
z
" clip-path="url(#p6734c310e1)" style="fill: #2ca02c; opacity: 0.6"/>
   </g>
   <g id="patch_66">
    <path d="M 60.432905 115 
L 63.841444 115 
L 63.841444 114.973067 
L 60.432905 114.973067 
z
" clip-path="url(#p6734c310e1)" style="fill: #2ca02c; opacity: 0.6"/>
   </g>
   <g id="patch_67">
    <path d="M 63.841444 115 
L 67.249983 115 
L 67.249983 114.919202 
L 63.841444 114.919202 
z
" clip-path="url(#p6734c310e1)" style="fill: #2ca02c; opacity: 0.6"/>
   </g>
   <g id="patch_68">
    <path d="M 67.249983 115 
L 70.658522 115 
L 70.658522 114.394015 
L 67.249983 114.394015 
z
" clip-path="url(#p6734c310e1)" style="fill: #2ca02c; opacity: 0.6"/>
   </g>
   <g id="patch_69">
    <path d="M 70.658522 115 
L 74.067061 115 
L 74.067061 113.222445 
L 70.658522 113.222445 
z
" clip-path="url(#p6734c310e1)" style="fill: #2ca02c; opacity: 0.6"/>
   </g>
   <g id="patch_70">
    <path d="M 74.067061 115 
L 77.4756 115 
L 77.4756 110.717708 
L 74.067061 110.717708 
z
" clip-path="url(#p6734c310e1)" style="fill: #2ca02c; opacity: 0.6"/>
   </g>
   <g id="patch_71">
    <path d="M 77.4756 115 
L 80.884139 115 
L 80.884139 107.835915 
L 77.4756 107.835915 
z
" clip-path="url(#p6734c310e1)" style="fill: #2ca02c; opacity: 0.6"/>
   </g>
   <g id="patch_72">
    <path d="M 80.884139 115 
L 84.292678 115 
L 84.292678 106.637412 
L 80.884139 106.637412 
z
" clip-path="url(#p6734c310e1)" style="fill: #2ca02c; opacity: 0.6"/>
   </g>
   <g id="patch_73">
    <path d="M 84.292678 115 
L 87.701217 115 
L 87.701217 104.684794 
L 84.292678 104.684794 
z
" clip-path="url(#p6734c310e1)" style="fill: #2ca02c; opacity: 0.6"/>
   </g>
   <g id="patch_74">
    <path d="M 87.701217 115 
L 91.109756 115 
L 91.109756 101.910731 
L 87.701217 101.910731 
z
" clip-path="url(#p6734c310e1)" style="fill: #2ca02c; opacity: 0.6"/>
   </g>
   <g id="patch_75">
    <path d="M 91.109756 115 
L 94.518295 115 
L 94.518295 99.702254 
L 91.109756 99.702254 
z
" clip-path="url(#p6734c310e1)" style="fill: #2ca02c; opacity: 0.6"/>
   </g>
   <g id="patch_76">
    <path d="M 94.518295 115 
L 97.926834 115 
L 97.926834 100.873824 
L 94.518295 100.873824 
z
" clip-path="url(#p6734c310e1)" style="fill: #2ca02c; opacity: 0.6"/>
   </g>
   <g id="patch_77">
    <path d="M 97.926834 115 
L 101.335373 115 
L 101.335373 103.068835 
L 97.926834 103.068835 
z
" clip-path="url(#p6734c310e1)" style="fill: #2ca02c; opacity: 0.6"/>
   </g>
   <g id="patch_78">
    <path d="M 101.335373 115 
L 104.743912 115 
L 104.743912 103.742151 
L 101.335373 103.742151 
z
" clip-path="url(#p6734c310e1)" style="fill: #2ca02c; opacity: 0.6"/>
   </g>
   <g id="patch_79">
    <path d="M 104.743912 115 
L 108.152451 115 
L 108.152451 105.129183 
L 104.743912 105.129183 
z
" clip-path="url(#p6734c310e1)" style="fill: #2ca02c; opacity: 0.6"/>
   </g>
   <g id="patch_80">
    <path d="M 108.152451 115 
L 111.56099 115 
L 111.56099 106.327686 
L 108.152451 106.327686 
z
" clip-path="url(#p6734c310e1)" style="fill: #2ca02c; opacity: 0.6"/>
   </g>
   <g id="patch_81">
    <path d="M 111.56099 115 
L 114.969529 115 
L 114.969529 108.091775 
L 111.56099 108.091775 
z
" clip-path="url(#p6734c310e1)" style="fill: #2ca02c; opacity: 0.6"/>
   </g>
   <g id="patch_82">
    <path d="M 114.969529 115 
L 118.378068 115 
L 118.378068 109.330677 
L 114.969529 109.330677 
z
" clip-path="url(#p6734c310e1)" style="fill: #2ca02c; opacity: 0.6"/>
   </g>
   <g id="patch_83">
    <path d="M 118.378068 115 
L 121.786607 115 
L 121.786607 110.690776 
L 118.378068 110.690776 
z
" clip-path="url(#p6734c310e1)" style="fill: #2ca02c; opacity: 0.6"/>
   </g>
   <g id="patch_84">
    <path d="M 121.786607 115 
L 125.195146 115 
L 125.195146 111.754615 
L 121.786607 111.754615 
z
" clip-path="url(#p6734c310e1)" style="fill: #2ca02c; opacity: 0.6"/>
   </g>
   <g id="patch_85">
    <path d="M 125.195146 115 
L 128.603685 115 
L 128.603685 112.199004 
L 125.195146 112.199004 
z
" clip-path="url(#p6734c310e1)" style="fill: #2ca02c; opacity: 0.6"/>
   </g>
   <g id="patch_86">
    <path d="M 128.603685 115 
L 132.012224 115 
L 132.012224 112.293268 
L 128.603685 112.293268 
z
" clip-path="url(#p6734c310e1)" style="fill: #2ca02c; opacity: 0.6"/>
   </g>
   <g id="patch_87">
    <path d="M 132.012224 115 
L 135.420763 115 
L 135.420763 113.033916 
L 132.012224 113.033916 
z
" clip-path="url(#p6734c310e1)" style="fill: #2ca02c; opacity: 0.6"/>
   </g>
   <g id="patch_88">
    <path d="M 135.420763 115 
L 138.829302 115 
L 138.829302 113.53217 
L 135.420763 113.53217 
z
" clip-path="url(#p6734c310e1)" style="fill: #2ca02c; opacity: 0.6"/>
   </g>
   <g id="patch_89">
    <path d="M 138.829302 115 
L 142.237841 115 
L 142.237841 114.016958 
L 138.829302 114.016958 
z
" clip-path="url(#p6734c310e1)" style="fill: #2ca02c; opacity: 0.6"/>
   </g>
   <g id="patch_90">
    <path d="M 142.237841 115 
L 145.64638 115 
L 145.64638 114.542145 
L 142.237841 114.542145 
z
" clip-path="url(#p6734c310e1)" style="fill: #2ca02c; opacity: 0.6"/>
   </g>
   <g id="patch_91">
    <path d="M 145.64638 115 
L 149.054919 115 
L 149.054919 114.447881 
L 145.64638 114.447881 
z
" clip-path="url(#p6734c310e1)" style="fill: #2ca02c; opacity: 0.6"/>
   </g>
   <g id="patch_92">
    <path d="M 149.054919 115 
L 152.463458 115 
L 152.463458 114.730673 
L 149.054919 114.730673 
z
" clip-path="url(#p6734c310e1)" style="fill: #2ca02c; opacity: 0.6"/>
   </g>
   <g id="patch_93">
    <path d="M 152.463458 115 
L 155.871997 115 
L 155.871997 114.798005 
L 152.463458 114.798005 
z
" clip-path="url(#p6734c310e1)" style="fill: #2ca02c; opacity: 0.6"/>
   </g>
   <g id="patch_94">
    <path d="M 155.871997 115 
L 159.280536 115 
L 159.280536 114.838404 
L 155.871997 114.838404 
z
" clip-path="url(#p6734c310e1)" style="fill: #2ca02c; opacity: 0.6"/>
   </g>
   <g id="patch_95">
    <path d="M 159.280536 115 
L 162.689075 115 
L 162.689075 114.824938 
L 159.280536 114.824938 
z
" clip-path="url(#p6734c310e1)" style="fill: #2ca02c; opacity: 0.6"/>
   </g>
   <g id="patch_96">
    <path d="M 162.689075 115 
L 166.097614 115 
L 166.097614 114.905736 
L 162.689075 114.905736 
z
" clip-path="url(#p6734c310e1)" style="fill: #2ca02c; opacity: 0.6"/>
   </g>
   <g id="patch_97">
    <path d="M 166.097614 115 
L 169.506153 115 
L 169.506153 114.946135 
L 166.097614 114.946135 
z
" clip-path="url(#p6734c310e1)" style="fill: #2ca02c; opacity: 0.6"/>
   </g>
   <g id="patch_98">
    <path d="M 169.506153 115 
L 172.914692 115 
L 172.914692 114.932668 
L 169.506153 114.932668 
z
" clip-path="url(#p6734c310e1)" style="fill: #2ca02c; opacity: 0.6"/>
   </g>
   <g id="patch_99">
    <path d="M 172.914692 115 
L 176.323231 115 
L 176.323231 114.946135 
L 172.914692 114.946135 
z
" clip-path="url(#p6734c310e1)" style="fill: #2ca02c; opacity: 0.6"/>
   </g>
   <g id="patch_100">
    <path d="M 176.323231 115 
L 179.73177 115 
L 179.73177 114.959601 
L 176.323231 114.959601 
z
" clip-path="url(#p6734c310e1)" style="fill: #2ca02c; opacity: 0.6"/>
   </g>
   <g id="patch_101">
    <path d="M 179.73177 115 
L 183.140309 115 
L 183.140309 114.973067 
L 179.73177 114.973067 
z
" clip-path="url(#p6734c310e1)" style="fill: #2ca02c; opacity: 0.6"/>
   </g>
   <g id="patch_102">
    <path d="M 183.140309 115 
L 186.548848 115 
L 186.548848 114.946135 
L 183.140309 114.946135 
z
" clip-path="url(#p6734c310e1)" style="fill: #2ca02c; opacity: 0.6"/>
   </g>
   <g id="matplotlib.axis_1">
    <g id="xtick_1">
     <g id="line2d_1">
      <defs>
       <path id="me1d23c3d35" d="M 0 0 
L 0 3.5 
" style="stroke: #000000; stroke-width: 0.8"/>
      </defs>
      <g>
       <use xlink:href="#me1d23c3d35" x="32.81" y="115" style="stroke: #000000; stroke-width: 0.8"/>
      </g>
     </g>
     <g id="text_1">
      <text style="font: 6px 'DejaVu Sans', 'Arial', 'Helvetica', 'Lucida Grande', 'Verdana', 'Geneva', 'Lucid', 'Avant Garde', sans-serif; text-anchor: middle" x="32.81" y="126.559063" transform="rotate(-0 32.81 126.559063)">0</text>
     </g>
    </g>
    <g id="xtick_2">
     <g id="line2d_2">
      <g>
       <use xlink:href="#me1d23c3d35" x="61.896111" y="115" style="stroke: #000000; stroke-width: 0.8"/>
      </g>
     </g>
     <g id="text_2">
      <text style="font: 6px 'DejaVu Sans', 'Arial', 'Helvetica', 'Lucida Grande', 'Verdana', 'Geneva', 'Lucid', 'Avant Garde', sans-serif; text-anchor: middle" x="61.896111" y="126.559063" transform="rotate(-0 61.896111 126.559063)">5</text>
     </g>
    </g>
    <g id="xtick_3">
     <g id="line2d_3">
      <g>
       <use xlink:href="#me1d23c3d35" x="90.982222" y="115" style="stroke: #000000; stroke-width: 0.8"/>
      </g>
     </g>
     <g id="text_3">
      <text style="font: 6px 'DejaVu Sans', 'Arial', 'Helvetica', 'Lucida Grande', 'Verdana', 'Geneva', 'Lucid', 'Avant Garde', sans-serif; text-anchor: middle" x="90.982222" y="126.559063" transform="rotate(-0 90.982222 126.559063)">10</text>
     </g>
    </g>
    <g id="xtick_4">
     <g id="line2d_4">
      <g>
       <use xlink:href="#me1d23c3d35" x="120.068333" y="115" style="stroke: #000000; stroke-width: 0.8"/>
      </g>
     </g>
     <g id="text_4">
      <text style="font: 6px 'DejaVu Sans', 'Arial', 'Helvetica', 'Lucida Grande', 'Verdana', 'Geneva', 'Lucid', 'Avant Garde', sans-serif; text-anchor: middle" x="120.068333" y="126.559063" transform="rotate(-0 120.068333 126.559063)">15</text>
     </g>
    </g>
    <g id="text_5">
     <text style="font: 6px 'DejaVu Sans', 'Arial', 'Helvetica', 'Lucida Grande', 'Verdana', 'Geneva', 'Lucid', 'Avant Garde', sans-serif; text-anchor: middle" x="85.165" y="136.365938" transform="rotate(-0 85.165 136.365938)">Intensity</text>
    </g>
   </g>
   <g id="matplotlib.axis_2">
    <g id="ytick_1">
     <g id="line2d_5">
      <defs>
       <path id="m3d814c8e36" d="M 0 0 
L -3.5 0 
" style="stroke: #000000; stroke-width: 0.8"/>
      </defs>
      <g>
       <use xlink:href="#m3d814c8e36" x="32.81" y="115" style="stroke: #000000; stroke-width: 0.8"/>
      </g>
     </g>
     <g id="text_6">
      <text style="font: 6px 'DejaVu Sans', 'Arial', 'Helvetica', 'Lucida Grande', 'Verdana', 'Geneva', 'Lucid', 'Avant Garde', sans-serif; text-anchor: end" x="25.81" y="117.279531" transform="rotate(-0 25.81 117.279531)">0.0</text>
     </g>
    </g>
    <g id="ytick_2">
     <g id="line2d_6">
      <g>
       <use xlink:href="#m3d814c8e36" x="32.81" y="97.51792" style="stroke: #000000; stroke-width: 0.8"/>
      </g>
     </g>
     <g id="text_7">
      <text style="font: 6px 'DejaVu Sans', 'Arial', 'Helvetica', 'Lucida Grande', 'Verdana', 'Geneva', 'Lucid', 'Avant Garde', sans-serif; text-anchor: end" x="25.81" y="99.797452" transform="rotate(-0 25.81 99.797452)">0.2</text>
     </g>
    </g>
    <g id="ytick_3">
     <g id="line2d_7">
      <g>
       <use xlink:href="#m3d814c8e36" x="32.81" y="80.035841" style="stroke: #000000; stroke-width: 0.8"/>
      </g>
     </g>
     <g id="text_8">
      <text style="font: 6px 'DejaVu Sans', 'Arial', 'Helvetica', 'Lucida Grande', 'Verdana', 'Geneva', 'Lucid', 'Avant Garde', sans-serif; text-anchor: end" x="25.81" y="82.315372" transform="rotate(-0 25.81 82.315372)">0.4</text>
     </g>
    </g>
    <g id="ytick_4">
     <g id="line2d_8">
      <g>
       <use xlink:href="#m3d814c8e36" x="32.81" y="62.553761" style="stroke: #000000; stroke-width: 0.8"/>
      </g>
     </g>
     <g id="text_9">
      <text style="font: 6px 'DejaVu Sans', 'Arial', 'Helvetica', 'Lucida Grande', 'Verdana', 'Geneva', 'Lucid', 'Avant Garde', sans-serif; text-anchor: end" x="25.81" y="64.833292" transform="rotate(-0 25.81 64.833292)">0.6</text>
     </g>
    </g>
    <g id="ytick_5">
     <g id="line2d_9">
      <g>
       <use xlink:href="#m3d814c8e36" x="32.81" y="45.071681" style="stroke: #000000; stroke-width: 0.8"/>
      </g>
     </g>
     <g id="text_10">
      <text style="font: 6px 'DejaVu Sans', 'Arial', 'Helvetica', 'Lucida Grande', 'Verdana', 'Geneva', 'Lucid', 'Avant Garde', sans-serif; text-anchor: end" x="25.81" y="47.351213" transform="rotate(-0 25.81 47.351213)">0.8</text>
     </g>
    </g>
    <g id="ytick_6">
     <g id="line2d_10">
      <g>
       <use xlink:href="#m3d814c8e36" x="32.81" y="27.589602" style="stroke: #000000; stroke-width: 0.8"/>
      </g>
     </g>
     <g id="text_11">
      <text style="font: 6px 'DejaVu Sans', 'Arial', 'Helvetica', 'Lucida Grande', 'Verdana', 'Geneva', 'Lucid', 'Avant Garde', sans-serif; text-anchor: end" x="25.81" y="29.869133" transform="rotate(-0 25.81 29.869133)">1.0</text>
     </g>
    </g>
    <g id="text_12">
     <text style="font: 6px 'DejaVu Sans', 'Arial', 'Helvetica', 'Lucida Grande', 'Verdana', 'Geneva', 'Lucid', 'Avant Garde', sans-serif; text-anchor: middle" x="11.020313" y="69.356" transform="rotate(-90 11.020313 69.356)">Density</text>
    </g>
   </g>
   <g id="patch_103">
    <path d="M 32.81 115 
L 32.81 23.712 
" style="fill: none; stroke: #000000; stroke-width: 0.5; stroke-linejoin: miter; stroke-linecap: square"/>
   </g>
   <g id="patch_104">
    <path d="M 32.81 115 
L 137.52 115 
" style="fill: none; stroke: #000000; stroke-width: 0.5; stroke-linejoin: miter; stroke-linecap: square"/>
   </g>
   <g id="text_13">
    <text style="font: 6px 'DejaVu Sans', 'Arial', 'Helvetica', 'Lucida Grande', 'Verdana', 'Geneva', 'Lucid', 'Avant Garde', sans-serif" transform="translate(47.867969 10.993313)">Distribution of single cell</text>
    <text style="font: 6px 'DejaVu Sans', 'Arial', 'Helvetica', 'Lucida Grande', 'Verdana', 'Geneva', 'Lucid', 'Avant Garde', sans-serif" transform="translate(46.11625 17.712)">intensities in real colonies</text>
   </g>
   <g id="legend_1">
    <g id="patch_105">
     <path d="M 68.34 54.94575 
L 133.32 54.94575 
Q 134.52 54.94575 134.52 53.74575 
L 134.52 27.912 
Q 134.52 26.712 133.32 26.712 
L 68.34 26.712 
Q 67.14 26.712 67.14 27.912 
L 67.14 53.74575 
Q 67.14 54.94575 68.34 54.94575 
z
" style="fill: #ffffff; opacity: 0.8; stroke: #cccccc; stroke-linejoin: miter"/>
    </g>
    <g id="patch_106">
     <path d="M 69.54 33.671063 
L 81.54 33.671063 
L 81.54 29.471063 
L 69.54 29.471063 
z
" style="fill: #1f77b4"/>
    </g>
    <g id="text_14">
     <text style="font: 6px 'DejaVu Sans', 'Arial', 'Helvetica', 'Lucida Grande', 'Verdana', 'Geneva', 'Lucid', 'Avant Garde', sans-serif; text-anchor: start" x="86.34" y="33.671063" transform="rotate(-0 86.34 33.671063)">All cells</text>
    </g>
    <g id="patch_107">
     <path d="M 69.54 42.477938 
L 81.54 42.477938 
L 81.54 38.277938 
L 69.54 38.277938 
z
" style="fill: #ff7f0e; opacity: 0.6"/>
    </g>
    <g id="text_15">
     <text style="font: 6px 'DejaVu Sans', 'Arial', 'Helvetica', 'Lucida Grande', 'Verdana', 'Geneva', 'Lucid', 'Avant Garde', sans-serif; text-anchor: start" x="86.34" y="42.477938" transform="rotate(-0 86.34 42.477938)">1 cell</text>
    </g>
    <g id="patch_108">
     <path d="M 69.54 51.28575 
L 81.54 51.28575 
L 81.54 47.08575 
L 69.54 47.08575 
z
" style="fill: #2ca02c; opacity: 0.6"/>
    </g>
    <g id="text_16">
     <!-- Colony N $&gt;$ 50 -->
     <g transform="translate(86.34 51.28575)">
      <text>
       <tspan style="font: 6px 'DejaVu Sans'" x="0 4.189453 7.860352 9.527344 13.198242 17.000977 20.551758 22.458984 26.947266 30.023438 36.219727 38.126953 41.944336" y="-0.4375">Colony N &gt; 50</tspan>
      </text>
     </g>
    </g>
   </g>
  </g>
 </g>
 <defs>
  <clipPath id="p6734c310e1">
   <rect x="32.81" y="23.712" width="104.71" height="91.288"/>
  </clipPath>
 </defs>
</svg>
