<?xml version="1.0" encoding="utf-8" standalone="no"?>
<!DOCTYPE svg PUBLIC "-//W3C//DTD SVG 1.1//EN"
  "http://www.w3.org/Graphics/SVG/1.1/DTD/svg11.dtd">
<svg xmlns:xlink="http://www.w3.org/1999/xlink" width="144pt" height="144pt" viewBox="0 0 144 144" xmlns="http://www.w3.org/2000/svg" version="1.1">
 <metadata>
  <rdf:RDF xmlns:dc="http://purl.org/dc/elements/1.1/" xmlns:cc="http://creativecommons.org/ns#" xmlns:rdf="http://www.w3.org/1999/02/22-rdf-syntax-ns#">
   <cc:Work>
    <dc:type rdf:resource="http://purl.org/dc/dcmitype/StillImage"/>
    <dc:date>2023-12-05T13:14:48.673719</dc:date>
    <dc:format>image/svg+xml</dc:format>
    <dc:creator>
     <cc:Agent>
      <dc:title>Matplotlib v3.8.2, https://matplotlib.org/</dc:title>
     </cc:Agent>
    </dc:creator>
   </cc:Work>
  </rdf:RDF>
 </metadata>
 <defs>
  <style type="text/css">*{stroke-linejoin: round; stroke-linecap: butt}</style>
 </defs>
 <g id="figure_1">
  <g id="patch_1">
   <path d="M 0 144 
L 144 144 
L 144 0 
L 0 0 
L 0 144 
z
" style="fill: none"/>
  </g>
  <g id="axes_1">
   <g id="patch_2">
    <path d="M 32.81 115 
L 137.52 115 
L 137.52 25.392 
L 32.81 25.392 
L 32.81 115 
z
" style="fill: none"/>
   </g>
   <g id="patch_3">
    <path d="M 41.476967 115 
L 45.103764 115 
L 45.103764 114.991289 
L 41.476967 114.991289 
z
" clip-path="url(#pffaca51ba3)" style="fill: #1f77b4"/>
   </g>
   <g id="patch_4">
    <path d="M 45.103764 115 
L 48.730561 115 
L 48.730561 114.982578 
L 45.103764 114.982578 
z
" clip-path="url(#pffaca51ba3)" style="fill: #1f77b4"/>
   </g>
   <g id="patch_5">
    <path d="M 48.730561 115 
L 52.357358 115 
L 52.357358 114.790934 
L 48.730561 114.790934 
z
" clip-path="url(#pffaca51ba3)" style="fill: #1f77b4"/>
   </g>
   <g id="patch_6">
    <path d="M 52.357358 115 
L 55.984155 115 
L 55.984155 112.234227 
L 52.357358 112.234227 
z
" clip-path="url(#pffaca51ba3)" style="fill: #1f77b4"/>
   </g>
   <g id="patch_7">
    <path d="M 55.984155 115 
L 59.610952 115 
L 59.610952 108.453612 
L 55.984155 108.453612 
z
" clip-path="url(#pffaca51ba3)" style="fill: #1f77b4"/>
   </g>
   <g id="patch_8">
    <path d="M 59.610952 115 
L 63.237749 115 
L 63.237749 104.803664 
L 59.610952 104.803664 
z
" clip-path="url(#pffaca51ba3)" style="fill: #1f77b4"/>
   </g>
   <g id="patch_9">
    <path d="M 63.237749 115 
L 66.864546 115 
L 66.864546 102.943845 
L 63.237749 102.943845 
z
" clip-path="url(#pffaca51ba3)" style="fill: #1f77b4"/>
   </g>
   <g id="patch_10">
    <path d="M 66.864546 115 
L 70.491343 115 
L 70.491343 101.91158 
L 66.864546 101.91158 
z
" clip-path="url(#pffaca51ba3)" style="fill: #1f77b4"/>
   </g>
   <g id="patch_11">
    <path d="M 70.491343 115 
L 74.11814 115 
L 74.11814 102.151135 
L 70.491343 102.151135 
z
" clip-path="url(#pffaca51ba3)" style="fill: #1f77b4"/>
   </g>
   <g id="patch_12">
    <path d="M 74.11814 115 
L 77.744937 115 
L 77.744937 103.213889 
L 74.11814 103.213889 
z
" clip-path="url(#pffaca51ba3)" style="fill: #1f77b4"/>
   </g>
   <g id="patch_13">
    <path d="M 77.744937 115 
L 81.371734 115 
L 81.371734 104.089354 
L 77.744937 104.089354 
z
" clip-path="url(#pffaca51ba3)" style="fill: #1f77b4"/>
   </g>
   <g id="patch_14">
    <path d="M 81.371734 115 
L 84.998531 115 
L 84.998531 105.953528 
L 81.371734 105.953528 
z
" clip-path="url(#pffaca51ba3)" style="fill: #1f77b4"/>
   </g>
   <g id="patch_15">
    <path d="M 84.998531 115 
L 88.625328 115 
L 88.625328 107.20357 
L 84.998531 107.20357 
z
" clip-path="url(#pffaca51ba3)" style="fill: #1f77b4"/>
   </g>
   <g id="patch_16">
    <path d="M 88.625328 115 
L 92.252125 115 
L 92.252125 108.118235 
L 88.625328 108.118235 
z
" clip-path="url(#pffaca51ba3)" style="fill: #1f77b4"/>
   </g>
   <g id="patch_17">
    <path d="M 92.252125 115 
L 95.878922 115 
L 95.878922 108.784634 
L 92.252125 108.784634 
z
" clip-path="url(#pffaca51ba3)" style="fill: #1f77b4"/>
   </g>
   <g id="patch_18">
    <path d="M 95.878922 115 
L 99.505719 115 
L 99.505719 110.195831 
L 95.878922 110.195831 
z
" clip-path="url(#pffaca51ba3)" style="fill: #1f77b4"/>
   </g>
   <g id="patch_19">
    <path d="M 99.505719 115 
L 103.132516 115 
L 103.132516 110.679297 
L 99.505719 110.679297 
z
" clip-path="url(#pffaca51ba3)" style="fill: #1f77b4"/>
   </g>
   <g id="patch_20">
    <path d="M 103.132516 115 
L 106.759313 115 
L 106.759313 111.371829 
L 103.132516 111.371829 
z
" clip-path="url(#pffaca51ba3)" style="fill: #1f77b4"/>
   </g>
   <g id="patch_21">
    <path d="M 106.759313 115 
L 110.38611 115 
L 110.38611 111.959828 
L 106.759313 111.959828 
z
" clip-path="url(#pffaca51ba3)" style="fill: #1f77b4"/>
   </g>
   <g id="patch_22">
    <path d="M 110.38611 115 
L 114.012907 115 
L 114.012907 112.364894 
L 110.38611 112.364894 
z
" clip-path="url(#pffaca51ba3)" style="fill: #1f77b4"/>
   </g>
   <g id="patch_23">
    <path d="M 114.012907 115 
L 117.639704 115 
L 117.639704 112.957248 
L 114.012907 112.957248 
z
" clip-path="url(#pffaca51ba3)" style="fill: #1f77b4"/>
   </g>
   <g id="patch_24">
    <path d="M 117.639704 115 
L 121.266501 115 
L 121.266501 113.440714 
L 117.639704 113.440714 
z
" clip-path="url(#pffaca51ba3)" style="fill: #1f77b4"/>
   </g>
   <g id="patch_25">
    <path d="M 121.266501 115 
L 124.893298 115 
L 124.893298 113.802224 
L 121.266501 113.802224 
z
" clip-path="url(#pffaca51ba3)" style="fill: #1f77b4"/>
   </g>
   <g id="patch_26">
    <path d="M 124.893298 115 
L 128.520096 115 
L 128.520096 114.011291 
L 124.893298 114.011291 
z
" clip-path="url(#pffaca51ba3)" style="fill: #1f77b4"/>
   </g>
   <g id="patch_27">
    <path d="M 128.520096 115 
L 132.146893 115 
L 132.146893 114.094046 
L 128.520096 114.094046 
z
" clip-path="url(#pffaca51ba3)" style="fill: #1f77b4"/>
   </g>
   <g id="patch_28">
    <path d="M 132.146893 115 
L 135.77369 115 
L 135.77369 114.342312 
L 132.146893 114.342312 
z
" clip-path="url(#pffaca51ba3)" style="fill: #1f77b4"/>
   </g>
   <g id="patch_29">
    <path d="M 135.77369 115 
L 139.400487 115 
L 139.400487 114.499112 
L 135.77369 114.499112 
z
" clip-path="url(#pffaca51ba3)" style="fill: #1f77b4"/>
   </g>
   <g id="patch_30">
    <path d="M 139.400487 115 
L 143.027284 115 
L 143.027284 114.721245 
L 139.400487 114.721245 
z
" clip-path="url(#pffaca51ba3)" style="fill: #1f77b4"/>
   </g>
   <g id="patch_31">
    <path d="M 143.027284 115 
L 146.654081 115 
L 146.654081 114.834489 
L 143.027284 114.834489 
z
" clip-path="url(#pffaca51ba3)" style="fill: #1f77b4"/>
   </g>
   <g id="patch_32">
    <path d="M 146.654081 115 
L 150.280878 115 
L 150.280878 114.851911 
L 146.654081 114.851911 
z
" clip-path="url(#pffaca51ba3)" style="fill: #1f77b4"/>
   </g>
   <g id="patch_33">
    <path d="M 150.280878 115 
L 153.907675 115 
L 153.907675 114.899822 
L 150.280878 114.899822 
z
" clip-path="url(#pffaca51ba3)" style="fill: #1f77b4"/>
   </g>
   <g id="patch_34">
    <path d="M 153.907675 115 
L 157.534472 115 
L 157.534472 114.952089 
L 153.907675 114.952089 
z
" clip-path="url(#pffaca51ba3)" style="fill: #1f77b4"/>
   </g>
   <g id="patch_35">
    <path d="M 157.534472 115 
L 161.161269 115 
L 161.161269 114.934667 
L 157.534472 114.934667 
z
" clip-path="url(#pffaca51ba3)" style="fill: #1f77b4"/>
   </g>
   <g id="patch_36">
    <path d="M 161.161269 115 
L 164.788066 115 
L 164.788066 114.943378 
L 161.161269 114.943378 
z
" clip-path="url(#pffaca51ba3)" style="fill: #1f77b4"/>
   </g>
   <g id="patch_37">
    <path d="M 164.788066 115 
L 168.414863 115 
L 168.414863 114.982578 
L 164.788066 114.982578 
z
" clip-path="url(#pffaca51ba3)" style="fill: #1f77b4"/>
   </g>
   <g id="patch_38">
    <path d="M 168.414863 115 
L 172.04166 115 
L 172.04166 114.978222 
L 168.414863 114.978222 
z
" clip-path="url(#pffaca51ba3)" style="fill: #1f77b4"/>
   </g>
   <g id="patch_39">
    <path d="M 172.04166 115 
L 175.668457 115 
L 175.668457 114.978222 
L 172.04166 114.978222 
z
" clip-path="url(#pffaca51ba3)" style="fill: #1f77b4"/>
   </g>
   <g id="patch_40">
    <path d="M 175.668457 115 
L 179.295254 115 
L 179.295254 114.982578 
L 175.668457 114.982578 
z
" clip-path="url(#pffaca51ba3)" style="fill: #1f77b4"/>
   </g>
   <g id="patch_41">
    <path d="M 179.295254 115 
L 182.922051 115 
L 182.922051 114.991289 
L 179.295254 114.991289 
z
" clip-path="url(#pffaca51ba3)" style="fill: #1f77b4"/>
   </g>
   <g id="patch_42">
    <path d="M 182.922051 115 
L 186.548848 115 
L 186.548848 114.982578 
L 182.922051 114.982578 
z
" clip-path="url(#pffaca51ba3)" style="fill: #1f77b4"/>
   </g>
   <g id="patch_43">
    <path d="M 43.628568 115 
L 44.697068 115 
L 44.697068 110.508371 
L 43.628568 110.508371 
z
" clip-path="url(#pffaca51ba3)" style="fill: #ff7f0e; opacity: 0.6"/>
   </g>
   <g id="patch_44">
    <path d="M 44.697068 115 
L 45.765568 115 
L 45.765568 115 
L 44.697068 115 
z
" clip-path="url(#pffaca51ba3)" style="fill: #ff7f0e; opacity: 0.6"/>
   </g>
   <g id="patch_45">
    <path d="M 45.765568 115 
L 46.834069 115 
L 46.834069 110.508371 
L 45.765568 110.508371 
z
" clip-path="url(#pffaca51ba3)" style="fill: #ff7f0e; opacity: 0.6"/>
   </g>
   <g id="patch_46">
    <path d="M 46.834069 115 
L 47.902569 115 
L 47.902569 110.508371 
L 46.834069 110.508371 
z
" clip-path="url(#pffaca51ba3)" style="fill: #ff7f0e; opacity: 0.6"/>
   </g>
   <g id="patch_47">
    <path d="M 47.902569 115 
L 48.971069 115 
L 48.971069 115 
L 47.902569 115 
z
" clip-path="url(#pffaca51ba3)" style="fill: #ff7f0e; opacity: 0.6"/>
   </g>
   <g id="patch_48">
    <path d="M 48.971069 115 
L 50.039569 115 
L 50.039569 115 
L 48.971069 115 
z
" clip-path="url(#pffaca51ba3)" style="fill: #ff7f0e; opacity: 0.6"/>
   </g>
   <g id="patch_49">
    <path d="M 50.039569 115 
L 51.10807 115 
L 51.10807 101.525113 
L 50.039569 101.525113 
z
" clip-path="url(#pffaca51ba3)" style="fill: #ff7f0e; opacity: 0.6"/>
   </g>
   <g id="patch_50">
    <path d="M 51.10807 115 
L 52.17657 115 
L 52.17657 101.525113 
L 51.10807 101.525113 
z
" clip-path="url(#pffaca51ba3)" style="fill: #ff7f0e; opacity: 0.6"/>
   </g>
   <g id="patch_51">
    <path d="M 52.17657 115 
L 53.24507 115 
L 53.24507 106.016742 
L 52.17657 106.016742 
z
" clip-path="url(#pffaca51ba3)" style="fill: #ff7f0e; opacity: 0.6"/>
   </g>
   <g id="patch_52">
    <path d="M 53.24507 115 
L 54.31357 115 
L 54.31357 65.59208 
L 53.24507 65.59208 
z
" clip-path="url(#pffaca51ba3)" style="fill: #ff7f0e; opacity: 0.6"/>
   </g>
   <g id="patch_53">
    <path d="M 54.31357 115 
L 55.38207 115 
L 55.38207 52.117193 
L 54.31357 52.117193 
z
" clip-path="url(#pffaca51ba3)" style="fill: #ff7f0e; opacity: 0.6"/>
   </g>
   <g id="patch_54">
    <path d="M 55.38207 115 
L 56.450571 115 
L 56.450571 29.659048 
L 55.38207 29.659048 
z
" clip-path="url(#pffaca51ba3)" style="fill: #ff7f0e; opacity: 0.6"/>
   </g>
   <g id="patch_55">
    <path d="M 56.450571 115 
L 57.519071 115 
L 57.519071 74.575338 
L 56.450571 74.575338 
z
" clip-path="url(#pffaca51ba3)" style="fill: #ff7f0e; opacity: 0.6"/>
   </g>
   <g id="patch_56">
    <path d="M 57.519071 115 
L 58.587571 115 
L 58.587571 61.100451 
L 57.519071 61.100451 
z
" clip-path="url(#pffaca51ba3)" style="fill: #ff7f0e; opacity: 0.6"/>
   </g>
   <g id="patch_57">
    <path d="M 58.587571 115 
L 59.656071 115 
L 59.656071 70.083709 
L 58.587571 70.083709 
z
" clip-path="url(#pffaca51ba3)" style="fill: #ff7f0e; opacity: 0.6"/>
   </g>
   <g id="patch_58">
    <path d="M 59.656071 115 
L 60.724572 115 
L 60.724572 79.066967 
L 59.656071 79.066967 
z
" clip-path="url(#pffaca51ba3)" style="fill: #ff7f0e; opacity: 0.6"/>
   </g>
   <g id="patch_59">
    <path d="M 60.724572 115 
L 61.793072 115 
L 61.793072 106.016742 
L 60.724572 106.016742 
z
" clip-path="url(#pffaca51ba3)" style="fill: #ff7f0e; opacity: 0.6"/>
   </g>
   <g id="patch_60">
    <path d="M 61.793072 115 
L 62.861572 115 
L 62.861572 97.033484 
L 61.793072 97.033484 
z
" clip-path="url(#pffaca51ba3)" style="fill: #ff7f0e; opacity: 0.6"/>
   </g>
   <g id="patch_61">
    <path d="M 62.861572 115 
L 63.930072 115 
L 63.930072 106.016742 
L 62.861572 106.016742 
z
" clip-path="url(#pffaca51ba3)" style="fill: #ff7f0e; opacity: 0.6"/>
   </g>
   <g id="patch_62">
    <path d="M 63.930072 115 
L 64.998573 115 
L 64.998573 106.016742 
L 63.930072 106.016742 
z
" clip-path="url(#pffaca51ba3)" style="fill: #ff7f0e; opacity: 0.6"/>
   </g>
   <g id="patch_63">
    <path d="M 50.207288 115 
L 53.615827 115 
L 53.615827 114.986781 
L 50.207288 114.986781 
z
" clip-path="url(#pffaca51ba3)" style="fill: #2ca02c; opacity: 0.6"/>
   </g>
   <g id="patch_64">
    <path d="M 53.615827 115 
L 57.024366 115 
L 57.024366 114.986781 
L 53.615827 114.986781 
z
" clip-path="url(#pffaca51ba3)" style="fill: #2ca02c; opacity: 0.6"/>
   </g>
   <g id="patch_65">
    <path d="M 57.024366 115 
L 60.432905 115 
L 60.432905 114.973563 
L 57.024366 114.973563 
z
" clip-path="url(#pffaca51ba3)" style="fill: #2ca02c; opacity: 0.6"/>
   </g>
   <g id="patch_66">
    <path d="M 60.432905 115 
L 63.841444 115 
L 63.841444 114.973563 
L 60.432905 114.973563 
z
" clip-path="url(#pffaca51ba3)" style="fill: #2ca02c; opacity: 0.6"/>
   </g>
   <g id="patch_67">
    <path d="M 63.841444 115 
L 67.249983 115 
L 67.249983 114.920689 
L 63.841444 114.920689 
z
" clip-path="url(#pffaca51ba3)" style="fill: #2ca02c; opacity: 0.6"/>
   </g>
   <g id="patch_68">
    <path d="M 67.249983 115 
L 70.658522 115 
L 70.658522 114.405167 
L 67.249983 114.405167 
z
" clip-path="url(#pffaca51ba3)" style="fill: #2ca02c; opacity: 0.6"/>
   </g>
   <g id="patch_69">
    <path d="M 70.658522 115 
L 74.067061 115 
L 74.067061 113.255158 
L 70.658522 113.255158 
z
" clip-path="url(#pffaca51ba3)" style="fill: #2ca02c; opacity: 0.6"/>
   </g>
   <g id="patch_70">
    <path d="M 74.067061 115 
L 77.4756 115 
L 77.4756 110.796517 
L 74.067061 110.796517 
z
" clip-path="url(#pffaca51ba3)" style="fill: #2ca02c; opacity: 0.6"/>
   </g>
   <g id="patch_71">
    <path d="M 77.4756 115 
L 80.884139 115 
L 80.884139 107.967757 
L 77.4756 107.967757 
z
" clip-path="url(#pffaca51ba3)" style="fill: #2ca02c; opacity: 0.6"/>
   </g>
   <g id="patch_72">
    <path d="M 80.884139 115 
L 84.292678 115 
L 84.292678 106.791311 
L 80.884139 106.791311 
z
" clip-path="url(#pffaca51ba3)" style="fill: #2ca02c; opacity: 0.6"/>
   </g>
   <g id="patch_73">
    <path d="M 84.292678 115 
L 87.701217 115 
L 87.701217 104.874628 
L 84.292678 104.874628 
z
" clip-path="url(#pffaca51ba3)" style="fill: #2ca02c; opacity: 0.6"/>
   </g>
   <g id="patch_74">
    <path d="M 87.701217 115 
L 91.109756 115 
L 91.109756 102.151617 
L 87.701217 102.151617 
z
" clip-path="url(#pffaca51ba3)" style="fill: #2ca02c; opacity: 0.6"/>
   </g>
   <g id="patch_75">
    <path d="M 91.109756 115 
L 94.518295 115 
L 94.518295 99.983783 
L 91.109756 99.983783 
z
" clip-path="url(#pffaca51ba3)" style="fill: #2ca02c; opacity: 0.6"/>
   </g>
   <g id="patch_76">
    <path d="M 94.518295 115 
L 97.926834 115 
L 97.926834 101.133792 
L 94.518295 101.133792 
z
" clip-path="url(#pffaca51ba3)" style="fill: #2ca02c; opacity: 0.6"/>
   </g>
   <g id="patch_77">
    <path d="M 97.926834 115 
L 101.335373 115 
L 101.335373 103.288408 
L 97.926834 103.288408 
z
" clip-path="url(#pffaca51ba3)" style="fill: #2ca02c; opacity: 0.6"/>
   </g>
   <g id="patch_78">
    <path d="M 101.335373 115 
L 104.743912 115 
L 104.743912 103.949333 
L 101.335373 103.949333 
z
" clip-path="url(#pffaca51ba3)" style="fill: #2ca02c; opacity: 0.6"/>
   </g>
   <g id="patch_79">
    <path d="M 104.743912 115 
L 108.152451 115 
L 108.152451 105.310839 
L 104.743912 105.310839 
z
" clip-path="url(#pffaca51ba3)" style="fill: #2ca02c; opacity: 0.6"/>
   </g>
   <g id="patch_80">
    <path d="M 108.152451 115 
L 111.56099 115 
L 111.56099 106.487285 
L 108.152451 106.487285 
z
" clip-path="url(#pffaca51ba3)" style="fill: #2ca02c; opacity: 0.6"/>
   </g>
   <g id="patch_81">
    <path d="M 111.56099 115 
L 114.969529 115 
L 114.969529 108.218909 
L 111.56099 108.218909 
z
" clip-path="url(#pffaca51ba3)" style="fill: #2ca02c; opacity: 0.6"/>
   </g>
   <g id="patch_82">
    <path d="M 114.969529 115 
L 118.378068 115 
L 118.378068 109.435011 
L 114.969529 109.435011 
z
" clip-path="url(#pffaca51ba3)" style="fill: #2ca02c; opacity: 0.6"/>
   </g>
   <g id="patch_83">
    <path d="M 118.378068 115 
L 121.786607 115 
L 121.786607 110.77008 
L 118.378068 110.77008 
z
" clip-path="url(#pffaca51ba3)" style="fill: #2ca02c; opacity: 0.6"/>
   </g>
   <g id="patch_84">
    <path d="M 121.786607 115 
L 125.195146 115 
L 125.195146 111.814341 
L 121.786607 111.814341 
z
" clip-path="url(#pffaca51ba3)" style="fill: #2ca02c; opacity: 0.6"/>
   </g>
   <g id="patch_85">
    <path d="M 125.195146 115 
L 128.603685 115 
L 128.603685 112.250552 
L 125.195146 112.250552 
z
" clip-path="url(#pffaca51ba3)" style="fill: #2ca02c; opacity: 0.6"/>
   </g>
   <g id="patch_86">
    <path d="M 128.603685 115 
L 132.012224 115 
L 132.012224 112.343081 
L 128.603685 112.343081 
z
" clip-path="url(#pffaca51ba3)" style="fill: #2ca02c; opacity: 0.6"/>
   </g>
   <g id="patch_87">
    <path d="M 132.012224 115 
L 135.420763 115 
L 135.420763 113.070099 
L 132.012224 113.070099 
z
" clip-path="url(#pffaca51ba3)" style="fill: #2ca02c; opacity: 0.6"/>
   </g>
   <g id="patch_88">
    <path d="M 135.420763 115 
L 138.829302 115 
L 138.829302 113.559183 
L 135.420763 113.559183 
z
" clip-path="url(#pffaca51ba3)" style="fill: #2ca02c; opacity: 0.6"/>
   </g>
   <g id="patch_89">
    <path d="M 138.829302 115 
L 142.237841 115 
L 142.237841 114.035049 
L 138.829302 114.035049 
z
" clip-path="url(#pffaca51ba3)" style="fill: #2ca02c; opacity: 0.6"/>
   </g>
   <g id="patch_90">
    <path d="M 142.237841 115 
L 145.64638 115 
L 145.64638 114.550571 
L 142.237841 114.550571 
z
" clip-path="url(#pffaca51ba3)" style="fill: #2ca02c; opacity: 0.6"/>
   </g>
   <g id="patch_91">
    <path d="M 145.64638 115 
L 149.054919 115 
L 149.054919 114.458041 
L 145.64638 114.458041 
z
" clip-path="url(#pffaca51ba3)" style="fill: #2ca02c; opacity: 0.6"/>
   </g>
   <g id="patch_92">
    <path d="M 149.054919 115 
L 152.463458 115 
L 152.463458 114.73563 
L 149.054919 114.73563 
z
" clip-path="url(#pffaca51ba3)" style="fill: #2ca02c; opacity: 0.6"/>
   </g>
   <g id="patch_93">
    <path d="M 152.463458 115 
L 155.871997 115 
L 155.871997 114.801722 
L 152.463458 114.801722 
z
" clip-path="url(#pffaca51ba3)" style="fill: #2ca02c; opacity: 0.6"/>
   </g>
   <g id="patch_94">
    <path d="M 155.871997 115 
L 159.280536 115 
L 159.280536 114.841378 
L 155.871997 114.841378 
z
" clip-path="url(#pffaca51ba3)" style="fill: #2ca02c; opacity: 0.6"/>
   </g>
   <g id="patch_95">
    <path d="M 159.280536 115 
L 162.689075 115 
L 162.689075 114.828159 
L 159.280536 114.828159 
z
" clip-path="url(#pffaca51ba3)" style="fill: #2ca02c; opacity: 0.6"/>
   </g>
   <g id="patch_96">
    <path d="M 162.689075 115 
L 166.097614 115 
L 166.097614 114.90747 
L 162.689075 114.90747 
z
" clip-path="url(#pffaca51ba3)" style="fill: #2ca02c; opacity: 0.6"/>
   </g>
   <g id="patch_97">
    <path d="M 166.097614 115 
L 169.506153 115 
L 169.506153 114.947126 
L 166.097614 114.947126 
z
" clip-path="url(#pffaca51ba3)" style="fill: #2ca02c; opacity: 0.6"/>
   </g>
   <g id="patch_98">
    <path d="M 169.506153 115 
L 172.914692 115 
L 172.914692 114.933907 
L 169.506153 114.933907 
z
" clip-path="url(#pffaca51ba3)" style="fill: #2ca02c; opacity: 0.6"/>
   </g>
   <g id="patch_99">
    <path d="M 172.914692 115 
L 176.323231 115 
L 176.323231 114.947126 
L 172.914692 114.947126 
z
" clip-path="url(#pffaca51ba3)" style="fill: #2ca02c; opacity: 0.6"/>
   </g>
   <g id="patch_100">
    <path d="M 176.323231 115 
L 179.73177 115 
L 179.73177 114.960344 
L 176.323231 114.960344 
z
" clip-path="url(#pffaca51ba3)" style="fill: #2ca02c; opacity: 0.6"/>
   </g>
   <g id="patch_101">
    <path d="M 179.73177 115 
L 183.140309 115 
L 183.140309 114.973563 
L 179.73177 114.973563 
z
" clip-path="url(#pffaca51ba3)" style="fill: #2ca02c; opacity: 0.6"/>
   </g>
   <g id="patch_102">
    <path d="M 183.140309 115 
L 186.548848 115 
L 186.548848 114.947126 
L 183.140309 114.947126 
z
" clip-path="url(#pffaca51ba3)" style="fill: #2ca02c; opacity: 0.6"/>
   </g>
   <g id="matplotlib.axis_1">
    <g id="xtick_1">
     <g id="line2d_1">
      <defs>
       <path id="m09302883cb" d="M 0 0 
L 0 3.5 
" style="stroke: #000000; stroke-width: 0.8"/>
      </defs>
      <g>
       <use xlink:href="#m09302883cb" x="32.81" y="115" style="stroke: #000000; stroke-width: 0.8"/>
      </g>
     </g>
     <g id="text_1">
      <text style="font: 6px 'DejaVu Sans', 'Arial', 'Helvetica', 'Lucida Grande', 'Verdana', 'Geneva', 'Lucid', 'Avant Garde', sans-serif; text-anchor: middle" x="32.81" y="126.559063" transform="rotate(-0 32.81 126.559063)">0</text>
     </g>
    </g>
    <g id="xtick_2">
     <g id="line2d_2">
      <g>
       <use xlink:href="#m09302883cb" x="61.896111" y="115" style="stroke: #000000; stroke-width: 0.8"/>
      </g>
     </g>
     <g id="text_2">
      <text style="font: 6px 'DejaVu Sans', 'Arial', 'Helvetica', 'Lucida Grande', 'Verdana', 'Geneva', 'Lucid', 'Avant Garde', sans-serif; text-anchor: middle" x="61.896111" y="126.559063" transform="rotate(-0 61.896111 126.559063)">5</text>
     </g>
    </g>
    <g id="xtick_3">
     <g id="line2d_3">
      <g>
       <use xlink:href="#m09302883cb" x="90.982222" y="115" style="stroke: #000000; stroke-width: 0.8"/>
      </g>
     </g>
     <g id="text_3">
      <text style="font: 6px 'DejaVu Sans', 'Arial', 'Helvetica', 'Lucida Grande', 'Verdana', 'Geneva', 'Lucid', 'Avant Garde', sans-serif; text-anchor: middle" x="90.982222" y="126.559063" transform="rotate(-0 90.982222 126.559063)">10</text>
     </g>
    </g>
    <g id="xtick_4">
     <g id="line2d_4">
      <g>
       <use xlink:href="#m09302883cb" x="120.068333" y="115" style="stroke: #000000; stroke-width: 0.8"/>
      </g>
     </g>
     <g id="text_4">
      <text style="font: 6px 'DejaVu Sans', 'Arial', 'Helvetica', 'Lucida Grande', 'Verdana', 'Geneva', 'Lucid', 'Avant Garde', sans-serif; text-anchor: middle" x="120.068333" y="126.559063" transform="rotate(-0 120.068333 126.559063)">15</text>
     </g>
    </g>
    <g id="text_5">
     <text style="font: 6px 'DejaVu Sans', 'Arial', 'Helvetica', 'Lucida Grande', 'Verdana', 'Geneva', 'Lucid', 'Avant Garde', sans-serif; text-anchor: middle" x="85.165" y="136.365938" transform="rotate(-0 85.165 136.365938)">Intensity</text>
    </g>
   </g>
   <g id="matplotlib.axis_2">
    <g id="ytick_1">
     <g id="line2d_5">
      <defs>
       <path id="m6ae283ba6a" d="M 0 0 
L -3.5 0 
" style="stroke: #000000; stroke-width: 0.8"/>
      </defs>
      <g>
       <use xlink:href="#m6ae283ba6a" x="32.81" y="115" style="stroke: #000000; stroke-width: 0.8"/>
      </g>
     </g>
     <g id="text_6">
      <text style="font: 6px 'DejaVu Sans', 'Arial', 'Helvetica', 'Lucida Grande', 'Verdana', 'Geneva', 'Lucid', 'Avant Garde', sans-serif; text-anchor: end" x="25.81" y="117.279531" transform="rotate(-0 25.81 117.279531)">0.0</text>
     </g>
    </g>
    <g id="ytick_2">
     <g id="line2d_6">
      <g>
       <use xlink:href="#m6ae283ba6a" x="32.81" y="97.839648" style="stroke: #000000; stroke-width: 0.8"/>
      </g>
     </g>
     <g id="text_7">
      <text style="font: 6px 'DejaVu Sans', 'Arial', 'Helvetica', 'Lucida Grande', 'Verdana', 'Geneva', 'Lucid', 'Avant Garde', sans-serif; text-anchor: end" x="25.81" y="100.119179" transform="rotate(-0 25.81 100.119179)">0.2</text>
     </g>
    </g>
    <g id="ytick_3">
     <g id="line2d_7">
      <g>
       <use xlink:href="#m6ae283ba6a" x="32.81" y="80.679296" style="stroke: #000000; stroke-width: 0.8"/>
      </g>
     </g>
     <g id="text_8">
      <text style="font: 6px 'DejaVu Sans', 'Arial', 'Helvetica', 'Lucida Grande', 'Verdana', 'Geneva', 'Lucid', 'Avant Garde', sans-serif; text-anchor: end" x="25.81" y="82.958828" transform="rotate(-0 25.81 82.958828)">0.4</text>
     </g>
    </g>
    <g id="ytick_4">
     <g id="line2d_8">
      <g>
       <use xlink:href="#m6ae283ba6a" x="32.81" y="63.518945" style="stroke: #000000; stroke-width: 0.8"/>
      </g>
     </g>
     <g id="text_9">
      <text style="font: 6px 'DejaVu Sans', 'Arial', 'Helvetica', 'Lucida Grande', 'Verdana', 'Geneva', 'Lucid', 'Avant Garde', sans-serif; text-anchor: end" x="25.81" y="65.798476" transform="rotate(-0 25.81 65.798476)">0.6</text>
     </g>
    </g>
    <g id="ytick_5">
     <g id="line2d_9">
      <g>
       <use xlink:href="#m6ae283ba6a" x="32.81" y="46.358593" style="stroke: #000000; stroke-width: 0.8"/>
      </g>
     </g>
     <g id="text_10">
      <text style="font: 6px 'DejaVu Sans', 'Arial', 'Helvetica', 'Lucida Grande', 'Verdana', 'Geneva', 'Lucid', 'Avant Garde', sans-serif; text-anchor: end" x="25.81" y="48.638124" transform="rotate(-0 25.81 48.638124)">0.8</text>
     </g>
    </g>
    <g id="ytick_6">
     <g id="line2d_10">
      <g>
       <use xlink:href="#m6ae283ba6a" x="32.81" y="29.198241" style="stroke: #000000; stroke-width: 0.8"/>
      </g>
     </g>
     <g id="text_11">
      <text style="font: 6px 'DejaVu Sans', 'Arial', 'Helvetica', 'Lucida Grande', 'Verdana', 'Geneva', 'Lucid', 'Avant Garde', sans-serif; text-anchor: end" x="25.81" y="31.477772" transform="rotate(-0 25.81 31.477772)">1.0</text>
     </g>
    </g>
    <g id="text_12">
     <text style="font: 6px 'DejaVu Sans', 'Arial', 'Helvetica', 'Lucida Grande', 'Verdana', 'Geneva', 'Lucid', 'Avant Garde', sans-serif; text-anchor: middle" x="11.020313" y="70.196" transform="rotate(-90 11.020313 70.196)">Density</text>
    </g>
   </g>
   <g id="patch_103">
    <path d="M 32.81 115 
L 32.81 25.392 
" style="fill: none; stroke: #000000; stroke-width: 0.5; stroke-linejoin: miter; stroke-linecap: square"/>
   </g>
   <g id="patch_104">
    <path d="M 32.81 115 
L 137.52 115 
" style="fill: none; stroke: #000000; stroke-width: 0.5; stroke-linejoin: miter; stroke-linecap: square"/>
   </g>
   <g id="legend_1">
    <g id="patch_105">
     <path d="M 58.74 56.62575 
L 133.32 56.62575 
Q 134.52 56.62575 134.52 55.42575 
L 134.52 29.592 
Q 134.52 28.392 133.32 28.392 
L 58.74 28.392 
Q 57.54 28.392 57.54 29.592 
L 57.54 55.42575 
Q 57.54 56.62575 58.74 56.62575 
z
" style="fill: #ffffff; opacity: 0.8; stroke: #cccccc; stroke-linejoin: miter"/>
    </g>
    <g id="patch_106">
     <path d="M 59.94 35.351062 
L 71.94 35.351062 
L 71.94 31.151062 
L 59.94 31.151062 
z
" style="fill: #1f77b4"/>
    </g>
    <g id="text_13">
     <text style="font: 6px 'DejaVu Sans', 'Arial', 'Helvetica', 'Lucida Grande', 'Verdana', 'Geneva', 'Lucid', 'Avant Garde', sans-serif; text-anchor: start" x="76.74" y="35.351062" transform="rotate(-0 76.74 35.351062)">All cells</text>
    </g>
    <g id="patch_107">
     <path d="M 59.94 44.157937 
L 71.94 44.157937 
L 71.94 39.957937 
L 59.94 39.957937 
z
" style="fill: #ff7f0e; opacity: 0.6"/>
    </g>
    <g id="text_14">
     <text style="font: 6px 'DejaVu Sans', 'Arial', 'Helvetica', 'Lucida Grande', 'Verdana', 'Geneva', 'Lucid', 'Avant Garde', sans-serif; text-anchor: start" x="76.74" y="44.157937" transform="rotate(-0 76.74 44.157937)">1 cell</text>
    </g>
    <g id="patch_108">
     <path d="M 59.94 52.96575 
L 71.94 52.96575 
L 71.94 48.76575 
L 59.94 48.76575 
z
" style="fill: #2ca02c; opacity: 0.6"/>
    </g>
    <g id="text_15">
     <!-- Colony $N_{cells}$ $&gt;$ 50 -->
     <g transform="translate(76.74 52.96575)">
      <text>
       <tspan style="font: 6px 'DejaVu Sans'" x="0 4.189453 7.860352 9.527344 13.198242 17.000977 20.551758 36.526465 39.602637 45.798926 47.706152 51.523535" y="-0.4375">Colony  &gt; 50</tspan>
       <tspan style="font: oblique 6px 'DejaVu Sans'" x="22.458984" y="-0.4375">N</tspan>
       <tspan style="font: oblique 4.2px 'DejaVu Sans'" x="26.947266 29.256445 31.84043 33.007324 34.174219" y="0.546875">cells</tspan>
      </text>
     </g>
    </g>
   </g>
  </g>
  <g id="text_16">
   <text style="font: 700 6px 'DejaVu Sans', 'Arial', 'Helvetica', 'Lucida Grande', 'Verdana', 'Geneva', 'Lucid', 'Avant Garde', sans-serif" transform="translate(29.282344 7.439063)">Distribution of single cell</text>
   <text style="font: 700 6px 'DejaVu Sans', 'Arial', 'Helvetica', 'Lucida Grande', 'Verdana', 'Geneva', 'Lucid', 'Avant Garde', sans-serif" transform="translate(27.357188 14.204625)">intensities in real colonies</text>
  </g>
 </g>
 <defs>
  <clipPath id="pffaca51ba3">
   <rect x="32.81" y="25.392" width="104.71" height="89.608"/>
  </clipPath>
 </defs>
</svg>
