<?xml version="1.0" encoding="utf-8" standalone="no"?>
<!DOCTYPE svg PUBLIC "-//W3C//DTD SVG 1.1//EN"
  "http://www.w3.org/Graphics/SVG/1.1/DTD/svg11.dtd">
<svg xmlns:xlink="http://www.w3.org/1999/xlink" width="118.8pt" height="144pt" viewBox="0 0 118.8 144" xmlns="http://www.w3.org/2000/svg" version="1.1">
 <metadata>
  <rdf:RDF xmlns:dc="http://purl.org/dc/elements/1.1/" xmlns:cc="http://creativecommons.org/ns#" xmlns:rdf="http://www.w3.org/1999/02/22-rdf-syntax-ns#">
   <cc:Work>
    <dc:type rdf:resource="http://purl.org/dc/dcmitype/StillImage"/>
    <dc:date>2023-12-21T02:45:16.779961</dc:date>
    <dc:format>image/svg+xml</dc:format>
    <dc:creator>
     <cc:Agent>
      <dc:title>Matplotlib v3.8.2, https://matplotlib.org/</dc:title>
     </cc:Agent>
    </dc:creator>
   </cc:Work>
  </rdf:RDF>
 </metadata>
 <defs>
  <style type="text/css">*{stroke-linejoin: round; stroke-linecap: butt}</style>
 </defs>
 <g id="figure_1">
  <g id="patch_1">
   <path d="M 0 144 
L 118.8 144 
L 118.8 0 
L 0 0 
L 0 144 
z
" style="fill: none"/>
  </g>
  <g id="axes_1">
   <g id="patch_2">
    <path d="M 32.81 114.232 
L 111.10168 114.232 
L 111.10168 25.392 
L 32.81 25.392 
L 32.81 114.232 
z
" style="fill: none"/>
   </g>
   <g id="PolyCollection_1">
    <defs>
     <path id="m96cb4d8984" d="M 36.368713 -35.943513 
L 36.368713 -33.806182 
L 43.523078 -34.203703 
L 47.708114 -34.941025 
L 50.677444 -36.538094 
L 52.980635 -37.685127 
L 54.862479 -37.783296 
L 56.453556 -39.426701 
L 57.831809 -39.860262 
L 59.047515 -41.59108 
L 60.135 -40.616401 
L 61.118751 -41.63115 
L 62.016844 -40.817953 
L 62.843011 -41.867122 
L 63.607921 -43.134686 
L 64.320036 -43.903792 
L 64.986174 -43.576422 
L 65.611915 -45.281805 
L 66.20188 -44.202566 
L 66.759938 -44.659282 
L 67.289366 -44.719034 
L 67.792957 -46.007328 
L 68.273116 -44.90875 
L 68.731928 -46.160573 
L 69.17121 -46.372233 
L 69.592557 -45.948674 
L 69.997376 -47.287066 
L 70.386915 -46.392233 
L 70.762286 -47.094017 
L 71.124484 -47.193814 
L 71.474401 -48.837799 
L 71.812843 -47.016229 
L 72.458152 -49.084047 
L 72.766281 -49.003832 
L 73.065478 -48.932462 
L 73.356245 -47.702583 
L 73.639046 -48.936778 
L 73.914304 -48.598815 
L 74.182412 -50.853048 
L 74.698597 -49.476849 
L 75.427481 -49.595353 
L 75.659437 -49.429261 
L 75.886293 -50.931187 
L 76.108271 -50.829478 
L 76.325575 -51.496329 
L 76.538399 -52.009183 
L 76.951316 -51.947651 
L 77.730673 -52.08701 
L 77.916652 -51.516047 
L 78.099339 -53.213018 
L 78.278849 -51.787883 
L 78.455291 -52.297114 
L 78.628766 -53.128139 
L 79.132357 -50.170726 
L 79.294905 -50.085192 
L 79.767731 -52.927874 
L 79.920646 -53.020406 
L 80.219843 -54.386184 
L 80.510611 -53.406436 
L 80.652979 -52.500687 
L 80.793411 -53.349199 
L 81.468264 -53.919135 
L 81.852963 -54.644995 
L 81.978074 -53.675561 
L 82.101687 -55.10657 
L 82.463885 -54.159628 
L 82.698476 -53.82755 
L 82.813802 -53.357963 
L 82.927854 -55.576814 
L 83.479941 -55.611159 
L 83.586901 -54.950898 
L 83.692764 -55.320601 
L 83.797552 -55.594321 
L 83.901288 -55.049308 
L 84.105682 -55.125364 
L 84.206381 -55.430794 
L 84.790777 -56.960061 
L 85.162765 -57.431724 
L 85.253705 -56.12847 
L 85.34385 -56.652233 
L 85.433215 -55.698811 
L 85.609656 -56.539607 
L 85.95374 -55.935552 
L 86.037998 -56.265433 
L 86.368317 -57.058243 
L 86.529594 -58.120326 
L 87.075012 -56.66626 
L 87.150628 -57.611529 
L 87.225694 -57.90576 
L 87.300218 -56.537262 
L 87.447672 -57.308666 
L 87.593049 -57.305758 
L 88.086323 -57.488996 
L 88.154905 -58.364112 
L 88.357959 -56.893116 
L 88.816771 -57.360019 
L 88.880682 -57.587957 
L 89.007328 -58.640901 
L 89.13244 -58.295781 
L 89.256053 -58.522862 
L 89.378203 -58.144985 
L 90.250968 -59.6329 
L 90.471758 -58.116882 
L 90.634306 -59.336417 
L 90.741266 -59.205063 
L 90.847129 -59.093146 
L 91.209327 -58.081904 
L 92.086213 -59.937938 
L 92.132812 -59.76511 
L 92.179201 -58.855104 
L 92.225383 -59.627411 
L 92.453241 -59.733692 
L 92.542994 -59.651342 
L 92.720193 -59.770662 
L 93.522682 -59.935351 
L 93.763664 -60.434762 
L 93.960271 -60.615171 
L 94.076462 -60.40507 
L 94.114904 -60.245891 
L 94.38006 -60.536966 
L 94.711261 -59.818997 
L 95.032165 -60.601591 
L 95.275037 -60.920971 
L 95.678537 -61.118712 
L 95.71146 -60.856839 
L 95.744279 -60.594087 
L 95.842115 -60.774435 
L 95.939032 -61.031079 
L 96.066855 -61.109729 
L 96.772616 -61.179141 
L 96.861213 -61.298263 
L 96.890578 -60.908228 
L 97.065031 -61.685267 
L 97.208189 -61.853829 
L 97.54388 -61.062075 
L 97.571367 -61.731573 
L 97.653393 -61.639604 
L 97.707718 -61.626947 
L 98.158281 -62.137605 
L 98.363692 -61.65485 
L 98.490029 -62.171122 
L 98.614838 -62.333314 
L 98.83576 -62.265556 
L 98.956481 -61.849497 
L 99.075807 -62.488018 
L 99.146746 -62.067438 
L 99.539776 -62.58708 
L 99.830543 -62.397159 
L 100.048766 -62.86061 
L 100.091863 -61.86662 
L 100.325729 -62.608217 
L 100.346729 -62.894158 
L 100.451094 -62.328061 
L 100.492546 -62.701324 
L 100.533832 -62.922247 
L 100.636331 -63.263183 
L 101.056046 -63.213207 
L 101.49696 -62.448664 
L 101.51571 -63.243837 
L 101.646011 -63.180924 
L 101.792939 -63.403391 
L 101.901779 -63.438072 
L 102.133734 -63.614395 
L 102.151363 -63.019478 
L 102.480711 -63.561917 
L 102.733496 -63.626961 
L 102.898645 -63.044484 
L 103.077307 -63.600123 
L 103.093397 -63.766834 
L 103.173472 -63.648356 
L 103.205329 -63.886621 
L 103.580132 -63.40184 
L 103.686934 -64.138335 
L 104.176059 -63.975169 
L 104.219396 -63.316618 
L 104.248187 -64.050023 
L 104.291224 -64.155092 
L 104.334082 -64.374835 
L 104.780489 -64.227955 
L 104.916123 -63.825789 
L 105.089823 -64.494006 
L 105.142687 -64.287262 
L 105.312647 -64.51455 
L 105.518058 -64.586513 
L 105.63183 -63.613023 
L 105.644394 -64.413752 
L 105.694499 -64.170381 
L 106.014382 -64.591309 
L 106.050662 -64.563099 
L 106.289322 -64.500824 
L 106.41827 -65.069471 
L 106.716801 -64.952268 
L 106.818159 -64.213844 
L 106.918532 -64.721063 
L 106.984909 -64.684331 
L 107.039898 -64.528226 
L 107.213923 -64.906271 
L 107.448514 -64.826592 
L 107.480094 -64.601188 
L 107.4906 -65.068646 
L 107.542967 -65.288192 
L 107.542967 -65.921536 
L 107.542967 -65.921536 
L 107.4906 -65.702668 
L 107.480094 -65.256078 
L 107.448514 -65.526777 
L 107.213923 -65.587539 
L 107.039898 -65.214244 
L 106.984909 -65.365166 
L 106.918532 -65.37093 
L 106.818159 -64.952698 
L 106.716801 -65.685771 
L 106.41827 -65.744873 
L 106.289322 -65.008731 
L 106.050662 -65.294724 
L 106.014382 -65.321245 
L 105.694499 -64.952044 
L 105.644394 -65.153555 
L 105.63183 -64.358111 
L 105.518058 -65.320713 
L 105.312647 -65.242293 
L 105.142687 -65.07804 
L 105.089823 -65.257666 
L 104.916123 -64.661026 
L 104.780489 -64.788393 
L 104.334082 -65.174598 
L 104.291224 -64.995982 
L 104.248187 -64.859116 
L 104.219396 -64.526706 
L 104.176059 -64.76727 
L 103.686934 -64.717496 
L 103.580132 -64.058674 
L 103.205329 -64.761382 
L 103.173472 -64.494946 
L 103.093397 -64.638128 
L 103.077307 -64.266117 
L 102.898645 -63.861561 
L 102.733496 -64.52759 
L 102.480711 -64.457338 
L 102.151363 -63.973485 
L 102.133734 -64.343702 
L 101.901779 -64.10432 
L 101.792939 -64.339253 
L 101.646011 -63.897982 
L 101.51571 -64.167743 
L 101.49696 -63.354775 
L 101.056046 -64.223657 
L 100.636331 -64.27122 
L 100.533832 -63.947297 
L 100.492546 -63.705931 
L 100.451094 -63.883141 
L 100.346729 -63.951015 
L 100.325729 -63.257864 
L 100.091863 -62.955252 
L 100.048766 -63.872937 
L 99.830543 -63.877248 
L 99.539776 -63.639134 
L 99.146746 -63.132945 
L 99.075807 -63.519314 
L 98.956481 -62.958729 
L 98.83576 -63.40498 
L 98.614838 -63.380954 
L 98.490029 -63.190675 
L 98.363692 -62.498316 
L 98.158281 -63.067791 
L 97.707718 -62.798183 
L 97.653393 -62.698485 
L 97.571367 -62.984668 
L 97.54388 -62.306555 
L 97.208189 -62.580086 
L 97.065031 -62.869197 
L 96.890578 -62.202199 
L 96.861213 -62.53561 
L 96.772616 -62.459312 
L 96.066855 -62.367692 
L 95.939032 -62.293377 
L 95.842115 -61.744793 
L 95.744279 -61.85035 
L 95.71146 -62.191803 
L 95.678537 -62.181364 
L 95.275037 -62.195866 
L 95.032165 -62.014478 
L 94.711261 -61.308939 
L 94.38006 -61.730421 
L 94.114904 -61.241013 
L 94.076462 -61.852399 
L 93.960271 -61.577855 
L 93.763664 -61.745403 
L 93.522682 -61.357146 
L 92.720193 -60.841739 
L 92.542994 -60.694485 
L 92.453241 -61.196302 
L 92.225383 -61.122845 
L 92.179201 -60.432806 
L 92.132812 -61.573943 
L 92.086213 -61.23236 
L 91.209327 -59.531222 
L 90.847129 -60.295067 
L 90.741266 -60.454258 
L 90.634306 -61.103861 
L 90.471758 -59.581377 
L 90.250968 -61.150269 
L 89.378203 -60.121633 
L 89.256053 -59.914967 
L 89.13244 -60.151123 
L 89.007328 -60.420896 
L 88.880682 -59.238721 
L 88.816771 -58.916532 
L 88.357959 -58.802606 
L 88.154905 -59.593117 
L 88.086323 -59.295538 
L 87.593049 -59.402009 
L 87.447672 -59.057858 
L 87.300218 -58.653776 
L 87.225694 -59.724149 
L 87.150628 -59.428963 
L 87.075012 -58.512073 
L 86.529594 -60.021849 
L 86.368317 -58.618563 
L 86.037998 -58.140174 
L 85.95374 -58.063744 
L 85.609656 -57.679879 
L 85.433215 -57.834049 
L 85.34385 -58.555166 
L 85.253705 -58.068826 
L 85.162765 -58.941263 
L 84.790777 -58.72994 
L 84.206381 -57.185943 
L 84.105682 -57.415819 
L 83.901288 -57.344477 
L 83.797552 -57.037476 
L 83.692764 -57.396047 
L 83.586901 -57.040073 
L 83.479941 -57.03457 
L 82.927854 -57.731382 
L 82.813802 -55.430691 
L 82.698476 -56.308899 
L 82.463885 -56.256864 
L 82.101687 -56.432423 
L 81.978074 -56.281501 
L 81.852963 -56.120209 
L 81.468264 -56.455966 
L 80.793411 -54.956465 
L 80.652979 -54.459857 
L 80.510611 -55.182189 
L 80.219843 -56.394149 
L 79.920646 -55.503389 
L 79.767731 -54.735726 
L 79.294905 -53.042549 
L 79.132357 -52.749884 
L 78.628766 -55.738681 
L 78.455291 -53.586683 
L 78.278849 -54.142931 
L 78.099339 -55.339357 
L 77.916652 -54.624838 
L 77.730673 -54.567516 
L 76.951316 -53.856177 
L 76.538399 -54.157597 
L 76.325575 -52.855678 
L 76.108271 -52.584877 
L 75.886293 -53.178857 
L 75.659437 -51.309465 
L 75.427481 -51.336741 
L 74.698597 -51.947038 
L 74.182412 -52.144394 
L 73.914304 -50.644944 
L 73.639046 -50.335736 
L 73.356245 -50.588997 
L 73.065478 -51.343059 
L 72.766281 -52.002219 
L 72.458152 -50.624373 
L 71.812843 -49.094677 
L 71.474401 -50.791813 
L 71.124484 -49.073672 
L 70.762286 -49.153518 
L 70.386915 -48.001699 
L 69.997376 -49.367542 
L 69.592557 -48.823913 
L 69.17121 -49.616046 
L 68.731928 -47.544859 
L 68.273116 -47.122743 
L 67.792957 -47.504301 
L 67.289366 -46.5788 
L 66.759938 -46.205347 
L 66.20188 -45.995662 
L 65.611915 -46.834395 
L 64.986174 -44.819619 
L 64.320036 -45.418649 
L 63.607921 -44.736283 
L 62.843011 -43.202979 
L 62.016844 -43.520488 
L 61.118751 -43.071368 
L 60.135 -42.353626 
L 59.047515 -42.989112 
L 57.831809 -40.83392 
L 56.453556 -40.446936 
L 54.862479 -38.870993 
L 52.980635 -38.677355 
L 50.677444 -37.276989 
L 47.708114 -35.551974 
L 43.523078 -34.848281 
L 36.368713 -35.943513 
z
" style="stroke: #1f77b4; stroke-opacity: 0.2"/>
    </defs>
    <g clip-path="url(#pab8f9384db)">
     <use xlink:href="#m96cb4d8984" x="0" y="144" style="fill: #1f77b4; fill-opacity: 0.2; stroke: #1f77b4; stroke-opacity: 0.2"/>
    </g>
   </g>
   <g id="PolyCollection_2">
    <defs>
     <path id="mcec7b6f95d" d="M 36.368713 -35.79313 
L 36.368713 -34.004261 
L 43.523078 -36.436761 
L 47.708114 -39.114672 
L 50.677444 -41.58208 
L 52.980635 -42.68204 
L 54.862479 -44.559581 
L 56.453556 -45.549972 
L 57.831809 -47.60041 
L 59.047515 -47.245968 
L 60.135 -48.987584 
L 61.118751 -49.803865 
L 62.016844 -49.259458 
L 62.843011 -50.193277 
L 63.607921 -51.084309 
L 64.320036 -52.38233 
L 64.986174 -53.690197 
L 65.611915 -53.092216 
L 66.20188 -51.941719 
L 66.759938 -53.703073 
L 67.289366 -54.712191 
L 67.792957 -53.269808 
L 68.273116 -53.629338 
L 68.731928 -56.903367 
L 69.17121 -56.090492 
L 69.592557 -55.65411 
L 69.997376 -55.549133 
L 70.386915 -57.167725 
L 70.762286 -57.65408 
L 71.124484 -56.969681 
L 71.474401 -56.433175 
L 71.812843 -58.656164 
L 72.14054 -58.754075 
L 72.458152 -58.46116 
L 72.766281 -58.058377 
L 73.065478 -58.040716 
L 73.356245 -59.536058 
L 73.639046 -59.493129 
L 73.914304 -58.725167 
L 74.182412 -60.994808 
L 74.443731 -61.094019 
L 74.698597 -62.632271 
L 74.947322 -61.157555 
L 75.190194 -62.709763 
L 75.427481 -62.802872 
L 75.659437 -60.987403 
L 75.886293 -62.370389 
L 76.108271 -61.634542 
L 76.325575 -63.121679 
L 76.746922 -63.844245 
L 76.951316 -66.843482 
L 77.151741 -63.473578 
L 77.348349 -65.175554 
L 77.541281 -63.692865 
L 77.730673 -65.1944 
L 77.916652 -62.14275 
L 78.099339 -70.586935 
L 78.278849 -65.085809 
L 78.628766 -66.47456 
L 78.799375 -65.330547 
L 78.967209 -65.966706 
L 79.132357 -65.869541 
L 79.612517 -65.258469 
L 79.767731 -67.195391 
L 79.920646 -64.269184 
L 80.071329 -66.724231 
L 80.219843 -65.371043 
L 80.366251 -68.028849 
L 80.793411 -71.085462 
L 81.068669 -64.792573 
L 81.203594 -64.899309 
L 82.344559 -65.299184 
L 82.698476 -65.586937 
L 82.813802 -66.810158 
L 83.152244 -73.337521 
L 83.586901 -69.37866 
L 83.901288 -70.529417 
L 84.003991 -67.987283 
L 84.306107 -66.68641 
L 84.502714 -71.286911 
L 84.695646 -73.262137 
L 84.790777 -72.003202 
L 85.433215 -75.52676 
L 85.783132 -65.75209 
L 86.037998 -73.632846 
L 86.204479 -77.803681 
L 86.609298 -79.785646 
L 86.922097 -72.803665 
L 87.225694 -76.627671 
L 87.520616 -72.695495 
L 87.947776 -68.75922 
L 88.424765 -81.102121 
L 88.752462 -79.767841 
L 89.43874 -73.21139 
L 90.30661 -69.517831 
L 90.526226 -78.366784 
L 91.31052 -83.206476 
L 91.460472 -84.249504 
L 92.453241 -81.616988 
L 93.108106 -87.06916 
L 93.192364 -82.120354 
L 94.602037 -72.975524 
L 94.674982 -87.386012 
L 95.512324 -96.039821 
L 95.545782 -94.824311 
L 97.151164 -85.231559 
L 97.948699 -90.326869 
L 98.389084 -84.046513 
L 102.99648 -111.431193 
L 105.390156 -101.404079 
L 105.390156 -103.463742 
L 105.390156 -103.463742 
L 102.99648 -114.569818 
L 98.389084 -86.507691 
L 97.948699 -92.540197 
L 97.151164 -87.383038 
L 95.545782 -97.497252 
L 95.512324 -99.142284 
L 94.674982 -89.5226 
L 94.602037 -75.028298 
L 93.192364 -84.751542 
L 93.108106 -89.972154 
L 92.453241 -84.526225 
L 91.460472 -87.258145 
L 91.31052 -86.063572 
L 90.526226 -81.262359 
L 90.30661 -72.446859 
L 89.43874 -76.404033 
L 88.752462 -82.455084 
L 88.424765 -84.518308 
L 87.947776 -71.627177 
L 87.520616 -75.366473 
L 87.225694 -79.113351 
L 86.922097 -75.113498 
L 86.609298 -82.569949 
L 86.204479 -81.449462 
L 86.037998 -77.224316 
L 85.783132 -69.284003 
L 85.433215 -79.348971 
L 84.790777 -74.323234 
L 84.695646 -77.507598 
L 84.502714 -73.85048 
L 84.306107 -70.178056 
L 84.003991 -71.093385 
L 83.901288 -73.524372 
L 83.586901 -72.48664 
L 83.152244 -76.847442 
L 82.813802 -69.122335 
L 82.698476 -68.924858 
L 82.344559 -68.915244 
L 81.203594 -68.930553 
L 81.068669 -68.054968 
L 80.793411 -74.775661 
L 80.366251 -71.679808 
L 80.219843 -68.292336 
L 80.071329 -69.369562 
L 79.920646 -68.577687 
L 79.767731 -71.135312 
L 79.612517 -69.521073 
L 79.132357 -70.99626 
L 78.967209 -68.311833 
L 78.799375 -69.448474 
L 78.628766 -68.550565 
L 78.278849 -67.145656 
L 78.099339 -74.011455 
L 77.916652 -65.814844 
L 77.730673 -68.023883 
L 77.541281 -66.019998 
L 77.348349 -67.106866 
L 77.151741 -66.24443 
L 76.951316 -69.387802 
L 76.746922 -67.734392 
L 76.325575 -67.204533 
L 76.108271 -64.256018 
L 75.886293 -64.63771 
L 75.659437 -65.325427 
L 75.427481 -65.429533 
L 75.190194 -67.49407 
L 74.947322 -63.679664 
L 74.698597 -64.355705 
L 74.443731 -63.094912 
L 74.182412 -63.045974 
L 73.914304 -60.553683 
L 73.639046 -60.987325 
L 73.356245 -61.846138 
L 73.065478 -61.018459 
L 72.766281 -61.184593 
L 72.458152 -60.177094 
L 72.14054 -61.061183 
L 71.812843 -60.443314 
L 71.474401 -58.765843 
L 71.124484 -59.001275 
L 70.762286 -58.840168 
L 70.386915 -58.846498 
L 69.997376 -56.785289 
L 69.592557 -57.322515 
L 69.17121 -57.976887 
L 68.731928 -58.574935 
L 68.273116 -54.862384 
L 67.792957 -54.435846 
L 67.289366 -55.933004 
L 66.759938 -55.360278 
L 66.20188 -53.185593 
L 65.611915 -54.687919 
L 64.986174 -55.088559 
L 64.320036 -53.85243 
L 63.607921 -52.150531 
L 62.843011 -51.349125 
L 62.016844 -50.230426 
L 61.118751 -50.813898 
L 60.135 -49.996168 
L 59.047515 -48.115367 
L 57.831809 -48.47215 
L 56.453556 -46.347741 
L 54.862479 -45.129629 
L 52.980635 -43.565593 
L 50.677444 -42.052562 
L 47.708114 -39.936177 
L 43.523078 -36.804558 
L 36.368713 -35.79313 
z
" style="stroke: #ff7f0e; stroke-opacity: 0.2"/>
    </defs>
    <g clip-path="url(#pab8f9384db)">
     <use xlink:href="#mcec7b6f95d" x="0" y="144" style="fill: #ff7f0e; fill-opacity: 0.2; stroke: #ff7f0e; stroke-opacity: 0.2"/>
    </g>
   </g>
   <g id="matplotlib.axis_1">
    <g id="xtick_1">
     <g id="line2d_1">
      <defs>
       <path id="mc5af15d8eb" d="M 0 0 
L 0 3.5 
" style="stroke: #000000; stroke-width: 0.8"/>
      </defs>
      <g>
       <use xlink:href="#mc5af15d8eb" x="36.368713" y="114.232" style="stroke: #000000; stroke-width: 0.8"/>
      </g>
     </g>
     <g id="text_1">
      <!-- $\mathdefault{10^{0}}$ -->
      <g transform="translate(31.088713 125.791062)">
       <text>
        <tspan style="font: 6px 'DejaVu Sans'" x="0 3.817383" y="-0.5859375">10</tspan>
        <tspan style="font: 4.2px 'DejaVu Sans'" x="7.692188" y="-2.8828125">0</tspan>
       </text>
      </g>
     </g>
    </g>
    <g id="xtick_2">
     <g id="line2d_2">
      <g>
       <use xlink:href="#mc5af15d8eb" x="60.135" y="114.232" style="stroke: #000000; stroke-width: 0.8"/>
      </g>
     </g>
     <g id="text_2">
      <!-- $\mathdefault{10^{1}}$ -->
      <g transform="translate(54.855 125.791062)">
       <text>
        <tspan style="font: 6px 'DejaVu Sans'" x="0 3.817383" y="-0.640625">10</tspan>
        <tspan style="font: 4.2px 'DejaVu Sans'" x="7.692188" y="-2.9375">1</tspan>
       </text>
      </g>
     </g>
    </g>
    <g id="xtick_3">
     <g id="line2d_3">
      <g>
       <use xlink:href="#mc5af15d8eb" x="83.901288" y="114.232" style="stroke: #000000; stroke-width: 0.8"/>
      </g>
     </g>
     <g id="text_3">
      <!-- $\mathdefault{10^{2}}$ -->
      <g transform="translate(78.621288 125.791062)">
       <text>
        <tspan style="font: 6px 'DejaVu Sans'" x="0 3.817383" y="-0.5859375">10</tspan>
        <tspan style="font: 4.2px 'DejaVu Sans'" x="7.692188" y="-2.8828125">2</tspan>
       </text>
      </g>
     </g>
    </g>
    <g id="xtick_4">
     <g id="line2d_4">
      <g>
       <use xlink:href="#mc5af15d8eb" x="107.667575" y="114.232" style="stroke: #000000; stroke-width: 0.8"/>
      </g>
     </g>
     <g id="text_4">
      <!-- $\mathdefault{10^{3}}$ -->
      <g transform="translate(102.387575 125.791062)">
       <text>
        <tspan style="font: 6px 'DejaVu Sans'" x="0 3.817383" y="-0.5859375">10</tspan>
        <tspan style="font: 4.2px 'DejaVu Sans'" x="7.692188" y="-2.8828125">3</tspan>
       </text>
      </g>
     </g>
    </g>
    <g id="xtick_5"/>
    <g id="xtick_6"/>
    <g id="xtick_7"/>
    <g id="xtick_8"/>
    <g id="xtick_9"/>
    <g id="xtick_10"/>
    <g id="xtick_11"/>
    <g id="xtick_12"/>
    <g id="xtick_13"/>
    <g id="xtick_14"/>
    <g id="xtick_15"/>
    <g id="xtick_16"/>
    <g id="xtick_17"/>
    <g id="xtick_18"/>
    <g id="xtick_19"/>
    <g id="xtick_20"/>
    <g id="xtick_21"/>
    <g id="xtick_22"/>
    <g id="xtick_23"/>
    <g id="xtick_24"/>
    <g id="xtick_25"/>
    <g id="xtick_26"/>
    <g id="xtick_27"/>
    <g id="xtick_28"/>
    <g id="xtick_29"/>
    <g id="xtick_30"/>
    <g id="text_5">
     <text style="font: 6px 'DejaVu Sans', 'Arial', 'Helvetica', 'Lucida Grande', 'Verdana', 'Geneva', 'Lucid', 'Avant Garde', sans-serif; text-anchor: middle" x="71.95584" y="135.597938" transform="rotate(-0 71.95584 135.597938)">Colony size (cells)</text>
    </g>
   </g>
   <g id="matplotlib.axis_2">
    <g id="ytick_1">
     <g id="line2d_5">
      <defs>
       <path id="me1cabad181" d="M 0 0 
L -3.5 0 
" style="stroke: #000000; stroke-width: 0.8"/>
      </defs>
      <g>
       <use xlink:href="#me1cabad181" x="32.81" y="109.160169" style="stroke: #000000; stroke-width: 0.8"/>
      </g>
     </g>
     <g id="text_6">
      <text style="font: 6px 'DejaVu Sans', 'Arial', 'Helvetica', 'Lucida Grande', 'Verdana', 'Geneva', 'Lucid', 'Avant Garde', sans-serif; text-anchor: end" x="25.81" y="111.4397" transform="rotate(-0 25.81 111.4397)">1.0</text>
     </g>
    </g>
    <g id="ytick_2">
     <g id="line2d_6">
      <g>
       <use xlink:href="#me1cabad181" x="32.81" y="96.154233" style="stroke: #000000; stroke-width: 0.8"/>
      </g>
     </g>
     <g id="text_7">
      <text style="font: 6px 'DejaVu Sans', 'Arial', 'Helvetica', 'Lucida Grande', 'Verdana', 'Geneva', 'Lucid', 'Avant Garde', sans-serif; text-anchor: end" x="25.81" y="98.433764" transform="rotate(-0 25.81 98.433764)">1.5</text>
     </g>
    </g>
    <g id="ytick_3">
     <g id="line2d_7">
      <g>
       <use xlink:href="#me1cabad181" x="32.81" y="83.148296" style="stroke: #000000; stroke-width: 0.8"/>
      </g>
     </g>
     <g id="text_8">
      <text style="font: 6px 'DejaVu Sans', 'Arial', 'Helvetica', 'Lucida Grande', 'Verdana', 'Geneva', 'Lucid', 'Avant Garde', sans-serif; text-anchor: end" x="25.81" y="85.427828" transform="rotate(-0 25.81 85.427828)">2.0</text>
     </g>
    </g>
    <g id="ytick_4">
     <g id="line2d_8">
      <g>
       <use xlink:href="#me1cabad181" x="32.81" y="70.14236" style="stroke: #000000; stroke-width: 0.8"/>
      </g>
     </g>
     <g id="text_9">
      <text style="font: 6px 'DejaVu Sans', 'Arial', 'Helvetica', 'Lucida Grande', 'Verdana', 'Geneva', 'Lucid', 'Avant Garde', sans-serif; text-anchor: end" x="25.81" y="72.421891" transform="rotate(-0 25.81 72.421891)">2.5</text>
     </g>
    </g>
    <g id="ytick_5">
     <g id="line2d_9">
      <g>
       <use xlink:href="#me1cabad181" x="32.81" y="57.136424" style="stroke: #000000; stroke-width: 0.8"/>
      </g>
     </g>
     <g id="text_10">
      <text style="font: 6px 'DejaVu Sans', 'Arial', 'Helvetica', 'Lucida Grande', 'Verdana', 'Geneva', 'Lucid', 'Avant Garde', sans-serif; text-anchor: end" x="25.81" y="59.415955" transform="rotate(-0 25.81 59.415955)">3.0</text>
     </g>
    </g>
    <g id="ytick_6">
     <g id="line2d_10">
      <g>
       <use xlink:href="#me1cabad181" x="32.81" y="44.130487" style="stroke: #000000; stroke-width: 0.8"/>
      </g>
     </g>
     <g id="text_11">
      <text style="font: 6px 'DejaVu Sans', 'Arial', 'Helvetica', 'Lucida Grande', 'Verdana', 'Geneva', 'Lucid', 'Avant Garde', sans-serif; text-anchor: end" x="25.81" y="46.410019" transform="rotate(-0 25.81 46.410019)">3.5</text>
     </g>
    </g>
    <g id="ytick_7">
     <g id="line2d_11">
      <g>
       <use xlink:href="#me1cabad181" x="32.81" y="31.124551" style="stroke: #000000; stroke-width: 0.8"/>
      </g>
     </g>
     <g id="text_12">
      <text style="font: 6px 'DejaVu Sans', 'Arial', 'Helvetica', 'Lucida Grande', 'Verdana', 'Geneva', 'Lucid', 'Avant Garde', sans-serif; text-anchor: end" x="25.81" y="33.404082" transform="rotate(-0 25.81 33.404082)">4.0</text>
     </g>
    </g>
    <g id="text_13">
     <text style="font: 6px 'DejaVu Sans', 'Arial', 'Helvetica', 'Lucida Grande', 'Verdana', 'Geneva', 'Lucid', 'Avant Garde', sans-serif; text-anchor: middle" x="11.020313" y="69.812" transform="rotate(-90 11.020313 69.812)">Observed/True cell intensity</text>
    </g>
   </g>
   <g id="line2d_12">
    <path d="M 36.368713 109.160169 
L 43.523078 109.511082 
L 47.708114 108.763052 
L 52.980635 105.861324 
L 54.862479 105.663731 
L 56.453556 104.095931 
L 57.831809 103.65269 
L 59.047515 101.692669 
L 60.135 102.505695 
L 61.118751 101.651597 
L 62.016844 101.790714 
L 62.843011 101.45432 
L 63.607921 100.043302 
L 64.320036 99.249516 
L 64.986174 99.807859 
L 65.611915 97.940052 
L 66.20188 98.894009 
L 66.759938 98.570896 
L 67.289366 98.395574 
L 67.792957 97.28504 
L 68.273116 97.948016 
L 68.731928 97.104943 
L 69.17121 95.961422 
L 69.592557 96.550712 
L 69.997376 95.660369 
L 70.386915 96.820474 
L 70.762286 95.866803 
L 71.124484 95.837449 
L 71.474401 94.243378 
L 71.812843 95.916864 
L 72.766281 93.483608 
L 73.065478 93.94975 
L 73.356245 94.872429 
L 73.639046 94.325862 
L 73.914304 94.363576 
L 74.182412 92.499341 
L 74.698597 93.233749 
L 75.659437 93.624982 
L 75.886293 91.925889 
L 76.108271 92.260979 
L 76.325575 91.843597 
L 76.538399 90.912977 
L 76.951316 91.09443 
L 77.730673 90.642681 
L 77.916652 90.880331 
L 78.099339 89.673054 
L 78.278849 91.061145 
L 78.455291 91.082877 
L 78.628766 89.537009 
L 79.132357 92.548607 
L 79.294905 92.393153 
L 79.920646 89.761816 
L 80.219843 88.598163 
L 80.652979 90.473285 
L 80.793411 89.836168 
L 81.468264 88.785291 
L 81.852963 88.59394 
L 81.978074 88.960329 
L 82.101687 88.275097 
L 82.463885 88.758164 
L 82.698476 88.842008 
L 82.813802 89.570176 
L 82.927854 87.306591 
L 83.479941 87.661097 
L 83.586901 87.989588 
L 83.692764 87.60991 
L 83.901288 87.789242 
L 84.206381 87.674341 
L 84.790777 86.177623 
L 85.162765 85.834177 
L 85.253705 86.880335 
L 85.34385 86.419079 
L 85.433215 87.169234 
L 85.609656 86.898712 
L 85.95374 87.040093 
L 86.037998 86.747139 
L 86.368317 86.240806 
L 86.529594 84.931095 
L 87.075012 86.334593 
L 87.225694 85.162599 
L 87.300218 86.415092 
L 87.593049 85.633274 
L 88.086323 85.576855 
L 88.154905 84.985657 
L 88.357959 86.155168 
L 88.816771 85.874982 
L 89.007328 84.427125 
L 89.13244 84.746641 
L 89.378203 84.779498 
L 90.250968 83.622312 
L 90.471758 85.150692 
L 90.634306 83.697693 
L 90.847129 84.285036 
L 91.209327 85.203374 
L 92.132812 83.332504 
L 92.179201 84.315124 
L 92.225383 83.62263 
L 92.453241 83.51208 
L 92.542994 83.797296 
L 92.720193 83.661344 
L 93.522682 83.334268 
L 93.763664 82.877742 
L 94.076462 82.864855 
L 94.114904 83.241806 
L 94.38006 82.847301 
L 94.711261 83.462583 
L 95.032165 82.713028 
L 95.275037 82.469607 
L 95.678537 82.353571 
L 95.842115 82.711923 
L 95.939032 82.309671 
L 96.861213 82.095307 
L 96.890578 82.444887 
L 97.065031 81.776254 
L 97.208189 81.760662 
L 97.54388 82.255465 
L 97.571367 81.654982 
L 97.653393 81.783604 
L 97.707718 81.785718 
L 98.158281 81.373592 
L 98.363692 81.890398 
L 98.614838 81.154175 
L 98.83576 81.182512 
L 98.956481 81.583434 
L 99.075807 81.040244 
L 99.146746 81.370877 
L 99.539776 80.843303 
L 99.830543 80.830857 
L 100.048766 80.623649 
L 100.091863 81.60284 
L 100.325729 81.047826 
L 100.346729 80.584721 
L 100.451094 80.879188 
L 100.492546 80.802713 
L 100.636331 80.196547 
L 101.056046 80.293547 
L 101.49696 81.094258 
L 101.51571 80.270667 
L 101.646011 80.456221 
L 101.792939 80.095052 
L 101.901779 80.22126 
L 102.133734 80.041366 
L 102.151363 80.48422 
L 102.480711 79.956425 
L 102.733496 79.887729 
L 102.898645 80.564956 
L 103.205329 79.676739 
L 103.580132 80.25656 
L 103.686934 79.573883 
L 104.176059 79.604975 
L 104.219396 80.091689 
L 104.248187 79.518244 
L 104.334082 79.24099 
L 104.780489 79.490939 
L 104.916123 79.723894 
L 105.089823 79.086242 
L 105.142687 79.323669 
L 105.518058 79.019848 
L 105.63183 80.018205 
L 105.644394 79.212215 
L 105.694499 79.404716 
L 106.050662 79.072059 
L 106.289322 79.245477 
L 106.41827 78.602777 
L 106.716801 78.676117 
L 106.818159 79.412969 
L 106.984909 78.948014 
L 107.039898 79.113472 
L 107.213923 78.726357 
L 107.448514 78.812274 
L 107.480094 79.067809 
L 107.4906 78.602737 
L 107.542967 78.378876 
L 107.542967 78.378876 
" clip-path="url(#pab8f9384db)" style="fill: none; stroke: #1f77b4; stroke-linecap: square"/>
   </g>
   <g id="line2d_13">
    <path d="M 36.368713 109.160169 
L 43.523078 107.373578 
L 47.708114 104.486471 
L 50.677444 102.184075 
L 52.980635 100.862227 
L 54.862479 99.158176 
L 56.453556 98.051026 
L 57.831809 95.979979 
L 59.047515 96.337346 
L 60.135 94.518598 
L 61.118751 93.676676 
L 62.016844 94.273425 
L 62.843011 93.207248 
L 63.607921 92.412022 
L 64.320036 90.898645 
L 64.986174 89.65024 
L 65.611915 90.096117 
L 66.20188 91.433705 
L 66.759938 89.505093 
L 67.289366 88.715446 
L 67.792957 90.167593 
L 68.273116 89.754553 
L 68.731928 86.27665 
L 69.17121 86.964419 
L 69.592557 87.44773 
L 69.997376 87.827752 
L 70.386915 85.996857 
L 70.762286 85.728892 
L 71.124484 85.984659 
L 71.474401 86.37351 
L 71.812843 84.482533 
L 72.14054 84.060411 
L 72.458152 84.682465 
L 72.766281 84.38733 
L 73.065478 84.491178 
L 73.356245 83.376998 
L 73.639046 83.726725 
L 73.914304 84.365626 
L 74.182412 81.972733 
L 74.443731 81.881233 
L 74.698597 80.471338 
L 74.947322 81.573482 
L 75.190194 78.863533 
L 75.427481 79.881297 
L 75.659437 80.886146 
L 75.886293 80.523975 
L 76.108271 81.079181 
L 76.325575 78.995037 
L 76.746922 78.169346 
L 76.951316 75.958131 
L 77.151741 79.067012 
L 77.348349 77.841864 
L 77.541281 79.169 
L 77.730673 77.442357 
L 77.916652 79.989781 
L 78.099339 71.70734 
L 78.278849 77.879448 
L 78.628766 76.503239 
L 78.799375 76.730017 
L 78.967209 76.826362 
L 79.132357 75.634962 
L 79.612517 76.595361 
L 79.767731 74.771988 
L 79.920646 77.648729 
L 80.071329 75.85713 
L 80.219843 77.116022 
L 80.366251 74.176249 
L 80.793411 71.034322 
L 81.068669 77.580671 
L 81.203594 77.084257 
L 82.344559 76.929394 
L 82.698476 76.733532 
L 82.813802 76.02416 
L 83.152244 68.920044 
L 83.586901 73.07095 
L 83.901288 71.884172 
L 84.003991 74.371795 
L 84.306107 75.595685 
L 84.502714 71.399256 
L 84.695646 68.724528 
L 84.790777 70.840092 
L 85.433215 66.601826 
L 85.783132 76.560399 
L 86.037998 68.600605 
L 86.204479 64.377122 
L 86.609298 62.795379 
L 86.922097 70.045445 
L 87.225694 66.096358 
L 87.520616 69.918467 
L 87.947776 73.817567 
L 88.424765 61.166372 
L 88.752462 62.858721 
L 89.43874 69.183658 
L 90.30661 73.018905 
L 90.526226 64.23151 
L 91.31052 59.362031 
L 91.460472 58.22345 
L 92.453241 60.948764 
L 93.108106 55.520697 
L 93.192364 60.58854 
L 94.602037 69.945443 
L 94.674982 55.483872 
L 95.512324 46.429519 
L 95.545782 47.86888 
L 97.151164 57.638718 
L 97.948699 52.561586 
L 98.389084 58.741193 
L 102.99648 31.026982 
L 105.390156 41.564481 
" clip-path="url(#pab8f9384db)" style="fill: none; stroke: #ff7f0e; stroke-linecap: square"/>
   </g>
   <g id="patch_3">
    <path d="M 32.81 114.232 
L 32.81 25.392 
" style="fill: none; stroke: #000000; stroke-width: 0.5; stroke-linejoin: miter; stroke-linecap: square"/>
   </g>
   <g id="patch_4">
    <path d="M 32.81 114.232 
L 111.10168 114.232 
" style="fill: none; stroke: #000000; stroke-width: 0.5; stroke-linejoin: miter; stroke-linecap: square"/>
   </g>
   <g id="legend_1">
    <g id="patch_5">
     <path d="M 35.81293 47.80575 
L 106.90168 47.80575 
Q 108.10168 47.80575 108.10168 46.60575 
L 108.10168 29.592 
Q 108.10168 28.392 106.90168 28.392 
L 35.81293 28.392 
Q 34.61293 28.392 34.61293 29.592 
L 34.61293 46.60575 
Q 34.61293 47.80575 35.81293 47.80575 
z
" style="fill: #ffffff; opacity: 0.8; stroke: #cccccc; stroke-linejoin: miter"/>
    </g>
    <g id="line2d_14">
     <path d="M 37.01293 33.251062 
L 43.01293 33.251062 
L 49.01293 33.251062 
" style="fill: none; stroke: #1f77b4; stroke-linecap: square"/>
    </g>
    <g id="text_14">
     <text style="font: 6px 'DejaVu Sans', 'Arial', 'Helvetica', 'Lucida Grande', 'Verdana', 'Geneva', 'Lucid', 'Avant Garde', sans-serif; text-anchor: start" x="53.81293" y="35.351062" transform="rotate(-0 53.81293 35.351062)">Simulated colony</text>
    </g>
    <g id="line2d_15">
     <path d="M 37.01293 42.057937 
L 43.01293 42.057937 
L 49.01293 42.057937 
" style="fill: none; stroke: #ff7f0e; stroke-linecap: square"/>
    </g>
    <g id="text_15">
     <text style="font: 6px 'DejaVu Sans', 'Arial', 'Helvetica', 'Lucida Grande', 'Verdana', 'Geneva', 'Lucid', 'Avant Garde', sans-serif; text-anchor: start" x="53.81293" y="44.157937" transform="rotate(-0 53.81293 44.157937)">Real colony</text>
    </g>
   </g>
  </g>
  <g id="text_16">
   <text style="font: 700 6px 'DejaVu Sans', 'Arial', 'Helvetica', 'Lucida Grande', 'Verdana', 'Geneva', 'Lucid', 'Avant Garde', sans-serif" transform="translate(22.579687 7.439063)">Average cell intensity</text>
   <text style="font: 700 6px 'DejaVu Sans', 'Arial', 'Helvetica', 'Lucida Grande', 'Verdana', 'Geneva', 'Lucid', 'Avant Garde', sans-serif" transform="translate(18.165937 14.204625)">vs simulated colony size</text>
  </g>
 </g>
 <defs>
  <clipPath id="pab8f9384db">
   <rect x="32.81" y="25.392" width="78.29168" height="88.84"/>
  </clipPath>
 </defs>
</svg>
