<?xml version="1.0" encoding="utf-8" standalone="no"?>
<!DOCTYPE svg PUBLIC "-//W3C//DTD SVG 1.1//EN"
  "http://www.w3.org/Graphics/SVG/1.1/DTD/svg11.dtd">
<svg xmlns:xlink="http://www.w3.org/1999/xlink" width="288pt" height="144pt" viewBox="0 0 288 144" xmlns="http://www.w3.org/2000/svg" version="1.1">
 <metadata>
  <rdf:RDF xmlns:dc="http://purl.org/dc/elements/1.1/" xmlns:cc="http://creativecommons.org/ns#" xmlns:rdf="http://www.w3.org/1999/02/22-rdf-syntax-ns#">
   <cc:Work>
    <dc:type rdf:resource="http://purl.org/dc/dcmitype/StillImage"/>
    <dc:date>2023-12-21T02:28:35.755752</dc:date>
    <dc:format>image/svg+xml</dc:format>
    <dc:creator>
     <cc:Agent>
      <dc:title>Matplotlib v3.8.2, https://matplotlib.org/</dc:title>
     </cc:Agent>
    </dc:creator>
   </cc:Work>
  </rdf:RDF>
 </metadata>
 <defs>
  <style type="text/css">*{stroke-linejoin: round; stroke-linecap: butt}</style>
 </defs>
 <g id="figure_1">
  <g id="patch_1">
   <path d="M 0 144 
L 288 144 
L 288 0 
L 0 0 
L 0 144 
z
" style="fill: none"/>
  </g>
  <g id="axes_1">
   <g id="patch_2">
    <path d="M 36 128.16 
L 259.2 128.16 
L 259.2 17.28 
L 36 17.28 
L 36 128.16 
z
" style="fill: none"/>
   </g>
   <g id="matplotlib.axis_1">
    <g id="xtick_1">
     <g id="line2d_1">
      <defs>
       <path id="m098b4b435b" d="M 0 0 
L 0 3.5 
" style="stroke: #000000; stroke-width: 0.8"/>
      </defs>
      <g>
       <use xlink:href="#m098b4b435b" x="36" y="128.16" style="stroke: #000000; stroke-width: 0.8"/>
      </g>
     </g>
     <g id="text_1">
      <text style="font: 6px 'DejaVu Sans', 'Arial', 'Helvetica', 'Lucida Grande', 'Verdana', 'Geneva', 'Lucid', 'Avant Garde', sans-serif; text-anchor: middle" x="36" y="139.719063" transform="rotate(-0 36 139.719063)">0</text>
     </g>
    </g>
    <g id="xtick_2">
     <g id="line2d_2">
      <g>
       <use xlink:href="#m098b4b435b" x="62.518392" y="128.16" style="stroke: #000000; stroke-width: 0.8"/>
      </g>
     </g>
     <g id="text_2">
      <text style="font: 6px 'DejaVu Sans', 'Arial', 'Helvetica', 'Lucida Grande', 'Verdana', 'Geneva', 'Lucid', 'Avant Garde', sans-serif; text-anchor: middle" x="62.518392" y="139.719063" transform="rotate(-0 62.518392 139.719063)">250</text>
     </g>
    </g>
    <g id="xtick_3">
     <g id="line2d_3">
      <g>
       <use xlink:href="#m098b4b435b" x="89.036784" y="128.16" style="stroke: #000000; stroke-width: 0.8"/>
      </g>
     </g>
     <g id="text_3">
      <text style="font: 6px 'DejaVu Sans', 'Arial', 'Helvetica', 'Lucida Grande', 'Verdana', 'Geneva', 'Lucid', 'Avant Garde', sans-serif; text-anchor: middle" x="89.036784" y="139.719063" transform="rotate(-0 89.036784 139.719063)">500</text>
     </g>
    </g>
    <g id="xtick_4">
     <g id="line2d_4">
      <g>
       <use xlink:href="#m098b4b435b" x="115.555175" y="128.16" style="stroke: #000000; stroke-width: 0.8"/>
      </g>
     </g>
     <g id="text_4">
      <text style="font: 6px 'DejaVu Sans', 'Arial', 'Helvetica', 'Lucida Grande', 'Verdana', 'Geneva', 'Lucid', 'Avant Garde', sans-serif; text-anchor: middle" x="115.555175" y="139.719063" transform="rotate(-0 115.555175 139.719063)">750</text>
     </g>
    </g>
    <g id="xtick_5">
     <g id="line2d_5">
      <g>
       <use xlink:href="#m098b4b435b" x="142.073567" y="128.16" style="stroke: #000000; stroke-width: 0.8"/>
      </g>
     </g>
     <g id="text_5">
      <text style="font: 6px 'DejaVu Sans', 'Arial', 'Helvetica', 'Lucida Grande', 'Verdana', 'Geneva', 'Lucid', 'Avant Garde', sans-serif; text-anchor: middle" x="142.073567" y="139.719063" transform="rotate(-0 142.073567 139.719063)">1000</text>
     </g>
    </g>
    <g id="xtick_6">
     <g id="line2d_6">
      <g>
       <use xlink:href="#m098b4b435b" x="168.591959" y="128.16" style="stroke: #000000; stroke-width: 0.8"/>
      </g>
     </g>
     <g id="text_6">
      <text style="font: 6px 'DejaVu Sans', 'Arial', 'Helvetica', 'Lucida Grande', 'Verdana', 'Geneva', 'Lucid', 'Avant Garde', sans-serif; text-anchor: middle" x="168.591959" y="139.719063" transform="rotate(-0 168.591959 139.719063)">1250</text>
     </g>
    </g>
    <g id="xtick_7">
     <g id="line2d_7">
      <g>
       <use xlink:href="#m098b4b435b" x="195.110351" y="128.16" style="stroke: #000000; stroke-width: 0.8"/>
      </g>
     </g>
     <g id="text_7">
      <text style="font: 6px 'DejaVu Sans', 'Arial', 'Helvetica', 'Lucida Grande', 'Verdana', 'Geneva', 'Lucid', 'Avant Garde', sans-serif; text-anchor: middle" x="195.110351" y="139.719063" transform="rotate(-0 195.110351 139.719063)">1500</text>
     </g>
    </g>
    <g id="xtick_8">
     <g id="line2d_8">
      <g>
       <use xlink:href="#m098b4b435b" x="221.628743" y="128.16" style="stroke: #000000; stroke-width: 0.8"/>
      </g>
     </g>
     <g id="text_8">
      <text style="font: 6px 'DejaVu Sans', 'Arial', 'Helvetica', 'Lucida Grande', 'Verdana', 'Geneva', 'Lucid', 'Avant Garde', sans-serif; text-anchor: middle" x="221.628743" y="139.719063" transform="rotate(-0 221.628743 139.719063)">1750</text>
     </g>
    </g>
    <g id="xtick_9">
     <g id="line2d_9">
      <g>
       <use xlink:href="#m098b4b435b" x="248.147134" y="128.16" style="stroke: #000000; stroke-width: 0.8"/>
      </g>
     </g>
     <g id="text_9">
      <text style="font: 6px 'DejaVu Sans', 'Arial', 'Helvetica', 'Lucida Grande', 'Verdana', 'Geneva', 'Lucid', 'Avant Garde', sans-serif; text-anchor: middle" x="248.147134" y="139.719063" transform="rotate(-0 248.147134 139.719063)">2000</text>
     </g>
    </g>
    <g id="text_10">
     <text style="font: 6px 'DejaVu Sans', 'Arial', 'Helvetica', 'Lucida Grande', 'Verdana', 'Geneva', 'Lucid', 'Avant Garde', sans-serif; text-anchor: middle" x="147.6" y="149.525937" transform="rotate(-0 147.6 149.525937)">Distance (pixels)</text>
    </g>
   </g>
   <g id="matplotlib.axis_2">
    <g id="ytick_1">
     <g id="line2d_10">
      <defs>
       <path id="mf84243068f" d="M 0 0 
L -3.5 0 
" style="stroke: #000000; stroke-width: 0.8"/>
      </defs>
      <g>
       <use xlink:href="#mf84243068f" x="36" y="123.12" style="stroke: #000000; stroke-width: 0.8"/>
      </g>
     </g>
     <g id="text_11">
      <text style="font: 6px 'DejaVu Sans', 'Arial', 'Helvetica', 'Lucida Grande', 'Verdana', 'Geneva', 'Lucid', 'Avant Garde', sans-serif; text-anchor: end" x="29" y="125.399531" transform="rotate(-0 29 125.399531)">0.0</text>
     </g>
    </g>
    <g id="ytick_2">
     <g id="line2d_11">
      <g>
       <use xlink:href="#mf84243068f" x="36" y="102.96" style="stroke: #000000; stroke-width: 0.8"/>
      </g>
     </g>
     <g id="text_12">
      <text style="font: 6px 'DejaVu Sans', 'Arial', 'Helvetica', 'Lucida Grande', 'Verdana', 'Geneva', 'Lucid', 'Avant Garde', sans-serif; text-anchor: end" x="29" y="105.239531" transform="rotate(-0 29 105.239531)">0.2</text>
     </g>
    </g>
    <g id="ytick_3">
     <g id="line2d_12">
      <g>
       <use xlink:href="#mf84243068f" x="36" y="82.8" style="stroke: #000000; stroke-width: 0.8"/>
      </g>
     </g>
     <g id="text_13">
      <text style="font: 6px 'DejaVu Sans', 'Arial', 'Helvetica', 'Lucida Grande', 'Verdana', 'Geneva', 'Lucid', 'Avant Garde', sans-serif; text-anchor: end" x="29" y="85.079531" transform="rotate(-0 29 85.079531)">0.4</text>
     </g>
    </g>
    <g id="ytick_4">
     <g id="line2d_13">
      <g>
       <use xlink:href="#mf84243068f" x="36" y="62.64" style="stroke: #000000; stroke-width: 0.8"/>
      </g>
     </g>
     <g id="text_14">
      <text style="font: 6px 'DejaVu Sans', 'Arial', 'Helvetica', 'Lucida Grande', 'Verdana', 'Geneva', 'Lucid', 'Avant Garde', sans-serif; text-anchor: end" x="29" y="64.919531" transform="rotate(-0 29 64.919531)">0.6</text>
     </g>
    </g>
    <g id="ytick_5">
     <g id="line2d_14">
      <g>
       <use xlink:href="#mf84243068f" x="36" y="42.48" style="stroke: #000000; stroke-width: 0.8"/>
      </g>
     </g>
     <g id="text_15">
      <text style="font: 6px 'DejaVu Sans', 'Arial', 'Helvetica', 'Lucida Grande', 'Verdana', 'Geneva', 'Lucid', 'Avant Garde', sans-serif; text-anchor: end" x="29" y="44.759531" transform="rotate(-0 29 44.759531)">0.8</text>
     </g>
    </g>
    <g id="ytick_6">
     <g id="line2d_15">
      <g>
       <use xlink:href="#mf84243068f" x="36" y="22.32" style="stroke: #000000; stroke-width: 0.8"/>
      </g>
     </g>
     <g id="text_16">
      <text style="font: 6px 'DejaVu Sans', 'Arial', 'Helvetica', 'Lucida Grande', 'Verdana', 'Geneva', 'Lucid', 'Avant Garde', sans-serif; text-anchor: end" x="29" y="24.599531" transform="rotate(-0 29 24.599531)">1.0</text>
     </g>
    </g>
    <g id="text_17">
     <text style="font: 6px 'DejaVu Sans', 'Arial', 'Helvetica', 'Lucida Grande', 'Verdana', 'Geneva', 'Lucid', 'Avant Garde', sans-serif; text-anchor: middle" x="14.210313" y="72.72" transform="rotate(-90 14.210313 72.72)">Intensity (AU)</text>
    </g>
   </g>
   <g id="line2d_16">
    <path d="M 36 118.353971 
L 41.197605 117.523159 
L 45.440547 116.626014 
L 48.940975 115.658064 
L 51.804962 114.633809 
L 54.13858 113.565334 
L 56.047904 112.451856 
L 57.639008 111.275867 
L 59.017964 109.976452 
L 60.184773 108.555199 
L 61.139435 107.032972 
L 61.88195 105.470023 
L 62.518392 103.6462 
L 63.04876 101.371136 
L 63.36698 99.089695 
L 63.791275 94.284467 
L 65.594525 71.035157 
L 66.761334 59.067409 
L 67.185629 56.697036 
L 67.503849 55.992992 
L 67.715997 56.238832 
L 67.928144 56.449922 
L 68.034217 56.354566 
L 68.246364 55.568463 
L 69.094953 50.423833 
L 69.201027 50.349992 
L 69.3071 50.488867 
L 69.519247 51.462212 
L 69.943541 55.401112 
L 70.367836 58.386921 
L 70.686056 59.440657 
L 70.898204 59.498063 
L 71.110351 58.994921 
L 71.428571 57.084155 
L 72.595381 48.725698 
L 72.913601 47.647858 
L 73.019675 47.675557 
L 73.231822 48.165326 
L 73.868263 50.426848 
L 74.080411 49.977475 
L 75.035073 46.738647 
L 75.353293 45.798244 
L 75.565441 45.689454 
L 75.777588 45.790937 
L 75.989735 46.190756 
L 76.307956 46.749742 
L 76.73225 46.806962 
L 77.156544 47.187754 
L 77.899059 46.812426 
L 78.111206 46.04739 
L 79.065868 41.666048 
L 79.490163 40.14173 
L 79.70231 39.889267 
L 79.914457 40.041155 
L 80.232678 40.628393 
L 80.550898 41.224807 
L 80.656972 41.255374 
L 80.869119 40.946172 
L 81.717707 38.449288 
L 82.248075 38.773853 
L 82.67237 38.700345 
L 82.99059 38.429441 
L 83.308811 38.302566 
L 83.520958 38.048047 
L 84.369547 36.496549 
L 85.430282 35.516414 
L 85.642429 35.599072 
L 85.854577 36.048732 
L 86.278871 38.060716 
L 86.597092 39.168212 
L 86.809239 39.347307 
L 87.976048 38.973945 
L 88.188195 39.217624 
L 88.506416 40.144767 
L 88.824636 41.042238 
L 89.036784 41.143456 
L 89.461078 40.376382 
L 89.885372 39.151724 
L 90.521814 36.993973 
L 91.052181 36.168773 
L 91.264328 36.2946 
L 91.476476 36.764816 
L 91.90077 38.62082 
L 92.643285 42.392175 
L 92.749358 42.327709 
L 92.961506 41.275221 
L 93.810094 35.370962 
L 94.022241 35.028624 
L 94.128315 35.091801 
L 94.340462 35.782881 
L 94.658683 38.097211 
L 95.082977 41.077886 
L 95.18905 41.125699 
L 95.401198 39.776028 
L 95.931565 34.656151 
L 96.249786 33.234658 
L 96.461933 33.057897 
L 96.67408 33.557733 
L 97.098375 35.721683 
L 97.416595 36.72869 
L 97.84089 36.539646 
L 98.15911 37.84679 
L 98.689478 41.358541 
L 99.007699 42.839929 
L 99.113772 42.970153 
L 99.219846 42.84491 
L 99.431993 41.775012 
L 100.386655 34.007895 
L 100.492729 34.018294 
L 100.704876 34.491286 
L 101.341317 36.44384 
L 101.447391 36.390601 
L 101.765612 35.549916 
L 102.083832 34.973224 
L 102.189906 35.020681 
L 102.402053 35.509491 
L 103.462789 39.425709 
L 103.674936 38.380365 
L 104.523524 31.528839 
L 104.735672 31.370969 
L 104.947819 31.882564 
L 105.266039 34.05563 
L 105.58426 36.413533 
L 105.796407 36.684714 
L 106.008554 36.114236 
L 107.281437 31.919115 
L 108.342173 29.62086 
L 108.448246 29.672944 
L 108.660393 30.273069 
L 109.190761 32.659259 
L 109.508982 33.05811 
L 109.615056 32.971657 
L 110.251497 31.71995 
L 110.463644 31.707348 
L 110.781865 32.151334 
L 111.100086 32.63215 
L 111.312233 32.444827 
L 111.736527 31.749479 
L 112.266895 31.34387 
L 112.797263 30.399438 
L 113.00941 30.892343 
L 113.539778 32.178425 
L 113.857998 32.492915 
L 114.176219 32.888721 
L 114.81266 33.643528 
L 114.918734 33.592972 
L 115.130881 33.09405 
L 115.555175 32.082444 
L 115.767322 31.958236 
L 115.97947 32.068821 
L 116.29769 32.64745 
L 116.615911 33.169838 
L 116.828058 32.95492 
L 117.888794 31.302054 
L 118.313088 31.325617 
L 118.631309 31.223118 
L 119.055603 30.975407 
L 119.373824 31.290913 
L 119.692044 32.054038 
L 120.010265 32.609232 
L 120.116339 32.516987 
L 120.328486 31.864225 
L 120.858854 29.925321 
L 121.283148 29.317134 
L 122.131737 28.747361 
L 122.343884 28.131413 
L 123.192472 24.976954 
L 123.510693 24.361156 
L 123.72284 24.392205 
L 123.934987 24.701993 
L 124.465355 26.542134 
L 124.995723 28.777038 
L 125.20787 29.023607 
L 125.313944 29.003126 
L 125.526091 28.413905 
L 126.056459 26.475289 
L 126.374679 25.809809 
L 126.586826 25.808379 
L 126.798973 26.197146 
L 127.117194 27.376851 
L 127.541488 30.435555 
L 128.17793 35.007703 
L 128.390077 35.720145 
L 128.496151 35.794737 
L 128.602224 35.71104 
L 128.814371 34.96509 
L 130.193328 25.985621 
L 130.511548 25.131614 
L 130.829769 24.91461 
L 131.14799 24.893448 
L 131.46621 25.183116 
L 131.784431 25.799412 
L 132.208725 26.579133 
L 132.739093 27.338557 
L 132.845167 27.291709 
L 133.057314 26.749256 
L 133.481608 25.423639 
L 133.693755 25.371635 
L 133.905902 25.734429 
L 134.224123 27.097692 
L 134.754491 31.240282 
L 135.072712 33.232806 
L 135.284859 33.713497 
L 135.60308 33.79443 
L 135.815227 33.82765 
L 136.027374 33.503355 
L 136.345595 33.053237 
L 136.557742 32.882771 
L 136.769889 32.352183 
L 137.724551 28.308997 
L 137.936698 28.101503 
L 138.042772 28.186082 
L 138.360992 29.125805 
L 138.679213 30.712562 
L 139.209581 33.985528 
L 139.315654 33.943187 
L 139.527802 33.1522 
L 140.37639 29.309322 
L 140.588537 29.082689 
L 140.800684 29.147892 
L 141.118905 29.762267 
L 141.331052 30.051202 
L 141.543199 29.844761 
L 141.86142 29.486599 
L 142.073567 29.837988 
L 142.710009 31.902688 
L 142.816082 31.724911 
L 143.134303 29.827047 
L 143.558597 27.400003 
L 143.876818 26.545616 
L 143.982891 26.48439 
L 144.195038 26.794963 
L 144.513259 27.852774 
L 145.149701 30.815002 
L 145.361848 30.697383 
L 145.573995 30.723564 
L 146.210436 31.494219 
L 146.422583 31.337741 
L 146.740804 30.694797 
L 147.059025 29.054769 
L 147.483319 27.05646 
L 147.80154 26.476962 
L 147.907613 26.518387 
L 148.11976 26.938757 
L 148.756202 28.964441 
L 149.180496 31.246152 
L 149.28657 31.277906 
L 149.498717 30.611951 
L 150.029085 28.709266 
L 150.347305 27.371725 
L 150.877673 25.007576 
L 151.195894 24.39642 
L 151.408041 24.350069 
L 152.25663 24.556686 
L 152.680924 24.591421 
L 152.893071 24.845349 
L 153.211292 25.683494 
L 153.953807 28.057148 
L 154.165954 27.602383 
L 154.802395 25.576465 
L 155.54491 24.984645 
L 156.075278 24.872233 
L 156.393499 24.728206 
L 156.605646 25.032329 
L 157.454234 27.57516 
L 157.984602 29.773949 
L 158.196749 29.955344 
L 158.408896 29.440414 
L 158.833191 28.222133 
L 158.939264 28.243775 
L 159.151411 28.701233 
L 159.893926 31.486871 
L 160.106074 31.640114 
L 160.318221 31.289204 
L 160.636441 30.359062 
L 161.272883 28.278056 
L 161.697177 27.496486 
L 162.015398 27.003941 
L 162.439692 26.842067 
L 162.651839 26.700773 
L 162.97006 26.039188 
L 163.394354 24.997907 
L 163.500428 25.004026 
L 163.712575 25.561427 
L 164.242943 28.292076 
L 164.773311 31.067636 
L 164.879384 31.115942 
L 165.091531 30.425701 
L 166.470488 22.567273 
L 166.682635 22.32 
L 166.894782 22.477701 
L 167.319076 23.234181 
L 167.849444 24.67433 
L 168.167665 25.65928 
L 168.485885 26.31401 
L 168.804106 28.035309 
L 169.334474 31.337804 
L 169.546621 31.66204 
L 169.758768 31.280158 
L 170.819504 27.942653 
L 171.243798 26.280791 
L 171.349872 26.213442 
L 171.562019 26.537977 
L 171.88024 27.006122 
L 172.092387 26.854881 
L 172.622754 26.307028 
L 172.834902 26.219012 
L 173.259196 25.656443 
L 173.471343 25.795252 
L 173.789564 26.330933 
L 174.107784 27.690449 
L 174.744226 31.751677 
L 175.274594 35.674559 
L 175.486741 36.018836 
L 175.592814 35.959835 
L 175.911035 35.044398 
L 176.123182 34.528211 
L 176.335329 34.454583 
L 176.547476 34.72717 
L 177.183918 36.147559 
L 177.396065 35.762134 
L 177.714286 34.281078 
L 178.244654 31.627257 
L 178.775021 29.720313 
L 178.881095 29.669154 
L 179.199316 30.015481 
L 179.411463 30.166318 
L 179.729683 30.263389 
L 180.047904 30.839887 
L 181.002566 32.857464 
L 181.426861 33.244553 
L 181.745081 33.549014 
L 181.957228 34.146989 
L 182.381523 35.648268 
L 182.487596 35.533869 
L 183.548332 32.134456 
L 183.654405 32.169097 
L 183.866553 32.796473 
L 184.609068 36.087713 
L 184.821215 35.993929 
L 185.245509 36.320188 
L 185.457656 35.947183 
L 186.200171 33.447832 
L 186.306245 33.552203 
L 186.836612 35.047445 
L 187.154833 34.836744 
L 187.36698 35.394896 
L 187.897348 38.200446 
L 188.215569 39.534424 
L 188.53379 40.092406 
L 188.639863 40.030007 
L 188.85201 39.22187 
L 189.488452 35.655699 
L 190.01882 34.62233 
L 190.549187 33.160896 
L 190.973482 33.033791 
L 191.397776 32.315844 
L 191.503849 32.443299 
L 191.82207 33.713565 
L 192.776732 38.389251 
L 192.988879 38.996507 
L 193.094953 39.029118 
L 193.3071 38.620973 
L 193.943541 37.146675 
L 194.155689 37.039165 
L 194.367836 36.997067 
L 194.579983 36.551255 
L 194.898204 35.720807 
L 195.110351 35.600921 
L 195.322498 35.854699 
L 195.640719 37.021203 
L 196.065013 39.393589 
L 196.807528 44.485907 
L 197.019675 44.780505 
L 197.125749 44.641187 
L 197.337896 43.678985 
L 198.504705 36.332829 
L 198.928999 34.953773 
L 199.141146 34.692615 
L 199.353293 34.906222 
L 199.671514 36.042867 
L 200.307956 39.477428 
L 200.73225 41.556246 
L 200.838323 41.619493 
L 201.262618 40.795011 
L 201.368691 40.861009 
L 201.686912 41.582135 
L 202.5355 44.905258 
L 202.747648 45.18969 
L 203.808383 47.767944 
L 203.914457 47.658229 
L 204.232678 46.297067 
L 204.763045 44.22536 
L 205.18734 42.524451 
L 205.929855 38.633797 
L 206.142002 38.591909 
L 206.460222 39.21723 
L 206.778443 40.188637 
L 207.308811 42.099908 
L 207.520958 42.252218 
L 208.157399 41.94446 
L 208.47562 42.15921 
L 208.793841 42.63855 
L 209.112062 43.365335 
L 210.066724 46.608003 
L 210.915312 47.277057 
L 211.127459 46.591777 
L 211.763901 43.316223 
L 211.976048 42.911162 
L 212.188195 43.062354 
L 212.506416 43.325767 
L 212.93071 43.17365 
L 213.355004 43.820783 
L 213.991446 44.628002 
L 214.203593 44.636465 
L 214.41574 44.970309 
L 216.006843 50.488384 
L 216.325064 52.896447 
L 216.855432 59.812084 
L 217.916168 72.90793 
L 218.234388 73.996376 
L 218.658683 73.905041 
L 218.87083 74.779916 
L 219.18905 77.528793 
L 219.613345 83.329249 
L 220.568007 98.206396 
L 220.992301 100.922731 
L 221.628743 103.354581 
L 222.371257 105.27867 
L 223.219846 106.901112 
L 224.280582 108.448318 
L 225.553464 109.881587 
L 226.932421 111.104084 
L 228.629598 112.301831 
L 230.644996 113.431092 
L 232.978614 114.469883 
L 235.736527 115.445911 
L 239.024808 116.367457 
L 242.94953 117.229682 
L 247.72284 118.04407 
L 248.571429 118.168436 
L 248.571429 118.168436 
" clip-path="url(#p4d9f2c947b)" style="fill: none; stroke: #1f77b4; stroke-linecap: square"/>
   </g>
   <g id="line2d_17">
    <path d="M 36 123.12 
L 63.154833 123.083806 
L 63.36698 120.622621 
L 63.579127 117.184201 
L 64.427716 92.64474 
L 64.53379 91.739892 
L 65.488452 70.095943 
L 65.594525 70.385494 
L 65.700599 69.299677 
L 65.912746 63.689623 
L 66.01882 62.278061 
L 66.230967 53.301975 
L 66.33704 51.347504 
L 66.443114 53.591526 
L 66.655261 46.787074 
L 66.761334 46.895655 
L 66.867408 46.207971 
L 67.079555 43.421041 
L 67.185629 47.474758 
L 67.291702 41.575153 
L 67.82207 55.220251 
L 67.928144 55.76316 
L 68.034217 58.151957 
L 68.352438 51.166535 
L 68.670659 38.172926 
L 68.776732 38.824417 
L 69.201027 32.381903 
L 69.413174 38.571059 
L 69.519247 38.715835 
L 70.155689 66.548941 
L 70.261762 65.137379 
L 70.367836 66.838492 
L 70.473909 71.579892 
L 70.579983 70.494075 
L 70.686056 72.95526 
L 70.898204 70.313106 
L 71.110351 72.339964 
L 71.428571 63.508654 
L 71.534645 60.938887 
L 71.640719 61.445601 
L 71.852866 54.713537 
L 72.489307 42.081867 
L 72.595381 44.61544 
L 72.701454 35.892711 
L 72.807528 39.005386 
L 72.913601 38.788223 
L 73.125749 42.226643 
L 73.231822 42.335224 
L 73.550043 54.966894 
L 73.656116 54.568761 
L 73.76219 60.287397 
L 73.868263 58.658671 
L 74.080411 53.989659 
L 74.292558 51.057953 
L 74.398631 56.957558 
L 74.504705 48.415799 
L 74.610778 50.261688 
L 74.716852 49.791167 
L 74.928999 44.253501 
L 75.035073 45.556481 
L 75.141146 40.416948 
L 75.24722 40.52553 
L 75.353293 42.914327 
L 75.459367 40.670305 
L 75.565441 45.411706 
L 75.671514 44.904991 
L 75.777588 40.887469 
L 75.989735 46.135583 
L 76.095808 51.781831 
L 76.201882 49.646391 
L 76.307956 50.225494 
L 76.520103 49.031095 
L 76.73225 52.035189 
L 76.838323 49.610197 
L 76.944397 55.256445 
L 77.05047 54.785925 
L 77.262618 51.890413 
L 77.368691 53.519138 
L 77.580838 52.722873 
L 77.686912 55.690772 
L 77.792985 54.315404 
L 77.899059 57.102334 
L 78.005133 55.980323 
L 78.323353 47.076625 
L 78.429427 47.691921 
L 78.5355 48.994901 
L 78.641574 47.87289 
L 78.959795 41.611346 
L 79.171942 38.896804 
L 79.278015 38.679641 
L 79.384089 34.517343 
L 79.490163 38.534865 
L 79.596236 37.014722 
L 79.70231 37.159497 
L 79.914457 42.335224 
L 80.126604 39.331131 
L 80.338751 47.112819 
L 80.444825 46.497522 
L 80.656972 51.057953 
L 80.869119 47.004237 
L 80.975192 47.583339 
L 81.18734 38.426284 
L 81.293413 38.426284 
L 81.50556 35.42219 
L 81.611634 37.7386 
L 81.717707 37.08711 
L 81.929855 42.516194 
L 82.035928 41.502765 
L 82.142002 41.973285 
L 82.248075 41.538959 
L 82.354149 40.597917 
L 82.460222 44.398276 
L 82.566296 43.710592 
L 82.67237 40.742693 
L 82.778443 41.249408 
L 82.884517 39.367325 
L 82.99059 43.022908 
L 83.096664 42.660969 
L 83.202737 41.466571 
L 83.308811 43.059102 
L 83.414885 41.937092 
L 83.520958 42.878133 
L 83.945252 37.195691 
L 84.051326 36.761364 
L 84.157399 39.403519 
L 84.263473 38.39009 
L 84.369547 35.747935 
L 84.47562 38.426284 
L 84.581694 35.784129 
L 84.687767 39.439713 
L 84.793841 34.806894 
L 84.899914 37.919569 
L 85.005988 30.427433 
L 85.218135 35.60316 
L 85.536356 33.46772 
L 85.748503 34.987864 
L 85.854577 34.698312 
L 86.491018 49.320646 
L 86.597092 50.515045 
L 86.703165 48.488187 
L 86.809239 50.406463 
L 87.233533 45.773645 
L 87.339607 45.194542 
L 87.44568 46.968043 
L 87.551754 46.280359 
L 87.763901 43.13149 
L 87.976048 44.398276 
L 88.082121 43.529623 
L 88.188195 46.316553 
L 88.294269 44.506858 
L 88.506416 52.32474 
L 88.612489 51.781831 
L 88.718563 53.048618 
L 88.93071 57.428079 
L 89.036784 52.97623 
L 89.142857 53.338169 
L 89.248931 50.515045 
L 89.355004 52.071382 
L 89.461078 51.347504 
L 89.567151 52.035189 
L 89.673225 47.945278 
L 89.779299 48.198636 
L 89.885372 50.551239 
L 90.097519 44.796409 
L 90.309666 41.321795 
L 90.41574 41.285601 
L 90.521814 39.512101 
L 90.627887 41.900898 
L 90.946108 36.725171 
L 91.052181 36.797558 
L 91.158255 36.508007 
L 91.264328 40.091203 
L 91.370402 36.725171 
L 92.006843 48.451993 
L 92.431138 60.106427 
L 92.537211 60.070233 
L 92.643285 65.42693 
L 93.3858 41.104632 
L 93.597947 36.001293 
L 93.810094 32.418097 
L 93.916168 32.780036 
L 94.022241 29.052065 
L 94.234388 34.915476 
L 94.340462 34.806894 
L 94.976903 63.762011 
L 95.082977 64.087756 
L 95.18905 69.191095 
L 95.931565 31.875189 
L 96.037639 32.852424 
L 96.143713 28.979677 
L 96.249786 30.861759 
L 96.35586 26.808043 
L 96.461933 28.147217 
L 96.67408 33.250557 
L 96.780154 37.521436 
L 96.886228 37.231885 
L 97.204448 50.551239 
L 97.310522 46.787074 
L 97.416595 50.515045 
L 97.628743 41.032244 
L 97.734816 37.7386 
L 98.053037 45.013573 
L 98.15911 44.977379 
L 98.265184 42.878133 
L 98.689478 60.178815 
L 98.795552 60.395978 
L 99.007699 67.634758 
L 99.113772 66.91088 
L 99.219846 68.21386 
L 99.431993 62.784776 
L 99.538067 60.070233 
L 99.856287 37.810987 
L 100.068435 32.092352 
L 100.174508 29.37781 
L 100.280582 31.51325 
L 100.386655 31.33228 
L 100.492729 30.282657 
L 100.704876 38.064345 
L 100.917023 40.959856 
L 101.235244 49.53781 
L 101.447391 49.103483 
L 101.659538 45.230736 
L 101.765612 38.028151 
L 101.871685 43.167684 
L 101.977759 35.385996 
L 102.189906 38.136732 
L 102.295979 37.630018 
L 102.402053 37.883375 
L 102.6142 44.398276 
L 103.038494 50.768402 
L 103.356715 63.798205 
L 103.462789 64.739246 
L 103.887083 47.257594 
L 104.205304 31.042729 
L 104.311377 30.825566 
L 104.417451 26.011777 
L 105.053892 33.105781 
L 105.372113 50.370269 
L 105.58426 58.694865 
L 105.690334 55.654578 
L 105.796407 56.957558 
L 105.902481 50.985566 
L 106.008554 51.419892 
L 106.220701 47.366176 
L 106.326775 47.40237 
L 106.538922 44.398276 
L 106.644996 44.579246 
L 106.751069 44.289695 
L 106.963216 39.403519 
L 107.06929 40.670305 
L 107.175364 37.774794 
L 107.281437 39.258743 
L 107.387511 37.485242 
L 107.493584 40.453142 
L 107.599658 35.277415 
L 107.705731 39.620682 
L 107.811805 36.869946 
L 107.917879 37.123303 
L 108.236099 29.233034 
L 108.342173 31.911382 
L 108.448246 31.730413 
L 108.55432 29.37781 
L 108.978614 44.470664 
L 109.084688 42.805745 
L 109.508982 45.809838 
L 109.615056 47.728115 
L 109.827203 39.512101 
L 109.933276 37.630018 
L 110.03935 38.317702 
L 110.145423 39.765458 
L 110.357571 35.675548 
L 110.463644 39.765458 
L 110.569718 35.928905 
L 110.675791 41.683734 
L 110.781865 40.99605 
L 110.887938 41.973285 
L 110.994012 45.26693 
L 111.100086 44.398276 
L 111.206159 45.846032 
L 111.418306 41.900898 
L 111.52438 42.299031 
L 111.630453 40.199785 
L 111.842601 42.190449 
L 111.948674 41.611346 
L 112.054748 41.719928 
L 112.479042 37.050916 
L 112.585115 33.974434 
L 112.691189 34.879282 
L 112.797263 33.431526 
L 113.221557 42.48 
L 113.32763 36.363232 
L 113.539778 44.036338 
L 113.645851 44.579246 
L 113.751925 41.068438 
L 113.857998 42.443806 
L 113.964072 41.466571 
L 114.176219 45.230736 
L 114.282293 44.61544 
L 114.388366 44.796409 
L 114.49444 49.175871 
L 114.600513 45.520287 
L 114.918734 51.67325 
L 115.236955 42.516194 
L 115.343028 42.805745 
L 115.449102 39.222549 
L 115.555175 42.118061 
L 115.661249 39.656876 
L 115.767322 42.081867 
L 115.873396 39.656876 
L 115.97947 43.022908 
L 116.085543 40.742693 
L 116.29769 44.724022 
L 116.403764 45.628869 
L 116.615911 50.65982 
L 116.828058 46.063196 
L 116.934132 43.276266 
L 117.146279 46.461329 
L 117.252352 46.497522 
L 117.4645 41.756122 
L 117.570573 38.969192 
L 117.676647 41.683734 
L 117.888794 38.643447 
L 117.994867 41.64754 
L 118.100941 40.887469 
L 118.207015 42.48 
L 118.419162 41.430377 
L 118.525235 43.203878 
L 118.631309 42.407612 
L 118.737382 37.883375 
L 118.843456 41.068438 
L 118.94953 37.774794 
L 119.26775 42.335224 
L 119.373824 36.218456 
L 119.479897 43.96395 
L 119.585971 42.335224 
L 119.692044 46.859461 
L 119.798118 46.823268 
L 119.904192 50.65982 
L 120.010265 50.551239 
L 120.222412 48.126248 
L 120.75278 36.580395 
L 120.858854 39.729264 
L 120.964927 38.281508 
L 121.071001 35.241221 
L 121.177074 38.064345 
L 121.283148 35.784129 
L 121.601369 39.729264 
L 121.707442 38.281508 
L 121.813516 38.607253 
L 121.919589 42.118061 
L 122.025663 39.910233 
L 122.131737 42.624776 
L 122.23781 41.82851 
L 122.449957 34.408761 
L 122.556031 34.662118 
L 122.662104 30.716984 
L 122.768178 31.006535 
L 122.874251 30.355045 
L 122.980325 28.147217 
L 123.086399 30.282657 
L 123.298546 25.468869 
L 123.404619 23.007684 
L 123.510693 26.916625 
L 123.72284 26.265135 
L 123.828914 23.62298 
L 124.147134 31.911382 
L 124.253208 28.54535 
L 124.359281 29.305422 
L 124.465355 36.037487 
L 124.571429 34.843088 
L 124.889649 43.891562 
L 124.995723 44.687828 
L 125.101796 39.656876 
L 125.313944 46.027002 
L 125.738238 33.540108 
L 125.844311 33.503914 
L 125.950385 33.28675 
L 126.056459 28.762513 
L 126.162532 30.427433 
L 126.268606 26.482298 
L 126.374679 28.038636 
L 126.586826 25.432675 
L 126.6929 30.0293 
L 126.905047 28.979677 
L 127.011121 28.54535 
L 128.284003 62.965745 
L 128.496151 60.468366 
L 128.708298 63.617235 
L 128.814371 61.192244 
L 129.026518 49.320646 
L 129.238666 45.049767 
L 129.556886 38.86061 
L 129.66296 37.847181 
L 129.769033 32.888618 
L 129.875107 36.544201 
L 129.98118 34.915476 
L 130.087254 28.038636 
L 130.193328 31.259892 
L 130.299401 30.897953 
L 130.405475 26.627074 
L 130.617622 30.716984 
L 130.723695 30.68079 
L 130.935843 28.111023 
L 131.041916 30.68079 
L 131.14799 29.088259 
L 131.254063 29.594973 
L 131.360137 30.861759 
L 131.572284 28.581544 
L 131.890505 35.711741 
L 132.102652 34.481149 
L 132.208725 32.599066 
L 132.314799 39.005386 
L 132.420873 38.969192 
L 132.526946 38.788223 
L 132.739093 40.199785 
L 132.845167 40.706499 
L 133.375535 28.690126 
L 133.481608 30.716984 
L 133.587682 25.830808 
L 133.799829 28.943483 
L 134.011976 26.880431 
L 134.966638 55.437415 
L 135.072712 53.012424 
L 135.178785 56.704201 
L 135.284859 53.157199 
L 135.390932 53.265781 
L 135.60308 50.1893 
L 135.709153 55.184057 
L 136.133447 45.556481 
L 136.239521 46.461329 
L 136.345595 50.334075 
L 136.451668 48.560575 
L 136.557742 48.958707 
L 136.663815 51.021759 
L 137.194183 34.372567 
L 137.300257 34.879282 
L 137.40633 35.856517 
L 137.618477 33.865853 
L 137.724551 34.30018 
L 137.936698 29.160646 
L 138.042772 33.974434 
L 138.148845 31.187504 
L 138.360992 39.620682 
L 138.467066 36.90614 
L 138.573139 38.788223 
L 138.785287 46.09939 
L 138.89136 47.329982 
L 139.103507 59.961652 
L 139.209581 60.178815 
L 139.739949 46.678492 
L 139.846022 45.049767 
L 140.058169 41.213214 
L 140.164243 41.068438 
L 140.37639 32.526679 
L 140.482464 38.462478 
L 140.588537 35.784129 
L 140.694611 38.824417 
L 140.800684 36.218456 
L 141.118905 41.430377 
L 141.224979 45.158348 
L 141.437126 43.240072 
L 141.543199 39.403519 
L 141.649273 40.52553 
L 141.86142 36.25465 
L 142.073567 41.82851 
L 142.285714 44.217307 
L 142.391788 48.958707 
L 142.497861 48.524381 
L 142.603935 55.365027 
L 142.710009 55.075476 
L 142.922156 50.044524 
L 143.134303 40.959856 
L 143.240376 40.52553 
L 143.452524 32.888618 
L 143.558597 31.730413 
L 143.664671 31.98377 
L 143.982891 27.133788 
L 144.088965 30.861759 
L 144.195038 30.644596 
L 144.301112 36.327038 
L 144.513259 34.589731 
L 144.619333 41.17702 
L 144.725406 39.113968 
L 144.937553 47.764309 
L 145.043627 51.021759 
L 145.149701 50.00833 
L 145.361848 43.059102 
L 145.467921 41.900898 
L 145.573995 42.914327 
L 145.680068 46.352747 
L 145.786142 45.339318 
L 145.998289 47.438564 
L 146.104363 47.40237 
L 146.210436 47.149013 
L 146.31651 49.175871 
L 146.422583 49.103483 
L 146.528657 44.61544 
L 146.740804 48.70535 
L 147.165098 32.562873 
L 147.271172 34.734506 
L 147.377246 33.974434 
L 147.695466 27.785278 
L 148.013687 32.056158 
L 148.225834 34.11921 
L 148.331908 39.729264 
L 148.437981 36.90614 
L 148.544055 38.607253 
L 148.650128 36.218456 
L 148.756202 38.86061 
L 148.968349 50.913178 
L 149.074423 53.844883 
L 149.180496 53.265781 
L 149.28657 55.365027 
L 149.498717 46.352747 
L 149.60479 42.299031 
L 149.816938 45.158348 
L 149.923011 40.380754 
L 150.135158 44.036338 
L 150.241232 42.588582 
L 150.453379 33.178169 
L 150.559453 34.263986 
L 150.665526 30.49982 
L 150.7716 33.214363 
L 150.983747 28.111023 
L 151.195894 29.956912 
L 151.301967 28.183411 
L 151.408041 28.907289 
L 151.514115 34.372567 
L 151.620188 29.015871 
L 151.726262 34.046822 
L 151.832335 28.979677 
L 151.938409 34.987864 
L 152.044482 31.51325 
L 152.150556 32.056158 
L 152.362703 30.572208 
L 152.468777 33.141975 
L 152.680924 28.509156 
L 152.893071 32.780036 
L 152.999145 29.088259 
L 153.105218 34.30018 
L 153.211292 34.263986 
L 153.317365 35.385996 
L 153.423439 38.969192 
L 153.529512 37.231885 
L 153.74166 47.076625 
L 153.953807 44.253501 
L 154.05988 40.670305 
L 154.165954 42.516194 
L 154.590248 32.309515 
L 154.696322 32.056158 
L 154.802395 30.174075 
L 155.014542 34.046822 
L 155.120616 30.861759 
L 155.226689 31.802801 
L 155.332763 28.798707 
L 155.438837 33.503914 
L 155.54491 29.015871 
L 155.757057 33.359138 
L 155.863131 33.322944 
L 156.287425 29.450197 
L 156.393499 30.825566 
L 156.499572 29.486391 
L 156.817793 36.146068 
L 156.923867 34.7707 
L 157.136014 33.431526 
L 157.242087 34.444955 
L 157.348161 37.847181 
L 157.454234 37.412855 
L 157.560308 43.927756 
L 157.666382 42.443806 
L 157.878529 49.320646 
L 157.984602 46.171777 
L 158.090676 51.67325 
L 158.727117 34.010628 
L 158.833191 37.991957 
L 158.939264 33.431526 
L 159.045338 34.227792 
L 159.469632 45.737451 
L 159.575706 45.665063 
L 160 52.505709 
L 160.106074 49.393034 
L 160.212147 50.225494 
L 160.318221 45.592675 
L 160.424294 48.343411 
L 160.530368 47.112819 
L 160.848589 39.620682 
L 160.954662 40.706499 
L 161.166809 33.359138 
L 161.272883 40.706499 
L 161.591104 34.227792 
L 161.697177 36.725171 
L 161.803251 34.7707 
L 161.909324 35.168833 
L 162.015398 33.974434 
L 162.121471 37.159497 
L 162.227545 35.385996 
L 162.439692 36.363232 
L 162.545766 36.290844 
L 162.651839 38.245314 
L 162.863986 33.974434 
L 162.97006 34.408761 
L 163.394354 24.093501 
L 163.712575 31.477056 
L 163.818648 32.019964 
L 164.136869 38.172926 
L 164.349016 42.190449 
L 164.45509 45.194542 
L 164.561163 53.157199 
L 164.667237 51.926607 
L 164.773311 55.690772 
L 165.091531 49.899749 
L 165.303678 41.068438 
L 165.409752 35.892711 
L 165.515825 37.304273 
L 165.727973 34.553537 
L 165.834046 29.233034 
L 166.046193 30.789372 
L 166.25834 25.432675 
L 166.364414 24.636409 
L 166.470488 22.32 
L 166.576561 22.645745 
L 166.682635 24.600215 
L 166.788708 24.093501 
L 166.894782 22.428582 
L 167.000855 26.952819 
L 167.213003 23.767756 
L 167.319076 29.631167 
L 167.42515 29.305422 
L 167.637297 27.495727 
L 167.849444 31.368474 
L 168.061591 35.349803 
L 168.167665 35.747935 
L 168.273738 30.0293 
L 168.379812 33.322944 
L 168.485885 30.716984 
L 168.591959 36.109874 
L 168.698033 34.698312 
L 168.804106 42.299031 
L 168.91018 41.068438 
L 169.2284 50.153106 
L 169.440547 52.650485 
L 169.864842 46.09939 
L 169.970915 46.642298 
L 170.076989 41.719928 
L 170.183062 44.506858 
L 170.39521 37.955763 
L 170.501283 38.281508 
L 170.607357 41.032244 
L 170.925577 35.458384 
L 171.137725 29.594973 
L 171.243798 31.51325 
L 171.349872 27.676697 
L 171.562019 34.263986 
L 171.668092 36.435619 
L 171.774166 34.589731 
L 171.88024 37.666212 
L 171.986313 33.503914 
L 172.092387 33.540108 
L 172.19846 31.042729 
L 172.304534 35.711741 
L 172.410607 30.463627 
L 172.516681 31.621831 
L 172.622754 31.187504 
L 172.728828 36.290844 
L 173.047049 29.341616 
L 173.153122 28.364381 
L 173.259196 28.979677 
L 173.365269 28.871095 
L 173.471343 28.979677 
L 173.577417 29.450197 
L 173.68349 24.925961 
L 173.895637 28.002442 
L 174.001711 28.074829 
L 174.107784 30.49982 
L 174.213858 35.675548 
L 174.319932 33.540108 
L 174.426005 35.784129 
L 174.532079 42.335224 
L 174.638152 38.788223 
L 175.16852 59.092998 
L 175.274594 51.745637 
L 175.380667 59.237774 
L 176.017109 43.96395 
L 176.229256 45.701257 
L 176.335329 42.733357 
L 176.865697 50.334075 
L 176.971771 56.197487 
L 177.183918 53.301975 
L 177.289991 52.252352 
L 177.396065 52.97623 
L 177.502139 55.11167 
L 177.608212 47.257594 
L 177.714286 48.379605 
L 177.820359 43.493429 
L 177.926433 44.579246 
L 178.032506 41.032244 
L 178.13858 41.430377 
L 178.350727 37.376661 
L 178.456801 36.363232 
L 178.775021 29.19684 
L 178.987169 34.843088 
L 179.093242 36.688977 
L 179.199316 34.879282 
L 179.305389 37.883375 
L 179.411463 33.576302 
L 179.517536 36.435619 
L 179.62361 31.875189 
L 179.729683 36.25465 
L 179.941831 35.385996 
L 180.047904 35.928905 
L 180.366125 41.502765 
L 180.472198 39.367325 
L 180.578272 41.357989 
L 180.684346 39.837846 
L 180.790419 43.31246 
L 180.896493 43.022908 
L 181.002566 43.421041 
L 181.10864 45.520287 
L 181.320787 42.371418 
L 181.426861 42.805745 
L 181.532934 42.733357 
L 181.639008 39.620682 
L 181.745081 40.199785 
L 181.957228 43.855368 
L 182.063302 45.375512 
L 182.275449 53.44675 
L 182.381523 55.618384 
L 182.487596 53.953465 
L 182.699743 45.665063 
L 182.805817 45.411706 
L 182.911891 47.40237 
L 183.124038 41.394183 
L 183.548332 32.780036 
L 183.654405 32.200934 
L 184.184773 44.687828 
L 184.39692 55.76316 
L 184.609068 47.764309 
L 184.715141 47.185206 
L 184.821215 47.655727 
L 184.927288 49.248259 
L 185.033362 48.777738 
L 185.139435 51.130341 
L 185.245509 48.162442 
L 185.457656 49.067289 
L 185.669803 42.081867 
L 185.775877 41.140826 
L 185.88195 41.611346 
L 186.094098 35.60316 
L 186.200171 36.182262 
L 186.306245 35.928905 
L 186.624465 45.628869 
L 186.730539 44.362083 
L 186.836612 45.520287 
L 187.154833 37.521436 
L 187.260907 40.018815 
L 187.36698 45.737451 
L 187.473054 45.230736 
L 188.003422 59.310162 
L 188.215569 56.197487 
L 188.321642 56.23368 
L 188.53379 62.097092 
L 188.639863 57.464273 
L 188.745937 57.790018 
L 188.85201 56.776589 
L 189.064157 45.484093 
L 189.170231 46.09939 
L 189.276305 39.548294 
L 189.382378 42.697163 
L 189.488452 40.742693 
L 189.594525 44.072531 
L 189.700599 41.104632 
L 189.806672 41.502765 
L 189.912746 43.746786 
L 190.01882 40.235978 
L 190.124893 41.973285 
L 190.33704 36.833752 
L 190.443114 34.553537 
L 190.549187 36.07368 
L 190.655261 39.837846 
L 190.867408 37.195691 
L 191.079555 35.566966 
L 191.397776 26.880431 
L 191.609923 34.553537 
L 191.715997 34.662118 
L 191.82207 35.205027 
L 192.140291 45.194542 
L 192.246364 46.425135 
L 192.352438 50.116912 
L 192.564585 49.465422 
L 192.670659 49.754973 
L 192.776732 54.46018 
L 192.882806 54.025853 
L 192.988879 55.075476 
L 193.201027 50.985566 
L 193.3071 47.366176 
L 193.413174 47.981472 
L 193.519247 47.909084 
L 193.625321 49.067289 
L 193.731394 44.181113 
L 193.837468 45.665063 
L 193.943541 44.108725 
L 194.049615 44.760215 
L 194.155689 44.253501 
L 194.367836 48.126248 
L 194.79213 37.883375 
L 194.898204 39.548294 
L 195.004277 36.90614 
L 195.110351 38.788223 
L 195.428571 36.580395 
L 195.534645 37.412855 
L 195.640719 40.634111 
L 195.746792 40.489336 
L 195.852866 41.285601 
L 195.958939 44.398276 
L 196.065013 43.493429 
L 196.489307 63.038133 
L 196.595381 62.893357 
L 196.913601 68.648187 
L 197.019675 65.788869 
L 197.125749 66.440359 
L 197.231822 65.101185 
L 197.443969 56.197487 
L 197.550043 55.437415 
L 197.974337 43.022908 
L 198.080411 44.253501 
L 198.292558 39.005386 
L 198.610778 32.345709 
L 198.716852 35.892711 
L 198.928999 32.381903 
L 199.035073 32.092352 
L 199.141146 31.006535 
L 199.353293 34.227792 
L 199.459367 29.19684 
L 199.565441 37.449048 
L 199.671514 37.231885 
L 199.777588 40.127397 
L 199.883661 37.702406 
L 199.989735 39.113968 
L 200.307956 47.728115 
L 200.414029 48.741544 
L 200.73225 56.559425 
L 200.838323 54.604955 
L 201.156544 40.815081 
L 201.368691 47.076625 
L 201.474765 43.457235 
L 201.580838 43.674399 
L 201.686912 43.31246 
L 201.792985 44.832603 
L 202.111206 56.197487 
L 202.21728 55.437415 
L 202.323353 56.704201 
L 202.429427 56.450844 
L 202.5355 53.555332 
L 202.641574 53.953465 
L 202.747648 55.401221 
L 202.853721 54.858312 
L 203.065868 58.55009 
L 203.171942 56.848977 
L 203.278015 58.839641 
L 203.384089 58.224345 
L 203.70231 64.739246 
L 203.808383 66.983268 
L 203.914457 61.952316 
L 204.02053 63.653429 
L 204.126604 54.604955 
L 204.232678 56.125099 
L 204.444825 53.62772 
L 204.550898 51.998995 
L 204.656972 52.541903 
L 204.763045 51.202729 
L 204.869119 47.547145 
L 204.975192 50.334075 
L 205.081266 45.990808 
L 205.18734 46.497522 
L 205.293413 45.809838 
L 205.399487 38.100539 
L 205.50556 40.308366 
L 205.717707 34.553537 
L 205.929855 32.63526 
L 206.035928 32.924811 
L 206.142002 35.820323 
L 206.248075 35.639354 
L 206.566296 40.055009 
L 206.67237 37.050916 
L 206.99059 47.945278 
L 207.096664 44.796409 
L 207.202737 47.40237 
L 207.414885 47.004237 
L 207.520958 47.510952 
L 207.627032 40.778887 
L 207.733105 44.760215 
L 207.839179 42.697163 
L 207.945252 43.96395 
L 208.157399 40.34456 
L 208.263473 42.624776 
L 208.369547 40.778887 
L 208.47562 40.99605 
L 208.581694 39.729264 
L 208.687767 40.380754 
L 208.793841 43.891562 
L 208.899914 40.851275 
L 209.005988 41.973285 
L 209.112062 41.864704 
L 209.218135 43.022908 
L 209.430282 47.691921 
L 209.536356 49.175871 
L 209.642429 48.741544 
L 209.854577 52.650485 
L 209.96065 51.637056 
L 210.066724 52.903842 
L 210.172797 50.768402 
L 210.278871 53.012424 
L 210.491018 49.35684 
L 210.809239 56.595619 
L 210.915312 56.631813 
L 211.233533 45.846032 
L 211.339607 44.651634 
L 211.551754 40.235978 
L 211.657827 38.932998 
L 211.763901 39.69307 
L 211.869974 33.214363 
L 212.294269 40.235978 
L 212.400342 38.317702 
L 212.506416 38.679641 
L 212.612489 41.937092 
L 212.824636 36.833752 
L 212.93071 36.363232 
L 213.036784 39.801652 
L 213.248931 37.55763 
L 213.355004 39.982621 
L 213.567151 38.39009 
L 213.673225 38.462478 
L 213.779299 42.299031 
L 213.885372 38.353896 
L 213.991446 38.534865 
L 214.097519 34.987864 
L 214.203593 38.064345 
L 214.309666 31.802801 
L 214.521814 38.824417 
L 214.627887 37.919569 
L 214.840034 42.660969 
L 214.946108 38.824417 
L 215.052181 40.706499 
L 215.158255 40.235978 
L 215.264328 41.719928 
L 215.370402 38.534865 
L 215.582549 40.453142 
L 215.688623 40.091203 
L 215.794696 36.616589 
L 216.006843 39.69307 
L 216.112917 37.774794 
L 216.537211 44.217307 
L 216.749358 55.039282 
L 216.855432 57.71763 
L 216.961506 56.957558 
L 217.279726 75.488833 
L 217.3858 77.443303 
L 217.597947 86.672747 
L 217.704021 85.840287 
L 217.810094 88.591023 
L 217.916168 86.455583 
L 218.128315 88.844381 
L 218.234388 85.369767 
L 218.446536 74.475404 
L 218.658683 70.240718 
L 218.87083 67.345206 
L 219.082977 74.222047 
L 219.18905 74.511598 
L 219.295124 75.27167 
L 220.143713 114.723016 
L 220.461933 123.12 
L 248.571429 123.12 
L 248.571429 123.12 
" clip-path="url(#p4d9f2c947b)" style="fill: none; stroke: #ff7f0e; stroke-linecap: square"/>
   </g>
   <g id="line2d_18">
    <path d="M 36 123.12 
L 36.106074 123.117945 
L 36.212147 121.816526 
L 36.424294 115.743802 
L 36.636441 118.902628 
L 36.742515 119.06248 
L 37.166809 118.372137 
L 38.015398 118.359224 
L 45.2284 117.038041 
L 46.39521 116.717788 
L 46.607357 115.743411 
L 46.819504 116.882763 
L 46.925577 116.919673 
L 47.455945 116.514584 
L 48.304534 116.328861 
L 50.956373 115.469326 
L 55.729683 113.731637 
L 57.320787 113.401036 
L 58.169376 113.197315 
L 59.442258 112.949023 
L 61.775877 112.132727 
L 63.04876 111.955476 
L 63.154833 111.699014 
L 63.36698 110.077638 
L 63.685201 104.356732 
L 64.427716 88.207304 
L 64.745937 85.323747 
L 65.064157 77.464219 
L 65.382378 70.866385 
L 65.806672 67.233545 
L 66.761334 53.061674 
L 67.291702 49.355171 
L 67.397776 49.626199 
L 67.609923 53.051373 
L 67.928144 59.584801 
L 68.034217 59.971844 
L 68.140291 59.10185 
L 68.458512 51.594403 
L 68.776732 44.696135 
L 69.094953 42.533493 
L 69.201027 42.423897 
L 69.3071 42.874996 
L 69.519247 46.200397 
L 70.261762 66.398434 
L 70.473909 67.819881 
L 70.898204 71.224333 
L 71.004277 71.076405 
L 71.216424 67.911334 
L 71.746792 58.390951 
L 72.807528 44.672422 
L 72.913601 44.235279 
L 73.019675 44.749854 
L 73.231822 48.130384 
L 73.76219 59.104889 
L 73.868263 58.411984 
L 74.186484 54.151577 
L 74.504705 52.973715 
L 74.928999 49.298228 
L 75.24722 45.75587 
L 75.353293 45.525321 
L 75.565441 46.268422 
L 75.777588 47.714016 
L 76.201882 52.296678 
L 76.307956 52.21284 
L 76.626176 51.402091 
L 76.838323 52.889467 
L 77.05047 54.091079 
L 77.368691 53.385142 
L 77.580838 54.248247 
L 77.792985 55.462678 
L 77.899059 55.488053 
L 78.111206 52.999619 
L 78.429427 48.937184 
L 78.641574 47.985387 
L 79.065868 43.761055 
L 79.490163 40.204593 
L 79.596236 40.33018 
L 80.126604 43.506121 
L 80.656972 49.026531 
L 80.869119 47.420631 
L 81.50556 39.377358 
L 81.717707 40.696096 
L 82.035928 42.962401 
L 82.248075 43.394398 
L 82.460222 43.420386 
L 82.67237 42.699223 
L 82.884517 42.033621 
L 82.99059 42.327255 
L 83.308811 43.93147 
L 83.414885 43.625697 
L 84.051326 39.180051 
L 84.47562 39.582837 
L 84.687767 38.672782 
L 85.005988 37.55784 
L 85.218135 37.446242 
L 85.642429 36.16488 
L 85.748503 36.427967 
L 85.96065 39.095239 
L 86.491018 47.644476 
L 86.597092 48.217249 
L 86.703165 47.959054 
L 87.127459 44.49317 
L 87.339607 44.981816 
L 87.44568 44.889551 
L 87.869974 43.211106 
L 87.976048 43.176206 
L 88.082121 43.286623 
L 88.188195 43.638419 
L 88.400342 45.716865 
L 88.824636 51.681097 
L 88.93071 51.345355 
L 89.355004 48.856176 
L 89.567151 48.000104 
L 89.885372 45.601602 
L 90.41574 40.161697 
L 90.627887 39.563297 
L 91.052181 37.436182 
L 91.158255 37.365736 
L 91.264328 37.571152 
L 91.476476 38.972468 
L 92.006843 45.547707 
L 92.537211 56.079166 
L 92.643285 56.525115 
L 92.749358 56.045912 
L 92.961506 51.943127 
L 93.491873 36.397501 
L 93.810094 33.995447 
L 94.022241 33.100779 
L 94.128315 33.220447 
L 94.340462 35.668044 
L 94.658683 45.06622 
L 95.082977 58.219149 
L 95.18905 57.73189 
L 95.401198 50.152899 
L 95.719418 36.063707 
L 96.037639 32.377346 
L 96.35586 30.587933 
L 96.461933 30.869864 
L 96.67408 32.969167 
L 96.992301 39.903989 
L 97.204448 44.181976 
L 97.310522 44.489981 
L 97.522669 41.216535 
L 97.734816 37.549725 
L 97.84089 37.469501 
L 98.053037 40.248201 
L 98.689478 52.533009 
L 99.113772 58.949361 
L 99.219846 58.688044 
L 99.431993 53.971985 
L 100.174508 31.14158 
L 100.280582 31.303816 
L 100.492729 33.060364 
L 100.81095 37.335738 
L 101.235244 43.74448 
L 101.341317 43.934197 
L 101.447391 43.231853 
L 102.083832 35.146562 
L 102.189906 35.556177 
L 103.038494 46.46095 
L 103.462789 54.605292 
L 103.568862 53.373417 
L 103.887083 41.352074 
L 104.205304 31.854642 
L 104.417451 29.459569 
L 104.629598 28.991071 
L 104.735672 29.09444 
L 104.841745 29.622204 
L 105.053892 33.200773 
L 105.690334 50.102597 
L 106.326775 41.514039 
L 106.751069 39.753585 
L 107.281437 34.900639 
L 107.387511 34.920999 
L 107.599658 35.307523 
L 107.705731 35.128828 
L 107.917879 33.35685 
L 108.342173 28.169812 
L 108.448246 28.403923 
L 108.660393 31.840731 
L 108.978614 38.48547 
L 109.296835 40.73922 
L 109.402908 40.936055 
L 109.508982 40.517212 
L 110.145423 34.61497 
L 110.251497 34.62011 
L 110.463644 35.095265 
L 110.675791 36.698373 
L 110.994012 40.006209 
L 111.100086 40.191512 
L 111.312233 38.575236 
L 111.630453 36.034568 
L 111.736527 36.179865 
L 112.054748 37.320034 
L 112.160821 37.128509 
L 112.372968 35.03624 
L 112.691189 31.29226 
L 112.797263 31.62668 
L 113.433704 38.059523 
L 113.645851 38.321035 
L 113.857998 37.871525 
L 113.964072 37.92299 
L 114.176219 38.778901 
L 114.81266 42.934629 
L 114.918734 42.548905 
L 115.555175 36.523223 
L 115.767322 36.381865 
L 115.873396 36.473089 
L 115.97947 36.91347 
L 116.509837 42.001732 
L 116.615911 41.963593 
L 117.4645 37.282646 
L 117.676647 35.719862 
L 117.888794 35.458147 
L 117.994867 35.633372 
L 118.419162 37.648506 
L 118.843456 34.983827 
L 118.94953 35.018399 
L 119.26775 35.871154 
L 119.479897 37.083022 
L 120.010265 43.077107 
L 120.116339 42.765577 
L 120.328486 39.114812 
L 120.646707 33.805672 
L 120.858854 33.437378 
L 121.071001 33.481052 
L 121.389222 33.753817 
L 121.495295 33.728129 
L 121.601369 33.842554 
L 121.813516 34.926748 
L 122.025663 36.068211 
L 122.131737 35.896265 
L 122.343884 33.331428 
L 122.662104 29.393519 
L 123.086399 26.808024 
L 123.404619 24.559641 
L 123.510693 24.426469 
L 123.616766 24.476186 
L 123.72284 24.675694 
L 123.934987 26.003947 
L 124.571429 32.496309 
L 124.995723 38.008168 
L 125.20787 38.713578 
L 125.420017 36.061081 
L 125.844311 29.69625 
L 126.374679 25.871418 
L 126.480753 25.750881 
L 126.6929 26.271995 
L 127.011121 27.78505 
L 127.223268 30.609385 
L 128.284003 50.176005 
L 128.496151 51.333645 
L 128.602224 51.145317 
L 128.814371 48.306541 
L 129.344739 36.348378 
L 130.193328 27.169689 
L 130.405475 26.49394 
L 130.723695 27.105131 
L 131.041916 26.94372 
L 131.254063 27.304039 
L 131.572284 28.336884 
L 131.996578 30.996107 
L 132.208725 31.442779 
L 132.739093 34.823059 
L 132.845167 34.523063 
L 133.057314 31.90846 
L 133.375535 26.378441 
L 133.587682 25.665889 
L 133.799829 25.87656 
L 134.011976 26.809629 
L 134.224123 29.139282 
L 134.542344 35.181773 
L 134.966638 45.022618 
L 135.072712 45.519202 
L 135.284859 44.207257 
L 135.497006 43.07154 
L 135.60308 42.999866 
L 135.709153 43.166916 
L 135.815227 43.126003 
L 136.239521 40.647296 
L 136.557742 42.242205 
L 136.663815 41.92408 
L 136.875962 38.9536 
L 137.300257 30.807775 
L 137.830624 28.896604 
L 137.936698 28.797366 
L 138.148845 30.006759 
L 138.573139 33.938359 
L 138.89136 43.19009 
L 139.103507 48.307312 
L 139.209581 48.85 
L 139.315654 48.039466 
L 140.270317 32.451564 
L 140.482464 31.304512 
L 140.588537 31.545732 
L 140.800684 32.971705 
L 141.331052 37.84139 
L 141.543199 35.481893 
L 141.755346 32.911918 
L 141.86142 32.578954 
L 141.967494 33.062498 
L 142.179641 36.258883 
L 142.603935 44.603114 
L 142.710009 45.180104 
L 142.816082 44.234087 
L 143.558597 28.916563 
L 143.876818 27.106887 
L 143.982891 27.17796 
L 144.195038 28.456546 
L 144.513259 31.727853 
L 145.043627 40.868384 
L 145.149701 40.339632 
L 145.467921 36.573828 
L 145.573995 36.769012 
L 145.998289 39.903362 
L 146.422583 40.740198 
L 146.528657 40.5876 
L 146.740804 39.224868 
L 146.952951 35.969375 
L 147.377246 28.848649 
L 147.695466 27.041288 
L 147.80154 27.277329 
L 148.11976 30.137722 
L 148.331908 31.740386 
L 148.544055 31.887059 
L 148.650128 32.607012 
L 148.862275 38.116691 
L 149.074423 44.205182 
L 149.180496 44.840596 
L 149.392643 41.81428 
L 149.710864 36.535355 
L 149.816938 36.311894 
L 150.029085 36.592092 
L 150.135158 36.131039 
L 150.347305 33.352814 
L 150.7716 27.76459 
L 151.08982 26.472798 
L 151.195894 26.558184 
L 151.726262 28.510266 
L 151.938409 29.04857 
L 152.044482 28.970043 
L 152.57485 27.880098 
L 152.680924 27.760336 
L 152.786997 27.821037 
L 152.999145 28.657908 
L 153.317365 31.415288 
L 153.847733 39.071025 
L 153.953807 38.807741 
L 154.165954 35.713765 
L 154.590248 28.883478 
L 154.696322 28.650867 
L 155.014542 29.358536 
L 155.226689 28.849303 
L 155.438837 28.285964 
L 155.54491 28.38674 
L 155.863131 29.240349 
L 155.969204 28.980556 
L 156.393499 26.799979 
L 156.499572 27.224577 
L 157.02994 31.190081 
L 157.136014 31.352684 
L 157.348161 32.533231 
L 157.666382 37.12011 
L 157.984602 41.555578 
L 158.090676 41.797877 
L 158.196749 41.024947 
L 158.833191 30.182485 
L 158.939264 30.497682 
L 159.151411 33.092635 
L 159.575706 39.327122 
L 160 42.973895 
L 160.106074 42.584142 
L 161.166809 32.862291 
L 161.378956 33.645516 
L 161.48503 33.553786 
L 161.909324 30.924249 
L 162.015398 30.994575 
L 162.651839 33.085045 
L 162.863986 31.288737 
L 163.394354 25.368868 
L 163.500428 25.394294 
L 163.712575 27.811948 
L 164.45509 40.044503 
L 164.773311 45.984521 
L 164.879384 46.333783 
L 164.985458 45.086642 
L 165.621899 31.242194 
L 166.152267 25.479016 
L 166.470488 22.406001 
L 166.576561 22.32 
L 166.788708 23.374516 
L 167.106929 24.988909 
L 167.531223 26.20159 
L 167.74337 28.061669 
L 168.061591 30.873961 
L 168.167665 30.631584 
L 168.485885 29.085483 
L 168.698033 31.912145 
L 169.2284 43.52196 
L 169.334474 44.064109 
L 169.440547 43.969592 
L 169.652695 42.850041 
L 169.864842 40.474711 
L 170.183062 36.423295 
L 170.39521 35.815039 
L 170.607357 35.769556 
L 170.71343 35.224894 
L 170.925577 31.623772 
L 171.243798 26.556266 
L 171.349872 27.337811 
L 171.774166 32.974437 
L 171.88024 32.979623 
L 172.092387 31.387181 
L 172.304534 29.828195 
L 172.410607 29.660826 
L 172.728828 30.604304 
L 172.834902 30.304062 
L 173.365269 26.738913 
L 173.789564 26.992511 
L 174.001711 28.684658 
L 174.426005 32.604713 
L 174.638152 35.60744 
L 175.274594 49.60013 
L 175.380667 49.656573 
L 175.592814 47.148606 
L 176.123182 39.156689 
L 176.229256 38.818727 
L 176.335329 39.02402 
L 176.547476 40.905932 
L 177.077844 47.088928 
L 177.183918 47.410093 
L 177.289991 47.133317 
L 177.502139 44.633978 
L 177.926433 37.705163 
L 178.350727 34.26106 
L 178.668948 30.222663 
L 178.775021 30.014538 
L 178.987169 31.843517 
L 179.199316 33.871825 
L 179.305389 33.893939 
L 179.62361 31.960556 
L 179.729683 32.049109 
L 180.047904 34.090133 
L 180.472198 36.680106 
L 180.790419 38.223636 
L 181.10864 39.496362 
L 181.214713 39.427189 
L 181.639008 37.398936 
L 181.745081 37.75373 
L 181.957228 40.644774 
L 182.381523 46.797119 
L 182.487596 46.042328 
L 182.911891 38.793738 
L 183.124038 37.505372 
L 183.548332 31.562429 
L 183.654405 31.705861 
L 183.866553 34.39215 
L 184.39692 45.439885 
L 184.821215 42.38311 
L 184.927288 42.673267 
L 185.351583 45.060334 
L 185.457656 44.471081 
L 185.775877 37.633395 
L 186.094098 33.759517 
L 186.200171 33.846759 
L 186.412318 37.377619 
L 186.624465 41.775787 
L 186.730539 42.096283 
L 186.942686 39.210413 
L 187.154833 36.616782 
L 187.260907 36.785813 
L 187.473054 39.888098 
L 188.003422 49.432788 
L 188.639863 53.233043 
L 188.745937 52.015247 
L 189.382378 38.746098 
L 189.488452 39.020926 
L 189.806672 40.783699 
L 189.912746 40.429265 
L 190.443114 34.482951 
L 190.655261 35.963243 
L 190.867408 37.234572 
L 190.973482 36.58173 
L 191.397776 30.973108 
L 191.503849 31.373381 
L 191.715997 34.369788 
L 192.246364 43.302455 
L 192.670659 46.580702 
L 192.988879 50.919769 
L 193.201027 48.002629 
L 193.519247 44.265953 
L 193.943541 41.89056 
L 194.261762 43.396793 
L 194.367836 43.185293 
L 194.579983 41.108223 
L 195.004277 36.312126 
L 195.110351 36.109944 
L 195.216424 36.437354 
L 195.852866 41.536117 
L 196.065013 44.575956 
L 196.701454 58.129418 
L 196.913601 59.566302 
L 197.019675 59.647768 
L 197.231822 57.066322 
L 198.080411 41.292897 
L 198.398631 38.349745 
L 198.822926 34.66726 
L 199.141146 32.978312 
L 199.24722 33.247554 
L 200.095808 42.228652 
L 200.626176 51.193849 
L 200.73225 51.236993 
L 200.838323 50.380202 
L 201.368691 42.249501 
L 201.474765 42.523966 
L 201.686912 44.315394 
L 202.21728 53.250953 
L 202.323353 53.231796 
L 202.641574 51.230696 
L 202.853721 52.613198 
L 203.808383 60.786915 
L 203.914457 60.020398 
L 204.550898 50.574187 
L 204.763045 50.52291 
L 204.869119 50.261083 
L 205.081266 48.894224 
L 205.293413 46.482706 
L 205.823781 36.853778 
L 206.67237 42.25286 
L 207.308811 49.010508 
L 207.414885 48.534061 
L 207.839179 45.469031 
L 208.051326 45.256706 
L 208.369547 44.584924 
L 208.47562 44.715772 
L 208.793841 45.568785 
L 208.899914 45.574106 
L 209.005988 45.705053 
L 209.218135 47.448414 
L 209.642429 52.171377 
L 209.854577 53.349312 
L 209.96065 53.515599 
L 210.066724 53.259829 
L 210.384944 51.719847 
L 210.491018 52.075019 
L 210.915312 56.516788 
L 211.021386 55.673575 
L 211.763901 42.228992 
L 211.976048 42.46181 
L 212.188195 43.550732 
L 212.400342 44.934532 
L 212.506416 44.873567 
L 212.93071 42.559089 
L 213.355004 44.068073 
L 213.673225 45.83569 
L 213.779299 45.57519 
L 214.309666 42.084428 
L 214.41574 42.276883 
L 214.840034 46.166366 
L 215.052181 46.005508 
L 215.370402 46.882915 
L 215.476476 46.444961 
L 215.794696 43.935045 
L 215.90077 43.8961 
L 216.112917 44.528638 
L 216.325064 47.194904 
L 217.810094 82.683266 
L 217.916168 82.856816 
L 218.022241 82.362115 
L 218.234388 79.093873 
L 218.658683 69.930032 
L 218.764756 69.698562 
L 218.976903 71.586059 
L 219.295124 75.941047 
L 219.613345 84.49362 
L 220.461933 110.945607 
L 220.67408 111.516746 
L 221.522669 111.413115 
L 222.265184 111.671884 
L 223.750214 111.940132 
L 226.932421 112.71299 
L 227.887083 112.983915 
L 229.372113 113.572802 
L 230.538922 113.887897 
L 233.402908 115.215793 
L 235.842601 116.015028 
L 237.433704 116.512526 
L 237.645851 116.733406 
L 237.751925 116.680198 
L 237.857998 116.327428 
L 237.964072 115.472953 
L 238.176219 116.503629 
L 238.388366 116.667216 
L 238.918734 116.708388 
L 240.721985 117.144355 
L 245.071001 117.952092 
L 247.192472 118.19179 
L 247.404619 118.232973 
L 247.72284 118.901672 
L 247.828914 118.736741 
L 247.934987 117.683685 
L 248.147134 115.436758 
L 248.359281 123.117859 
L 248.571429 123.12 
L 248.571429 123.12 
" clip-path="url(#p4d9f2c947b)" style="fill: none; stroke: #2ca02c; stroke-linecap: square"/>
   </g>
   <g id="patch_3">
    <path d="M 36 128.16 
L 36 17.28 
" style="fill: none; stroke: #000000; stroke-width: 0.5; stroke-linejoin: miter; stroke-linecap: square"/>
   </g>
   <g id="patch_4">
    <path d="M 36 128.16 
L 259.2 128.16 
" style="fill: none; stroke: #000000; stroke-width: 0.5; stroke-linejoin: miter; stroke-linecap: square"/>
   </g>
   <g id="text_18">
    <text style="font: 6px 'DejaVu Sans', 'Arial', 'Helvetica', 'Lucida Grande', 'Verdana', 'Geneva', 'Lucid', 'Avant Garde', sans-serif; text-anchor: middle" x="147.6" y="11.28" transform="rotate(-0 147.6 11.28)">Comparison of colony intensity profiles</text>
   </g>
   <g id="legend_1">
    <g id="patch_5">
     <path d="M 118.486875 125.16 
L 176.713125 125.16 
Q 177.913125 125.16 177.913125 123.96 
L 177.913125 98.139375 
Q 177.913125 96.939375 176.713125 96.939375 
L 118.486875 96.939375 
Q 117.286875 96.939375 117.286875 98.139375 
L 117.286875 123.96 
Q 117.286875 125.16 118.486875 125.16 
z
" style="fill: #ffffff; opacity: 0.8; stroke: #cccccc; stroke-linejoin: miter"/>
    </g>
    <g id="line2d_19">
     <path d="M 119.686875 101.798438 
L 125.686875 101.798438 
L 131.686875 101.798438 
" style="fill: none; stroke: #1f77b4; stroke-linecap: square"/>
    </g>
    <g id="text_19">
     <text style="font: 6px 'DejaVu Sans', 'Arial', 'Helvetica', 'Lucida Grande', 'Verdana', 'Geneva', 'Lucid', 'Avant Garde', sans-serif; text-anchor: start" x="136.486875" y="103.898438" transform="rotate(-0 136.486875 103.898438)">Convolved</text>
    </g>
    <g id="line2d_20">
     <path d="M 119.686875 110.605312 
L 125.686875 110.605312 
L 131.686875 110.605312 
" style="fill: none; stroke: #ff7f0e; stroke-linecap: square"/>
    </g>
    <g id="text_20">
     <text style="font: 6px 'DejaVu Sans', 'Arial', 'Helvetica', 'Lucida Grande', 'Verdana', 'Geneva', 'Lucid', 'Avant Garde', sans-serif; text-anchor: start" x="136.486875" y="112.705312" transform="rotate(-0 136.486875 112.705312)">Ground truth</text>
    </g>
    <g id="line2d_21">
     <path d="M 119.686875 119.412188 
L 125.686875 119.412188 
L 131.686875 119.412188 
" style="fill: none; stroke: #2ca02c; stroke-linecap: square"/>
    </g>
    <g id="text_21">
     <text style="font: 6px 'DejaVu Sans', 'Arial', 'Helvetica', 'Lucida Grande', 'Verdana', 'Geneva', 'Lucid', 'Avant Garde', sans-serif; text-anchor: start" x="136.486875" y="121.512187" transform="rotate(-0 136.486875 121.512187)">Deconvolved</text>
    </g>
   </g>
  </g>
  <g id="axes_2">
   <g id="patch_6">
    <path d="M 144 72 
L 244.8 72 
L 244.8 21.6 
L 144 21.6 
L 144 72 
z
" style="fill: none"/>
   </g>
   <g id="matplotlib.axis_3">
    <g id="xtick_10">
     <g id="line2d_22">
      <g>
       <use xlink:href="#m098b4b435b" x="154.08" y="72" style="stroke: #000000; stroke-width: 0.8"/>
      </g>
     </g>
     <g id="text_22">
      <text style="font: 6px 'DejaVu Sans', 'Arial', 'Helvetica', 'Lucida Grande', 'Verdana', 'Geneva', 'Lucid', 'Avant Garde', sans-serif; text-anchor: middle" x="154.08" y="83.559062" transform="rotate(-0 154.08 83.559062)">800</text>
     </g>
    </g>
    <g id="xtick_11">
     <g id="line2d_23">
      <g>
       <use xlink:href="#m098b4b435b" x="174.24" y="72" style="stroke: #000000; stroke-width: 0.8"/>
      </g>
     </g>
     <g id="text_23">
      <text style="font: 6px 'DejaVu Sans', 'Arial', 'Helvetica', 'Lucida Grande', 'Verdana', 'Geneva', 'Lucid', 'Avant Garde', sans-serif; text-anchor: middle" x="174.24" y="83.559062" transform="rotate(-0 174.24 83.559062)">900</text>
     </g>
    </g>
    <g id="xtick_12">
     <g id="line2d_24">
      <g>
       <use xlink:href="#m098b4b435b" x="194.4" y="72" style="stroke: #000000; stroke-width: 0.8"/>
      </g>
     </g>
     <g id="text_24">
      <text style="font: 6px 'DejaVu Sans', 'Arial', 'Helvetica', 'Lucida Grande', 'Verdana', 'Geneva', 'Lucid', 'Avant Garde', sans-serif; text-anchor: middle" x="194.4" y="83.559062" transform="rotate(-0 194.4 83.559062)">1000</text>
     </g>
    </g>
    <g id="xtick_13">
     <g id="line2d_25">
      <g>
       <use xlink:href="#m098b4b435b" x="214.56" y="72" style="stroke: #000000; stroke-width: 0.8"/>
      </g>
     </g>
     <g id="text_25">
      <text style="font: 6px 'DejaVu Sans', 'Arial', 'Helvetica', 'Lucida Grande', 'Verdana', 'Geneva', 'Lucid', 'Avant Garde', sans-serif; text-anchor: middle" x="214.56" y="83.559062" transform="rotate(-0 214.56 83.559062)">1100</text>
     </g>
    </g>
    <g id="xtick_14">
     <g id="line2d_26">
      <g>
       <use xlink:href="#m098b4b435b" x="234.72" y="72" style="stroke: #000000; stroke-width: 0.8"/>
      </g>
     </g>
     <g id="text_26">
      <text style="font: 6px 'DejaVu Sans', 'Arial', 'Helvetica', 'Lucida Grande', 'Verdana', 'Geneva', 'Lucid', 'Avant Garde', sans-serif; text-anchor: middle" x="234.72" y="83.559062" transform="rotate(-0 234.72 83.559062)">1200</text>
     </g>
    </g>
    <g id="text_27">
     <text style="font: 6px 'DejaVu Sans', 'Arial', 'Helvetica', 'Lucida Grande', 'Verdana', 'Geneva', 'Lucid', 'Avant Garde', sans-serif; text-anchor: middle" x="194.4" y="93.365938" transform="rotate(-0 194.4 93.365938)">Distance (pixels)</text>
    </g>
   </g>
   <g id="matplotlib.axis_4">
    <g id="ytick_7">
     <g id="line2d_27">
      <g>
       <use xlink:href="#mf84243068f" x="144" y="72" style="stroke: #000000; stroke-width: 0.8"/>
      </g>
     </g>
     <g id="text_28">
      <text style="font: 6px 'DejaVu Sans', 'Arial', 'Helvetica', 'Lucida Grande', 'Verdana', 'Geneva', 'Lucid', 'Avant Garde', sans-serif; text-anchor: end" x="137" y="74.279531" transform="rotate(-0 137 74.279531)">0.6</text>
     </g>
    </g>
    <g id="ytick_8">
     <g id="line2d_28">
      <g>
       <use xlink:href="#mf84243068f" x="144" y="51.84" style="stroke: #000000; stroke-width: 0.8"/>
      </g>
     </g>
     <g id="text_29">
      <text style="font: 6px 'DejaVu Sans', 'Arial', 'Helvetica', 'Lucida Grande', 'Verdana', 'Geneva', 'Lucid', 'Avant Garde', sans-serif; text-anchor: end" x="137" y="54.119531" transform="rotate(-0 137 54.119531)">0.8</text>
     </g>
    </g>
    <g id="ytick_9">
     <g id="line2d_29">
      <g>
       <use xlink:href="#mf84243068f" x="144" y="31.68" style="stroke: #000000; stroke-width: 0.8"/>
      </g>
     </g>
     <g id="text_30">
      <text style="font: 6px 'DejaVu Sans', 'Arial', 'Helvetica', 'Lucida Grande', 'Verdana', 'Geneva', 'Lucid', 'Avant Garde', sans-serif; text-anchor: end" x="137" y="33.959531" transform="rotate(-0 137 33.959531)">1.0</text>
     </g>
    </g>
    <g id="text_31">
     <text style="font: 6px 'DejaVu Sans', 'Arial', 'Helvetica', 'Lucida Grande', 'Verdana', 'Geneva', 'Lucid', 'Avant Garde', sans-serif; text-anchor: middle" x="122.210313" y="46.8" transform="rotate(-90 122.210313 46.8)">Intensity (AU)</text>
    </g>
   </g>
   <g id="line2d_30">
    <path d="M 143.7984 37.866011 
L 146.016 38.823277 
L 146.4192 38.545655 
L 147.4272 37.608523 
L 147.8304 37.440409 
L 151.056 37.541151 
L 151.4592 37.776689 
L 152.2656 38.673789 
L 152.4672 38.698964 
L 152.6688 38.550135 
L 153.8784 36.830559 
L 154.2816 36.723038 
L 155.088 36.999178 
L 155.6928 37.357233 
L 156.4992 38.24933 
L 156.7008 38.251291 
L 156.9024 38.050908 
L 157.5072 36.720414 
L 157.9104 35.958927 
L 158.3136 35.553593 
L 158.9184 35.318614 
L 159.7248 35.326667 
L 160.128 35.61851 
L 161.7408 37.269099 
L 162.5472 38.329008 
L 162.7488 38.43715 
L 162.9504 38.383958 
L 163.3536 37.84552 
L 164.3616 36.035808 
L 164.7648 35.665349 
L 165.168 35.69462 
L 165.9744 36.203967 
L 167.184 36.443095 
L 168.9984 36.498785 
L 170.4096 35.958999 
L 170.8128 36.049257 
L 171.8208 36.550613 
L 172.224 36.371495 
L 172.6272 35.934487 
L 174.4416 33.078873 
L 174.8448 32.971069 
L 175.4496 33.214341 
L 176.6592 34.201524 
L 177.0624 34.141046 
L 178.0704 33.43685 
L 178.4736 33.549428 
L 179.0784 34.066668 
L 181.296 36.506439 
L 181.9008 36.784805 
L 182.304 37.006869 
L 183.5136 38.12527 
L 183.9168 38.09078 
L 184.32 37.580762 
L 184.9248 36.165558 
L 185.7312 34.36574 
L 186.5376 33.378398 
L 186.9408 33.30788 
L 187.344 33.634827 
L 187.9488 34.57196 
L 188.9568 36.333754 
L 189.36 36.454387 
L 190.5696 36.20276 
L 190.9728 35.961204 
L 191.9808 35.150306 
L 192.384 35.215876 
L 192.9888 35.430025 
L 193.392 35.204378 
L 193.9968 34.71315 
L 194.4 34.724155 
L 195.6096 35.468659 
L 196.0128 35.270809 
L 197.0208 34.35168 
L 197.6256 34.163018 
L 198.0288 34.254159 
L 199.8432 35.212399 
L 200.2464 35.142305 
L 200.8512 34.970176 
L 201.2544 35.137209 
L 201.8592 35.768917 
L 202.2624 36.100042 
L 202.8672 36.425561 
L 204.0768 37.487671 
L 204.6816 37.729341 
L 205.2864 37.691343 
L 205.8912 37.999924 
L 206.2944 38.39417 
L 206.8992 39.299837 
L 207.9072 41.187698 
L 208.1088 41.280543 
L 208.512 41.093229 
L 208.9152 40.60891 
L 209.52 39.324689 
L 209.9232 38.045598 
L 210.9312 34.100205 
L 211.3344 33.413514 
L 211.7376 33.277599 
L 212.1408 33.528033 
L 212.9472 34.595791 
L 213.552 35.368482 
L 213.7536 35.44227 
L 213.9552 35.352148 
L 214.3584 34.790655 
L 214.9632 33.97106 
L 215.1648 33.903023 
L 215.568 34.115146 
L 215.9712 34.708709 
L 217.584 37.647473 
L 217.7856 37.724019 
L 218.1888 37.421429 
L 219.1968 36.30326 
L 219.8016 35.893572 
L 220.2048 35.873989 
L 220.608 36.099677 
L 222.4224 37.435418 
L 222.8256 37.228949 
L 224.8416 35.419514 
L 226.0512 34.450385 
L 226.4544 34.478773 
L 226.8576 34.804789 
L 227.8656 35.975365 
L 228.2688 36.151251 
L 228.672 36.075377 
L 229.2768 35.478374 
L 230.8896 33.324197 
L 231.2928 33.193876 
L 231.696 33.218117 
L 232.3008 33.511958 
L 233.3088 34.362385 
L 233.9136 34.30831 
L 234.3168 34.333857 
L 234.72 34.711555 
L 235.1232 35.533172 
L 235.728 36.908249 
L 236.1312 37.449346 
L 236.5344 37.59392 
L 237.5424 37.630143 
L 237.9456 37.019044 
L 240.1632 32.427098 
L 240.5664 31.859734 
L 240.9696 31.68 
L 243.3888 32.143345 
L 243.9936 32.431069 
L 244.3968 32.580389 
L 244.8 32.953571 
L 245.0016 33.233438 
L 245.0016 33.233438 
" clip-path="url(#pe0155b0ba4)" style="fill: none; stroke: #1f77b4; stroke-linecap: square"/>
   </g>
   <g id="line2d_31">
    <path d="M 143.7984 48.650295 
L 144 49.509176 
L 144.2016 47.510057 
L 144.4032 50.723455 
L 144.6048 50.057082 
L 144.8064 50.057082 
L 145.008 52.707766 
L 145.2096 51.478678 
L 145.4112 53.87762 
L 145.6128 51.537911 
L 145.8144 54.677268 
L 146.016 52.811424 
L 146.2176 53.714729 
L 146.6208 48.650295 
L 146.8224 49.657259 
L 147.024 49.005694 
L 147.2256 49.272243 
L 147.4272 44.7261 
L 147.6288 47.613715 
L 147.8304 47.406399 
L 148.2336 48.413363 
L 148.4352 48.17643 
L 148.6368 49.553601 
L 148.8384 48.635487 
L 149.04 49.701684 
L 149.4432 47.939498 
L 149.6448 49.953424 
L 149.8464 49.287052 
L 150.048 46.962151 
L 150.4512 48.517021 
L 150.6528 47.83584 
L 150.8544 47.776606 
L 151.056 48.250472 
L 151.2576 45.777488 
L 151.4592 50.930771 
L 151.6608 49.523984 
L 152.2656 56.661578 
L 152.4672 55.595381 
L 152.6688 55.136324 
L 153.072 49.834958 
L 153.2736 47.74699 
L 153.4752 47.036192 
L 153.6768 47.806223 
L 154.08 44.948224 
L 154.2816 47.347166 
L 154.4832 45.851529 
L 154.6848 48.146814 
L 154.8864 48.235663 
L 155.088 46.769643 
L 155.2896 48.990886 
L 155.4912 49.479559 
L 155.6928 48.87242 
L 156.096 54.173786 
L 156.2976 54.010895 
L 156.4992 57.313142 
L 156.7008 56.735619 
L 157.104 50.190357 
L 157.3056 49.864575 
L 157.5072 45.436897 
L 157.7088 44.933416 
L 158.112 42.919489 
L 158.3136 44.933416 
L 158.5152 43.067572 
L 158.7168 43.852411 
L 158.9184 43.067572 
L 159.12 43.51182 
L 159.3216 44.829758 
L 159.5232 41.95695 
L 159.7248 43.541437 
L 159.9264 43.896836 
L 160.3296 47.199083 
L 160.5312 44.607633 
L 160.9344 48.561446 
L 161.3376 47.983922 
L 161.5392 49.020502 
L 161.7408 51.89331 
L 161.9424 52.781807 
L 162.144 52.530066 
L 162.3456 55.995205 
L 162.5472 57.401992 
L 162.7488 56.780044 
L 162.9504 57.253909 
L 163.3536 52.441216 
L 163.9584 46.62156 
L 164.16 46.858493 
L 164.3616 44.903799 
L 164.5632 45.288814 
L 164.9664 41.897717 
L 165.168 47.31755 
L 165.3696 47.184275 
L 165.5712 47.850648 
L 165.7728 47.273125 
L 165.9744 48.206047 
L 166.176 48.028347 
L 166.3776 50.086699 
L 166.5792 47.584099 
L 166.7808 48.324513 
L 166.9824 49.938616 
L 167.184 49.168585 
L 167.3856 49.864575 
L 167.5872 49.568409 
L 167.7888 47.791415 
L 168.192 52.159859 
L 168.3936 50.027466 
L 168.5952 50.308823 
L 168.7968 49.760917 
L 168.9984 50.397673 
L 169.2 50.308823 
L 169.6032 47.954306 
L 169.8048 47.969114 
L 170.0064 49.30186 
L 170.208 46.044037 
L 170.4096 48.220855 
L 170.6112 48.043156 
L 170.8128 48.457788 
L 171.216 49.909 
L 171.4176 53.44818 
L 171.6192 51.078854 
L 171.8208 53.462988 
L 172.4256 49.923808 
L 172.6272 51.28617 
L 173.4336 43.704328 
L 173.6352 42.741789 
L 173.8368 43.378546 
L 174.4416 38.580661 
L 174.6432 39.084143 
L 174.8448 41.971758 
L 175.0464 40.727862 
L 175.248 40.713054 
L 175.4496 42.786214 
L 175.6512 41.52751 
L 175.8528 45.777488 
L 176.0544 45.140732 
L 176.256 45.659022 
L 176.4576 47.243508 
L 176.6592 47.095425 
L 176.8608 46.606752 
L 177.0624 47.243508 
L 177.264 45.422089 
L 177.4656 41.61636 
L 177.6672 42.47524 
L 177.8688 41.631168 
L 178.0704 42.919489 
L 178.272 42.667748 
L 178.4736 41.142494 
L 178.6752 44.193001 
L 179.0784 42.845447 
L 179.28 45.15554 
L 179.4816 45.644213 
L 179.6832 48.309705 
L 179.8848 45.999612 
L 180.0864 47.287933 
L 180.288 47.021384 
L 180.4896 49.242627 
L 180.6912 49.050119 
L 181.0944 51.996968 
L 181.296 52.278325 
L 181.4976 51.80446 
L 181.6992 52.278325 
L 182.1024 49.375901 
L 182.304 51.848885 
L 182.7072 53.833195 
L 182.9088 53.759154 
L 183.312 55.269599 
L 183.5136 57.683349 
L 183.7152 56.261754 
L 183.9168 56.98736 
L 184.1184 57.046593 
L 184.5216 51.493486 
L 184.7232 51.389828 
L 184.9248 49.479559 
L 185.1264 45.185156 
L 185.7312 43.067572 
L 186.1344 42.638131 
L 186.5376 37.706972 
L 186.7392 40.194764 
L 186.9408 38.41777 
L 187.1424 40.505738 
L 187.344 43.822794 
L 187.5456 42.075416 
L 187.9488 45.881146 
L 188.1504 47.273125 
L 188.352 47.258316 
L 188.5536 52.737382 
L 188.7552 53.759154 
L 188.9568 53.344522 
L 189.1584 52.174667 
L 189.36 53.374138 
L 189.7632 50.649414 
L 189.9648 52.056201 
L 190.1664 50.827113 
L 190.368 51.611952 
L 190.5696 50.219974 
L 190.7712 52.50045 
L 190.9728 50.027466 
L 191.1744 46.029229 
L 191.376 48.428171 
L 191.5776 46.19212 
L 191.7792 46.118078 
L 191.9808 45.792296 
L 192.5856 47.436016 
L 192.7872 50.382865 
L 193.1904 49.435134 
L 193.392 46.651177 
L 193.5936 46.325394 
L 193.7952 47.821031 
L 193.9968 42.401199 
L 194.4 46.429052 
L 194.6016 46.517902 
L 194.8032 46.888109 
L 195.0048 47.791415 
L 195.2064 47.983922 
L 195.6096 51.360212 
L 195.8112 50.190357 
L 196.2144 46.651177 
L 196.6176 45.58498 
L 197.0208 43.985685 
L 197.2224 43.274888 
L 197.424 45.022265 
L 197.6256 42.430815 
L 197.8272 44.711291 
L 198.0288 43.748753 
L 198.2304 44.252234 
L 198.8352 48.17643 
L 199.0368 46.088462 
L 199.2384 50.131124 
L 199.44 45.688638 
L 199.6416 50.234782 
L 199.8432 47.287933 
L 200.0448 47.510057 
L 200.2464 47.406399 
L 200.6496 43.852411 
L 200.8512 44.444742 
L 201.0528 45.67383 
L 201.2544 46.132887 
L 201.456 43.704328 
L 201.8592 50.294015 
L 202.2624 47.598907 
L 202.464 49.064927 
L 202.6656 48.813186 
L 202.8672 47.628524 
L 203.0688 51.404636 
L 203.2704 51.256554 
L 203.472 52.75219 
L 203.8752 51.034429 
L 204.0768 51.152896 
L 204.2784 54.618034 
L 204.48 52.781807 
L 204.6816 52.041393 
L 204.8832 52.174667 
L 205.0848 48.132005 
L 205.2864 50.649414 
L 205.488 50.723455 
L 205.6896 50.560564 
L 205.8912 49.983041 
L 206.0928 49.790533 
L 206.2944 53.211247 
L 206.496 51.567528 
L 206.6976 54.233019 
L 206.8992 54.099744 
L 207.1008 55.210366 
L 207.504 62.496042 
L 207.7056 62.510851 
L 207.9072 64.465544 
L 208.1088 63.399348 
L 208.3104 63.606664 
L 208.512 61.296571 
L 208.7136 62.17026 
L 208.9152 61.814861 
L 209.1168 61.148488 
L 209.3184 57.401992 
L 209.52 57.757391 
L 209.7216 57.609308 
L 209.9232 55.254791 
L 210.3264 45.24439 
L 210.7296 39.217417 
L 210.9312 40.342847 
L 211.1328 35.21918 
L 211.3344 37.795822 
L 211.536 37.47004 
L 211.7376 38.240071 
L 211.9392 38.314112 
L 212.1408 38.876827 
L 212.3424 43.719136 
L 212.544 41.52751 
L 212.7456 46.177312 
L 212.9472 44.874182 
L 213.1488 49.242627 
L 213.3504 49.257435 
L 213.552 51.80446 
L 213.7536 52.766999 
L 213.9552 49.39071 
L 214.1568 47.954306 
L 214.7616 41.512702 
L 214.9632 40.698246 
L 215.1648 39.202609 
L 215.3664 40.994412 
L 215.568 40.83152 
L 215.7696 41.172111 
L 215.9712 44.97784 
L 216.1728 45.910762 
L 216.576 50.812305 
L 216.7776 51.360212 
L 216.9792 51.537911 
L 217.1808 53.27048 
L 217.3824 56.602345 
L 217.584 57.564883 
L 217.7856 56.809661 
L 217.9872 53.625879 
L 218.1888 53.092781 
L 218.3904 51.567528 
L 218.592 48.442979 
L 218.7936 49.538792 
L 218.9952 49.553601 
L 219.6 46.088462 
L 219.8016 47.169467 
L 220.2048 46.044037 
L 220.4064 47.74699 
L 220.608 48.235663 
L 221.0112 50.634606 
L 221.2128 47.598907 
L 221.4144 50.604989 
L 221.8176 52.84104 
L 222.0192 52.456025 
L 222.2208 53.226056 
L 222.4224 54.988242 
L 222.624 54.440335 
L 222.8256 50.901155 
L 223.0272 50.516139 
L 223.2288 50.649414 
L 223.4304 51.626761 
L 223.632 48.043156 
L 223.8336 50.649414 
L 224.2368 48.235663 
L 224.4384 48.546637 
L 224.64 47.184275 
L 224.8416 47.850648 
L 225.2448 45.821913 
L 225.4464 46.19212 
L 225.8496 42.712173 
L 226.0512 42.430815 
L 226.2528 44.104152 
L 226.4544 43.334121 
L 226.656 45.096307 
L 226.8576 43.733944 
L 227.0592 48.220855 
L 227.2608 48.072772 
L 227.4624 49.079736 
L 227.664 51.908118 
L 228.0672 49.464751 
L 228.2688 53.462988 
L 228.4704 53.152014 
L 228.672 50.353248 
L 228.8736 50.812305 
L 229.0752 49.079736 
L 229.2768 50.042274 
L 229.4784 48.250472 
L 229.68 45.422089 
L 229.8816 45.747871 
L 230.0832 42.371582 
L 230.2848 42.875064 
L 230.4864 42.430815 
L 230.688 39.202609 
L 230.8896 42.534473 
L 231.0912 40.564971 
L 231.2928 40.520546 
L 231.4944 41.068453 
L 231.696 42.65294 
L 231.8976 42.208691 
L 232.0992 42.786214 
L 232.3008 42.0458 
L 232.5024 44.859374 
L 232.9056 46.991767 
L 233.1072 45.999612 
L 233.3088 45.895954 
L 233.5104 46.843684 
L 233.712 45.481322 
L 233.9136 43.023147 
L 234.1152 44.385509 
L 234.5184 42.726981 
L 234.72 44.859374 
L 234.9216 44.97784 
L 235.3248 50.960388 
L 235.5264 52.870657 
L 235.728 53.003931 
L 235.9296 54.366294 
L 236.1312 56.824469 
L 236.5344 53.566646 
L 236.736 53.640688 
L 236.9376 53.848004 
L 237.1392 57.742583 
L 237.3408 57.061401 
L 237.5424 55.743464 
L 237.744 55.34364 
L 237.9456 53.137206 
L 238.1472 49.64245 
L 238.3488 49.30186 
L 238.5504 46.073654 
L 238.752 45.288814 
L 238.9536 46.976959 
L 239.3568 43.970877 
L 239.5584 43.793178 
L 239.76 41.335002 
L 240.3648 38.787977 
L 240.5664 37.188682 
L 240.768 37.307149 
L 241.3728 40.40208 
L 241.5744 37.81063 
L 241.776 41.394235 
L 241.9776 40.861137 
L 242.1792 39.321075 
L 242.3808 41.364619 
L 242.5824 39.97264 
L 242.784 40.83152 
L 243.1872 39.128568 
L 243.3888 43.42297 
L 243.5904 41.660784 
L 243.792 41.749634 
L 243.9936 41.453468 
L 244.1952 39.824557 
L 244.3968 42.149458 
L 244.5984 38.195646 
L 244.8 42.445624 
L 245.0016 41.764442 
L 245.0016 41.764442 
" clip-path="url(#pe0155b0ba4)" style="fill: none; stroke: #ff7f0e; stroke-linecap: square"/>
   </g>
   <g id="line2d_32">
    <path d="M 143.7984 42.466989 
L 144.6048 43.342029 
L 145.8144 45.8522 
L 146.016 45.683168 
L 146.4192 44.170361 
L 146.8224 42.528705 
L 147.4272 41.053513 
L 147.6288 40.831322 
L 147.8304 40.840879 
L 148.2336 41.365088 
L 148.6368 41.954638 
L 148.8384 42.002559 
L 149.4432 41.589664 
L 150.2496 41.778083 
L 151.056 40.918881 
L 151.2576 41.087781 
L 151.4592 41.821951 
L 152.2656 47.191917 
L 152.4672 47.066658 
L 152.6688 45.998436 
L 153.4752 39.512701 
L 153.6768 39.198391 
L 153.8784 39.314416 
L 154.2816 39.930618 
L 154.8864 41.055859 
L 155.088 41.011743 
L 155.2896 40.808923 
L 155.4912 40.864611 
L 155.6928 41.61309 
L 156.4992 47.34207 
L 156.7008 47.021156 
L 157.104 43.676117 
L 157.5072 39.481444 
L 157.9104 37.628177 
L 158.112 37.578728 
L 158.5152 37.939337 
L 158.7168 37.978594 
L 159.5232 37.535445 
L 159.7248 37.72049 
L 160.128 38.987871 
L 160.5312 40.177009 
L 160.9344 40.586841 
L 161.3376 40.920305 
L 161.5392 41.429211 
L 161.9424 43.796502 
L 162.3456 46.641925 
L 162.5472 47.331684 
L 162.7488 47.417687 
L 162.9504 46.95695 
L 163.3536 44.422859 
L 163.9584 39.88146 
L 164.3616 38.030258 
L 164.5632 37.468011 
L 164.7648 37.408433 
L 164.9664 37.991983 
L 165.5712 40.624729 
L 165.9744 41.128257 
L 166.3776 41.2889 
L 167.184 41.250695 
L 167.3856 41.205529 
L 167.5872 41.319114 
L 168.3936 42.480817 
L 168.5952 42.424312 
L 169.2 41.645748 
L 170.4096 39.794409 
L 170.6112 39.87837 
L 170.8128 40.580485 
L 171.4176 43.65534 
L 171.6192 43.87846 
L 172.0224 43.598278 
L 172.224 43.397681 
L 172.4256 42.987081 
L 172.8288 41.03495 
L 173.6352 36.541248 
L 174.4416 34.282581 
L 174.6432 34.167634 
L 174.8448 34.343495 
L 175.248 35.200309 
L 175.6512 36.465302 
L 176.4576 39.718206 
L 176.6592 39.886751 
L 176.8608 39.693803 
L 177.0624 39.083763 
L 177.8688 35.269592 
L 178.0704 35.268949 
L 178.4736 35.973197 
L 178.8768 37.124381 
L 179.4816 39.02723 
L 179.8848 39.660279 
L 180.288 40.070616 
L 180.4896 40.610135 
L 181.0944 43.01837 
L 181.296 43.14537 
L 181.6992 42.514138 
L 181.9008 42.163845 
L 182.1024 42.123702 
L 182.304 42.522401 
L 183.1104 45.590983 
L 183.5136 47.364915 
L 183.7152 47.628364 
L 183.9168 47.265932 
L 184.32 45.329901 
L 184.9248 40.428544 
L 185.328 37.683174 
L 186.5376 33.925445 
L 186.7392 33.875629 
L 187.1424 34.85747 
L 187.5456 36.253876 
L 187.9488 38.599232 
L 188.5536 42.843271 
L 188.9568 43.946889 
L 189.1584 43.991073 
L 189.36 43.692496 
L 189.9648 41.989335 
L 190.1664 42.03955 
L 190.5696 42.725682 
L 190.7712 42.481083 
L 191.1744 40.569298 
L 191.5776 38.788538 
L 191.7792 38.400279 
L 191.9808 38.452736 
L 192.1824 38.9194 
L 192.9888 41.568258 
L 193.1904 41.079723 
L 193.9968 37.174764 
L 194.1984 37.273634 
L 194.6016 38.817235 
L 195.2064 41.322932 
L 195.408 41.859508 
L 195.6096 42.036933 
L 195.8112 41.654572 
L 196.8192 37.48697 
L 197.2224 37.039917 
L 197.6256 36.933271 
L 197.8272 37.035862 
L 198.2304 37.806462 
L 198.8352 39.414 
L 199.44 40.112361 
L 199.6416 40.266431 
L 199.8432 40.170181 
L 200.2464 39.077842 
L 200.6496 37.706681 
L 200.8512 37.440733 
L 201.0528 37.602486 
L 201.456 39.020521 
L 201.8592 40.660119 
L 202.0608 40.963585 
L 202.2624 40.899265 
L 202.6656 40.572415 
L 202.8672 40.781936 
L 203.8752 43.489564 
L 204.2784 43.782865 
L 204.48 43.800385 
L 204.6816 43.509495 
L 205.2864 41.945267 
L 205.488 41.941031 
L 205.8912 42.306378 
L 206.2944 43.016444 
L 206.6976 44.143772 
L 206.8992 45.080571 
L 207.3024 48.498032 
L 207.7056 51.653382 
L 207.9072 52.108002 
L 208.1088 51.937805 
L 209.1168 49.595283 
L 209.52 47.820537 
L 209.9232 44.500112 
L 210.9312 32.337162 
L 211.1328 31.956391 
L 211.3344 32.144735 
L 211.7376 33.430602 
L 212.7456 37.385962 
L 213.552 42.817034 
L 213.7536 42.548649 
L 214.1568 39.680373 
L 214.7616 35.062009 
L 214.9632 34.348124 
L 215.1648 34.269795 
L 215.3664 34.760417 
L 215.9712 37.794705 
L 216.7776 42.497079 
L 217.1808 45.293469 
L 217.3824 46.114853 
L 217.584 46.429664 
L 217.7856 46.247794 
L 217.9872 45.540702 
L 218.7936 40.982939 
L 219.3984 39.606558 
L 219.8016 38.98415 
L 220.0032 38.892364 
L 220.2048 39.042928 
L 220.608 39.968949 
L 221.616 42.860444 
L 222.2208 44.931046 
L 222.4224 45.013842 
L 222.624 44.554089 
L 223.2288 42.23851 
L 224.2368 40.397092 
L 224.8416 39.896477 
L 225.2448 39.022951 
L 226.0512 36.427307 
L 226.2528 36.354644 
L 226.4544 36.715591 
L 226.8576 38.646982 
L 227.4624 41.708874 
L 228.0672 43.03703 
L 228.2688 43.323123 
L 228.4704 43.387819 
L 228.672 43.113161 
L 229.0752 41.670074 
L 230.688 35.452603 
L 231.696 35.585434 
L 231.8976 35.687341 
L 232.0992 36.071884 
L 233.1072 39.874674 
L 233.3088 39.867023 
L 233.5104 39.38039 
L 234.3168 36.31648 
L 234.5184 36.706263 
L 234.9216 39.15859 
L 235.9296 46.319634 
L 236.1312 46.065241 
L 236.5344 44.79806 
L 236.736 45.034678 
L 237.3408 47.080318 
L 237.5424 46.829452 
L 237.9456 44.6764 
L 238.5504 40.482404 
L 238.9536 39.316037 
L 239.3568 38.305989 
L 239.76 36.32327 
L 240.3648 32.687512 
L 240.5664 32.383937 
L 240.768 32.634611 
L 241.776 35.55082 
L 241.9776 35.663224 
L 242.1792 35.560518 
L 242.784 34.430504 
L 242.9856 34.502416 
L 243.5904 35.793932 
L 243.792 35.822638 
L 244.3968 34.963795 
L 244.5984 35.05099 
L 244.8 35.55348 
L 245.0016 36.416534 
L 245.0016 36.416534 
" clip-path="url(#pe0155b0ba4)" style="fill: none; stroke: #2ca02c; stroke-linecap: square"/>
   </g>
   <g id="patch_7">
    <path d="M 144 72 
L 144 21.6 
" style="fill: none; stroke: #000000; stroke-width: 0.5; stroke-linejoin: miter; stroke-linecap: square"/>
   </g>
   <g id="patch_8">
    <path d="M 144 72 
L 244.8 72 
" style="fill: none; stroke: #000000; stroke-width: 0.5; stroke-linejoin: miter; stroke-linecap: square"/>
   </g>
   <g id="text_32">
    <text style="font: 6px 'DejaVu Sans', 'Arial', 'Helvetica', 'Lucida Grande', 'Verdana', 'Geneva', 'Lucid', 'Avant Garde', sans-serif; text-anchor: middle" x="194.4" y="15.6" transform="rotate(-0 194.4 15.6)">Inset: Zoomed View</text>
   </g>
  </g>
 </g>
 <defs>
  <clipPath id="p4d9f2c947b">
   <rect x="36" y="17.28" width="223.2" height="110.88"/>
  </clipPath>
  <clipPath id="pe0155b0ba4">
   <rect x="144" y="21.6" width="100.8" height="50.4"/>
  </clipPath>
 </defs>
</svg>
